M48
INCH,LZ
;FILE_FORMAT=2:4
;TYPE=PLATED
;Layer: Drill PTH
;EasyEDA v6.4.25, 2021-12-06T09:29:09+01:00
;709bd2a449c44a659231e49a93e94fa4,7d3f4a13764643a7838717c5c1d40531,10
;Gerber Generator version 0.2
;Holesize 1 = 0.0280 inch
T01C0.0280
;Holesize 2 = 0.0280 inch
T02C0.0280
;Holesize 3 = 0.0320 inch
T03C0.0320
;Holesize 4 = 0.0350 inch
T04C0.0350
;Holesize 5 = 0.0350 inch
T05C0.0350
;Holesize 6 = 0.0350 inch
T06C0.0350
;Holesize 7 = 0.0360 inch
T07C0.0360
;Holesize 8 = 0.0380 inch
T08C0.0380
;Holesize 9 = 0.0390 inch
T09C0.0390
;Holesize 10 = 0.0430 inch
T10C0.0430
;Holesize 11 = 0.0470 inch
T11C0.0470
%
G05
G90
T01
X008500Y011500
X008500Y011000
X008500Y010500
X009000Y003625
X008500Y003625
X008000Y003625
X009000Y005375
X008500Y005375
X008000Y005375
X009000Y007125
X008500Y007125
X008000Y007125
X009000Y008875
X008500Y008875
X008000Y008875
T02
X012250Y013250
X014250Y013250
X012250Y014750
X014250Y014750
T03
X008000Y001875
X008500Y001875
X009000Y001875
T04
X001500Y002625
X001500Y003625
X001500Y004625
X002000Y013000
X001000Y013000
X002000Y014000
X001000Y014000
X002000Y015000
X001000Y015000
X032000Y013250
X032000Y014250
X032000Y015250
T05
X006750Y010000
X002750Y010000
X006750Y011500
X002750Y011500
X015250Y016500
X011250Y016500
X002750Y002500
X006750Y002500
X002750Y004000
X006750Y004000
X002750Y005500
X006750Y005500
X002750Y007000
X006750Y007000
X002750Y008500
X006750Y008500
X014250Y002550
X010250Y002550
X014250Y004050
X010250Y004050
X014250Y005550
X010250Y005550
X014250Y007050
X010250Y007050
X014250Y008550
X010250Y008550
T06
X007250Y016250
X007250Y015250
X007250Y014250
X007250Y013250
X010250Y016250
X010250Y015250
X010250Y014250
X010250Y013250
T07
X016500Y016000
X016500Y015000
X016500Y014000
X016500Y013000
X016500Y012000
X016500Y011000
X016500Y010000
X016500Y009000
X016500Y008000
X016500Y007000
X016500Y006000
X016500Y005000
X016500Y004000
X016500Y003000
X016500Y002000
X022500Y002000
X022500Y003000
X022500Y004000
X022500Y005000
X022500Y006000
X022500Y007000
X022500Y008000
X022500Y009000
X022500Y010000
X022500Y011000
X022500Y012000
X022500Y013000
X022500Y014000
X022500Y015000
X022500Y016000
X002000Y016750
X001000Y016750
T08
X028000Y005000
X028000Y004000
X035250Y005000
X035250Y004000
X034000Y012500
X033000Y012500
X033000Y016500
X034000Y016500
X028000Y015000
X028000Y014000
X031000Y016500
X030000Y016500
X036000Y015000
X036000Y014000
X031000Y012500
X030000Y012500
T09
X006325Y014750
X003175Y014750
X003175Y016250
X006325Y016250
T10
X001500Y006625
X001500Y005625
X001500Y008625
X001500Y007625
X001500Y010625
X001500Y009625
X037250Y005000
X037250Y004000
X030000Y005000
X030000Y004000
T11
X012750Y010502
X013750Y010498
X011750Y010502
M30
