G04 Layer: TopSolderMaskLayer*
G04 EasyEDA v6.4.25, 2021-12-06T09:29:09+01:00*
G04 709bd2a449c44a659231e49a93e94fa4,7d3f4a13764643a7838717c5c1d40531,10*
G04 Gerber Generator version 0.2*
G04 Scale: 100 percent, Rotated: No, Reflected: No *
G04 Dimensions in inches *
G04 leading zeros omitted , absolute positions ,3 integer and 6 decimal *
%FSLAX36Y36*%
%MOIN*%

%ADD18C,0.0740*%
%ADD40C,0.0749*%
%ADD41C,0.0394*%
%ADD43C,0.0660*%
%ADD44R,0.0660X0.0660*%
%ADD45C,0.0780*%
%ADD47C,0.0640*%
%ADD48C,0.0670*%
%ADD50C,0.0690*%
%ADD53C,0.0709*%
%ADD55C,0.0631*%

%LPD*%
D40*
X1274997Y1065943D02*
G01*
X1274997Y1034447D01*
X1375006Y1065553D02*
G01*
X1375006Y1034056D01*
D41*
X800000Y173719D02*
G01*
X800000Y201278D01*
X850000Y173719D02*
G01*
X850000Y201278D01*
X863779Y1100000D02*
G01*
X836220Y1100000D01*
X863779Y1050000D02*
G01*
X836220Y1050000D01*
X850000Y348719D02*
G01*
X850000Y376278D01*
X800000Y348719D02*
G01*
X800000Y376278D01*
X850000Y523719D02*
G01*
X850000Y551278D01*
X800000Y523719D02*
G01*
X800000Y551278D01*
X850000Y698719D02*
G01*
X850000Y726278D01*
X800000Y698719D02*
G01*
X800000Y726278D01*
X850000Y873719D02*
G01*
X850000Y901278D01*
X800000Y873719D02*
G01*
X800000Y901278D01*
G36*
X1137600Y996999D02*
G01*
X1137600Y1103400D01*
X1212399Y1103400D01*
X1212399Y996999D01*
G37*
D43*
G01*
X150000Y262500D03*
G01*
X150000Y362500D03*
G36*
X116999Y429499D02*
G01*
X116999Y495500D01*
X183000Y495500D01*
X183000Y429499D01*
G37*
D18*
G01*
X1225000Y1325000D03*
G01*
X1425000Y1325000D03*
G01*
X1225000Y1475000D03*
G01*
X1425000Y1475000D03*
D45*
G01*
X675000Y1000000D03*
G01*
X275000Y1000000D03*
G36*
X880299Y154000D02*
G01*
X880299Y220999D01*
X919700Y220999D01*
X919700Y154000D01*
G37*
G01*
X675000Y1150000D03*
G01*
X275000Y1150000D03*
D47*
G01*
X1650000Y1600000D03*
G01*
X1650000Y1500000D03*
G01*
X1650000Y1400000D03*
G01*
X1650000Y1300000D03*
G01*
X1650000Y1200000D03*
G01*
X1650000Y1100000D03*
G01*
X1650000Y1000000D03*
G01*
X1650000Y900000D03*
G01*
X1650000Y800000D03*
G01*
X1650000Y700000D03*
G01*
X1650000Y600000D03*
G01*
X1650000Y500000D03*
G01*
X1650000Y400000D03*
G01*
X1650000Y300000D03*
G01*
X1650000Y200000D03*
G01*
X2250000Y200000D03*
G01*
X2250000Y300000D03*
G01*
X2250000Y400000D03*
G01*
X2250000Y500000D03*
G01*
X2250000Y600000D03*
G01*
X2250000Y700000D03*
G01*
X2250000Y800000D03*
G01*
X2250000Y900000D03*
G01*
X2250000Y1000000D03*
G01*
X2250000Y1100000D03*
G01*
X2250000Y1200000D03*
G01*
X2250000Y1300000D03*
G01*
X2250000Y1400000D03*
G01*
X2250000Y1500000D03*
G01*
X2250000Y1600000D03*
D43*
G01*
X200000Y1300000D03*
G01*
X100000Y1300000D03*
G01*
X200000Y1400000D03*
G01*
X100000Y1400000D03*
G01*
X200000Y1500000D03*
G36*
X66999Y1466999D02*
G01*
X66999Y1533000D01*
X133000Y1533000D01*
X133000Y1466999D01*
G37*
D48*
G01*
X200000Y1675000D03*
G36*
X66500Y1641500D02*
G01*
X66500Y1708499D01*
X133499Y1708499D01*
X133499Y1641500D01*
G37*
D50*
G01*
X2800000Y500000D03*
G01*
X2800000Y400000D03*
G01*
X3525000Y500000D03*
G01*
X3525000Y400000D03*
G36*
X816499Y1130300D02*
G01*
X816499Y1169699D01*
X883500Y1169699D01*
X883500Y1130300D01*
G37*
G36*
X880299Y329000D02*
G01*
X880299Y395999D01*
X919700Y395999D01*
X919700Y329000D01*
G37*
G36*
X880299Y504000D02*
G01*
X880299Y570999D01*
X919700Y570999D01*
X919700Y504000D01*
G37*
G36*
X880299Y679000D02*
G01*
X880299Y745999D01*
X919700Y745999D01*
X919700Y679000D01*
G37*
G36*
X880299Y854000D02*
G01*
X880299Y920999D01*
X919700Y920999D01*
X919700Y854000D01*
G37*
G36*
X116999Y626999D02*
G01*
X116999Y698000D01*
X183000Y698000D01*
X183000Y626999D01*
G37*
D53*
G01*
X150000Y562500D03*
G36*
X116999Y826999D02*
G01*
X116999Y898000D01*
X183000Y898000D01*
X183000Y826999D01*
G37*
G01*
X150000Y762500D03*
G36*
X116999Y1026999D02*
G01*
X116999Y1098000D01*
X183000Y1098000D01*
X183000Y1026999D01*
G37*
G01*
X150000Y962500D03*
D45*
G01*
X1525000Y1650000D03*
G01*
X1125000Y1650000D03*
D40*
G01*
X632480Y1475000D03*
G01*
X317519Y1475000D03*
G01*
X317519Y1625000D03*
G01*
X632480Y1625000D03*
D45*
G01*
X275000Y250000D03*
G01*
X675000Y250000D03*
G01*
X275000Y400000D03*
G01*
X675000Y400000D03*
G01*
X275000Y550000D03*
G01*
X675000Y550000D03*
G01*
X275000Y700000D03*
G01*
X675000Y700000D03*
G01*
X275000Y850000D03*
G01*
X675000Y850000D03*
G01*
X1425000Y255000D03*
G01*
X1025000Y255000D03*
G01*
X1425000Y405000D03*
G01*
X1025000Y405000D03*
G01*
X1425000Y555000D03*
G01*
X1025000Y555000D03*
G01*
X1425000Y705000D03*
G01*
X1025000Y705000D03*
G01*
X1425000Y855000D03*
G01*
X1025000Y855000D03*
G36*
X693499Y1593499D02*
G01*
X693499Y1656500D01*
X756500Y1656500D01*
X756500Y1593499D01*
G37*
D55*
G01*
X725000Y1525000D03*
G01*
X725000Y1425000D03*
G01*
X725000Y1325000D03*
G01*
X1025000Y1625000D03*
G01*
X1025000Y1525000D03*
G01*
X1025000Y1425000D03*
G01*
X1025000Y1325000D03*
D50*
G01*
X3400000Y1250000D03*
G01*
X3300000Y1250000D03*
G01*
X3300000Y1650000D03*
G01*
X3400000Y1650000D03*
G01*
X2800000Y1500000D03*
G01*
X2800000Y1400000D03*
G01*
X3100000Y1650000D03*
G01*
X3000000Y1650000D03*
G01*
X3600000Y1500000D03*
G01*
X3600000Y1400000D03*
G01*
X3100000Y1250000D03*
G01*
X3000000Y1250000D03*
D43*
G01*
X3200000Y1325000D03*
G01*
X3200000Y1425000D03*
D44*
G01*
X3200000Y1525000D03*
G36*
X3691999Y464499D02*
G01*
X3691999Y535500D01*
X3758000Y535500D01*
X3758000Y464499D01*
G37*
D53*
G01*
X3725000Y400000D03*
G36*
X2966999Y464499D02*
G01*
X2966999Y535500D01*
X3033000Y535500D01*
X3033000Y464499D01*
G37*
G01*
X3000000Y400000D03*
M02*
