G04 Layer: BottomLayer*
G04 EasyEDA v6.4.25, 2021-12-06T09:29:09+01:00*
G04 709bd2a449c44a659231e49a93e94fa4,7d3f4a13764643a7838717c5c1d40531,10*
G04 Gerber Generator version 0.2*
G04 Scale: 100 percent, Rotated: No, Reflected: No *
G04 Dimensions in inches *
G04 leading zeros omitted , absolute positions ,3 integer and 6 decimal *
%FSLAX36Y36*%
%MOIN*%

%ADD11C,0.0400*%
%ADD12C,0.0350*%
%ADD15C,0.0620*%
%ADD16R,0.0620X0.0620*%
%ADD17C,0.0700*%
%ADD18C,0.0740*%
%ADD19R,0.0354X0.0630*%
%ADD20C,0.0600*%
%ADD21C,0.0590*%
%ADD23C,0.0650*%
%ADD24R,0.0630X0.0354*%
%ADD25R,0.0620X0.0669*%
%ADD26C,0.0669*%
%ADD27C,0.0709*%
%ADD28R,0.0591X0.0591*%
%ADD29C,0.0591*%
%ADD30C,0.0354*%

%LPD*%
G36*
X331300Y99580D02*
G01*
X324880Y100000D01*
X75000Y100000D01*
X68220Y100480D01*
X61800Y101780D01*
X55620Y103920D01*
X49780Y106840D01*
X44360Y110500D01*
X39460Y114840D01*
X35180Y119780D01*
X31580Y125239D01*
X28720Y131120D01*
X26640Y137320D01*
X25400Y143740D01*
X25000Y150000D01*
X25000Y1700000D01*
X25480Y1706780D01*
X26780Y1713200D01*
X28920Y1719379D01*
X31840Y1725220D01*
X35500Y1730640D01*
X39840Y1735540D01*
X44780Y1739820D01*
X50240Y1743420D01*
X56120Y1746279D01*
X62320Y1748360D01*
X68740Y1749600D01*
X75000Y1750000D01*
X2275000Y1750000D01*
X2281780Y1749520D01*
X2288200Y1748220D01*
X2294380Y1746080D01*
X2300220Y1743160D01*
X2305640Y1739500D01*
X2310540Y1735160D01*
X2314820Y1730220D01*
X2318420Y1724760D01*
X2321280Y1718880D01*
X2323360Y1712680D01*
X2324600Y1706260D01*
X2325000Y1700000D01*
X2325000Y150000D01*
X2324520Y143220D01*
X2323220Y136800D01*
X2321080Y130620D01*
X2318160Y124780D01*
X2314500Y119360D01*
X2310160Y114460D01*
X2305220Y110180D01*
X2299760Y106580D01*
X2293880Y103720D01*
X2287680Y101640D01*
X2281260Y100399D01*
X2275000Y100000D01*
X1549740Y99980D01*
X1543700Y99580D01*
X1537120Y100000D01*
X1530660Y101280D01*
X1524420Y103379D01*
X1518520Y106300D01*
X1513040Y109960D01*
X1508100Y114320D01*
X1503779Y119280D01*
X1500320Y124480D01*
X1499840Y125559D01*
X1497520Y133480D01*
X1494319Y141700D01*
X1490440Y149620D01*
X1485880Y157180D01*
X1480700Y164340D01*
X1474920Y171000D01*
X1468580Y177160D01*
X1461759Y182760D01*
X1454480Y187740D01*
X1446780Y192079D01*
X1438760Y195740D01*
X1436459Y196580D01*
X1435020Y197460D01*
X1434079Y198840D01*
X1433800Y200500D01*
X1434220Y202120D01*
X1435260Y203420D01*
X1436740Y204200D01*
X1441720Y205560D01*
X1447440Y207880D01*
X1452860Y210859D01*
X1457880Y214480D01*
X1462440Y218640D01*
X1466480Y223320D01*
X1469940Y228460D01*
X1472760Y233960D01*
X1474920Y239760D01*
X1476360Y245760D01*
X1477100Y251900D01*
X1477100Y258100D01*
X1476360Y264240D01*
X1474920Y270240D01*
X1472760Y276040D01*
X1469940Y281540D01*
X1466480Y286680D01*
X1462440Y291360D01*
X1457880Y295520D01*
X1452860Y299140D01*
X1447440Y302120D01*
X1441720Y304440D01*
X1435760Y306080D01*
X1429640Y306980D01*
X1423460Y307160D01*
X1417300Y306620D01*
X1411240Y305340D01*
X1405380Y303360D01*
X1399800Y300700D01*
X1394580Y297400D01*
X1389780Y293500D01*
X1385460Y289080D01*
X1381720Y284160D01*
X1378560Y278840D01*
X1376080Y273180D01*
X1374259Y267260D01*
X1373180Y261180D01*
X1372800Y255000D01*
X1373180Y248820D01*
X1374259Y242740D01*
X1376080Y236820D01*
X1378560Y231160D01*
X1381720Y225840D01*
X1385460Y220920D01*
X1389780Y216500D01*
X1394580Y212600D01*
X1397720Y210600D01*
X1398899Y209460D01*
X1399520Y207920D01*
X1399480Y206280D01*
X1398760Y204780D01*
X1397500Y203720D01*
X1395920Y203240D01*
X1386780Y202460D01*
X1378100Y200960D01*
X1369560Y198720D01*
X1361240Y195740D01*
X1353220Y192079D01*
X1345520Y187740D01*
X1338240Y182760D01*
X1331420Y177160D01*
X1325080Y171000D01*
X1319300Y164340D01*
X1314120Y157180D01*
X1309560Y149620D01*
X1305680Y141700D01*
X1302480Y133480D01*
X1300160Y125559D01*
X1299680Y124480D01*
X1296220Y119280D01*
X1291900Y114320D01*
X1286960Y109960D01*
X1281480Y106300D01*
X1275580Y103379D01*
X1269340Y101280D01*
X1262880Y100000D01*
X1256300Y99580D01*
X1249880Y100000D01*
X625120Y100000D01*
X618700Y99580D01*
X612120Y100000D01*
X605660Y101280D01*
X599420Y103379D01*
X593520Y106300D01*
X588040Y109960D01*
X583100Y114320D01*
X578780Y119280D01*
X575320Y124480D01*
X574840Y125559D01*
X572520Y133480D01*
X569320Y141700D01*
X565440Y149620D01*
X560880Y157180D01*
X555700Y164340D01*
X549920Y171000D01*
X543580Y177160D01*
X536760Y182760D01*
X529480Y187740D01*
X521780Y192079D01*
X513760Y195740D01*
X505439Y198720D01*
X496900Y200960D01*
X488200Y202460D01*
X479420Y203220D01*
X470580Y203220D01*
X461800Y202460D01*
X453100Y200960D01*
X444560Y198720D01*
X436240Y195740D01*
X428220Y192079D01*
X420520Y187740D01*
X413240Y182760D01*
X406420Y177160D01*
X400080Y171000D01*
X394300Y164340D01*
X389120Y157180D01*
X384560Y149620D01*
X380680Y141700D01*
X377480Y133480D01*
X375160Y125559D01*
X374680Y124480D01*
X371220Y119280D01*
X366900Y114320D01*
X361960Y109960D01*
X356480Y106300D01*
X350580Y103379D01*
X344340Y101280D01*
X337879Y100000D01*
G37*

%LPC*%
G36*
X882480Y140800D02*
G01*
X917520Y140800D01*
X920680Y141120D01*
X923520Y141980D01*
X926160Y143380D01*
X928460Y145260D01*
X930340Y147580D01*
X931740Y150200D01*
X932600Y153040D01*
X932920Y156200D01*
X932920Y218800D01*
X932600Y221960D01*
X931740Y224800D01*
X930340Y227420D01*
X928460Y229740D01*
X926160Y231620D01*
X923520Y233020D01*
X920680Y233880D01*
X917520Y234200D01*
X882480Y234200D01*
X879320Y233880D01*
X876480Y233020D01*
X873840Y231620D01*
X871580Y229740D01*
X870180Y229000D01*
X868620Y228860D01*
X867120Y229320D01*
X863660Y231220D01*
X859280Y232860D01*
X854680Y233860D01*
X850000Y234180D01*
X845320Y233860D01*
X840720Y232860D01*
X836340Y231220D01*
X832200Y228960D01*
X828460Y226140D01*
X827820Y225520D01*
X826540Y224660D01*
X825000Y224360D01*
X823460Y224660D01*
X822180Y225520D01*
X821540Y226140D01*
X817800Y228960D01*
X813660Y231220D01*
X809280Y232860D01*
X804680Y233860D01*
X800000Y234180D01*
X795320Y233860D01*
X790720Y232860D01*
X786340Y231220D01*
X782200Y228960D01*
X778460Y226140D01*
X775140Y222820D01*
X772320Y219060D01*
X770060Y214940D01*
X768420Y210560D01*
X767420Y205960D01*
X767080Y201140D01*
X767080Y173860D01*
X767420Y169040D01*
X768420Y164440D01*
X770060Y160060D01*
X772320Y155920D01*
X775140Y152180D01*
X778460Y148860D01*
X782200Y146040D01*
X786340Y143780D01*
X790720Y142140D01*
X795320Y141140D01*
X800000Y140820D01*
X804680Y141140D01*
X809280Y142140D01*
X813660Y143780D01*
X817800Y146040D01*
X821540Y148860D01*
X822180Y149480D01*
X823460Y150340D01*
X825000Y150640D01*
X826540Y150340D01*
X827820Y149480D01*
X828460Y148860D01*
X832200Y146040D01*
X836340Y143780D01*
X840720Y142140D01*
X845320Y141140D01*
X850000Y140820D01*
X854680Y141140D01*
X859280Y142140D01*
X863660Y143780D01*
X867120Y145680D01*
X868620Y146140D01*
X870180Y146000D01*
X871580Y145260D01*
X873840Y143380D01*
X876480Y141980D01*
X879320Y141120D01*
G37*
G36*
X1647160Y154900D02*
G01*
X1652840Y154900D01*
X1658460Y155600D01*
X1663959Y157020D01*
X1669240Y159100D01*
X1674220Y161840D01*
X1678800Y165180D01*
X1682940Y169060D01*
X1686560Y173440D01*
X1689600Y178220D01*
X1692020Y183359D01*
X1693779Y188760D01*
X1694840Y194340D01*
X1695200Y200000D01*
X1694840Y205660D01*
X1693779Y211240D01*
X1692020Y216640D01*
X1689600Y221780D01*
X1686560Y226560D01*
X1682940Y230940D01*
X1678800Y234820D01*
X1674220Y238160D01*
X1669240Y240900D01*
X1663959Y242979D01*
X1658460Y244400D01*
X1652840Y245100D01*
X1647160Y245100D01*
X1641540Y244400D01*
X1636040Y242979D01*
X1630760Y240900D01*
X1625780Y238160D01*
X1621200Y234820D01*
X1617060Y230940D01*
X1613440Y226560D01*
X1610400Y221780D01*
X1607980Y216640D01*
X1606220Y211240D01*
X1605160Y205660D01*
X1604800Y200000D01*
X1605160Y194340D01*
X1606220Y188760D01*
X1607980Y183359D01*
X1610400Y178220D01*
X1613440Y173440D01*
X1617060Y169060D01*
X1621200Y165180D01*
X1625780Y161840D01*
X1630760Y159100D01*
X1636040Y157020D01*
X1641540Y155600D01*
G37*
G36*
X2247160Y154900D02*
G01*
X2252840Y154900D01*
X2258460Y155600D01*
X2263960Y157020D01*
X2269240Y159100D01*
X2274220Y161840D01*
X2278800Y165180D01*
X2282940Y169060D01*
X2286560Y173440D01*
X2289600Y178220D01*
X2292020Y183359D01*
X2293780Y188760D01*
X2294840Y194340D01*
X2295200Y200000D01*
X2294840Y205660D01*
X2293780Y211240D01*
X2292020Y216640D01*
X2289600Y221780D01*
X2286560Y226560D01*
X2282940Y230940D01*
X2278800Y234820D01*
X2274220Y238160D01*
X2269240Y240900D01*
X2263960Y242979D01*
X2258460Y244400D01*
X2252840Y245100D01*
X2247160Y245100D01*
X2241540Y244400D01*
X2236040Y242979D01*
X2230760Y240900D01*
X2225780Y238160D01*
X2221200Y234820D01*
X2217060Y230940D01*
X2213440Y226560D01*
X2210400Y221780D01*
X2207980Y216640D01*
X2206220Y211240D01*
X2205160Y205660D01*
X2204800Y200000D01*
X2205160Y194340D01*
X2206220Y188760D01*
X2207980Y183359D01*
X2210400Y178220D01*
X2213440Y173440D01*
X2217060Y169060D01*
X2221200Y165180D01*
X2225780Y161840D01*
X2230760Y159100D01*
X2236040Y157020D01*
X2241540Y155600D01*
G37*
G36*
X276540Y197820D02*
G01*
X282700Y198380D01*
X288760Y199660D01*
X294620Y201640D01*
X300200Y204300D01*
X305420Y207600D01*
X310220Y211500D01*
X314540Y215920D01*
X318280Y220840D01*
X321440Y226160D01*
X323920Y231820D01*
X325740Y237740D01*
X326820Y243820D01*
X327200Y250000D01*
X326820Y256180D01*
X325740Y262260D01*
X323920Y268180D01*
X321440Y273840D01*
X318280Y279160D01*
X314540Y284080D01*
X310220Y288500D01*
X305420Y292400D01*
X300200Y295700D01*
X294620Y298360D01*
X288760Y300340D01*
X282700Y301620D01*
X276540Y302160D01*
X270360Y301980D01*
X264240Y301080D01*
X258280Y299440D01*
X252560Y297120D01*
X247140Y294140D01*
X242120Y290520D01*
X237560Y286360D01*
X233520Y281680D01*
X230060Y276540D01*
X227240Y271040D01*
X225080Y265240D01*
X223640Y259240D01*
X222900Y253100D01*
X222900Y246900D01*
X223640Y240760D01*
X225080Y234760D01*
X227240Y228960D01*
X230060Y223460D01*
X233520Y218320D01*
X237560Y213640D01*
X242120Y209480D01*
X247140Y205859D01*
X252560Y202880D01*
X258280Y200560D01*
X264240Y198920D01*
X270360Y198020D01*
G37*
G36*
X676540Y197820D02*
G01*
X682700Y198380D01*
X688760Y199660D01*
X694620Y201640D01*
X700200Y204300D01*
X705420Y207600D01*
X710220Y211500D01*
X714539Y215920D01*
X718280Y220840D01*
X721440Y226160D01*
X723920Y231820D01*
X725740Y237740D01*
X726820Y243820D01*
X727200Y250000D01*
X726820Y256180D01*
X725740Y262260D01*
X723920Y268180D01*
X721440Y273840D01*
X718280Y279160D01*
X714539Y284080D01*
X710220Y288500D01*
X705420Y292400D01*
X700200Y295700D01*
X694620Y298360D01*
X688760Y300340D01*
X682700Y301620D01*
X676540Y302160D01*
X670360Y301980D01*
X664240Y301080D01*
X658280Y299440D01*
X652560Y297120D01*
X647140Y294140D01*
X642120Y290520D01*
X637560Y286360D01*
X633520Y281680D01*
X630060Y276540D01*
X627240Y271040D01*
X625080Y265240D01*
X623640Y259240D01*
X622900Y253100D01*
X622900Y246900D01*
X623640Y240760D01*
X625080Y234760D01*
X627240Y228960D01*
X630060Y223460D01*
X633520Y218320D01*
X637560Y213640D01*
X642120Y209480D01*
X647140Y205859D01*
X652560Y202880D01*
X658280Y200560D01*
X664240Y198920D01*
X670360Y198020D01*
G37*
G36*
X1023460Y202820D02*
G01*
X1029640Y203020D01*
X1035759Y203920D01*
X1041720Y205560D01*
X1047440Y207880D01*
X1052860Y210859D01*
X1057880Y214480D01*
X1062440Y218640D01*
X1066480Y223320D01*
X1069940Y228460D01*
X1072760Y233960D01*
X1074920Y239760D01*
X1076360Y245760D01*
X1077100Y251900D01*
X1077100Y258100D01*
X1076360Y264240D01*
X1074920Y270240D01*
X1072760Y276040D01*
X1069940Y281540D01*
X1066480Y286680D01*
X1062440Y291360D01*
X1057880Y295520D01*
X1052860Y299140D01*
X1047440Y302120D01*
X1041720Y304440D01*
X1035759Y306080D01*
X1029640Y306980D01*
X1023460Y307160D01*
X1017300Y306620D01*
X1011240Y305340D01*
X1005380Y303360D01*
X999800Y300700D01*
X994580Y297400D01*
X989780Y293500D01*
X985460Y289080D01*
X981720Y284160D01*
X978560Y278840D01*
X976080Y273180D01*
X974260Y267260D01*
X973180Y261180D01*
X972800Y255000D01*
X973180Y248820D01*
X974260Y242740D01*
X976080Y236820D01*
X978560Y231160D01*
X981720Y225840D01*
X985460Y220920D01*
X989780Y216500D01*
X994580Y212600D01*
X999800Y209300D01*
X1005380Y206640D01*
X1011240Y204660D01*
X1017300Y203380D01*
G37*
G36*
X150000Y216300D02*
G01*
X155780Y216680D01*
X161480Y217760D01*
X167000Y219560D01*
X172260Y222020D01*
X177160Y225120D01*
X181620Y228820D01*
X185600Y233060D01*
X189000Y237740D01*
X191800Y242840D01*
X193939Y248220D01*
X195380Y253840D01*
X196100Y259600D01*
X196100Y265400D01*
X195380Y271160D01*
X193939Y276780D01*
X191800Y282160D01*
X189000Y287260D01*
X185600Y291940D01*
X181620Y296180D01*
X177160Y299880D01*
X172260Y302980D01*
X167000Y305440D01*
X161480Y307240D01*
X155780Y308320D01*
X152920Y308500D01*
X151280Y308980D01*
X150000Y310080D01*
X148720Y308980D01*
X147080Y308500D01*
X144220Y308320D01*
X138520Y307240D01*
X133000Y305440D01*
X127739Y302980D01*
X122840Y299880D01*
X118379Y296180D01*
X114400Y291940D01*
X111000Y287260D01*
X108200Y282160D01*
X106060Y276780D01*
X104620Y271160D01*
X103900Y265400D01*
X103900Y259600D01*
X104620Y253840D01*
X106060Y248220D01*
X108200Y242840D01*
X111000Y237740D01*
X114400Y233060D01*
X118379Y228820D01*
X122840Y225120D01*
X127739Y222020D01*
X133000Y219560D01*
X138520Y217760D01*
X144220Y216680D01*
G37*
G36*
X2247160Y254899D02*
G01*
X2252840Y254899D01*
X2258460Y255600D01*
X2263960Y257020D01*
X2269240Y259100D01*
X2274220Y261840D01*
X2278800Y265180D01*
X2282940Y269060D01*
X2286560Y273440D01*
X2289600Y278220D01*
X2292020Y283360D01*
X2293780Y288760D01*
X2294840Y294340D01*
X2295200Y300000D01*
X2294840Y305660D01*
X2293780Y311240D01*
X2292020Y316640D01*
X2289600Y321780D01*
X2286560Y326560D01*
X2282940Y330940D01*
X2278800Y334820D01*
X2274220Y338160D01*
X2269240Y340900D01*
X2263960Y342980D01*
X2258460Y344400D01*
X2252840Y345100D01*
X2247160Y345100D01*
X2241540Y344400D01*
X2236040Y342980D01*
X2230760Y340900D01*
X2225780Y338160D01*
X2221200Y334820D01*
X2217060Y330940D01*
X2213440Y326560D01*
X2210400Y321780D01*
X2207980Y316640D01*
X2206220Y311240D01*
X2205160Y305660D01*
X2204800Y300000D01*
X2205160Y294340D01*
X2206220Y288760D01*
X2207980Y283360D01*
X2210400Y278220D01*
X2213440Y273440D01*
X2217060Y269060D01*
X2221200Y265180D01*
X2225780Y261840D01*
X2230760Y259100D01*
X2236040Y257020D01*
X2241540Y255600D01*
G37*
G36*
X1647160Y254899D02*
G01*
X1652840Y254899D01*
X1658460Y255600D01*
X1663959Y257020D01*
X1669240Y259100D01*
X1674220Y261840D01*
X1678800Y265180D01*
X1682940Y269060D01*
X1686560Y273440D01*
X1689600Y278220D01*
X1692020Y283360D01*
X1693779Y288760D01*
X1694840Y294340D01*
X1695200Y300000D01*
X1694840Y305660D01*
X1693779Y311240D01*
X1692020Y316640D01*
X1689600Y321780D01*
X1686560Y326560D01*
X1682940Y330940D01*
X1678800Y334820D01*
X1674220Y338160D01*
X1669240Y340900D01*
X1663959Y342980D01*
X1658460Y344400D01*
X1652840Y345100D01*
X1647160Y345100D01*
X1641540Y344400D01*
X1636040Y342980D01*
X1630760Y340900D01*
X1625780Y338160D01*
X1621200Y334820D01*
X1617060Y330940D01*
X1613440Y326560D01*
X1610400Y321780D01*
X1607980Y316640D01*
X1606220Y311240D01*
X1605160Y305660D01*
X1604800Y300000D01*
X1605160Y294340D01*
X1606220Y288760D01*
X1607980Y283360D01*
X1610400Y278220D01*
X1613440Y273440D01*
X1617060Y269060D01*
X1621200Y265180D01*
X1625780Y261840D01*
X1630760Y259100D01*
X1636040Y257020D01*
X1641540Y255600D01*
G37*
G36*
X150000Y314920D02*
G01*
X151280Y316020D01*
X152920Y316500D01*
X155780Y316680D01*
X161480Y317760D01*
X167000Y319560D01*
X172260Y322020D01*
X177160Y325120D01*
X181620Y328820D01*
X185600Y333060D01*
X189000Y337740D01*
X191800Y342840D01*
X193939Y348220D01*
X195380Y353840D01*
X196100Y359600D01*
X196100Y365400D01*
X195380Y371160D01*
X193939Y376780D01*
X191800Y382160D01*
X189000Y387260D01*
X185600Y391940D01*
X181620Y396180D01*
X177160Y399880D01*
X172260Y402980D01*
X167000Y405439D01*
X161480Y407239D01*
X155780Y408320D01*
X150000Y408700D01*
X144180Y408320D01*
X138520Y407239D01*
X133000Y405439D01*
X127739Y402980D01*
X122840Y399880D01*
X118379Y396180D01*
X114400Y391940D01*
X111000Y387260D01*
X108200Y382160D01*
X106060Y376780D01*
X104620Y371160D01*
X103900Y365400D01*
X103900Y359600D01*
X104620Y353840D01*
X106060Y348220D01*
X108200Y342840D01*
X111000Y337740D01*
X114400Y333060D01*
X118379Y328820D01*
X122840Y325120D01*
X127739Y322020D01*
X133000Y319560D01*
X138520Y317760D01*
X144220Y316680D01*
X147080Y316500D01*
X148720Y316020D01*
G37*
G36*
X882480Y315800D02*
G01*
X917520Y315800D01*
X920680Y316120D01*
X923520Y316980D01*
X926160Y318380D01*
X928460Y320260D01*
X930340Y322580D01*
X931740Y325200D01*
X932600Y328040D01*
X932920Y331200D01*
X932920Y393800D01*
X932600Y396960D01*
X931740Y399799D01*
X930340Y402420D01*
X928460Y404739D01*
X926160Y406620D01*
X923520Y408020D01*
X920680Y408880D01*
X917520Y409200D01*
X882480Y409200D01*
X879320Y408880D01*
X876480Y408020D01*
X873840Y406620D01*
X871580Y404739D01*
X870180Y404000D01*
X868620Y403860D01*
X867120Y404320D01*
X863660Y406220D01*
X859280Y407860D01*
X854680Y408860D01*
X850000Y409180D01*
X845320Y408860D01*
X840720Y407860D01*
X836340Y406220D01*
X832200Y403960D01*
X828460Y401140D01*
X827820Y400520D01*
X826540Y399660D01*
X825000Y399360D01*
X823460Y399660D01*
X822180Y400520D01*
X821540Y401140D01*
X817800Y403960D01*
X813660Y406220D01*
X809280Y407860D01*
X804680Y408860D01*
X800000Y409180D01*
X795320Y408860D01*
X790720Y407860D01*
X786340Y406220D01*
X782200Y403960D01*
X778460Y401140D01*
X775140Y397819D01*
X772320Y394060D01*
X770060Y389940D01*
X768420Y385560D01*
X767420Y380959D01*
X767080Y376140D01*
X767080Y348860D01*
X767420Y344040D01*
X768420Y339440D01*
X770060Y335060D01*
X772320Y330920D01*
X775140Y327180D01*
X778460Y323860D01*
X782200Y321040D01*
X786340Y318780D01*
X790720Y317140D01*
X795320Y316140D01*
X800000Y315820D01*
X804680Y316140D01*
X809280Y317140D01*
X813660Y318780D01*
X817800Y321040D01*
X821540Y323860D01*
X822180Y324480D01*
X823460Y325340D01*
X825000Y325640D01*
X826540Y325340D01*
X827820Y324480D01*
X828460Y323860D01*
X832200Y321040D01*
X836340Y318780D01*
X840720Y317140D01*
X845320Y316140D01*
X850000Y315820D01*
X854680Y316140D01*
X859280Y317140D01*
X863660Y318780D01*
X867120Y320680D01*
X868620Y321140D01*
X870180Y321000D01*
X871580Y320260D01*
X873840Y318380D01*
X876480Y316980D01*
X879320Y316120D01*
G37*
G36*
X276540Y347819D02*
G01*
X282700Y348380D01*
X288760Y349660D01*
X294620Y351640D01*
X300200Y354300D01*
X305420Y357600D01*
X310220Y361500D01*
X314540Y365920D01*
X318280Y370840D01*
X321440Y376160D01*
X323920Y381820D01*
X325740Y387740D01*
X326820Y393820D01*
X327200Y400000D01*
X326820Y406180D01*
X325740Y412260D01*
X323920Y418180D01*
X321440Y423840D01*
X318280Y429159D01*
X314540Y434080D01*
X310220Y438500D01*
X305420Y442400D01*
X300200Y445700D01*
X294620Y448360D01*
X288760Y450340D01*
X282700Y451620D01*
X276540Y452160D01*
X270360Y451980D01*
X264240Y451079D01*
X258280Y449440D01*
X252560Y447120D01*
X247140Y444140D01*
X242120Y440520D01*
X237560Y436360D01*
X233520Y431680D01*
X230060Y426540D01*
X227240Y421040D01*
X225080Y415240D01*
X223640Y409240D01*
X222900Y403100D01*
X222900Y396900D01*
X223640Y390760D01*
X225080Y384760D01*
X227240Y378960D01*
X230060Y373459D01*
X233520Y368320D01*
X237560Y363640D01*
X242120Y359480D01*
X247140Y355860D01*
X252560Y352879D01*
X258280Y350560D01*
X264240Y348920D01*
X270360Y348020D01*
G37*
G36*
X676540Y347819D02*
G01*
X682700Y348380D01*
X688760Y349660D01*
X694620Y351640D01*
X700200Y354300D01*
X705420Y357600D01*
X710220Y361500D01*
X714539Y365920D01*
X718280Y370840D01*
X721440Y376160D01*
X723920Y381820D01*
X725740Y387740D01*
X726820Y393820D01*
X727200Y400000D01*
X726820Y406180D01*
X725740Y412260D01*
X723920Y418180D01*
X721440Y423840D01*
X718280Y429159D01*
X714539Y434080D01*
X710220Y438500D01*
X705420Y442400D01*
X700200Y445700D01*
X694620Y448360D01*
X688760Y450340D01*
X682700Y451620D01*
X676540Y452160D01*
X670360Y451980D01*
X664240Y451079D01*
X658280Y449440D01*
X652560Y447120D01*
X647140Y444140D01*
X642120Y440520D01*
X637560Y436360D01*
X633520Y431680D01*
X630060Y426540D01*
X627240Y421040D01*
X625080Y415240D01*
X623640Y409240D01*
X622900Y403100D01*
X622900Y396900D01*
X623640Y390760D01*
X625080Y384760D01*
X627240Y378960D01*
X630060Y373459D01*
X633520Y368320D01*
X637560Y363640D01*
X642120Y359480D01*
X647140Y355860D01*
X652560Y352879D01*
X658280Y350560D01*
X664240Y348920D01*
X670360Y348020D01*
G37*
G36*
X1423460Y352819D02*
G01*
X1429640Y353020D01*
X1435760Y353920D01*
X1441720Y355560D01*
X1447440Y357879D01*
X1452860Y360860D01*
X1457880Y364480D01*
X1462440Y368640D01*
X1466480Y373320D01*
X1469940Y378459D01*
X1472760Y383960D01*
X1474920Y389760D01*
X1476360Y395760D01*
X1477100Y401900D01*
X1477100Y408100D01*
X1476360Y414240D01*
X1474920Y420240D01*
X1472760Y426040D01*
X1469940Y431540D01*
X1466480Y436680D01*
X1462440Y441360D01*
X1457880Y445520D01*
X1452860Y449140D01*
X1447440Y452120D01*
X1441720Y454440D01*
X1435760Y456079D01*
X1429640Y456980D01*
X1423460Y457160D01*
X1417300Y456620D01*
X1411240Y455340D01*
X1405380Y453360D01*
X1399800Y450700D01*
X1394580Y447400D01*
X1389780Y443500D01*
X1385460Y439080D01*
X1381720Y434159D01*
X1378560Y428840D01*
X1376080Y423180D01*
X1374259Y417260D01*
X1373180Y411180D01*
X1372800Y405000D01*
X1373180Y398820D01*
X1374259Y392740D01*
X1376080Y386820D01*
X1378560Y381160D01*
X1381720Y375840D01*
X1385460Y370920D01*
X1389780Y366500D01*
X1394580Y362600D01*
X1399800Y359300D01*
X1405380Y356640D01*
X1411240Y354660D01*
X1417300Y353380D01*
G37*
G36*
X1023460Y352819D02*
G01*
X1029640Y353020D01*
X1035759Y353920D01*
X1041720Y355560D01*
X1047440Y357879D01*
X1052860Y360860D01*
X1057880Y364480D01*
X1062440Y368640D01*
X1066480Y373320D01*
X1069940Y378459D01*
X1072760Y383960D01*
X1074920Y389760D01*
X1076360Y395760D01*
X1077100Y401900D01*
X1077100Y408100D01*
X1076360Y414240D01*
X1074920Y420240D01*
X1072760Y426040D01*
X1069940Y431540D01*
X1066480Y436680D01*
X1062440Y441360D01*
X1057880Y445520D01*
X1052860Y449140D01*
X1047440Y452120D01*
X1041720Y454440D01*
X1035759Y456079D01*
X1029640Y456980D01*
X1023460Y457160D01*
X1017300Y456620D01*
X1011240Y455340D01*
X1005380Y453360D01*
X999800Y450700D01*
X994580Y447400D01*
X989780Y443500D01*
X985460Y439080D01*
X981720Y434159D01*
X978560Y428840D01*
X976080Y423180D01*
X974260Y417260D01*
X973180Y411180D01*
X972800Y405000D01*
X973180Y398820D01*
X974260Y392740D01*
X976080Y386820D01*
X978560Y381160D01*
X981720Y375840D01*
X985460Y370920D01*
X989780Y366500D01*
X994580Y362600D01*
X999800Y359300D01*
X1005380Y356640D01*
X1011240Y354660D01*
X1017300Y353380D01*
G37*
G36*
X1647160Y354900D02*
G01*
X1652840Y354900D01*
X1658460Y355600D01*
X1663959Y357020D01*
X1669240Y359099D01*
X1674220Y361840D01*
X1678800Y365180D01*
X1682940Y369060D01*
X1686560Y373440D01*
X1689600Y378220D01*
X1692020Y383360D01*
X1693779Y388760D01*
X1694840Y394340D01*
X1695200Y400000D01*
X1694840Y405660D01*
X1693779Y411240D01*
X1692020Y416640D01*
X1689600Y421780D01*
X1686560Y426560D01*
X1682940Y430940D01*
X1678800Y434820D01*
X1674220Y438160D01*
X1669240Y440900D01*
X1663959Y442980D01*
X1658460Y444400D01*
X1652840Y445100D01*
X1647160Y445100D01*
X1641540Y444400D01*
X1636040Y442980D01*
X1630760Y440900D01*
X1625780Y438160D01*
X1621200Y434820D01*
X1617060Y430940D01*
X1613440Y426560D01*
X1610400Y421780D01*
X1607980Y416640D01*
X1606220Y411240D01*
X1605160Y405660D01*
X1604800Y400000D01*
X1605160Y394340D01*
X1606220Y388760D01*
X1607980Y383360D01*
X1610400Y378220D01*
X1613440Y373440D01*
X1617060Y369060D01*
X1621200Y365180D01*
X1625780Y361840D01*
X1630760Y359099D01*
X1636040Y357020D01*
X1641540Y355600D01*
G37*
G36*
X2247160Y354900D02*
G01*
X2252840Y354900D01*
X2258460Y355600D01*
X2263960Y357020D01*
X2269240Y359099D01*
X2274220Y361840D01*
X2278800Y365180D01*
X2282940Y369060D01*
X2286560Y373440D01*
X2289600Y378220D01*
X2292020Y383360D01*
X2293780Y388760D01*
X2294840Y394340D01*
X2295200Y400000D01*
X2294840Y405660D01*
X2293780Y411240D01*
X2292020Y416640D01*
X2289600Y421780D01*
X2286560Y426560D01*
X2282940Y430940D01*
X2278800Y434820D01*
X2274220Y438160D01*
X2269240Y440900D01*
X2263960Y442980D01*
X2258460Y444400D01*
X2252840Y445100D01*
X2247160Y445100D01*
X2241540Y444400D01*
X2236040Y442980D01*
X2230760Y440900D01*
X2225780Y438160D01*
X2221200Y434820D01*
X2217060Y430940D01*
X2213440Y426560D01*
X2210400Y421780D01*
X2207980Y416640D01*
X2206220Y411240D01*
X2205160Y405660D01*
X2204800Y400000D01*
X2205160Y394340D01*
X2206220Y388760D01*
X2207980Y383360D01*
X2210400Y378220D01*
X2213440Y373440D01*
X2217060Y369060D01*
X2221200Y365180D01*
X2225780Y361840D01*
X2230760Y359099D01*
X2236040Y357020D01*
X2241540Y355600D01*
G37*
G36*
X119200Y416300D02*
G01*
X132000Y416300D01*
X132000Y444500D01*
X103800Y444500D01*
X103800Y431700D01*
X104120Y428540D01*
X104980Y425700D01*
X106380Y423060D01*
X108260Y420760D01*
X110559Y418880D01*
X113200Y417480D01*
X116039Y416620D01*
G37*
G36*
X168000Y416300D02*
G01*
X180799Y416300D01*
X183960Y416620D01*
X186800Y417480D01*
X189440Y418880D01*
X191740Y420760D01*
X193619Y423060D01*
X195020Y425700D01*
X195880Y428540D01*
X196200Y431700D01*
X196200Y444500D01*
X168000Y444500D01*
G37*
G36*
X2247160Y454900D02*
G01*
X2252840Y454900D01*
X2258460Y455600D01*
X2263960Y457020D01*
X2269240Y459099D01*
X2274220Y461840D01*
X2278800Y465180D01*
X2282940Y469060D01*
X2286560Y473440D01*
X2289600Y478220D01*
X2292020Y483360D01*
X2293780Y488760D01*
X2294840Y494340D01*
X2295200Y500000D01*
X2294840Y505660D01*
X2293780Y511240D01*
X2292020Y516640D01*
X2289600Y521780D01*
X2286560Y526560D01*
X2282940Y530940D01*
X2278800Y534820D01*
X2274220Y538160D01*
X2269240Y540900D01*
X2263960Y542980D01*
X2258460Y544400D01*
X2252840Y545100D01*
X2247160Y545100D01*
X2241540Y544400D01*
X2236040Y542980D01*
X2230760Y540900D01*
X2225780Y538160D01*
X2221200Y534820D01*
X2217060Y530940D01*
X2213440Y526560D01*
X2210400Y521780D01*
X2207980Y516640D01*
X2206220Y511240D01*
X2205160Y505660D01*
X2204800Y500000D01*
X2205160Y494340D01*
X2206220Y488760D01*
X2207980Y483360D01*
X2210400Y478220D01*
X2213440Y473440D01*
X2217060Y469060D01*
X2221200Y465180D01*
X2225780Y461840D01*
X2230760Y459099D01*
X2236040Y457020D01*
X2241540Y455600D01*
G37*
G36*
X1647160Y454900D02*
G01*
X1652840Y454900D01*
X1658460Y455600D01*
X1663959Y457020D01*
X1669240Y459099D01*
X1674220Y461840D01*
X1678800Y465180D01*
X1682940Y469060D01*
X1686560Y473440D01*
X1689600Y478220D01*
X1692020Y483360D01*
X1693779Y488760D01*
X1694840Y494340D01*
X1695200Y500000D01*
X1694840Y505660D01*
X1693779Y511240D01*
X1692020Y516640D01*
X1689600Y521780D01*
X1686560Y526560D01*
X1682940Y530940D01*
X1678800Y534820D01*
X1674220Y538160D01*
X1669240Y540900D01*
X1663959Y542980D01*
X1658460Y544400D01*
X1652840Y545100D01*
X1647160Y545100D01*
X1641540Y544400D01*
X1636040Y542980D01*
X1630760Y540900D01*
X1625780Y538160D01*
X1621200Y534820D01*
X1617060Y530940D01*
X1613440Y526560D01*
X1610400Y521780D01*
X1607980Y516640D01*
X1606220Y511240D01*
X1605160Y505660D01*
X1604800Y500000D01*
X1605160Y494340D01*
X1606220Y488760D01*
X1607980Y483360D01*
X1610400Y478220D01*
X1613440Y473440D01*
X1617060Y469060D01*
X1621200Y465180D01*
X1625780Y461840D01*
X1630760Y459099D01*
X1636040Y457020D01*
X1641540Y455600D01*
G37*
G36*
X168000Y480500D02*
G01*
X196200Y480500D01*
X196200Y493300D01*
X195880Y496460D01*
X195020Y499300D01*
X193619Y501940D01*
X191740Y504240D01*
X189440Y506120D01*
X186800Y507520D01*
X183960Y508380D01*
X180799Y508700D01*
X168000Y508700D01*
G37*
G36*
X103800Y480500D02*
G01*
X132000Y480500D01*
X132000Y508700D01*
X119200Y508700D01*
X116039Y508380D01*
X113200Y507520D01*
X110559Y506120D01*
X108260Y504240D01*
X106380Y501940D01*
X104980Y499300D01*
X104120Y496460D01*
X103800Y493300D01*
G37*
G36*
X882480Y490800D02*
G01*
X917520Y490800D01*
X920680Y491120D01*
X923520Y491980D01*
X926160Y493380D01*
X928460Y495260D01*
X930340Y497580D01*
X931740Y500200D01*
X932600Y503040D01*
X932920Y506200D01*
X932920Y568800D01*
X932600Y571960D01*
X931740Y574800D01*
X930340Y577420D01*
X928460Y579740D01*
X926160Y581620D01*
X923520Y583020D01*
X920680Y583880D01*
X917520Y584200D01*
X882480Y584200D01*
X879320Y583880D01*
X876480Y583020D01*
X873840Y581620D01*
X871580Y579740D01*
X870180Y579000D01*
X868620Y578860D01*
X867120Y579320D01*
X863660Y581220D01*
X859280Y582860D01*
X854680Y583860D01*
X850000Y584180D01*
X845320Y583860D01*
X840720Y582860D01*
X836340Y581220D01*
X832200Y578960D01*
X828460Y576140D01*
X827820Y575520D01*
X826540Y574660D01*
X825000Y574360D01*
X823460Y574660D01*
X822180Y575520D01*
X821540Y576140D01*
X817800Y578960D01*
X813660Y581220D01*
X809280Y582860D01*
X804680Y583860D01*
X800000Y584180D01*
X795320Y583860D01*
X790720Y582860D01*
X786340Y581220D01*
X782200Y578960D01*
X778460Y576140D01*
X775140Y572820D01*
X772320Y569060D01*
X770060Y564940D01*
X768420Y560560D01*
X767420Y555960D01*
X767080Y551140D01*
X767080Y523860D01*
X767420Y519040D01*
X768420Y514440D01*
X770060Y510060D01*
X772320Y505920D01*
X775140Y502180D01*
X778460Y498860D01*
X782200Y496040D01*
X786340Y493780D01*
X790720Y492140D01*
X795320Y491140D01*
X800000Y490820D01*
X804680Y491140D01*
X809280Y492140D01*
X813660Y493780D01*
X817800Y496040D01*
X821540Y498860D01*
X822180Y499480D01*
X823460Y500340D01*
X825000Y500640D01*
X826540Y500340D01*
X827820Y499480D01*
X828460Y498860D01*
X832200Y496040D01*
X836340Y493780D01*
X840720Y492140D01*
X845320Y491140D01*
X850000Y490820D01*
X854680Y491140D01*
X859280Y492140D01*
X863660Y493780D01*
X867120Y495680D01*
X868620Y496140D01*
X870180Y496000D01*
X871580Y495260D01*
X873840Y493380D01*
X876480Y491980D01*
X879320Y491120D01*
G37*
G36*
X276540Y497819D02*
G01*
X282700Y498380D01*
X288760Y499660D01*
X294620Y501640D01*
X300200Y504300D01*
X305420Y507600D01*
X310220Y511500D01*
X314540Y515920D01*
X318280Y520840D01*
X321440Y526160D01*
X323920Y531820D01*
X325740Y537740D01*
X326820Y543820D01*
X327200Y550000D01*
X326820Y556180D01*
X325740Y562260D01*
X323920Y568180D01*
X321440Y573840D01*
X318280Y579160D01*
X314540Y584080D01*
X310220Y588500D01*
X305420Y592400D01*
X300200Y595700D01*
X294620Y598360D01*
X288760Y600340D01*
X282700Y601620D01*
X276540Y602160D01*
X270360Y601980D01*
X264240Y601080D01*
X258280Y599440D01*
X252560Y597120D01*
X247140Y594140D01*
X242120Y590520D01*
X237560Y586360D01*
X233520Y581680D01*
X230060Y576540D01*
X227240Y571040D01*
X225080Y565240D01*
X223640Y559240D01*
X222900Y553100D01*
X222900Y546900D01*
X223640Y540760D01*
X225080Y534760D01*
X227240Y528960D01*
X230060Y523459D01*
X233520Y518320D01*
X237560Y513640D01*
X242120Y509480D01*
X247140Y505860D01*
X252560Y502879D01*
X258280Y500560D01*
X264240Y498920D01*
X270360Y498020D01*
G37*
G36*
X676540Y497819D02*
G01*
X682700Y498380D01*
X688760Y499660D01*
X694620Y501640D01*
X700200Y504300D01*
X705420Y507600D01*
X710220Y511500D01*
X714539Y515920D01*
X718280Y520840D01*
X721440Y526160D01*
X723920Y531820D01*
X725740Y537740D01*
X726820Y543820D01*
X727200Y550000D01*
X726820Y556180D01*
X725740Y562260D01*
X723920Y568180D01*
X721440Y573840D01*
X718280Y579160D01*
X714539Y584080D01*
X710220Y588500D01*
X705420Y592400D01*
X700200Y595700D01*
X694620Y598360D01*
X688760Y600340D01*
X682700Y601620D01*
X676540Y602160D01*
X670360Y601980D01*
X664240Y601080D01*
X658280Y599440D01*
X652560Y597120D01*
X647140Y594140D01*
X642120Y590520D01*
X637560Y586360D01*
X633520Y581680D01*
X630060Y576540D01*
X627240Y571040D01*
X625080Y565240D01*
X623640Y559240D01*
X622900Y553100D01*
X622900Y546900D01*
X623640Y540760D01*
X625080Y534760D01*
X627240Y528960D01*
X630060Y523459D01*
X633520Y518320D01*
X637560Y513640D01*
X642120Y509480D01*
X647140Y505860D01*
X652560Y502879D01*
X658280Y500560D01*
X664240Y498920D01*
X670360Y498020D01*
G37*
G36*
X1023460Y502819D02*
G01*
X1029640Y503020D01*
X1035759Y503920D01*
X1041720Y505560D01*
X1047440Y507879D01*
X1052860Y510860D01*
X1057880Y514480D01*
X1062440Y518640D01*
X1066480Y523320D01*
X1069940Y528460D01*
X1072760Y533960D01*
X1074920Y539760D01*
X1076360Y545760D01*
X1077100Y551900D01*
X1077100Y558100D01*
X1076360Y564240D01*
X1074920Y570240D01*
X1072760Y576040D01*
X1069940Y581540D01*
X1066480Y586680D01*
X1062440Y591360D01*
X1057880Y595520D01*
X1052860Y599140D01*
X1047440Y602120D01*
X1041720Y604440D01*
X1035759Y606080D01*
X1029640Y606980D01*
X1023460Y607160D01*
X1017300Y606620D01*
X1011240Y605340D01*
X1005380Y603360D01*
X999800Y600700D01*
X994580Y597400D01*
X989780Y593500D01*
X985460Y589080D01*
X981720Y584160D01*
X978560Y578840D01*
X976080Y573180D01*
X974260Y567260D01*
X973180Y561180D01*
X972800Y555000D01*
X973180Y548820D01*
X974260Y542740D01*
X976080Y536820D01*
X978560Y531160D01*
X981720Y525840D01*
X985460Y520920D01*
X989780Y516500D01*
X994580Y512600D01*
X999800Y509300D01*
X1005380Y506640D01*
X1011240Y504660D01*
X1017300Y503380D01*
G37*
G36*
X1423460Y502819D02*
G01*
X1429640Y503020D01*
X1435760Y503920D01*
X1441720Y505560D01*
X1447440Y507879D01*
X1452860Y510860D01*
X1457880Y514480D01*
X1462440Y518640D01*
X1466480Y523320D01*
X1469940Y528460D01*
X1472760Y533960D01*
X1474920Y539760D01*
X1476360Y545760D01*
X1477100Y551900D01*
X1477100Y558100D01*
X1476360Y564240D01*
X1474920Y570240D01*
X1472760Y576040D01*
X1469940Y581540D01*
X1466480Y586680D01*
X1462440Y591360D01*
X1457880Y595520D01*
X1452860Y599140D01*
X1447440Y602120D01*
X1441720Y604440D01*
X1435760Y606080D01*
X1429640Y606980D01*
X1423460Y607160D01*
X1417300Y606620D01*
X1411240Y605340D01*
X1405380Y603360D01*
X1399800Y600700D01*
X1394580Y597400D01*
X1389780Y593500D01*
X1385460Y589080D01*
X1381720Y584160D01*
X1378560Y578840D01*
X1376080Y573180D01*
X1374259Y567260D01*
X1373180Y561180D01*
X1372800Y555000D01*
X1373180Y548820D01*
X1374259Y542740D01*
X1376080Y536820D01*
X1378560Y531160D01*
X1381720Y525840D01*
X1385460Y520920D01*
X1389780Y516500D01*
X1394580Y512600D01*
X1399800Y509300D01*
X1405380Y506640D01*
X1411240Y504660D01*
X1417300Y503380D01*
G37*
G36*
X150000Y513840D02*
G01*
X155980Y514219D01*
X161860Y515319D01*
X162780Y515600D01*
X164320Y515780D01*
X165640Y516520D01*
X167580Y517120D01*
X173020Y519640D01*
X178120Y522780D01*
X182780Y526540D01*
X186960Y530840D01*
X190560Y535620D01*
X193560Y540820D01*
X195900Y546320D01*
X197540Y552100D01*
X198440Y558020D01*
X198640Y564000D01*
X198080Y569960D01*
X196800Y575820D01*
X194800Y581460D01*
X192140Y586820D01*
X188820Y591820D01*
X184940Y596380D01*
X180500Y600400D01*
X175620Y603860D01*
X171060Y606320D01*
X169740Y607460D01*
X169040Y609060D01*
X169080Y610820D01*
X169860Y612380D01*
X171240Y613460D01*
X172960Y613840D01*
X180799Y613840D01*
X183960Y614140D01*
X186800Y615020D01*
X189440Y616420D01*
X191740Y618300D01*
X193619Y620600D01*
X195020Y623220D01*
X195880Y626080D01*
X196200Y629240D01*
X196200Y643259D01*
X168000Y643259D01*
X168000Y613180D01*
X167740Y611760D01*
X166980Y610520D01*
X165840Y609640D01*
X164460Y609200D01*
X163020Y609300D01*
X158940Y610320D01*
X153000Y611060D01*
X147000Y611060D01*
X141060Y610320D01*
X136980Y609300D01*
X135540Y609200D01*
X134160Y609640D01*
X133020Y610520D01*
X132260Y611760D01*
X132000Y613180D01*
X132000Y643259D01*
X103800Y643259D01*
X103800Y629240D01*
X104120Y626080D01*
X104980Y623220D01*
X106380Y620600D01*
X108260Y618300D01*
X110559Y616420D01*
X113200Y615020D01*
X116039Y614140D01*
X119200Y613840D01*
X127040Y613840D01*
X128760Y613460D01*
X130140Y612380D01*
X130920Y610820D01*
X130960Y609060D01*
X130260Y607460D01*
X128940Y606320D01*
X124380Y603860D01*
X119500Y600400D01*
X115060Y596380D01*
X111180Y591820D01*
X107860Y586820D01*
X105200Y581460D01*
X103200Y575820D01*
X101920Y569960D01*
X101359Y564000D01*
X101560Y558020D01*
X102460Y552100D01*
X104100Y546320D01*
X106440Y540820D01*
X109440Y535620D01*
X113040Y530840D01*
X117220Y526540D01*
X121880Y522780D01*
X126980Y519640D01*
X132420Y517120D01*
X134360Y516520D01*
X135720Y515780D01*
X137220Y515600D01*
X138140Y515319D01*
X144020Y514219D01*
G37*
G36*
X1647160Y554900D02*
G01*
X1652840Y554900D01*
X1658460Y555600D01*
X1663959Y557020D01*
X1669240Y559100D01*
X1674220Y561840D01*
X1678800Y565180D01*
X1682940Y569060D01*
X1686560Y573440D01*
X1689600Y578220D01*
X1692020Y583360D01*
X1693779Y588760D01*
X1694840Y594340D01*
X1695200Y600000D01*
X1694840Y605660D01*
X1693779Y611240D01*
X1692020Y616640D01*
X1689600Y621780D01*
X1686560Y626560D01*
X1682940Y630940D01*
X1678800Y634820D01*
X1674220Y638160D01*
X1669240Y640900D01*
X1663959Y642980D01*
X1658460Y644400D01*
X1652840Y645100D01*
X1647160Y645100D01*
X1641540Y644400D01*
X1636040Y642980D01*
X1630760Y640900D01*
X1625780Y638160D01*
X1621200Y634820D01*
X1617060Y630940D01*
X1613440Y626560D01*
X1610400Y621780D01*
X1607980Y616640D01*
X1606220Y611240D01*
X1605160Y605660D01*
X1604800Y600000D01*
X1605160Y594340D01*
X1606220Y588760D01*
X1607980Y583360D01*
X1610400Y578220D01*
X1613440Y573440D01*
X1617060Y569060D01*
X1621200Y565180D01*
X1625780Y561840D01*
X1630760Y559100D01*
X1636040Y557020D01*
X1641540Y555600D01*
G37*
G36*
X2247160Y554900D02*
G01*
X2252840Y554900D01*
X2258460Y555600D01*
X2263960Y557020D01*
X2269240Y559100D01*
X2274220Y561840D01*
X2278800Y565180D01*
X2282940Y569060D01*
X2286560Y573440D01*
X2289600Y578220D01*
X2292020Y583360D01*
X2293780Y588760D01*
X2294840Y594340D01*
X2295200Y600000D01*
X2294840Y605660D01*
X2293780Y611240D01*
X2292020Y616640D01*
X2289600Y621780D01*
X2286560Y626560D01*
X2282940Y630940D01*
X2278800Y634820D01*
X2274220Y638160D01*
X2269240Y640900D01*
X2263960Y642980D01*
X2258460Y644400D01*
X2252840Y645100D01*
X2247160Y645100D01*
X2241540Y644400D01*
X2236040Y642980D01*
X2230760Y640900D01*
X2225780Y638160D01*
X2221200Y634820D01*
X2217060Y630940D01*
X2213440Y626560D01*
X2210400Y621780D01*
X2207980Y616640D01*
X2206220Y611240D01*
X2205160Y605660D01*
X2204800Y600000D01*
X2205160Y594340D01*
X2206220Y588760D01*
X2207980Y583360D01*
X2210400Y578220D01*
X2213440Y573440D01*
X2217060Y569060D01*
X2221200Y565180D01*
X2225780Y561840D01*
X2230760Y559100D01*
X2236040Y557020D01*
X2241540Y555600D01*
G37*
G36*
X676540Y647820D02*
G01*
X682700Y648379D01*
X688760Y649659D01*
X694620Y651640D01*
X700200Y654300D01*
X705420Y657600D01*
X710220Y661500D01*
X714539Y665920D01*
X718280Y670840D01*
X721440Y676160D01*
X723920Y681820D01*
X725740Y687740D01*
X726820Y693820D01*
X727200Y700000D01*
X726820Y706180D01*
X725740Y712260D01*
X723920Y718180D01*
X721440Y723840D01*
X718280Y729160D01*
X714539Y734080D01*
X710220Y738500D01*
X705420Y742400D01*
X700200Y745699D01*
X694620Y748360D01*
X688760Y750340D01*
X682700Y751620D01*
X676540Y752159D01*
X670360Y751979D01*
X664240Y751080D01*
X658280Y749440D01*
X652560Y747120D01*
X647140Y744140D01*
X642120Y740520D01*
X637560Y736360D01*
X633520Y731680D01*
X630060Y726540D01*
X627240Y721040D01*
X625080Y715240D01*
X623640Y709240D01*
X622900Y703100D01*
X622900Y696900D01*
X623640Y690759D01*
X625080Y684760D01*
X627240Y678960D01*
X630060Y673460D01*
X633520Y668319D01*
X637560Y663640D01*
X642120Y659479D01*
X647140Y655860D01*
X652560Y652880D01*
X658280Y650560D01*
X664240Y648920D01*
X670360Y648020D01*
G37*
G36*
X276540Y647820D02*
G01*
X282700Y648379D01*
X288760Y649659D01*
X294620Y651640D01*
X300200Y654300D01*
X305420Y657600D01*
X310220Y661500D01*
X314540Y665920D01*
X318280Y670840D01*
X321440Y676160D01*
X323920Y681820D01*
X325740Y687740D01*
X326820Y693820D01*
X327200Y700000D01*
X326820Y706180D01*
X325740Y712260D01*
X323920Y718180D01*
X321440Y723840D01*
X318280Y729160D01*
X314540Y734080D01*
X310220Y738500D01*
X305420Y742400D01*
X300200Y745699D01*
X294620Y748360D01*
X288760Y750340D01*
X282700Y751620D01*
X276540Y752159D01*
X270360Y751979D01*
X264240Y751080D01*
X258280Y749440D01*
X252560Y747120D01*
X247140Y744140D01*
X242120Y740520D01*
X237560Y736360D01*
X233520Y731680D01*
X230060Y726540D01*
X227240Y721040D01*
X225080Y715240D01*
X223640Y709240D01*
X222900Y703100D01*
X222900Y696900D01*
X223640Y690759D01*
X225080Y684760D01*
X227240Y678960D01*
X230060Y673460D01*
X233520Y668319D01*
X237560Y663640D01*
X242120Y659479D01*
X247140Y655860D01*
X252560Y652880D01*
X258280Y650560D01*
X264240Y648920D01*
X270360Y648020D01*
G37*
G36*
X1423460Y652820D02*
G01*
X1429640Y653020D01*
X1435760Y653920D01*
X1441720Y655560D01*
X1447440Y657880D01*
X1452860Y660860D01*
X1457880Y664479D01*
X1462440Y668640D01*
X1466480Y673319D01*
X1469940Y678460D01*
X1472760Y683960D01*
X1474920Y689760D01*
X1476360Y695759D01*
X1477100Y701900D01*
X1477100Y708100D01*
X1476360Y714240D01*
X1474920Y720240D01*
X1472760Y726040D01*
X1469940Y731540D01*
X1466480Y736680D01*
X1462440Y741360D01*
X1457880Y745520D01*
X1452860Y749140D01*
X1447440Y752120D01*
X1441720Y754440D01*
X1435760Y756080D01*
X1429640Y756979D01*
X1423460Y757159D01*
X1417300Y756620D01*
X1411240Y755340D01*
X1405380Y753360D01*
X1399800Y750699D01*
X1394580Y747400D01*
X1389780Y743500D01*
X1385460Y739080D01*
X1381720Y734160D01*
X1378560Y728840D01*
X1376080Y723180D01*
X1374259Y717260D01*
X1373180Y711180D01*
X1372800Y705000D01*
X1373180Y698820D01*
X1374259Y692740D01*
X1376080Y686820D01*
X1378560Y681160D01*
X1381720Y675840D01*
X1385460Y670920D01*
X1389780Y666500D01*
X1394580Y662600D01*
X1399800Y659300D01*
X1405380Y656640D01*
X1411240Y654659D01*
X1417300Y653379D01*
G37*
G36*
X1023460Y652820D02*
G01*
X1029640Y653020D01*
X1035759Y653920D01*
X1041720Y655560D01*
X1047440Y657880D01*
X1052860Y660860D01*
X1057880Y664479D01*
X1062440Y668640D01*
X1066480Y673319D01*
X1069940Y678460D01*
X1072760Y683960D01*
X1074920Y689760D01*
X1076360Y695759D01*
X1077100Y701900D01*
X1077100Y708100D01*
X1076360Y714240D01*
X1074920Y720240D01*
X1072760Y726040D01*
X1069940Y731540D01*
X1066480Y736680D01*
X1062440Y741360D01*
X1057880Y745520D01*
X1052860Y749140D01*
X1047440Y752120D01*
X1041720Y754440D01*
X1035759Y756080D01*
X1029640Y756979D01*
X1023460Y757159D01*
X1017300Y756620D01*
X1011240Y755340D01*
X1005380Y753360D01*
X999800Y750699D01*
X994580Y747400D01*
X989780Y743500D01*
X985460Y739080D01*
X981720Y734160D01*
X978560Y728840D01*
X976080Y723180D01*
X974260Y717260D01*
X973180Y711180D01*
X972800Y705000D01*
X973180Y698820D01*
X974260Y692740D01*
X976080Y686820D01*
X978560Y681160D01*
X981720Y675840D01*
X985460Y670920D01*
X989780Y666500D01*
X994580Y662600D01*
X999800Y659300D01*
X1005380Y656640D01*
X1011240Y654659D01*
X1017300Y653379D01*
G37*
G36*
X2247160Y654900D02*
G01*
X2252840Y654900D01*
X2258460Y655600D01*
X2263960Y657020D01*
X2269240Y659100D01*
X2274220Y661840D01*
X2278800Y665180D01*
X2282940Y669060D01*
X2286560Y673439D01*
X2289600Y678220D01*
X2292020Y683360D01*
X2293780Y688760D01*
X2294840Y694340D01*
X2295200Y700000D01*
X2294840Y705660D01*
X2293780Y711240D01*
X2292020Y716640D01*
X2289600Y721780D01*
X2286560Y726560D01*
X2282940Y730939D01*
X2278800Y734820D01*
X2274220Y738160D01*
X2269240Y740900D01*
X2263960Y742980D01*
X2258460Y744400D01*
X2252840Y745100D01*
X2247160Y745100D01*
X2241540Y744400D01*
X2236040Y742980D01*
X2230760Y740900D01*
X2225780Y738160D01*
X2221200Y734820D01*
X2217060Y730939D01*
X2213440Y726560D01*
X2210400Y721780D01*
X2207980Y716640D01*
X2206220Y711240D01*
X2205160Y705660D01*
X2204800Y700000D01*
X2205160Y694340D01*
X2206220Y688760D01*
X2207980Y683360D01*
X2210400Y678220D01*
X2213440Y673439D01*
X2217060Y669060D01*
X2221200Y665180D01*
X2225780Y661840D01*
X2230760Y659100D01*
X2236040Y657020D01*
X2241540Y655600D01*
G37*
G36*
X1647160Y654900D02*
G01*
X1652840Y654900D01*
X1658460Y655600D01*
X1663959Y657020D01*
X1669240Y659100D01*
X1674220Y661840D01*
X1678800Y665180D01*
X1682940Y669060D01*
X1686560Y673439D01*
X1689600Y678220D01*
X1692020Y683360D01*
X1693779Y688760D01*
X1694840Y694340D01*
X1695200Y700000D01*
X1694840Y705660D01*
X1693779Y711240D01*
X1692020Y716640D01*
X1689600Y721780D01*
X1686560Y726560D01*
X1682940Y730939D01*
X1678800Y734820D01*
X1674220Y738160D01*
X1669240Y740900D01*
X1663959Y742980D01*
X1658460Y744400D01*
X1652840Y745100D01*
X1647160Y745100D01*
X1641540Y744400D01*
X1636040Y742980D01*
X1630760Y740900D01*
X1625780Y738160D01*
X1621200Y734820D01*
X1617060Y730939D01*
X1613440Y726560D01*
X1610400Y721780D01*
X1607980Y716640D01*
X1606220Y711240D01*
X1605160Y705660D01*
X1604800Y700000D01*
X1605160Y694340D01*
X1606220Y688760D01*
X1607980Y683360D01*
X1610400Y678220D01*
X1613440Y673439D01*
X1617060Y669060D01*
X1621200Y665180D01*
X1625780Y661840D01*
X1630760Y659100D01*
X1636040Y657020D01*
X1641540Y655600D01*
G37*
G36*
X882480Y665800D02*
G01*
X917520Y665800D01*
X920680Y666120D01*
X923520Y666979D01*
X926160Y668379D01*
X928460Y670260D01*
X930340Y672580D01*
X931740Y675200D01*
X932600Y678040D01*
X932920Y681200D01*
X932920Y743800D01*
X932600Y746960D01*
X931740Y749800D01*
X930340Y752420D01*
X928460Y754740D01*
X926160Y756620D01*
X923520Y758020D01*
X920680Y758880D01*
X917520Y759200D01*
X882480Y759200D01*
X879320Y758880D01*
X876480Y758020D01*
X873840Y756620D01*
X871580Y754740D01*
X870180Y754000D01*
X868620Y753860D01*
X867120Y754320D01*
X863660Y756220D01*
X859280Y757860D01*
X854680Y758860D01*
X850000Y759180D01*
X845320Y758860D01*
X840720Y757860D01*
X836340Y756220D01*
X832200Y753960D01*
X828460Y751140D01*
X827820Y750520D01*
X826540Y749659D01*
X825000Y749360D01*
X823460Y749659D01*
X822180Y750520D01*
X821540Y751140D01*
X817800Y753960D01*
X813660Y756220D01*
X809280Y757860D01*
X804680Y758860D01*
X800000Y759180D01*
X795320Y758860D01*
X790720Y757860D01*
X786340Y756220D01*
X782200Y753960D01*
X778460Y751140D01*
X775140Y747820D01*
X772320Y744060D01*
X770060Y739940D01*
X768420Y735560D01*
X767420Y730960D01*
X767080Y726140D01*
X767080Y698860D01*
X767420Y694040D01*
X768420Y689440D01*
X770060Y685060D01*
X772320Y680920D01*
X775140Y677180D01*
X778460Y673860D01*
X782200Y671040D01*
X786340Y668780D01*
X790720Y667140D01*
X795320Y666140D01*
X800000Y665819D01*
X804680Y666140D01*
X809280Y667140D01*
X813660Y668780D01*
X817800Y671040D01*
X821540Y673860D01*
X822180Y674479D01*
X823460Y675340D01*
X825000Y675639D01*
X826540Y675340D01*
X827820Y674479D01*
X828460Y673860D01*
X832200Y671040D01*
X836340Y668780D01*
X840720Y667140D01*
X845320Y666140D01*
X850000Y665819D01*
X854680Y666140D01*
X859280Y667140D01*
X863660Y668780D01*
X867120Y670680D01*
X868620Y671140D01*
X870180Y671000D01*
X871580Y670260D01*
X873840Y668379D01*
X876480Y666979D01*
X879320Y666120D01*
G37*
G36*
X103800Y681740D02*
G01*
X132000Y681740D01*
X132000Y711800D01*
X132280Y713259D01*
X133080Y714520D01*
X134280Y715400D01*
X135720Y715780D01*
X137220Y715600D01*
X138140Y715320D01*
X144020Y714220D01*
X150000Y713840D01*
X155980Y714220D01*
X161860Y715320D01*
X162780Y715600D01*
X164280Y715780D01*
X165720Y715400D01*
X166920Y714520D01*
X167719Y713259D01*
X168000Y711800D01*
X168000Y681740D01*
X196200Y681740D01*
X196200Y695759D01*
X195880Y698920D01*
X195020Y701780D01*
X193619Y704400D01*
X191740Y706700D01*
X189440Y708580D01*
X186800Y709980D01*
X183960Y710860D01*
X180799Y711160D01*
X172880Y711160D01*
X171360Y711460D01*
X170080Y712300D01*
X169200Y713580D01*
X168880Y715080D01*
X169140Y716600D01*
X169960Y717900D01*
X171200Y718800D01*
X173020Y719640D01*
X178120Y722780D01*
X182780Y726540D01*
X186960Y730840D01*
X190560Y735620D01*
X193560Y740819D01*
X195900Y746320D01*
X197540Y752099D01*
X198440Y758020D01*
X198640Y764000D01*
X198080Y769960D01*
X196800Y775819D01*
X194800Y781460D01*
X192140Y786820D01*
X188820Y791820D01*
X184940Y796380D01*
X180500Y800400D01*
X175620Y803860D01*
X171060Y806320D01*
X169740Y807460D01*
X169040Y809060D01*
X169080Y810819D01*
X169860Y812380D01*
X171240Y813460D01*
X172960Y813840D01*
X180799Y813840D01*
X183960Y814140D01*
X186800Y815020D01*
X189440Y816420D01*
X191740Y818300D01*
X193619Y820600D01*
X195020Y823220D01*
X195880Y826080D01*
X196200Y829240D01*
X196200Y843259D01*
X168000Y843259D01*
X168000Y813180D01*
X167740Y811760D01*
X166980Y810520D01*
X165840Y809640D01*
X164460Y809200D01*
X163020Y809300D01*
X158940Y810320D01*
X153000Y811060D01*
X147000Y811060D01*
X141060Y810320D01*
X136980Y809300D01*
X135540Y809200D01*
X134160Y809640D01*
X133020Y810520D01*
X132260Y811760D01*
X132000Y813180D01*
X132000Y843259D01*
X103800Y843259D01*
X103800Y829240D01*
X104120Y826080D01*
X104980Y823220D01*
X106380Y820600D01*
X108260Y818300D01*
X110559Y816420D01*
X113200Y815020D01*
X116039Y814140D01*
X119200Y813840D01*
X127040Y813840D01*
X128760Y813460D01*
X130140Y812380D01*
X130920Y810819D01*
X130960Y809060D01*
X130260Y807460D01*
X128940Y806320D01*
X124380Y803860D01*
X119500Y800400D01*
X115060Y796380D01*
X111180Y791820D01*
X107860Y786820D01*
X105200Y781460D01*
X103200Y775819D01*
X101920Y769960D01*
X101359Y764000D01*
X101560Y758020D01*
X102460Y752099D01*
X104100Y746320D01*
X106440Y740819D01*
X109440Y735620D01*
X113040Y730840D01*
X117220Y726540D01*
X121880Y722780D01*
X126980Y719640D01*
X128800Y718800D01*
X130040Y717900D01*
X130860Y716600D01*
X131120Y715080D01*
X130800Y713580D01*
X129920Y712300D01*
X128640Y711460D01*
X127120Y711160D01*
X119200Y711160D01*
X116039Y710860D01*
X113200Y709980D01*
X110559Y708580D01*
X108260Y706700D01*
X106380Y704400D01*
X104980Y701780D01*
X104120Y698920D01*
X103800Y695759D01*
G37*
G36*
X1647160Y754900D02*
G01*
X1652840Y754900D01*
X1658460Y755600D01*
X1663959Y757020D01*
X1669240Y759100D01*
X1674220Y761840D01*
X1678800Y765180D01*
X1682940Y769060D01*
X1686560Y773439D01*
X1689600Y778220D01*
X1692020Y783360D01*
X1693779Y788760D01*
X1694840Y794340D01*
X1695200Y800000D01*
X1694840Y805660D01*
X1693779Y811240D01*
X1692020Y816640D01*
X1689600Y821780D01*
X1686560Y826560D01*
X1682940Y830939D01*
X1678800Y834820D01*
X1674220Y838160D01*
X1669240Y840900D01*
X1663959Y842980D01*
X1658460Y844400D01*
X1652840Y845100D01*
X1647160Y845100D01*
X1641540Y844400D01*
X1636040Y842980D01*
X1630760Y840900D01*
X1625780Y838160D01*
X1621200Y834820D01*
X1617060Y830939D01*
X1613440Y826560D01*
X1610400Y821780D01*
X1607980Y816640D01*
X1606220Y811240D01*
X1605160Y805660D01*
X1604800Y800000D01*
X1605160Y794340D01*
X1606220Y788760D01*
X1607980Y783360D01*
X1610400Y778220D01*
X1613440Y773439D01*
X1617060Y769060D01*
X1621200Y765180D01*
X1625780Y761840D01*
X1630760Y759100D01*
X1636040Y757020D01*
X1641540Y755600D01*
G37*
G36*
X2247160Y754900D02*
G01*
X2252840Y754900D01*
X2258460Y755600D01*
X2263960Y757020D01*
X2269240Y759100D01*
X2274220Y761840D01*
X2278800Y765180D01*
X2282940Y769060D01*
X2286560Y773439D01*
X2289600Y778220D01*
X2292020Y783360D01*
X2293780Y788760D01*
X2294840Y794340D01*
X2295200Y800000D01*
X2294840Y805660D01*
X2293780Y811240D01*
X2292020Y816640D01*
X2289600Y821780D01*
X2286560Y826560D01*
X2282940Y830939D01*
X2278800Y834820D01*
X2274220Y838160D01*
X2269240Y840900D01*
X2263960Y842980D01*
X2258460Y844400D01*
X2252840Y845100D01*
X2247160Y845100D01*
X2241540Y844400D01*
X2236040Y842980D01*
X2230760Y840900D01*
X2225780Y838160D01*
X2221200Y834820D01*
X2217060Y830939D01*
X2213440Y826560D01*
X2210400Y821780D01*
X2207980Y816640D01*
X2206220Y811240D01*
X2205160Y805660D01*
X2204800Y800000D01*
X2205160Y794340D01*
X2206220Y788760D01*
X2207980Y783360D01*
X2210400Y778220D01*
X2213440Y773439D01*
X2217060Y769060D01*
X2221200Y765180D01*
X2225780Y761840D01*
X2230760Y759100D01*
X2236040Y757020D01*
X2241540Y755600D01*
G37*
G36*
X676540Y797820D02*
G01*
X682700Y798379D01*
X688760Y799659D01*
X694620Y801640D01*
X700200Y804300D01*
X705420Y807600D01*
X710220Y811500D01*
X714539Y815920D01*
X718280Y820840D01*
X721440Y826160D01*
X723920Y831820D01*
X725740Y837740D01*
X726820Y843820D01*
X727200Y850000D01*
X726820Y856180D01*
X725740Y862260D01*
X723920Y868180D01*
X721440Y873840D01*
X718280Y879160D01*
X714539Y884080D01*
X710220Y888500D01*
X705420Y892400D01*
X700200Y895699D01*
X694620Y898360D01*
X688760Y900340D01*
X682700Y901620D01*
X676540Y902159D01*
X670360Y901979D01*
X664240Y901080D01*
X658280Y899440D01*
X652560Y897120D01*
X647140Y894140D01*
X642120Y890520D01*
X637560Y886360D01*
X633520Y881680D01*
X630060Y876540D01*
X627240Y871040D01*
X625080Y865240D01*
X623640Y859240D01*
X622900Y853100D01*
X622900Y846900D01*
X623640Y840759D01*
X625080Y834760D01*
X627240Y828960D01*
X630060Y823460D01*
X633520Y818319D01*
X637560Y813640D01*
X642120Y809479D01*
X647140Y805860D01*
X652560Y802880D01*
X658280Y800560D01*
X664240Y798920D01*
X670360Y798020D01*
G37*
G36*
X276540Y797820D02*
G01*
X282700Y798379D01*
X288760Y799659D01*
X294620Y801640D01*
X300200Y804300D01*
X305420Y807600D01*
X310220Y811500D01*
X314540Y815920D01*
X318280Y820840D01*
X321440Y826160D01*
X323920Y831820D01*
X325740Y837740D01*
X326820Y843820D01*
X327200Y850000D01*
X326820Y856180D01*
X325740Y862260D01*
X323920Y868180D01*
X321440Y873840D01*
X318280Y879160D01*
X314540Y884080D01*
X310220Y888500D01*
X305420Y892400D01*
X300200Y895699D01*
X294620Y898360D01*
X288760Y900340D01*
X282700Y901620D01*
X276540Y902159D01*
X270360Y901979D01*
X264240Y901080D01*
X258280Y899440D01*
X252560Y897120D01*
X247140Y894140D01*
X242120Y890520D01*
X237560Y886360D01*
X233520Y881680D01*
X230060Y876540D01*
X227240Y871040D01*
X225080Y865240D01*
X223640Y859240D01*
X222900Y853100D01*
X222900Y846900D01*
X223640Y840759D01*
X225080Y834760D01*
X227240Y828960D01*
X230060Y823460D01*
X233520Y818319D01*
X237560Y813640D01*
X242120Y809479D01*
X247140Y805860D01*
X252560Y802880D01*
X258280Y800560D01*
X264240Y798920D01*
X270360Y798020D01*
G37*
G36*
X1423460Y802820D02*
G01*
X1429640Y803020D01*
X1435760Y803920D01*
X1441720Y805560D01*
X1447440Y807880D01*
X1452860Y810860D01*
X1457880Y814479D01*
X1462440Y818640D01*
X1466480Y823319D01*
X1469940Y828460D01*
X1472760Y833960D01*
X1474920Y839760D01*
X1476360Y845759D01*
X1477100Y851900D01*
X1477100Y858100D01*
X1476360Y864240D01*
X1474920Y870240D01*
X1472760Y876040D01*
X1469940Y881540D01*
X1466480Y886680D01*
X1462440Y891360D01*
X1457880Y895520D01*
X1452860Y899140D01*
X1447440Y902120D01*
X1441720Y904440D01*
X1435760Y906080D01*
X1429640Y906979D01*
X1423460Y907159D01*
X1417300Y906620D01*
X1411240Y905340D01*
X1405380Y903360D01*
X1399800Y900699D01*
X1394580Y897400D01*
X1389780Y893500D01*
X1385460Y889080D01*
X1381720Y884160D01*
X1378560Y878840D01*
X1376080Y873180D01*
X1374259Y867260D01*
X1373180Y861180D01*
X1372800Y855000D01*
X1373180Y848820D01*
X1374259Y842740D01*
X1376080Y836820D01*
X1378560Y831160D01*
X1381720Y825840D01*
X1385460Y820920D01*
X1389780Y816500D01*
X1394580Y812600D01*
X1399800Y809300D01*
X1405380Y806640D01*
X1411240Y804659D01*
X1417300Y803379D01*
G37*
G36*
X1023460Y802820D02*
G01*
X1029640Y803020D01*
X1035759Y803920D01*
X1041720Y805560D01*
X1047440Y807880D01*
X1052860Y810860D01*
X1057880Y814479D01*
X1062440Y818640D01*
X1066480Y823319D01*
X1069940Y828460D01*
X1072760Y833960D01*
X1074920Y839760D01*
X1076360Y845759D01*
X1077100Y851900D01*
X1077100Y858100D01*
X1076360Y864240D01*
X1074920Y870240D01*
X1072760Y876040D01*
X1069940Y881540D01*
X1066480Y886680D01*
X1062440Y891360D01*
X1057880Y895520D01*
X1052860Y899140D01*
X1047440Y902120D01*
X1041720Y904440D01*
X1035759Y906080D01*
X1029640Y906979D01*
X1023460Y907159D01*
X1017300Y906620D01*
X1011240Y905340D01*
X1005380Y903360D01*
X999800Y900699D01*
X994580Y897400D01*
X989780Y893500D01*
X985460Y889080D01*
X981720Y884160D01*
X978560Y878840D01*
X976080Y873180D01*
X974260Y867260D01*
X973180Y861180D01*
X972800Y855000D01*
X973180Y848820D01*
X974260Y842740D01*
X976080Y836820D01*
X978560Y831160D01*
X981720Y825840D01*
X985460Y820920D01*
X989780Y816500D01*
X994580Y812600D01*
X999800Y809300D01*
X1005380Y806640D01*
X1011240Y804659D01*
X1017300Y803379D01*
G37*
G36*
X882480Y840800D02*
G01*
X917520Y840800D01*
X920680Y841120D01*
X923520Y841979D01*
X926160Y843379D01*
X928460Y845260D01*
X930340Y847580D01*
X931740Y850200D01*
X932600Y853040D01*
X932920Y856200D01*
X932920Y918800D01*
X932600Y921960D01*
X931740Y924800D01*
X930340Y927420D01*
X928460Y929740D01*
X926160Y931620D01*
X923520Y933020D01*
X920680Y933880D01*
X917520Y934200D01*
X882480Y934200D01*
X879320Y933880D01*
X876480Y933020D01*
X873840Y931620D01*
X871580Y929740D01*
X870180Y929000D01*
X868620Y928860D01*
X867120Y929320D01*
X863660Y931220D01*
X859280Y932860D01*
X854680Y933860D01*
X850000Y934180D01*
X845320Y933860D01*
X840720Y932860D01*
X836340Y931220D01*
X832200Y928960D01*
X828460Y926140D01*
X827820Y925520D01*
X826540Y924659D01*
X825000Y924360D01*
X823460Y924659D01*
X822180Y925520D01*
X821540Y926140D01*
X817800Y928960D01*
X813660Y931220D01*
X809280Y932860D01*
X804680Y933860D01*
X800000Y934180D01*
X795320Y933860D01*
X790720Y932860D01*
X786340Y931220D01*
X782200Y928960D01*
X778460Y926140D01*
X775140Y922820D01*
X772320Y919060D01*
X770060Y914940D01*
X768420Y910560D01*
X767420Y905960D01*
X767080Y901140D01*
X767080Y873860D01*
X767420Y869040D01*
X768420Y864440D01*
X770060Y860060D01*
X772320Y855920D01*
X775140Y852180D01*
X778460Y848860D01*
X782200Y846040D01*
X786340Y843780D01*
X790720Y842140D01*
X795320Y841140D01*
X800000Y840819D01*
X804680Y841140D01*
X809280Y842140D01*
X813660Y843780D01*
X817800Y846040D01*
X821540Y848860D01*
X822180Y849479D01*
X823460Y850340D01*
X825000Y850639D01*
X826540Y850340D01*
X827820Y849479D01*
X828460Y848860D01*
X832200Y846040D01*
X836340Y843780D01*
X840720Y842140D01*
X845320Y841140D01*
X850000Y840819D01*
X854680Y841140D01*
X859280Y842140D01*
X863660Y843780D01*
X867120Y845680D01*
X868620Y846140D01*
X870180Y846000D01*
X871580Y845260D01*
X873840Y843379D01*
X876480Y841979D01*
X879320Y841120D01*
G37*
G36*
X1647160Y854900D02*
G01*
X1652840Y854900D01*
X1658460Y855600D01*
X1663959Y857020D01*
X1669240Y859100D01*
X1674220Y861840D01*
X1678800Y865180D01*
X1682940Y869060D01*
X1686560Y873439D01*
X1689600Y878220D01*
X1692020Y883360D01*
X1693779Y888760D01*
X1694840Y894340D01*
X1695200Y900000D01*
X1694840Y905660D01*
X1693779Y911240D01*
X1692020Y916640D01*
X1689600Y921780D01*
X1686560Y926560D01*
X1682940Y930939D01*
X1678800Y934820D01*
X1674220Y938160D01*
X1669240Y940900D01*
X1663959Y942980D01*
X1658460Y944400D01*
X1652840Y945100D01*
X1647160Y945100D01*
X1641540Y944400D01*
X1636040Y942980D01*
X1630760Y940900D01*
X1625780Y938160D01*
X1621200Y934820D01*
X1617060Y930939D01*
X1613440Y926560D01*
X1610400Y921780D01*
X1607980Y916640D01*
X1606220Y911240D01*
X1605160Y905660D01*
X1604800Y900000D01*
X1605160Y894340D01*
X1606220Y888760D01*
X1607980Y883360D01*
X1610400Y878220D01*
X1613440Y873439D01*
X1617060Y869060D01*
X1621200Y865180D01*
X1625780Y861840D01*
X1630760Y859100D01*
X1636040Y857020D01*
X1641540Y855600D01*
G37*
G36*
X2247160Y854900D02*
G01*
X2252840Y854900D01*
X2258460Y855600D01*
X2263960Y857020D01*
X2269240Y859100D01*
X2274220Y861840D01*
X2278800Y865180D01*
X2282940Y869060D01*
X2286560Y873439D01*
X2289600Y878220D01*
X2292020Y883360D01*
X2293780Y888760D01*
X2294840Y894340D01*
X2295200Y900000D01*
X2294840Y905660D01*
X2293780Y911240D01*
X2292020Y916640D01*
X2289600Y921780D01*
X2286560Y926560D01*
X2282940Y930939D01*
X2278800Y934820D01*
X2274220Y938160D01*
X2269240Y940900D01*
X2263960Y942980D01*
X2258460Y944400D01*
X2252840Y945100D01*
X2247160Y945100D01*
X2241540Y944400D01*
X2236040Y942980D01*
X2230760Y940900D01*
X2225780Y938160D01*
X2221200Y934820D01*
X2217060Y930939D01*
X2213440Y926560D01*
X2210400Y921780D01*
X2207980Y916640D01*
X2206220Y911240D01*
X2205160Y905660D01*
X2204800Y900000D01*
X2205160Y894340D01*
X2206220Y888760D01*
X2207980Y883360D01*
X2210400Y878220D01*
X2213440Y873439D01*
X2217060Y869060D01*
X2221200Y865180D01*
X2225780Y861840D01*
X2230760Y859100D01*
X2236040Y857020D01*
X2241540Y855600D01*
G37*
G36*
X103800Y881740D02*
G01*
X132000Y881740D01*
X132000Y911800D01*
X132280Y913259D01*
X133080Y914520D01*
X134280Y915400D01*
X135720Y915780D01*
X137220Y915600D01*
X138140Y915320D01*
X144020Y914220D01*
X150000Y913840D01*
X155980Y914220D01*
X161860Y915320D01*
X162780Y915600D01*
X164280Y915780D01*
X165720Y915400D01*
X166920Y914520D01*
X167719Y913259D01*
X168000Y911800D01*
X168000Y881740D01*
X196200Y881740D01*
X196200Y895759D01*
X195880Y898920D01*
X195020Y901780D01*
X193619Y904400D01*
X191740Y906700D01*
X189440Y908580D01*
X186800Y909980D01*
X183960Y910860D01*
X180799Y911160D01*
X172880Y911160D01*
X171360Y911460D01*
X170080Y912300D01*
X169200Y913580D01*
X168880Y915080D01*
X169140Y916600D01*
X169960Y917900D01*
X171200Y918800D01*
X173020Y919640D01*
X178120Y922780D01*
X182780Y926540D01*
X186960Y930840D01*
X190560Y935620D01*
X193560Y940819D01*
X195900Y946320D01*
X197540Y952099D01*
X198440Y958020D01*
X198640Y964000D01*
X198080Y969960D01*
X196800Y975819D01*
X194800Y981460D01*
X192140Y986820D01*
X188820Y991820D01*
X184940Y996380D01*
X180500Y1000400D01*
X175620Y1003860D01*
X171060Y1006320D01*
X169740Y1007460D01*
X169040Y1009060D01*
X169080Y1010819D01*
X169860Y1012380D01*
X171240Y1013460D01*
X172960Y1013840D01*
X180799Y1013840D01*
X183960Y1014140D01*
X186800Y1015020D01*
X189440Y1016420D01*
X191740Y1018300D01*
X193619Y1020600D01*
X195020Y1023220D01*
X195880Y1026080D01*
X196200Y1029240D01*
X196200Y1043259D01*
X168000Y1043259D01*
X168000Y1013180D01*
X167740Y1011760D01*
X166980Y1010520D01*
X165840Y1009640D01*
X164460Y1009200D01*
X163020Y1009300D01*
X158940Y1010320D01*
X153000Y1011060D01*
X147000Y1011060D01*
X141060Y1010320D01*
X136980Y1009300D01*
X135540Y1009200D01*
X134160Y1009640D01*
X133020Y1010520D01*
X132260Y1011760D01*
X132000Y1013180D01*
X132000Y1043259D01*
X103800Y1043259D01*
X103800Y1029240D01*
X104120Y1026080D01*
X104980Y1023220D01*
X106380Y1020600D01*
X108260Y1018300D01*
X110559Y1016420D01*
X113200Y1015020D01*
X116039Y1014140D01*
X119200Y1013840D01*
X127040Y1013840D01*
X128760Y1013460D01*
X130140Y1012380D01*
X130920Y1010819D01*
X130960Y1009060D01*
X130260Y1007460D01*
X128940Y1006320D01*
X124380Y1003860D01*
X119500Y1000400D01*
X115060Y996380D01*
X111180Y991820D01*
X107860Y986820D01*
X105200Y981460D01*
X103200Y975819D01*
X101920Y969960D01*
X101359Y964000D01*
X101560Y958020D01*
X102460Y952099D01*
X104100Y946320D01*
X106440Y940819D01*
X109440Y935620D01*
X113040Y930840D01*
X117220Y926540D01*
X121880Y922780D01*
X126980Y919640D01*
X128800Y918800D01*
X130040Y917900D01*
X130860Y916600D01*
X131120Y915080D01*
X130800Y913580D01*
X129920Y912300D01*
X128640Y911460D01*
X127120Y911160D01*
X119200Y911160D01*
X116039Y910860D01*
X113200Y909980D01*
X110559Y908580D01*
X108260Y906700D01*
X106380Y904400D01*
X104980Y901780D01*
X104120Y898920D01*
X103800Y895759D01*
G37*
G36*
X273460Y947820D02*
G01*
X279640Y948020D01*
X285760Y948920D01*
X291720Y950560D01*
X297440Y952880D01*
X302860Y955860D01*
X307880Y959479D01*
X312440Y963640D01*
X316480Y968319D01*
X319940Y973460D01*
X322760Y978960D01*
X324920Y984760D01*
X326360Y990759D01*
X327100Y996900D01*
X327100Y1003100D01*
X326360Y1009240D01*
X324920Y1015240D01*
X322760Y1021040D01*
X319940Y1026540D01*
X316480Y1031680D01*
X312440Y1036360D01*
X307880Y1040520D01*
X302860Y1044140D01*
X297440Y1047120D01*
X291720Y1049440D01*
X285760Y1051080D01*
X279640Y1051980D01*
X273460Y1052160D01*
X267300Y1051620D01*
X261240Y1050340D01*
X255380Y1048360D01*
X249800Y1045699D01*
X244579Y1042400D01*
X239780Y1038500D01*
X235460Y1034080D01*
X231720Y1029160D01*
X228560Y1023840D01*
X226080Y1018180D01*
X224259Y1012260D01*
X223180Y1006180D01*
X222800Y1000000D01*
X223180Y993820D01*
X224259Y987740D01*
X226080Y981820D01*
X228560Y976160D01*
X231720Y970840D01*
X235460Y965920D01*
X239780Y961500D01*
X244579Y957600D01*
X249800Y954300D01*
X255380Y951640D01*
X261240Y949659D01*
X267300Y948379D01*
G37*
G36*
X673460Y947820D02*
G01*
X679640Y948020D01*
X685759Y948920D01*
X691720Y950560D01*
X697440Y952880D01*
X702860Y955860D01*
X707880Y959479D01*
X712440Y963640D01*
X716480Y968319D01*
X719940Y973460D01*
X722760Y978960D01*
X724920Y984760D01*
X726360Y990759D01*
X727099Y996900D01*
X727099Y1003100D01*
X726360Y1009240D01*
X724920Y1015240D01*
X722760Y1021040D01*
X719940Y1026540D01*
X716480Y1031680D01*
X712440Y1036360D01*
X707880Y1040520D01*
X702860Y1044140D01*
X697440Y1047120D01*
X691720Y1049440D01*
X685759Y1051080D01*
X679640Y1051980D01*
X673460Y1052160D01*
X667300Y1051620D01*
X661240Y1050340D01*
X655380Y1048360D01*
X649800Y1045699D01*
X644580Y1042400D01*
X639780Y1038500D01*
X635460Y1034080D01*
X631720Y1029160D01*
X628560Y1023840D01*
X626080Y1018180D01*
X624260Y1012260D01*
X623180Y1006180D01*
X622800Y1000000D01*
X623180Y993820D01*
X624260Y987740D01*
X626080Y981820D01*
X628560Y976160D01*
X631720Y970840D01*
X635460Y965920D01*
X639780Y961500D01*
X644580Y957600D01*
X649800Y954300D01*
X655380Y951640D01*
X661240Y949659D01*
X667300Y948379D01*
G37*
G36*
X2247160Y954900D02*
G01*
X2252840Y954900D01*
X2258460Y955600D01*
X2263960Y957020D01*
X2269240Y959100D01*
X2274220Y961840D01*
X2278800Y965180D01*
X2282940Y969060D01*
X2286560Y973439D01*
X2289600Y978220D01*
X2292020Y983360D01*
X2293780Y988760D01*
X2294840Y994340D01*
X2295200Y1000000D01*
X2294840Y1005660D01*
X2293780Y1011240D01*
X2292020Y1016640D01*
X2289600Y1021780D01*
X2286560Y1026560D01*
X2282940Y1030939D01*
X2278800Y1034820D01*
X2274220Y1038160D01*
X2269240Y1040900D01*
X2263960Y1042980D01*
X2258460Y1044400D01*
X2252840Y1045100D01*
X2247160Y1045100D01*
X2241540Y1044400D01*
X2236040Y1042980D01*
X2230760Y1040900D01*
X2225780Y1038160D01*
X2221200Y1034820D01*
X2217060Y1030939D01*
X2213440Y1026560D01*
X2210400Y1021780D01*
X2207980Y1016640D01*
X2206220Y1011240D01*
X2205160Y1005660D01*
X2204800Y1000000D01*
X2205160Y994340D01*
X2206220Y988760D01*
X2207980Y983360D01*
X2210400Y978220D01*
X2213440Y973439D01*
X2217060Y969060D01*
X2221200Y965180D01*
X2225780Y961840D01*
X2230760Y959100D01*
X2236040Y957020D01*
X2241540Y955600D01*
G37*
G36*
X1647160Y954900D02*
G01*
X1652840Y954900D01*
X1658460Y955600D01*
X1663959Y957020D01*
X1669240Y959100D01*
X1674220Y961840D01*
X1678800Y965180D01*
X1682940Y969060D01*
X1686560Y973439D01*
X1689600Y978220D01*
X1692020Y983360D01*
X1693779Y988760D01*
X1694840Y994340D01*
X1695200Y1000000D01*
X1694840Y1005660D01*
X1693779Y1011240D01*
X1692020Y1016640D01*
X1689600Y1021780D01*
X1686560Y1026560D01*
X1682940Y1030939D01*
X1678800Y1034820D01*
X1674220Y1038160D01*
X1669240Y1040900D01*
X1663959Y1042980D01*
X1658460Y1044400D01*
X1652840Y1045100D01*
X1647160Y1045100D01*
X1641540Y1044400D01*
X1636040Y1042980D01*
X1630760Y1040900D01*
X1625780Y1038160D01*
X1621200Y1034820D01*
X1617060Y1030939D01*
X1613440Y1026560D01*
X1610400Y1021780D01*
X1607980Y1016640D01*
X1606220Y1011240D01*
X1605160Y1005660D01*
X1604800Y1000000D01*
X1605160Y994340D01*
X1606220Y988760D01*
X1607980Y983360D01*
X1610400Y978220D01*
X1613440Y973439D01*
X1617060Y969060D01*
X1621200Y965180D01*
X1625780Y961840D01*
X1630760Y959100D01*
X1636040Y957020D01*
X1641540Y955600D01*
G37*
G36*
X1375000Y983420D02*
G01*
X1381100Y983800D01*
X1387120Y984900D01*
X1392940Y986720D01*
X1398520Y989220D01*
X1403760Y992380D01*
X1408560Y996160D01*
X1412900Y1000480D01*
X1416660Y1005300D01*
X1419820Y1010520D01*
X1422340Y1016100D01*
X1424160Y1021940D01*
X1425260Y1027960D01*
X1425640Y1034180D01*
X1425640Y1065420D01*
X1425260Y1071660D01*
X1424160Y1077660D01*
X1422340Y1083500D01*
X1419820Y1089080D01*
X1416660Y1094300D01*
X1412900Y1099120D01*
X1408560Y1103440D01*
X1403760Y1107220D01*
X1398520Y1110380D01*
X1392940Y1112880D01*
X1387120Y1114700D01*
X1381100Y1115800D01*
X1375000Y1116180D01*
X1368899Y1115800D01*
X1362880Y1114700D01*
X1357040Y1112880D01*
X1351480Y1110380D01*
X1346240Y1107220D01*
X1341420Y1103440D01*
X1337100Y1099120D01*
X1333340Y1094300D01*
X1330180Y1089080D01*
X1328740Y1085880D01*
X1327860Y1084640D01*
X1326579Y1083820D01*
X1325080Y1083520D01*
X1323600Y1083820D01*
X1322320Y1084640D01*
X1321440Y1085880D01*
X1319820Y1089460D01*
X1316660Y1094700D01*
X1312900Y1099520D01*
X1308560Y1103840D01*
X1303760Y1107600D01*
X1298520Y1110760D01*
X1292940Y1113280D01*
X1287120Y1115100D01*
X1281100Y1116200D01*
X1275000Y1116560D01*
X1268900Y1116200D01*
X1262880Y1115100D01*
X1257040Y1113280D01*
X1251480Y1110760D01*
X1246240Y1107600D01*
X1241420Y1103840D01*
X1237100Y1099520D01*
X1233340Y1094700D01*
X1231860Y1093000D01*
X1230280Y1092360D01*
X1228560Y1092460D01*
X1227040Y1093260D01*
X1226000Y1094620D01*
X1225640Y1096300D01*
X1225640Y1101180D01*
X1225320Y1104340D01*
X1224460Y1107180D01*
X1223060Y1109800D01*
X1221160Y1112120D01*
X1218860Y1114000D01*
X1216240Y1115400D01*
X1213400Y1116260D01*
X1210240Y1116580D01*
X1139760Y1116580D01*
X1136600Y1116260D01*
X1133760Y1115400D01*
X1131140Y1114000D01*
X1128820Y1112120D01*
X1126940Y1109800D01*
X1125540Y1107180D01*
X1124680Y1104340D01*
X1124360Y1101180D01*
X1124360Y999220D01*
X1124680Y996060D01*
X1125540Y993199D01*
X1126940Y990580D01*
X1128820Y988280D01*
X1131140Y986400D01*
X1133760Y984980D01*
X1136600Y984120D01*
X1139760Y983820D01*
X1210240Y983820D01*
X1213400Y984120D01*
X1216240Y984980D01*
X1218860Y986400D01*
X1221160Y988280D01*
X1223060Y990580D01*
X1224460Y993199D01*
X1225320Y996060D01*
X1225640Y999220D01*
X1225640Y1004080D01*
X1226000Y1005759D01*
X1227040Y1007120D01*
X1228560Y1007940D01*
X1230280Y1008020D01*
X1231860Y1007400D01*
X1233340Y1005680D01*
X1237100Y1000879D01*
X1241420Y996560D01*
X1246240Y992780D01*
X1251480Y989620D01*
X1257040Y987120D01*
X1262880Y985300D01*
X1268900Y984200D01*
X1275000Y983820D01*
X1281100Y984200D01*
X1287120Y985300D01*
X1292940Y987120D01*
X1298520Y989620D01*
X1303760Y992780D01*
X1308560Y996560D01*
X1312900Y1000879D01*
X1316660Y1005680D01*
X1319820Y1010920D01*
X1321260Y1014120D01*
X1322140Y1015360D01*
X1323420Y1016180D01*
X1324900Y1016480D01*
X1326399Y1016180D01*
X1327680Y1015360D01*
X1328560Y1014120D01*
X1330180Y1010520D01*
X1333340Y1005300D01*
X1337100Y1000480D01*
X1341420Y996160D01*
X1346240Y992380D01*
X1351480Y989220D01*
X1357040Y986720D01*
X1362880Y984900D01*
X1368899Y983800D01*
G37*
G36*
X836360Y1017080D02*
G01*
X863640Y1017080D01*
X868460Y1017420D01*
X873060Y1018420D01*
X877440Y1020060D01*
X881580Y1022320D01*
X885320Y1025140D01*
X888640Y1028460D01*
X891460Y1032200D01*
X893720Y1036340D01*
X895360Y1040720D01*
X896360Y1045320D01*
X896680Y1050000D01*
X896360Y1054680D01*
X895360Y1059280D01*
X893720Y1063660D01*
X891460Y1067800D01*
X888640Y1071540D01*
X888020Y1072180D01*
X887159Y1073460D01*
X886860Y1075000D01*
X887159Y1076540D01*
X888020Y1077820D01*
X888640Y1078460D01*
X891460Y1082200D01*
X893720Y1086340D01*
X895360Y1090720D01*
X896360Y1095320D01*
X896680Y1100000D01*
X896360Y1104680D01*
X895360Y1109280D01*
X893720Y1113660D01*
X891820Y1117120D01*
X891360Y1118620D01*
X891500Y1120180D01*
X892240Y1121580D01*
X894120Y1123840D01*
X895520Y1126480D01*
X896380Y1129320D01*
X896700Y1132480D01*
X896700Y1167520D01*
X896380Y1170680D01*
X895520Y1173520D01*
X894120Y1176160D01*
X892240Y1178460D01*
X889920Y1180340D01*
X887300Y1181740D01*
X884460Y1182600D01*
X881300Y1182920D01*
X818700Y1182920D01*
X815540Y1182600D01*
X812700Y1181740D01*
X810080Y1180340D01*
X807760Y1178460D01*
X805879Y1176160D01*
X804479Y1173520D01*
X803620Y1170680D01*
X803300Y1167520D01*
X803300Y1132480D01*
X803620Y1129320D01*
X804479Y1126480D01*
X805879Y1123840D01*
X807760Y1121580D01*
X808500Y1120180D01*
X808640Y1118620D01*
X808180Y1117120D01*
X806280Y1113660D01*
X804640Y1109280D01*
X803640Y1104680D01*
X803319Y1100000D01*
X803640Y1095320D01*
X804640Y1090720D01*
X806280Y1086340D01*
X808540Y1082200D01*
X811360Y1078460D01*
X811979Y1077820D01*
X812840Y1076540D01*
X813139Y1075000D01*
X812840Y1073460D01*
X811979Y1072180D01*
X811360Y1071540D01*
X808540Y1067800D01*
X806280Y1063660D01*
X804640Y1059280D01*
X803640Y1054680D01*
X803319Y1050000D01*
X803640Y1045320D01*
X804640Y1040720D01*
X806280Y1036340D01*
X808540Y1032200D01*
X811360Y1028460D01*
X814680Y1025140D01*
X818439Y1022320D01*
X822560Y1020060D01*
X826940Y1018420D01*
X831540Y1017420D01*
G37*
G36*
X1647160Y1054900D02*
G01*
X1652840Y1054900D01*
X1658460Y1055600D01*
X1663959Y1057020D01*
X1669240Y1059100D01*
X1674220Y1061840D01*
X1678800Y1065180D01*
X1682940Y1069060D01*
X1686560Y1073440D01*
X1689600Y1078220D01*
X1692020Y1083360D01*
X1693779Y1088760D01*
X1694840Y1094340D01*
X1695200Y1100000D01*
X1694840Y1105660D01*
X1693779Y1111240D01*
X1692020Y1116640D01*
X1689600Y1121780D01*
X1686560Y1126560D01*
X1682940Y1130940D01*
X1678800Y1134820D01*
X1674220Y1138160D01*
X1669240Y1140900D01*
X1663959Y1142980D01*
X1658460Y1144400D01*
X1652840Y1145100D01*
X1647160Y1145100D01*
X1641540Y1144400D01*
X1636040Y1142980D01*
X1630760Y1140900D01*
X1625780Y1138160D01*
X1621200Y1134820D01*
X1617060Y1130940D01*
X1613440Y1126560D01*
X1610400Y1121780D01*
X1607980Y1116640D01*
X1606220Y1111240D01*
X1605160Y1105660D01*
X1604800Y1100000D01*
X1605160Y1094340D01*
X1606220Y1088760D01*
X1607980Y1083360D01*
X1610400Y1078220D01*
X1613440Y1073440D01*
X1617060Y1069060D01*
X1621200Y1065180D01*
X1625780Y1061840D01*
X1630760Y1059100D01*
X1636040Y1057020D01*
X1641540Y1055600D01*
G37*
G36*
X2247160Y1054900D02*
G01*
X2252840Y1054900D01*
X2258460Y1055600D01*
X2263960Y1057020D01*
X2269240Y1059100D01*
X2274220Y1061840D01*
X2278800Y1065180D01*
X2282940Y1069060D01*
X2286560Y1073440D01*
X2289600Y1078220D01*
X2292020Y1083360D01*
X2293780Y1088760D01*
X2294840Y1094340D01*
X2295200Y1100000D01*
X2294840Y1105660D01*
X2293780Y1111240D01*
X2292020Y1116640D01*
X2289600Y1121780D01*
X2286560Y1126560D01*
X2282940Y1130940D01*
X2278800Y1134820D01*
X2274220Y1138160D01*
X2269240Y1140900D01*
X2263960Y1142980D01*
X2258460Y1144400D01*
X2252840Y1145100D01*
X2247160Y1145100D01*
X2241540Y1144400D01*
X2236040Y1142980D01*
X2230760Y1140900D01*
X2225780Y1138160D01*
X2221200Y1134820D01*
X2217060Y1130940D01*
X2213440Y1126560D01*
X2210400Y1121780D01*
X2207980Y1116640D01*
X2206220Y1111240D01*
X2205160Y1105660D01*
X2204800Y1100000D01*
X2205160Y1094340D01*
X2206220Y1088760D01*
X2207980Y1083360D01*
X2210400Y1078220D01*
X2213440Y1073440D01*
X2217060Y1069060D01*
X2221200Y1065180D01*
X2225780Y1061840D01*
X2230760Y1059100D01*
X2236040Y1057020D01*
X2241540Y1055600D01*
G37*
G36*
X168000Y1081740D02*
G01*
X196200Y1081740D01*
X196200Y1095760D01*
X195880Y1098920D01*
X195020Y1101780D01*
X193619Y1104400D01*
X191740Y1106700D01*
X189440Y1108580D01*
X186800Y1109980D01*
X183960Y1110860D01*
X180799Y1111160D01*
X168000Y1111160D01*
G37*
G36*
X103800Y1081740D02*
G01*
X132000Y1081740D01*
X132000Y1111160D01*
X119200Y1111160D01*
X116039Y1110860D01*
X113200Y1109980D01*
X110559Y1108580D01*
X108260Y1106700D01*
X106380Y1104400D01*
X104980Y1101780D01*
X104120Y1098920D01*
X103800Y1095760D01*
G37*
G36*
X273460Y1097820D02*
G01*
X279640Y1098020D01*
X285760Y1098920D01*
X291720Y1100560D01*
X297440Y1102880D01*
X302860Y1105860D01*
X307880Y1109480D01*
X312440Y1113640D01*
X316480Y1118320D01*
X319940Y1123460D01*
X322760Y1128960D01*
X324920Y1134760D01*
X326360Y1140760D01*
X327100Y1146900D01*
X327100Y1153100D01*
X326360Y1159240D01*
X324920Y1165240D01*
X322760Y1171040D01*
X319940Y1176540D01*
X316480Y1181680D01*
X312440Y1186360D01*
X307880Y1190520D01*
X302860Y1194140D01*
X297440Y1197120D01*
X291720Y1199440D01*
X285760Y1201080D01*
X279640Y1201980D01*
X273460Y1202160D01*
X267300Y1201620D01*
X261240Y1200340D01*
X255380Y1198360D01*
X249800Y1195700D01*
X244579Y1192400D01*
X239780Y1188500D01*
X235460Y1184080D01*
X231720Y1179160D01*
X228560Y1173840D01*
X226080Y1168180D01*
X224259Y1162260D01*
X223180Y1156180D01*
X222800Y1150000D01*
X223180Y1143820D01*
X224259Y1137740D01*
X226080Y1131820D01*
X228560Y1126160D01*
X231720Y1120840D01*
X235460Y1115920D01*
X239780Y1111500D01*
X244579Y1107600D01*
X249800Y1104300D01*
X255380Y1101640D01*
X261240Y1099660D01*
X267300Y1098380D01*
G37*
G36*
X673460Y1097820D02*
G01*
X679640Y1098020D01*
X685759Y1098920D01*
X691720Y1100560D01*
X697440Y1102880D01*
X702860Y1105860D01*
X707880Y1109480D01*
X712440Y1113640D01*
X716480Y1118320D01*
X719940Y1123460D01*
X722760Y1128960D01*
X724920Y1134760D01*
X726360Y1140760D01*
X727099Y1146900D01*
X727099Y1153100D01*
X726360Y1159240D01*
X724920Y1165240D01*
X722760Y1171040D01*
X719940Y1176540D01*
X716480Y1181680D01*
X712440Y1186360D01*
X707880Y1190520D01*
X702860Y1194140D01*
X697440Y1197120D01*
X691720Y1199440D01*
X685759Y1201080D01*
X679640Y1201980D01*
X673460Y1202160D01*
X667300Y1201620D01*
X661240Y1200340D01*
X655380Y1198360D01*
X649800Y1195700D01*
X644580Y1192400D01*
X639780Y1188500D01*
X635460Y1184080D01*
X631720Y1179160D01*
X628560Y1173840D01*
X626080Y1168180D01*
X624260Y1162260D01*
X623180Y1156180D01*
X622800Y1150000D01*
X623180Y1143820D01*
X624260Y1137740D01*
X626080Y1131820D01*
X628560Y1126160D01*
X631720Y1120840D01*
X635460Y1115920D01*
X639780Y1111500D01*
X644580Y1107600D01*
X649800Y1104300D01*
X655380Y1101640D01*
X661240Y1099660D01*
X667300Y1098380D01*
G37*
G36*
X2247160Y1154900D02*
G01*
X2252840Y1154900D01*
X2258460Y1155600D01*
X2263960Y1157020D01*
X2269240Y1159100D01*
X2274220Y1161840D01*
X2278800Y1165180D01*
X2282940Y1169060D01*
X2286560Y1173440D01*
X2289600Y1178220D01*
X2292020Y1183360D01*
X2293780Y1188760D01*
X2294840Y1194340D01*
X2295200Y1200000D01*
X2294840Y1205660D01*
X2293780Y1211240D01*
X2292020Y1216640D01*
X2289600Y1221780D01*
X2286560Y1226560D01*
X2282940Y1230940D01*
X2278800Y1234820D01*
X2274220Y1238160D01*
X2269240Y1240900D01*
X2263960Y1242980D01*
X2258460Y1244400D01*
X2252840Y1245100D01*
X2247160Y1245100D01*
X2241540Y1244400D01*
X2236040Y1242980D01*
X2230760Y1240900D01*
X2225780Y1238160D01*
X2221200Y1234820D01*
X2217060Y1230940D01*
X2213440Y1226560D01*
X2210400Y1221780D01*
X2207980Y1216640D01*
X2206220Y1211240D01*
X2205160Y1205660D01*
X2204800Y1200000D01*
X2205160Y1194340D01*
X2206220Y1188760D01*
X2207980Y1183360D01*
X2210400Y1178220D01*
X2213440Y1173440D01*
X2217060Y1169060D01*
X2221200Y1165180D01*
X2225780Y1161840D01*
X2230760Y1159100D01*
X2236040Y1157020D01*
X2241540Y1155600D01*
G37*
G36*
X1647160Y1154900D02*
G01*
X1652840Y1154900D01*
X1658460Y1155600D01*
X1663959Y1157020D01*
X1669240Y1159100D01*
X1674220Y1161840D01*
X1678800Y1165180D01*
X1682940Y1169060D01*
X1686560Y1173440D01*
X1689600Y1178220D01*
X1692020Y1183360D01*
X1693779Y1188760D01*
X1694840Y1194340D01*
X1695200Y1200000D01*
X1694840Y1205660D01*
X1693779Y1211240D01*
X1692020Y1216640D01*
X1689600Y1221780D01*
X1686560Y1226560D01*
X1682940Y1230940D01*
X1678800Y1234820D01*
X1674220Y1238160D01*
X1669240Y1240900D01*
X1663959Y1242980D01*
X1658460Y1244400D01*
X1652840Y1245100D01*
X1647160Y1245100D01*
X1641540Y1244400D01*
X1636040Y1242980D01*
X1630760Y1240900D01*
X1625780Y1238160D01*
X1621200Y1234820D01*
X1617060Y1230940D01*
X1613440Y1226560D01*
X1610400Y1221780D01*
X1607980Y1216640D01*
X1606220Y1211240D01*
X1605160Y1205660D01*
X1604800Y1200000D01*
X1605160Y1194340D01*
X1606220Y1188760D01*
X1607980Y1183360D01*
X1610400Y1178220D01*
X1613440Y1173440D01*
X1617060Y1169060D01*
X1621200Y1165180D01*
X1625780Y1161840D01*
X1630760Y1159100D01*
X1636040Y1157020D01*
X1641540Y1155600D01*
G37*
G36*
X525080Y1217300D02*
G01*
X774920Y1217300D01*
X777340Y1217380D01*
X779659Y1217640D01*
X781960Y1218040D01*
X784220Y1218620D01*
X786420Y1219360D01*
X788580Y1220260D01*
X790680Y1221300D01*
X792680Y1222500D01*
X794599Y1223820D01*
X796420Y1225280D01*
X798180Y1226920D01*
X962380Y1391120D01*
X963680Y1392000D01*
X965200Y1392300D01*
X993040Y1392300D01*
X994520Y1392020D01*
X995780Y1391220D01*
X996500Y1390540D01*
X1001040Y1387240D01*
X1005960Y1384540D01*
X1011180Y1382460D01*
X1016620Y1381080D01*
X1022200Y1380360D01*
X1027800Y1380360D01*
X1033379Y1381080D01*
X1038820Y1382460D01*
X1044040Y1384540D01*
X1048960Y1387240D01*
X1053500Y1390540D01*
X1057600Y1394379D01*
X1061180Y1398720D01*
X1064180Y1403460D01*
X1066580Y1408540D01*
X1068320Y1413880D01*
X1069360Y1419400D01*
X1069720Y1425000D01*
X1069360Y1430600D01*
X1068320Y1436120D01*
X1066580Y1441459D01*
X1064180Y1446540D01*
X1061180Y1451279D01*
X1057600Y1455620D01*
X1053500Y1459460D01*
X1048960Y1462760D01*
X1044040Y1465460D01*
X1038820Y1467540D01*
X1033379Y1468920D01*
X1027800Y1469640D01*
X1022200Y1469640D01*
X1016620Y1468920D01*
X1011180Y1467540D01*
X1005960Y1465460D01*
X1001040Y1462760D01*
X996500Y1459460D01*
X995780Y1458779D01*
X994520Y1457980D01*
X993040Y1457700D01*
X950080Y1457700D01*
X947660Y1457620D01*
X945340Y1457360D01*
X943040Y1456960D01*
X940780Y1456380D01*
X938580Y1455640D01*
X936420Y1454740D01*
X934320Y1453700D01*
X932320Y1452500D01*
X930400Y1451180D01*
X928580Y1449720D01*
X926820Y1448080D01*
X762620Y1283880D01*
X761320Y1283000D01*
X759800Y1282700D01*
X755020Y1282700D01*
X753400Y1283040D01*
X752039Y1284019D01*
X751220Y1285460D01*
X751040Y1287120D01*
X751560Y1288700D01*
X752680Y1289940D01*
X753500Y1290540D01*
X757600Y1294379D01*
X761180Y1298720D01*
X764180Y1303460D01*
X766200Y1307740D01*
X742260Y1307740D01*
X742260Y1286699D01*
X741960Y1285160D01*
X741100Y1283880D01*
X739800Y1283000D01*
X738259Y1282700D01*
X711740Y1282700D01*
X710200Y1283000D01*
X708900Y1283880D01*
X708040Y1285160D01*
X707740Y1286699D01*
X707740Y1307740D01*
X683800Y1307740D01*
X685819Y1303460D01*
X688820Y1298720D01*
X692400Y1294379D01*
X696500Y1290540D01*
X697340Y1289940D01*
X698439Y1288700D01*
X698960Y1287120D01*
X698780Y1285460D01*
X697960Y1284019D01*
X696600Y1283040D01*
X694980Y1282700D01*
X540200Y1282700D01*
X538680Y1283000D01*
X537380Y1283880D01*
X498180Y1323080D01*
X496420Y1324720D01*
X494600Y1326180D01*
X492680Y1327500D01*
X490680Y1328700D01*
X488579Y1329740D01*
X486420Y1330640D01*
X484219Y1331380D01*
X481960Y1331960D01*
X479660Y1332360D01*
X477340Y1332620D01*
X474920Y1332700D01*
X234240Y1332700D01*
X232880Y1332940D01*
X231680Y1333620D01*
X227160Y1337380D01*
X222260Y1340480D01*
X217000Y1342940D01*
X211480Y1344740D01*
X205780Y1345820D01*
X202920Y1346000D01*
X201280Y1346480D01*
X200000Y1347580D01*
X198720Y1346480D01*
X197079Y1346000D01*
X194220Y1345820D01*
X188520Y1344740D01*
X183000Y1342940D01*
X177740Y1340480D01*
X172840Y1337380D01*
X168380Y1333680D01*
X164400Y1329440D01*
X161000Y1324760D01*
X158200Y1319660D01*
X156060Y1314280D01*
X154620Y1308660D01*
X153960Y1303440D01*
X153440Y1301900D01*
X152320Y1300700D01*
X150820Y1300040D01*
X149180Y1300040D01*
X147680Y1300700D01*
X146560Y1301900D01*
X146040Y1303440D01*
X145380Y1308660D01*
X143940Y1314280D01*
X141800Y1319660D01*
X139000Y1324760D01*
X135600Y1329440D01*
X131620Y1333680D01*
X127160Y1337380D01*
X122260Y1340480D01*
X117000Y1342940D01*
X111480Y1344740D01*
X105780Y1345820D01*
X100000Y1346200D01*
X94220Y1345820D01*
X88520Y1344740D01*
X83000Y1342940D01*
X77740Y1340480D01*
X72840Y1337380D01*
X68380Y1333680D01*
X64400Y1329440D01*
X61000Y1324760D01*
X58200Y1319660D01*
X56060Y1314280D01*
X54620Y1308660D01*
X53900Y1302900D01*
X53900Y1297100D01*
X54620Y1291339D01*
X56060Y1285720D01*
X58200Y1280340D01*
X61000Y1275240D01*
X64400Y1270560D01*
X68380Y1266320D01*
X72840Y1262620D01*
X77740Y1259520D01*
X83000Y1257060D01*
X88520Y1255260D01*
X94220Y1254180D01*
X100000Y1253800D01*
X105780Y1254180D01*
X111480Y1255260D01*
X117000Y1257060D01*
X122260Y1259520D01*
X127160Y1262620D01*
X131620Y1266320D01*
X135600Y1270560D01*
X139000Y1275240D01*
X141800Y1280340D01*
X143940Y1285720D01*
X145380Y1291339D01*
X146040Y1296560D01*
X146560Y1298100D01*
X147680Y1299300D01*
X149180Y1299960D01*
X150820Y1299960D01*
X152320Y1299300D01*
X153440Y1298100D01*
X153960Y1296560D01*
X154620Y1291339D01*
X156060Y1285720D01*
X158200Y1280340D01*
X161000Y1275240D01*
X164400Y1270560D01*
X168380Y1266320D01*
X172840Y1262620D01*
X177740Y1259520D01*
X183000Y1257060D01*
X188520Y1255260D01*
X194220Y1254180D01*
X200000Y1253800D01*
X205780Y1254180D01*
X211480Y1255260D01*
X217000Y1257060D01*
X222260Y1259520D01*
X227160Y1262620D01*
X231680Y1266380D01*
X232880Y1267060D01*
X234240Y1267300D01*
X459799Y1267300D01*
X461320Y1267000D01*
X462620Y1266120D01*
X501820Y1226920D01*
X503579Y1225280D01*
X505400Y1223820D01*
X507320Y1222500D01*
X509320Y1221300D01*
X511420Y1220260D01*
X513579Y1219360D01*
X515780Y1218620D01*
X518040Y1218040D01*
X520340Y1217640D01*
X522660Y1217380D01*
G37*
G36*
X2247160Y1254900D02*
G01*
X2252840Y1254900D01*
X2258460Y1255600D01*
X2263960Y1257020D01*
X2269240Y1259100D01*
X2274220Y1261840D01*
X2278800Y1265180D01*
X2282940Y1269060D01*
X2286560Y1273440D01*
X2289600Y1278220D01*
X2292020Y1283360D01*
X2293780Y1288760D01*
X2294840Y1294340D01*
X2295200Y1300000D01*
X2294840Y1305660D01*
X2293780Y1311240D01*
X2292020Y1316639D01*
X2289600Y1321780D01*
X2286560Y1326560D01*
X2282940Y1330940D01*
X2278800Y1334820D01*
X2274220Y1338160D01*
X2269240Y1340900D01*
X2263960Y1342980D01*
X2258460Y1344400D01*
X2252840Y1345100D01*
X2247160Y1345100D01*
X2241540Y1344400D01*
X2236040Y1342980D01*
X2230760Y1340900D01*
X2225780Y1338160D01*
X2221200Y1334820D01*
X2217060Y1330940D01*
X2213440Y1326560D01*
X2210400Y1321780D01*
X2207980Y1316639D01*
X2206220Y1311240D01*
X2205160Y1305660D01*
X2204800Y1300000D01*
X2205160Y1294340D01*
X2206220Y1288760D01*
X2207980Y1283360D01*
X2210400Y1278220D01*
X2213440Y1273440D01*
X2217060Y1269060D01*
X2221200Y1265180D01*
X2225780Y1261840D01*
X2230760Y1259100D01*
X2236040Y1257020D01*
X2241540Y1255600D01*
G37*
G36*
X1647160Y1254900D02*
G01*
X1652840Y1254900D01*
X1658460Y1255600D01*
X1663959Y1257020D01*
X1669240Y1259100D01*
X1674220Y1261840D01*
X1678800Y1265180D01*
X1682940Y1269060D01*
X1686560Y1273440D01*
X1689600Y1278220D01*
X1692020Y1283360D01*
X1693779Y1288760D01*
X1694840Y1294340D01*
X1695200Y1300000D01*
X1694840Y1305660D01*
X1693779Y1311240D01*
X1692020Y1316639D01*
X1689600Y1321780D01*
X1686560Y1326560D01*
X1682940Y1330940D01*
X1678800Y1334820D01*
X1674220Y1338160D01*
X1669240Y1340900D01*
X1663959Y1342980D01*
X1658460Y1344400D01*
X1652840Y1345100D01*
X1647160Y1345100D01*
X1641540Y1344400D01*
X1636040Y1342980D01*
X1630760Y1340900D01*
X1625780Y1338160D01*
X1621200Y1334820D01*
X1617060Y1330940D01*
X1613440Y1326560D01*
X1610400Y1321780D01*
X1607980Y1316639D01*
X1606220Y1311240D01*
X1605160Y1305660D01*
X1604800Y1300000D01*
X1605160Y1294340D01*
X1606220Y1288760D01*
X1607980Y1283360D01*
X1610400Y1278220D01*
X1613440Y1273440D01*
X1617060Y1269060D01*
X1621200Y1265180D01*
X1625780Y1261840D01*
X1630760Y1259100D01*
X1636040Y1257020D01*
X1641540Y1255600D01*
G37*
G36*
X1225000Y1274800D02*
G01*
X1231060Y1275180D01*
X1237020Y1276260D01*
X1242800Y1278060D01*
X1248320Y1280560D01*
X1253520Y1283700D01*
X1258280Y1287440D01*
X1262560Y1291720D01*
X1266300Y1296480D01*
X1269440Y1301680D01*
X1271940Y1307200D01*
X1273740Y1312980D01*
X1274820Y1318940D01*
X1275200Y1325000D01*
X1274820Y1331060D01*
X1273740Y1337020D01*
X1271940Y1342800D01*
X1269440Y1348320D01*
X1266300Y1353520D01*
X1262560Y1358280D01*
X1258280Y1362560D01*
X1253520Y1366300D01*
X1248320Y1369440D01*
X1242800Y1371940D01*
X1237020Y1373740D01*
X1231060Y1374820D01*
X1225000Y1375200D01*
X1218940Y1374820D01*
X1212980Y1373740D01*
X1207200Y1371940D01*
X1201680Y1369440D01*
X1196480Y1366300D01*
X1191720Y1362560D01*
X1187440Y1358280D01*
X1183700Y1353520D01*
X1180560Y1348320D01*
X1178060Y1342800D01*
X1176260Y1337020D01*
X1175180Y1331060D01*
X1174800Y1325000D01*
X1175180Y1318940D01*
X1176260Y1312980D01*
X1178060Y1307200D01*
X1180560Y1301680D01*
X1183700Y1296480D01*
X1187440Y1291720D01*
X1191720Y1287440D01*
X1196480Y1283700D01*
X1201680Y1280560D01*
X1207200Y1278060D01*
X1212980Y1276260D01*
X1218940Y1275180D01*
G37*
G36*
X1425000Y1274800D02*
G01*
X1431060Y1275180D01*
X1437020Y1276260D01*
X1442800Y1278060D01*
X1448320Y1280560D01*
X1453520Y1283700D01*
X1458280Y1287440D01*
X1462560Y1291720D01*
X1466300Y1296480D01*
X1469440Y1301680D01*
X1471940Y1307200D01*
X1473740Y1312980D01*
X1474820Y1318940D01*
X1475200Y1325000D01*
X1474820Y1331060D01*
X1473740Y1337020D01*
X1471940Y1342800D01*
X1469440Y1348320D01*
X1466300Y1353520D01*
X1462560Y1358280D01*
X1458280Y1362560D01*
X1453520Y1366300D01*
X1448320Y1369440D01*
X1442800Y1371940D01*
X1437020Y1373740D01*
X1431060Y1374820D01*
X1425000Y1375200D01*
X1418940Y1374820D01*
X1412980Y1373740D01*
X1407200Y1371940D01*
X1401680Y1369440D01*
X1396480Y1366300D01*
X1391720Y1362560D01*
X1387440Y1358280D01*
X1383700Y1353520D01*
X1380560Y1348320D01*
X1378060Y1342800D01*
X1376260Y1337020D01*
X1375180Y1331060D01*
X1374800Y1325000D01*
X1375180Y1318940D01*
X1376260Y1312980D01*
X1378060Y1307200D01*
X1380560Y1301680D01*
X1383700Y1296480D01*
X1387440Y1291720D01*
X1391720Y1287440D01*
X1396480Y1283700D01*
X1401680Y1280560D01*
X1407200Y1278060D01*
X1412980Y1276260D01*
X1418940Y1275180D01*
G37*
G36*
X1022200Y1280360D02*
G01*
X1027800Y1280360D01*
X1033379Y1281080D01*
X1038820Y1282460D01*
X1044040Y1284540D01*
X1048960Y1287240D01*
X1053500Y1290540D01*
X1057600Y1294379D01*
X1061180Y1298720D01*
X1064180Y1303460D01*
X1066580Y1308540D01*
X1068320Y1313880D01*
X1069360Y1319400D01*
X1069720Y1325000D01*
X1069360Y1330600D01*
X1068320Y1336120D01*
X1066580Y1341459D01*
X1064180Y1346540D01*
X1061180Y1351279D01*
X1057600Y1355620D01*
X1053500Y1359460D01*
X1048960Y1362760D01*
X1044040Y1365460D01*
X1038820Y1367540D01*
X1033379Y1368920D01*
X1027800Y1369640D01*
X1022200Y1369640D01*
X1016620Y1368920D01*
X1011180Y1367540D01*
X1005960Y1365460D01*
X1001040Y1362760D01*
X996500Y1359460D01*
X992400Y1355620D01*
X988820Y1351279D01*
X985819Y1346540D01*
X983420Y1341459D01*
X981680Y1336120D01*
X980639Y1330600D01*
X980280Y1325000D01*
X980639Y1319400D01*
X981680Y1313880D01*
X983420Y1308540D01*
X985819Y1303460D01*
X988820Y1298720D01*
X992400Y1294379D01*
X996500Y1290540D01*
X1001040Y1287240D01*
X1005960Y1284540D01*
X1011180Y1282460D01*
X1016620Y1281080D01*
G37*
G36*
X742260Y1342260D02*
G01*
X766200Y1342260D01*
X764180Y1346540D01*
X761180Y1351279D01*
X757600Y1355620D01*
X753500Y1359460D01*
X748960Y1362760D01*
X744040Y1365460D01*
X742260Y1366160D01*
G37*
G36*
X683800Y1342260D02*
G01*
X707740Y1342260D01*
X707740Y1366160D01*
X705960Y1365460D01*
X701040Y1362760D01*
X696500Y1359460D01*
X692400Y1355620D01*
X688820Y1351279D01*
X685819Y1346540D01*
G37*
G36*
X200000Y1352420D02*
G01*
X201280Y1353520D01*
X202920Y1354000D01*
X205780Y1354180D01*
X211480Y1355260D01*
X217000Y1357060D01*
X222260Y1359520D01*
X227160Y1362620D01*
X231620Y1366320D01*
X235600Y1370560D01*
X239000Y1375240D01*
X241800Y1380340D01*
X243939Y1385720D01*
X245380Y1391339D01*
X246100Y1397100D01*
X246100Y1402900D01*
X245380Y1408660D01*
X243939Y1414280D01*
X241800Y1419660D01*
X239000Y1424760D01*
X235600Y1429440D01*
X231620Y1433680D01*
X227160Y1437380D01*
X222260Y1440480D01*
X217000Y1442940D01*
X211480Y1444740D01*
X205780Y1445820D01*
X202920Y1446000D01*
X201280Y1446480D01*
X200000Y1447580D01*
X198720Y1446480D01*
X197079Y1446000D01*
X194220Y1445820D01*
X188520Y1444740D01*
X183000Y1442940D01*
X177740Y1440480D01*
X172840Y1437380D01*
X168380Y1433680D01*
X164400Y1429440D01*
X161000Y1424760D01*
X158200Y1419660D01*
X156060Y1414280D01*
X154620Y1408660D01*
X153900Y1402900D01*
X153900Y1397100D01*
X154620Y1391339D01*
X156060Y1385720D01*
X158200Y1380340D01*
X161000Y1375240D01*
X164400Y1370560D01*
X168380Y1366320D01*
X172840Y1362620D01*
X177740Y1359520D01*
X183000Y1357060D01*
X188520Y1355260D01*
X194220Y1354180D01*
X197079Y1354000D01*
X198720Y1353520D01*
G37*
G36*
X2247160Y1354900D02*
G01*
X2252840Y1354900D01*
X2258460Y1355600D01*
X2263960Y1357020D01*
X2269240Y1359100D01*
X2274220Y1361840D01*
X2278800Y1365180D01*
X2282940Y1369060D01*
X2286560Y1373440D01*
X2289600Y1378220D01*
X2292020Y1383360D01*
X2293780Y1388760D01*
X2294840Y1394340D01*
X2295200Y1400000D01*
X2294840Y1405660D01*
X2293780Y1411240D01*
X2292020Y1416639D01*
X2289600Y1421780D01*
X2286560Y1426560D01*
X2282940Y1430940D01*
X2278800Y1434820D01*
X2274220Y1438160D01*
X2269240Y1440900D01*
X2263960Y1442980D01*
X2258460Y1444400D01*
X2252840Y1445100D01*
X2247160Y1445100D01*
X2241540Y1444400D01*
X2236040Y1442980D01*
X2230760Y1440900D01*
X2225780Y1438160D01*
X2221200Y1434820D01*
X2217060Y1430940D01*
X2213440Y1426560D01*
X2210400Y1421780D01*
X2207980Y1416639D01*
X2206220Y1411240D01*
X2205160Y1405660D01*
X2204800Y1400000D01*
X2205160Y1394340D01*
X2206220Y1388760D01*
X2207980Y1383360D01*
X2210400Y1378220D01*
X2213440Y1373440D01*
X2217060Y1369060D01*
X2221200Y1365180D01*
X2225780Y1361840D01*
X2230760Y1359100D01*
X2236040Y1357020D01*
X2241540Y1355600D01*
G37*
G36*
X1647160Y1354900D02*
G01*
X1652840Y1354900D01*
X1658460Y1355600D01*
X1663959Y1357020D01*
X1669240Y1359100D01*
X1674220Y1361840D01*
X1678800Y1365180D01*
X1682940Y1369060D01*
X1686560Y1373440D01*
X1689600Y1378220D01*
X1692020Y1383360D01*
X1693779Y1388760D01*
X1694840Y1394340D01*
X1695200Y1400000D01*
X1694840Y1405660D01*
X1693779Y1411240D01*
X1692020Y1416639D01*
X1689600Y1421780D01*
X1686560Y1426560D01*
X1682940Y1430940D01*
X1678800Y1434820D01*
X1674220Y1438160D01*
X1669240Y1440900D01*
X1663959Y1442980D01*
X1658460Y1444400D01*
X1652840Y1445100D01*
X1647160Y1445100D01*
X1641540Y1444400D01*
X1636040Y1442980D01*
X1630760Y1440900D01*
X1625780Y1438160D01*
X1621200Y1434820D01*
X1617060Y1430940D01*
X1613440Y1426560D01*
X1610400Y1421780D01*
X1607980Y1416639D01*
X1606220Y1411240D01*
X1605160Y1405660D01*
X1604800Y1400000D01*
X1605160Y1394340D01*
X1606220Y1388760D01*
X1607980Y1383360D01*
X1610400Y1378220D01*
X1613440Y1373440D01*
X1617060Y1369060D01*
X1621200Y1365180D01*
X1625780Y1361840D01*
X1630760Y1359100D01*
X1636040Y1357020D01*
X1641540Y1355600D01*
G37*
G36*
X82000Y1357520D02*
G01*
X82000Y1382000D01*
X57539Y1382000D01*
X58200Y1380340D01*
X61000Y1375240D01*
X64400Y1370560D01*
X68380Y1366320D01*
X72840Y1362620D01*
X77740Y1359520D01*
G37*
G36*
X118000Y1357520D02*
G01*
X122260Y1359520D01*
X127160Y1362620D01*
X131620Y1366320D01*
X135600Y1370560D01*
X139000Y1375240D01*
X141800Y1380340D01*
X142460Y1382000D01*
X118000Y1382000D01*
G37*
G36*
X722200Y1380360D02*
G01*
X727800Y1380360D01*
X733379Y1381080D01*
X738820Y1382460D01*
X744040Y1384540D01*
X748960Y1387240D01*
X753500Y1390540D01*
X757600Y1394379D01*
X761180Y1398720D01*
X764180Y1403460D01*
X766580Y1408540D01*
X768319Y1413880D01*
X769360Y1419400D01*
X769720Y1425000D01*
X769360Y1430600D01*
X768319Y1436120D01*
X766580Y1441459D01*
X764180Y1446540D01*
X761180Y1451279D01*
X757600Y1455620D01*
X753500Y1459460D01*
X748960Y1462760D01*
X744040Y1465460D01*
X738820Y1467540D01*
X733379Y1468920D01*
X727800Y1469640D01*
X722200Y1469640D01*
X716620Y1468920D01*
X711180Y1467540D01*
X705960Y1465460D01*
X701040Y1462760D01*
X696500Y1459460D01*
X692400Y1455620D01*
X688820Y1451279D01*
X685819Y1446540D01*
X683420Y1441459D01*
X681680Y1436120D01*
X680639Y1430600D01*
X680280Y1425000D01*
X680639Y1419400D01*
X681680Y1413880D01*
X683420Y1408540D01*
X685819Y1403460D01*
X688820Y1398720D01*
X692400Y1394379D01*
X696500Y1390540D01*
X701040Y1387240D01*
X705960Y1384540D01*
X711180Y1382460D01*
X716620Y1381080D01*
G37*
G36*
X118000Y1418000D02*
G01*
X142460Y1418000D01*
X141800Y1419660D01*
X139000Y1424760D01*
X135600Y1429440D01*
X131620Y1433680D01*
X127160Y1437380D01*
X122260Y1440480D01*
X118000Y1442480D01*
G37*
G36*
X57539Y1418000D02*
G01*
X82000Y1418000D01*
X82000Y1442480D01*
X77740Y1440480D01*
X72840Y1437380D01*
X68380Y1433680D01*
X64400Y1429440D01*
X61000Y1424760D01*
X58200Y1419660D01*
G37*
G36*
X317520Y1424379D02*
G01*
X323620Y1424740D01*
X329640Y1425840D01*
X335480Y1427660D01*
X341040Y1430180D01*
X346280Y1433340D01*
X351100Y1437100D01*
X355420Y1441420D01*
X359180Y1446240D01*
X362340Y1451480D01*
X364860Y1457040D01*
X366680Y1462880D01*
X367780Y1468899D01*
X368140Y1475000D01*
X367780Y1481100D01*
X366680Y1487120D01*
X364860Y1492960D01*
X362340Y1498520D01*
X359180Y1503760D01*
X355420Y1508580D01*
X351100Y1512900D01*
X346280Y1516660D01*
X341040Y1519820D01*
X335480Y1522340D01*
X329640Y1524160D01*
X323620Y1525260D01*
X317520Y1525620D01*
X311420Y1525260D01*
X305400Y1524160D01*
X299580Y1522340D01*
X294000Y1519820D01*
X288760Y1516660D01*
X283960Y1512900D01*
X279620Y1508580D01*
X275860Y1503760D01*
X272700Y1498520D01*
X270180Y1492960D01*
X268360Y1487120D01*
X267260Y1481100D01*
X266900Y1475000D01*
X267260Y1468899D01*
X268360Y1462880D01*
X270180Y1457040D01*
X272700Y1451480D01*
X275860Y1446240D01*
X279620Y1441420D01*
X283960Y1437100D01*
X288760Y1433340D01*
X294000Y1430180D01*
X299580Y1427660D01*
X305400Y1425840D01*
X311420Y1424740D01*
G37*
G36*
X632480Y1424379D02*
G01*
X638580Y1424740D01*
X644599Y1425840D01*
X650420Y1427660D01*
X656000Y1430180D01*
X661240Y1433340D01*
X666040Y1437100D01*
X670380Y1441420D01*
X674140Y1446240D01*
X677300Y1451480D01*
X679820Y1457040D01*
X681640Y1462880D01*
X682740Y1468899D01*
X683100Y1475000D01*
X682740Y1481100D01*
X681640Y1487120D01*
X679820Y1492960D01*
X677300Y1498520D01*
X674140Y1503760D01*
X670380Y1508580D01*
X666040Y1512900D01*
X661240Y1516660D01*
X656000Y1519820D01*
X650420Y1522340D01*
X644599Y1524160D01*
X638580Y1525260D01*
X632480Y1525620D01*
X626380Y1525260D01*
X620360Y1524160D01*
X614520Y1522340D01*
X608960Y1519820D01*
X603720Y1516660D01*
X598900Y1512900D01*
X594580Y1508580D01*
X590820Y1503760D01*
X587660Y1498520D01*
X585140Y1492960D01*
X583320Y1487120D01*
X582220Y1481100D01*
X581860Y1475000D01*
X582220Y1468899D01*
X583320Y1462880D01*
X585140Y1457040D01*
X587660Y1451480D01*
X590820Y1446240D01*
X594580Y1441420D01*
X598900Y1437100D01*
X603720Y1433340D01*
X608960Y1430180D01*
X614520Y1427660D01*
X620360Y1425840D01*
X626380Y1424740D01*
G37*
G36*
X1225000Y1424800D02*
G01*
X1231060Y1425180D01*
X1237020Y1426260D01*
X1242800Y1428060D01*
X1248320Y1430560D01*
X1253520Y1433700D01*
X1258280Y1437440D01*
X1262560Y1441720D01*
X1266300Y1446480D01*
X1269440Y1451680D01*
X1271940Y1457200D01*
X1273740Y1462980D01*
X1274820Y1468940D01*
X1275200Y1475000D01*
X1274820Y1481060D01*
X1273740Y1487020D01*
X1271940Y1492800D01*
X1269440Y1498320D01*
X1266300Y1503520D01*
X1262560Y1508280D01*
X1258280Y1512560D01*
X1253520Y1516300D01*
X1248320Y1519440D01*
X1242800Y1521940D01*
X1237020Y1523740D01*
X1231060Y1524820D01*
X1225000Y1525200D01*
X1218940Y1524820D01*
X1212980Y1523740D01*
X1207200Y1521940D01*
X1201680Y1519440D01*
X1196480Y1516300D01*
X1191720Y1512560D01*
X1187440Y1508280D01*
X1183700Y1503520D01*
X1180560Y1498320D01*
X1178060Y1492800D01*
X1176260Y1487020D01*
X1175180Y1481060D01*
X1174800Y1475000D01*
X1175180Y1468940D01*
X1176260Y1462980D01*
X1178060Y1457200D01*
X1180560Y1451680D01*
X1183700Y1446480D01*
X1187440Y1441720D01*
X1191720Y1437440D01*
X1196480Y1433700D01*
X1201680Y1430560D01*
X1207200Y1428060D01*
X1212980Y1426260D01*
X1218940Y1425180D01*
G37*
G36*
X1425000Y1424800D02*
G01*
X1431060Y1425180D01*
X1437020Y1426260D01*
X1442800Y1428060D01*
X1448320Y1430560D01*
X1453520Y1433700D01*
X1458280Y1437440D01*
X1462560Y1441720D01*
X1466300Y1446480D01*
X1469440Y1451680D01*
X1471940Y1457200D01*
X1473740Y1462980D01*
X1474820Y1468940D01*
X1475200Y1475000D01*
X1474820Y1481060D01*
X1473740Y1487020D01*
X1471940Y1492800D01*
X1469440Y1498320D01*
X1466300Y1503520D01*
X1462560Y1508280D01*
X1458280Y1512560D01*
X1453520Y1516300D01*
X1448320Y1519440D01*
X1442800Y1521940D01*
X1437020Y1523740D01*
X1431060Y1524820D01*
X1425000Y1525200D01*
X1418940Y1524820D01*
X1412980Y1523740D01*
X1407200Y1521940D01*
X1401680Y1519440D01*
X1396480Y1516300D01*
X1391720Y1512560D01*
X1387440Y1508280D01*
X1383700Y1503520D01*
X1380560Y1498320D01*
X1378060Y1492800D01*
X1376260Y1487020D01*
X1375180Y1481060D01*
X1374800Y1475000D01*
X1375180Y1468940D01*
X1376260Y1462980D01*
X1378060Y1457200D01*
X1380560Y1451680D01*
X1383700Y1446480D01*
X1387440Y1441720D01*
X1391720Y1437440D01*
X1396480Y1433700D01*
X1401680Y1430560D01*
X1407200Y1428060D01*
X1412980Y1426260D01*
X1418940Y1425180D01*
G37*
G36*
X200000Y1452420D02*
G01*
X201280Y1453520D01*
X202920Y1454000D01*
X205780Y1454180D01*
X211480Y1455260D01*
X217000Y1457060D01*
X222260Y1459520D01*
X227160Y1462620D01*
X231620Y1466320D01*
X235600Y1470560D01*
X239000Y1475240D01*
X241800Y1480340D01*
X243939Y1485720D01*
X245380Y1491339D01*
X246100Y1497100D01*
X246100Y1502900D01*
X245380Y1508660D01*
X243939Y1514280D01*
X241800Y1519660D01*
X239000Y1524760D01*
X235600Y1529440D01*
X231620Y1533680D01*
X227160Y1537380D01*
X222260Y1540480D01*
X217000Y1542940D01*
X211480Y1544740D01*
X205780Y1545820D01*
X200000Y1546200D01*
X194220Y1545820D01*
X188520Y1544740D01*
X183000Y1542940D01*
X177740Y1540480D01*
X172840Y1537380D01*
X168380Y1533680D01*
X164400Y1529440D01*
X161000Y1524760D01*
X158200Y1519660D01*
X156060Y1514280D01*
X154620Y1508660D01*
X154160Y1505040D01*
X153600Y1503420D01*
X152400Y1502200D01*
X150800Y1501579D01*
X149100Y1501680D01*
X147600Y1502500D01*
X146560Y1503860D01*
X146200Y1505540D01*
X146200Y1530800D01*
X145880Y1533959D01*
X145020Y1536800D01*
X143620Y1539440D01*
X141740Y1541740D01*
X139440Y1543620D01*
X136800Y1545020D01*
X133960Y1545880D01*
X130800Y1546200D01*
X69200Y1546200D01*
X66040Y1545880D01*
X63200Y1545020D01*
X60560Y1543620D01*
X58259Y1541740D01*
X56380Y1539440D01*
X54980Y1536800D01*
X54120Y1533959D01*
X53800Y1530800D01*
X53800Y1469199D01*
X54120Y1466040D01*
X54980Y1463200D01*
X56380Y1460560D01*
X58259Y1458260D01*
X60560Y1456380D01*
X63200Y1454980D01*
X66040Y1454120D01*
X69200Y1453800D01*
X130800Y1453800D01*
X133960Y1454120D01*
X136800Y1454980D01*
X139440Y1456380D01*
X141740Y1458260D01*
X143620Y1460560D01*
X145020Y1463200D01*
X145880Y1466040D01*
X146200Y1469199D01*
X146200Y1494460D01*
X146560Y1496140D01*
X147600Y1497500D01*
X149100Y1498320D01*
X150800Y1498420D01*
X152400Y1497800D01*
X153600Y1496579D01*
X154160Y1494960D01*
X154620Y1491339D01*
X156060Y1485720D01*
X158200Y1480340D01*
X161000Y1475240D01*
X164400Y1470560D01*
X168380Y1466320D01*
X172840Y1462620D01*
X177740Y1459520D01*
X183000Y1457060D01*
X188520Y1455260D01*
X194220Y1454180D01*
X197079Y1454000D01*
X198720Y1453520D01*
G37*
G36*
X1647160Y1454900D02*
G01*
X1652840Y1454900D01*
X1658460Y1455600D01*
X1663959Y1457020D01*
X1669240Y1459100D01*
X1674220Y1461840D01*
X1678800Y1465180D01*
X1682940Y1469060D01*
X1686560Y1473440D01*
X1689600Y1478220D01*
X1692020Y1483360D01*
X1693779Y1488760D01*
X1694840Y1494340D01*
X1695200Y1500000D01*
X1694840Y1505660D01*
X1693779Y1511240D01*
X1692020Y1516639D01*
X1689600Y1521780D01*
X1686560Y1526560D01*
X1682940Y1530940D01*
X1678800Y1534820D01*
X1674220Y1538160D01*
X1669240Y1540900D01*
X1663959Y1542980D01*
X1658460Y1544400D01*
X1652840Y1545100D01*
X1647160Y1545100D01*
X1641540Y1544400D01*
X1636040Y1542980D01*
X1630760Y1540900D01*
X1625780Y1538160D01*
X1621200Y1534820D01*
X1617060Y1530940D01*
X1613440Y1526560D01*
X1610400Y1521780D01*
X1607980Y1516639D01*
X1606220Y1511240D01*
X1605160Y1505660D01*
X1604800Y1500000D01*
X1605160Y1494340D01*
X1606220Y1488760D01*
X1607980Y1483360D01*
X1610400Y1478220D01*
X1613440Y1473440D01*
X1617060Y1469060D01*
X1621200Y1465180D01*
X1625780Y1461840D01*
X1630760Y1459100D01*
X1636040Y1457020D01*
X1641540Y1455600D01*
G37*
G36*
X2247160Y1454900D02*
G01*
X2252840Y1454900D01*
X2258460Y1455600D01*
X2263960Y1457020D01*
X2269240Y1459100D01*
X2274220Y1461840D01*
X2278800Y1465180D01*
X2282940Y1469060D01*
X2286560Y1473440D01*
X2289600Y1478220D01*
X2292020Y1483360D01*
X2293780Y1488760D01*
X2294840Y1494340D01*
X2295200Y1500000D01*
X2294840Y1505660D01*
X2293780Y1511240D01*
X2292020Y1516639D01*
X2289600Y1521780D01*
X2286560Y1526560D01*
X2282940Y1530940D01*
X2278800Y1534820D01*
X2274220Y1538160D01*
X2269240Y1540900D01*
X2263960Y1542980D01*
X2258460Y1544400D01*
X2252840Y1545100D01*
X2247160Y1545100D01*
X2241540Y1544400D01*
X2236040Y1542980D01*
X2230760Y1540900D01*
X2225780Y1538160D01*
X2221200Y1534820D01*
X2217060Y1530940D01*
X2213440Y1526560D01*
X2210400Y1521780D01*
X2207980Y1516639D01*
X2206220Y1511240D01*
X2205160Y1505660D01*
X2204800Y1500000D01*
X2205160Y1494340D01*
X2206220Y1488760D01*
X2207980Y1483360D01*
X2210400Y1478220D01*
X2213440Y1473440D01*
X2217060Y1469060D01*
X2221200Y1465180D01*
X2225780Y1461840D01*
X2230760Y1459100D01*
X2236040Y1457020D01*
X2241540Y1455600D01*
G37*
G36*
X722200Y1480360D02*
G01*
X727800Y1480360D01*
X733379Y1481080D01*
X738820Y1482460D01*
X744040Y1484540D01*
X748960Y1487240D01*
X753500Y1490540D01*
X757600Y1494379D01*
X761180Y1498720D01*
X764180Y1503460D01*
X766580Y1508540D01*
X768319Y1513880D01*
X769360Y1519400D01*
X769720Y1525000D01*
X769360Y1530600D01*
X768319Y1536120D01*
X766580Y1541459D01*
X764180Y1546540D01*
X761180Y1551279D01*
X757600Y1555620D01*
X753500Y1559460D01*
X748960Y1562760D01*
X744040Y1565460D01*
X738820Y1567540D01*
X733379Y1568920D01*
X727800Y1569640D01*
X722200Y1569640D01*
X716620Y1568920D01*
X711180Y1567540D01*
X705960Y1565460D01*
X701040Y1562760D01*
X696500Y1559460D01*
X692400Y1555620D01*
X688820Y1551279D01*
X685819Y1546540D01*
X683420Y1541459D01*
X681680Y1536120D01*
X680639Y1530600D01*
X680280Y1525000D01*
X680639Y1519400D01*
X681680Y1513880D01*
X683420Y1508540D01*
X685819Y1503460D01*
X688820Y1498720D01*
X692400Y1494379D01*
X696500Y1490540D01*
X701040Y1487240D01*
X705960Y1484540D01*
X711180Y1482460D01*
X716620Y1481080D01*
G37*
G36*
X1022200Y1480360D02*
G01*
X1027800Y1480360D01*
X1033379Y1481080D01*
X1038820Y1482460D01*
X1044040Y1484540D01*
X1048960Y1487240D01*
X1053500Y1490540D01*
X1057600Y1494379D01*
X1061180Y1498720D01*
X1064180Y1503460D01*
X1066580Y1508540D01*
X1068320Y1513880D01*
X1069360Y1519400D01*
X1069720Y1525000D01*
X1069360Y1530600D01*
X1068320Y1536120D01*
X1066580Y1541459D01*
X1064180Y1546540D01*
X1061180Y1551279D01*
X1057600Y1555620D01*
X1053500Y1559460D01*
X1048960Y1562760D01*
X1044040Y1565460D01*
X1038820Y1567540D01*
X1033379Y1568920D01*
X1027800Y1569640D01*
X1022200Y1569640D01*
X1016620Y1568920D01*
X1011180Y1567540D01*
X1005960Y1565460D01*
X1001040Y1562760D01*
X996500Y1559460D01*
X992400Y1555620D01*
X988820Y1551279D01*
X985819Y1546540D01*
X983420Y1541459D01*
X981680Y1536120D01*
X980639Y1530600D01*
X980280Y1525000D01*
X980639Y1519400D01*
X981680Y1513880D01*
X983420Y1508540D01*
X985819Y1503460D01*
X988820Y1498720D01*
X992400Y1494379D01*
X996500Y1490540D01*
X1001040Y1487240D01*
X1005960Y1484540D01*
X1011180Y1482460D01*
X1016620Y1481080D01*
G37*
G36*
X1647160Y1554900D02*
G01*
X1652840Y1554900D01*
X1658460Y1555600D01*
X1663959Y1557020D01*
X1669240Y1559100D01*
X1674220Y1561840D01*
X1678800Y1565180D01*
X1682940Y1569060D01*
X1686560Y1573440D01*
X1689600Y1578220D01*
X1692020Y1583360D01*
X1693779Y1588760D01*
X1694840Y1594340D01*
X1695200Y1600000D01*
X1694840Y1605660D01*
X1693779Y1611240D01*
X1692020Y1616639D01*
X1689600Y1621780D01*
X1686560Y1626560D01*
X1682940Y1630940D01*
X1678800Y1634820D01*
X1674220Y1638160D01*
X1669240Y1640900D01*
X1663959Y1642980D01*
X1658460Y1644400D01*
X1652840Y1645100D01*
X1647160Y1645100D01*
X1641540Y1644400D01*
X1636040Y1642980D01*
X1630760Y1640900D01*
X1625780Y1638160D01*
X1621200Y1634820D01*
X1617060Y1630940D01*
X1613440Y1626560D01*
X1610400Y1621780D01*
X1607980Y1616639D01*
X1606220Y1611240D01*
X1605160Y1605660D01*
X1604800Y1600000D01*
X1605160Y1594340D01*
X1606220Y1588760D01*
X1607980Y1583360D01*
X1610400Y1578220D01*
X1613440Y1573440D01*
X1617060Y1569060D01*
X1621200Y1565180D01*
X1625780Y1561840D01*
X1630760Y1559100D01*
X1636040Y1557020D01*
X1641540Y1555600D01*
G37*
G36*
X2267500Y1558420D02*
G01*
X2269240Y1559100D01*
X2274220Y1561840D01*
X2278800Y1565180D01*
X2282940Y1569060D01*
X2286560Y1573440D01*
X2289600Y1578220D01*
X2291620Y1582500D01*
X2267500Y1582500D01*
G37*
G36*
X2232500Y1558420D02*
G01*
X2232500Y1582500D01*
X2208380Y1582500D01*
X2210400Y1578220D01*
X2213440Y1573440D01*
X2217060Y1569060D01*
X2221200Y1565180D01*
X2225780Y1561840D01*
X2230760Y1559100D01*
G37*
G36*
X317520Y1574379D02*
G01*
X323620Y1574740D01*
X329640Y1575840D01*
X335480Y1577660D01*
X341040Y1580180D01*
X346280Y1583340D01*
X351100Y1587100D01*
X355420Y1591420D01*
X359180Y1596240D01*
X362340Y1601480D01*
X364860Y1607040D01*
X366680Y1612880D01*
X367780Y1618899D01*
X368140Y1625000D01*
X367780Y1631100D01*
X366680Y1637120D01*
X364860Y1642960D01*
X362340Y1648520D01*
X359180Y1653760D01*
X355420Y1658580D01*
X351100Y1662900D01*
X346280Y1666660D01*
X341040Y1669820D01*
X335480Y1672340D01*
X329640Y1674160D01*
X323620Y1675260D01*
X317520Y1675620D01*
X311420Y1675260D01*
X305400Y1674160D01*
X299580Y1672340D01*
X294000Y1669820D01*
X288760Y1666660D01*
X283960Y1662900D01*
X279620Y1658580D01*
X275860Y1653760D01*
X272700Y1648520D01*
X270180Y1642960D01*
X268360Y1637120D01*
X267260Y1631100D01*
X266900Y1625000D01*
X267260Y1618899D01*
X268360Y1612880D01*
X270180Y1607040D01*
X272700Y1601480D01*
X275860Y1596240D01*
X279620Y1591420D01*
X283960Y1587100D01*
X288760Y1583340D01*
X294000Y1580180D01*
X299580Y1577660D01*
X305400Y1575840D01*
X311420Y1574740D01*
G37*
G36*
X632480Y1574379D02*
G01*
X638580Y1574740D01*
X644599Y1575840D01*
X650420Y1577660D01*
X656000Y1580180D01*
X661240Y1583340D01*
X666040Y1587100D01*
X670380Y1591420D01*
X673379Y1595280D01*
X674580Y1596300D01*
X676080Y1596780D01*
X677660Y1596660D01*
X679040Y1595920D01*
X680060Y1594700D01*
X680520Y1593200D01*
X680580Y1592520D01*
X681440Y1589660D01*
X682860Y1587040D01*
X684740Y1584740D01*
X687039Y1582860D01*
X689659Y1581440D01*
X692520Y1580580D01*
X695660Y1580280D01*
X754340Y1580280D01*
X757480Y1580580D01*
X760340Y1581440D01*
X762960Y1582860D01*
X765260Y1584740D01*
X767140Y1587040D01*
X768560Y1589660D01*
X769419Y1592520D01*
X769720Y1595660D01*
X769720Y1654340D01*
X769419Y1657480D01*
X768560Y1660340D01*
X767140Y1662960D01*
X765260Y1665260D01*
X762960Y1667140D01*
X760340Y1668560D01*
X757480Y1669420D01*
X754340Y1669720D01*
X695660Y1669720D01*
X692520Y1669420D01*
X689659Y1668560D01*
X687039Y1667140D01*
X684740Y1665260D01*
X682860Y1662960D01*
X681440Y1660340D01*
X680580Y1657480D01*
X680520Y1656800D01*
X680060Y1655300D01*
X679040Y1654079D01*
X677660Y1653340D01*
X676080Y1653220D01*
X674580Y1653700D01*
X673379Y1654720D01*
X670380Y1658580D01*
X666040Y1662900D01*
X661240Y1666660D01*
X656000Y1669820D01*
X650420Y1672340D01*
X644599Y1674160D01*
X638580Y1675260D01*
X632480Y1675620D01*
X626380Y1675260D01*
X620360Y1674160D01*
X614520Y1672340D01*
X608960Y1669820D01*
X603720Y1666660D01*
X598900Y1662900D01*
X594580Y1658580D01*
X590820Y1653760D01*
X587660Y1648520D01*
X585140Y1642960D01*
X583320Y1637120D01*
X582220Y1631100D01*
X581860Y1625000D01*
X582220Y1618899D01*
X583320Y1612880D01*
X585140Y1607040D01*
X587660Y1601480D01*
X590820Y1596240D01*
X594580Y1591420D01*
X598900Y1587100D01*
X603720Y1583340D01*
X608960Y1580180D01*
X614520Y1577660D01*
X620360Y1575840D01*
X626380Y1574740D01*
G37*
G36*
X1007740Y1583839D02*
G01*
X1007740Y1607740D01*
X983800Y1607740D01*
X985819Y1603460D01*
X988820Y1598720D01*
X992400Y1594379D01*
X996500Y1590540D01*
X1001040Y1587240D01*
X1005960Y1584540D01*
G37*
G36*
X1042260Y1583839D02*
G01*
X1044040Y1584540D01*
X1048960Y1587240D01*
X1053500Y1590540D01*
X1057600Y1594379D01*
X1061180Y1598720D01*
X1064180Y1603460D01*
X1066200Y1607740D01*
X1042260Y1607740D01*
G37*
G36*
X1123460Y1597820D02*
G01*
X1129640Y1598020D01*
X1135760Y1598920D01*
X1141720Y1600560D01*
X1147440Y1602880D01*
X1152860Y1605860D01*
X1157880Y1609480D01*
X1162440Y1613640D01*
X1166480Y1618320D01*
X1169940Y1623460D01*
X1172760Y1628959D01*
X1174920Y1634760D01*
X1176360Y1640760D01*
X1177100Y1646900D01*
X1177100Y1653100D01*
X1176360Y1659240D01*
X1174920Y1665240D01*
X1172760Y1671040D01*
X1169940Y1676540D01*
X1166480Y1681680D01*
X1162440Y1686360D01*
X1157880Y1690520D01*
X1152860Y1694139D01*
X1147440Y1697120D01*
X1141720Y1699440D01*
X1135760Y1701080D01*
X1129640Y1701980D01*
X1123460Y1702160D01*
X1117300Y1701620D01*
X1111240Y1700340D01*
X1105380Y1698360D01*
X1099800Y1695700D01*
X1094580Y1692400D01*
X1089780Y1688500D01*
X1085460Y1684079D01*
X1081720Y1679160D01*
X1078560Y1673839D01*
X1076080Y1668180D01*
X1074260Y1662260D01*
X1073180Y1656180D01*
X1072800Y1650000D01*
X1073060Y1645820D01*
X1072840Y1644259D01*
X1072040Y1642920D01*
X1070980Y1642120D01*
X1071480Y1642020D01*
X1072680Y1641339D01*
X1073560Y1640280D01*
X1074040Y1638980D01*
X1074260Y1637740D01*
X1076080Y1631819D01*
X1078560Y1626160D01*
X1081720Y1620840D01*
X1085460Y1615920D01*
X1089780Y1611500D01*
X1094580Y1607600D01*
X1099800Y1604300D01*
X1105380Y1601639D01*
X1111240Y1599660D01*
X1117300Y1598380D01*
G37*
G36*
X1504000Y1602300D02*
G01*
X1504000Y1629000D01*
X1477320Y1629000D01*
X1478560Y1626160D01*
X1481720Y1620840D01*
X1485460Y1615920D01*
X1489780Y1611500D01*
X1494580Y1607600D01*
X1499800Y1604300D01*
G37*
G36*
X1546000Y1602300D02*
G01*
X1547440Y1602880D01*
X1552860Y1605860D01*
X1557880Y1609480D01*
X1562440Y1613640D01*
X1566480Y1618320D01*
X1569940Y1623460D01*
X1572780Y1629000D01*
X1546000Y1629000D01*
G37*
G36*
X2208380Y1617500D02*
G01*
X2232500Y1617500D01*
X2232500Y1641579D01*
X2230760Y1640900D01*
X2225780Y1638160D01*
X2221200Y1634820D01*
X2217060Y1630940D01*
X2213440Y1626560D01*
X2210400Y1621780D01*
G37*
G36*
X2267500Y1617500D02*
G01*
X2291620Y1617500D01*
X2289600Y1621780D01*
X2286560Y1626560D01*
X2282940Y1630940D01*
X2278800Y1634820D01*
X2274220Y1638160D01*
X2269240Y1640900D01*
X2267500Y1641579D01*
G37*
G36*
X70700Y1630300D02*
G01*
X129300Y1630300D01*
X132460Y1630620D01*
X135300Y1631480D01*
X137940Y1632880D01*
X140240Y1634760D01*
X142120Y1637060D01*
X143520Y1639700D01*
X144380Y1642540D01*
X144700Y1645700D01*
X144700Y1704300D01*
X144380Y1707460D01*
X143520Y1710300D01*
X142120Y1712940D01*
X140240Y1715240D01*
X137940Y1717120D01*
X135300Y1718520D01*
X132460Y1719379D01*
X129300Y1719700D01*
X70700Y1719700D01*
X67540Y1719379D01*
X64700Y1718520D01*
X62060Y1717120D01*
X59760Y1715240D01*
X57880Y1712940D01*
X56480Y1710300D01*
X55620Y1707460D01*
X55300Y1704300D01*
X55300Y1645700D01*
X55620Y1642540D01*
X56480Y1639700D01*
X57880Y1637060D01*
X59760Y1634760D01*
X62060Y1632880D01*
X64700Y1631480D01*
X67540Y1630620D01*
G37*
G36*
X197200Y1630400D02*
G01*
X202800Y1630400D01*
X208380Y1631100D01*
X213820Y1632500D01*
X219020Y1634560D01*
X223939Y1637260D01*
X228480Y1640560D01*
X232580Y1644400D01*
X236160Y1648740D01*
X239160Y1653460D01*
X241560Y1658540D01*
X243280Y1663880D01*
X244340Y1669400D01*
X244700Y1675000D01*
X244340Y1680600D01*
X243280Y1686120D01*
X241560Y1691459D01*
X239160Y1696540D01*
X236160Y1701260D01*
X232580Y1705600D01*
X228480Y1709440D01*
X223939Y1712740D01*
X219020Y1715440D01*
X213820Y1717500D01*
X208380Y1718899D01*
X202800Y1719600D01*
X197200Y1719600D01*
X191620Y1718899D01*
X186180Y1717500D01*
X180980Y1715440D01*
X176060Y1712740D01*
X171520Y1709440D01*
X167420Y1705600D01*
X163840Y1701260D01*
X160840Y1696540D01*
X158440Y1691459D01*
X156720Y1686120D01*
X155660Y1680600D01*
X155300Y1675000D01*
X155660Y1669400D01*
X156720Y1663880D01*
X158440Y1658540D01*
X160840Y1653460D01*
X163840Y1648740D01*
X167420Y1644400D01*
X171520Y1640560D01*
X176060Y1637260D01*
X180980Y1634560D01*
X186180Y1632500D01*
X191620Y1631100D01*
G37*
G36*
X983800Y1642260D02*
G01*
X1007740Y1642260D01*
X1007740Y1666160D01*
X1005960Y1665460D01*
X1001040Y1662760D01*
X996500Y1659460D01*
X992400Y1655620D01*
X988820Y1651279D01*
X985819Y1646540D01*
G37*
G36*
X1042260Y1642260D02*
G01*
X1066960Y1642260D01*
X1066380Y1642620D01*
X1065440Y1643880D01*
X1064180Y1646540D01*
X1061180Y1651279D01*
X1057600Y1655620D01*
X1053500Y1659460D01*
X1048960Y1662760D01*
X1044040Y1665460D01*
X1042260Y1666160D01*
G37*
G36*
X1477320Y1671000D02*
G01*
X1504000Y1671000D01*
X1504000Y1697700D01*
X1499800Y1695700D01*
X1494580Y1692400D01*
X1489780Y1688500D01*
X1485460Y1684079D01*
X1481720Y1679160D01*
X1478560Y1673839D01*
G37*
G36*
X1546000Y1671000D02*
G01*
X1572780Y1671000D01*
X1569940Y1676540D01*
X1566480Y1681680D01*
X1562440Y1686360D01*
X1557880Y1690520D01*
X1552860Y1694139D01*
X1547440Y1697120D01*
X1546000Y1697700D01*
G37*

%LPD*%
D12*
X200000Y1300000D02*
G01*
X475000Y1300000D01*
X525000Y1250000D01*
X775000Y1250000D01*
X950000Y1425000D01*
X1025000Y1425000D01*
D11*
X3000000Y1250000D02*
G01*
X3075000Y1325000D01*
X3200000Y1325000D01*
X3275000Y1400000D01*
X3600000Y1400000D01*
X3000000Y1650000D02*
G01*
X3000000Y1400000D01*
X3075000Y1325000D01*
G36*
X1139564Y1101376D02*
G01*
X1210429Y1101376D01*
X1210429Y999014D01*
X1139564Y999014D01*
G37*
D15*
G01*
X150000Y262500D03*
G01*
X150000Y362500D03*
D16*
G01*
X150000Y462500D03*
D17*
G01*
X1225000Y1325000D03*
G01*
X1425000Y1325000D03*
G01*
X1225000Y1475000D03*
G01*
X1425000Y1475000D03*
D18*
G01*
X675000Y1000000D03*
G01*
X275000Y1000000D03*
D19*
G01*
X900000Y187500D03*
D18*
G01*
X675000Y1150000D03*
G01*
X275000Y1150000D03*
D20*
G01*
X1650000Y1600000D03*
G01*
X1650000Y1500000D03*
G01*
X1650000Y1400000D03*
G01*
X1650000Y1300000D03*
G01*
X1650000Y1200000D03*
G01*
X1650000Y1100000D03*
G01*
X1650000Y1000000D03*
G01*
X1650000Y900000D03*
G01*
X1650000Y800000D03*
G01*
X1650000Y700000D03*
G01*
X1650000Y600000D03*
G01*
X1650000Y500000D03*
G01*
X1650000Y400000D03*
G01*
X1650000Y300000D03*
G01*
X1650000Y200000D03*
G01*
X2250000Y200000D03*
G01*
X2250000Y300000D03*
G01*
X2250000Y400000D03*
G01*
X2250000Y500000D03*
G01*
X2250000Y600000D03*
G01*
X2250000Y700000D03*
G01*
X2250000Y800000D03*
G01*
X2250000Y900000D03*
G01*
X2250000Y1000000D03*
G01*
X2250000Y1100000D03*
G01*
X2250000Y1200000D03*
G01*
X2250000Y1300000D03*
G01*
X2250000Y1400000D03*
G01*
X2250000Y1500000D03*
G01*
X2250000Y1600000D03*
D15*
G01*
X200000Y1300000D03*
G01*
X100000Y1300000D03*
G01*
X200000Y1400000D03*
G01*
X100000Y1400000D03*
G01*
X200000Y1500000D03*
D16*
G01*
X100000Y1500000D03*
D21*
G01*
X200000Y1675000D03*
G36*
X70500Y1704499D02*
G01*
X129499Y1704499D01*
X129499Y1645500D01*
X70500Y1645500D01*
G37*
D23*
G01*
X2800000Y500000D03*
G01*
X2800000Y400000D03*
G01*
X3525000Y500000D03*
G01*
X3525000Y400000D03*
D24*
G01*
X850000Y1150000D03*
D19*
G01*
X900000Y362500D03*
G01*
X900000Y537500D03*
G01*
X900000Y712500D03*
G01*
X900000Y887500D03*
D25*
G01*
X150000Y662500D03*
D26*
G01*
X150000Y562500D03*
D25*
G01*
X150000Y862500D03*
D26*
G01*
X150000Y762500D03*
D25*
G01*
X150000Y1062500D03*
D26*
G01*
X150000Y962500D03*
D18*
G01*
X1525000Y1650000D03*
G01*
X1125000Y1650000D03*
D27*
G01*
X632480Y1475000D03*
G01*
X317519Y1475000D03*
G01*
X317519Y1625000D03*
G01*
X632480Y1625000D03*
D18*
G01*
X275000Y250000D03*
G01*
X675000Y250000D03*
G01*
X275000Y400000D03*
G01*
X675000Y400000D03*
G01*
X275000Y550000D03*
G01*
X675000Y550000D03*
G01*
X275000Y700000D03*
G01*
X675000Y700000D03*
G01*
X275000Y850000D03*
G01*
X675000Y850000D03*
G01*
X1425000Y255000D03*
G01*
X1025000Y255000D03*
G01*
X1425000Y405000D03*
G01*
X1025000Y405000D03*
G01*
X1425000Y555000D03*
G01*
X1025000Y555000D03*
G01*
X1425000Y705000D03*
G01*
X1025000Y705000D03*
G01*
X1425000Y855000D03*
G01*
X1025000Y855000D03*
D28*
G01*
X725000Y1625000D03*
D29*
G01*
X725000Y1525000D03*
G01*
X725000Y1425000D03*
G01*
X725000Y1325000D03*
G01*
X1025000Y1625000D03*
G01*
X1025000Y1525000D03*
G01*
X1025000Y1425000D03*
G01*
X1025000Y1325000D03*
D23*
G01*
X3400000Y1250000D03*
G01*
X3300000Y1250000D03*
G01*
X3300000Y1650000D03*
G01*
X3400000Y1650000D03*
G01*
X2800000Y1500000D03*
G01*
X2800000Y1400000D03*
G01*
X3100000Y1650000D03*
G01*
X3000000Y1650000D03*
G01*
X3600000Y1500000D03*
G01*
X3600000Y1400000D03*
G01*
X3100000Y1250000D03*
G01*
X3000000Y1250000D03*
D15*
G01*
X3200000Y1325000D03*
G01*
X3200000Y1425000D03*
G36*
X3168999Y1555999D02*
G01*
X3168999Y1494000D01*
X3231000Y1494000D01*
X3231000Y1555999D01*
G37*
G36*
X3693999Y533463D02*
G01*
X3693999Y466534D01*
X3756000Y466534D01*
X3756000Y533463D01*
G37*
D26*
G01*
X3725000Y400000D03*
G36*
X2968999Y533463D02*
G01*
X2968999Y466534D01*
X3031000Y466534D01*
X3031000Y533463D01*
G37*
G01*
X3000000Y400000D03*
D27*
X1274997Y1065943D02*
G01*
X1274997Y1034447D01*
X1375006Y1065553D02*
G01*
X1375006Y1034056D01*
D30*
X800000Y173719D02*
G01*
X800000Y201278D01*
X850000Y173719D02*
G01*
X850000Y201278D01*
X863779Y1100000D02*
G01*
X836220Y1100000D01*
X863779Y1050000D02*
G01*
X836220Y1050000D01*
X850000Y348719D02*
G01*
X850000Y376278D01*
X800000Y348719D02*
G01*
X800000Y376278D01*
X850000Y523719D02*
G01*
X850000Y551278D01*
X800000Y523719D02*
G01*
X800000Y551278D01*
X850000Y698719D02*
G01*
X850000Y726278D01*
X800000Y698719D02*
G01*
X800000Y726278D01*
X850000Y873719D02*
G01*
X850000Y901278D01*
X800000Y873719D02*
G01*
X800000Y901278D01*
M02*
