G04 Layer: TopSilkLayer*
G04 EasyEDA v6.4.25, 2021-12-06T09:29:09+01:00*
G04 709bd2a449c44a659231e49a93e94fa4,7d3f4a13764643a7838717c5c1d40531,10*
G04 Gerber Generator version 0.2*
G04 Scale: 100 percent, Rotated: No, Reflected: No *
G04 Dimensions in inches *
G04 leading zeros omitted , absolute positions ,3 integer and 6 decimal *
%FSLAX36Y36*%
%MOIN*%

%ADD10C,0.0100*%
%ADD13C,0.0250*%
%ADD31C,0.0080*%
%ADD32C,0.0080*%
%ADD33C,0.0070*%
%ADD34C,0.0079*%
%ADD35C,0.0079*%
%ADD36C,0.0157*%
%ADD37C,0.0098*%
%ADD38C,0.0236*%
%ADD39C,0.0060*%

%LPD*%
D31*
X250000Y1885500D02*
G01*
X250000Y1828299D01*
X250000Y1885500D02*
G01*
X269099Y1885500D01*
X277300Y1882800D01*
X282699Y1877399D01*
X285500Y1871900D01*
X288200Y1863699D01*
X288200Y1850100D01*
X285500Y1841900D01*
X282699Y1836500D01*
X277300Y1830999D01*
X269099Y1828299D01*
X250000Y1828299D01*
X306199Y1885500D02*
G01*
X308899Y1882800D01*
X311599Y1885500D01*
X308899Y1888299D01*
X306199Y1885500D01*
X308899Y1866500D02*
G01*
X308899Y1828299D01*
X362399Y1866500D02*
G01*
X362399Y1828299D01*
X362399Y1858299D02*
G01*
X356900Y1863699D01*
X351500Y1866500D01*
X343299Y1866500D01*
X337800Y1863699D01*
X332399Y1858299D01*
X329600Y1850100D01*
X329600Y1844600D01*
X332399Y1836500D01*
X337800Y1830999D01*
X343299Y1828299D01*
X351500Y1828299D01*
X356900Y1830999D01*
X362399Y1836500D01*
X380399Y1885500D02*
G01*
X380399Y1828299D01*
X380399Y1858299D02*
G01*
X385799Y1863699D01*
X391300Y1866500D01*
X399499Y1866500D01*
X404899Y1863699D01*
X410399Y1858299D01*
X413099Y1850100D01*
X413099Y1844600D01*
X410399Y1836500D01*
X404899Y1830999D01*
X399499Y1828299D01*
X391300Y1828299D01*
X385799Y1830999D01*
X380399Y1836500D01*
X431100Y1885500D02*
G01*
X431100Y1828299D01*
X462699Y1866500D02*
G01*
X457300Y1863699D01*
X451799Y1858299D01*
X449099Y1850100D01*
X449099Y1844600D01*
X451799Y1836500D01*
X457300Y1830999D01*
X462699Y1828299D01*
X470900Y1828299D01*
X476399Y1830999D01*
X481799Y1836500D01*
X484499Y1844600D01*
X484499Y1850100D01*
X481799Y1858299D01*
X476399Y1863699D01*
X470900Y1866500D01*
X462699Y1866500D01*
X505300Y1871900D02*
G01*
X505300Y1874600D01*
X508000Y1880100D01*
X510700Y1882800D01*
X516199Y1885500D01*
X527100Y1885500D01*
X532500Y1882800D01*
X535300Y1880100D01*
X538000Y1874600D01*
X538000Y1869200D01*
X535300Y1863699D01*
X529800Y1855500D01*
X502500Y1828299D01*
X540700Y1828299D01*
X600700Y1885500D02*
G01*
X600700Y1828299D01*
X638899Y1885500D02*
G01*
X638899Y1828299D01*
X600700Y1858299D02*
G01*
X638899Y1858299D01*
X656900Y1850100D02*
G01*
X689600Y1850100D01*
X689600Y1855500D01*
X686900Y1860999D01*
X684200Y1863699D01*
X678699Y1866500D01*
X670500Y1866500D01*
X665100Y1863699D01*
X659600Y1858299D01*
X656900Y1850100D01*
X656900Y1844600D01*
X659600Y1836500D01*
X665100Y1830999D01*
X670500Y1828299D01*
X678699Y1828299D01*
X684200Y1830999D01*
X689600Y1836500D01*
X740399Y1866500D02*
G01*
X740399Y1828299D01*
X740399Y1858299D02*
G01*
X734899Y1863699D01*
X729499Y1866500D01*
X721300Y1866500D01*
X715799Y1863699D01*
X710399Y1858299D01*
X707600Y1850100D01*
X707600Y1844600D01*
X710399Y1836500D01*
X715799Y1830999D01*
X721300Y1828299D01*
X729499Y1828299D01*
X734899Y1830999D01*
X740399Y1836500D01*
X791099Y1885500D02*
G01*
X791099Y1828299D01*
X791099Y1858299D02*
G01*
X785600Y1863699D01*
X780200Y1866500D01*
X771999Y1866500D01*
X766499Y1863699D01*
X761099Y1858299D01*
X758400Y1850100D01*
X758400Y1844600D01*
X761099Y1836500D01*
X766499Y1830999D01*
X771999Y1828299D01*
X780200Y1828299D01*
X785600Y1830999D01*
X791099Y1836500D01*
X851099Y1885500D02*
G01*
X851099Y1828299D01*
X851099Y1885500D02*
G01*
X875600Y1885500D01*
X883800Y1882800D01*
X886499Y1880100D01*
X889300Y1874600D01*
X889300Y1869200D01*
X886499Y1863699D01*
X883800Y1860999D01*
X875600Y1858299D01*
X851099Y1858299D02*
G01*
X875600Y1858299D01*
X883800Y1855500D01*
X886499Y1852800D01*
X889300Y1847399D01*
X889300Y1839200D01*
X886499Y1833699D01*
X883800Y1830999D01*
X875600Y1828299D01*
X851099Y1828299D01*
X920900Y1866500D02*
G01*
X915500Y1863699D01*
X910000Y1858299D01*
X907299Y1850100D01*
X907299Y1844600D01*
X910000Y1836500D01*
X915500Y1830999D01*
X920900Y1828299D01*
X929099Y1828299D01*
X934499Y1830999D01*
X940000Y1836500D01*
X942700Y1844600D01*
X942700Y1850100D01*
X940000Y1858299D01*
X934499Y1863699D01*
X929099Y1866500D01*
X920900Y1866500D01*
X993500Y1866500D02*
G01*
X993500Y1828299D01*
X993500Y1858299D02*
G01*
X988000Y1863699D01*
X982500Y1866500D01*
X974399Y1866500D01*
X968900Y1863699D01*
X963500Y1858299D01*
X960699Y1850100D01*
X960699Y1844600D01*
X963500Y1836500D01*
X968900Y1830999D01*
X974399Y1828299D01*
X982500Y1828299D01*
X988000Y1830999D01*
X993500Y1836500D01*
X1011499Y1866500D02*
G01*
X1011499Y1828299D01*
X1011499Y1850100D02*
G01*
X1014200Y1858299D01*
X1019600Y1863699D01*
X1025100Y1866500D01*
X1033299Y1866500D01*
X1083999Y1885500D02*
G01*
X1083999Y1828299D01*
X1083999Y1858299D02*
G01*
X1078500Y1863699D01*
X1073100Y1866500D01*
X1064899Y1866500D01*
X1059499Y1863699D01*
X1053999Y1858299D01*
X1051300Y1850100D01*
X1051300Y1844600D01*
X1053999Y1836500D01*
X1059499Y1830999D01*
X1064899Y1828299D01*
X1073100Y1828299D01*
X1078500Y1830999D01*
X1083999Y1836500D01*
X1143999Y1852800D02*
G01*
X1193100Y1852800D01*
X1253100Y1885500D02*
G01*
X1253100Y1828299D01*
X1253100Y1885500D02*
G01*
X1274899Y1828299D01*
X1296700Y1885500D02*
G01*
X1274899Y1828299D01*
X1296700Y1885500D02*
G01*
X1296700Y1828299D01*
X1314700Y1885500D02*
G01*
X1314700Y1828299D01*
X1341999Y1866500D02*
G01*
X1314700Y1839200D01*
X1325600Y1850100D02*
G01*
X1344700Y1828299D01*
X1365500Y1871900D02*
G01*
X1365500Y1874600D01*
X1368199Y1880100D01*
X1370900Y1882800D01*
X1376400Y1885500D01*
X1387299Y1885500D01*
X1392700Y1882800D01*
X1395500Y1880100D01*
X1398199Y1874600D01*
X1398199Y1869200D01*
X1395500Y1863699D01*
X1390000Y1855500D01*
X1362700Y1828299D01*
X1400900Y1828299D01*
X1460900Y1852800D02*
G01*
X1510000Y1852800D01*
X1570000Y1885500D02*
G01*
X1570000Y1828299D01*
X1570000Y1885500D02*
G01*
X1594499Y1885500D01*
X1602700Y1882800D01*
X1605500Y1880100D01*
X1608199Y1874600D01*
X1608199Y1866500D01*
X1605500Y1860999D01*
X1602700Y1858299D01*
X1594499Y1855500D01*
X1570000Y1855500D01*
X1626199Y1885500D02*
G01*
X1626199Y1828299D01*
X1626199Y1885500D02*
G01*
X1650699Y1885500D01*
X1658900Y1882800D01*
X1661599Y1880100D01*
X1664399Y1874600D01*
X1664399Y1869200D01*
X1661599Y1863699D01*
X1658900Y1860999D01*
X1650699Y1858299D01*
X1626199Y1858299D01*
X1645299Y1858299D02*
G01*
X1664399Y1828299D01*
X1698699Y1885500D02*
G01*
X1693299Y1882800D01*
X1687799Y1877399D01*
X1685100Y1871900D01*
X1682399Y1863699D01*
X1682399Y1850100D01*
X1685100Y1841900D01*
X1687799Y1836500D01*
X1693299Y1830999D01*
X1698699Y1828299D01*
X1709600Y1828299D01*
X1715100Y1830999D01*
X1720500Y1836500D01*
X1723299Y1841900D01*
X1726000Y1850100D01*
X1726000Y1863699D01*
X1723299Y1871900D01*
X1720500Y1877399D01*
X1715100Y1882800D01*
X1709600Y1885500D01*
X1698699Y1885500D01*
X1763100Y1885500D02*
G01*
X1763100Y1828299D01*
X1743999Y1885500D02*
G01*
X1782200Y1885500D01*
X1816499Y1885500D02*
G01*
X1811099Y1882800D01*
X1805600Y1877399D01*
X1802899Y1871900D01*
X1800200Y1863699D01*
X1800200Y1850100D01*
X1802899Y1841900D01*
X1805600Y1836500D01*
X1811099Y1830999D01*
X1816499Y1828299D01*
X1827500Y1828299D01*
X1832899Y1830999D01*
X1838400Y1836500D01*
X1841099Y1841900D01*
X1843800Y1850100D01*
X1843800Y1863699D01*
X1841099Y1871900D01*
X1838400Y1877399D01*
X1832899Y1882800D01*
X1827500Y1885500D01*
X1816499Y1885500D01*
D39*
X1735000Y1606799D02*
G01*
X1735000Y1576700D01*
X1725000Y1606799D02*
G01*
X1745000Y1606799D01*
X1754499Y1606799D02*
G01*
X1774499Y1576700D01*
X1774499Y1606799D02*
G01*
X1754499Y1576700D01*
X1783999Y1606799D02*
G01*
X1783999Y1576700D01*
X1725000Y1506799D02*
G01*
X1725000Y1476700D01*
X1725000Y1506799D02*
G01*
X1737899Y1506799D01*
X1742200Y1505399D01*
X1743599Y1503899D01*
X1745000Y1501100D01*
X1745000Y1498200D01*
X1743599Y1495300D01*
X1742200Y1493899D01*
X1737899Y1492500D01*
X1725000Y1492500D01*
X1735000Y1492500D02*
G01*
X1745000Y1476700D01*
X1754499Y1506799D02*
G01*
X1774499Y1476700D01*
X1774499Y1506799D02*
G01*
X1754499Y1476700D01*
X1792600Y1506799D02*
G01*
X1789700Y1505399D01*
X1786800Y1502500D01*
X1785399Y1499600D01*
X1783999Y1495300D01*
X1783999Y1488200D01*
X1785399Y1483899D01*
X1786800Y1480999D01*
X1789700Y1478099D01*
X1792600Y1476700D01*
X1798299Y1476700D01*
X1801199Y1478099D01*
X1803999Y1480999D01*
X1805500Y1483899D01*
X1806899Y1488200D01*
X1806899Y1495300D01*
X1805500Y1499600D01*
X1803999Y1502500D01*
X1801199Y1505399D01*
X1798299Y1506799D01*
X1792600Y1506799D01*
X1735000Y1406799D02*
G01*
X1735000Y1376700D01*
X1725000Y1406799D02*
G01*
X1745000Y1406799D01*
X1754499Y1406799D02*
G01*
X1774499Y1376700D01*
X1774499Y1406799D02*
G01*
X1754499Y1376700D01*
X1792600Y1406799D02*
G01*
X1789700Y1405399D01*
X1786800Y1402500D01*
X1785399Y1399600D01*
X1783999Y1395300D01*
X1783999Y1388200D01*
X1785399Y1383899D01*
X1786800Y1380999D01*
X1789700Y1378099D01*
X1792600Y1376700D01*
X1798299Y1376700D01*
X1801199Y1378099D01*
X1803999Y1380999D01*
X1805500Y1383899D01*
X1806899Y1388200D01*
X1806899Y1395300D01*
X1805500Y1399600D01*
X1803999Y1402500D01*
X1801199Y1405399D01*
X1798299Y1406799D01*
X1792600Y1406799D01*
X1746499Y1299600D02*
G01*
X1745000Y1302500D01*
X1742200Y1305399D01*
X1739300Y1306799D01*
X1733599Y1306799D01*
X1730699Y1305399D01*
X1727899Y1302500D01*
X1726400Y1299600D01*
X1725000Y1295300D01*
X1725000Y1288200D01*
X1726400Y1283899D01*
X1727899Y1280999D01*
X1730699Y1278099D01*
X1733599Y1276700D01*
X1739300Y1276700D01*
X1742200Y1278099D01*
X1745000Y1280999D01*
X1746499Y1283899D01*
X1746499Y1288200D01*
X1739300Y1288200D02*
G01*
X1746499Y1288200D01*
X1755900Y1306799D02*
G01*
X1755900Y1276700D01*
X1755900Y1306799D02*
G01*
X1776000Y1276700D01*
X1776000Y1306799D02*
G01*
X1776000Y1276700D01*
X1785399Y1306799D02*
G01*
X1785399Y1276700D01*
X1785399Y1306799D02*
G01*
X1795399Y1306799D01*
X1799700Y1305399D01*
X1802600Y1302500D01*
X1803999Y1299600D01*
X1805500Y1295300D01*
X1805500Y1288200D01*
X1803999Y1283899D01*
X1802600Y1280999D01*
X1799700Y1278099D01*
X1795399Y1276700D01*
X1785399Y1276700D01*
X2108999Y1499600D02*
G01*
X2107500Y1502500D01*
X2104700Y1505399D01*
X2101800Y1506799D01*
X2096099Y1506799D01*
X2093199Y1505399D01*
X2090399Y1502500D01*
X2088900Y1499600D01*
X2087500Y1495300D01*
X2087500Y1488200D01*
X2088900Y1483899D01*
X2090399Y1480999D01*
X2093199Y1478099D01*
X2096099Y1476700D01*
X2101800Y1476700D01*
X2104700Y1478099D01*
X2107500Y1480999D01*
X2108999Y1483899D01*
X2108999Y1488200D01*
X2101800Y1488200D02*
G01*
X2108999Y1488200D01*
X2118400Y1506799D02*
G01*
X2118400Y1476700D01*
X2118400Y1506799D02*
G01*
X2138500Y1476700D01*
X2138500Y1506799D02*
G01*
X2138500Y1476700D01*
X2147899Y1506799D02*
G01*
X2147899Y1476700D01*
X2147899Y1506799D02*
G01*
X2157899Y1506799D01*
X2162200Y1505399D01*
X2165100Y1502500D01*
X2166499Y1499600D01*
X2168000Y1495300D01*
X2168000Y1488200D01*
X2166499Y1483899D01*
X2165100Y1480999D01*
X2162200Y1478099D01*
X2157899Y1476700D01*
X2147899Y1476700D01*
X2100000Y1606799D02*
G01*
X2111499Y1576700D01*
X2122899Y1606799D02*
G01*
X2111499Y1576700D01*
X2132399Y1606799D02*
G01*
X2132399Y1576700D01*
X2141800Y1606799D02*
G01*
X2141800Y1576700D01*
X2141800Y1606799D02*
G01*
X2161800Y1576700D01*
X2161800Y1606799D02*
G01*
X2161800Y1576700D01*
X2087500Y1406799D02*
G01*
X2087500Y1376700D01*
X2087500Y1406799D02*
G01*
X2100399Y1406799D01*
X2104700Y1405399D01*
X2106099Y1403899D01*
X2107500Y1401100D01*
X2107500Y1398200D01*
X2106099Y1395300D01*
X2104700Y1393899D01*
X2100399Y1392500D01*
X2087500Y1392500D01*
X2097500Y1392500D02*
G01*
X2107500Y1376700D01*
X2136999Y1402500D02*
G01*
X2134200Y1405399D01*
X2129899Y1406799D01*
X2124099Y1406799D01*
X2119899Y1405399D01*
X2116999Y1402500D01*
X2116999Y1399600D01*
X2118400Y1396799D01*
X2119899Y1395300D01*
X2122700Y1393899D01*
X2131300Y1390999D01*
X2134200Y1389600D01*
X2135600Y1388200D01*
X2136999Y1385300D01*
X2136999Y1380999D01*
X2134200Y1378099D01*
X2129899Y1376700D01*
X2124099Y1376700D01*
X2119899Y1378099D01*
X2116999Y1380999D01*
X2156499Y1406799D02*
G01*
X2156499Y1376700D01*
X2146499Y1406799D02*
G01*
X2166499Y1406799D01*
X2129700Y1306799D02*
G01*
X2115399Y1306799D01*
X2113900Y1293899D01*
X2115399Y1295300D01*
X2119700Y1296799D01*
X2123999Y1296799D01*
X2128199Y1295300D01*
X2131099Y1292500D01*
X2132500Y1288200D01*
X2132500Y1285300D01*
X2131099Y1280999D01*
X2128199Y1278099D01*
X2123999Y1276700D01*
X2119700Y1276700D01*
X2115399Y1278099D01*
X2113900Y1279600D01*
X2112500Y1282399D01*
X2141999Y1306799D02*
G01*
X2153400Y1276700D01*
X2164899Y1306799D02*
G01*
X2153400Y1276700D01*
X2077899Y306799D02*
G01*
X2093599Y306799D01*
X2085000Y295300D01*
X2089300Y295300D01*
X2092200Y293899D01*
X2093599Y292500D01*
X2095000Y288200D01*
X2095000Y285300D01*
X2093599Y280999D01*
X2090699Y278099D01*
X2086499Y276700D01*
X2082200Y276700D01*
X2077899Y278099D01*
X2076400Y279600D01*
X2075000Y282399D01*
X2105900Y283899D02*
G01*
X2104499Y282399D01*
X2105900Y280999D01*
X2107399Y282399D01*
X2105900Y283899D01*
X2119700Y306799D02*
G01*
X2135399Y306799D01*
X2126800Y295300D01*
X2131099Y295300D01*
X2133999Y293899D01*
X2135399Y292500D01*
X2136800Y288200D01*
X2136800Y285300D01*
X2135399Y280999D01*
X2132600Y278099D01*
X2128299Y276700D01*
X2123999Y276700D01*
X2119700Y278099D01*
X2118199Y279600D01*
X2116800Y282399D01*
X2146300Y306799D02*
G01*
X2157700Y276700D01*
X2169200Y306799D02*
G01*
X2157700Y276700D01*
X2100000Y406799D02*
G01*
X2100000Y376700D01*
X2100000Y406799D02*
G01*
X2112899Y406799D01*
X2117200Y405399D01*
X2118599Y403899D01*
X2120000Y401100D01*
X2120000Y398200D01*
X2118599Y395300D01*
X2117200Y393899D01*
X2112899Y392500D01*
X2100000Y392500D01*
X2110000Y392500D02*
G01*
X2120000Y376700D01*
X2129499Y406799D02*
G01*
X2129499Y376700D01*
X2129499Y406799D02*
G01*
X2148100Y406799D01*
X2129499Y392500D02*
G01*
X2140900Y392500D01*
X2129499Y376700D02*
G01*
X2148100Y376700D01*
X2157600Y406799D02*
G01*
X2157600Y376700D01*
X2157600Y406799D02*
G01*
X2176199Y406799D01*
X2157600Y392500D02*
G01*
X2168999Y392500D01*
X1725000Y1206799D02*
G01*
X1725000Y1176700D01*
X1725000Y1206799D02*
G01*
X1735000Y1206799D01*
X1739300Y1205399D01*
X1742200Y1202500D01*
X1743599Y1199600D01*
X1745000Y1195300D01*
X1745000Y1188200D01*
X1743599Y1183899D01*
X1742200Y1180999D01*
X1739300Y1178099D01*
X1735000Y1176700D01*
X1725000Y1176700D01*
X1755900Y1199600D02*
G01*
X1755900Y1201100D01*
X1757399Y1203899D01*
X1758800Y1205399D01*
X1761599Y1206799D01*
X1767399Y1206799D01*
X1770200Y1205399D01*
X1771700Y1203899D01*
X1773100Y1201100D01*
X1773100Y1198200D01*
X1771700Y1195300D01*
X1768800Y1190999D01*
X1754499Y1176700D01*
X1774499Y1176700D01*
X1725000Y1106799D02*
G01*
X1725000Y1076700D01*
X1725000Y1106799D02*
G01*
X1735000Y1106799D01*
X1739300Y1105399D01*
X1742200Y1102500D01*
X1743599Y1099600D01*
X1745000Y1095300D01*
X1745000Y1088200D01*
X1743599Y1083899D01*
X1742200Y1080999D01*
X1739300Y1078099D01*
X1735000Y1076700D01*
X1725000Y1076700D01*
X1757399Y1106799D02*
G01*
X1773100Y1106799D01*
X1764499Y1095300D01*
X1768800Y1095300D01*
X1771700Y1093899D01*
X1773100Y1092500D01*
X1774499Y1088200D01*
X1774499Y1085300D01*
X1773100Y1080999D01*
X1770200Y1078099D01*
X1765900Y1076700D01*
X1761599Y1076700D01*
X1757399Y1078099D01*
X1755900Y1079600D01*
X1754499Y1082399D01*
X1783999Y1085300D02*
G01*
X1783999Y1088200D01*
X1785399Y1092500D01*
X1788299Y1093899D01*
X1791099Y1093899D01*
X1793999Y1092500D01*
X1799700Y1088200D01*
X1802600Y1086700D01*
X1805500Y1086700D01*
X1808299Y1088200D01*
X1809799Y1090999D01*
X1783999Y1088200D02*
G01*
X1785399Y1090999D01*
X1788299Y1092500D01*
X1791099Y1092500D01*
X1793999Y1090999D01*
X1799700Y1086700D01*
X1802600Y1085300D01*
X1805500Y1085300D01*
X1808299Y1086700D01*
X1809799Y1090999D01*
X1809799Y1093899D01*
X1725000Y1006799D02*
G01*
X1725000Y976700D01*
X1725000Y1006799D02*
G01*
X1735000Y1006799D01*
X1739300Y1005399D01*
X1742200Y1002500D01*
X1743599Y999600D01*
X1745000Y995300D01*
X1745000Y988200D01*
X1743599Y983899D01*
X1742200Y980999D01*
X1739300Y978099D01*
X1735000Y976700D01*
X1725000Y976700D01*
X1768800Y1006799D02*
G01*
X1754499Y986700D01*
X1776000Y986700D01*
X1768800Y1006799D02*
G01*
X1768800Y976700D01*
X1725000Y906799D02*
G01*
X1725000Y876700D01*
X1725000Y906799D02*
G01*
X1735000Y906799D01*
X1739300Y905399D01*
X1742200Y902500D01*
X1743599Y899600D01*
X1745000Y895300D01*
X1745000Y888200D01*
X1743599Y883899D01*
X1742200Y880999D01*
X1739300Y878099D01*
X1735000Y876700D01*
X1725000Y876700D01*
X1771700Y906799D02*
G01*
X1757399Y906799D01*
X1755900Y893899D01*
X1757399Y895300D01*
X1761599Y896799D01*
X1765900Y896799D01*
X1770200Y895300D01*
X1773100Y892500D01*
X1774499Y888200D01*
X1774499Y885300D01*
X1773100Y880999D01*
X1770200Y878099D01*
X1765900Y876700D01*
X1761599Y876700D01*
X1757399Y878099D01*
X1755900Y879600D01*
X1754499Y882399D01*
X1783999Y885300D02*
G01*
X1783999Y888200D01*
X1785399Y892500D01*
X1788299Y893899D01*
X1791099Y893899D01*
X1793999Y892500D01*
X1799700Y888200D01*
X1802600Y886700D01*
X1805500Y886700D01*
X1808299Y888200D01*
X1809799Y890999D01*
X1783999Y888200D02*
G01*
X1785399Y890999D01*
X1788299Y892500D01*
X1791099Y892500D01*
X1793999Y890999D01*
X1799700Y886700D01*
X1802600Y885300D01*
X1805500Y885300D01*
X1808299Y886700D01*
X1809799Y890999D01*
X1809799Y893899D01*
X1725000Y806799D02*
G01*
X1725000Y776700D01*
X1725000Y806799D02*
G01*
X1735000Y806799D01*
X1739300Y805399D01*
X1742200Y802500D01*
X1743599Y799600D01*
X1745000Y795300D01*
X1745000Y788200D01*
X1743599Y783899D01*
X1742200Y780999D01*
X1739300Y778099D01*
X1735000Y776700D01*
X1725000Y776700D01*
X1771700Y802500D02*
G01*
X1770200Y805399D01*
X1765900Y806799D01*
X1763100Y806799D01*
X1758800Y805399D01*
X1755900Y801100D01*
X1754499Y793899D01*
X1754499Y786700D01*
X1755900Y780999D01*
X1758800Y778099D01*
X1763100Y776700D01*
X1764499Y776700D01*
X1768800Y778099D01*
X1771700Y780999D01*
X1773100Y785300D01*
X1773100Y786700D01*
X1771700Y790999D01*
X1768800Y793899D01*
X1764499Y795300D01*
X1763100Y795300D01*
X1758800Y793899D01*
X1755900Y790999D01*
X1754499Y786700D01*
X1782600Y785300D02*
G01*
X1782600Y788200D01*
X1783999Y792500D01*
X1786800Y793899D01*
X1789700Y793899D01*
X1792600Y792500D01*
X1798299Y788200D01*
X1801199Y786700D01*
X1803999Y786700D01*
X1806899Y788200D01*
X1808299Y790999D01*
X1782600Y788200D02*
G01*
X1783999Y790999D01*
X1786800Y792500D01*
X1789700Y792500D01*
X1792600Y790999D01*
X1798299Y786700D01*
X1801199Y785300D01*
X1803999Y785300D01*
X1806899Y786700D01*
X1808299Y790999D01*
X1808299Y793899D01*
X1725000Y706799D02*
G01*
X1725000Y676700D01*
X1725000Y706799D02*
G01*
X1735000Y706799D01*
X1739300Y705399D01*
X1742200Y702500D01*
X1743599Y699600D01*
X1745000Y695300D01*
X1745000Y688200D01*
X1743599Y683899D01*
X1742200Y680999D01*
X1739300Y678099D01*
X1735000Y676700D01*
X1725000Y676700D01*
X1774499Y706799D02*
G01*
X1760200Y676700D01*
X1754499Y706799D02*
G01*
X1774499Y706799D01*
X1725000Y606799D02*
G01*
X1725000Y576700D01*
X1725000Y606799D02*
G01*
X1735000Y606799D01*
X1739300Y605399D01*
X1742200Y602500D01*
X1743599Y599600D01*
X1745000Y595300D01*
X1745000Y588200D01*
X1743599Y583899D01*
X1742200Y580999D01*
X1739300Y578099D01*
X1735000Y576700D01*
X1725000Y576700D01*
X1761599Y606799D02*
G01*
X1757399Y605399D01*
X1755900Y602500D01*
X1755900Y599600D01*
X1757399Y596799D01*
X1760200Y595300D01*
X1765900Y593899D01*
X1770200Y592500D01*
X1773100Y589600D01*
X1774499Y586700D01*
X1774499Y582399D01*
X1773100Y579600D01*
X1771700Y578099D01*
X1767399Y576700D01*
X1761599Y576700D01*
X1757399Y578099D01*
X1755900Y579600D01*
X1754499Y582399D01*
X1754499Y586700D01*
X1755900Y589600D01*
X1758800Y592500D01*
X1763100Y593899D01*
X1768800Y595300D01*
X1771700Y596799D01*
X1773100Y599600D01*
X1773100Y602500D01*
X1771700Y605399D01*
X1767399Y606799D01*
X1761599Y606799D01*
X1725000Y506799D02*
G01*
X1725000Y476700D01*
X1725000Y506799D02*
G01*
X1735000Y506799D01*
X1739300Y505399D01*
X1742200Y502500D01*
X1743599Y499600D01*
X1745000Y495300D01*
X1745000Y488200D01*
X1743599Y483899D01*
X1742200Y480999D01*
X1739300Y478099D01*
X1735000Y476700D01*
X1725000Y476700D01*
X1773100Y496799D02*
G01*
X1771700Y492500D01*
X1768800Y489600D01*
X1764499Y488200D01*
X1763100Y488200D01*
X1758800Y489600D01*
X1755900Y492500D01*
X1754499Y496799D01*
X1754499Y498200D01*
X1755900Y502500D01*
X1758800Y505399D01*
X1763100Y506799D01*
X1764499Y506799D01*
X1768800Y505399D01*
X1771700Y502500D01*
X1773100Y496799D01*
X1773100Y489600D01*
X1771700Y482399D01*
X1768800Y478099D01*
X1764499Y476700D01*
X1761599Y476700D01*
X1757399Y478099D01*
X1755900Y480999D01*
X1782600Y485300D02*
G01*
X1782600Y488200D01*
X1783999Y492500D01*
X1786800Y493899D01*
X1789700Y493899D01*
X1792600Y492500D01*
X1798299Y488200D01*
X1801199Y486700D01*
X1803999Y486700D01*
X1806899Y488200D01*
X1808299Y490999D01*
X1782600Y488200D02*
G01*
X1783999Y490999D01*
X1786800Y492500D01*
X1789700Y492500D01*
X1792600Y490999D01*
X1798299Y486700D01*
X1801199Y485300D01*
X1803999Y485300D01*
X1806899Y486700D01*
X1808299Y490999D01*
X1808299Y493899D01*
X1725000Y406799D02*
G01*
X1725000Y376700D01*
X1725000Y406799D02*
G01*
X1735000Y406799D01*
X1739300Y405399D01*
X1742200Y402500D01*
X1743599Y399600D01*
X1745000Y395300D01*
X1745000Y388200D01*
X1743599Y383899D01*
X1742200Y380999D01*
X1739300Y378099D01*
X1735000Y376700D01*
X1725000Y376700D01*
X1754499Y401100D02*
G01*
X1757399Y402500D01*
X1761599Y406799D01*
X1761599Y376700D01*
X1779700Y406799D02*
G01*
X1775399Y405399D01*
X1772500Y401100D01*
X1771099Y393899D01*
X1771099Y389600D01*
X1772500Y382399D01*
X1775399Y378099D01*
X1779700Y376700D01*
X1782600Y376700D01*
X1786800Y378099D01*
X1789700Y382399D01*
X1791099Y389600D01*
X1791099Y393899D01*
X1789700Y401100D01*
X1786800Y405399D01*
X1782600Y406799D01*
X1779700Y406799D01*
X1800600Y385300D02*
G01*
X1800600Y388200D01*
X1801999Y392500D01*
X1804899Y393899D01*
X1807700Y393899D01*
X1810600Y392500D01*
X1816300Y388200D01*
X1819200Y386700D01*
X1822100Y386700D01*
X1824899Y388200D01*
X1826400Y390999D01*
X1800600Y388200D02*
G01*
X1801999Y390999D01*
X1804899Y392500D01*
X1807700Y392500D01*
X1810600Y390999D01*
X1816300Y386700D01*
X1819200Y385300D01*
X1822100Y385300D01*
X1824899Y386700D01*
X1826400Y390999D01*
X1826400Y393899D01*
X1725000Y306799D02*
G01*
X1725000Y276700D01*
X1725000Y306799D02*
G01*
X1735000Y306799D01*
X1739300Y305399D01*
X1742200Y302500D01*
X1743599Y299600D01*
X1745000Y295300D01*
X1745000Y288200D01*
X1743599Y283899D01*
X1742200Y280999D01*
X1739300Y278099D01*
X1735000Y276700D01*
X1725000Y276700D01*
X1754499Y301100D02*
G01*
X1757399Y302500D01*
X1761599Y306799D01*
X1761599Y276700D01*
X1771099Y301100D02*
G01*
X1773999Y302500D01*
X1778299Y306799D01*
X1778299Y276700D01*
X1787700Y285300D02*
G01*
X1787700Y288200D01*
X1789099Y292500D01*
X1791999Y293899D01*
X1794899Y293899D01*
X1797700Y292500D01*
X1803500Y288200D01*
X1806300Y286700D01*
X1809200Y286700D01*
X1811999Y288200D01*
X1813500Y290999D01*
X1787700Y288200D02*
G01*
X1789099Y290999D01*
X1791999Y292500D01*
X1794899Y292500D01*
X1797700Y290999D01*
X1803500Y286700D01*
X1806300Y285300D01*
X1809200Y285300D01*
X1811999Y286700D01*
X1813500Y290999D01*
X1813500Y293899D01*
X1725000Y206799D02*
G01*
X1725000Y176700D01*
X1725000Y206799D02*
G01*
X1735000Y206799D01*
X1739300Y205399D01*
X1742200Y202500D01*
X1743599Y199600D01*
X1745000Y195300D01*
X1745000Y188200D01*
X1743599Y183899D01*
X1742200Y180999D01*
X1739300Y178099D01*
X1735000Y176700D01*
X1725000Y176700D01*
X1754499Y201100D02*
G01*
X1757399Y202500D01*
X1761599Y206799D01*
X1761599Y176700D01*
X1772500Y199600D02*
G01*
X1772500Y201100D01*
X1773999Y203899D01*
X1775399Y205399D01*
X1778299Y206799D01*
X1783999Y206799D01*
X1786800Y205399D01*
X1788299Y203899D01*
X1789700Y201100D01*
X1789700Y198200D01*
X1788299Y195300D01*
X1785399Y190999D01*
X1771099Y176700D01*
X1791099Y176700D01*
X2100000Y206799D02*
G01*
X2100000Y176700D01*
X2100000Y206799D02*
G01*
X2110000Y206799D01*
X2114300Y205399D01*
X2117200Y202500D01*
X2118599Y199600D01*
X2120000Y195300D01*
X2120000Y188200D01*
X2118599Y183899D01*
X2117200Y180999D01*
X2114300Y178099D01*
X2110000Y176700D01*
X2100000Y176700D01*
X2129499Y201100D02*
G01*
X2132399Y202500D01*
X2136599Y206799D01*
X2136599Y176700D01*
X2148999Y206799D02*
G01*
X2164700Y206799D01*
X2156099Y195300D01*
X2160399Y195300D01*
X2163299Y193899D01*
X2164700Y192500D01*
X2166099Y188200D01*
X2166099Y185300D01*
X2164700Y180999D01*
X2161800Y178099D01*
X2157600Y176700D01*
X2153299Y176700D01*
X2148999Y178099D01*
X2147500Y179600D01*
X2146099Y182399D01*
X2123999Y1206799D02*
G01*
X2112500Y1176700D01*
X2123999Y1206799D02*
G01*
X2135399Y1176700D01*
X2116800Y1186700D02*
G01*
X2131099Y1186700D01*
X2164899Y1206799D02*
G01*
X2150600Y1176700D01*
X2144899Y1206799D02*
G01*
X2164899Y1206799D01*
X2123999Y1106799D02*
G01*
X2112500Y1076700D01*
X2123999Y1106799D02*
G01*
X2135399Y1076700D01*
X2116800Y1086700D02*
G01*
X2131099Y1086700D01*
X2161999Y1102500D02*
G01*
X2160600Y1105399D01*
X2156300Y1106799D01*
X2153400Y1106799D01*
X2149099Y1105399D01*
X2146300Y1101100D01*
X2144899Y1093899D01*
X2144899Y1086700D01*
X2146300Y1080999D01*
X2149099Y1078099D01*
X2153400Y1076700D01*
X2154899Y1076700D01*
X2159200Y1078099D01*
X2161999Y1080999D01*
X2163500Y1085300D01*
X2163500Y1086700D01*
X2161999Y1090999D01*
X2159200Y1093899D01*
X2154899Y1095300D01*
X2153400Y1095300D01*
X2149099Y1093899D01*
X2146300Y1090999D01*
X2144899Y1086700D01*
X2123999Y1006799D02*
G01*
X2112500Y976700D01*
X2123999Y1006799D02*
G01*
X2135399Y976700D01*
X2116800Y986700D02*
G01*
X2131099Y986700D01*
X2161999Y1006799D02*
G01*
X2147700Y1006799D01*
X2146300Y993899D01*
X2147700Y995300D01*
X2151999Y996799D01*
X2156300Y996799D01*
X2160600Y995300D01*
X2163500Y992500D01*
X2164899Y988200D01*
X2164899Y985300D01*
X2163500Y980999D01*
X2160600Y978099D01*
X2156300Y976700D01*
X2151999Y976700D01*
X2147700Y978099D01*
X2146300Y979600D01*
X2144899Y982399D01*
X2123999Y906799D02*
G01*
X2112500Y876700D01*
X2123999Y906799D02*
G01*
X2135399Y876700D01*
X2116800Y886700D02*
G01*
X2131099Y886700D01*
X2159200Y906799D02*
G01*
X2144899Y886700D01*
X2166300Y886700D01*
X2159200Y906799D02*
G01*
X2159200Y876700D01*
X2123999Y806799D02*
G01*
X2112500Y776700D01*
X2123999Y806799D02*
G01*
X2135399Y776700D01*
X2116800Y786700D02*
G01*
X2131099Y786700D01*
X2147700Y806799D02*
G01*
X2163500Y806799D01*
X2154899Y795300D01*
X2159200Y795300D01*
X2161999Y793899D01*
X2163500Y792500D01*
X2164899Y788200D01*
X2164899Y785300D01*
X2163500Y780999D01*
X2160600Y778099D01*
X2156300Y776700D01*
X2151999Y776700D01*
X2147700Y778099D01*
X2146300Y779600D01*
X2144899Y782399D01*
X2123999Y706799D02*
G01*
X2112500Y676700D01*
X2123999Y706799D02*
G01*
X2135399Y676700D01*
X2116800Y686700D02*
G01*
X2131099Y686700D01*
X2146300Y699600D02*
G01*
X2146300Y701100D01*
X2147700Y703899D01*
X2149099Y705399D01*
X2151999Y706799D01*
X2157700Y706799D01*
X2160600Y705399D01*
X2161999Y703899D01*
X2163500Y701100D01*
X2163500Y698200D01*
X2161999Y695300D01*
X2159200Y690999D01*
X2144899Y676700D01*
X2164899Y676700D01*
X2123999Y606799D02*
G01*
X2112500Y576700D01*
X2123999Y606799D02*
G01*
X2135399Y576700D01*
X2116800Y586700D02*
G01*
X2131099Y586700D01*
X2144899Y601100D02*
G01*
X2147700Y602500D01*
X2151999Y606799D01*
X2151999Y576700D01*
X2123999Y506799D02*
G01*
X2112500Y476700D01*
X2123999Y506799D02*
G01*
X2135399Y476700D01*
X2116800Y486700D02*
G01*
X2131099Y486700D01*
X2153400Y506799D02*
G01*
X2149099Y505399D01*
X2146300Y501100D01*
X2144899Y493899D01*
X2144899Y489600D01*
X2146300Y482399D01*
X2149099Y478099D01*
X2153400Y476700D01*
X2156300Y476700D01*
X2160600Y478099D01*
X2163500Y482399D01*
X2164899Y489600D01*
X2164899Y493899D01*
X2163500Y501100D01*
X2160600Y505399D01*
X2156300Y506799D01*
X2153400Y506799D01*
D31*
X275000Y1325500D02*
G01*
X275000Y1277699D01*
X275000Y1325500D02*
G01*
X295500Y1325500D01*
X302300Y1323200D01*
X304499Y1320900D01*
X306799Y1316399D01*
X306799Y1309499D01*
X304499Y1305000D01*
X302300Y1302699D01*
X295500Y1300500D01*
X275000Y1300500D01*
X321799Y1325500D02*
G01*
X340000Y1277699D01*
X358200Y1325500D02*
G01*
X340000Y1277699D01*
D39*
X11300Y1674749D02*
G01*
X35900Y1674749D01*
X23600Y1662550D02*
G01*
X23600Y1687049D01*
D31*
X2927272Y910545D02*
G01*
X2927272Y866909D01*
X2924544Y858726D01*
X2921818Y855999D01*
X2916364Y853272D01*
X2910909Y853272D01*
X2905455Y855999D01*
X2902727Y858726D01*
X2900000Y866909D01*
X2900000Y872363D01*
X2945272Y910545D02*
G01*
X2945272Y853272D01*
X2945272Y853272D02*
G01*
X2978000Y853272D01*
X3036908Y896909D02*
G01*
X3034182Y902363D01*
X3028726Y907818D01*
X3023272Y910545D01*
X3012363Y910545D01*
X3006908Y907818D01*
X3001454Y902363D01*
X2998726Y896909D01*
X2996000Y888726D01*
X2996000Y875091D01*
X2998726Y866909D01*
X3001454Y861455D01*
X3006908Y855999D01*
X3012363Y853272D01*
X3023272Y853272D01*
X3028726Y855999D01*
X3034182Y861455D01*
X3036908Y866909D01*
X3082182Y910545D02*
G01*
X3082182Y866909D01*
X3079454Y858726D01*
X3076727Y855999D01*
X3071273Y853272D01*
X3065817Y853272D01*
X3060363Y855999D01*
X3057636Y858726D01*
X3054908Y866909D01*
X3054908Y872363D01*
X3100182Y910545D02*
G01*
X3100182Y853272D01*
X3100182Y853272D02*
G01*
X3132908Y853272D01*
X3191818Y896909D02*
G01*
X3189090Y902363D01*
X3183635Y907818D01*
X3178181Y910545D01*
X3167272Y910545D01*
X3161818Y907818D01*
X3156364Y902363D01*
X3153635Y896909D01*
X3150909Y888726D01*
X3150909Y875091D01*
X3153635Y866909D01*
X3156364Y861455D01*
X3161818Y855999D01*
X3167272Y853272D01*
X3178181Y853272D01*
X3183635Y855999D01*
X3189090Y861455D01*
X3191818Y866909D01*
X3237091Y910545D02*
G01*
X3237091Y866909D01*
X3234363Y858726D01*
X3231635Y855999D01*
X3226181Y853272D01*
X3220726Y853272D01*
X3215272Y855999D01*
X3212545Y858726D01*
X3209817Y866909D01*
X3209817Y872363D01*
X3255091Y910545D02*
G01*
X3255091Y853272D01*
X3255091Y853272D02*
G01*
X3287817Y853272D01*
X3346727Y896909D02*
G01*
X3343999Y902363D01*
X3338545Y907818D01*
X3333091Y910545D01*
X3322182Y910545D01*
X3316727Y907818D01*
X3311273Y902363D01*
X3308545Y896909D01*
X3305817Y888726D01*
X3305817Y875091D01*
X3308545Y866909D01*
X3311273Y861455D01*
X3316727Y855999D01*
X3322182Y853272D01*
X3333091Y853272D01*
X3338545Y855999D01*
X3343999Y861455D01*
X3346727Y866909D01*
X3391999Y910545D02*
G01*
X3391999Y866909D01*
X3389273Y858726D01*
X3386544Y855999D01*
X3381090Y853272D01*
X3375636Y853272D01*
X3370182Y855999D01*
X3367455Y858726D01*
X3364727Y866909D01*
X3364727Y872363D01*
X3410000Y910545D02*
G01*
X3410000Y853272D01*
X3410000Y853272D02*
G01*
X3442727Y853272D01*
X3501635Y896909D02*
G01*
X3498909Y902363D01*
X3493455Y907818D01*
X3488000Y910545D01*
X3477091Y910545D01*
X3471635Y907818D01*
X3466181Y902363D01*
X3463455Y896909D01*
X3460726Y888726D01*
X3460726Y875091D01*
X3463455Y866909D01*
X3466181Y861455D01*
X3471635Y855999D01*
X3477091Y853272D01*
X3488000Y853272D01*
X3493455Y855999D01*
X3498909Y861455D01*
X3501635Y866909D01*
D39*
X1282296Y1245594D02*
G01*
X1278197Y1243595D01*
X1274097Y1239495D01*
X1271997Y1235394D01*
X1269997Y1229194D01*
X1269997Y1218995D01*
X1271997Y1212894D01*
X1274097Y1208795D01*
X1278197Y1204695D01*
X1282296Y1202694D01*
X1290496Y1202694D01*
X1294497Y1204695D01*
X1298596Y1208795D01*
X1300697Y1212894D01*
X1302696Y1218995D01*
X1302696Y1229194D01*
X1300697Y1235394D01*
X1298596Y1239495D01*
X1294497Y1243595D01*
X1290496Y1245594D01*
X1282296Y1245594D01*
X1288397Y1210794D02*
G01*
X1300697Y1198595D01*
X1316197Y1237395D02*
G01*
X1320297Y1239495D01*
X1326496Y1245594D01*
X1326496Y1202694D01*
X52600Y350500D02*
G01*
X49000Y346799D01*
X47100Y341399D01*
X47100Y334099D01*
X49000Y328600D01*
X52600Y325000D01*
X56199Y325000D01*
X59899Y326799D01*
X61700Y328600D01*
X63499Y332300D01*
X67100Y343200D01*
X69000Y346799D01*
X70799Y348600D01*
X74400Y350500D01*
X79899Y350500D01*
X83499Y346799D01*
X85300Y341399D01*
X85300Y334099D01*
X83499Y328600D01*
X79899Y325000D01*
X47100Y373400D02*
G01*
X49000Y367899D01*
X54400Y364299D01*
X63499Y362500D01*
X69000Y362500D01*
X78000Y364299D01*
X83499Y367899D01*
X85300Y373400D01*
X85300Y376999D01*
X83499Y382500D01*
X78000Y386100D01*
X69000Y387899D01*
X63499Y387899D01*
X54400Y386100D01*
X49000Y382500D01*
X47100Y376999D01*
X47100Y373400D01*
X54400Y399899D02*
G01*
X52600Y403499D01*
X47100Y409000D01*
X85300Y409000D01*
X1320500Y1335999D02*
G01*
X1319099Y1338699D01*
X1316400Y1341399D01*
X1313599Y1342800D01*
X1308199Y1342800D01*
X1305500Y1341399D01*
X1302700Y1338699D01*
X1301400Y1335999D01*
X1300000Y1331900D01*
X1300000Y1325000D01*
X1301400Y1320999D01*
X1302700Y1318200D01*
X1305500Y1315500D01*
X1308199Y1314099D01*
X1313599Y1314099D01*
X1316400Y1315500D01*
X1319099Y1318200D01*
X1320500Y1320999D01*
X1329499Y1337300D02*
G01*
X1332200Y1338699D01*
X1336300Y1342800D01*
X1336300Y1314099D01*
X1320500Y1485999D02*
G01*
X1319099Y1488699D01*
X1316400Y1491399D01*
X1313599Y1492800D01*
X1308199Y1492800D01*
X1305500Y1491399D01*
X1302700Y1488699D01*
X1301400Y1485999D01*
X1300000Y1481900D01*
X1300000Y1475000D01*
X1301400Y1470999D01*
X1302700Y1468200D01*
X1305500Y1465500D01*
X1308199Y1464099D01*
X1313599Y1464099D01*
X1316400Y1465500D01*
X1319099Y1468200D01*
X1320500Y1470999D01*
X1330799Y1485999D02*
G01*
X1330799Y1487300D01*
X1332200Y1490000D01*
X1333500Y1491399D01*
X1336300Y1492800D01*
X1341700Y1492800D01*
X1344499Y1491399D01*
X1345799Y1490000D01*
X1347200Y1487300D01*
X1347200Y1484600D01*
X1345799Y1481900D01*
X1343100Y1477800D01*
X1329499Y1464099D01*
X1348500Y1464099D01*
X387500Y1017800D02*
G01*
X387500Y989099D01*
X387500Y1017800D02*
G01*
X399800Y1017800D01*
X403899Y1016399D01*
X405199Y1015000D01*
X406599Y1012300D01*
X406599Y1009600D01*
X405199Y1006900D01*
X403899Y1005500D01*
X399800Y1004099D01*
X387500Y1004099D01*
X396999Y1004099D02*
G01*
X406599Y989099D01*
X415599Y1012300D02*
G01*
X418299Y1013699D01*
X422399Y1017800D01*
X422399Y989099D01*
X434099Y1017800D02*
G01*
X449099Y1017800D01*
X440999Y1006900D01*
X445000Y1006900D01*
X447800Y1005500D01*
X449099Y1004099D01*
X450500Y1000000D01*
X450500Y997300D01*
X449099Y993200D01*
X446399Y990500D01*
X442300Y989099D01*
X438200Y989099D01*
X434099Y990500D01*
X432800Y991900D01*
X431399Y994600D01*
X734499Y292800D02*
G01*
X734499Y264099D01*
X725000Y292800D02*
G01*
X744099Y292800D01*
X754499Y285999D02*
G01*
X754499Y287300D01*
X755799Y290000D01*
X757199Y291399D01*
X759899Y292800D01*
X765399Y292800D01*
X768100Y291399D01*
X769499Y290000D01*
X770799Y287300D01*
X770799Y284600D01*
X769499Y281900D01*
X766700Y277800D01*
X753099Y264099D01*
X772200Y264099D01*
X387500Y1167800D02*
G01*
X387500Y1139099D01*
X387500Y1167800D02*
G01*
X399800Y1167800D01*
X403899Y1166399D01*
X405199Y1165000D01*
X406599Y1162300D01*
X406599Y1159600D01*
X405199Y1156900D01*
X403899Y1155500D01*
X399800Y1154099D01*
X387500Y1154099D01*
X396999Y1154099D02*
G01*
X406599Y1139099D01*
X416999Y1160999D02*
G01*
X416999Y1162300D01*
X418299Y1165000D01*
X419699Y1166399D01*
X422399Y1167800D01*
X427899Y1167800D01*
X430599Y1166399D01*
X431999Y1165000D01*
X433299Y1162300D01*
X433299Y1159600D01*
X431999Y1156900D01*
X429200Y1152800D01*
X415599Y1139099D01*
X434699Y1139099D01*
X1918750Y1695399D02*
G01*
X1918750Y1664699D01*
X1920749Y1658600D01*
X1924849Y1654499D01*
X1931049Y1652500D01*
X1935150Y1652500D01*
X1941250Y1654499D01*
X1945349Y1658600D01*
X1947349Y1664699D01*
X1947349Y1695399D01*
X1962950Y1685199D02*
G01*
X1962950Y1687199D01*
X1964949Y1691300D01*
X1967049Y1693400D01*
X1971149Y1695399D01*
X1979250Y1695399D01*
X1983350Y1693400D01*
X1985450Y1691300D01*
X1987449Y1687199D01*
X1987449Y1683099D01*
X1985450Y1679000D01*
X1981350Y1672899D01*
X1960850Y1652500D01*
X1989549Y1652500D01*
X137500Y1592800D02*
G01*
X137500Y1564099D01*
X137500Y1592800D02*
G01*
X149800Y1592800D01*
X153899Y1591399D01*
X155199Y1590000D01*
X156599Y1587300D01*
X156599Y1583200D01*
X155199Y1580500D01*
X153899Y1579099D01*
X149800Y1577800D01*
X137500Y1577800D01*
X165599Y1587300D02*
G01*
X168299Y1588699D01*
X172399Y1592800D01*
X172399Y1564099D01*
X125000Y1782899D02*
G01*
X125000Y1740000D01*
X125000Y1782899D02*
G01*
X143400Y1782899D01*
X149499Y1780900D01*
X151599Y1778800D01*
X153600Y1774699D01*
X153600Y1768600D01*
X151599Y1764499D01*
X149499Y1762500D01*
X143400Y1760399D01*
X125000Y1760399D01*
X167100Y1782899D02*
G01*
X177399Y1740000D01*
X187600Y1782899D02*
G01*
X177399Y1740000D01*
X187600Y1782899D02*
G01*
X197800Y1740000D01*
X208000Y1782899D02*
G01*
X197800Y1740000D01*
X2775000Y620399D02*
G01*
X2775000Y577500D01*
X2775000Y620399D02*
G01*
X2801599Y620399D01*
X2775000Y600000D02*
G01*
X2791400Y600000D01*
X2775000Y577500D02*
G01*
X2801599Y577500D01*
X2815100Y620399D02*
G01*
X2815100Y577500D01*
X2815100Y577500D02*
G01*
X2839600Y577500D01*
X3500000Y620399D02*
G01*
X3500000Y577500D01*
X3500000Y620399D02*
G01*
X3526599Y620399D01*
X3500000Y600000D02*
G01*
X3516400Y600000D01*
X3500000Y577500D02*
G01*
X3526599Y577500D01*
X3540100Y620399D02*
G01*
X3540100Y577500D01*
X3540100Y620399D02*
G01*
X3558500Y620399D01*
X3564600Y618400D01*
X3566700Y616300D01*
X3568699Y612199D01*
X3568699Y608099D01*
X3566700Y604000D01*
X3564600Y601999D01*
X3558500Y600000D01*
X3540100Y600000D01*
X3554399Y600000D02*
G01*
X3568699Y577500D01*
X909499Y1230300D02*
G01*
X909499Y1201599D01*
X900000Y1230300D02*
G01*
X919099Y1230300D01*
X928100Y1224800D02*
G01*
X930799Y1226199D01*
X934899Y1230300D01*
X934899Y1201599D01*
X734499Y455300D02*
G01*
X734499Y426599D01*
X725000Y455300D02*
G01*
X744099Y455300D01*
X755799Y455300D02*
G01*
X770799Y455300D01*
X762600Y444400D01*
X766700Y444400D01*
X769499Y443000D01*
X770799Y441599D01*
X772200Y437500D01*
X772200Y434800D01*
X770799Y430700D01*
X768100Y428000D01*
X763999Y426599D01*
X759899Y426599D01*
X755799Y428000D01*
X754499Y429400D01*
X753099Y432100D01*
X734499Y630300D02*
G01*
X734499Y601599D01*
X725000Y630300D02*
G01*
X744099Y630300D01*
X766700Y630300D02*
G01*
X753099Y611199D01*
X773500Y611199D01*
X766700Y630300D02*
G01*
X766700Y601599D01*
X734499Y805300D02*
G01*
X734499Y776599D01*
X725000Y805300D02*
G01*
X744099Y805300D01*
X769499Y805300D02*
G01*
X755799Y805300D01*
X754499Y793000D01*
X755799Y794400D01*
X759899Y795700D01*
X763999Y795700D01*
X768100Y794400D01*
X770799Y791599D01*
X772200Y787500D01*
X772200Y784800D01*
X770799Y780700D01*
X768100Y778000D01*
X763999Y776599D01*
X759899Y776599D01*
X755799Y778000D01*
X754499Y779400D01*
X753099Y782100D01*
X734499Y980300D02*
G01*
X734499Y951599D01*
X725000Y980300D02*
G01*
X744099Y980300D01*
X769499Y976199D02*
G01*
X768100Y978899D01*
X763999Y980300D01*
X761300Y980300D01*
X757199Y978899D01*
X754499Y974800D01*
X753099Y968000D01*
X753099Y961199D01*
X754499Y955700D01*
X757199Y953000D01*
X761300Y951599D01*
X762600Y951599D01*
X766700Y953000D01*
X769499Y955700D01*
X770799Y959800D01*
X770799Y961199D01*
X769499Y965300D01*
X766700Y968000D01*
X762600Y969400D01*
X761300Y969400D01*
X757199Y968000D01*
X754499Y965300D01*
X753099Y961199D01*
X47100Y595000D02*
G01*
X85300Y595000D01*
X47100Y595000D02*
G01*
X47100Y618600D01*
X65300Y595000D02*
G01*
X65300Y609499D01*
X85300Y595000D02*
G01*
X85300Y618600D01*
X47100Y641500D02*
G01*
X49000Y636100D01*
X54400Y632500D01*
X63499Y630599D01*
X69000Y630599D01*
X78000Y632500D01*
X83499Y636100D01*
X85300Y641500D01*
X85300Y645199D01*
X83499Y650599D01*
X78000Y654299D01*
X69000Y656100D01*
X63499Y656100D01*
X54400Y654299D01*
X49000Y650599D01*
X47100Y645199D01*
X47100Y641500D01*
X47100Y795000D02*
G01*
X85300Y795000D01*
X47100Y795000D02*
G01*
X47100Y818600D01*
X65300Y795000D02*
G01*
X65300Y809499D01*
X85300Y795000D02*
G01*
X85300Y818600D01*
X54400Y830599D02*
G01*
X52600Y834299D01*
X47100Y839699D01*
X85300Y839699D01*
X47100Y982500D02*
G01*
X85300Y982500D01*
X47100Y982500D02*
G01*
X85300Y996999D01*
X47100Y1011599D02*
G01*
X85300Y996999D01*
X47100Y1011599D02*
G01*
X85300Y1011599D01*
X47100Y1034499D02*
G01*
X49000Y1029000D01*
X54400Y1025399D01*
X63499Y1023600D01*
X69000Y1023600D01*
X78000Y1025399D01*
X83499Y1029000D01*
X85300Y1034499D01*
X85300Y1038099D01*
X83499Y1043600D01*
X78000Y1047199D01*
X69000Y1049000D01*
X63499Y1049000D01*
X54400Y1047199D01*
X49000Y1043600D01*
X47100Y1038099D01*
X47100Y1034499D01*
X1300000Y1667800D02*
G01*
X1300000Y1639099D01*
X1300000Y1667800D02*
G01*
X1312299Y1667800D01*
X1316400Y1666399D01*
X1317700Y1665000D01*
X1319099Y1662300D01*
X1319099Y1659600D01*
X1317700Y1656900D01*
X1316400Y1655500D01*
X1312299Y1654099D01*
X1300000Y1654099D01*
X1309499Y1654099D02*
G01*
X1319099Y1639099D01*
X1328100Y1662300D02*
G01*
X1330799Y1663699D01*
X1334899Y1667800D01*
X1334899Y1639099D01*
X450000Y1580300D02*
G01*
X450000Y1551599D01*
X450000Y1580300D02*
G01*
X459499Y1580300D01*
X463600Y1578899D01*
X466399Y1576199D01*
X467699Y1573499D01*
X469099Y1569400D01*
X469099Y1562500D01*
X467699Y1558499D01*
X466399Y1555700D01*
X463600Y1553000D01*
X459499Y1551599D01*
X450000Y1551599D01*
X478099Y1574800D02*
G01*
X480799Y1576199D01*
X484899Y1580300D01*
X484899Y1551599D01*
X450000Y1730300D02*
G01*
X450000Y1701599D01*
X450000Y1730300D02*
G01*
X459499Y1730300D01*
X463600Y1728899D01*
X466399Y1726199D01*
X467699Y1723499D01*
X469099Y1719400D01*
X469099Y1712500D01*
X467699Y1708499D01*
X466399Y1705700D01*
X463600Y1703000D01*
X459499Y1701599D01*
X450000Y1701599D01*
X479499Y1723499D02*
G01*
X479499Y1724800D01*
X480799Y1727500D01*
X482199Y1728899D01*
X484899Y1730300D01*
X490399Y1730300D01*
X493099Y1728899D01*
X494499Y1727500D01*
X495799Y1724800D01*
X495799Y1722100D01*
X494499Y1719400D01*
X491700Y1715300D01*
X478099Y1701599D01*
X497199Y1701599D01*
X387500Y267800D02*
G01*
X387500Y239099D01*
X387500Y267800D02*
G01*
X399800Y267800D01*
X403899Y266399D01*
X405199Y265000D01*
X406599Y262300D01*
X406599Y259600D01*
X405199Y256900D01*
X403899Y255500D01*
X399800Y254099D01*
X387500Y254099D01*
X396999Y254099D02*
G01*
X406599Y239099D01*
X418299Y267800D02*
G01*
X433299Y267800D01*
X425100Y256900D01*
X429200Y256900D01*
X431999Y255500D01*
X433299Y254099D01*
X434699Y250000D01*
X434699Y247300D01*
X433299Y243200D01*
X430599Y240500D01*
X426500Y239099D01*
X422399Y239099D01*
X418299Y240500D01*
X416999Y241900D01*
X415599Y244600D01*
X387500Y417800D02*
G01*
X387500Y389099D01*
X387500Y417800D02*
G01*
X399800Y417800D01*
X403899Y416399D01*
X405199Y415000D01*
X406599Y412300D01*
X406599Y409600D01*
X405199Y406900D01*
X403899Y405500D01*
X399800Y404099D01*
X387500Y404099D01*
X396999Y404099D02*
G01*
X406599Y389099D01*
X429200Y417800D02*
G01*
X415599Y398699D01*
X435999Y398699D01*
X429200Y417800D02*
G01*
X429200Y389099D01*
X387500Y567800D02*
G01*
X387500Y539099D01*
X387500Y567800D02*
G01*
X399800Y567800D01*
X403899Y566399D01*
X405199Y565000D01*
X406599Y562300D01*
X406599Y559600D01*
X405199Y556900D01*
X403899Y555500D01*
X399800Y554099D01*
X387500Y554099D01*
X396999Y554099D02*
G01*
X406599Y539099D01*
X431999Y567800D02*
G01*
X418299Y567800D01*
X416999Y555500D01*
X418299Y556900D01*
X422399Y558200D01*
X426500Y558200D01*
X430599Y556900D01*
X433299Y554099D01*
X434699Y550000D01*
X434699Y547300D01*
X433299Y543200D01*
X430599Y540500D01*
X426500Y539099D01*
X422399Y539099D01*
X418299Y540500D01*
X416999Y541900D01*
X415599Y544600D01*
X387500Y717800D02*
G01*
X387500Y689099D01*
X387500Y717800D02*
G01*
X399800Y717800D01*
X403899Y716399D01*
X405199Y715000D01*
X406599Y712300D01*
X406599Y709600D01*
X405199Y706900D01*
X403899Y705500D01*
X399800Y704099D01*
X387500Y704099D01*
X396999Y704099D02*
G01*
X406599Y689099D01*
X431999Y713699D02*
G01*
X430599Y716399D01*
X426500Y717800D01*
X423800Y717800D01*
X419699Y716399D01*
X416999Y712300D01*
X415599Y705500D01*
X415599Y698699D01*
X416999Y693200D01*
X419699Y690500D01*
X423800Y689099D01*
X425100Y689099D01*
X429200Y690500D01*
X431999Y693200D01*
X433299Y697300D01*
X433299Y698699D01*
X431999Y702800D01*
X429200Y705500D01*
X425100Y706900D01*
X423800Y706900D01*
X419699Y705500D01*
X416999Y702800D01*
X415599Y698699D01*
X387500Y867800D02*
G01*
X387500Y839099D01*
X387500Y867800D02*
G01*
X399800Y867800D01*
X403899Y866399D01*
X405199Y865000D01*
X406599Y862300D01*
X406599Y859600D01*
X405199Y856900D01*
X403899Y855500D01*
X399800Y854099D01*
X387500Y854099D01*
X396999Y854099D02*
G01*
X406599Y839099D01*
X434699Y867800D02*
G01*
X420999Y839099D01*
X415599Y867800D02*
G01*
X434699Y867800D01*
X1137500Y280300D02*
G01*
X1137500Y251599D01*
X1137500Y280300D02*
G01*
X1149799Y280300D01*
X1153900Y278899D01*
X1155200Y277500D01*
X1156599Y274800D01*
X1156599Y272100D01*
X1155200Y269400D01*
X1153900Y268000D01*
X1149799Y266599D01*
X1137500Y266599D01*
X1146999Y266599D02*
G01*
X1156599Y251599D01*
X1172399Y280300D02*
G01*
X1168299Y278899D01*
X1166999Y276199D01*
X1166999Y273499D01*
X1168299Y270700D01*
X1171000Y269400D01*
X1176499Y268000D01*
X1180600Y266599D01*
X1183299Y263899D01*
X1184700Y261199D01*
X1184700Y257100D01*
X1183299Y254400D01*
X1181999Y253000D01*
X1177899Y251599D01*
X1172399Y251599D01*
X1168299Y253000D01*
X1166999Y254400D01*
X1165600Y257100D01*
X1165600Y261199D01*
X1166999Y263899D01*
X1169700Y266599D01*
X1173800Y268000D01*
X1179200Y269400D01*
X1181999Y270700D01*
X1183299Y273499D01*
X1183299Y276199D01*
X1181999Y278899D01*
X1177899Y280300D01*
X1172399Y280300D01*
X1137500Y417800D02*
G01*
X1137500Y389099D01*
X1137500Y417800D02*
G01*
X1149799Y417800D01*
X1153900Y416399D01*
X1155200Y415000D01*
X1156599Y412300D01*
X1156599Y409600D01*
X1155200Y406900D01*
X1153900Y405500D01*
X1149799Y404099D01*
X1137500Y404099D01*
X1146999Y404099D02*
G01*
X1156599Y389099D01*
X1183299Y408200D02*
G01*
X1181999Y404099D01*
X1179200Y401399D01*
X1175100Y400000D01*
X1173800Y400000D01*
X1169700Y401399D01*
X1166999Y404099D01*
X1165600Y408200D01*
X1165600Y409600D01*
X1166999Y413699D01*
X1169700Y416399D01*
X1173800Y417800D01*
X1175100Y417800D01*
X1179200Y416399D01*
X1181999Y413699D01*
X1183299Y408200D01*
X1183299Y401399D01*
X1181999Y394600D01*
X1179200Y390500D01*
X1175100Y389099D01*
X1172399Y389099D01*
X1168299Y390500D01*
X1166999Y393200D01*
X1137500Y567800D02*
G01*
X1137500Y539099D01*
X1137500Y567800D02*
G01*
X1149799Y567800D01*
X1153900Y566399D01*
X1155200Y565000D01*
X1156599Y562300D01*
X1156599Y559600D01*
X1155200Y556900D01*
X1153900Y555500D01*
X1149799Y554099D01*
X1137500Y554099D01*
X1146999Y554099D02*
G01*
X1156599Y539099D01*
X1165600Y562300D02*
G01*
X1168299Y563699D01*
X1172399Y567800D01*
X1172399Y539099D01*
X1189600Y567800D02*
G01*
X1185500Y566399D01*
X1182799Y562300D01*
X1181400Y555500D01*
X1181400Y551399D01*
X1182799Y544600D01*
X1185500Y540500D01*
X1189600Y539099D01*
X1192299Y539099D01*
X1196400Y540500D01*
X1199099Y544600D01*
X1200500Y551399D01*
X1200500Y555500D01*
X1199099Y562300D01*
X1196400Y566399D01*
X1192299Y567800D01*
X1189600Y567800D01*
X1137500Y717800D02*
G01*
X1137500Y689099D01*
X1137500Y717800D02*
G01*
X1149799Y717800D01*
X1153900Y716399D01*
X1155200Y715000D01*
X1156599Y712300D01*
X1156599Y709600D01*
X1155200Y706900D01*
X1153900Y705500D01*
X1149799Y704099D01*
X1137500Y704099D01*
X1146999Y704099D02*
G01*
X1156599Y689099D01*
X1165600Y712300D02*
G01*
X1168299Y713699D01*
X1172399Y717800D01*
X1172399Y689099D01*
X1181400Y712300D02*
G01*
X1184099Y713699D01*
X1188199Y717800D01*
X1188199Y689099D01*
X1137500Y867800D02*
G01*
X1137500Y839099D01*
X1137500Y867800D02*
G01*
X1149799Y867800D01*
X1153900Y866399D01*
X1155200Y865000D01*
X1156599Y862300D01*
X1156599Y859600D01*
X1155200Y856900D01*
X1153900Y855500D01*
X1149799Y854099D01*
X1137500Y854099D01*
X1146999Y854099D02*
G01*
X1156599Y839099D01*
X1165600Y862300D02*
G01*
X1168299Y863699D01*
X1172399Y867800D01*
X1172399Y839099D01*
X1182799Y860999D02*
G01*
X1182799Y862300D01*
X1184099Y865000D01*
X1185500Y866399D01*
X1188199Y867800D01*
X1193699Y867800D01*
X1196400Y866399D01*
X1197799Y865000D01*
X1199099Y862300D01*
X1199099Y859600D01*
X1197799Y856900D01*
X1195000Y852800D01*
X1181400Y839099D01*
X1200500Y839099D01*
X850000Y1389149D02*
G01*
X850000Y1358449D01*
X851999Y1352350D01*
X856099Y1348249D01*
X862299Y1346250D01*
X866400Y1346250D01*
X872500Y1348249D01*
X876599Y1352350D01*
X878599Y1358449D01*
X878599Y1389149D01*
X892100Y1380949D02*
G01*
X896199Y1383049D01*
X902399Y1389149D01*
X902399Y1346250D01*
D10*
X1066296Y1171812D02*
G01*
X1483698Y1171812D01*
X1483698Y982910D01*
X1066296Y982910D01*
X1066296Y1171612D01*
X1066296Y1171812D01*
X1483657Y1148222D02*
G01*
X1066337Y1148222D01*
D31*
X200000Y437500D02*
G01*
X200000Y512500D01*
X100000Y512500D01*
X100000Y212500D01*
X200000Y212500D01*
D32*
X200000Y212500D02*
G01*
X200000Y437500D01*
D33*
X1485000Y1325000D02*
G01*
X1485000Y1225000D01*
X1165000Y1225000D01*
X1165000Y1425000D01*
X1485000Y1425000D01*
X1485000Y1325000D01*
X1485000Y1475000D02*
G01*
X1485000Y1375000D01*
X1165000Y1375000D01*
X1165000Y1575000D01*
X1485000Y1575000D01*
X1485000Y1475000D01*
D10*
X599000Y1046999D02*
G01*
X599000Y953000D01*
X599000Y953000D02*
G01*
X350999Y953000D01*
X350999Y953000D02*
G01*
X350999Y1046999D01*
X350999Y1046999D02*
G01*
X599000Y1046999D01*
X772051Y246550D02*
G01*
X927948Y246550D01*
X599000Y1196999D02*
G01*
X599000Y1103000D01*
X599000Y1103000D02*
G01*
X350999Y1103000D01*
X350999Y1103000D02*
G01*
X350999Y1196999D01*
X350999Y1196999D02*
G01*
X599000Y1196999D01*
X1595670Y1750390D02*
G01*
X2304330Y1750390D01*
X2304330Y49600D01*
X1595670Y49600D01*
X1595670Y1750390D01*
D31*
X50000Y1250000D02*
G01*
X250000Y1250000D01*
X250000Y1550000D01*
X50000Y1550000D01*
X50000Y1250000D01*
X50000Y1441669D01*
D34*
X50000Y1725000D02*
G01*
X250000Y1725000D01*
X50000Y1625000D02*
G01*
X50000Y1725000D01*
X50000Y1625000D02*
G01*
X250000Y1625000D01*
X250000Y1625000D02*
G01*
X250000Y1725000D01*
D10*
X2748819Y362206D02*
G01*
X2851180Y362206D01*
X3473819Y362206D02*
G01*
X3576180Y362206D01*
X796999Y1178919D02*
G01*
X797015Y1021084D01*
X928918Y415500D02*
G01*
X771085Y415484D01*
X928918Y590500D02*
G01*
X771085Y590484D01*
X928918Y765500D02*
G01*
X771085Y765484D01*
X928918Y940500D02*
G01*
X771085Y940484D01*
D32*
X200000Y512500D02*
G01*
X200000Y637500D01*
D31*
X200000Y512500D02*
G01*
X100000Y512500D01*
X100000Y712500D01*
X200000Y712500D01*
X200000Y637500D01*
D32*
X200000Y712500D02*
G01*
X200000Y837500D01*
D31*
X200000Y712500D02*
G01*
X100000Y712500D01*
X100000Y912500D01*
X200000Y912500D01*
X200000Y837500D01*
D32*
X200000Y912500D02*
G01*
X200000Y1037500D01*
D31*
X200000Y912500D02*
G01*
X100000Y912500D01*
X100000Y1112500D01*
X200000Y1112500D01*
X200000Y1037500D01*
D10*
X1448999Y1696999D02*
G01*
X1448999Y1603000D01*
X1448999Y1603000D02*
G01*
X1201000Y1603000D01*
X1201000Y1603000D02*
G01*
X1201000Y1696999D01*
X1201000Y1696999D02*
G01*
X1448999Y1696999D01*
X388386Y1518308D02*
G01*
X561615Y1518308D01*
X388386Y1431691D02*
G01*
X561615Y1431691D01*
X388386Y1518308D02*
G01*
X388386Y1431691D01*
X561615Y1518308D02*
G01*
X561615Y1431691D01*
X425369Y1518308D02*
G01*
X425369Y1431691D01*
X561613Y1581691D02*
G01*
X388384Y1581691D01*
X561613Y1668308D02*
G01*
X388384Y1668308D01*
X561613Y1581691D02*
G01*
X561613Y1668308D01*
X388384Y1581691D02*
G01*
X388384Y1668308D01*
X524630Y1581691D02*
G01*
X524630Y1668308D01*
X350999Y203000D02*
G01*
X350999Y296999D01*
X350999Y296999D02*
G01*
X599000Y296999D01*
X599000Y296999D02*
G01*
X599000Y203000D01*
X599000Y203000D02*
G01*
X350999Y203000D01*
X350999Y353000D02*
G01*
X350999Y446999D01*
X350999Y446999D02*
G01*
X599000Y446999D01*
X599000Y446999D02*
G01*
X599000Y353000D01*
X599000Y353000D02*
G01*
X350999Y353000D01*
X350999Y503000D02*
G01*
X350999Y596999D01*
X350999Y596999D02*
G01*
X599000Y596999D01*
X599000Y596999D02*
G01*
X599000Y503000D01*
X599000Y503000D02*
G01*
X350999Y503000D01*
X350999Y653000D02*
G01*
X350999Y746999D01*
X350999Y746999D02*
G01*
X599000Y746999D01*
X599000Y746999D02*
G01*
X599000Y653000D01*
X599000Y653000D02*
G01*
X350999Y653000D01*
X350999Y803000D02*
G01*
X350999Y896999D01*
X350999Y896999D02*
G01*
X599000Y896999D01*
X599000Y896999D02*
G01*
X599000Y803000D01*
X599000Y803000D02*
G01*
X350999Y803000D01*
X1348999Y301999D02*
G01*
X1348999Y208000D01*
X1348999Y208000D02*
G01*
X1101000Y208000D01*
X1101000Y208000D02*
G01*
X1101000Y301999D01*
X1101000Y301999D02*
G01*
X1348999Y301999D01*
X1348999Y451999D02*
G01*
X1348999Y358000D01*
X1348999Y358000D02*
G01*
X1101000Y358000D01*
X1101000Y358000D02*
G01*
X1101000Y451999D01*
X1101000Y451999D02*
G01*
X1348999Y451999D01*
X1348999Y601999D02*
G01*
X1348999Y508000D01*
X1348999Y508000D02*
G01*
X1101000Y508000D01*
X1101000Y508000D02*
G01*
X1101000Y601999D01*
X1101000Y601999D02*
G01*
X1348999Y601999D01*
X1348999Y751999D02*
G01*
X1348999Y658000D01*
X1348999Y658000D02*
G01*
X1101000Y658000D01*
X1101000Y658000D02*
G01*
X1101000Y751999D01*
X1101000Y751999D02*
G01*
X1348999Y751999D01*
X1348999Y901999D02*
G01*
X1348999Y808000D01*
X1348999Y808000D02*
G01*
X1101000Y808000D01*
X1101000Y808000D02*
G01*
X1101000Y901999D01*
X1101000Y901999D02*
G01*
X1348999Y901999D01*
D35*
X900196Y1669488D02*
G01*
X900000Y1669499D01*
X979300Y1669499D01*
X979300Y1279699D01*
X770699Y1279699D01*
X770699Y1669499D01*
X850000Y1669499D01*
X849803Y1669488D01*
D10*
X3262205Y1301181D02*
G01*
X3262205Y1198818D01*
X3437794Y1598818D02*
G01*
X3437794Y1701181D01*
X2748819Y1362206D02*
G01*
X2851180Y1362206D01*
X2962205Y1701181D02*
G01*
X2962205Y1598818D01*
X3548819Y1362206D02*
G01*
X3651180Y1362206D01*
X2962205Y1301181D02*
G01*
X2962205Y1198818D01*
D36*
G75*
G01*
X1165943Y958266D02*
G03*
X1166043Y958266I50J-7874D01*
D10*
G75*
G01*
X772000Y246600D02*
G03*
X928000Y246600I78000J-58992D01*
G75*
G01*
X2854400Y363320D02*
G03*
X2745600Y363320I-54400J86710D01*
G75*
G01*
X3579400Y363320D02*
G03*
X3470600Y363320I-54400J86710D01*
G75*
G01*
X797007Y1021085D02*
G03*
X797015Y1178919I52892J78914D01*
G75*
G01*
X771085Y415493D02*
G03*
X928919Y415485I78914J-52892D01*
G75*
G01*
X771085Y590493D02*
G03*
X928919Y590485I78914J-52892D01*
G75*
G01*
X771085Y765493D02*
G03*
X928919Y765485I78914J-52892D01*
G75*
G01*
X771085Y940493D02*
G03*
X928919Y940485I78914J-52892D01*
D35*
G75*
G01*
X849803Y1669488D02*
G03*
X899803Y1669488I25000J0D01*
D37*
G75*
G01*
X725000Y1681100D02*
G03*
X725100Y1681100I50J-4921D01*
D38*
G75*
G01*
X810000Y1650200D02*
G03*
X810200Y1650200I100J-11811D01*
D10*
G75*
G01*
X3263320Y1195600D02*
G03*
X3263320Y1304400I86710J54400D01*
G75*
G01*
X3436680Y1704400D02*
G03*
X3436680Y1595600I-86710J-54400D01*
G75*
G01*
X2854400Y1363320D02*
G03*
X2745600Y1363320I-54400J86710D01*
G75*
G01*
X2963320Y1595600D02*
G03*
X2963320Y1704400I86710J54400D01*
G75*
G01*
X3654400Y1363320D02*
G03*
X3545600Y1363320I-54400J86710D01*
G75*
G01*
X2963320Y1195600D02*
G03*
X2963320Y1304400I86710J54400D01*
D13*
G75*
G01
X3125000Y450000D02*
G03X3125000Y450000I-325000J0D01*
G75*
G01
X3850000Y450000D02*
G03X3850000Y450000I-325000J0D01*
D10*
G75*
G01
X1725000Y1655000D02*
G03X1725000Y1655000I-25000J0D01*
M02*
