M48
INCH,LZ
;FILE_FORMAT=2:4
;TYPE=PLATED
;Layer: PTH_Through
;EasyEDA v6.5.1, 2022-03-27 00:01:15
;cc65af8350e74c879d8fba7fd4beee03,7d3f4a13764643a7838717c5c1d40531,10
;Gerber Generator version 0.2
;Holesize 1 = 0.0120 inch
T01C0.0120
;Holesize 2 = 0.0160 inch
T02C0.0160
;Holesize 3 = 0.0350 inch
T03C0.0350
;Holesize 4 = 0.0360 inch
T04C0.0360
;Holesize 5 = 0.0380 inch
T05C0.0380
;Holesize 6 = 0.0430 inch
T06C0.0430
%
G05
G90
T01
X004000Y009063
X004969Y010625
X006125Y009094
X006813Y010375
X008031Y007781
X008125Y010063
X003906Y012094
X003906Y012406
X006375Y006594
X006375Y005031
X006375Y003469
X006375Y007375
X006375Y005813
X006375Y004250
X014813Y012688
X009250Y011375
X008875Y005438
X008938Y006219
X008156Y012313
X013313Y012156
X014750Y007028
X006188Y012156
X005313Y011969
X013563Y001438
X015594Y011375
X014281Y013000
X016000Y013125
X008063Y011344
X014281Y012625
T02
X004781Y007719
X003094Y008063
T03
X009688Y000813
X008688Y000813
X007688Y000813
X006688Y000813
X002094Y008156
X001094Y008156
X002094Y009156
X001094Y009156
X002094Y010156
X001094Y010156
X006531Y008125
T04
X001231Y011656
X002018Y011656
X023606Y012169
X024394Y012169
X026106Y012169
X026894Y012169
X030906Y003843
X030906Y003057
X023219Y003850
X023219Y003063
T05
X011562Y017738
X011562Y016738
X011562Y020925
X011562Y019925
X017062Y020925
X017062Y019925
X006062Y020925
X006062Y019925
X017062Y017738
X017062Y016738
X006062Y017738
X006062Y016738
X021000Y003938
X021000Y002938
X028688Y003938
X028688Y002938
X023250Y013781
X024250Y013781
X024250Y010250
X023250Y010250
X029250Y011513
X029250Y012513
X026250Y010250
X027250Y010250
X021250Y011513
X021250Y012513
X026250Y013781
X027250Y013781
T06
X010688Y000813
X011688Y000813
X001094Y001938
X002094Y001938
X001094Y002938
X002094Y002938
X001094Y006938
X002094Y006938
X001094Y003938
X002094Y003938
X001094Y004938
X002094Y004938
X001094Y005938
X002094Y005938
X020062Y017738
X020062Y016738
X004062Y017738
X004062Y016738
X019062Y017738
X019062Y016738
X003062Y017738
X003062Y016738
X020062Y020925
X020062Y019925
X004062Y020925
X004062Y019925
X019062Y020925
X019062Y019925
X003062Y020925
X003062Y019925
M30
