G04 Layer: TopSilkscreenLayer*
G04 EasyEDA v6.5.1, 2022-03-27 00:01:15*
G04 cc65af8350e74c879d8fba7fd4beee03,7d3f4a13764643a7838717c5c1d40531,10*
G04 Gerber Generator version 0.2*
G04 Scale: 100 percent, Rotated: No, Reflected: No *
G04 Dimensions in inches *
G04 leading zeros omitted , absolute positions ,3 integer and 6 decimal *
%FSLAX36Y36*%
%MOIN*%

%ADD10C,0.0100*%
%ADD16C,0.0060*%
%ADD38C,0.0080*%
%ADD39C,0.0080*%
%ADD40C,0.0071*%
%ADD41C,0.0060*%
%ADD42C,0.0157*%
%ADD43C,0.0118*%
%ADD44C,0.0050*%

%LPD*%
D44*
X1262500Y47139D02*
G01*
X1262500Y23339D01*
X1262500Y47139D02*
G01*
X1272700Y47139D01*
X1276099Y46039D01*
X1277299Y44940D01*
X1278400Y42640D01*
X1278400Y40340D01*
X1277299Y38040D01*
X1276099Y36939D01*
X1272700Y35839D01*
X1262500Y35839D01*
X1270500Y35839D02*
G01*
X1278400Y23339D01*
X1285900Y42640D02*
G01*
X1288199Y43739D01*
X1291599Y47139D01*
X1291599Y23339D01*
X1304799Y47139D02*
G01*
X1301400Y46039D01*
X1300200Y43739D01*
X1300200Y41439D01*
X1301400Y39239D01*
X1303599Y38040D01*
X1308199Y36939D01*
X1311599Y35839D01*
X1313900Y33539D01*
X1315000Y31239D01*
X1315000Y27840D01*
X1313900Y25540D01*
X1312700Y24439D01*
X1309300Y23339D01*
X1304799Y23339D01*
X1301400Y24439D01*
X1300200Y25540D01*
X1299099Y27840D01*
X1299099Y31239D01*
X1300200Y33539D01*
X1302500Y35839D01*
X1305900Y36939D01*
X1310500Y38040D01*
X1312700Y39239D01*
X1313900Y41439D01*
X1313900Y43739D01*
X1312700Y46039D01*
X1309300Y47139D01*
X1304799Y47139D01*
D38*
X246900Y1468274D02*
G01*
X246900Y1411075D01*
X246900Y1468274D02*
G01*
X265999Y1468274D01*
X274200Y1465574D01*
X279600Y1460174D01*
X282300Y1454675D01*
X285100Y1446475D01*
X285100Y1432874D01*
X282300Y1424675D01*
X279600Y1419274D01*
X274200Y1413775D01*
X265999Y1411075D01*
X246900Y1411075D01*
X303099Y1468274D02*
G01*
X305799Y1465574D01*
X308499Y1468274D01*
X305799Y1471075D01*
X303099Y1468274D01*
X305799Y1449274D02*
G01*
X305799Y1411075D01*
X359200Y1449274D02*
G01*
X359200Y1411075D01*
X359200Y1441075D02*
G01*
X353800Y1446475D01*
X348299Y1449274D01*
X340199Y1449274D01*
X334699Y1446475D01*
X329200Y1441075D01*
X326500Y1432874D01*
X326500Y1427375D01*
X329200Y1419274D01*
X334699Y1413775D01*
X340199Y1411075D01*
X348299Y1411075D01*
X353800Y1413775D01*
X359200Y1419274D01*
X377199Y1468274D02*
G01*
X377199Y1411075D01*
X377199Y1441075D02*
G01*
X382699Y1446475D01*
X388200Y1449274D01*
X396300Y1449274D01*
X401799Y1446475D01*
X407199Y1441075D01*
X410000Y1432874D01*
X410000Y1427375D01*
X407199Y1419274D01*
X401799Y1413775D01*
X396300Y1411075D01*
X388200Y1411075D01*
X382699Y1413775D01*
X377199Y1419274D01*
X428000Y1468274D02*
G01*
X428000Y1411075D01*
X459600Y1449274D02*
G01*
X454200Y1446475D01*
X448699Y1441075D01*
X445999Y1432874D01*
X445999Y1427375D01*
X448699Y1419274D01*
X454200Y1413775D01*
X459600Y1411075D01*
X467800Y1411075D01*
X473200Y1413775D01*
X478699Y1419274D01*
X481399Y1427375D01*
X481399Y1432874D01*
X478699Y1441075D01*
X473200Y1446475D01*
X467800Y1449274D01*
X459600Y1449274D01*
X502199Y1454675D02*
G01*
X502199Y1457375D01*
X504899Y1462874D01*
X507600Y1465574D01*
X513099Y1468274D01*
X524000Y1468274D01*
X529400Y1465574D01*
X532199Y1462874D01*
X534899Y1457375D01*
X534899Y1451975D01*
X532199Y1446475D01*
X526700Y1438274D01*
X499400Y1411075D01*
X537600Y1411075D01*
X597600Y1468274D02*
G01*
X597600Y1411075D01*
X635799Y1468274D02*
G01*
X635799Y1411075D01*
X597600Y1441075D02*
G01*
X635799Y1441075D01*
X653800Y1432874D02*
G01*
X686500Y1432874D01*
X686500Y1438274D01*
X683800Y1443775D01*
X681100Y1446475D01*
X675599Y1449274D01*
X667399Y1449274D01*
X661999Y1446475D01*
X656500Y1441075D01*
X653800Y1432874D01*
X653800Y1427375D01*
X656500Y1419274D01*
X661999Y1413775D01*
X667399Y1411075D01*
X675599Y1411075D01*
X681100Y1413775D01*
X686500Y1419274D01*
X737199Y1449274D02*
G01*
X737199Y1411075D01*
X737199Y1441075D02*
G01*
X731799Y1446475D01*
X726300Y1449274D01*
X718200Y1449274D01*
X712699Y1446475D01*
X707199Y1441075D01*
X704499Y1432874D01*
X704499Y1427375D01*
X707199Y1419274D01*
X712699Y1413775D01*
X718200Y1411075D01*
X726300Y1411075D01*
X731799Y1413775D01*
X737199Y1419274D01*
X788000Y1468274D02*
G01*
X788000Y1411075D01*
X788000Y1441075D02*
G01*
X782500Y1446475D01*
X777100Y1449274D01*
X768900Y1449274D01*
X763400Y1446475D01*
X758000Y1441075D01*
X755199Y1432874D01*
X755199Y1427375D01*
X758000Y1419274D01*
X763400Y1413775D01*
X768900Y1411075D01*
X777100Y1411075D01*
X782500Y1413775D01*
X788000Y1419274D01*
X848000Y1468274D02*
G01*
X848000Y1411075D01*
X848000Y1468274D02*
G01*
X872500Y1468274D01*
X880699Y1465574D01*
X883400Y1462874D01*
X886199Y1457375D01*
X886199Y1451975D01*
X883400Y1446475D01*
X880699Y1443775D01*
X872500Y1441075D01*
X848000Y1441075D02*
G01*
X872500Y1441075D01*
X880699Y1438274D01*
X883400Y1435574D01*
X886199Y1430174D01*
X886199Y1421975D01*
X883400Y1416475D01*
X880699Y1413775D01*
X872500Y1411075D01*
X848000Y1411075D01*
X917799Y1449274D02*
G01*
X912299Y1446475D01*
X906899Y1441075D01*
X904200Y1432874D01*
X904200Y1427375D01*
X906899Y1419274D01*
X912299Y1413775D01*
X917799Y1411075D01*
X926000Y1411075D01*
X931400Y1413775D01*
X936899Y1419274D01*
X939600Y1427375D01*
X939600Y1432874D01*
X936899Y1441075D01*
X931400Y1446475D01*
X926000Y1449274D01*
X917799Y1449274D01*
X990299Y1449274D02*
G01*
X990299Y1411075D01*
X990299Y1441075D02*
G01*
X984899Y1446475D01*
X979399Y1449274D01*
X971199Y1449274D01*
X965799Y1446475D01*
X960299Y1441075D01*
X957600Y1432874D01*
X957600Y1427375D01*
X960299Y1419274D01*
X965799Y1413775D01*
X971199Y1411075D01*
X979399Y1411075D01*
X984899Y1413775D01*
X990299Y1419274D01*
X1008299Y1449274D02*
G01*
X1008299Y1411075D01*
X1008299Y1432874D02*
G01*
X1011099Y1441075D01*
X1016499Y1446475D01*
X1021999Y1449274D01*
X1030200Y1449274D01*
X1080900Y1468274D02*
G01*
X1080900Y1411075D01*
X1080900Y1441075D02*
G01*
X1075399Y1446475D01*
X1070000Y1449274D01*
X1061800Y1449274D01*
X1056300Y1446475D01*
X1050900Y1441075D01*
X1048199Y1432874D01*
X1048199Y1427375D01*
X1050900Y1419274D01*
X1056300Y1413775D01*
X1061800Y1411075D01*
X1070000Y1411075D01*
X1075399Y1413775D01*
X1080900Y1419274D01*
X1140900Y1435574D02*
G01*
X1190000Y1435574D01*
X1250000Y1468274D02*
G01*
X1250000Y1411075D01*
X1250000Y1468274D02*
G01*
X1271800Y1411075D01*
X1293599Y1468274D02*
G01*
X1271800Y1411075D01*
X1293599Y1468274D02*
G01*
X1293599Y1411075D01*
X1311599Y1468274D02*
G01*
X1311599Y1411075D01*
X1338900Y1449274D02*
G01*
X1311599Y1421975D01*
X1322500Y1432874D02*
G01*
X1341599Y1411075D01*
X1392299Y1460174D02*
G01*
X1389600Y1465574D01*
X1381400Y1468274D01*
X1376000Y1468274D01*
X1367799Y1465574D01*
X1362299Y1457375D01*
X1359600Y1443775D01*
X1359600Y1430174D01*
X1362299Y1419274D01*
X1367799Y1413775D01*
X1376000Y1411075D01*
X1378699Y1411075D01*
X1386899Y1413775D01*
X1392299Y1419274D01*
X1395100Y1427375D01*
X1395100Y1430174D01*
X1392299Y1438274D01*
X1386899Y1443775D01*
X1378699Y1446475D01*
X1376000Y1446475D01*
X1367799Y1443775D01*
X1362299Y1438274D01*
X1359600Y1430174D01*
D16*
X17220Y781269D02*
G01*
X45819Y781269D01*
X17220Y781269D02*
G01*
X17220Y793569D01*
X18620Y797669D01*
X19920Y799070D01*
X22719Y800369D01*
X26819Y800369D01*
X29520Y799070D01*
X30819Y797669D01*
X32220Y793569D01*
X32220Y781269D01*
X17220Y817570D02*
G01*
X18620Y814870D01*
X21320Y812069D01*
X24020Y810770D01*
X28119Y809369D01*
X34920Y809369D01*
X39020Y810770D01*
X41819Y812069D01*
X44520Y814870D01*
X45819Y817570D01*
X45819Y823069D01*
X44520Y825770D01*
X41819Y828470D01*
X39020Y829870D01*
X34920Y831170D01*
X28119Y831170D01*
X24020Y829870D01*
X21320Y828470D01*
X18620Y825770D01*
X17220Y823069D01*
X17220Y817570D01*
X17220Y840169D02*
G01*
X45819Y847069D01*
X17220Y853870D02*
G01*
X45819Y847069D01*
X17220Y853870D02*
G01*
X45819Y860670D01*
X17220Y867469D02*
G01*
X45819Y860670D01*
X17220Y876469D02*
G01*
X45819Y876469D01*
X17220Y876469D02*
G01*
X17220Y894169D01*
X30819Y876469D02*
G01*
X30819Y887370D01*
X45819Y876469D02*
G01*
X45819Y894169D01*
X17220Y903170D02*
G01*
X45819Y903170D01*
X17220Y903170D02*
G01*
X17220Y915470D01*
X18620Y919569D01*
X19920Y920970D01*
X22719Y922269D01*
X25419Y922269D01*
X28119Y920970D01*
X29520Y919569D01*
X30819Y915470D01*
X30819Y903170D01*
X30819Y912770D02*
G01*
X45819Y922269D01*
X24020Y972770D02*
G01*
X21320Y971370D01*
X18620Y968670D01*
X17220Y965970D01*
X17220Y960470D01*
X18620Y957770D01*
X21320Y955070D01*
X24020Y953670D01*
X28119Y952269D01*
X34920Y952269D01*
X39020Y953670D01*
X41819Y955070D01*
X44520Y957770D01*
X45819Y960470D01*
X45819Y965970D01*
X44520Y968670D01*
X41819Y971370D01*
X39020Y972770D01*
X17220Y991269D02*
G01*
X45819Y991269D01*
X17220Y981770D02*
G01*
X17220Y1000869D01*
X17220Y1009870D02*
G01*
X45819Y1009870D01*
X17220Y1009870D02*
G01*
X17220Y1022069D01*
X18620Y1026170D01*
X19920Y1027570D01*
X22719Y1028969D01*
X25419Y1028969D01*
X28119Y1027570D01*
X29520Y1026170D01*
X30819Y1022069D01*
X30819Y1009870D01*
X30819Y1019369D02*
G01*
X45819Y1028969D01*
X17220Y1037970D02*
G01*
X45819Y1037970D01*
X45819Y1037970D02*
G01*
X45819Y1054270D01*
X58164Y1309189D02*
G01*
X82764Y1309189D01*
X70464Y1296889D02*
G01*
X70464Y1321390D01*
X156570Y1332204D02*
G01*
X140670Y1332204D01*
X139070Y1317905D01*
X140670Y1319504D01*
X145470Y1321104D01*
X150270Y1321104D01*
X154969Y1319504D01*
X158170Y1316305D01*
X159769Y1311505D01*
X159769Y1308305D01*
X158170Y1303604D01*
X154969Y1300405D01*
X150270Y1298805D01*
X145470Y1298805D01*
X140670Y1300405D01*
X139070Y1302004D01*
X137469Y1305104D01*
X170270Y1332204D02*
G01*
X182970Y1298805D01*
X195770Y1332204D02*
G01*
X182970Y1298805D01*
X268750Y1307966D02*
G01*
X244205Y1307966D01*
D44*
X939774Y175275D02*
G01*
X952274Y175275D01*
X945474Y166174D01*
X948874Y166174D01*
X951175Y164974D01*
X952274Y163874D01*
X953374Y160475D01*
X953374Y158175D01*
X952274Y154774D01*
X949975Y152474D01*
X946575Y151374D01*
X943175Y151374D01*
X939774Y152474D01*
X938675Y153674D01*
X937475Y155875D01*
X960874Y175275D02*
G01*
X969975Y151374D01*
X979075Y175275D02*
G01*
X969975Y151374D01*
X988874Y175275D02*
G01*
X1001374Y175275D01*
X994575Y166174D01*
X997974Y166174D01*
X1000275Y164974D01*
X1001374Y163874D01*
X1002475Y160475D01*
X1002475Y158175D01*
X1001374Y154774D01*
X999075Y152474D01*
X995675Y151374D01*
X992274Y151374D01*
X988874Y152474D01*
X987775Y153674D01*
X986575Y155875D01*
D16*
X853352Y184113D02*
G01*
X853352Y145931D01*
X840625Y184113D02*
G01*
X866080Y184113D01*
X878079Y184113D02*
G01*
X903533Y145931D01*
X903533Y184113D02*
G01*
X878079Y145931D01*
X737510Y184113D02*
G01*
X737510Y145931D01*
X737510Y184113D02*
G01*
X753874Y184113D01*
X759328Y182294D01*
X761145Y180477D01*
X762965Y176840D01*
X762965Y173204D01*
X761145Y169567D01*
X759328Y167750D01*
X753874Y165931D01*
X737510Y165931D01*
X750237Y165931D02*
G01*
X762965Y145931D01*
X774965Y184113D02*
G01*
X800419Y145931D01*
X800419Y184113D02*
G01*
X774965Y145931D01*
D44*
X654499Y169499D02*
G01*
X653400Y171799D01*
X651100Y174099D01*
X648899Y175199D01*
X644299Y175199D01*
X641999Y174099D01*
X639800Y171799D01*
X638600Y169499D01*
X637500Y166100D01*
X637500Y160500D01*
X638600Y156999D01*
X639800Y154800D01*
X641999Y152500D01*
X644299Y151399D01*
X648899Y151399D01*
X651100Y152500D01*
X653400Y154800D01*
X654499Y156999D01*
X654499Y160500D01*
X648899Y160500D02*
G01*
X654499Y160500D01*
X661999Y175199D02*
G01*
X661999Y151399D01*
X661999Y175199D02*
G01*
X678000Y151399D01*
X678000Y175199D02*
G01*
X678000Y151399D01*
X685500Y175199D02*
G01*
X685500Y151399D01*
X685500Y175199D02*
G01*
X693400Y175199D01*
X696799Y174099D01*
X699099Y171799D01*
X700199Y169499D01*
X701399Y166100D01*
X701399Y160500D01*
X700199Y156999D01*
X699099Y154800D01*
X696799Y152500D01*
X693400Y151399D01*
X685500Y151399D01*
X1376450Y1221095D02*
G01*
X1375249Y1223395D01*
X1373050Y1225695D01*
X1370749Y1226795D01*
X1366149Y1226795D01*
X1363950Y1225695D01*
X1361649Y1223395D01*
X1360550Y1221095D01*
X1359350Y1217694D01*
X1359350Y1212094D01*
X1360550Y1208595D01*
X1361649Y1206395D01*
X1363950Y1204095D01*
X1366149Y1202995D01*
X1370749Y1202995D01*
X1373050Y1204095D01*
X1375249Y1206395D01*
X1376450Y1208595D01*
X1389650Y1226795D02*
G01*
X1386149Y1225695D01*
X1385050Y1223395D01*
X1385050Y1221095D01*
X1386149Y1218895D01*
X1388450Y1217694D01*
X1393050Y1216595D01*
X1396450Y1215495D01*
X1398649Y1213195D01*
X1399849Y1210895D01*
X1399849Y1207494D01*
X1398649Y1205194D01*
X1397550Y1204095D01*
X1394149Y1202995D01*
X1389650Y1202995D01*
X1386149Y1204095D01*
X1385050Y1205194D01*
X1383950Y1207494D01*
X1383950Y1210895D01*
X1385050Y1213195D01*
X1387349Y1215495D01*
X1390749Y1216595D01*
X1395249Y1217694D01*
X1397550Y1218895D01*
X1398649Y1221095D01*
X1398649Y1223395D01*
X1397550Y1225695D01*
X1394149Y1226795D01*
X1389650Y1226795D01*
D16*
X519299Y869000D02*
G01*
X516999Y867800D01*
X514800Y865599D01*
X513600Y863299D01*
X512500Y859899D01*
X512500Y854200D01*
X513600Y850799D01*
X514800Y848499D01*
X516999Y846199D01*
X519299Y845100D01*
X523899Y845100D01*
X526100Y846199D01*
X528400Y848499D01*
X529499Y850799D01*
X530700Y854200D01*
X530700Y859899D01*
X529499Y863299D01*
X528400Y865599D01*
X526100Y867800D01*
X523899Y869000D01*
X519299Y869000D01*
X522699Y849699D02*
G01*
X529499Y842800D01*
X538200Y864400D02*
G01*
X540500Y865599D01*
X543899Y869000D01*
X543899Y845100D01*
X455500Y363499D02*
G01*
X453200Y362399D01*
X450900Y360100D01*
X449800Y357800D01*
X448699Y354400D01*
X448699Y348699D01*
X449800Y345300D01*
X450900Y343000D01*
X453200Y340799D01*
X455500Y339600D01*
X460000Y339600D01*
X462300Y340799D01*
X464600Y343000D01*
X465700Y345300D01*
X466900Y348699D01*
X466900Y354400D01*
X465700Y357800D01*
X464600Y360100D01*
X462300Y362399D01*
X460000Y363499D01*
X455500Y363499D01*
X458899Y344200D02*
G01*
X465700Y337399D01*
X475500Y357800D02*
G01*
X475500Y358899D01*
X476599Y361199D01*
X477800Y362399D01*
X480000Y363499D01*
X484600Y363499D01*
X486900Y362399D01*
X488000Y361199D01*
X489099Y358899D01*
X489099Y356700D01*
X488000Y354400D01*
X485700Y350999D01*
X474400Y339600D01*
X490300Y339600D01*
X581799Y475199D02*
G01*
X579499Y474099D01*
X577300Y471799D01*
X576100Y469499D01*
X575000Y466100D01*
X575000Y460500D01*
X576100Y456999D01*
X577300Y454800D01*
X579499Y452500D01*
X581799Y451399D01*
X586399Y451399D01*
X588600Y452500D01*
X590900Y454800D01*
X591999Y456999D01*
X593200Y460500D01*
X593200Y466100D01*
X591999Y469499D01*
X590900Y471799D01*
X588600Y474099D01*
X586399Y475199D01*
X581799Y475199D01*
X585199Y455900D02*
G01*
X591999Y449099D01*
X603000Y475199D02*
G01*
X615500Y475199D01*
X608600Y466100D01*
X611999Y466100D01*
X614299Y465000D01*
X615500Y463899D01*
X616599Y460500D01*
X616599Y458200D01*
X615500Y454800D01*
X613200Y452500D01*
X609800Y451399D01*
X606399Y451399D01*
X603000Y452500D01*
X601799Y453600D01*
X600700Y455900D01*
X455500Y519699D02*
G01*
X453200Y518499D01*
X450900Y516300D01*
X449800Y514000D01*
X448699Y510599D01*
X448699Y504899D01*
X449800Y501500D01*
X450900Y499200D01*
X453200Y496900D01*
X455500Y495799D01*
X460000Y495799D01*
X462300Y496900D01*
X464600Y499200D01*
X465700Y501500D01*
X466900Y504899D01*
X466900Y510599D01*
X465700Y514000D01*
X464600Y516300D01*
X462300Y518499D01*
X460000Y519699D01*
X455500Y519699D01*
X458899Y500399D02*
G01*
X465700Y493499D01*
X485700Y519699D02*
G01*
X474400Y503800D01*
X491399Y503800D01*
X485700Y519699D02*
G01*
X485700Y495799D01*
X581799Y631500D02*
G01*
X579499Y630300D01*
X577300Y628099D01*
X576100Y625799D01*
X575000Y622399D01*
X575000Y616700D01*
X576100Y613299D01*
X577300Y610999D01*
X579499Y608699D01*
X581799Y607600D01*
X586399Y607600D01*
X588600Y608699D01*
X590900Y610999D01*
X591999Y613299D01*
X593200Y616700D01*
X593200Y622399D01*
X591999Y625799D01*
X590900Y628099D01*
X588600Y630300D01*
X586399Y631500D01*
X581799Y631500D01*
X585199Y612199D02*
G01*
X591999Y605300D01*
X614299Y631500D02*
G01*
X603000Y631500D01*
X601799Y621199D01*
X603000Y622399D01*
X606399Y623499D01*
X609800Y623499D01*
X613200Y622399D01*
X615500Y620100D01*
X616599Y616700D01*
X616599Y614400D01*
X615500Y610999D01*
X613200Y608699D01*
X609800Y607600D01*
X606399Y607600D01*
X603000Y608699D01*
X601799Y609899D01*
X600700Y612199D01*
X455500Y675999D02*
G01*
X453200Y674899D01*
X450999Y672600D01*
X449800Y670300D01*
X448699Y666900D01*
X448699Y661199D01*
X449800Y657800D01*
X450999Y655500D01*
X453200Y653299D01*
X455500Y652100D01*
X460000Y652100D01*
X462300Y653299D01*
X464600Y655500D01*
X465700Y657800D01*
X466900Y661199D01*
X466900Y666900D01*
X465700Y670300D01*
X464600Y672600D01*
X462300Y674899D01*
X460000Y675999D01*
X455500Y675999D01*
X458899Y656700D02*
G01*
X465700Y649899D01*
X488000Y672600D02*
G01*
X486900Y674899D01*
X483499Y675999D01*
X481199Y675999D01*
X477800Y674899D01*
X475500Y671399D01*
X474400Y665799D01*
X474400Y660100D01*
X475500Y655500D01*
X477800Y653299D01*
X481199Y652100D01*
X482300Y652100D01*
X485700Y653299D01*
X488000Y655500D01*
X489099Y658899D01*
X489099Y660100D01*
X488000Y663499D01*
X485700Y665799D01*
X482300Y666900D01*
X481199Y666900D01*
X477800Y665799D01*
X475500Y663499D01*
X474400Y660100D01*
X575520Y753375D02*
G01*
X573319Y752175D01*
X571019Y749974D01*
X569920Y747674D01*
X568719Y744274D01*
X568719Y738575D01*
X569920Y735174D01*
X571019Y732874D01*
X573319Y730574D01*
X575520Y729475D01*
X580120Y729475D01*
X582420Y730574D01*
X584619Y732874D01*
X585819Y735174D01*
X586920Y738575D01*
X586920Y744274D01*
X585819Y747674D01*
X584619Y749974D01*
X582420Y752175D01*
X580120Y753375D01*
X575520Y753375D01*
X579020Y734074D02*
G01*
X585819Y727175D01*
X610320Y753375D02*
G01*
X599020Y729475D01*
X594420Y753375D02*
G01*
X610320Y753375D01*
X1037494Y184099D02*
G01*
X1037494Y145900D01*
X1037494Y184099D02*
G01*
X1053895Y184099D01*
X1059295Y182300D01*
X1061094Y180500D01*
X1062995Y176799D01*
X1062995Y173200D01*
X1061094Y169600D01*
X1059295Y167699D01*
X1053895Y165900D01*
X1037494Y165900D01*
X1050195Y165900D02*
G01*
X1062995Y145900D01*
X1074994Y184099D02*
G01*
X1074994Y145900D01*
X1074994Y184099D02*
G01*
X1098594Y184099D01*
X1074994Y165900D02*
G01*
X1089494Y165900D01*
X1074994Y145900D02*
G01*
X1098594Y145900D01*
X1135995Y178699D02*
G01*
X1132394Y182300D01*
X1126994Y184099D01*
X1119695Y184099D01*
X1114194Y182300D01*
X1110595Y178699D01*
X1110595Y175000D01*
X1112394Y171399D01*
X1114194Y169600D01*
X1117894Y167699D01*
X1128795Y164099D01*
X1132394Y162300D01*
X1134194Y160500D01*
X1135995Y156799D01*
X1135995Y151399D01*
X1132394Y147699D01*
X1126994Y145900D01*
X1119695Y145900D01*
X1114194Y147699D01*
X1110595Y151399D01*
X1147995Y184099D02*
G01*
X1147995Y145900D01*
X1147995Y184099D02*
G01*
X1171694Y184099D01*
X1147995Y165900D02*
G01*
X1162595Y165900D01*
X1147995Y145900D02*
G01*
X1171694Y145900D01*
X1196395Y184099D02*
G01*
X1196395Y145900D01*
X1183694Y184099D02*
G01*
X1209094Y184099D01*
D38*
X1562025Y221250D02*
G01*
X1565625Y224850D01*
X1562025Y228449D01*
X1558325Y224850D01*
X1562025Y221250D01*
D44*
X1256250Y1359574D02*
G01*
X1256250Y1335774D01*
X1256250Y1359574D02*
G01*
X1266450Y1359574D01*
X1269849Y1358474D01*
X1271049Y1357375D01*
X1272150Y1355075D01*
X1272150Y1352775D01*
X1271049Y1350475D01*
X1269849Y1349375D01*
X1266450Y1348274D01*
X1256250Y1348274D01*
X1264250Y1348274D02*
G01*
X1272150Y1335774D01*
X1279650Y1355075D02*
G01*
X1281949Y1356174D01*
X1285349Y1359574D01*
X1285349Y1335774D01*
X1307650Y1351675D02*
G01*
X1306450Y1348274D01*
X1304250Y1345974D01*
X1300749Y1344875D01*
X1299650Y1344875D01*
X1296250Y1345974D01*
X1293950Y1348274D01*
X1292849Y1351675D01*
X1292849Y1352775D01*
X1293950Y1356174D01*
X1296250Y1358474D01*
X1299650Y1359574D01*
X1300749Y1359574D01*
X1304250Y1358474D01*
X1306450Y1356174D01*
X1307650Y1351675D01*
X1307650Y1345974D01*
X1306450Y1340275D01*
X1304250Y1336875D01*
X1300749Y1335774D01*
X1298549Y1335774D01*
X1295150Y1336875D01*
X1293950Y1339175D01*
X1171875Y1359574D02*
G01*
X1171875Y1335774D01*
X1171875Y1359574D02*
G01*
X1182075Y1359574D01*
X1185474Y1358474D01*
X1186674Y1357375D01*
X1187775Y1355075D01*
X1187775Y1352775D01*
X1186674Y1350475D01*
X1185474Y1349375D01*
X1182075Y1348274D01*
X1171875Y1348274D01*
X1179875Y1348274D02*
G01*
X1187775Y1335774D01*
X1196374Y1353874D02*
G01*
X1196374Y1355075D01*
X1197574Y1357375D01*
X1198675Y1358474D01*
X1200974Y1359574D01*
X1205474Y1359574D01*
X1207775Y1358474D01*
X1208874Y1357375D01*
X1210074Y1355075D01*
X1210074Y1352775D01*
X1208874Y1350475D01*
X1206674Y1347074D01*
X1195275Y1335774D01*
X1211175Y1335774D01*
X1225474Y1359574D02*
G01*
X1222075Y1358474D01*
X1219875Y1355075D01*
X1218675Y1349375D01*
X1218675Y1345974D01*
X1219875Y1340275D01*
X1222075Y1336875D01*
X1225474Y1335774D01*
X1227775Y1335774D01*
X1231175Y1336875D01*
X1233474Y1340275D01*
X1234575Y1345974D01*
X1234575Y1349375D01*
X1233474Y1355075D01*
X1231175Y1358474D01*
X1227775Y1359574D01*
X1225474Y1359574D01*
X818750Y1193949D02*
G01*
X818750Y1170149D01*
X818750Y1193949D02*
G01*
X828950Y1193949D01*
X832349Y1192849D01*
X833549Y1191750D01*
X834650Y1189450D01*
X834650Y1187150D01*
X833549Y1184850D01*
X832349Y1183750D01*
X828950Y1182649D01*
X818750Y1182649D01*
X826750Y1182649D02*
G01*
X834650Y1170149D01*
X843249Y1188249D02*
G01*
X843249Y1189450D01*
X844449Y1191750D01*
X845550Y1192849D01*
X847849Y1193949D01*
X852349Y1193949D01*
X854650Y1192849D01*
X855749Y1191750D01*
X856949Y1189450D01*
X856949Y1187150D01*
X855749Y1184850D01*
X853549Y1181449D01*
X842150Y1170149D01*
X858050Y1170149D01*
X865550Y1189450D02*
G01*
X867849Y1190549D01*
X871250Y1193949D01*
X871250Y1170149D01*
X1610749Y1166379D02*
G01*
X1609650Y1168679D01*
X1607349Y1170979D01*
X1605150Y1172080D01*
X1600550Y1172080D01*
X1598249Y1170979D01*
X1596049Y1168679D01*
X1594849Y1166379D01*
X1593750Y1162979D01*
X1593750Y1157379D01*
X1594849Y1153879D01*
X1596049Y1151680D01*
X1598249Y1149380D01*
X1600550Y1148279D01*
X1605150Y1148279D01*
X1607349Y1149380D01*
X1609650Y1151680D01*
X1610749Y1153879D01*
X1629650Y1172080D02*
G01*
X1618249Y1156179D01*
X1635349Y1156179D01*
X1629650Y1172080D02*
G01*
X1629650Y1148279D01*
X1479489Y1322629D02*
G01*
X1478389Y1324929D01*
X1476090Y1327229D01*
X1473890Y1328330D01*
X1469290Y1328330D01*
X1466989Y1327229D01*
X1464790Y1324929D01*
X1463590Y1322629D01*
X1462489Y1319229D01*
X1462489Y1313629D01*
X1463590Y1310129D01*
X1464790Y1307930D01*
X1466989Y1305630D01*
X1469290Y1304529D01*
X1473890Y1304529D01*
X1476090Y1305630D01*
X1478389Y1307930D01*
X1479489Y1310129D01*
X1500690Y1328330D02*
G01*
X1489290Y1328330D01*
X1488190Y1318130D01*
X1489290Y1319229D01*
X1492690Y1320430D01*
X1496090Y1320430D01*
X1499489Y1319229D01*
X1501790Y1317029D01*
X1502989Y1313629D01*
X1502989Y1311329D01*
X1501790Y1307930D01*
X1499489Y1305630D01*
X1496090Y1304529D01*
X1492690Y1304529D01*
X1489290Y1305630D01*
X1488190Y1306729D01*
X1486989Y1309029D01*
X564499Y1311089D02*
G01*
X563400Y1313389D01*
X561100Y1315689D01*
X558899Y1316790D01*
X554299Y1316790D01*
X551999Y1315689D01*
X549800Y1313389D01*
X548600Y1311089D01*
X547500Y1307689D01*
X547500Y1302089D01*
X548600Y1298589D01*
X549800Y1296390D01*
X551999Y1294090D01*
X554299Y1292989D01*
X558899Y1292989D01*
X561100Y1294090D01*
X563400Y1296390D01*
X564499Y1298589D01*
X585700Y1313389D02*
G01*
X584499Y1315689D01*
X581100Y1316790D01*
X578899Y1316790D01*
X575500Y1315689D01*
X573200Y1312289D01*
X571999Y1306590D01*
X571999Y1300889D01*
X573200Y1296390D01*
X575500Y1294090D01*
X578899Y1292989D01*
X580000Y1292989D01*
X583400Y1294090D01*
X585700Y1296390D01*
X586799Y1299789D01*
X586799Y1300889D01*
X585700Y1304290D01*
X583400Y1306590D01*
X580000Y1307689D01*
X578899Y1307689D01*
X575500Y1306590D01*
X573200Y1304290D01*
X571999Y1300889D01*
D16*
X662474Y1320925D02*
G01*
X662474Y1292224D01*
X662474Y1292224D02*
G01*
X678874Y1292224D01*
X687874Y1320925D02*
G01*
X687874Y1292224D01*
X687874Y1320925D02*
G01*
X697375Y1320925D01*
X701475Y1319524D01*
X704274Y1316824D01*
X705574Y1314124D01*
X706975Y1310025D01*
X706975Y1303125D01*
X705574Y1299124D01*
X704274Y1296325D01*
X701475Y1293625D01*
X697375Y1292224D01*
X687874Y1292224D01*
X724175Y1320925D02*
G01*
X721374Y1319524D01*
X718674Y1316824D01*
X717274Y1314124D01*
X715974Y1310025D01*
X715974Y1303125D01*
X717274Y1299124D01*
X718674Y1296325D01*
X721374Y1293625D01*
X724175Y1292224D01*
X729574Y1292224D01*
X732274Y1293625D01*
X735075Y1296325D01*
X736374Y1299124D01*
X737775Y1303125D01*
X737775Y1310025D01*
X736374Y1314124D01*
X735075Y1316824D01*
X732274Y1319524D01*
X729574Y1320925D01*
X724175Y1320925D01*
X746774Y1315425D02*
G01*
X749475Y1316824D01*
X753575Y1320925D01*
X753575Y1292224D01*
X940675Y1358375D02*
G01*
X940675Y1329774D01*
X940675Y1358375D02*
G01*
X952875Y1358375D01*
X956975Y1357074D01*
X958374Y1355675D01*
X959674Y1352975D01*
X959674Y1348874D01*
X958374Y1346075D01*
X956975Y1344774D01*
X952875Y1343375D01*
X940675Y1343375D01*
X968675Y1358375D02*
G01*
X968675Y1329774D01*
X968675Y1358375D02*
G01*
X980974Y1358375D01*
X985074Y1357074D01*
X986475Y1355675D01*
X987775Y1352975D01*
X987775Y1350174D01*
X986475Y1347474D01*
X985074Y1346075D01*
X980974Y1344774D01*
X968675Y1344774D01*
X978275Y1344774D02*
G01*
X987775Y1329774D01*
X1017274Y1351574D02*
G01*
X1015874Y1354274D01*
X1013175Y1357074D01*
X1010474Y1358375D01*
X1004975Y1358375D01*
X1002274Y1357074D01*
X999575Y1354274D01*
X998175Y1351574D01*
X996774Y1347474D01*
X996774Y1340675D01*
X998175Y1336574D01*
X999575Y1333874D01*
X1002274Y1331075D01*
X1004975Y1329774D01*
X1010474Y1329774D01*
X1013175Y1331075D01*
X1015874Y1333874D01*
X1017274Y1336574D01*
X1017274Y1340675D01*
X1010474Y1340675D02*
G01*
X1017274Y1340675D01*
X1067025Y1277249D02*
G01*
X1065625Y1275850D01*
X1067025Y1274450D01*
X1068325Y1275850D01*
X1067025Y1277249D01*
X709394Y1125185D02*
G01*
X709394Y1101385D01*
X709394Y1125185D02*
G01*
X719594Y1125185D01*
X722995Y1124085D01*
X724194Y1122984D01*
X725295Y1120684D01*
X725295Y1118384D01*
X724194Y1116185D01*
X722995Y1114985D01*
X719594Y1113885D01*
X709394Y1113885D01*
X717294Y1113885D02*
G01*
X725295Y1101385D01*
X732795Y1120684D02*
G01*
X735095Y1121784D01*
X738494Y1125185D01*
X738494Y1101385D01*
X407919Y1301628D02*
G01*
X406619Y1304328D01*
X403818Y1307029D01*
X401118Y1308429D01*
X395718Y1308429D01*
X392919Y1307029D01*
X390219Y1304328D01*
X388818Y1301628D01*
X387519Y1297528D01*
X387519Y1290628D01*
X388818Y1286628D01*
X390219Y1283829D01*
X392919Y1281129D01*
X395718Y1279729D01*
X401118Y1279729D01*
X403818Y1281129D01*
X406619Y1283829D01*
X407919Y1286628D01*
X436019Y1308429D02*
G01*
X422418Y1279729D01*
X416918Y1308429D02*
G01*
X436019Y1308429D01*
D44*
X275625Y319625D02*
G01*
X275625Y295824D01*
X275625Y319625D02*
G01*
X285824Y319625D01*
X289225Y318524D01*
X290425Y317424D01*
X291525Y315124D01*
X291525Y312824D01*
X290425Y310524D01*
X289225Y309425D01*
X285824Y308324D01*
X275625Y308324D01*
X283625Y308324D02*
G01*
X291525Y295824D01*
X301325Y319625D02*
G01*
X313825Y319625D01*
X307024Y310524D01*
X310425Y310524D01*
X312624Y309425D01*
X313825Y308324D01*
X314924Y304924D01*
X314924Y302624D01*
X313825Y299225D01*
X311525Y296925D01*
X308125Y295824D01*
X304724Y295824D01*
X301325Y296925D01*
X300124Y298024D01*
X299025Y300324D01*
X275625Y400250D02*
G01*
X275625Y376449D01*
X275625Y400250D02*
G01*
X285824Y400250D01*
X289225Y399149D01*
X290425Y398049D01*
X291525Y395749D01*
X291525Y393449D01*
X290425Y391149D01*
X289225Y390050D01*
X285824Y388949D01*
X275625Y388949D01*
X283625Y388949D02*
G01*
X291525Y376449D01*
X310425Y400250D02*
G01*
X299025Y384349D01*
X316125Y384349D01*
X310425Y400250D02*
G01*
X310425Y376449D01*
X275625Y479000D02*
G01*
X275625Y455199D01*
X275625Y479000D02*
G01*
X285824Y479000D01*
X289225Y477899D01*
X290425Y476799D01*
X291525Y474499D01*
X291525Y472199D01*
X290425Y469899D01*
X289225Y468800D01*
X285824Y467699D01*
X275625Y467699D01*
X283625Y467699D02*
G01*
X291525Y455199D01*
X312624Y479000D02*
G01*
X301325Y479000D01*
X300124Y468800D01*
X301325Y469899D01*
X304724Y471100D01*
X308125Y471100D01*
X311525Y469899D01*
X313825Y467699D01*
X314924Y464299D01*
X314924Y461999D01*
X313825Y458600D01*
X311525Y456300D01*
X308125Y455199D01*
X304724Y455199D01*
X301325Y456300D01*
X300124Y457399D01*
X299025Y459699D01*
X275000Y556449D02*
G01*
X275000Y532649D01*
X275000Y556449D02*
G01*
X285199Y556449D01*
X288600Y555349D01*
X289800Y554250D01*
X290900Y551950D01*
X290900Y549650D01*
X289800Y547350D01*
X288600Y546250D01*
X285199Y545149D01*
X275000Y545149D01*
X283000Y545149D02*
G01*
X290900Y532649D01*
X311999Y553049D02*
G01*
X310900Y555349D01*
X307500Y556449D01*
X305199Y556449D01*
X301799Y555349D01*
X299499Y551950D01*
X298400Y546250D01*
X298400Y540549D01*
X299499Y536050D01*
X301799Y533750D01*
X305199Y532649D01*
X306399Y532649D01*
X309800Y533750D01*
X311999Y536050D01*
X313200Y539450D01*
X313200Y540549D01*
X311999Y543949D01*
X309800Y546250D01*
X306399Y547350D01*
X305199Y547350D01*
X301799Y546250D01*
X299499Y543949D01*
X298400Y540549D01*
X276250Y632175D02*
G01*
X276250Y608375D01*
X276250Y632175D02*
G01*
X286449Y632175D01*
X289850Y631075D01*
X291050Y629974D01*
X292150Y627674D01*
X292150Y625374D01*
X291050Y623074D01*
X289850Y621975D01*
X286449Y620875D01*
X276250Y620875D01*
X284250Y620875D02*
G01*
X292150Y608375D01*
X315549Y632175D02*
G01*
X304250Y608375D01*
X299650Y632175D02*
G01*
X315549Y632175D01*
X277500Y710275D02*
G01*
X277500Y686475D01*
X277500Y710275D02*
G01*
X287699Y710275D01*
X291100Y709175D01*
X292300Y708074D01*
X293400Y705774D01*
X293400Y703474D01*
X292300Y701174D01*
X291100Y700075D01*
X287699Y698975D01*
X277500Y698975D01*
X285500Y698975D02*
G01*
X293400Y686475D01*
X306599Y710275D02*
G01*
X303200Y709175D01*
X301999Y706875D01*
X301999Y704574D01*
X303200Y702375D01*
X305500Y701174D01*
X310000Y700075D01*
X313400Y698975D01*
X315700Y696675D01*
X316799Y694375D01*
X316799Y690974D01*
X315700Y688674D01*
X314499Y687575D01*
X311100Y686475D01*
X306599Y686475D01*
X303200Y687575D01*
X301999Y688674D01*
X300900Y690974D01*
X300900Y694375D01*
X301999Y696675D01*
X304299Y698975D01*
X307699Y700075D01*
X312300Y701174D01*
X314499Y702375D01*
X315700Y704574D01*
X315700Y706875D01*
X314499Y709175D01*
X311100Y710275D01*
X306599Y710275D01*
D16*
X618694Y979083D02*
G01*
X618694Y955183D01*
X620293Y950383D01*
X623494Y947283D01*
X628294Y945684D01*
X631493Y945684D01*
X636194Y947283D01*
X639394Y950383D01*
X640994Y955183D01*
X640994Y979083D01*
X651493Y972683D02*
G01*
X654693Y974283D01*
X659493Y979083D01*
X659493Y945684D01*
X23825Y178449D02*
G01*
X21125Y175749D01*
X19724Y171649D01*
X19724Y166149D01*
X21125Y162150D01*
X23825Y159349D01*
X26525Y159349D01*
X29225Y160749D01*
X30625Y162150D01*
X32024Y164850D01*
X34724Y173049D01*
X36125Y175749D01*
X37424Y177150D01*
X40225Y178449D01*
X44225Y178449D01*
X47024Y175749D01*
X48324Y171649D01*
X48324Y166149D01*
X47024Y162150D01*
X44225Y159349D01*
X19724Y195650D02*
G01*
X21125Y191550D01*
X25225Y188850D01*
X32024Y187449D01*
X36125Y187449D01*
X42925Y188850D01*
X47024Y191550D01*
X48324Y195650D01*
X48324Y198350D01*
X47024Y202449D01*
X42925Y205149D01*
X36125Y206550D01*
X32024Y206550D01*
X25225Y205149D01*
X21125Y202449D01*
X19724Y198350D01*
X19724Y195650D01*
X23800Y290974D02*
G01*
X21100Y288274D01*
X19699Y284175D01*
X19699Y278674D01*
X21100Y274574D01*
X23800Y271875D01*
X26500Y271875D01*
X29299Y273274D01*
X30599Y274574D01*
X31999Y277375D01*
X34699Y285475D01*
X36100Y288274D01*
X37500Y289574D01*
X40199Y290974D01*
X44299Y290974D01*
X46999Y288274D01*
X48400Y284175D01*
X48400Y278674D01*
X46999Y274574D01*
X44299Y271875D01*
X25199Y299974D02*
G01*
X23800Y302674D01*
X19699Y306774D01*
X48400Y306774D01*
X742024Y775774D02*
G01*
X740925Y778074D01*
X738625Y780374D01*
X736325Y781475D01*
X731824Y781475D01*
X729524Y780374D01*
X727224Y778074D01*
X726125Y775774D01*
X725025Y772375D01*
X725025Y766675D01*
X726125Y763274D01*
X727224Y760974D01*
X729524Y758775D01*
X731824Y757575D01*
X736325Y757575D01*
X738625Y758775D01*
X740925Y760974D01*
X742024Y763274D01*
X749524Y776975D02*
G01*
X751824Y778074D01*
X755225Y781475D01*
X755225Y757575D01*
X842074Y1025794D02*
G01*
X840874Y1028094D01*
X838674Y1030293D01*
X836373Y1031493D01*
X831773Y1031493D01*
X829574Y1030293D01*
X827273Y1028094D01*
X826174Y1025794D01*
X824974Y1022393D01*
X824974Y1016694D01*
X826174Y1013294D01*
X827273Y1010994D01*
X829574Y1008793D01*
X831773Y1007593D01*
X836373Y1007593D01*
X838674Y1008793D01*
X840874Y1010994D01*
X842074Y1013294D01*
X850673Y1025794D02*
G01*
X850673Y1026894D01*
X851773Y1029194D01*
X852974Y1030293D01*
X855273Y1031493D01*
X859773Y1031493D01*
X862074Y1030293D01*
X863173Y1029194D01*
X864273Y1026894D01*
X864273Y1024693D01*
X863173Y1022393D01*
X860874Y1018993D01*
X849574Y1007593D01*
X865474Y1007593D01*
X438924Y997629D02*
G01*
X437824Y999929D01*
X435524Y1002229D01*
X433225Y1003330D01*
X428724Y1003330D01*
X426424Y1002229D01*
X424124Y999929D01*
X423024Y997629D01*
X421925Y994229D01*
X421925Y988530D01*
X423024Y985129D01*
X424124Y982930D01*
X426424Y980630D01*
X428724Y979529D01*
X433225Y979529D01*
X435524Y980630D01*
X437824Y982930D01*
X438924Y985129D01*
X448724Y1003330D02*
G01*
X461224Y1003330D01*
X454425Y994229D01*
X457824Y994229D01*
X460025Y993130D01*
X461224Y992029D01*
X462325Y988530D01*
X462325Y986329D01*
X461224Y982930D01*
X458924Y980630D01*
X455524Y979529D01*
X452125Y979529D01*
X448724Y980630D01*
X447525Y981729D01*
X446424Y984029D01*
D44*
X859324Y284630D02*
G01*
X859324Y260729D01*
X859324Y284630D02*
G01*
X869624Y284630D01*
X873024Y283429D01*
X874125Y282330D01*
X875325Y280030D01*
X875325Y277829D01*
X874125Y275529D01*
X873024Y274329D01*
X869624Y273229D01*
X859324Y273229D01*
X867325Y273229D02*
G01*
X875325Y260729D01*
X897524Y276630D02*
G01*
X896424Y273229D01*
X894125Y270929D01*
X890725Y269830D01*
X889624Y269830D01*
X886225Y270929D01*
X883924Y273229D01*
X882825Y276630D01*
X882825Y277829D01*
X883924Y281230D01*
X886225Y283429D01*
X889624Y284630D01*
X890725Y284630D01*
X894125Y283429D01*
X896424Y281230D01*
X897524Y276630D01*
X897524Y270929D01*
X896424Y265329D01*
X894125Y261829D01*
X890725Y260729D01*
X888424Y260729D01*
X885024Y261829D01*
X883924Y264130D01*
X859345Y359654D02*
G01*
X859345Y335754D01*
X859345Y359654D02*
G01*
X869645Y359654D01*
X873045Y358454D01*
X874144Y357354D01*
X875245Y355055D01*
X875245Y352755D01*
X874144Y350554D01*
X873045Y349355D01*
X869645Y348254D01*
X859345Y348254D01*
X867344Y348254D02*
G01*
X875245Y335754D01*
X882745Y355055D02*
G01*
X885045Y356154D01*
X888445Y359654D01*
X888445Y335754D01*
X902745Y359654D02*
G01*
X899345Y358454D01*
X897145Y355055D01*
X895945Y349355D01*
X895945Y345954D01*
X897145Y340255D01*
X899345Y336855D01*
X902745Y335754D01*
X905045Y335754D01*
X908445Y336855D01*
X910744Y340255D01*
X911845Y345954D01*
X911845Y349355D01*
X910744Y355055D01*
X908445Y358454D01*
X905045Y359654D01*
X902745Y359654D01*
X859354Y440830D02*
G01*
X859354Y417029D01*
X859354Y440830D02*
G01*
X869555Y440830D01*
X873055Y439729D01*
X874155Y438629D01*
X875254Y436329D01*
X875254Y434029D01*
X874155Y431729D01*
X873055Y430630D01*
X869555Y429529D01*
X859354Y429529D01*
X867354Y429529D02*
G01*
X875254Y417029D01*
X882754Y436329D02*
G01*
X885055Y437429D01*
X888455Y440830D01*
X888455Y417029D01*
X895955Y436329D02*
G01*
X898254Y437429D01*
X901655Y440830D01*
X901655Y417029D01*
X859395Y515904D02*
G01*
X859395Y492004D01*
X859395Y515904D02*
G01*
X869594Y515904D01*
X872995Y514704D01*
X874094Y513604D01*
X875294Y511305D01*
X875294Y509005D01*
X874094Y506804D01*
X872995Y505605D01*
X869594Y504504D01*
X859395Y504504D01*
X867295Y504504D02*
G01*
X875294Y492004D01*
X882794Y511305D02*
G01*
X885095Y512404D01*
X888495Y515904D01*
X888495Y492004D01*
X897094Y510205D02*
G01*
X897094Y511305D01*
X898194Y513604D01*
X899395Y514704D01*
X901594Y515904D01*
X906194Y515904D01*
X908495Y514704D01*
X909594Y513604D01*
X910694Y511305D01*
X910694Y509005D01*
X909594Y506804D01*
X907295Y503404D01*
X895995Y492004D01*
X911895Y492004D01*
X856295Y594025D02*
G01*
X856295Y570124D01*
X856295Y594025D02*
G01*
X866495Y594025D01*
X869894Y592824D01*
X870995Y591725D01*
X872195Y589425D01*
X872195Y587125D01*
X870995Y584924D01*
X869894Y583724D01*
X866495Y582624D01*
X856295Y582624D01*
X864194Y582624D02*
G01*
X872195Y570124D01*
X879695Y589425D02*
G01*
X881895Y590524D01*
X885294Y594025D01*
X885294Y570124D01*
X895095Y594025D02*
G01*
X907595Y594025D01*
X900794Y584924D01*
X904194Y584924D01*
X906495Y583724D01*
X907595Y582624D01*
X908795Y579225D01*
X908795Y576925D01*
X907595Y573524D01*
X905294Y571224D01*
X901895Y570124D01*
X898495Y570124D01*
X895095Y571224D01*
X893995Y572424D01*
X892794Y574625D01*
X856295Y675205D02*
G01*
X856295Y651404D01*
X856295Y675205D02*
G01*
X866495Y675205D01*
X869894Y674104D01*
X870995Y673004D01*
X872195Y670704D01*
X872195Y668404D01*
X870995Y666104D01*
X869894Y665005D01*
X866495Y663904D01*
X856295Y663904D01*
X864194Y663904D02*
G01*
X872195Y651404D01*
X879695Y670704D02*
G01*
X881895Y671804D01*
X885294Y675205D01*
X885294Y651404D01*
X904194Y675205D02*
G01*
X892794Y659304D01*
X909894Y659304D01*
X904194Y675205D02*
G01*
X904194Y651404D01*
D16*
X16649Y675025D02*
G01*
X45250Y675025D01*
X16649Y675025D02*
G01*
X45250Y685925D01*
X16649Y696824D02*
G01*
X45250Y685925D01*
X16649Y696824D02*
G01*
X45250Y696824D01*
X22049Y705824D02*
G01*
X20650Y708524D01*
X16649Y712624D01*
X45250Y712624D01*
D44*
X356269Y772105D02*
G01*
X356269Y748204D01*
X356269Y772105D02*
G01*
X366469Y772105D01*
X369870Y771005D01*
X371069Y769805D01*
X372170Y767604D01*
X372170Y765304D01*
X371069Y763004D01*
X369870Y761905D01*
X366469Y760704D01*
X356269Y760704D01*
X364169Y760704D02*
G01*
X372170Y748204D01*
X379670Y767604D02*
G01*
X381970Y768704D01*
X385369Y772105D01*
X385369Y748204D01*
X406469Y772105D02*
G01*
X395070Y772105D01*
X393969Y761905D01*
X395070Y763004D01*
X398569Y764104D01*
X401970Y764104D01*
X405369Y763004D01*
X407570Y760704D01*
X408769Y757305D01*
X408769Y755104D01*
X407570Y751604D01*
X405369Y749405D01*
X401970Y748204D01*
X398569Y748204D01*
X395070Y749405D01*
X393969Y750504D01*
X392869Y752804D01*
D16*
X337519Y1003339D02*
G01*
X337519Y979439D01*
X337519Y1003339D02*
G01*
X347719Y1003339D01*
X351120Y1002240D01*
X352319Y1001039D01*
X353420Y998840D01*
X353420Y996540D01*
X352319Y994239D01*
X351120Y993139D01*
X347719Y991939D01*
X337519Y991939D01*
X345419Y991939D02*
G01*
X353420Y979439D01*
X362020Y997640D02*
G01*
X362020Y998840D01*
X363220Y1001039D01*
X364319Y1002240D01*
X366619Y1003339D01*
X371120Y1003339D01*
X373420Y1002240D01*
X374520Y1001039D01*
X375720Y998840D01*
X375720Y996540D01*
X374520Y994239D01*
X372319Y990839D01*
X360920Y979439D01*
X376819Y979439D01*
X446900Y1059600D02*
G01*
X446900Y1035700D01*
X446900Y1059600D02*
G01*
X454800Y1059600D01*
X458200Y1058499D01*
X460500Y1056199D01*
X461599Y1053899D01*
X462800Y1050500D01*
X462800Y1044800D01*
X461599Y1041399D01*
X460500Y1039099D01*
X458200Y1036900D01*
X454800Y1035700D01*
X446900Y1035700D01*
X470300Y1055100D02*
G01*
X472600Y1056199D01*
X475999Y1059600D01*
X475999Y1035700D01*
X446900Y1137699D02*
G01*
X446900Y1113899D01*
X446900Y1137699D02*
G01*
X454800Y1137699D01*
X458200Y1136599D01*
X460500Y1134299D01*
X461599Y1131999D01*
X462800Y1128600D01*
X462800Y1122899D01*
X461599Y1119499D01*
X460500Y1117300D01*
X458200Y1115000D01*
X454800Y1113899D01*
X446900Y1113899D01*
X471399Y1131999D02*
G01*
X471399Y1133200D01*
X472600Y1135399D01*
X473699Y1136599D01*
X475999Y1137699D01*
X480500Y1137699D01*
X482800Y1136599D01*
X483899Y1135399D01*
X485100Y1133200D01*
X485100Y1130900D01*
X483899Y1128600D01*
X481599Y1125199D01*
X470300Y1113899D01*
X486199Y1113899D01*
X16574Y375000D02*
G01*
X45275Y375000D01*
X16574Y375000D02*
G01*
X16574Y392699D01*
X30275Y375000D02*
G01*
X30275Y385900D01*
X45275Y375000D02*
G01*
X45275Y392699D01*
X16574Y409899D02*
G01*
X17975Y405799D01*
X22074Y403099D01*
X28874Y401700D01*
X32975Y401700D01*
X39774Y403099D01*
X43874Y405799D01*
X45275Y409899D01*
X45275Y412600D01*
X43874Y416700D01*
X39774Y419499D01*
X32975Y420799D01*
X28874Y420799D01*
X22074Y419499D01*
X17975Y416700D01*
X16574Y412600D01*
X16574Y409899D01*
X16574Y475000D02*
G01*
X45275Y475000D01*
X16574Y475000D02*
G01*
X16574Y492699D01*
X30275Y475000D02*
G01*
X30275Y485900D01*
X45275Y475000D02*
G01*
X45275Y492699D01*
X22074Y501700D02*
G01*
X20675Y504499D01*
X16574Y508499D01*
X45275Y508499D01*
X16574Y575000D02*
G01*
X45275Y575000D01*
X16574Y575000D02*
G01*
X45275Y585900D01*
X16574Y596799D02*
G01*
X45275Y585900D01*
X16574Y596799D02*
G01*
X45275Y596799D01*
X16574Y614000D02*
G01*
X17975Y609899D01*
X22074Y607199D01*
X28874Y605799D01*
X32975Y605799D01*
X39774Y607199D01*
X43874Y609899D01*
X45275Y614000D01*
X45275Y616700D01*
X43874Y620799D01*
X39774Y623499D01*
X32975Y624899D01*
X28874Y624899D01*
X22074Y623499D01*
X17975Y620799D01*
X16574Y616700D01*
X16574Y614000D01*
G36*
X326240Y1081580D02*
G01*
X326240Y1067720D01*
X338240Y1067720D01*
X338240Y1081580D01*
G37*
G36*
X326240Y1032280D02*
G01*
X326240Y1018400D01*
X338240Y1018400D01*
X338240Y1032280D01*
G37*
G36*
X399260Y1110400D02*
G01*
X399260Y1096520D01*
X411260Y1096520D01*
X411260Y1110400D01*
G37*
G36*
X399260Y1159720D02*
G01*
X399260Y1145840D01*
X411260Y1145840D01*
X411260Y1159720D01*
G37*
X1261491Y95720D02*
G01*
X1261491Y57968D01*
X1313508Y57968D01*
X1313508Y95720D01*
X1261491Y129279D02*
G01*
X1261491Y167031D01*
X1313508Y167031D01*
X1313508Y129279D01*
D38*
X1018750Y189061D02*
G01*
X1018750Y10936D01*
X618750Y189061D02*
G01*
X618750Y10936D01*
X618750Y31250D02*
G01*
X618750Y131250D01*
X1018750Y131250D01*
X1018750Y31250D01*
X943750Y31250D01*
D39*
X618750Y31250D02*
G01*
X943750Y31250D01*
D40*
X1372218Y1235974D02*
G01*
X1354503Y1235974D01*
X1372218Y1326525D02*
G01*
X1354503Y1326525D01*
X1343125Y1245817D02*
G01*
X1343125Y1316682D01*
X1352968Y1326525D02*
G01*
X1354503Y1326525D01*
X1352969Y1235974D02*
G01*
X1354503Y1235974D01*
X1384031Y1235974D02*
G01*
X1401747Y1235974D01*
X1384031Y1326525D02*
G01*
X1401747Y1326525D01*
X1413557Y1245817D02*
G01*
X1413557Y1316682D01*
X1403712Y1235974D02*
G01*
X1401747Y1235974D01*
X1403714Y1326525D02*
G01*
X1401747Y1326525D01*
D16*
X499508Y718013D02*
G01*
X556691Y718013D01*
X556691Y758627D01*
X499508Y838186D02*
G01*
X556691Y838186D01*
X556691Y797572D01*
X499508Y760171D02*
G01*
X499508Y796028D01*
X556691Y369486D02*
G01*
X499508Y369486D01*
X499508Y328872D01*
X556691Y249313D02*
G01*
X499508Y249313D01*
X499508Y289927D01*
X556691Y327328D02*
G01*
X556691Y291471D01*
X675491Y447586D02*
G01*
X618308Y447586D01*
X618308Y406972D01*
X675491Y327413D02*
G01*
X618308Y327413D01*
X618308Y368027D01*
X675491Y405428D02*
G01*
X675491Y369571D01*
X556691Y525686D02*
G01*
X499508Y525686D01*
X499508Y485072D01*
X556691Y405513D02*
G01*
X499508Y405513D01*
X499508Y446127D01*
X556691Y483528D02*
G01*
X556691Y447671D01*
X675491Y603787D02*
G01*
X618308Y603787D01*
X618308Y563171D01*
X675491Y483613D02*
G01*
X618308Y483613D01*
X618308Y524227D01*
X675491Y561628D02*
G01*
X675491Y525770D01*
X556691Y681986D02*
G01*
X499508Y681986D01*
X499508Y641372D01*
X556691Y561813D02*
G01*
X499508Y561813D01*
X499508Y602427D01*
X556691Y639828D02*
G01*
X556691Y603971D01*
X675491Y760086D02*
G01*
X618308Y760086D01*
X618308Y719472D01*
X675491Y639913D02*
G01*
X618308Y639913D01*
X618308Y680527D01*
X675491Y717928D02*
G01*
X675491Y682071D01*
D39*
X1218750Y131250D02*
G01*
X1093750Y131250D01*
D38*
X1218750Y131250D02*
G01*
X1218750Y31250D01*
X1018750Y31250D01*
X1018750Y131250D01*
X1093750Y131250D01*
D10*
X1494085Y1154679D02*
G01*
X1577142Y1154679D01*
X1415345Y1154679D02*
G01*
X1424704Y1154679D01*
X1336606Y1154679D02*
G01*
X1345964Y1154679D01*
X1257866Y1154679D02*
G01*
X1267223Y1154679D01*
X1179125Y1154679D02*
G01*
X1188483Y1154679D01*
X1100385Y1154679D02*
G01*
X1109744Y1154679D01*
X947597Y1154679D02*
G01*
X1031004Y1154679D01*
X1577142Y1131150D02*
G01*
X1577142Y1154679D01*
X1577142Y1052411D02*
G01*
X1577142Y1061768D01*
X1577142Y973670D02*
G01*
X1577142Y983029D01*
X1577142Y894931D02*
G01*
X1577142Y904288D01*
X1577142Y816190D02*
G01*
X1577142Y825549D01*
X1577142Y737451D02*
G01*
X1577142Y746808D01*
X1577142Y658710D02*
G01*
X1577142Y668069D01*
X1577142Y579971D02*
G01*
X1577142Y589328D01*
X1577142Y216062D02*
G01*
X1577142Y510588D01*
X947597Y1131150D02*
G01*
X947597Y1154679D01*
X947597Y1052400D02*
G01*
X947597Y1061768D01*
X947597Y973661D02*
G01*
X947597Y983018D01*
X947597Y894920D02*
G01*
X947597Y904279D01*
X947597Y816181D02*
G01*
X947597Y825538D01*
X947597Y737440D02*
G01*
X947597Y746799D01*
X947597Y658701D02*
G01*
X947597Y668058D01*
X947597Y579960D02*
G01*
X947597Y589319D01*
X947597Y209798D02*
G01*
X947597Y510578D01*
X947597Y209798D02*
G01*
X1577518Y209798D01*
X1538148Y485389D02*
G01*
X986967Y485389D01*
X1065708Y446019D02*
G01*
X1459408Y446019D01*
X1459408Y249169D01*
X1420038Y249169D01*
X1420038Y367278D01*
X1380667Y367278D01*
X1380667Y249169D01*
X1341297Y249169D01*
X1341297Y367278D01*
X1301927Y367278D01*
X1301927Y249169D01*
X1262557Y249169D01*
X1262557Y367278D01*
X1223188Y367278D01*
X1223188Y249169D01*
X986967Y249169D01*
X1498778Y564128D02*
G01*
X1498778Y1075938D01*
X1026337Y1075938D01*
X1026337Y564128D01*
X1498778Y564128D01*
D16*
X1255241Y1255095D02*
G01*
X1255241Y1217343D01*
X1307258Y1217343D01*
X1307258Y1255095D01*
X1255241Y1288654D02*
G01*
X1255241Y1326406D01*
X1307258Y1326406D01*
X1307258Y1288654D01*
X1232258Y1288654D02*
G01*
X1232258Y1326406D01*
X1180241Y1326406D01*
X1180241Y1288654D01*
X1232258Y1255095D02*
G01*
X1232258Y1217343D01*
X1180241Y1217343D01*
X1180241Y1255095D01*
X820866Y1089470D02*
G01*
X820866Y1051718D01*
X872883Y1051718D01*
X872883Y1089470D01*
X820866Y1123029D02*
G01*
X820866Y1160781D01*
X872883Y1160781D01*
X872883Y1123029D01*
D10*
X1615739Y1185900D02*
G01*
X1584242Y1185900D01*
X1627938Y1229591D02*
G01*
X1627938Y1198096D01*
X1572046Y1229591D02*
G01*
X1572046Y1198096D01*
X1628167Y1252264D02*
G01*
X1628167Y1283760D01*
X1615968Y1295958D02*
G01*
X1584474Y1295958D01*
X1572277Y1252264D02*
G01*
X1572277Y1283760D01*
X1540739Y1185900D02*
G01*
X1509242Y1185900D01*
X1552938Y1229591D02*
G01*
X1552938Y1198096D01*
X1497046Y1229591D02*
G01*
X1497046Y1198096D01*
X1553167Y1252264D02*
G01*
X1553167Y1283760D01*
X1540968Y1295958D02*
G01*
X1509474Y1295958D01*
X1497277Y1252264D02*
G01*
X1497277Y1283760D01*
X549886Y1279724D02*
G01*
X581383Y1279724D01*
X537687Y1236033D02*
G01*
X537687Y1267528D01*
X593578Y1236033D02*
G01*
X593578Y1267528D01*
X537458Y1213360D02*
G01*
X537458Y1181864D01*
X549656Y1169666D02*
G01*
X581150Y1169666D01*
X593348Y1213360D02*
G01*
X593348Y1181864D01*
X741685Y1276651D02*
G01*
X670817Y1276651D01*
X741685Y1231376D02*
G01*
X741685Y1199879D01*
X741685Y1154603D02*
G01*
X670817Y1154603D01*
X953125Y1262500D02*
G01*
X928125Y1237500D01*
X925124Y1237500D01*
X952124Y1237500D02*
G01*
X953125Y1237500D01*
X953125Y1287500D01*
X903125Y1237500D01*
X903125Y1287500D01*
X928125Y1287500D02*
G01*
X903125Y1262500D01*
X1078125Y1237500D02*
G01*
X878125Y1237500D01*
X878125Y1287500D01*
X1078125Y1287500D01*
X1078125Y1237500D01*
X1084425Y1319189D02*
G01*
X1084425Y1205799D01*
X871824Y1205799D01*
X871824Y1319189D01*
X1084425Y1319189D01*
D16*
X623845Y1138508D02*
G01*
X586093Y1138508D01*
X586093Y1086491D01*
X623845Y1086491D01*
X657404Y1138508D02*
G01*
X695156Y1138508D01*
X695156Y1086491D01*
X657404Y1086491D01*
X501179Y1268015D02*
G01*
X442714Y1268015D01*
X442714Y1181984D02*
G01*
X501179Y1181984D01*
X507179Y1187984D02*
G01*
X507179Y1262015D01*
X311320Y1268015D02*
G01*
X369785Y1268015D01*
X369785Y1181984D02*
G01*
X311320Y1181984D01*
X305320Y1187984D02*
G01*
X305320Y1262015D01*
D38*
X59375Y765625D02*
G01*
X259375Y765625D01*
X259375Y1065625D01*
X59375Y1065625D01*
X59375Y765625D01*
X59375Y957294D01*
D16*
X364470Y335383D02*
G01*
X326718Y335383D01*
X326718Y283366D01*
X364470Y283366D01*
X398029Y335383D02*
G01*
X435781Y335383D01*
X435781Y283366D01*
X398029Y283366D01*
X364470Y413508D02*
G01*
X326718Y413508D01*
X326718Y361491D01*
X364470Y361491D01*
X398029Y413508D02*
G01*
X435781Y413508D01*
X435781Y361491D01*
X398029Y361491D01*
X364470Y491633D02*
G01*
X326718Y491633D01*
X326718Y439616D01*
X364470Y439616D01*
X398029Y491633D02*
G01*
X435781Y491633D01*
X435781Y439616D01*
X398029Y439616D01*
X364470Y569758D02*
G01*
X326718Y569758D01*
X326718Y517741D01*
X364470Y517741D01*
X398029Y569758D02*
G01*
X435781Y569758D01*
X435781Y517741D01*
X398029Y517741D01*
X364470Y647883D02*
G01*
X326718Y647883D01*
X326718Y595866D01*
X364470Y595866D01*
X398029Y647883D02*
G01*
X435781Y647883D01*
X435781Y595866D01*
X398029Y595866D01*
X364470Y726008D02*
G01*
X326718Y726008D01*
X326718Y673991D01*
X364470Y673991D01*
X398029Y726008D02*
G01*
X435781Y726008D01*
X435781Y673991D01*
X398029Y673991D01*
X580727Y1061957D02*
G01*
X700522Y1061957D01*
X700522Y863042D01*
X580727Y863042D01*
X580727Y1061957D01*
D39*
X259375Y243750D02*
G01*
X134375Y243750D01*
D38*
X259375Y243750D02*
G01*
X259375Y143750D01*
X59375Y143750D01*
X59375Y243750D01*
X134375Y243750D01*
D39*
X259375Y343750D02*
G01*
X134375Y343750D01*
D38*
X259375Y343750D02*
G01*
X259375Y243750D01*
X59375Y243750D01*
X59375Y343750D01*
X134375Y343750D01*
D10*
X280605Y1086864D02*
G01*
X280605Y1283715D01*
X44385Y1086864D02*
G01*
X44385Y1283715D01*
X44385Y1283715D02*
G01*
X280605Y1283715D01*
X44385Y1086864D02*
G01*
X280605Y1086864D01*
X128418Y1086864D02*
G01*
X128418Y1105605D01*
X192474Y1105605D01*
X192474Y1086864D01*
X720275Y806136D02*
G01*
X720275Y837633D01*
X763966Y793937D02*
G01*
X732471Y793937D01*
X763966Y849828D02*
G01*
X732471Y849828D01*
X786638Y793708D02*
G01*
X818135Y793708D01*
X830333Y805906D02*
G01*
X830333Y837400D01*
X786638Y849598D02*
G01*
X818135Y849598D01*
X862614Y885900D02*
G01*
X831117Y885900D01*
X874813Y929591D02*
G01*
X874813Y898096D01*
X818921Y929591D02*
G01*
X818921Y898096D01*
X875042Y952264D02*
G01*
X875042Y983760D01*
X862843Y995958D02*
G01*
X831349Y995958D01*
X819152Y952264D02*
G01*
X819152Y983760D01*
X428011Y964095D02*
G01*
X459508Y964095D01*
X415812Y920403D02*
G01*
X415812Y951898D01*
X471703Y920403D02*
G01*
X471703Y951898D01*
X415583Y897730D02*
G01*
X415583Y866235D01*
X427780Y854036D02*
G01*
X459275Y854036D01*
X471473Y897730D02*
G01*
X471473Y866235D01*
D16*
X776970Y297883D02*
G01*
X739218Y297883D01*
X739218Y245866D01*
X776970Y245866D01*
X810529Y297883D02*
G01*
X848280Y297883D01*
X848280Y245866D01*
X810529Y245866D01*
X776970Y376008D02*
G01*
X739218Y376008D01*
X739218Y323991D01*
X776970Y323991D01*
X810529Y376008D02*
G01*
X848280Y376008D01*
X848280Y323991D01*
X810529Y323991D01*
X776970Y454133D02*
G01*
X739218Y454133D01*
X739218Y402116D01*
X776970Y402116D01*
X810529Y454133D02*
G01*
X848280Y454133D01*
X848280Y402116D01*
X810529Y402116D01*
X776970Y532258D02*
G01*
X739218Y532258D01*
X739218Y480241D01*
X776970Y480241D01*
X810529Y532258D02*
G01*
X848280Y532258D01*
X848280Y480241D01*
X810529Y480241D01*
X776970Y610383D02*
G01*
X739218Y610383D01*
X739218Y558366D01*
X776970Y558366D01*
X810529Y610383D02*
G01*
X848280Y610383D01*
X848280Y558366D01*
X810529Y558366D01*
X776970Y688508D02*
G01*
X739218Y688508D01*
X739218Y636491D01*
X776970Y636491D01*
X810529Y688508D02*
G01*
X848280Y688508D01*
X848280Y636491D01*
X810529Y636491D01*
D10*
X1105064Y1635970D02*
G01*
X1207425Y1635970D01*
X1105064Y1954720D02*
G01*
X1207425Y1954720D01*
X1655064Y1954720D02*
G01*
X1757425Y1954720D01*
X555064Y1954720D02*
G01*
X657426Y1954720D01*
X1655064Y1635970D02*
G01*
X1757425Y1635970D01*
X555064Y1635970D02*
G01*
X657426Y1635970D01*
D39*
X259375Y743750D02*
G01*
X134375Y743750D01*
D38*
X259375Y743750D02*
G01*
X259375Y643750D01*
X59375Y643750D01*
X59375Y743750D01*
X134375Y743750D01*
D16*
X364470Y832258D02*
G01*
X326718Y832258D01*
X326718Y780241D01*
X364470Y780241D01*
X398029Y832258D02*
G01*
X435781Y832258D01*
X435781Y780241D01*
X398029Y780241D01*
X385383Y926149D02*
G01*
X385383Y963901D01*
X333366Y963901D01*
X333366Y926149D01*
X385383Y892590D02*
G01*
X385383Y854839D01*
X333366Y854839D01*
X333366Y892590D01*
D41*
X404232Y1021404D02*
G01*
X404232Y1029522D01*
X404232Y1078586D02*
G01*
X404232Y1070860D01*
D16*
X335237Y1078586D02*
G01*
X404232Y1078586D01*
X335237Y1021404D02*
G01*
X404232Y1021404D01*
X351161Y1078586D02*
G01*
X351161Y1021404D01*
D41*
X333267Y1156711D02*
G01*
X333267Y1148591D01*
X333267Y1099529D02*
G01*
X333267Y1107253D01*
D16*
X402262Y1099529D02*
G01*
X333267Y1099529D01*
X402262Y1156711D02*
G01*
X333267Y1156711D01*
X386338Y1099529D02*
G01*
X386338Y1156711D01*
D10*
X2048819Y255956D02*
G01*
X2151180Y255956D01*
X2817569Y255956D02*
G01*
X2919930Y255956D01*
D39*
X259375Y443750D02*
G01*
X134375Y443750D01*
D38*
X259375Y443750D02*
G01*
X259375Y343750D01*
X59375Y343750D01*
X59375Y443750D01*
X134375Y443750D01*
D39*
X259375Y543750D02*
G01*
X134375Y543750D01*
D38*
X259375Y543750D02*
G01*
X259375Y443750D01*
X59375Y443750D01*
X59375Y543750D01*
X134375Y543750D01*
D39*
X259375Y643750D02*
G01*
X134375Y643750D01*
D38*
X259375Y643750D02*
G01*
X259375Y543750D01*
X59375Y543750D01*
X59375Y643750D01*
X134375Y643750D01*
D10*
X2462794Y1326943D02*
G01*
X2462794Y1429306D01*
X2287205Y1076181D02*
G01*
X2287205Y973818D01*
X2976180Y1289043D02*
G01*
X2873819Y1289043D01*
X2762794Y973818D02*
G01*
X2762794Y1076181D01*
X2176180Y1289043D02*
G01*
X2073819Y1289043D01*
X2762794Y1326943D02*
G01*
X2762794Y1429306D01*
D40*
G75*
G01*
X1343125Y1316683D02*
G02*
X1352968Y1326526I9843J0D01*
G75*
G01*
X1343125Y1245818D02*
G03*
X1352969Y1235974I9844J0D01*
G75*
G01*
X1413557Y1245818D02*
G02*
X1403713Y1235974I-9844J0D01*
G75*
G01*
X1413557Y1316683D02*
G03*
X1403714Y1326526I-9843J0D01*
D10*
G75*
G01*
X1615969Y1295960D02*
G02*
X1628167Y1283762I0J-12198D01*
G75*
G01*
X1572275Y1283762D02*
G02*
X1584474Y1295960I12198J0D01*
G75*
G01*
X1627938Y1198098D02*
G02*
X1615739Y1185900I-12198J0D01*
G75*
G01*
X1584244Y1185900D02*
G02*
X1572046Y1198098I0J12198D01*
G75*
G01*
X1540969Y1295960D02*
G02*
X1553167Y1283762I0J-12198D01*
G75*
G01*
X1497275Y1283762D02*
G02*
X1509474Y1295960I12198J0D01*
G75*
G01*
X1552938Y1198098D02*
G02*
X1540739Y1185900I-12198J0D01*
G75*
G01*
X1509244Y1185900D02*
G02*
X1497046Y1198098I0J12198D01*
G75*
G01*
X549656Y1169665D02*
G02*
X537458Y1181863I0J12198D01*
G75*
G01*
X593350Y1181863D02*
G02*
X581151Y1169665I-12198J0D01*
G75*
G01*
X537687Y1267527D02*
G02*
X549886Y1279725I12198J0D01*
G75*
G01*
X581381Y1279725D02*
G02*
X593579Y1267527I0J-12198D01*
D16*
G75*
G01*
X501179Y1181984D02*
G03*
X507179Y1187984I0J6000D01*
G75*
G01*
X507179Y1262016D02*
G03*
X501179Y1268016I-6000J0D01*
G75*
G01*
X311321Y1181984D02*
G02*
X305321Y1187984I0J6000D01*
G75*
G01*
X305321Y1262016D02*
G02*
X311321Y1268016I6000J0D01*
D10*
G75*
G01*
X830335Y805906D02*
G02*
X818137Y793708I-12198J0D01*
G75*
G01*
X818137Y849600D02*
G02*
X830335Y837401I0J-12198D01*
G75*
G01*
X732473Y793937D02*
G02*
X720275Y806136I0J12198D01*
G75*
G01*
X720275Y837631D02*
G02*
X732473Y849829I12198J0D01*
G75*
G01*
X862844Y995960D02*
G02*
X875042Y983762I0J-12198D01*
G75*
G01*
X819150Y983762D02*
G02*
X831349Y995960I12198J0D01*
G75*
G01*
X874813Y898098D02*
G02*
X862614Y885900I-12198J0D01*
G75*
G01*
X831119Y885900D02*
G02*
X818921Y898098I0J12198D01*
G75*
G01*
X427781Y854035D02*
G02*
X415583Y866233I0J12198D01*
G75*
G01*
X471475Y866233D02*
G02*
X459276Y854035I-12198J0D01*
G75*
G01*
X415812Y951897D02*
G02*
X428011Y964095I12198J0D01*
G75*
G01*
X459506Y964095D02*
G02*
X471704Y951897I0J-12198D01*
G75*
G01*
X1210645Y1637085D02*
G03*
X1101845Y1637085I-54400J86710D01*
G75*
G01*
X1210645Y1955835D02*
G03*
X1101845Y1955835I-54400J86710D01*
G75*
G01*
X1760645Y1955835D02*
G03*
X1651845Y1955835I-54400J86710D01*
G75*
G01*
X660645Y1955835D02*
G03*
X551845Y1955835I-54400J86710D01*
G75*
G01*
X1760645Y1637085D02*
G03*
X1651845Y1637085I-54400J86710D01*
G75*
G01*
X660645Y1637085D02*
G03*
X551845Y1637085I-54400J86710D01*
G75*
G01*
X2154400Y257070D02*
G03*
X2045600Y257070I-54400J86710D01*
G75*
G01*
X2923150Y257070D02*
G03*
X2814350Y257070I-54400J86710D01*
G75*
G01*
X2461680Y1432525D02*
G03*
X2461680Y1323725I-86710J-54400D01*
G75*
G01*
X2288320Y970600D02*
G03*
X2288320Y1079400I86710J54400D01*
G75*
G01*
X2870600Y1287930D02*
G03*
X2979400Y1287930I54400J-86710D01*
G75*
G01*
X2761680Y1079400D02*
G03*
X2761680Y970600I-86710J-54400D01*
G75*
G01*
X2070600Y1287930D02*
G03*
X2179400Y1287930I54400J-86710D01*
G75*
G01*
X2761680Y1432525D02*
G03*
X2761680Y1323725I-86710J-54400D01*
D42*
G75*
G01
X1649140Y486930D02*
G03X1649140Y486930I-7870J0D01*
D10*
G75*
G01
X651260Y1280620D02*
G03X651260Y1280620I-5000J0D01*
D43*
G75*
G01
X616260Y1037500D02*
G03X616260Y1037500I-5910J0D01*
G75*
G01
X537390Y1066890D02*
G03X537390Y1066890I-5910J0D01*
M02*
