G04 Layer: BottomLayer*
G04 EasyEDA v6.5.1, 2022-03-27 00:01:15*
G04 cc65af8350e74c879d8fba7fd4beee03,7d3f4a13764643a7838717c5c1d40531,10*
G04 Gerber Generator version 0.2*
G04 Scale: 100 percent, Rotated: No, Reflected: No *
G04 Dimensions in inches *
G04 leading zeros omitted , absolute positions ,3 integer and 6 decimal *
%FSLAX36Y36*%
%MOIN*%

%ADD11C,0.0150*%
%ADD12C,0.0300*%
%ADD13C,0.0200*%
%ADD14C,0.0250*%
%ADD15C,0.0400*%
%ADD18C,0.0240*%
%ADD31R,0.0620X0.0620*%
%ADD32C,0.0620*%
%ADD34C,0.0669*%
%ADD35C,0.0600*%
%ADD36C,0.0650*%

%LPD*%
G36*
X14200Y10200D02*
G01*
X12660Y10500D01*
X11379Y11379D01*
X10500Y12660D01*
X10200Y14200D01*
X10200Y1517880D01*
X10500Y1519400D01*
X11379Y1520700D01*
X12660Y1521579D01*
X14200Y1521879D01*
X1649120Y1521879D01*
X1650660Y1521579D01*
X1651960Y1520700D01*
X1652820Y1519400D01*
X1653120Y1517880D01*
X1653120Y14200D01*
X1652820Y12660D01*
X1651960Y11379D01*
X1650660Y10500D01*
X1649120Y10200D01*
G37*

%LPC*%
G36*
X383040Y30780D02*
G01*
X390140Y31320D01*
X397160Y32599D01*
X404000Y34600D01*
X410600Y37280D01*
X416900Y40640D01*
X422819Y44620D01*
X428280Y49180D01*
X433260Y54280D01*
X437700Y59880D01*
X441520Y65900D01*
X444700Y72260D01*
X447220Y78940D01*
X449040Y85840D01*
X450140Y92880D01*
X450500Y100000D01*
X450140Y107120D01*
X449040Y114160D01*
X447220Y121060D01*
X444700Y127739D01*
X441520Y134100D01*
X437700Y140120D01*
X433260Y145720D01*
X428280Y150820D01*
X422819Y155380D01*
X416900Y159360D01*
X410600Y162719D01*
X404000Y165400D01*
X397160Y167399D01*
X390140Y168680D01*
X383040Y169220D01*
X375900Y169040D01*
X368840Y168120D01*
X361900Y166500D01*
X355160Y164140D01*
X348700Y161119D01*
X342600Y157460D01*
X336880Y153180D01*
X331659Y148340D01*
X326940Y142980D01*
X322819Y137160D01*
X319300Y130960D01*
X316460Y124420D01*
X314280Y117640D01*
X312820Y110660D01*
X312100Y103560D01*
X312100Y96440D01*
X312820Y89340D01*
X314280Y82360D01*
X316460Y75580D01*
X319300Y69040D01*
X322819Y62840D01*
X326940Y57020D01*
X331659Y51660D01*
X336880Y46820D01*
X342600Y42539D01*
X348700Y38880D01*
X355160Y35860D01*
X361900Y33500D01*
X368840Y31880D01*
X375900Y30960D01*
G37*
G36*
X1554920Y30780D02*
G01*
X1562020Y31320D01*
X1569040Y32599D01*
X1575880Y34600D01*
X1582480Y37280D01*
X1588779Y40640D01*
X1594700Y44620D01*
X1600160Y49180D01*
X1605140Y54280D01*
X1609580Y59880D01*
X1613400Y65900D01*
X1616579Y72260D01*
X1619100Y78940D01*
X1620920Y85840D01*
X1622020Y92880D01*
X1622380Y100000D01*
X1622020Y107120D01*
X1620920Y114160D01*
X1619100Y121060D01*
X1616579Y127739D01*
X1613400Y134100D01*
X1609580Y140120D01*
X1605140Y145720D01*
X1600160Y150820D01*
X1594700Y155380D01*
X1588779Y159360D01*
X1582480Y162719D01*
X1575880Y165400D01*
X1569040Y167399D01*
X1562020Y168680D01*
X1554920Y169220D01*
X1547780Y169040D01*
X1540720Y168120D01*
X1533779Y166500D01*
X1527040Y164140D01*
X1520580Y161119D01*
X1514480Y157460D01*
X1508760Y153180D01*
X1503540Y148340D01*
X1498820Y142980D01*
X1494700Y137160D01*
X1491180Y130960D01*
X1488340Y124420D01*
X1486160Y117640D01*
X1484700Y110660D01*
X1483980Y103560D01*
X1483980Y96440D01*
X1484700Y89340D01*
X1486160Y82360D01*
X1488340Y75580D01*
X1491180Y69040D01*
X1494700Y62840D01*
X1498820Y57020D01*
X1503540Y51660D01*
X1508760Y46820D01*
X1514480Y42539D01*
X1520580Y38880D01*
X1527040Y35860D01*
X1533779Y33500D01*
X1540720Y31880D01*
X1547780Y30960D01*
G37*
G36*
X1170140Y37620D02*
G01*
X1175720Y38160D01*
X1181180Y39400D01*
X1186420Y41340D01*
X1191380Y43920D01*
X1195960Y47120D01*
X1200120Y50880D01*
X1203740Y55140D01*
X1206780Y59820D01*
X1209220Y64860D01*
X1210980Y70180D01*
X1212040Y75660D01*
X1212400Y81240D01*
X1212040Y86840D01*
X1210980Y92320D01*
X1209220Y97640D01*
X1206780Y102680D01*
X1203740Y107360D01*
X1200120Y111620D01*
X1195960Y115380D01*
X1191380Y118580D01*
X1186420Y121160D01*
X1181180Y123100D01*
X1175720Y124340D01*
X1170140Y124880D01*
X1164560Y124700D01*
X1159040Y123820D01*
X1153680Y122220D01*
X1148560Y119960D01*
X1143780Y117060D01*
X1139400Y113560D01*
X1135500Y109540D01*
X1132160Y105060D01*
X1129420Y100200D01*
X1127320Y95000D01*
X1125900Y89600D01*
X1125180Y84040D01*
X1125180Y78460D01*
X1125900Y72900D01*
X1127320Y67500D01*
X1129420Y62300D01*
X1132160Y57440D01*
X1135500Y52960D01*
X1139400Y48940D01*
X1143780Y45439D01*
X1148560Y42539D01*
X1153680Y40279D01*
X1159040Y38680D01*
X1164560Y37800D01*
G37*
G36*
X1087980Y40039D02*
G01*
X1101980Y40039D01*
X1104480Y40340D01*
X1106620Y41080D01*
X1108560Y42300D01*
X1110160Y43900D01*
X1111380Y45839D01*
X1112140Y47980D01*
X1112420Y50480D01*
X1112420Y63240D01*
X1087980Y63240D01*
G37*
G36*
X1035520Y40039D02*
G01*
X1049520Y40039D01*
X1049520Y63240D01*
X1025080Y63240D01*
X1025080Y50480D01*
X1025360Y47980D01*
X1026120Y45839D01*
X1027340Y43900D01*
X1028940Y42300D01*
X1030879Y41080D01*
X1033020Y40340D01*
G37*
G36*
X937980Y40039D02*
G01*
X999520Y40039D01*
X1002020Y40340D01*
X1004160Y41080D01*
X1006100Y42300D01*
X1007700Y43900D01*
X1008920Y45839D01*
X1009659Y47980D01*
X1009960Y50480D01*
X1009960Y112020D01*
X1009659Y114520D01*
X1008920Y116660D01*
X1007700Y118600D01*
X1006100Y120200D01*
X1004160Y121420D01*
X1002020Y122160D01*
X999520Y122440D01*
X937980Y122440D01*
X935480Y122160D01*
X933340Y121420D01*
X931400Y120200D01*
X929800Y118600D01*
X928580Y116660D01*
X927840Y114520D01*
X927560Y112020D01*
X927560Y50480D01*
X927840Y47980D01*
X928580Y45839D01*
X929800Y43900D01*
X931400Y42300D01*
X933340Y41080D01*
X935480Y40340D01*
G37*
G36*
X768760Y40060D02*
G01*
X774120Y40420D01*
X779419Y41460D01*
X784520Y43200D01*
X789340Y45580D01*
X793820Y48580D01*
X797880Y52120D01*
X801420Y56180D01*
X804419Y60660D01*
X806800Y65480D01*
X808540Y70580D01*
X809580Y75880D01*
X809940Y81240D01*
X809580Y86620D01*
X808540Y91920D01*
X806800Y97020D01*
X804419Y101840D01*
X801420Y106320D01*
X797880Y110380D01*
X793820Y113920D01*
X791180Y115700D01*
X789980Y116960D01*
X789419Y118620D01*
X789640Y120360D01*
X790580Y121840D01*
X853580Y184880D01*
X855639Y187600D01*
X857080Y190520D01*
X857980Y193640D01*
X858300Y197079D01*
X858300Y536960D01*
X858640Y538540D01*
X859580Y539880D01*
X860980Y540720D01*
X862600Y540940D01*
X864180Y540480D01*
X865420Y539440D01*
X866160Y537980D01*
X866660Y536160D01*
X868280Y532660D01*
X869080Y531540D01*
X869620Y530440D01*
X869800Y529240D01*
X869800Y171480D01*
X869500Y169960D01*
X868620Y168660D01*
X855759Y155780D01*
X853720Y153060D01*
X852260Y150140D01*
X851360Y147000D01*
X851040Y143560D01*
X851040Y120840D01*
X850780Y119380D01*
X850000Y118140D01*
X848820Y117260D01*
X848160Y116920D01*
X843680Y113920D01*
X839620Y110380D01*
X836080Y106320D01*
X833080Y101840D01*
X830699Y97020D01*
X828960Y91920D01*
X827920Y86620D01*
X827560Y81240D01*
X827920Y75880D01*
X828960Y70580D01*
X830699Y65480D01*
X833080Y60660D01*
X836080Y56180D01*
X839620Y52120D01*
X843680Y48580D01*
X848160Y45580D01*
X852980Y43200D01*
X858080Y41460D01*
X863379Y40420D01*
X868760Y40060D01*
X874120Y40420D01*
X879419Y41460D01*
X884520Y43200D01*
X889340Y45580D01*
X893820Y48580D01*
X897880Y52120D01*
X901420Y56180D01*
X904419Y60660D01*
X906800Y65480D01*
X908540Y70580D01*
X909580Y75880D01*
X909940Y81240D01*
X909580Y86620D01*
X908540Y91920D01*
X906800Y97020D01*
X904419Y101840D01*
X901420Y106320D01*
X897880Y110380D01*
X893820Y113920D01*
X889340Y116920D01*
X888680Y117260D01*
X887500Y118140D01*
X886720Y119380D01*
X886460Y120840D01*
X886460Y134760D01*
X886760Y136300D01*
X887620Y137580D01*
X900480Y150480D01*
X902540Y153200D01*
X903980Y156120D01*
X904880Y159260D01*
X905200Y162680D01*
X905200Y529240D01*
X905380Y530440D01*
X905920Y531540D01*
X906720Y532660D01*
X908340Y536160D01*
X909340Y539900D01*
X909680Y543740D01*
X909340Y547600D01*
X908340Y551340D01*
X906720Y554840D01*
X904500Y558020D01*
X901760Y560740D01*
X898600Y562960D01*
X895080Y564600D01*
X891360Y565600D01*
X887500Y565940D01*
X883640Y565600D01*
X879920Y564600D01*
X876400Y562960D01*
X873240Y560740D01*
X870500Y558020D01*
X868280Y554840D01*
X866660Y551340D01*
X866160Y549520D01*
X865420Y548060D01*
X864180Y547020D01*
X862600Y546560D01*
X860980Y546780D01*
X859580Y547620D01*
X858640Y548960D01*
X858300Y550540D01*
X858300Y559720D01*
X858600Y561240D01*
X859479Y562540D01*
X895960Y599040D01*
X896800Y599660D01*
X897760Y600060D01*
X901340Y601020D01*
X904840Y602660D01*
X908020Y604880D01*
X910740Y607620D01*
X912960Y610780D01*
X914599Y614280D01*
X915600Y618020D01*
X915939Y621880D01*
X915600Y625720D01*
X914599Y629460D01*
X912960Y632960D01*
X910740Y636140D01*
X908020Y638860D01*
X904840Y641080D01*
X901340Y642720D01*
X897600Y643720D01*
X893760Y644060D01*
X889900Y643720D01*
X886160Y642720D01*
X882660Y641080D01*
X879479Y638860D01*
X876760Y636140D01*
X874539Y632960D01*
X872900Y629460D01*
X871919Y625820D01*
X871520Y624860D01*
X870900Y624020D01*
X827620Y580720D01*
X825560Y578000D01*
X824120Y575080D01*
X823220Y571960D01*
X822900Y568520D01*
X822900Y205880D01*
X822600Y204360D01*
X821720Y203060D01*
X755759Y137080D01*
X753720Y134360D01*
X752260Y131440D01*
X751360Y128260D01*
X751080Y125820D01*
X751060Y120820D01*
X750780Y119380D01*
X750000Y118140D01*
X748820Y117260D01*
X748160Y116920D01*
X743680Y113920D01*
X739620Y110380D01*
X736080Y106320D01*
X733080Y101840D01*
X730699Y97020D01*
X728960Y91920D01*
X727920Y86620D01*
X727560Y81240D01*
X727920Y75880D01*
X728960Y70580D01*
X730699Y65480D01*
X733080Y60660D01*
X736080Y56180D01*
X739620Y52120D01*
X743680Y48580D01*
X748160Y45580D01*
X752980Y43200D01*
X758080Y41460D01*
X763379Y40420D01*
G37*
G36*
X650759Y44300D02*
G01*
X650759Y63240D01*
X631800Y63240D01*
X633080Y60660D01*
X636080Y56180D01*
X639620Y52120D01*
X643680Y48580D01*
X648160Y45580D01*
G37*
G36*
X686760Y44300D02*
G01*
X689340Y45580D01*
X693820Y48580D01*
X697880Y52120D01*
X701420Y56180D01*
X704419Y60660D01*
X705699Y63240D01*
X686760Y63240D01*
G37*
G36*
X686760Y99240D02*
G01*
X705699Y99240D01*
X704419Y101840D01*
X701420Y106320D01*
X697880Y110380D01*
X693820Y113920D01*
X689340Y116920D01*
X686760Y118200D01*
G37*
G36*
X631800Y99240D02*
G01*
X650759Y99240D01*
X650759Y118200D01*
X648160Y116920D01*
X643680Y113920D01*
X639620Y110380D01*
X636080Y106320D01*
X633080Y101840D01*
G37*
G36*
X1087980Y99240D02*
G01*
X1112420Y99240D01*
X1112420Y112020D01*
X1112140Y114520D01*
X1111380Y116660D01*
X1110160Y118600D01*
X1108560Y120200D01*
X1106620Y121420D01*
X1104480Y122160D01*
X1101980Y122440D01*
X1087980Y122440D01*
G37*
G36*
X1025080Y99240D02*
G01*
X1049520Y99240D01*
X1049520Y122440D01*
X1035520Y122440D01*
X1033020Y122160D01*
X1030879Y121420D01*
X1028940Y120200D01*
X1027340Y118600D01*
X1026120Y116660D01*
X1025360Y114520D01*
X1025080Y112020D01*
G37*
G36*
X1356260Y121560D02*
G01*
X1360100Y121900D01*
X1363839Y122899D01*
X1364420Y123180D01*
X1366120Y123539D01*
X1428040Y123539D01*
X1429880Y123640D01*
X1431639Y123859D01*
X1433360Y124240D01*
X1435040Y124780D01*
X1436660Y125440D01*
X1438220Y126260D01*
X1439700Y127200D01*
X1441100Y128280D01*
X1442480Y129520D01*
X1573600Y260660D01*
X1574860Y262020D01*
X1575920Y263420D01*
X1576879Y264900D01*
X1577680Y266460D01*
X1578360Y268100D01*
X1578880Y269780D01*
X1579259Y271500D01*
X1579500Y273240D01*
X1579580Y275100D01*
X1579580Y1127640D01*
X1579960Y1129340D01*
X1580220Y1129920D01*
X1581220Y1133640D01*
X1581560Y1137500D01*
X1581220Y1141360D01*
X1580220Y1145080D01*
X1578580Y1148600D01*
X1576360Y1151760D01*
X1573640Y1154500D01*
X1570460Y1156720D01*
X1566960Y1158340D01*
X1563220Y1159340D01*
X1559379Y1159680D01*
X1555520Y1159340D01*
X1551780Y1158340D01*
X1548280Y1156720D01*
X1545120Y1154500D01*
X1542380Y1151760D01*
X1540160Y1148600D01*
X1538520Y1145080D01*
X1537520Y1141360D01*
X1537200Y1137500D01*
X1537520Y1133640D01*
X1538520Y1129920D01*
X1538800Y1129320D01*
X1539180Y1127620D01*
X1539180Y285020D01*
X1538880Y283500D01*
X1538000Y282200D01*
X1420920Y165120D01*
X1419640Y164259D01*
X1418100Y163939D01*
X1366120Y163939D01*
X1364420Y164320D01*
X1363839Y164600D01*
X1360100Y165600D01*
X1356260Y165940D01*
X1352400Y165600D01*
X1348660Y164600D01*
X1345160Y162960D01*
X1341980Y160740D01*
X1339259Y158020D01*
X1337040Y154840D01*
X1335400Y151340D01*
X1334400Y147600D01*
X1334060Y143740D01*
X1334400Y139900D01*
X1335400Y136160D01*
X1337040Y132660D01*
X1339259Y129480D01*
X1341980Y126760D01*
X1345160Y124540D01*
X1348660Y122899D01*
X1352400Y121900D01*
G37*
G36*
X210780Y150120D02*
G01*
X216340Y150660D01*
X221800Y151900D01*
X227040Y153840D01*
X232000Y156420D01*
X236600Y159620D01*
X240740Y163380D01*
X244360Y167640D01*
X247420Y172320D01*
X249840Y177360D01*
X251600Y182680D01*
X252680Y188160D01*
X253039Y193740D01*
X252680Y199340D01*
X251600Y204820D01*
X249840Y210140D01*
X247420Y215180D01*
X244360Y219860D01*
X240740Y224120D01*
X236600Y227880D01*
X232000Y231080D01*
X227040Y233660D01*
X221800Y235600D01*
X216340Y236840D01*
X210780Y237380D01*
X205180Y237200D01*
X199660Y236320D01*
X194300Y234720D01*
X189180Y232460D01*
X184400Y229560D01*
X180020Y226060D01*
X176140Y222040D01*
X172780Y217560D01*
X170040Y212700D01*
X167940Y207500D01*
X166520Y202100D01*
X165799Y196540D01*
X165799Y190960D01*
X166520Y185400D01*
X167940Y180000D01*
X170040Y174800D01*
X172780Y169940D01*
X176140Y165460D01*
X180020Y161439D01*
X184400Y157940D01*
X189180Y155040D01*
X194300Y152780D01*
X199660Y151180D01*
X205180Y150300D01*
G37*
G36*
X76140Y152540D02*
G01*
X142620Y152540D01*
X145100Y152840D01*
X147260Y153580D01*
X149180Y154800D01*
X150800Y156400D01*
X152000Y158340D01*
X152760Y160479D01*
X153040Y162979D01*
X153040Y224520D01*
X152760Y227020D01*
X152000Y229160D01*
X150800Y231100D01*
X149180Y232700D01*
X147260Y233920D01*
X145100Y234660D01*
X142620Y234940D01*
X76140Y234940D01*
X73640Y234660D01*
X71500Y233920D01*
X69560Y232700D01*
X67960Y231100D01*
X66740Y229160D01*
X66000Y227020D01*
X65720Y224520D01*
X65720Y162979D01*
X66000Y160479D01*
X66740Y158340D01*
X67960Y156400D01*
X69560Y154800D01*
X71500Y153580D01*
X73640Y152840D01*
G37*
G36*
X210780Y250120D02*
G01*
X216340Y250660D01*
X221800Y251900D01*
X227040Y253840D01*
X232000Y256420D01*
X236600Y259620D01*
X240740Y263380D01*
X244360Y267640D01*
X247420Y272320D01*
X249840Y277360D01*
X251600Y282680D01*
X252680Y288160D01*
X253039Y293740D01*
X252680Y299340D01*
X251600Y304820D01*
X249840Y310140D01*
X247420Y315180D01*
X244360Y319860D01*
X240740Y324120D01*
X236600Y327879D01*
X232000Y331079D01*
X227040Y333660D01*
X221800Y335600D01*
X216340Y336840D01*
X210780Y337380D01*
X205180Y337200D01*
X199660Y336320D01*
X194300Y334720D01*
X189180Y332460D01*
X184400Y329560D01*
X180020Y326060D01*
X176140Y322040D01*
X172780Y317560D01*
X170040Y312700D01*
X167940Y307500D01*
X166520Y302100D01*
X165799Y296540D01*
X165799Y290960D01*
X166520Y285400D01*
X167940Y280000D01*
X170040Y274800D01*
X172780Y269940D01*
X176140Y265460D01*
X180020Y261439D01*
X184400Y257940D01*
X189180Y255040D01*
X194300Y252780D01*
X199660Y251180D01*
X205180Y250300D01*
G37*
G36*
X76140Y252540D02*
G01*
X142620Y252540D01*
X145100Y252840D01*
X147260Y253580D01*
X149180Y254800D01*
X150800Y256400D01*
X152000Y258340D01*
X152760Y260479D01*
X153040Y262980D01*
X153040Y324520D01*
X152760Y327020D01*
X152000Y329159D01*
X150800Y331100D01*
X149180Y332700D01*
X147260Y333920D01*
X145100Y334660D01*
X142620Y334940D01*
X76140Y334940D01*
X73640Y334660D01*
X71500Y333920D01*
X69560Y332700D01*
X67960Y331100D01*
X66740Y329159D01*
X66000Y327020D01*
X65720Y324520D01*
X65720Y262980D01*
X66000Y260479D01*
X66740Y258340D01*
X67960Y256400D01*
X69560Y254800D01*
X71500Y253580D01*
X73640Y252840D01*
G37*
G36*
X635620Y324260D02*
G01*
X639380Y324260D01*
X643060Y324880D01*
X646620Y326100D01*
X649900Y327879D01*
X652860Y330180D01*
X655400Y332939D01*
X657460Y336079D01*
X658960Y339500D01*
X659880Y343140D01*
X660200Y347040D01*
X660200Y737320D01*
X659880Y741220D01*
X658960Y744860D01*
X657460Y748300D01*
X655400Y751420D01*
X652860Y754180D01*
X649900Y756480D01*
X646620Y758280D01*
X643060Y759479D01*
X639380Y760100D01*
X635620Y760100D01*
X631940Y759479D01*
X628380Y758280D01*
X625100Y756480D01*
X622140Y754180D01*
X619600Y751420D01*
X617540Y748300D01*
X616040Y744860D01*
X615120Y741220D01*
X614800Y737320D01*
X614800Y347040D01*
X615120Y343140D01*
X616040Y339500D01*
X617540Y336079D01*
X619600Y332939D01*
X622140Y330180D01*
X625100Y327879D01*
X628380Y326100D01*
X631940Y324880D01*
G37*
G36*
X210780Y350120D02*
G01*
X216340Y350660D01*
X221800Y351900D01*
X227040Y353840D01*
X232000Y356420D01*
X236600Y359620D01*
X240740Y363380D01*
X244360Y367640D01*
X247420Y372320D01*
X249840Y377360D01*
X251600Y382680D01*
X252680Y388160D01*
X253039Y393740D01*
X252680Y399340D01*
X251600Y404820D01*
X249840Y410140D01*
X247420Y415180D01*
X244360Y419860D01*
X240740Y424120D01*
X236600Y427879D01*
X232000Y431079D01*
X227040Y433660D01*
X221800Y435600D01*
X216340Y436840D01*
X210780Y437380D01*
X205180Y437200D01*
X199660Y436320D01*
X194300Y434720D01*
X189180Y432460D01*
X184400Y429560D01*
X180020Y426060D01*
X176140Y422040D01*
X172780Y417560D01*
X170040Y412700D01*
X167940Y407500D01*
X166520Y402100D01*
X165799Y396540D01*
X165799Y390959D01*
X166520Y385400D01*
X167940Y380000D01*
X170040Y374799D01*
X172780Y369940D01*
X176140Y365460D01*
X180020Y361440D01*
X184400Y357939D01*
X189180Y355040D01*
X194300Y352780D01*
X199660Y351180D01*
X205180Y350300D01*
G37*
G36*
X76140Y352540D02*
G01*
X142620Y352540D01*
X145100Y352840D01*
X147260Y353579D01*
X149180Y354799D01*
X150800Y356400D01*
X152000Y358340D01*
X152760Y360480D01*
X153040Y362980D01*
X153040Y424520D01*
X152760Y427020D01*
X152000Y429159D01*
X150800Y431100D01*
X149180Y432700D01*
X147260Y433920D01*
X145100Y434660D01*
X142620Y434940D01*
X76140Y434940D01*
X73640Y434660D01*
X71500Y433920D01*
X69560Y432700D01*
X67960Y431100D01*
X66740Y429159D01*
X66000Y427020D01*
X65720Y424520D01*
X65720Y362980D01*
X66000Y360480D01*
X66740Y358340D01*
X67960Y356400D01*
X69560Y354799D01*
X71500Y353579D01*
X73640Y352840D01*
G37*
G36*
X210780Y450120D02*
G01*
X216340Y450660D01*
X221800Y451900D01*
X227040Y453840D01*
X232000Y456420D01*
X236600Y459620D01*
X240740Y463380D01*
X244360Y467640D01*
X247420Y472320D01*
X249840Y477360D01*
X251600Y482680D01*
X252680Y488160D01*
X253039Y493740D01*
X252680Y499340D01*
X251600Y504820D01*
X249840Y510140D01*
X247420Y515180D01*
X244360Y519860D01*
X240740Y524120D01*
X236600Y527880D01*
X232000Y531080D01*
X227040Y533660D01*
X221800Y535600D01*
X216340Y536840D01*
X210780Y537380D01*
X205180Y537200D01*
X199660Y536320D01*
X194300Y534720D01*
X189180Y532460D01*
X184400Y529560D01*
X180020Y526060D01*
X176140Y522040D01*
X172780Y517560D01*
X170040Y512700D01*
X167940Y507500D01*
X166520Y502100D01*
X165799Y496540D01*
X165799Y490959D01*
X166520Y485400D01*
X167940Y480000D01*
X170040Y474799D01*
X172780Y469940D01*
X176140Y465460D01*
X180020Y461440D01*
X184400Y457939D01*
X189180Y455040D01*
X194300Y452780D01*
X199660Y451180D01*
X205180Y450300D01*
G37*
G36*
X76140Y452540D02*
G01*
X142620Y452540D01*
X145100Y452840D01*
X147260Y453579D01*
X149180Y454799D01*
X150800Y456400D01*
X152000Y458340D01*
X152760Y460480D01*
X153040Y462980D01*
X153040Y524520D01*
X152760Y527020D01*
X152000Y529160D01*
X150800Y531100D01*
X149180Y532700D01*
X147260Y533920D01*
X145100Y534660D01*
X142620Y534940D01*
X76140Y534940D01*
X73640Y534660D01*
X71500Y533920D01*
X69560Y532700D01*
X67960Y531100D01*
X66740Y529160D01*
X66000Y527020D01*
X65720Y524520D01*
X65720Y462980D01*
X66000Y460480D01*
X66740Y458340D01*
X67960Y456400D01*
X69560Y454799D01*
X71500Y453579D01*
X73640Y452840D01*
G37*
G36*
X210780Y550120D02*
G01*
X216340Y550660D01*
X221800Y551900D01*
X227040Y553840D01*
X232000Y556420D01*
X236600Y559620D01*
X240740Y563380D01*
X244360Y567640D01*
X247420Y572320D01*
X249840Y577360D01*
X251600Y582680D01*
X252680Y588160D01*
X253039Y593740D01*
X252680Y599340D01*
X251600Y604820D01*
X249840Y610140D01*
X247420Y615180D01*
X244360Y619860D01*
X240740Y624120D01*
X236600Y627880D01*
X232000Y631080D01*
X227040Y633660D01*
X221800Y635600D01*
X216340Y636840D01*
X210780Y637380D01*
X205180Y637200D01*
X199660Y636320D01*
X194300Y634720D01*
X189180Y632460D01*
X184400Y629560D01*
X180020Y626060D01*
X176140Y622040D01*
X172780Y617560D01*
X170040Y612700D01*
X167940Y607500D01*
X166520Y602100D01*
X165799Y596540D01*
X165799Y590960D01*
X166520Y585400D01*
X167940Y580000D01*
X170040Y574800D01*
X172780Y569940D01*
X176140Y565460D01*
X180020Y561440D01*
X184400Y557940D01*
X189180Y555040D01*
X194300Y552780D01*
X199660Y551180D01*
X205180Y550300D01*
G37*
G36*
X76140Y552540D02*
G01*
X142620Y552540D01*
X145100Y552840D01*
X147260Y553580D01*
X149180Y554800D01*
X150800Y556400D01*
X152000Y558340D01*
X152760Y560480D01*
X153040Y562980D01*
X153040Y624520D01*
X152760Y627020D01*
X152000Y629160D01*
X150800Y631100D01*
X149180Y632700D01*
X147260Y633920D01*
X145100Y634660D01*
X142620Y634940D01*
X76140Y634940D01*
X73640Y634660D01*
X71500Y633920D01*
X69560Y632700D01*
X67960Y631100D01*
X66740Y629160D01*
X66000Y627020D01*
X65720Y624520D01*
X65720Y562980D01*
X66000Y560480D01*
X66740Y558340D01*
X67960Y556400D01*
X69560Y554800D01*
X71500Y553580D01*
X73640Y552840D01*
G37*
G36*
X210780Y650120D02*
G01*
X216340Y650660D01*
X221800Y651900D01*
X227040Y653840D01*
X232000Y656420D01*
X236600Y659620D01*
X240740Y663379D01*
X244360Y667640D01*
X247420Y672320D01*
X249840Y677360D01*
X251600Y682680D01*
X252680Y688160D01*
X253039Y693740D01*
X252680Y699340D01*
X251600Y704820D01*
X249840Y710140D01*
X247420Y715180D01*
X244360Y719860D01*
X240740Y724120D01*
X236600Y727880D01*
X232000Y731080D01*
X227040Y733660D01*
X221800Y735600D01*
X216340Y736840D01*
X210780Y737380D01*
X205180Y737200D01*
X199660Y736320D01*
X194300Y734720D01*
X189180Y732460D01*
X184400Y729560D01*
X180020Y726060D01*
X176140Y722039D01*
X172780Y717560D01*
X170040Y712700D01*
X167940Y707500D01*
X166520Y702099D01*
X165799Y696540D01*
X165799Y690960D01*
X166520Y685400D01*
X167940Y680000D01*
X170040Y674800D01*
X172780Y669940D01*
X176140Y665460D01*
X180020Y661440D01*
X184400Y657940D01*
X189180Y655040D01*
X194300Y652780D01*
X199660Y651180D01*
X205180Y650300D01*
G37*
G36*
X76140Y652540D02*
G01*
X142620Y652540D01*
X145100Y652840D01*
X147260Y653580D01*
X149180Y654800D01*
X150800Y656400D01*
X152000Y658340D01*
X152760Y660480D01*
X153040Y662980D01*
X153040Y724520D01*
X152760Y727020D01*
X152000Y729160D01*
X150800Y731100D01*
X149180Y732700D01*
X147260Y733920D01*
X145100Y734659D01*
X142620Y734940D01*
X76140Y734940D01*
X73640Y734659D01*
X71500Y733920D01*
X69560Y732700D01*
X67960Y731100D01*
X66740Y729160D01*
X66000Y727020D01*
X65720Y724520D01*
X65720Y662980D01*
X66000Y660480D01*
X66740Y658340D01*
X67960Y656400D01*
X69560Y654800D01*
X71500Y653580D01*
X73640Y652840D01*
G37*
G36*
X1475000Y680580D02*
G01*
X1478860Y680920D01*
X1482580Y681919D01*
X1486100Y683540D01*
X1489259Y685759D01*
X1492000Y688500D01*
X1494220Y691660D01*
X1495840Y695180D01*
X1496840Y698900D01*
X1497180Y702760D01*
X1496840Y706620D01*
X1495840Y710340D01*
X1494220Y713860D01*
X1493420Y714980D01*
X1492880Y716080D01*
X1492700Y717280D01*
X1492680Y1072540D01*
X1492220Y1075920D01*
X1491180Y1079020D01*
X1489580Y1081860D01*
X1487380Y1084520D01*
X1354100Y1217800D01*
X1353460Y1218620D01*
X1353060Y1219600D01*
X1352100Y1223220D01*
X1350460Y1226720D01*
X1348240Y1229880D01*
X1345520Y1232620D01*
X1342340Y1234840D01*
X1338839Y1236480D01*
X1335100Y1237480D01*
X1331260Y1237800D01*
X1327400Y1237480D01*
X1323660Y1236480D01*
X1320160Y1234840D01*
X1316980Y1232620D01*
X1314259Y1229880D01*
X1312040Y1226720D01*
X1310400Y1223220D01*
X1309400Y1219480D01*
X1309060Y1215620D01*
X1309400Y1211780D01*
X1310400Y1208040D01*
X1312040Y1204540D01*
X1314259Y1201360D01*
X1316980Y1198640D01*
X1320160Y1196420D01*
X1323660Y1194780D01*
X1327260Y1193820D01*
X1328240Y1193420D01*
X1329060Y1192780D01*
X1456120Y1065700D01*
X1457000Y1064420D01*
X1457300Y1062880D01*
X1457300Y717280D01*
X1457120Y716080D01*
X1456579Y714980D01*
X1455780Y713860D01*
X1454160Y710340D01*
X1453160Y706620D01*
X1452820Y702760D01*
X1453160Y698900D01*
X1454160Y695180D01*
X1455780Y691660D01*
X1458000Y688500D01*
X1460740Y685759D01*
X1463899Y683540D01*
X1467420Y681919D01*
X1471140Y680920D01*
G37*
G36*
X653120Y771300D02*
G01*
X658500Y771660D01*
X663780Y772720D01*
X668880Y774440D01*
X673720Y776820D01*
X678199Y779820D01*
X682260Y783379D01*
X685800Y787420D01*
X688800Y791900D01*
X691180Y796740D01*
X692920Y801840D01*
X693960Y807120D01*
X694320Y812500D01*
X693960Y817880D01*
X692920Y823160D01*
X691180Y828259D01*
X688800Y833100D01*
X685800Y837580D01*
X682260Y841620D01*
X678199Y845180D01*
X673720Y848180D01*
X668880Y850560D01*
X663780Y852280D01*
X658500Y853340D01*
X653120Y853700D01*
X647740Y853340D01*
X642460Y852280D01*
X637360Y850560D01*
X632520Y848180D01*
X628040Y845180D01*
X624000Y841620D01*
X620440Y837580D01*
X617460Y833100D01*
X615060Y828259D01*
X613340Y823160D01*
X612280Y817880D01*
X611940Y812500D01*
X612280Y807120D01*
X613340Y801840D01*
X615060Y796740D01*
X617460Y791900D01*
X620440Y787420D01*
X624000Y783379D01*
X628040Y779820D01*
X632520Y776820D01*
X637360Y774440D01*
X642460Y772720D01*
X647740Y771660D01*
G37*
G36*
X209380Y774440D02*
G01*
X214760Y774780D01*
X220040Y775840D01*
X225140Y777560D01*
X229980Y779960D01*
X234460Y782940D01*
X238500Y786500D01*
X242060Y790540D01*
X245040Y795020D01*
X247440Y799860D01*
X249160Y804960D01*
X250219Y810240D01*
X250560Y815620D01*
X250219Y821000D01*
X249160Y826280D01*
X247440Y831380D01*
X245040Y836220D01*
X242060Y840699D01*
X238500Y844760D01*
X234460Y848300D01*
X229980Y851300D01*
X225140Y853680D01*
X220040Y855420D01*
X214760Y856460D01*
X209380Y856820D01*
X204000Y856460D01*
X198720Y855420D01*
X193619Y853680D01*
X188780Y851300D01*
X184300Y848300D01*
X180240Y844760D01*
X176700Y840699D01*
X173700Y836220D01*
X171320Y831380D01*
X169579Y826280D01*
X168540Y821000D01*
X168180Y815620D01*
X168540Y810240D01*
X169579Y804960D01*
X171320Y799860D01*
X173700Y795020D01*
X176700Y790540D01*
X180240Y786500D01*
X184300Y782940D01*
X188780Y779960D01*
X193619Y777560D01*
X198720Y775840D01*
X204000Y774780D01*
G37*
G36*
X109380Y774440D02*
G01*
X114760Y774780D01*
X120040Y775840D01*
X125140Y777560D01*
X129980Y779960D01*
X134460Y782940D01*
X138500Y786500D01*
X142060Y790540D01*
X145040Y795020D01*
X147440Y799860D01*
X149160Y804960D01*
X150220Y810240D01*
X150560Y815620D01*
X150220Y821000D01*
X149160Y826280D01*
X147440Y831380D01*
X145040Y836220D01*
X142060Y840699D01*
X138500Y844760D01*
X134460Y848300D01*
X129980Y851300D01*
X125140Y853680D01*
X120040Y855420D01*
X114760Y856460D01*
X109380Y856820D01*
X104000Y856460D01*
X98720Y855420D01*
X93620Y853680D01*
X88780Y851300D01*
X84300Y848300D01*
X80239Y844760D01*
X76700Y840699D01*
X73700Y836220D01*
X71320Y831380D01*
X69580Y826280D01*
X68540Y821000D01*
X68180Y815620D01*
X68540Y810240D01*
X69580Y804960D01*
X71320Y799860D01*
X73700Y795020D01*
X76700Y790540D01*
X80239Y786500D01*
X84300Y782940D01*
X88780Y779960D01*
X93620Y777560D01*
X98720Y775840D01*
X104000Y774780D01*
G37*
G36*
X209380Y874440D02*
G01*
X214760Y874780D01*
X220040Y875840D01*
X225140Y877560D01*
X229980Y879960D01*
X234460Y882940D01*
X238500Y886500D01*
X242060Y890540D01*
X245040Y895020D01*
X247440Y899860D01*
X249160Y904960D01*
X250219Y910240D01*
X250560Y915620D01*
X250219Y921000D01*
X249160Y926280D01*
X247440Y931380D01*
X245040Y936220D01*
X242060Y940699D01*
X238500Y944760D01*
X234460Y948300D01*
X229980Y951300D01*
X225140Y953680D01*
X220040Y955420D01*
X214760Y956460D01*
X209380Y956820D01*
X204000Y956460D01*
X198720Y955420D01*
X193619Y953680D01*
X188780Y951300D01*
X184300Y948300D01*
X180240Y944760D01*
X176700Y940699D01*
X173700Y936220D01*
X171320Y931380D01*
X169579Y926280D01*
X168540Y921000D01*
X168180Y915620D01*
X168540Y910240D01*
X169579Y904960D01*
X171320Y899860D01*
X173700Y895020D01*
X176700Y890540D01*
X180240Y886500D01*
X184300Y882940D01*
X188780Y879960D01*
X193619Y877560D01*
X198720Y875840D01*
X204000Y874780D01*
G37*
G36*
X109380Y874440D02*
G01*
X114760Y874780D01*
X120040Y875840D01*
X125140Y877560D01*
X129980Y879960D01*
X134460Y882940D01*
X138500Y886500D01*
X142060Y890540D01*
X145040Y895020D01*
X147440Y899860D01*
X149160Y904960D01*
X150220Y910240D01*
X150560Y915620D01*
X150220Y921000D01*
X149160Y926280D01*
X147440Y931380D01*
X145040Y936220D01*
X142060Y940699D01*
X138500Y944760D01*
X134460Y948300D01*
X129980Y951300D01*
X125140Y953680D01*
X120040Y955420D01*
X114760Y956460D01*
X109380Y956820D01*
X104000Y956460D01*
X98720Y955420D01*
X93620Y953680D01*
X88780Y951300D01*
X84300Y948300D01*
X80239Y944760D01*
X76700Y940699D01*
X73700Y936220D01*
X71320Y931380D01*
X69580Y926280D01*
X68540Y921000D01*
X68180Y915620D01*
X68540Y910240D01*
X69580Y904960D01*
X71320Y899860D01*
X73700Y895020D01*
X76700Y890540D01*
X80239Y886500D01*
X84300Y882940D01*
X88780Y879960D01*
X93620Y877560D01*
X98720Y875840D01*
X104000Y874780D01*
G37*
G36*
X612500Y887180D02*
G01*
X616360Y887520D01*
X620080Y888520D01*
X623600Y890160D01*
X626760Y892380D01*
X629500Y895100D01*
X631720Y898280D01*
X633340Y901780D01*
X634320Y905380D01*
X634720Y906360D01*
X635340Y907180D01*
X656740Y928600D01*
X658780Y931300D01*
X660240Y934220D01*
X661140Y937360D01*
X661460Y940800D01*
X661460Y991000D01*
X661760Y992540D01*
X662620Y993840D01*
X683439Y1014659D01*
X684260Y1015280D01*
X685240Y1015680D01*
X688840Y1016660D01*
X692340Y1018280D01*
X695520Y1020500D01*
X698240Y1023240D01*
X700460Y1026400D01*
X702099Y1029920D01*
X703100Y1033640D01*
X703439Y1037500D01*
X703100Y1041360D01*
X702099Y1045080D01*
X700460Y1048600D01*
X698240Y1051760D01*
X695520Y1054500D01*
X692340Y1056720D01*
X688840Y1058340D01*
X685100Y1059340D01*
X681260Y1059680D01*
X677400Y1059340D01*
X673660Y1058340D01*
X670160Y1056720D01*
X666979Y1054500D01*
X664260Y1051760D01*
X662039Y1048600D01*
X660400Y1045080D01*
X659440Y1041460D01*
X659040Y1040500D01*
X658400Y1039680D01*
X630760Y1012020D01*
X628720Y1009300D01*
X627260Y1006380D01*
X626360Y1003240D01*
X626060Y999820D01*
X626060Y949599D01*
X625740Y948080D01*
X624880Y946780D01*
X610320Y932220D01*
X609500Y931580D01*
X608540Y931180D01*
X604920Y930220D01*
X601400Y928580D01*
X598240Y926360D01*
X595500Y923640D01*
X593280Y920460D01*
X591660Y916960D01*
X590660Y913220D01*
X590320Y909360D01*
X590660Y905520D01*
X591660Y901780D01*
X593280Y898280D01*
X595500Y895100D01*
X598240Y892380D01*
X601400Y890160D01*
X604920Y888520D01*
X608640Y887520D01*
G37*
G36*
X78600Y974419D02*
G01*
X140160Y974419D01*
X142640Y974700D01*
X144780Y975460D01*
X146720Y976680D01*
X148320Y978280D01*
X149540Y980220D01*
X150300Y982360D01*
X150580Y984840D01*
X150580Y1046400D01*
X150300Y1048880D01*
X149540Y1051040D01*
X148320Y1052960D01*
X146720Y1054580D01*
X144780Y1055800D01*
X142640Y1056540D01*
X140160Y1056820D01*
X78600Y1056820D01*
X76120Y1056540D01*
X73960Y1055800D01*
X72040Y1054580D01*
X70420Y1052960D01*
X69200Y1051040D01*
X68460Y1048880D01*
X68180Y1046400D01*
X68180Y984840D01*
X68460Y982360D01*
X69200Y980220D01*
X70420Y978280D01*
X72040Y976680D01*
X73960Y975460D01*
X76120Y974700D01*
G37*
G36*
X209380Y974440D02*
G01*
X214760Y974780D01*
X220040Y975840D01*
X225140Y977560D01*
X229980Y979960D01*
X234460Y982940D01*
X238500Y986500D01*
X242060Y990540D01*
X245040Y995020D01*
X247440Y999860D01*
X249160Y1004960D01*
X250219Y1010240D01*
X250560Y1015620D01*
X250219Y1021000D01*
X249160Y1026280D01*
X247440Y1031380D01*
X245040Y1036220D01*
X242060Y1040699D01*
X238500Y1044760D01*
X234460Y1048300D01*
X229980Y1051300D01*
X225140Y1053680D01*
X220040Y1055420D01*
X214760Y1056460D01*
X209380Y1056820D01*
X204000Y1056460D01*
X198720Y1055420D01*
X193619Y1053680D01*
X188780Y1051300D01*
X184300Y1048300D01*
X180240Y1044760D01*
X176700Y1040699D01*
X173700Y1036220D01*
X171320Y1031380D01*
X169579Y1026280D01*
X168540Y1021000D01*
X168180Y1015620D01*
X168540Y1010240D01*
X169579Y1004960D01*
X171320Y999860D01*
X173700Y995020D01*
X176700Y990540D01*
X180240Y986500D01*
X184300Y982940D01*
X188780Y979960D01*
X193619Y977560D01*
X198720Y975840D01*
X204000Y974780D01*
G37*
G36*
X121780Y1125440D02*
G01*
X127140Y1125620D01*
X132440Y1126500D01*
X137580Y1128100D01*
X142440Y1130360D01*
X146960Y1133240D01*
X151060Y1136720D01*
X154660Y1140700D01*
X157700Y1145120D01*
X158860Y1147400D01*
X159920Y1148720D01*
X161439Y1149460D01*
X162160Y1149500D01*
X161480Y1150440D01*
X161119Y1151920D01*
X161340Y1153420D01*
X161880Y1154980D01*
X162960Y1160240D01*
X163320Y1165600D01*
X162960Y1170960D01*
X161880Y1176220D01*
X161340Y1177800D01*
X161119Y1179300D01*
X161480Y1180760D01*
X162160Y1181720D01*
X161439Y1181740D01*
X159920Y1182500D01*
X158860Y1183820D01*
X157700Y1186080D01*
X154660Y1190520D01*
X151060Y1194500D01*
X146960Y1197960D01*
X142440Y1200860D01*
X137580Y1203120D01*
X132440Y1204700D01*
X127140Y1205600D01*
X121780Y1205780D01*
X116440Y1205240D01*
X111220Y1204000D01*
X106199Y1202060D01*
X101500Y1199480D01*
X97180Y1196300D01*
X93320Y1192560D01*
X89980Y1188360D01*
X87260Y1183740D01*
X85160Y1178780D01*
X83740Y1173620D01*
X83020Y1168280D01*
X83020Y1162920D01*
X83740Y1157600D01*
X85160Y1152420D01*
X87260Y1147480D01*
X89980Y1142860D01*
X93320Y1138640D01*
X97180Y1134920D01*
X101500Y1131720D01*
X106199Y1129140D01*
X111220Y1127220D01*
X116440Y1125980D01*
G37*
G36*
X184320Y1129460D02*
G01*
X184320Y1148100D01*
X165420Y1148100D01*
X165859Y1147620D01*
X168680Y1142860D01*
X172020Y1138640D01*
X175880Y1134920D01*
X180200Y1131720D01*
G37*
G36*
X219320Y1129520D02*
G01*
X221140Y1130360D01*
X225660Y1133240D01*
X229760Y1136720D01*
X233359Y1140700D01*
X236400Y1145120D01*
X237920Y1148100D01*
X219320Y1148100D01*
G37*
G36*
X219320Y1183100D02*
G01*
X237920Y1183100D01*
X236400Y1186080D01*
X233359Y1190520D01*
X229760Y1194500D01*
X225660Y1197960D01*
X221140Y1200860D01*
X219320Y1201700D01*
G37*
G36*
X165420Y1183100D02*
G01*
X184320Y1183100D01*
X184320Y1201740D01*
X180200Y1199480D01*
X175880Y1196300D01*
X172020Y1192560D01*
X168680Y1188360D01*
X165859Y1183580D01*
G37*
G36*
X111160Y1358899D02*
G01*
X118280Y1359440D01*
X125280Y1360720D01*
X132140Y1362720D01*
X138740Y1365400D01*
X145020Y1368760D01*
X150940Y1372740D01*
X156420Y1377300D01*
X161400Y1382400D01*
X165820Y1388000D01*
X169640Y1394019D01*
X172840Y1400380D01*
X175340Y1407060D01*
X177160Y1413959D01*
X178260Y1421000D01*
X178619Y1428120D01*
X178260Y1435240D01*
X177160Y1442280D01*
X175340Y1449180D01*
X172840Y1455860D01*
X169640Y1462220D01*
X165820Y1468240D01*
X161400Y1473839D01*
X156420Y1478940D01*
X150940Y1483500D01*
X145020Y1487480D01*
X138740Y1490840D01*
X132140Y1493520D01*
X125280Y1495520D01*
X118280Y1496800D01*
X111160Y1497340D01*
X104040Y1497160D01*
X96960Y1496240D01*
X90020Y1494620D01*
X83300Y1492260D01*
X76840Y1489240D01*
X70720Y1485580D01*
X65020Y1481300D01*
X59780Y1476459D01*
X55080Y1471100D01*
X50940Y1465280D01*
X47440Y1459079D01*
X44580Y1452540D01*
X42420Y1445760D01*
X40960Y1438779D01*
X40220Y1431680D01*
X40220Y1424560D01*
X40960Y1417460D01*
X42420Y1410480D01*
X44580Y1403700D01*
X47440Y1397160D01*
X50940Y1390960D01*
X55080Y1385140D01*
X59780Y1379780D01*
X65020Y1374940D01*
X70720Y1370660D01*
X76840Y1367000D01*
X83300Y1363980D01*
X90020Y1361620D01*
X96960Y1360000D01*
X104040Y1359079D01*
G37*
G36*
X1554920Y1358899D02*
G01*
X1562020Y1359440D01*
X1569040Y1360720D01*
X1575880Y1362720D01*
X1582480Y1365400D01*
X1588779Y1368760D01*
X1594700Y1372740D01*
X1600160Y1377300D01*
X1605140Y1382400D01*
X1609580Y1388000D01*
X1613400Y1394019D01*
X1616579Y1400380D01*
X1619100Y1407060D01*
X1620920Y1413959D01*
X1622020Y1421000D01*
X1622380Y1428120D01*
X1622020Y1435240D01*
X1620920Y1442280D01*
X1619100Y1449180D01*
X1616579Y1455860D01*
X1613400Y1462220D01*
X1609580Y1468240D01*
X1605140Y1473839D01*
X1600160Y1478940D01*
X1594700Y1483500D01*
X1588779Y1487480D01*
X1582480Y1490840D01*
X1575880Y1493520D01*
X1569040Y1495520D01*
X1562020Y1496800D01*
X1554920Y1497340D01*
X1547780Y1497160D01*
X1540720Y1496240D01*
X1533779Y1494620D01*
X1527040Y1492260D01*
X1520580Y1489240D01*
X1514480Y1485580D01*
X1508760Y1481300D01*
X1503540Y1476459D01*
X1498820Y1471100D01*
X1494700Y1465280D01*
X1491180Y1459079D01*
X1488340Y1452540D01*
X1486160Y1445760D01*
X1484700Y1438779D01*
X1483980Y1431680D01*
X1483980Y1424560D01*
X1484700Y1417460D01*
X1486160Y1410480D01*
X1488340Y1403700D01*
X1491180Y1397160D01*
X1494700Y1390960D01*
X1498820Y1385140D01*
X1503540Y1379780D01*
X1508760Y1374940D01*
X1514480Y1370660D01*
X1520580Y1367000D01*
X1527040Y1363980D01*
X1533779Y1361620D01*
X1540720Y1360000D01*
X1547780Y1359079D01*
G37*

%LPD*%
D13*
X1356250Y143750D02*
G01*
X1428125Y143750D01*
X1559380Y275005D01*
X1559380Y1137500D01*
D11*
X893798Y621898D02*
G01*
X840600Y568701D01*
X840600Y196898D01*
X768750Y125048D01*
X768750Y81250D01*
X868750Y81250D02*
G01*
X868750Y143750D01*
X887500Y162500D01*
X887500Y543750D01*
D15*
X2725000Y1378130D02*
G01*
X2689350Y1342480D01*
X2689350Y1216875D01*
X2725000Y1025000D02*
G01*
X2725000Y1181226D01*
X2689350Y1216875D01*
X2125000Y1251250D02*
G01*
X2166679Y1292925D01*
X2689350Y1292925D01*
D11*
X612505Y909369D02*
G01*
X643750Y940614D01*
X643750Y999994D01*
X681255Y1037500D01*
D14*
X637500Y737494D02*
G01*
X637500Y659375D01*
X637500Y424994D02*
G01*
X637500Y346875D01*
X637500Y503125D02*
G01*
X637500Y424994D01*
X637500Y581244D02*
G01*
X637500Y503125D01*
X637500Y659375D02*
G01*
X637500Y581244D01*
D11*
X1331250Y1215619D02*
G01*
X1475000Y1071869D01*
X1475000Y702759D01*
X1706244Y1673764D02*
G01*
X1906244Y1673764D01*
X306244Y1673764D02*
G01*
X356244Y1723764D01*
X481244Y1723764D01*
X531244Y1673764D01*
X606244Y1673764D01*
X606244Y1673764D02*
G01*
X1031244Y1673764D01*
X1081244Y1723764D01*
X1231244Y1723764D01*
X1281244Y1673764D01*
X1706244Y1673764D01*
X1156244Y1992489D02*
G01*
X1581244Y1992489D01*
X1629345Y2040590D01*
X1783145Y2040590D01*
X1831244Y1992489D01*
X1906244Y1992489D01*
X306244Y1992489D02*
G01*
X355884Y2042129D01*
X681606Y2042129D01*
X731244Y1992489D01*
X1156244Y1992489D01*
D31*
G01*
X968750Y81250D03*
D32*
G01*
X868750Y81250D03*
G01*
X768750Y81250D03*
G01*
X668750Y81250D03*
G36*
X1035285Y112249D02*
G01*
X1102214Y112249D01*
X1102214Y50250D01*
X1035285Y50250D01*
G37*
D34*
G01*
X1168750Y81250D03*
D32*
G01*
X209380Y815619D03*
G01*
X109380Y815619D03*
G01*
X209380Y915619D03*
G01*
X109380Y915619D03*
G01*
X209380Y1015619D03*
D31*
G01*
X109380Y1015619D03*
G36*
X75911Y224749D02*
G01*
X142840Y224749D01*
X142840Y162750D01*
X75911Y162750D01*
G37*
D34*
G01*
X209380Y193739D03*
G36*
X75911Y324749D02*
G01*
X142840Y324749D01*
X142840Y262750D01*
X75911Y262750D01*
G37*
G01*
X209380Y293739D03*
D35*
G01*
X123130Y1165590D03*
G01*
X201829Y1165590D03*
D36*
G01*
X1156250Y1773750D03*
G01*
X1156250Y1673750D03*
G01*
X1156250Y2092500D03*
G01*
X1156250Y1992500D03*
G01*
X1706250Y2092500D03*
G01*
X1706250Y1992500D03*
G01*
X606250Y2092500D03*
G01*
X606250Y1992500D03*
G01*
X1706250Y1773750D03*
G01*
X1706250Y1673750D03*
G01*
X606250Y1773750D03*
G01*
X606250Y1673750D03*
G36*
X75911Y724749D02*
G01*
X142840Y724749D01*
X142840Y662750D01*
X75911Y662750D01*
G37*
D34*
G01*
X209380Y693739D03*
D36*
G01*
X2100000Y393750D03*
G01*
X2100000Y293750D03*
G01*
X2868750Y393750D03*
G01*
X2868750Y293750D03*
G36*
X75911Y424749D02*
G01*
X142840Y424749D01*
X142840Y362750D01*
X75911Y362750D01*
G37*
D34*
G01*
X209380Y393739D03*
G36*
X75911Y524749D02*
G01*
X142840Y524749D01*
X142840Y462750D01*
X75911Y462750D01*
G37*
G01*
X209380Y493739D03*
G36*
X75911Y624749D02*
G01*
X142840Y624749D01*
X142840Y562750D01*
X75911Y562750D01*
G37*
G01*
X209380Y593739D03*
D36*
G01*
X2325000Y1378130D03*
G01*
X2425000Y1378130D03*
G01*
X2425000Y1025000D03*
G01*
X2325000Y1025000D03*
G01*
X2925000Y1151250D03*
G01*
X2925000Y1251250D03*
G01*
X2625000Y1025000D03*
G01*
X2725000Y1025000D03*
G01*
X2125000Y1151250D03*
G01*
X2125000Y1251250D03*
G01*
X2625000Y1378130D03*
G01*
X2725000Y1378130D03*
D35*
G01*
X2360649Y1216880D03*
G01*
X2439350Y1216880D03*
G01*
X2610649Y1216880D03*
G01*
X2689350Y1216880D03*
G01*
X3090630Y384349D03*
G01*
X3090630Y305650D03*
G01*
X2321880Y384969D03*
G01*
X2321880Y306269D03*
G36*
X1975245Y1807229D02*
G01*
X1975245Y1740300D01*
X2037245Y1740300D01*
X2037245Y1807229D01*
G37*
D34*
G01*
X2006250Y1673750D03*
G36*
X375244Y1807229D02*
G01*
X375244Y1740300D01*
X437244Y1740300D01*
X437244Y1807229D01*
G37*
G01*
X406250Y1673750D03*
G36*
X1875245Y1807229D02*
G01*
X1875245Y1740300D01*
X1937245Y1740300D01*
X1937245Y1807229D01*
G37*
G01*
X1906250Y1673750D03*
G36*
X275244Y1807229D02*
G01*
X275244Y1740300D01*
X337244Y1740300D01*
X337244Y1807229D01*
G37*
G01*
X306250Y1673750D03*
G36*
X1975245Y2125979D02*
G01*
X1975245Y2059050D01*
X2037245Y2059050D01*
X2037245Y2125979D01*
G37*
G01*
X2006250Y1992500D03*
G36*
X375244Y2125979D02*
G01*
X375244Y2059050D01*
X437244Y2059050D01*
X437244Y2125979D01*
G37*
G01*
X406250Y1992500D03*
G36*
X1875245Y2125979D02*
G01*
X1875245Y2059050D01*
X1937245Y2059050D01*
X1937245Y2125979D01*
G37*
G01*
X1906250Y1992500D03*
G36*
X275244Y2125979D02*
G01*
X275244Y2059050D01*
X337244Y2059050D01*
X337244Y2125979D01*
G37*
G01*
X306250Y1992500D03*
D32*
G01*
X653130Y812500D03*
D12*
G01*
X478130Y771869D03*
D18*
G01*
X400000Y906250D03*
D12*
G01*
X309380Y806250D03*
D18*
G01*
X496880Y1062500D03*
G01*
X612500Y909369D03*
G01*
X681250Y1037500D03*
G01*
X803130Y778119D03*
G01*
X812500Y1006250D03*
G01*
X390619Y1209380D03*
G01*
X390619Y1240630D03*
G01*
X637500Y659369D03*
G01*
X637500Y503119D03*
G01*
X637500Y346869D03*
G01*
X637500Y737500D03*
G01*
X637500Y581250D03*
G01*
X637500Y425000D03*
G01*
X1481250Y1268750D03*
G01*
X925000Y1137500D03*
G01*
X887500Y543750D03*
G01*
X893750Y621875D03*
G01*
X815630Y1231250D03*
G01*
X1331250Y1215625D03*
G01*
X1475000Y702759D03*
G01*
X618750Y1215619D03*
G01*
X531250Y1196869D03*
G01*
X1356250Y143750D03*
G01*
X1559375Y1137500D03*
G01*
X1428125Y1300000D03*
G01*
X1600005Y1312494D03*
G01*
X806250Y1134369D03*
G01*
X1428125Y1262500D03*
M02*
