G04 Layer: BottomSilkscreenLayer*
G04 EasyEDA v6.5.1, 2022-03-27 00:01:15*
G04 cc65af8350e74c879d8fba7fd4beee03,7d3f4a13764643a7838717c5c1d40531,10*
G04 Gerber Generator version 0.2*
G04 Scale: 100 percent, Rotated: No, Reflected: No *
G04 Dimensions in inches *
G04 leading zeros omitted , absolute positions ,3 integer and 6 decimal *
%FSLAX36Y36*%
%MOIN*%

%ADD10C,0.0100*%
%ADD14C,0.0250*%
%ADD16C,0.0060*%
%ADD38C,0.0080*%
%ADD39C,0.0080*%
%ADD42C,0.0157*%

%LPD*%
G36*
X1345500Y972120D02*
G01*
X1342880Y972080D01*
X1337760Y971640D01*
X1335260Y971280D01*
X1330420Y970240D01*
X1325780Y968840D01*
X1323540Y968020D01*
X1321339Y967099D01*
X1317140Y965040D01*
X1315120Y963900D01*
X1311300Y961400D01*
X1307720Y958660D01*
X1304440Y955699D01*
X1302900Y954120D01*
X1311699Y943520D01*
X1315160Y946600D01*
X1316960Y948020D01*
X1320700Y950580D01*
X1322660Y951740D01*
X1324660Y952800D01*
X1326720Y953760D01*
X1331020Y955360D01*
X1333260Y956020D01*
X1335580Y956540D01*
X1337940Y956960D01*
X1340400Y957280D01*
X1342900Y957460D01*
X1345500Y957520D01*
X1348000Y957460D01*
X1350420Y957280D01*
X1352740Y956960D01*
X1354980Y956520D01*
X1357100Y955960D01*
X1359120Y955300D01*
X1361040Y954520D01*
X1362840Y953620D01*
X1364520Y952620D01*
X1366060Y951500D01*
X1367500Y950280D01*
X1368800Y948980D01*
X1369960Y947560D01*
X1370980Y946040D01*
X1371840Y944440D01*
X1372580Y942760D01*
X1373140Y940980D01*
X1373560Y939100D01*
X1373820Y937159D01*
X1373899Y935120D01*
X1373740Y932420D01*
X1373300Y929920D01*
X1372600Y927620D01*
X1371660Y925500D01*
X1370500Y923560D01*
X1369120Y921760D01*
X1367580Y920120D01*
X1365900Y918600D01*
X1364079Y917200D01*
X1362140Y915920D01*
X1358040Y913600D01*
X1353760Y911580D01*
X1326220Y899780D01*
X1322160Y897820D01*
X1318300Y895680D01*
X1314660Y893360D01*
X1311300Y890819D01*
X1309720Y889460D01*
X1306800Y886520D01*
X1305460Y884940D01*
X1304220Y883300D01*
X1303080Y881560D01*
X1302040Y879740D01*
X1301100Y877820D01*
X1300280Y875800D01*
X1299580Y873700D01*
X1298980Y871480D01*
X1298520Y869160D01*
X1298180Y866740D01*
X1297960Y864180D01*
X1297900Y861520D01*
X1297960Y859380D01*
X1298120Y857280D01*
X1298380Y855200D01*
X1299259Y851160D01*
X1299840Y849200D01*
X1300540Y847280D01*
X1301339Y845420D01*
X1303220Y841820D01*
X1305500Y838439D01*
X1306780Y836840D01*
X1309620Y833820D01*
X1311180Y832400D01*
X1314540Y829780D01*
X1316360Y828560D01*
X1320240Y826380D01*
X1322300Y825400D01*
X1324440Y824500D01*
X1326660Y823700D01*
X1331339Y822340D01*
X1336320Y821340D01*
X1338899Y820980D01*
X1344300Y820580D01*
X1349680Y820560D01*
X1354740Y820920D01*
X1357200Y821200D01*
X1362040Y822039D01*
X1366699Y823199D01*
X1368980Y823880D01*
X1373420Y825500D01*
X1377680Y827380D01*
X1381759Y829539D01*
X1385680Y831960D01*
X1389400Y834640D01*
X1392940Y837540D01*
X1396300Y840680D01*
X1397900Y842320D01*
X1387900Y853720D01*
X1384600Y850440D01*
X1382860Y848880D01*
X1379220Y846000D01*
X1375360Y843420D01*
X1371339Y841160D01*
X1369280Y840140D01*
X1365020Y838379D01*
X1360620Y836979D01*
X1358400Y836420D01*
X1356140Y835960D01*
X1351540Y835340D01*
X1346900Y835120D01*
X1343959Y835200D01*
X1341140Y835420D01*
X1338440Y835800D01*
X1335860Y836300D01*
X1333420Y836960D01*
X1331120Y837740D01*
X1328959Y838640D01*
X1326920Y839680D01*
X1325040Y840819D01*
X1323300Y842099D01*
X1321699Y843480D01*
X1320260Y844980D01*
X1318980Y846580D01*
X1317880Y848259D01*
X1316920Y850060D01*
X1316120Y851940D01*
X1315500Y853920D01*
X1315060Y855980D01*
X1314780Y858120D01*
X1314700Y860320D01*
X1314820Y863160D01*
X1315200Y865759D01*
X1315800Y868160D01*
X1316639Y870340D01*
X1317680Y872340D01*
X1318920Y874180D01*
X1320340Y875860D01*
X1321940Y877420D01*
X1323720Y878880D01*
X1325640Y880220D01*
X1327700Y881500D01*
X1329880Y882720D01*
X1334600Y885040D01*
X1362600Y897480D01*
X1366080Y899120D01*
X1369560Y900960D01*
X1373000Y903060D01*
X1376300Y905400D01*
X1379420Y908040D01*
X1380900Y909479D01*
X1382300Y911000D01*
X1383620Y912600D01*
X1384860Y914280D01*
X1386000Y916060D01*
X1387020Y917940D01*
X1387960Y919900D01*
X1388760Y921960D01*
X1389440Y924140D01*
X1389980Y926420D01*
X1390360Y928800D01*
X1390620Y931300D01*
X1390700Y933920D01*
X1390620Y936280D01*
X1390400Y938580D01*
X1390040Y940840D01*
X1389560Y943040D01*
X1388920Y945160D01*
X1388180Y947240D01*
X1387280Y949260D01*
X1386279Y951200D01*
X1385160Y953080D01*
X1383920Y954900D01*
X1382560Y956620D01*
X1381100Y958280D01*
X1379520Y959860D01*
X1377840Y961360D01*
X1376080Y962760D01*
X1374199Y964080D01*
X1372240Y965320D01*
X1368040Y967500D01*
X1365820Y968439D01*
X1363520Y969280D01*
X1361160Y970020D01*
X1358700Y970660D01*
X1356180Y971180D01*
X1353600Y971580D01*
X1350960Y971880D01*
X1348260Y972060D01*
G37*
G36*
X1165900Y969520D02*
G01*
X1165900Y823120D01*
X1183100Y823120D01*
X1238100Y917920D01*
X1254100Y947920D01*
X1255100Y947920D01*
X1253520Y920260D01*
X1253140Y909000D01*
X1253100Y823120D01*
X1268700Y823120D01*
X1268700Y969520D01*
X1251700Y969520D01*
X1196300Y874720D01*
X1180500Y844720D01*
X1179500Y844720D01*
X1180840Y865060D01*
X1181320Y874320D01*
X1181660Y885800D01*
X1181700Y969520D01*
G37*
D16*
X2378658Y1333238D02*
G01*
X2345932Y1333238D01*
X2362295Y1316875D02*
G01*
X2362295Y1349601D01*
X1382106Y1464200D02*
G01*
X1368470Y1432381D01*
X1354835Y1464200D02*
G01*
X1368470Y1432381D01*
X1373015Y1423290D01*
X1377561Y1418746D01*
X1382106Y1416473D01*
X1384380Y1416473D01*
X1328470Y1464200D02*
G01*
X1333015Y1461927D01*
X1337561Y1457381D01*
X1339835Y1450563D01*
X1339835Y1446019D01*
X1337561Y1439200D01*
X1333015Y1434654D01*
X1328470Y1432381D01*
X1321652Y1432381D01*
X1317106Y1434654D01*
X1312561Y1439200D01*
X1310289Y1446019D01*
X1310289Y1450563D01*
X1312561Y1457381D01*
X1317106Y1461927D01*
X1321652Y1464200D01*
X1328470Y1464200D01*
X1295289Y1464200D02*
G01*
X1295289Y1441473D01*
X1293015Y1434654D01*
X1288470Y1432381D01*
X1281652Y1432381D01*
X1277106Y1434654D01*
X1270289Y1441473D01*
X1270289Y1464200D02*
G01*
X1270289Y1432381D01*
X1248470Y1480109D02*
G01*
X1248470Y1441473D01*
X1246198Y1434654D01*
X1241652Y1432381D01*
X1237106Y1432381D01*
X1255289Y1464200D02*
G01*
X1239380Y1464200D01*
X1222106Y1464200D02*
G01*
X1222106Y1441473D01*
X1219835Y1434654D01*
X1215289Y1432381D01*
X1208470Y1432381D01*
X1203924Y1434654D01*
X1197106Y1441473D01*
X1197106Y1464200D02*
G01*
X1197106Y1432381D01*
X1182106Y1480109D02*
G01*
X1182106Y1432381D01*
X1182106Y1457381D02*
G01*
X1177561Y1461927D01*
X1173015Y1464200D01*
X1166198Y1464200D01*
X1161652Y1461927D01*
X1157106Y1457381D01*
X1154835Y1450563D01*
X1154835Y1446019D01*
X1157106Y1439200D01*
X1161652Y1434654D01*
X1166198Y1432381D01*
X1173015Y1432381D01*
X1177561Y1434654D01*
X1182106Y1439200D01*
X1139835Y1450563D02*
G01*
X1112561Y1450563D01*
X1112561Y1455109D01*
X1114835Y1459654D01*
X1117106Y1461927D01*
X1121652Y1464200D01*
X1128470Y1464200D01*
X1133015Y1461927D01*
X1137561Y1457381D01*
X1139835Y1450563D01*
X1139835Y1446019D01*
X1137561Y1439200D01*
X1133015Y1434654D01*
X1128470Y1432381D01*
X1121652Y1432381D01*
X1117106Y1434654D01*
X1112561Y1439200D01*
X1095289Y1443746D02*
G01*
X1097561Y1441473D01*
X1095289Y1439200D01*
X1093015Y1441473D01*
X1095289Y1443746D01*
X1050744Y1457381D02*
G01*
X1055289Y1461927D01*
X1059835Y1464200D01*
X1066652Y1464200D01*
X1071198Y1461927D01*
X1075744Y1457381D01*
X1078015Y1450563D01*
X1078015Y1446019D01*
X1075744Y1439200D01*
X1071198Y1434654D01*
X1066652Y1432381D01*
X1059835Y1432381D01*
X1055289Y1434654D01*
X1050744Y1439200D01*
X1024380Y1464200D02*
G01*
X1028924Y1461927D01*
X1033470Y1457381D01*
X1035744Y1450563D01*
X1035744Y1446019D01*
X1033470Y1439200D01*
X1028924Y1434654D01*
X1024380Y1432381D01*
X1017561Y1432381D01*
X1013015Y1434654D01*
X1008470Y1439200D01*
X1006198Y1446019D01*
X1006198Y1450563D01*
X1008470Y1457381D01*
X1013015Y1461927D01*
X1017561Y1464200D01*
X1024380Y1464200D01*
X991198Y1464200D02*
G01*
X991198Y1432381D01*
X991198Y1455109D02*
G01*
X984380Y1461927D01*
X979835Y1464200D01*
X973015Y1464200D01*
X968470Y1461927D01*
X966198Y1455109D01*
X966198Y1432381D01*
X966198Y1455109D02*
G01*
X959380Y1461927D01*
X954835Y1464200D01*
X948015Y1464200D01*
X943470Y1461927D01*
X941198Y1455109D01*
X941198Y1432381D01*
X885289Y1489200D02*
G01*
X926198Y1416473D01*
X843015Y1457381D02*
G01*
X847561Y1461927D01*
X852106Y1464200D01*
X858924Y1464200D01*
X863470Y1461927D01*
X868015Y1457381D01*
X870289Y1450563D01*
X870289Y1446019D01*
X868015Y1439200D01*
X863470Y1434654D01*
X858924Y1432381D01*
X852106Y1432381D01*
X847561Y1434654D01*
X843015Y1439200D01*
X828015Y1480109D02*
G01*
X828015Y1432381D01*
X828015Y1455109D02*
G01*
X821198Y1461927D01*
X816652Y1464200D01*
X809835Y1464200D01*
X805289Y1461927D01*
X803015Y1455109D01*
X803015Y1432381D01*
X760744Y1464200D02*
G01*
X760744Y1432381D01*
X760744Y1457381D02*
G01*
X765289Y1461927D01*
X769835Y1464200D01*
X776652Y1464200D01*
X781198Y1461927D01*
X785744Y1457381D01*
X788015Y1450563D01*
X788015Y1446019D01*
X785744Y1439200D01*
X781198Y1434654D01*
X776652Y1432381D01*
X769835Y1432381D01*
X765289Y1434654D01*
X760744Y1439200D01*
X745743Y1464200D02*
G01*
X745743Y1432381D01*
X745743Y1455109D02*
G01*
X738924Y1461927D01*
X734380Y1464200D01*
X727561Y1464200D01*
X723015Y1461927D01*
X720743Y1455109D01*
X720743Y1432381D01*
X705743Y1464200D02*
G01*
X705743Y1432381D01*
X705743Y1455109D02*
G01*
X698924Y1461927D01*
X694380Y1464200D01*
X687561Y1464200D01*
X683015Y1461927D01*
X680743Y1455109D01*
X680743Y1432381D01*
X665743Y1450563D02*
G01*
X638470Y1450563D01*
X638470Y1455109D01*
X640743Y1459654D01*
X643015Y1461927D01*
X647561Y1464200D01*
X654380Y1464200D01*
X658924Y1461927D01*
X663470Y1457381D01*
X665743Y1450563D01*
X665743Y1446019D01*
X663470Y1439200D01*
X658924Y1434654D01*
X654380Y1432381D01*
X647561Y1432381D01*
X643015Y1434654D01*
X638470Y1439200D01*
X623470Y1480109D02*
G01*
X623470Y1432381D01*
X567561Y1489200D02*
G01*
X608470Y1416473D01*
X1384380Y1390109D02*
G01*
X1384380Y1356019D01*
X1382106Y1349200D01*
X1377561Y1344654D01*
X1370744Y1342381D01*
X1366198Y1342381D01*
X1359380Y1344654D01*
X1354835Y1349200D01*
X1352561Y1356019D01*
X1352561Y1390109D01*
X1303470Y1378746D02*
G01*
X1305744Y1383290D01*
X1310289Y1387836D01*
X1314835Y1390109D01*
X1323924Y1390109D01*
X1328470Y1387836D01*
X1333015Y1383290D01*
X1335289Y1378746D01*
X1337561Y1371927D01*
X1337561Y1360563D01*
X1335289Y1353746D01*
X1333015Y1349200D01*
X1328470Y1344654D01*
X1323924Y1342381D01*
X1314835Y1342381D01*
X1310289Y1344654D01*
X1305744Y1349200D01*
X1303470Y1353746D01*
X1263470Y1367381D02*
G01*
X1265744Y1371927D01*
X1272561Y1374200D01*
X1279380Y1374200D01*
X1286198Y1371927D01*
X1288470Y1367381D01*
X1286198Y1362836D01*
X1281652Y1360563D01*
X1270289Y1358290D01*
X1265744Y1356019D01*
X1263470Y1351473D01*
X1263470Y1349200D01*
X1265744Y1344654D01*
X1272561Y1342381D01*
X1279380Y1342381D01*
X1286198Y1344654D01*
X1288470Y1349200D01*
X1248470Y1390109D02*
G01*
X1246198Y1387836D01*
X1243924Y1390109D01*
X1246198Y1392381D01*
X1248470Y1390109D01*
X1246198Y1374200D02*
G01*
X1246198Y1342381D01*
X1219835Y1390109D02*
G01*
X1217561Y1387836D01*
X1215289Y1390109D01*
X1217561Y1392381D01*
X1219835Y1390109D01*
X1217561Y1374200D02*
G01*
X1217561Y1335563D01*
X1219835Y1328746D01*
X1224380Y1326473D01*
X1228924Y1326473D01*
X1186652Y1390109D02*
G01*
X1191198Y1387836D01*
X1195744Y1383290D01*
X1198015Y1378746D01*
X1200289Y1371927D01*
X1200289Y1360563D01*
X1198015Y1353746D01*
X1195744Y1349200D01*
X1191198Y1344654D01*
X1186652Y1342381D01*
X1177561Y1342381D01*
X1173015Y1344654D01*
X1168470Y1349200D01*
X1166198Y1353746D01*
X1163924Y1360563D01*
X1163924Y1371927D01*
X1166198Y1378746D01*
X1168470Y1383290D01*
X1173015Y1387836D01*
X1177561Y1390109D01*
X1186652Y1390109D01*
X1139835Y1390109D02*
G01*
X1137561Y1387836D01*
X1135289Y1390109D01*
X1137561Y1392381D01*
X1139835Y1390109D01*
X1137561Y1374200D02*
G01*
X1137561Y1335563D01*
X1139835Y1328746D01*
X1144380Y1326473D01*
X1148924Y1326473D01*
X1106652Y1390109D02*
G01*
X1111198Y1387836D01*
X1115744Y1383290D01*
X1118015Y1378746D01*
X1120289Y1371927D01*
X1120289Y1360563D01*
X1118015Y1353746D01*
X1115744Y1349200D01*
X1111198Y1344654D01*
X1106652Y1342381D01*
X1097561Y1342381D01*
X1093015Y1344654D01*
X1088470Y1349200D01*
X1086198Y1353746D01*
X1083924Y1360563D01*
X1083924Y1371927D01*
X1086198Y1378746D01*
X1088470Y1383290D01*
X1093015Y1387836D01*
X1097561Y1390109D01*
X1106652Y1390109D01*
X1041652Y1367381D02*
G01*
X1046198Y1371927D01*
X1050744Y1374200D01*
X1057561Y1374200D01*
X1062106Y1371927D01*
X1066652Y1367381D01*
X1068924Y1360563D01*
X1068924Y1356019D01*
X1066652Y1349200D01*
X1062106Y1344654D01*
X1057561Y1342381D01*
X1050744Y1342381D01*
X1046198Y1344654D01*
X1041652Y1349200D01*
X1026652Y1362836D02*
G01*
X985744Y1362836D01*
X968470Y1374200D02*
G01*
X954835Y1342381D01*
X941198Y1374200D02*
G01*
X954835Y1342381D01*
X959380Y1333290D01*
X963924Y1328746D01*
X968470Y1326473D01*
X970744Y1326473D01*
X926198Y1390109D02*
G01*
X926198Y1342381D01*
X926198Y1390109D02*
G01*
X905744Y1390109D01*
X898924Y1387836D01*
X896652Y1385563D01*
X894380Y1381019D01*
X894380Y1374200D01*
X896652Y1369654D01*
X898924Y1367381D01*
X905744Y1365109D01*
X926198Y1365109D01*
X879380Y1390109D02*
G01*
X879380Y1342381D01*
X879380Y1365109D02*
G01*
X872561Y1371927D01*
X868015Y1374200D01*
X861198Y1374200D01*
X856652Y1371927D01*
X854380Y1365109D01*
X854380Y1342381D01*
X839380Y1390109D02*
G01*
X828015Y1342381D01*
X816652Y1390109D02*
G01*
X828015Y1342381D01*
X816652Y1390109D02*
G01*
X805289Y1342381D01*
X793924Y1390109D02*
G01*
X805289Y1342381D01*
X778924Y1390109D02*
G01*
X778924Y1342381D01*
X778924Y1390109D02*
G01*
X749380Y1390109D01*
X778924Y1367381D02*
G01*
X760744Y1367381D01*
X778924Y1342381D02*
G01*
X749380Y1342381D01*
X734380Y1390109D02*
G01*
X716197Y1367381D01*
X716197Y1342381D01*
X698015Y1390109D02*
G01*
X716197Y1367381D01*
X683015Y1374200D02*
G01*
X683015Y1342381D01*
X683015Y1365109D02*
G01*
X676197Y1371927D01*
X671653Y1374200D01*
X664834Y1374200D01*
X660288Y1371927D01*
X658015Y1365109D01*
X658015Y1342381D01*
X633924Y1390109D02*
G01*
X631653Y1387836D01*
X629380Y1390109D01*
X631653Y1392381D01*
X633924Y1390109D01*
X631653Y1374200D02*
G01*
X631653Y1335563D01*
X633924Y1328746D01*
X638470Y1326473D01*
X643015Y1326473D01*
X614380Y1360563D02*
G01*
X587107Y1360563D01*
X587107Y1365109D01*
X589380Y1369654D01*
X591653Y1371927D01*
X596197Y1374200D01*
X603015Y1374200D01*
X607561Y1371927D01*
X612107Y1367381D01*
X614380Y1360563D01*
X614380Y1356019D01*
X612107Y1349200D01*
X607561Y1344654D01*
X603015Y1342381D01*
X596197Y1342381D01*
X591653Y1344654D01*
X587107Y1349200D01*
X572107Y1390109D02*
G01*
X572107Y1342381D01*
X572107Y1390109D02*
G01*
X551653Y1390109D01*
X544834Y1387836D01*
X542561Y1385563D01*
X540288Y1381019D01*
X540288Y1376473D01*
X542561Y1371927D01*
X544834Y1369654D01*
X551653Y1367381D01*
X572107Y1367381D01*
X556197Y1367381D02*
G01*
X540288Y1342381D01*
X498015Y1374200D02*
G01*
X498015Y1342381D01*
X498015Y1367381D02*
G01*
X502561Y1371927D01*
X507107Y1374200D01*
X513924Y1374200D01*
X518470Y1371927D01*
X523015Y1367381D01*
X525288Y1360563D01*
X525288Y1356019D01*
X523015Y1349200D01*
X518470Y1344654D01*
X513924Y1342381D01*
X507107Y1342381D01*
X502561Y1344654D01*
X498015Y1349200D01*
X483015Y1390109D02*
G01*
X483015Y1342381D01*
X451197Y1390109D02*
G01*
X451197Y1342381D01*
X483015Y1367381D02*
G01*
X451197Y1367381D01*
X427107Y1390109D02*
G01*
X424834Y1387836D01*
X422561Y1390109D01*
X424834Y1392381D01*
X427107Y1390109D01*
X424834Y1374200D02*
G01*
X424834Y1335563D01*
X427107Y1328746D01*
X431653Y1326473D01*
X436197Y1326473D01*
X393924Y1390109D02*
G01*
X398470Y1387836D01*
X403015Y1383290D01*
X405288Y1378746D01*
X407561Y1371927D01*
X407561Y1360563D01*
X405288Y1353746D01*
X403015Y1349200D01*
X398470Y1344654D01*
X393924Y1342381D01*
X384834Y1342381D01*
X380288Y1344654D01*
X375743Y1349200D01*
X373470Y1353746D01*
X371197Y1360563D01*
X371197Y1371927D01*
X373470Y1378746D01*
X375743Y1383290D01*
X380288Y1387836D01*
X384834Y1390109D01*
X393924Y1390109D01*
X387107Y1351473D02*
G01*
X373470Y1337836D01*
X2182669Y1550064D02*
G01*
X2182669Y1517337D01*
X2184715Y1511199D01*
X2186760Y1509155D01*
X2190852Y1507109D01*
X2194943Y1507109D01*
X2199034Y1509155D01*
X2201080Y1511199D01*
X2203125Y1517337D01*
X2203125Y1521428D01*
X2169170Y1550064D02*
G01*
X2169170Y1507109D01*
X2169170Y1507109D02*
G01*
X2144624Y1507109D01*
X2100442Y1539837D02*
G01*
X2102488Y1543928D01*
X2106580Y1548018D01*
X2110670Y1550064D01*
X2118851Y1550064D01*
X2122942Y1548018D01*
X2127034Y1543928D01*
X2129080Y1539837D01*
X2131125Y1533699D01*
X2131125Y1523472D01*
X2129080Y1517337D01*
X2127034Y1513245D01*
X2122942Y1509155D01*
X2118851Y1507109D01*
X2110670Y1507109D01*
X2106580Y1509155D01*
X2102488Y1513245D01*
X2100442Y1517337D01*
X2066489Y1550064D02*
G01*
X2066489Y1517337D01*
X2068533Y1511199D01*
X2070580Y1509155D01*
X2074669Y1507109D01*
X2078761Y1507109D01*
X2082852Y1509155D01*
X2084898Y1511199D01*
X2086943Y1517337D01*
X2086943Y1521428D01*
X2052988Y1550064D02*
G01*
X2052988Y1507109D01*
X2052988Y1507109D02*
G01*
X2028442Y1507109D01*
X1984260Y1539837D02*
G01*
X1986306Y1543928D01*
X1990397Y1548018D01*
X1994489Y1550064D01*
X2002669Y1550064D01*
X2006760Y1548018D01*
X2010852Y1543928D01*
X2012897Y1539837D01*
X2014943Y1533699D01*
X2014943Y1523472D01*
X2012897Y1517337D01*
X2010852Y1513245D01*
X2006760Y1509155D01*
X2002669Y1507109D01*
X1994489Y1507109D01*
X1990397Y1509155D01*
X1986306Y1513245D01*
X1984260Y1517337D01*
X1950307Y1550064D02*
G01*
X1950307Y1517337D01*
X1952352Y1511199D01*
X1954398Y1509155D01*
X1958488Y1507109D01*
X1962579Y1507109D01*
X1966670Y1509155D01*
X1968716Y1511199D01*
X1970761Y1517337D01*
X1970761Y1521428D01*
X1936806Y1550064D02*
G01*
X1936806Y1507109D01*
X1936806Y1507109D02*
G01*
X1912260Y1507109D01*
X1868080Y1539837D02*
G01*
X1870124Y1543928D01*
X1874215Y1548018D01*
X1878307Y1550064D01*
X1886489Y1550064D01*
X1890580Y1548018D01*
X1894669Y1543928D01*
X1896715Y1539837D01*
X1898761Y1533699D01*
X1898761Y1523472D01*
X1896715Y1517337D01*
X1894669Y1513245D01*
X1890580Y1509155D01*
X1886489Y1507109D01*
X1878307Y1507109D01*
X1874215Y1509155D01*
X1870124Y1513245D01*
X1868080Y1517337D01*
X1834125Y1550064D02*
G01*
X1834125Y1517337D01*
X1836170Y1511199D01*
X1838216Y1509155D01*
X1842307Y1507109D01*
X1846397Y1507109D01*
X1850488Y1509155D01*
X1852533Y1511199D01*
X1854579Y1517337D01*
X1854579Y1521428D01*
X1820625Y1550064D02*
G01*
X1820625Y1507109D01*
X1820625Y1507109D02*
G01*
X1796080Y1507109D01*
X1751898Y1539837D02*
G01*
X1753942Y1543928D01*
X1758033Y1548018D01*
X1762124Y1550064D01*
X1770307Y1550064D01*
X1774398Y1548018D01*
X1778488Y1543928D01*
X1780533Y1539837D01*
X1782579Y1533699D01*
X1782579Y1523472D01*
X1780533Y1517337D01*
X1778488Y1513245D01*
X1774398Y1509155D01*
X1770307Y1507109D01*
X1762124Y1507109D01*
X1758033Y1509155D01*
X1753942Y1513245D01*
X1751898Y1517337D01*
X2240169Y1211158D02*
G01*
X2243806Y1214794D01*
X2249260Y1216613D01*
X2256534Y1216613D01*
X2261989Y1214794D01*
X2265625Y1211158D01*
X2265625Y1207523D01*
X2263806Y1203886D01*
X2261989Y1202067D01*
X2258352Y1200250D01*
X2247443Y1196613D01*
X2243806Y1194794D01*
X2241989Y1192977D01*
X2240169Y1189340D01*
X2240169Y1183886D01*
X2243806Y1180250D01*
X2249260Y1178431D01*
X2256534Y1178431D01*
X2261989Y1180250D01*
X2265625Y1183886D01*
X2217260Y1216613D02*
G01*
X2222716Y1214794D01*
X2226351Y1209340D01*
X2228170Y1200250D01*
X2228170Y1194794D01*
X2226351Y1185704D01*
X2222716Y1180250D01*
X2217260Y1178431D01*
X2213625Y1178431D01*
X2208170Y1180250D01*
X2204534Y1185704D01*
X2202716Y1194794D01*
X2202716Y1200250D01*
X2204534Y1209340D01*
X2208170Y1214794D01*
X2213625Y1216613D01*
X2217260Y1216613D01*
X2147100Y370625D02*
G01*
X2185299Y370625D01*
X2147100Y370625D02*
G01*
X2147100Y347024D01*
X2165299Y370625D02*
G01*
X2165299Y356125D01*
X2185299Y370625D02*
G01*
X2185299Y347024D01*
X2147100Y324124D02*
G01*
X2148999Y329524D01*
X2154399Y333125D01*
X2163500Y335025D01*
X2168999Y335025D01*
X2178000Y333125D01*
X2183500Y329524D01*
X2185299Y324124D01*
X2185299Y320425D01*
X2183500Y315025D01*
X2178000Y311325D01*
X2168999Y309524D01*
X2163500Y309524D01*
X2154399Y311325D01*
X2148999Y315025D01*
X2147100Y320425D01*
X2147100Y324124D01*
X2915850Y370000D02*
G01*
X2954049Y370000D01*
X2915850Y370000D02*
G01*
X2915850Y346399D01*
X2934049Y370000D02*
G01*
X2934049Y355500D01*
X2954049Y370000D02*
G01*
X2954049Y346399D01*
X2923149Y334400D02*
G01*
X2921350Y330700D01*
X2915850Y325300D01*
X2954049Y325300D01*
X2305716Y498011D02*
G01*
X2338442Y498011D01*
X2322079Y514375D02*
G01*
X2322079Y481648D01*
X3074466Y497386D02*
G01*
X3107192Y497386D01*
X3090829Y513750D02*
G01*
X3090829Y481023D01*
D10*
X1631244Y2088867D02*
G01*
X1631244Y2012503D01*
X1631244Y2088867D02*
G01*
X1602154Y2012503D01*
X1573063Y2088867D02*
G01*
X1602154Y2012503D01*
X1573063Y2088867D02*
G01*
X1573063Y2012503D01*
X1493063Y2088867D02*
G01*
X1493063Y2012503D01*
X1493063Y2012503D02*
G01*
X1449426Y2012503D01*
X1425426Y2041595D02*
G01*
X1381790Y2041595D01*
X1381790Y2048867D01*
X1385426Y2056140D01*
X1389062Y2059776D01*
X1396336Y2063413D01*
X1407245Y2063413D01*
X1414517Y2059776D01*
X1421790Y2052503D01*
X1425426Y2041595D01*
X1425426Y2034322D01*
X1421790Y2023413D01*
X1414517Y2016140D01*
X1407245Y2012503D01*
X1396336Y2012503D01*
X1389062Y2016140D01*
X1381790Y2023413D01*
X1328699Y2088867D02*
G01*
X1335972Y2088867D01*
X1343244Y2085230D01*
X1346881Y2074322D01*
X1346881Y2012503D01*
X1357790Y2063413D02*
G01*
X1332335Y2063413D01*
X1293789Y2088867D02*
G01*
X1293789Y2027049D01*
X1290154Y2016140D01*
X1282880Y2012503D01*
X1275609Y2012503D01*
X1304700Y2063413D02*
G01*
X1279245Y2063413D01*
X1631244Y1770117D02*
G01*
X1631244Y1693753D01*
X1631244Y1770117D02*
G01*
X1602154Y1693753D01*
X1573063Y1770117D02*
G01*
X1602154Y1693753D01*
X1573063Y1770117D02*
G01*
X1573063Y1693753D01*
X1493063Y1770117D02*
G01*
X1493063Y1693753D01*
X1493063Y1770117D02*
G01*
X1460335Y1770117D01*
X1449426Y1766480D01*
X1445789Y1762845D01*
X1442154Y1755572D01*
X1442154Y1748299D01*
X1445789Y1741026D01*
X1449426Y1737390D01*
X1460335Y1733753D01*
X1493063Y1733753D01*
X1467609Y1733753D02*
G01*
X1442154Y1693753D01*
X1418154Y1770117D02*
G01*
X1414517Y1766480D01*
X1410880Y1770117D01*
X1414517Y1773753D01*
X1418154Y1770117D01*
X1414517Y1744663D02*
G01*
X1414517Y1693753D01*
X1343244Y1744663D02*
G01*
X1343244Y1686480D01*
X1346881Y1675572D01*
X1350518Y1671934D01*
X1357790Y1668299D01*
X1368699Y1668299D01*
X1375972Y1671934D01*
X1343244Y1733753D02*
G01*
X1350518Y1741026D01*
X1357790Y1744663D01*
X1368699Y1744663D01*
X1375972Y1741026D01*
X1383244Y1733753D01*
X1386881Y1722845D01*
X1386881Y1715572D01*
X1383244Y1704663D01*
X1375972Y1697390D01*
X1368699Y1693753D01*
X1357790Y1693753D01*
X1350518Y1697390D01*
X1343244Y1704663D01*
X1319245Y1770117D02*
G01*
X1319245Y1693753D01*
X1319245Y1730117D02*
G01*
X1308335Y1741026D01*
X1301063Y1744663D01*
X1290154Y1744663D01*
X1282880Y1741026D01*
X1279245Y1730117D01*
X1279245Y1693753D01*
X1244336Y1770117D02*
G01*
X1244336Y1708299D01*
X1240699Y1697390D01*
X1233427Y1693753D01*
X1226153Y1693753D01*
X1255245Y1744663D02*
G01*
X1229790Y1744663D01*
D16*
X3090829Y210625D02*
G01*
X3090829Y177898D01*
X2322079Y211250D02*
G01*
X2322079Y178523D01*
X2071336Y2091775D02*
G01*
X2104062Y2091775D01*
X2087700Y2108139D02*
G01*
X2087700Y2075412D01*
X2071336Y1773025D02*
G01*
X2104062Y1773025D01*
X2087700Y1789389D02*
G01*
X2087700Y1756662D01*
X208836Y1776150D02*
G01*
X241563Y1776150D01*
X225199Y1792514D02*
G01*
X225199Y1759787D01*
X208836Y2094900D02*
G01*
X241563Y2094900D01*
X225199Y2111264D02*
G01*
X225199Y2078537D01*
X2628658Y1336363D02*
G01*
X2595932Y1336363D01*
X2612295Y1320000D02*
G01*
X2612295Y1352726D01*
X2812044Y1211158D02*
G01*
X2815681Y1214794D01*
X2821135Y1216613D01*
X2828409Y1216613D01*
X2833864Y1214794D01*
X2837500Y1211158D01*
X2837500Y1207523D01*
X2835681Y1203886D01*
X2833864Y1202067D01*
X2830227Y1200250D01*
X2819318Y1196613D01*
X2815681Y1194794D01*
X2813864Y1192977D01*
X2812044Y1189340D01*
X2812044Y1183886D01*
X2815681Y1180250D01*
X2821135Y1178431D01*
X2828409Y1178431D01*
X2833864Y1180250D01*
X2837500Y1183886D01*
X2800045Y1209340D02*
G01*
X2796409Y1211158D01*
X2790955Y1216613D01*
X2790955Y1178431D01*
X211761Y1314648D02*
G01*
X225398Y1314648D01*
X226761Y1302375D01*
X225398Y1303739D01*
X221307Y1305102D01*
X217215Y1305102D01*
X213125Y1303739D01*
X210398Y1301010D01*
X209034Y1296920D01*
X209034Y1294193D01*
X210398Y1290102D01*
X213125Y1287375D01*
X217215Y1286010D01*
X221307Y1286010D01*
X225398Y1287375D01*
X226761Y1288739D01*
X228125Y1291466D01*
X200034Y1314648D02*
G01*
X189124Y1286010D01*
X178216Y1314648D02*
G01*
X189124Y1286010D01*
X148216Y1314648D02*
G01*
X148216Y1286010D01*
X148216Y1314648D02*
G01*
X138670Y1314648D01*
X134580Y1313283D01*
X131851Y1310556D01*
X130488Y1307829D01*
X129124Y1303739D01*
X129124Y1296920D01*
X130488Y1292829D01*
X131851Y1290102D01*
X134580Y1287375D01*
X138670Y1286010D01*
X148216Y1286010D01*
X99670Y1307829D02*
G01*
X101033Y1310556D01*
X103760Y1313283D01*
X106489Y1314648D01*
X111943Y1314648D01*
X114670Y1313283D01*
X117397Y1310556D01*
X118760Y1307829D01*
X120124Y1303739D01*
X120124Y1296920D01*
X118760Y1292829D01*
X117397Y1290102D01*
X114670Y1287375D01*
X111943Y1286010D01*
X106489Y1286010D01*
X103760Y1287375D01*
X101033Y1290102D01*
X99670Y1292829D01*
X111300Y1234574D02*
G01*
X135900Y1234574D01*
X123600Y1246875D02*
G01*
X123600Y1222375D01*
X190625Y1232966D02*
G01*
X215169Y1232966D01*
D10*
X1900523Y401250D02*
G01*
X1976886Y401250D01*
X1900523Y401250D02*
G01*
X1900523Y353976D01*
X1936886Y401250D02*
G01*
X1936886Y372159D01*
X1976886Y401250D02*
G01*
X1976886Y353976D01*
X1900523Y329976D02*
G01*
X1976886Y329976D01*
X1976886Y329976D02*
G01*
X1976886Y286341D01*
X2669273Y401250D02*
G01*
X2745636Y401250D01*
X2669273Y401250D02*
G01*
X2669273Y353976D01*
X2705636Y401250D02*
G01*
X2705636Y372159D01*
X2745636Y401250D02*
G01*
X2745636Y353976D01*
X2669273Y329976D02*
G01*
X2745636Y329976D01*
X2669273Y329976D02*
G01*
X2669273Y297249D01*
X2672908Y286341D01*
X2676544Y282705D01*
X2683818Y279068D01*
X2691090Y279068D01*
X2698364Y282705D01*
X2701999Y286341D01*
X2705636Y297249D01*
X2705636Y329976D01*
X2705636Y304522D02*
G01*
X2745636Y279068D01*
D16*
X2146869Y1838413D02*
G01*
X2146869Y1809776D01*
X2146869Y1838413D02*
G01*
X2135960Y1809776D01*
X2125051Y1838413D02*
G01*
X2135960Y1809776D01*
X2125051Y1838413D02*
G01*
X2125051Y1809776D01*
X2107870Y1838413D02*
G01*
X2111961Y1837049D01*
X2114687Y1832957D01*
X2116051Y1826140D01*
X2116051Y1822049D01*
X2114687Y1815230D01*
X2111961Y1811140D01*
X2107870Y1809776D01*
X2105142Y1809776D01*
X2101051Y1811140D01*
X2098325Y1815230D01*
X2096961Y1822049D01*
X2096961Y1826140D01*
X2098325Y1832957D01*
X2101051Y1837049D01*
X2105142Y1838413D01*
X2107870Y1838413D01*
X2067506Y1831595D02*
G01*
X2068869Y1834322D01*
X2071597Y1837049D01*
X2074324Y1838413D01*
X2079778Y1838413D01*
X2082506Y1837049D01*
X2085234Y1834322D01*
X2086597Y1831595D01*
X2087960Y1827503D01*
X2087960Y1820684D01*
X2086597Y1816595D01*
X2085234Y1813867D01*
X2082506Y1811140D01*
X2079778Y1809776D01*
X2074324Y1809776D01*
X2071597Y1811140D01*
X2068869Y1813867D01*
X2067506Y1816595D01*
X546869Y1838413D02*
G01*
X546869Y1809776D01*
X546869Y1838413D02*
G01*
X535961Y1809776D01*
X525052Y1838413D02*
G01*
X535961Y1809776D01*
X525052Y1838413D02*
G01*
X525052Y1809776D01*
X507869Y1838413D02*
G01*
X511961Y1837049D01*
X514688Y1832957D01*
X516051Y1826140D01*
X516051Y1822049D01*
X514688Y1815230D01*
X511961Y1811140D01*
X507869Y1809776D01*
X505142Y1809776D01*
X501051Y1811140D01*
X498324Y1815230D01*
X496961Y1822049D01*
X496961Y1826140D01*
X498324Y1832957D01*
X501051Y1837049D01*
X505142Y1838413D01*
X507869Y1838413D01*
X487961Y1838413D02*
G01*
X487961Y1809776D01*
X487961Y1838413D02*
G01*
X478414Y1838413D01*
X474324Y1837049D01*
X471597Y1834322D01*
X470234Y1831595D01*
X468870Y1827503D01*
X468870Y1820684D01*
X470234Y1816595D01*
X471597Y1813867D01*
X474324Y1811140D01*
X478414Y1809776D01*
X487961Y1809776D01*
X1843744Y1838413D02*
G01*
X1843744Y1809776D01*
X1843744Y1838413D02*
G01*
X1832835Y1809776D01*
X1821926Y1838413D02*
G01*
X1832835Y1809776D01*
X1821926Y1838413D02*
G01*
X1821926Y1809776D01*
X1812926Y1832957D02*
G01*
X1810200Y1834322D01*
X1806108Y1838413D01*
X1806108Y1809776D01*
X1776653Y1831595D02*
G01*
X1778018Y1834322D01*
X1780744Y1837049D01*
X1783472Y1838413D01*
X1788927Y1838413D01*
X1791653Y1837049D01*
X1794381Y1834322D01*
X1795744Y1831595D01*
X1797109Y1827503D01*
X1797109Y1820684D01*
X1795744Y1816595D01*
X1794381Y1813867D01*
X1791653Y1811140D01*
X1788927Y1809776D01*
X1783472Y1809776D01*
X1780744Y1811140D01*
X1778018Y1813867D01*
X1776653Y1816595D01*
X243744Y1838413D02*
G01*
X243744Y1809776D01*
X243744Y1838413D02*
G01*
X232836Y1809776D01*
X221927Y1838413D02*
G01*
X232836Y1809776D01*
X221927Y1838413D02*
G01*
X221927Y1809776D01*
X212926Y1832957D02*
G01*
X210199Y1834322D01*
X206109Y1838413D01*
X206109Y1809776D01*
X197109Y1838413D02*
G01*
X197109Y1809776D01*
X197109Y1838413D02*
G01*
X187563Y1838413D01*
X183472Y1837049D01*
X180745Y1834322D01*
X179380Y1831595D01*
X178018Y1827503D01*
X178018Y1820684D01*
X179380Y1816595D01*
X180745Y1813867D01*
X183472Y1811140D01*
X187563Y1809776D01*
X197109Y1809776D01*
X2146869Y2157170D02*
G01*
X2146869Y2128569D01*
X2146869Y2157170D02*
G01*
X2135969Y2128569D01*
X2125069Y2157170D02*
G01*
X2135969Y2128569D01*
X2125069Y2157170D02*
G01*
X2125069Y2128569D01*
X2107870Y2157170D02*
G01*
X2111970Y2155770D01*
X2114669Y2151669D01*
X2116069Y2144870D01*
X2116069Y2140770D01*
X2114669Y2133969D01*
X2111970Y2129870D01*
X2107870Y2128569D01*
X2105169Y2128569D01*
X2101069Y2129870D01*
X2098370Y2133969D01*
X2096970Y2140770D01*
X2096970Y2144870D01*
X2098370Y2151669D01*
X2101069Y2155770D01*
X2105169Y2157170D01*
X2107870Y2157170D01*
X2077070Y2157170D02*
G01*
X2087969Y2128569D01*
X2077070Y2157170D02*
G01*
X2066170Y2128569D01*
X2083869Y2138069D02*
G01*
X2070270Y2138069D01*
X546869Y2157170D02*
G01*
X546869Y2128569D01*
X546869Y2157170D02*
G01*
X535970Y2128569D01*
X525070Y2157170D02*
G01*
X535970Y2128569D01*
X525070Y2157170D02*
G01*
X525070Y2128569D01*
X507869Y2157170D02*
G01*
X511970Y2155770D01*
X514670Y2151669D01*
X516069Y2144870D01*
X516069Y2140770D01*
X514670Y2133969D01*
X511970Y2129870D01*
X507869Y2128569D01*
X505169Y2128569D01*
X501069Y2129870D01*
X498369Y2133969D01*
X496970Y2140770D01*
X496970Y2144870D01*
X498369Y2151669D01*
X501069Y2155770D01*
X505169Y2157170D01*
X507869Y2157170D01*
X487970Y2157170D02*
G01*
X487970Y2128569D01*
X487970Y2157170D02*
G01*
X475670Y2157170D01*
X471570Y2155770D01*
X470270Y2154470D01*
X468870Y2151669D01*
X468870Y2148969D01*
X470270Y2146269D01*
X471570Y2144870D01*
X475670Y2143569D01*
X487970Y2143569D02*
G01*
X475670Y2143569D01*
X471570Y2142170D01*
X470270Y2140770D01*
X468870Y2138069D01*
X468870Y2133969D01*
X470270Y2131269D01*
X471570Y2129870D01*
X475670Y2128569D01*
X487970Y2128569D01*
X1843744Y2157170D02*
G01*
X1843744Y2128569D01*
X1843744Y2157170D02*
G01*
X1832844Y2128569D01*
X1821944Y2157170D02*
G01*
X1832844Y2128569D01*
X1821944Y2157170D02*
G01*
X1821944Y2128569D01*
X1812944Y2151669D02*
G01*
X1810245Y2153069D01*
X1806144Y2157170D01*
X1806144Y2128569D01*
X1786244Y2157170D02*
G01*
X1797145Y2128569D01*
X1786244Y2157170D02*
G01*
X1775245Y2128569D01*
X1793045Y2138069D02*
G01*
X1779345Y2138069D01*
X243744Y2157170D02*
G01*
X243744Y2128569D01*
X243744Y2157170D02*
G01*
X232845Y2128569D01*
X221945Y2157170D02*
G01*
X232845Y2128569D01*
X221945Y2157170D02*
G01*
X221945Y2128569D01*
X212944Y2151669D02*
G01*
X210244Y2153069D01*
X206145Y2157170D01*
X206145Y2128569D01*
X197145Y2157170D02*
G01*
X197145Y2128569D01*
X197145Y2157170D02*
G01*
X184845Y2157170D01*
X180745Y2155770D01*
X179344Y2154470D01*
X178045Y2151669D01*
X178045Y2148969D01*
X179344Y2146269D01*
X180745Y2144870D01*
X184845Y2143569D01*
X197145Y2143569D02*
G01*
X184845Y2143569D01*
X180745Y2142170D01*
X179344Y2140770D01*
X178045Y2138069D01*
X178045Y2133969D01*
X179344Y2131269D01*
X180745Y2129870D01*
X184845Y2128569D01*
X197145Y2128569D01*
D38*
X618332Y131667D02*
G01*
X1018329Y131667D01*
X1018329Y31667D01*
X618332Y31667D01*
X618332Y131667D01*
D42*
X2387500Y1562500D02*
G01*
X1934399Y1281250D01*
X1934399Y1121851D01*
X2387500Y837500D01*
X2428125Y646875D01*
X2621875Y646875D01*
X2662500Y837500D01*
X3115600Y1125048D01*
X3115600Y1275048D01*
X2662500Y1562500D01*
X2621875Y1753125D01*
X2428125Y1753125D01*
X2387500Y1562500D01*
D16*
X2306244Y2167514D02*
G01*
X6244Y2167514D01*
X6244Y1917514D01*
X2306244Y1917514D01*
X2306244Y2167514D01*
X2306244Y1848764D02*
G01*
X6244Y1848764D01*
X6244Y1598764D01*
X2306244Y1598764D01*
X2306244Y1848764D01*
X0Y1531250D02*
G01*
X1662500Y1531250D01*
X1662500Y0D01*
D10*
X2518130Y1295614D02*
G01*
X2518130Y1098764D01*
X2281909Y1295614D02*
G01*
X2281909Y1098764D01*
X2281909Y1098764D02*
G01*
X2518130Y1098764D01*
X2281909Y1295614D02*
G01*
X2518130Y1295614D01*
X2365943Y1295614D02*
G01*
X2365943Y1276875D01*
X2430000Y1276875D01*
X2430000Y1295614D01*
X2768130Y1295614D02*
G01*
X2768130Y1098764D01*
X2531909Y1295614D02*
G01*
X2531909Y1098764D01*
X2531909Y1098764D02*
G01*
X2768130Y1098764D01*
X2531909Y1295614D02*
G01*
X2768130Y1295614D01*
X2615943Y1295614D02*
G01*
X2615943Y1276875D01*
X2680000Y1276875D01*
X2680000Y1295614D01*
X3169364Y226869D02*
G01*
X2972515Y226869D01*
X3169364Y463090D02*
G01*
X2972515Y463090D01*
X2972515Y463090D02*
G01*
X2972515Y226869D01*
X3169364Y463090D02*
G01*
X3169364Y226869D01*
X3169364Y379056D02*
G01*
X3150625Y379056D01*
X3150625Y315000D01*
X3169364Y315000D01*
X2400614Y227494D02*
G01*
X2203765Y227494D01*
X2400614Y463715D02*
G01*
X2203765Y463715D01*
X2203765Y463715D02*
G01*
X2203765Y227494D01*
X2400614Y463715D02*
G01*
X2400614Y227494D01*
X2400614Y379681D02*
G01*
X2381875Y379681D01*
X2381875Y315625D01*
X2400614Y315625D01*
D39*
X1956244Y1623764D02*
G01*
X1956244Y1748764D01*
D38*
X1956244Y1623764D02*
G01*
X2056244Y1623764D01*
X2056244Y1823764D01*
X1956244Y1823764D01*
X1956244Y1748764D01*
D39*
X356244Y1623764D02*
G01*
X356244Y1748764D01*
D38*
X356244Y1623764D02*
G01*
X456244Y1623764D01*
X456244Y1823764D01*
X356244Y1823764D01*
X356244Y1748764D01*
D39*
X1856244Y1623764D02*
G01*
X1856244Y1748764D01*
D38*
X1856244Y1623764D02*
G01*
X1956244Y1623764D01*
X1956244Y1823764D01*
X1856244Y1823764D01*
X1856244Y1748764D01*
D39*
X256244Y1623764D02*
G01*
X256244Y1748764D01*
D38*
X256244Y1623764D02*
G01*
X356244Y1623764D01*
X356244Y1823764D01*
X256244Y1823764D01*
X256244Y1748764D01*
D39*
X1956244Y1942514D02*
G01*
X1956244Y2067514D01*
D38*
X1956244Y1942514D02*
G01*
X2056244Y1942514D01*
X2056244Y2142514D01*
X1956244Y2142514D01*
X1956244Y2067514D01*
D39*
X356244Y1942514D02*
G01*
X356244Y2067514D01*
D38*
X356244Y1942514D02*
G01*
X456244Y1942514D01*
X456244Y2142514D01*
X356244Y2142514D01*
X356244Y2067514D01*
D39*
X1856244Y1942514D02*
G01*
X1856244Y2067514D01*
D38*
X1856244Y1942514D02*
G01*
X1956244Y1942514D01*
X1956244Y2142514D01*
X1856244Y2142514D01*
X1856244Y2067514D01*
D39*
X256244Y1942514D02*
G01*
X256244Y2067514D01*
D38*
X256244Y1942514D02*
G01*
X356244Y1942514D01*
X356244Y2142514D01*
X256244Y2142514D01*
X256244Y2067514D01*
D14*
G75*
G01
X2426250Y343750D02*
G03X2426250Y343750I-326250J0D01*
G75*
G01
X3193750Y343750D02*
G03X3193750Y343750I-325000J0D01*
G36*
X709369Y987500D02*
G01*
X1118750Y987500D01*
X1118750Y796869D01*
X709369Y796869D01*
G37*
M02*
