G04 Layer: TopLayer*
G04 EasyEDA v6.5.1, 2022-03-27 00:01:15*
G04 cc65af8350e74c879d8fba7fd4beee03,7d3f4a13764643a7838717c5c1d40531,10*
G04 Gerber Generator version 0.2*
G04 Scale: 100 percent, Rotated: No, Reflected: No *
G04 Dimensions in inches *
G04 leading zeros omitted , absolute positions ,3 integer and 6 decimal *
%FSLAX36Y36*%
%MOIN*%

%ADD11C,0.0150*%
%ADD12C,0.0300*%
%ADD13C,0.0200*%
%ADD14C,0.0250*%
%ADD15C,0.0400*%
%ADD16C,0.0060*%
%ADD17C,0.0232*%
%ADD18C,0.0240*%
%ADD19R,0.0340X0.0318*%
%ADD20R,0.0197X0.0709*%
%ADD21R,0.0492X0.0276*%
%ADD22R,0.0984X0.0512*%
%ADD23R,0.0512X0.0709*%
%ADD24R,0.0354X0.0315*%
%ADD25R,0.0394X0.0236*%
%ADD26R,0.0600X0.0300*%
%ADD29R,0.0315X0.0354*%
%ADD30R,0.0394X0.0295*%
%ADD31R,0.0620X0.0620*%
%ADD32C,0.0620*%
%ADD34C,0.0669*%
%ADD35C,0.0600*%
%ADD36C,0.0650*%

%LPD*%
G36*
X2326160Y888740D02*
G01*
X2325040Y888900D01*
X2324020Y889380D01*
X1948740Y1126940D01*
X1947740Y1127840D01*
X1947100Y1129020D01*
X1946879Y1130320D01*
X1946879Y1272800D01*
X1947100Y1274120D01*
X1947740Y1275280D01*
X1948740Y1276180D01*
X2324020Y1513140D01*
X2325040Y1513600D01*
X2326160Y1513740D01*
X2723820Y1513740D01*
X2724960Y1513580D01*
X2726000Y1513120D01*
X3098159Y1273060D01*
X3099140Y1272160D01*
X3099780Y1271000D01*
X3100000Y1269700D01*
X3100000Y1130320D01*
X3099780Y1129000D01*
X3099140Y1127840D01*
X3098159Y1126940D01*
X2725980Y889380D01*
X2724960Y888920D01*
X2723840Y888740D01*
G37*

%LPC*%
G36*
X2725000Y982300D02*
G01*
X2730580Y982680D01*
X2736040Y983760D01*
X2741340Y985560D01*
X2746340Y988020D01*
X2750980Y991140D01*
X2755179Y994820D01*
X2758860Y999020D01*
X2761980Y1003660D01*
X2764440Y1008660D01*
X2766240Y1013960D01*
X2767320Y1019419D01*
X2767700Y1025000D01*
X2767320Y1030580D01*
X2766240Y1036040D01*
X2764440Y1041340D01*
X2761980Y1046340D01*
X2758860Y1050980D01*
X2755179Y1055180D01*
X2750980Y1058860D01*
X2746340Y1061980D01*
X2741340Y1064440D01*
X2736040Y1066240D01*
X2730580Y1067320D01*
X2725000Y1067700D01*
X2719420Y1067320D01*
X2713960Y1066240D01*
X2708660Y1064440D01*
X2703660Y1061980D01*
X2699020Y1058860D01*
X2694820Y1055180D01*
X2691139Y1050980D01*
X2688020Y1046340D01*
X2685560Y1041340D01*
X2683759Y1036040D01*
X2682679Y1030580D01*
X2682300Y1025000D01*
X2682679Y1019419D01*
X2683759Y1013960D01*
X2685560Y1008660D01*
X2688020Y1003660D01*
X2691139Y999020D01*
X2694820Y994820D01*
X2699020Y991140D01*
X2703660Y988020D01*
X2708660Y985560D01*
X2713960Y983760D01*
X2719420Y982680D01*
G37*
G36*
X2325000Y982300D02*
G01*
X2330580Y982680D01*
X2336040Y983760D01*
X2341340Y985560D01*
X2346340Y988020D01*
X2350980Y991140D01*
X2355180Y994820D01*
X2358860Y999020D01*
X2361980Y1003660D01*
X2364440Y1008660D01*
X2366240Y1013960D01*
X2367320Y1019419D01*
X2367700Y1025000D01*
X2367320Y1030580D01*
X2366240Y1036040D01*
X2364440Y1041340D01*
X2362900Y1044460D01*
X2362500Y1046060D01*
X2362760Y1047680D01*
X2363660Y1049060D01*
X2461480Y1146900D01*
X2463740Y1149620D01*
X2464300Y1150420D01*
X2466140Y1153460D01*
X2466580Y1154340D01*
X2468240Y1158520D01*
X2469080Y1161960D01*
X2469240Y1162920D01*
X2469580Y1166440D01*
X2469600Y1189080D01*
X2469820Y1190400D01*
X2470460Y1191560D01*
X2472480Y1194120D01*
X2475220Y1198740D01*
X2477320Y1203700D01*
X2478740Y1208860D01*
X2479460Y1214200D01*
X2479460Y1219560D01*
X2478740Y1224880D01*
X2477320Y1230060D01*
X2475220Y1235000D01*
X2472480Y1239620D01*
X2470420Y1242240D01*
X2469780Y1243420D01*
X2469560Y1244720D01*
X2469560Y1258720D01*
X2469860Y1260260D01*
X2470720Y1261560D01*
X2472020Y1262420D01*
X2473560Y1262720D01*
X2675400Y1262720D01*
X2676980Y1262400D01*
X2678320Y1261480D01*
X2679160Y1260100D01*
X2679400Y1258520D01*
X2679000Y1256960D01*
X2678000Y1255680D01*
X2676600Y1254900D01*
X2674900Y1254380D01*
X2670040Y1252120D01*
X2665500Y1249240D01*
X2661400Y1245760D01*
X2657799Y1241780D01*
X2654760Y1237360D01*
X2653620Y1235080D01*
X2652559Y1233760D01*
X2651040Y1233020D01*
X2650320Y1232980D01*
X2651000Y1232040D01*
X2651340Y1230560D01*
X2651139Y1229060D01*
X2650580Y1227500D01*
X2649520Y1222240D01*
X2649160Y1216880D01*
X2649520Y1211520D01*
X2650580Y1206260D01*
X2651139Y1204680D01*
X2651340Y1203180D01*
X2651000Y1201720D01*
X2650320Y1200760D01*
X2651040Y1200740D01*
X2652559Y1199980D01*
X2653620Y1198660D01*
X2654760Y1196400D01*
X2657799Y1191960D01*
X2661400Y1187980D01*
X2665500Y1184520D01*
X2670040Y1181620D01*
X2674900Y1179360D01*
X2680040Y1177780D01*
X2685320Y1176880D01*
X2690700Y1176700D01*
X2696040Y1177240D01*
X2701259Y1178480D01*
X2706259Y1180420D01*
X2710980Y1183000D01*
X2715299Y1186180D01*
X2719160Y1189920D01*
X2722480Y1194120D01*
X2725220Y1198740D01*
X2727320Y1203700D01*
X2728740Y1208860D01*
X2729460Y1214200D01*
X2729460Y1219560D01*
X2728740Y1224880D01*
X2727320Y1230060D01*
X2725220Y1235000D01*
X2722480Y1239620D01*
X2719160Y1243840D01*
X2715299Y1247560D01*
X2710980Y1250760D01*
X2706259Y1253340D01*
X2701960Y1255000D01*
X2700620Y1255840D01*
X2699720Y1257120D01*
X2699400Y1258660D01*
X2699680Y1260220D01*
X2700539Y1261540D01*
X2701860Y1262420D01*
X2703399Y1262720D01*
X2869160Y1262720D01*
X2870680Y1262420D01*
X2871980Y1261560D01*
X2881240Y1252300D01*
X2882060Y1251120D01*
X2882400Y1249720D01*
X2882679Y1245680D01*
X2883759Y1240200D01*
X2885560Y1234920D01*
X2888020Y1229900D01*
X2891139Y1225260D01*
X2894820Y1221060D01*
X2899020Y1217380D01*
X2903660Y1214280D01*
X2908660Y1211800D01*
X2913960Y1210020D01*
X2919420Y1208920D01*
X2925000Y1208560D01*
X2930580Y1208920D01*
X2936040Y1210020D01*
X2941340Y1211800D01*
X2946340Y1214280D01*
X2950980Y1217380D01*
X2955179Y1221060D01*
X2958860Y1225260D01*
X2961980Y1229900D01*
X2964440Y1234920D01*
X2966240Y1240200D01*
X2967320Y1245680D01*
X2967700Y1251240D01*
X2967320Y1256820D01*
X2966240Y1262300D01*
X2964440Y1267580D01*
X2961980Y1272600D01*
X2958860Y1277240D01*
X2955179Y1281440D01*
X2950980Y1285120D01*
X2946340Y1288220D01*
X2941340Y1290700D01*
X2936040Y1292480D01*
X2930580Y1293580D01*
X2926520Y1293839D01*
X2925120Y1294180D01*
X2923960Y1295000D01*
X2903920Y1315020D01*
X2900400Y1317840D01*
X2897360Y1319660D01*
X2896480Y1320100D01*
X2893220Y1321459D01*
X2892300Y1321759D01*
X2888860Y1322620D01*
X2887900Y1322780D01*
X2884380Y1323100D01*
X2473560Y1323120D01*
X2472020Y1323420D01*
X2470720Y1324300D01*
X2469860Y1325600D01*
X2469560Y1327120D01*
X2469540Y1364840D01*
X2469200Y1368360D01*
X2469040Y1369319D01*
X2468200Y1372720D01*
X2467740Y1374019D01*
X2467520Y1375600D01*
X2467700Y1378120D01*
X2467320Y1383700D01*
X2466240Y1389180D01*
X2464440Y1394460D01*
X2461980Y1399480D01*
X2458860Y1404120D01*
X2455180Y1408320D01*
X2450980Y1412000D01*
X2446340Y1415100D01*
X2441340Y1417560D01*
X2436040Y1419360D01*
X2430580Y1420460D01*
X2425000Y1420820D01*
X2419420Y1420460D01*
X2413960Y1419360D01*
X2408660Y1417560D01*
X2403660Y1415100D01*
X2399020Y1412000D01*
X2394820Y1408320D01*
X2391140Y1404120D01*
X2388020Y1399480D01*
X2385560Y1394460D01*
X2383760Y1389180D01*
X2382680Y1383700D01*
X2382300Y1378120D01*
X2382680Y1372560D01*
X2383760Y1367080D01*
X2385560Y1361780D01*
X2388020Y1356780D01*
X2391140Y1352140D01*
X2394820Y1347940D01*
X2399020Y1344259D01*
X2403660Y1341160D01*
X2406920Y1339540D01*
X2408100Y1338660D01*
X2408880Y1337400D01*
X2409160Y1335960D01*
X2409160Y1244800D01*
X2408880Y1243380D01*
X2404760Y1237360D01*
X2403620Y1235080D01*
X2402560Y1233760D01*
X2401040Y1233020D01*
X2400320Y1232980D01*
X2401000Y1232040D01*
X2401340Y1230560D01*
X2401140Y1229060D01*
X2400580Y1227500D01*
X2399520Y1222240D01*
X2399160Y1216880D01*
X2399520Y1211520D01*
X2400580Y1206260D01*
X2401140Y1204680D01*
X2401340Y1203180D01*
X2401000Y1201720D01*
X2400320Y1200760D01*
X2401040Y1200740D01*
X2402560Y1199980D01*
X2403620Y1198660D01*
X2404760Y1196400D01*
X2408940Y1190320D01*
X2409200Y1188880D01*
X2409200Y1181660D01*
X2408900Y1180140D01*
X2408020Y1178840D01*
X2302920Y1073700D01*
X2300660Y1070980D01*
X2300100Y1070180D01*
X2298260Y1067140D01*
X2297820Y1066280D01*
X2296160Y1062080D01*
X2295340Y1058720D01*
X2295060Y1056520D01*
X2294740Y1055380D01*
X2294100Y1054380D01*
X2291140Y1050980D01*
X2288020Y1046340D01*
X2285560Y1041340D01*
X2283760Y1036040D01*
X2282680Y1030580D01*
X2282300Y1025000D01*
X2282680Y1019419D01*
X2283760Y1013960D01*
X2285560Y1008660D01*
X2288020Y1003660D01*
X2291140Y999020D01*
X2294820Y994820D01*
X2299020Y991140D01*
X2303660Y988020D01*
X2308660Y985560D01*
X2313960Y983760D01*
X2319420Y982680D01*
G37*
G36*
X2443760Y986740D02*
G01*
X2446340Y988020D01*
X2450980Y991140D01*
X2455180Y994820D01*
X2458860Y999020D01*
X2461980Y1003660D01*
X2463260Y1006240D01*
X2443760Y1006240D01*
G37*
G36*
X2643759Y986740D02*
G01*
X2646340Y988020D01*
X2650980Y991140D01*
X2655179Y994820D01*
X2658860Y999020D01*
X2661980Y1003660D01*
X2663260Y1006240D01*
X2643759Y1006240D01*
G37*
G36*
X2406260Y986740D02*
G01*
X2406260Y1006240D01*
X2386740Y1006240D01*
X2388020Y1003660D01*
X2391140Y999020D01*
X2394820Y994820D01*
X2399020Y991140D01*
X2403660Y988020D01*
G37*
G36*
X2606259Y986740D02*
G01*
X2606259Y1006240D01*
X2586740Y1006240D01*
X2588020Y1003660D01*
X2591139Y999020D01*
X2594820Y994820D01*
X2599020Y991140D01*
X2603660Y988020D01*
G37*
G36*
X2443760Y1043740D02*
G01*
X2463260Y1043740D01*
X2461980Y1046340D01*
X2458860Y1050980D01*
X2455180Y1055180D01*
X2450980Y1058860D01*
X2446340Y1061980D01*
X2443760Y1063260D01*
G37*
G36*
X2643759Y1043740D02*
G01*
X2663260Y1043740D01*
X2661980Y1046340D01*
X2658860Y1050980D01*
X2655179Y1055180D01*
X2650980Y1058860D01*
X2646340Y1061980D01*
X2643759Y1063260D01*
G37*
G36*
X2386740Y1043740D02*
G01*
X2406260Y1043740D01*
X2406260Y1063260D01*
X2403660Y1061980D01*
X2399020Y1058860D01*
X2394820Y1055180D01*
X2391140Y1050980D01*
X2388020Y1046340D01*
G37*
G36*
X2586740Y1043740D02*
G01*
X2606259Y1043740D01*
X2606259Y1063260D01*
X2603660Y1061980D01*
X2599020Y1058860D01*
X2594820Y1055180D01*
X2591139Y1050980D01*
X2588020Y1046340D01*
G37*
G36*
X2106260Y1113000D02*
G01*
X2106260Y1132500D01*
X2086740Y1132500D01*
X2088020Y1129900D01*
X2091140Y1125260D01*
X2094820Y1121060D01*
X2099020Y1117380D01*
X2103660Y1114280D01*
G37*
G36*
X2943759Y1113000D02*
G01*
X2946340Y1114280D01*
X2950980Y1117380D01*
X2955179Y1121060D01*
X2958860Y1125260D01*
X2961980Y1129900D01*
X2963260Y1132500D01*
X2943759Y1132500D01*
G37*
G36*
X2143760Y1113000D02*
G01*
X2146340Y1114280D01*
X2150980Y1117380D01*
X2155180Y1121060D01*
X2158860Y1125260D01*
X2161980Y1129900D01*
X2163260Y1132500D01*
X2143760Y1132500D01*
G37*
G36*
X2906259Y1113000D02*
G01*
X2906259Y1132500D01*
X2886740Y1132500D01*
X2888020Y1129900D01*
X2891139Y1125260D01*
X2894820Y1121060D01*
X2899020Y1117380D01*
X2903660Y1114280D01*
G37*
G36*
X2086740Y1170000D02*
G01*
X2106260Y1170000D01*
X2106260Y1189500D01*
X2103660Y1188220D01*
X2099020Y1185120D01*
X2094820Y1181440D01*
X2091140Y1177240D01*
X2088020Y1172600D01*
G37*
G36*
X2943759Y1170000D02*
G01*
X2963260Y1170000D01*
X2961980Y1172600D01*
X2958860Y1177240D01*
X2955179Y1181440D01*
X2950980Y1185120D01*
X2946340Y1188220D01*
X2943759Y1189500D01*
G37*
G36*
X2143760Y1170000D02*
G01*
X2163260Y1170000D01*
X2161980Y1172600D01*
X2158860Y1177240D01*
X2155180Y1181440D01*
X2150980Y1185120D01*
X2146340Y1188220D01*
X2143760Y1189500D01*
G37*
G36*
X2886740Y1170000D02*
G01*
X2906259Y1170000D01*
X2906259Y1189500D01*
X2903660Y1188220D01*
X2899020Y1185120D01*
X2894820Y1181440D01*
X2891139Y1177240D01*
X2888020Y1172600D01*
G37*
G36*
X2628159Y1180740D02*
G01*
X2632280Y1183000D01*
X2636600Y1186180D01*
X2640460Y1189920D01*
X2643780Y1194120D01*
X2646620Y1198900D01*
X2647060Y1199380D01*
X2628159Y1199380D01*
G37*
G36*
X2378160Y1180740D02*
G01*
X2382280Y1183000D01*
X2386600Y1186180D01*
X2390460Y1189920D01*
X2393780Y1194120D01*
X2396620Y1198900D01*
X2397060Y1199380D01*
X2378160Y1199380D01*
G37*
G36*
X2343160Y1180780D02*
G01*
X2343160Y1199380D01*
X2324560Y1199380D01*
X2326060Y1196400D01*
X2329100Y1191960D01*
X2332700Y1187980D01*
X2336800Y1184520D01*
X2341340Y1181620D01*
G37*
G36*
X2593159Y1180780D02*
G01*
X2593159Y1199380D01*
X2574560Y1199380D01*
X2576060Y1196400D01*
X2579100Y1191960D01*
X2582700Y1187980D01*
X2586800Y1184520D01*
X2591340Y1181620D01*
G37*
G36*
X2125000Y1208560D02*
G01*
X2130580Y1208920D01*
X2136040Y1210020D01*
X2141340Y1211800D01*
X2146340Y1214280D01*
X2150980Y1217380D01*
X2155180Y1221060D01*
X2158860Y1225260D01*
X2161980Y1229900D01*
X2164440Y1234920D01*
X2166240Y1240200D01*
X2167320Y1245680D01*
X2167700Y1251240D01*
X2167320Y1256820D01*
X2166240Y1262300D01*
X2164440Y1267580D01*
X2161980Y1272600D01*
X2158860Y1277240D01*
X2155180Y1281440D01*
X2150980Y1285120D01*
X2146340Y1288220D01*
X2141340Y1290700D01*
X2136040Y1292480D01*
X2130580Y1293580D01*
X2125000Y1293940D01*
X2119420Y1293580D01*
X2113960Y1292480D01*
X2108660Y1290700D01*
X2103660Y1288220D01*
X2099020Y1285120D01*
X2094820Y1281440D01*
X2091140Y1277240D01*
X2088020Y1272600D01*
X2085560Y1267580D01*
X2083760Y1262300D01*
X2082680Y1256820D01*
X2082300Y1251240D01*
X2082680Y1245680D01*
X2083760Y1240200D01*
X2085560Y1234920D01*
X2088020Y1229900D01*
X2091140Y1225260D01*
X2094820Y1221060D01*
X2099020Y1217380D01*
X2103660Y1214280D01*
X2108660Y1211800D01*
X2113960Y1210020D01*
X2119420Y1208920D01*
G37*
G36*
X2324560Y1234380D02*
G01*
X2343160Y1234380D01*
X2343160Y1252960D01*
X2341340Y1252120D01*
X2336800Y1249240D01*
X2332700Y1245760D01*
X2329100Y1241780D01*
X2326060Y1237360D01*
G37*
G36*
X2574560Y1234380D02*
G01*
X2593159Y1234380D01*
X2593159Y1252960D01*
X2591340Y1252120D01*
X2586800Y1249240D01*
X2582700Y1245760D01*
X2579100Y1241780D01*
X2576060Y1237360D01*
G37*
G36*
X2628159Y1234380D02*
G01*
X2647060Y1234380D01*
X2646620Y1234860D01*
X2643780Y1239620D01*
X2640460Y1243840D01*
X2636600Y1247560D01*
X2632280Y1250760D01*
X2628159Y1253020D01*
G37*
G36*
X2378160Y1234380D02*
G01*
X2397060Y1234380D01*
X2396620Y1234860D01*
X2393780Y1239620D01*
X2390460Y1243840D01*
X2386600Y1247560D01*
X2382280Y1250760D01*
X2378160Y1253020D01*
G37*
G36*
X2725000Y1335440D02*
G01*
X2730580Y1335800D01*
X2736040Y1336879D01*
X2741340Y1338680D01*
X2746340Y1341160D01*
X2750980Y1344259D01*
X2755179Y1347940D01*
X2758860Y1352140D01*
X2761980Y1356780D01*
X2764440Y1361780D01*
X2766240Y1367080D01*
X2767320Y1372560D01*
X2767700Y1378120D01*
X2767320Y1383700D01*
X2766240Y1389180D01*
X2764440Y1394460D01*
X2761980Y1399480D01*
X2758860Y1404120D01*
X2755179Y1408320D01*
X2750980Y1412000D01*
X2746340Y1415100D01*
X2741340Y1417560D01*
X2736040Y1419360D01*
X2730580Y1420460D01*
X2725000Y1420820D01*
X2719420Y1420460D01*
X2713960Y1419360D01*
X2708660Y1417560D01*
X2703660Y1415100D01*
X2699020Y1412000D01*
X2694820Y1408320D01*
X2691139Y1404120D01*
X2688020Y1399480D01*
X2685560Y1394460D01*
X2683759Y1389180D01*
X2682679Y1383700D01*
X2682300Y1378120D01*
X2682679Y1372560D01*
X2683759Y1367080D01*
X2685560Y1361780D01*
X2688020Y1356780D01*
X2691139Y1352140D01*
X2694820Y1347940D01*
X2699020Y1344259D01*
X2703660Y1341160D01*
X2708660Y1338680D01*
X2713960Y1336879D01*
X2719420Y1335800D01*
G37*
G36*
X2643759Y1339880D02*
G01*
X2646340Y1341160D01*
X2650980Y1344259D01*
X2655179Y1347940D01*
X2658860Y1352140D01*
X2661980Y1356780D01*
X2663260Y1359379D01*
X2643759Y1359379D01*
G37*
G36*
X2606259Y1339880D02*
G01*
X2606259Y1359379D01*
X2586740Y1359379D01*
X2588020Y1356780D01*
X2591139Y1352140D01*
X2594820Y1347940D01*
X2599020Y1344259D01*
X2603660Y1341160D01*
G37*
G36*
X2306260Y1339880D02*
G01*
X2306260Y1359379D01*
X2286740Y1359379D01*
X2288020Y1356780D01*
X2291140Y1352140D01*
X2294820Y1347940D01*
X2299020Y1344259D01*
X2303660Y1341160D01*
G37*
G36*
X2343760Y1339880D02*
G01*
X2346340Y1341160D01*
X2350980Y1344259D01*
X2355180Y1347940D01*
X2358860Y1352140D01*
X2361980Y1356780D01*
X2363260Y1359379D01*
X2343760Y1359379D01*
G37*
G36*
X2643759Y1396879D02*
G01*
X2663260Y1396879D01*
X2661980Y1399480D01*
X2658860Y1404120D01*
X2655179Y1408320D01*
X2650980Y1412000D01*
X2646340Y1415100D01*
X2643759Y1416380D01*
G37*
G36*
X2286740Y1396879D02*
G01*
X2306260Y1396879D01*
X2306260Y1416380D01*
X2303660Y1415100D01*
X2299020Y1412000D01*
X2294820Y1408320D01*
X2291140Y1404120D01*
X2288020Y1399480D01*
G37*
G36*
X2586740Y1396879D02*
G01*
X2606259Y1396879D01*
X2606259Y1416380D01*
X2603660Y1415100D01*
X2599020Y1412000D01*
X2594820Y1408320D01*
X2591139Y1404120D01*
X2588020Y1399480D01*
G37*
G36*
X2343760Y1396879D02*
G01*
X2363260Y1396879D01*
X2361980Y1399480D01*
X2358860Y1404120D01*
X2355180Y1408320D01*
X2350980Y1412000D01*
X2346340Y1415100D01*
X2343760Y1416380D01*
G37*

%LPD*%
G36*
X403120Y1240640D02*
G01*
X353120Y1240620D01*
X353120Y1209380D01*
X403120Y1209380D01*
G37*
G36*
X403120Y1300000D02*
G01*
X403120Y1287500D01*
X440620Y1240620D01*
X706260Y1240620D01*
X706260Y1278120D01*
X684380Y1300000D01*
G37*
G36*
X1384379Y1318760D02*
G01*
X1384379Y1243760D01*
X1431260Y1243760D01*
X1443760Y1256260D01*
X1443760Y1306260D01*
X1431260Y1318760D01*
G37*
G36*
X1306260Y1315620D02*
G01*
X1306260Y1293760D01*
X1353120Y1246880D01*
X1371879Y1246880D01*
X1371879Y1315620D01*
G37*
D11*
X1168800Y81199D02*
G01*
X1365600Y81199D01*
X1567600Y283200D01*
X1567600Y545300D01*
D12*
X1567610Y1096449D02*
G01*
X1559377Y1104681D01*
X1559377Y1137489D01*
D13*
X1362399Y1281199D02*
G01*
X1362399Y1234499D01*
X1375000Y1221900D01*
X1500000Y1221900D01*
X1508800Y1213099D01*
X1525000Y1213099D01*
D14*
X757399Y1253000D02*
G01*
X757399Y1276201D01*
X784399Y1303101D01*
X1328149Y1303101D01*
X1350000Y1281250D01*
D12*
X1525005Y1213063D02*
G01*
X1600003Y1213063D01*
X1600005Y1213065D01*
X1600010Y1213058D02*
G01*
X1600010Y1178130D01*
X1559380Y1137500D01*
X1600005Y1312494D02*
G01*
X1600005Y1312494D01*
X1600005Y1268173D01*
X1481255Y1268750D02*
G01*
X1524429Y1268750D01*
X1525005Y1268173D01*
D11*
X823400Y584400D02*
G01*
X831199Y584400D01*
X862500Y615599D01*
X862500Y659400D01*
X905900Y702699D01*
X957399Y702699D01*
D13*
X968750Y81250D02*
G01*
X968750Y106250D01*
X1006250Y143750D01*
X1356250Y143750D01*
D11*
X488730Y815500D02*
G01*
X515500Y815500D01*
X518501Y812500D01*
X653130Y812500D01*
D14*
X567500Y778099D02*
G01*
X596900Y778099D01*
X637500Y737500D01*
D15*
X2100000Y293750D02*
G01*
X2309354Y293750D01*
X2321880Y306273D01*
X2100000Y393750D02*
G01*
X2313104Y393750D01*
X2321880Y384976D01*
D14*
X565630Y1197438D02*
G01*
X565061Y1196869D01*
X531250Y1196869D01*
X655023Y1252975D02*
G01*
X687624Y1252975D01*
X706226Y1234375D01*
X706226Y1196875D01*
X687624Y1178274D01*
X655023Y1178274D01*
X706300Y1196900D02*
G01*
X706300Y1278099D01*
X684400Y1300000D01*
X140599Y1300000D01*
X43800Y1203099D01*
X43800Y968699D01*
X96900Y915599D01*
X109400Y915599D01*
X343550Y1225000D02*
G01*
X359169Y1209380D01*
X390619Y1209380D01*
X390619Y1240630D02*
G01*
X359180Y1240630D01*
X343550Y1225000D01*
D15*
X2425000Y1378130D02*
G01*
X2439350Y1363778D01*
X2439350Y1216875D01*
X2925000Y1251250D02*
G01*
X2883320Y1292925D01*
X2439350Y1292925D01*
X2325000Y1025000D02*
G01*
X2325000Y1053101D01*
X2439399Y1167500D01*
X2439399Y1216898D01*
X2868750Y293750D02*
G01*
X3078729Y293750D01*
X3090630Y305648D01*
D11*
X670286Y1112500D02*
G01*
X670286Y1178225D01*
X655070Y1178225D01*
D14*
X618800Y1215599D02*
G01*
X655100Y1215599D01*
D15*
X2868750Y393750D02*
G01*
X3081229Y393750D01*
X3090630Y384351D01*
D11*
X802559Y821875D02*
G01*
X802559Y778690D01*
X803130Y778119D01*
D13*
X209380Y693739D02*
G01*
X234385Y693739D01*
X240639Y699994D01*
X351588Y699994D01*
D11*
X209375Y1015625D02*
G01*
X209375Y1081250D01*
X256239Y1128114D01*
X322590Y1128114D01*
X531478Y1037494D02*
G01*
X521885Y1037494D01*
X496880Y1062500D01*
D12*
X109375Y1015625D02*
G01*
X109375Y1151851D01*
X123125Y1165601D01*
X109375Y815625D02*
G01*
X109375Y915625D01*
D11*
X414915Y1049989D02*
G01*
X414915Y1128119D01*
D13*
X637500Y737494D02*
G01*
X686145Y737494D01*
X686244Y737395D01*
D11*
X309380Y806250D02*
G01*
X309385Y806244D01*
X351588Y806244D01*
X443750Y936918D02*
G01*
X493173Y936918D01*
X493750Y937494D01*
X531478Y937494D01*
X531478Y887494D02*
G01*
X590630Y887494D01*
X612505Y909369D01*
X443750Y936918D02*
G01*
X361491Y936918D01*
X359380Y939031D01*
X747438Y821875D02*
G01*
X749780Y824214D01*
X749780Y887494D01*
X209380Y815625D02*
G01*
X215625Y815625D01*
X306250Y906250D01*
X306250Y962445D01*
X331298Y987494D01*
X531478Y987494D01*
X209380Y915625D02*
G01*
X271875Y978119D01*
X271875Y1018750D01*
X303119Y1049994D01*
X322584Y1049994D01*
X749780Y937494D02*
G01*
X784380Y937494D01*
X808815Y913060D01*
X846880Y913060D01*
X565601Y1093773D02*
G01*
X584320Y1112494D01*
X610969Y1112494D01*
X681250Y1037500D02*
G01*
X670291Y1048458D01*
X670291Y1112494D01*
X749774Y1037489D02*
G01*
X681264Y1037489D01*
X531475Y987451D02*
G01*
X593773Y987451D01*
X643773Y937451D01*
X749774Y937451D01*
X414915Y1093750D02*
G01*
X565625Y1093750D01*
X671875Y987500D01*
X749780Y987500D01*
D12*
X109380Y193739D02*
G01*
X109380Y815619D01*
D13*
X410911Y309375D02*
G01*
X446875Y309375D01*
X488760Y309375D01*
X410911Y543744D02*
G01*
X437494Y543744D01*
X607510Y543744D01*
X488760Y465625D02*
G01*
X410911Y465625D01*
X410911Y387494D02*
G01*
X615630Y387494D01*
X607510Y387494D01*
X410911Y621875D02*
G01*
X488750Y621875D01*
X637500Y346875D02*
G01*
X567604Y346875D01*
X567500Y346770D01*
X637500Y503125D02*
G01*
X567600Y503125D01*
X567500Y503024D01*
X637500Y659375D02*
G01*
X567604Y659375D01*
X567500Y659270D01*
X637500Y424994D02*
G01*
X686149Y424994D01*
X686250Y424895D01*
X637500Y581244D02*
G01*
X686154Y581244D01*
X686250Y581149D01*
D11*
X686244Y662604D02*
G01*
X764097Y662500D01*
X686250Y506350D02*
G01*
X764097Y506250D01*
X567500Y428225D02*
G01*
X604899Y465625D01*
X726597Y465625D01*
X764097Y428125D01*
X567500Y584470D02*
G01*
X604904Y621875D01*
X726592Y621875D01*
X764097Y584369D01*
X686250Y350095D02*
G01*
X764097Y350000D01*
X567500Y271970D02*
G01*
X764097Y271875D01*
D13*
X607505Y699994D02*
G01*
X410911Y699994D01*
D12*
X488750Y740725D02*
G01*
X478130Y751345D01*
X478130Y771869D01*
X957382Y1096460D02*
G01*
X925000Y1128843D01*
X925000Y1137500D01*
D11*
X823402Y662500D02*
G01*
X823402Y717156D01*
X887739Y781489D01*
X957382Y781489D01*
X893750Y621869D02*
G01*
X895888Y624009D01*
X957382Y624009D01*
X887500Y543750D02*
G01*
X889021Y545270D01*
X957382Y545270D01*
X828125Y1262500D02*
G01*
X815625Y1250000D01*
X815625Y1231244D01*
X846880Y1076590D02*
G01*
X905760Y1017710D01*
X957382Y1017710D01*
X1281250Y1242219D02*
G01*
X1304651Y1242219D01*
X1331250Y1215619D01*
X1567617Y702759D02*
G01*
X1475000Y702759D01*
X359380Y879713D02*
G01*
X410911Y828184D01*
X410911Y806244D01*
X410911Y806244D02*
G01*
X437494Y806244D01*
X446765Y815515D01*
X488769Y815515D01*
D13*
X209380Y493739D02*
G01*
X253114Y493739D01*
X303119Y543744D01*
X351588Y543744D01*
X209380Y393739D02*
G01*
X240614Y393739D01*
X312500Y465625D01*
X351588Y465625D01*
X209380Y293739D02*
G01*
X237489Y293739D01*
X331244Y387494D01*
X351588Y387494D01*
X209380Y193739D02*
G01*
X235954Y193739D01*
X351588Y309375D01*
X351579Y621864D02*
G01*
X290614Y621864D01*
X262485Y593735D01*
X209369Y593735D01*
D11*
X1128130Y1262494D02*
G01*
X1153135Y1262492D01*
X1173407Y1242213D01*
X1206250Y1242213D01*
D12*
X306244Y1773764D02*
G01*
X2006244Y1773764D01*
D11*
X1156244Y1673764D02*
G01*
X1581244Y1673764D01*
X1631244Y1723764D01*
X1956244Y1723764D01*
X2006244Y1673764D01*
X406244Y1673764D02*
G01*
X481244Y1673764D01*
X531244Y1723764D01*
X681244Y1723764D01*
X731244Y1673764D01*
X1156244Y1673764D01*
D12*
X306244Y2092514D02*
G01*
X2006244Y2092514D01*
D11*
X406244Y1992514D02*
G01*
X606244Y1992514D01*
X606244Y1992489D02*
G01*
X1031244Y1992489D01*
X1079345Y2040590D01*
X1233145Y2040590D01*
X1281244Y1992489D01*
X1706244Y1992489D01*
X1706244Y1992489D02*
G01*
X1781244Y1992489D01*
X1830883Y2042129D01*
X1956606Y2042129D01*
X2006244Y1992489D01*
D16*
X957399Y860300D02*
G01*
X1025900Y860300D01*
X1050000Y884400D01*
X1050000Y1078099D01*
X1023800Y1104299D01*
X1023800Y1138699D01*
X1009399Y1153099D01*
X1009399Y1215599D01*
X1056199Y1262500D01*
X1128100Y1262500D01*
D11*
X846880Y968180D02*
G01*
X846880Y971869D01*
X812500Y1006250D01*
X823400Y428099D02*
G01*
X1121899Y428099D01*
X1212500Y518699D01*
X1212500Y759400D01*
X1392100Y939000D01*
X1567600Y939000D01*
X823400Y350000D02*
G01*
X846899Y350000D01*
X871899Y375000D01*
X1146899Y375000D01*
X1268800Y496900D01*
X1268800Y715599D01*
X1413400Y860300D01*
X1567600Y860300D01*
X823400Y506199D02*
G01*
X846899Y506199D01*
X871899Y481199D01*
X1096899Y481199D01*
X1153100Y537500D01*
X1153100Y800000D01*
X1370799Y1017699D01*
X1567600Y1017699D01*
X823400Y271900D02*
G01*
X846899Y271900D01*
X893800Y318800D01*
X1165600Y318800D01*
X1325000Y478099D01*
X1325000Y671900D01*
X1434600Y781500D01*
X1567600Y781500D01*
D14*
X565630Y1252559D02*
G01*
X565630Y1290596D01*
X556250Y1299976D01*
D11*
X443760Y881810D02*
G01*
X424450Y881810D01*
X400010Y906251D01*
X846880Y1135911D02*
G01*
X845339Y1134369D01*
X806250Y1134369D01*
D17*
X560160Y1037500D02*
G01*
X502799Y1037500D01*
X560160Y987500D02*
G01*
X502799Y987500D01*
X560160Y937500D02*
G01*
X502799Y937500D01*
X560160Y887500D02*
G01*
X502799Y887500D01*
X778460Y1037500D02*
G01*
X721098Y1037500D01*
X778460Y987500D02*
G01*
X721098Y987500D01*
X778460Y937500D02*
G01*
X721098Y937500D01*
X778460Y887500D02*
G01*
X721098Y887500D01*
G36*
X1270492Y98719D02*
G01*
X1304507Y98719D01*
X1304507Y66968D01*
X1270492Y66968D01*
G37*
D19*
G01*
X1287500Y142154D03*
D20*
G01*
X1393874Y1281250D03*
G01*
X1362375Y1281250D03*
D21*
G01*
X488730Y815500D03*
G01*
X488730Y740700D03*
G01*
X567469Y778099D03*
G36*
X542863Y285779D02*
G01*
X592076Y285779D01*
X592076Y258220D01*
X542863Y258220D01*
G37*
G36*
X542863Y360578D02*
G01*
X592076Y360578D01*
X592076Y333020D01*
X542863Y333020D01*
G37*
G36*
X464124Y323179D02*
G01*
X513335Y323179D01*
X513335Y295619D01*
X464124Y295619D01*
G37*
G36*
X661664Y363879D02*
G01*
X710875Y363879D01*
X710875Y336320D01*
X661664Y336320D01*
G37*
G36*
X661664Y438679D02*
G01*
X710875Y438679D01*
X710875Y411120D01*
X661664Y411120D01*
G37*
G36*
X582923Y401278D02*
G01*
X632136Y401278D01*
X632136Y373719D01*
X582923Y373719D01*
G37*
G36*
X542863Y441979D02*
G01*
X592076Y441979D01*
X592076Y414420D01*
X542863Y414420D01*
G37*
G36*
X542863Y516779D02*
G01*
X592076Y516779D01*
X592076Y489220D01*
X542863Y489220D01*
G37*
G36*
X464124Y479378D02*
G01*
X513335Y479378D01*
X513335Y451819D01*
X464124Y451819D01*
G37*
G36*
X661664Y520079D02*
G01*
X710875Y520079D01*
X710875Y492519D01*
X661664Y492519D01*
G37*
G36*
X661664Y594879D02*
G01*
X710875Y594879D01*
X710875Y567319D01*
X661664Y567319D01*
G37*
G36*
X582923Y557478D02*
G01*
X632136Y557478D01*
X632136Y529920D01*
X582923Y529920D01*
G37*
G36*
X542863Y598279D02*
G01*
X592076Y598279D01*
X592076Y570720D01*
X542863Y570720D01*
G37*
G36*
X542863Y673078D02*
G01*
X592076Y673078D01*
X592076Y645520D01*
X542863Y645520D01*
G37*
G36*
X464124Y635679D02*
G01*
X513335Y635679D01*
X513335Y608119D01*
X464124Y608119D01*
G37*
G36*
X661664Y676379D02*
G01*
X710875Y676379D01*
X710875Y648820D01*
X661664Y648820D01*
G37*
G36*
X661664Y751179D02*
G01*
X710875Y751179D01*
X710875Y723620D01*
X661664Y723620D01*
G37*
G36*
X582923Y713778D02*
G01*
X632136Y713778D01*
X632136Y686219D01*
X582923Y686219D01*
G37*
D22*
G01*
X1567610Y545279D03*
G01*
X1567610Y624020D03*
G01*
X1567610Y702759D03*
G01*
X1567610Y781500D03*
G01*
X1567610Y860239D03*
G01*
X1567610Y938980D03*
G01*
X1567610Y1017719D03*
G01*
X1567610Y1096460D03*
D23*
G01*
X1459399Y1154729D03*
G01*
X1380659Y1154670D03*
G01*
X1301920Y1154690D03*
G01*
X1223170Y1154690D03*
G01*
X1144430Y1154690D03*
G01*
X1065690Y1154720D03*
D22*
G01*
X957389Y1096460D03*
G01*
X957389Y1017710D03*
G01*
X957389Y938969D03*
G01*
X957389Y860230D03*
G01*
X957389Y781489D03*
G01*
X957389Y702750D03*
G01*
X957389Y624009D03*
G01*
X957389Y545270D03*
G36*
X1264242Y1258094D02*
G01*
X1298257Y1258094D01*
X1298257Y1226343D01*
X1264242Y1226343D01*
G37*
D19*
G01*
X1281250Y1301529D03*
G36*
X1223257Y1285655D02*
G01*
X1189242Y1285655D01*
X1189242Y1317406D01*
X1223257Y1317406D01*
G37*
G01*
X1206250Y1242220D03*
G36*
X829867Y1092469D02*
G01*
X863882Y1092469D01*
X863882Y1060718D01*
X829867Y1060718D01*
G37*
G01*
X846880Y1135909D03*
D24*
G01*
X1600005Y1213065D03*
G01*
X1600005Y1268184D03*
G01*
X1525005Y1213065D03*
G01*
X1525005Y1268184D03*
G01*
X565630Y1252559D03*
G01*
X565630Y1197440D03*
D25*
G01*
X757440Y1253020D03*
G01*
X757440Y1178220D03*
G01*
X655070Y1178220D03*
G01*
X655070Y1215619D03*
G01*
X655070Y1253020D03*
D26*
G01*
X1128130Y1262500D03*
G01*
X828130Y1262500D03*
G36*
X626844Y1129508D02*
G01*
X626844Y1095491D01*
X595093Y1095491D01*
X595093Y1129508D01*
G37*
G36*
X654405Y1129508D02*
G01*
X654405Y1095491D01*
X686156Y1095491D01*
X686156Y1129508D01*
G37*
G36*
X439715Y1190983D02*
G01*
X439715Y1259016D01*
X498179Y1259016D01*
X498179Y1190983D01*
G37*
G36*
X372784Y1190983D02*
G01*
X372784Y1259016D01*
X314320Y1259016D01*
X314320Y1190983D01*
G37*
G36*
X367469Y326383D02*
G01*
X367469Y292366D01*
X335718Y292366D01*
X335718Y326383D01*
G37*
G36*
X395030Y326383D02*
G01*
X395030Y292366D01*
X426781Y292366D01*
X426781Y326383D01*
G37*
G36*
X367469Y404508D02*
G01*
X367469Y370491D01*
X335718Y370491D01*
X335718Y404508D01*
G37*
G36*
X395030Y404508D02*
G01*
X395030Y370491D01*
X426781Y370491D01*
X426781Y404508D01*
G37*
G36*
X367469Y482633D02*
G01*
X367469Y448616D01*
X335718Y448616D01*
X335718Y482633D01*
G37*
G36*
X395030Y482633D02*
G01*
X395030Y448616D01*
X426781Y448616D01*
X426781Y482633D01*
G37*
G36*
X367469Y560758D02*
G01*
X367469Y526741D01*
X335718Y526741D01*
X335718Y560758D01*
G37*
G36*
X395030Y560758D02*
G01*
X395030Y526741D01*
X426781Y526741D01*
X426781Y560758D01*
G37*
G36*
X367469Y638883D02*
G01*
X367469Y604866D01*
X335718Y604866D01*
X335718Y638883D01*
G37*
G36*
X395030Y638883D02*
G01*
X395030Y604866D01*
X426781Y604866D01*
X426781Y638883D01*
G37*
G36*
X367469Y717008D02*
G01*
X367469Y682991D01*
X335718Y682991D01*
X335718Y717008D01*
G37*
G36*
X395030Y717008D02*
G01*
X395030Y682991D01*
X426781Y682991D01*
X426781Y717008D01*
G37*
D29*
G01*
X747440Y821869D03*
G01*
X802560Y821869D03*
D24*
G01*
X846880Y913069D03*
G01*
X846880Y968180D03*
G01*
X443750Y936930D03*
G01*
X443750Y881810D03*
G36*
X779970Y288883D02*
G01*
X779970Y254866D01*
X748218Y254866D01*
X748218Y288883D01*
G37*
G36*
X807529Y288883D02*
G01*
X807529Y254866D01*
X839281Y254866D01*
X839281Y288883D01*
G37*
G36*
X779970Y367008D02*
G01*
X779970Y332991D01*
X748218Y332991D01*
X748218Y367008D01*
G37*
G36*
X807529Y367008D02*
G01*
X807529Y332991D01*
X839281Y332991D01*
X839281Y367008D01*
G37*
G36*
X779970Y445133D02*
G01*
X779970Y411116D01*
X748218Y411116D01*
X748218Y445133D01*
G37*
G36*
X807529Y445133D02*
G01*
X807529Y411116D01*
X839281Y411116D01*
X839281Y445133D01*
G37*
G36*
X779970Y523258D02*
G01*
X779970Y489241D01*
X748218Y489241D01*
X748218Y523258D01*
G37*
G36*
X807529Y523258D02*
G01*
X807529Y489241D01*
X839281Y489241D01*
X839281Y523258D01*
G37*
G36*
X779970Y601383D02*
G01*
X779970Y567366D01*
X748218Y567366D01*
X748218Y601383D01*
G37*
G36*
X807529Y601383D02*
G01*
X807529Y567366D01*
X839281Y567366D01*
X839281Y601383D01*
G37*
G36*
X779970Y679508D02*
G01*
X779970Y645491D01*
X748218Y645491D01*
X748218Y679508D01*
G37*
G36*
X807529Y679508D02*
G01*
X807529Y645491D01*
X839281Y645491D01*
X839281Y679508D01*
G37*
G36*
X367469Y823258D02*
G01*
X367469Y789241D01*
X335718Y789241D01*
X335718Y823258D01*
G37*
G36*
X395030Y823258D02*
G01*
X395030Y789241D01*
X426781Y789241D01*
X426781Y823258D01*
G37*
G36*
X376383Y923150D02*
G01*
X342366Y923150D01*
X342366Y954900D01*
X376383Y954900D01*
G37*
D19*
G01*
X359380Y879710D03*
G36*
X395228Y1064758D02*
G01*
X434598Y1064758D01*
X434598Y1035230D01*
X395228Y1035230D01*
G37*
G36*
X302903Y1064758D02*
G01*
X342274Y1064758D01*
X342274Y1035230D01*
X302903Y1035230D01*
G37*
D30*
G01*
X322590Y1128119D03*
G01*
X414909Y1128119D03*
D31*
G01*
X968750Y81250D03*
D32*
G01*
X868750Y81250D03*
G01*
X768750Y81250D03*
G01*
X668750Y81250D03*
G36*
X1035285Y112249D02*
G01*
X1102214Y112249D01*
X1102214Y50250D01*
X1035285Y50250D01*
G37*
D34*
G01*
X1168750Y81250D03*
D32*
G01*
X209380Y815619D03*
G01*
X109380Y815619D03*
G01*
X209380Y915619D03*
G01*
X109380Y915619D03*
G01*
X209380Y1015619D03*
D31*
G01*
X109380Y1015619D03*
G36*
X75911Y224749D02*
G01*
X142840Y224749D01*
X142840Y162750D01*
X75911Y162750D01*
G37*
D34*
G01*
X209380Y193739D03*
G36*
X75911Y324749D02*
G01*
X142840Y324749D01*
X142840Y262750D01*
X75911Y262750D01*
G37*
G01*
X209380Y293739D03*
D35*
G01*
X123130Y1165590D03*
G01*
X201829Y1165590D03*
D36*
G01*
X1156250Y1773750D03*
G01*
X1156250Y1673750D03*
G01*
X1156250Y2092500D03*
G01*
X1156250Y1992500D03*
G01*
X1706250Y2092500D03*
G01*
X1706250Y1992500D03*
G01*
X606250Y2092500D03*
G01*
X606250Y1992500D03*
G01*
X1706250Y1773750D03*
G01*
X1706250Y1673750D03*
G01*
X606250Y1773750D03*
G01*
X606250Y1673750D03*
G36*
X75911Y724749D02*
G01*
X142840Y724749D01*
X142840Y662750D01*
X75911Y662750D01*
G37*
D34*
G01*
X209380Y693739D03*
D36*
G01*
X2100000Y393750D03*
G01*
X2100000Y293750D03*
G01*
X2868750Y393750D03*
G01*
X2868750Y293750D03*
G36*
X75911Y424749D02*
G01*
X142840Y424749D01*
X142840Y362750D01*
X75911Y362750D01*
G37*
D34*
G01*
X209380Y393739D03*
G36*
X75911Y524749D02*
G01*
X142840Y524749D01*
X142840Y462750D01*
X75911Y462750D01*
G37*
G01*
X209380Y493739D03*
G36*
X75911Y624749D02*
G01*
X142840Y624749D01*
X142840Y562750D01*
X75911Y562750D01*
G37*
G01*
X209380Y593739D03*
D36*
G01*
X2325000Y1378130D03*
G01*
X2425000Y1378130D03*
G01*
X2425000Y1025000D03*
G01*
X2325000Y1025000D03*
G01*
X2925000Y1151250D03*
G01*
X2925000Y1251250D03*
G01*
X2625000Y1025000D03*
G01*
X2725000Y1025000D03*
G01*
X2125000Y1151250D03*
G01*
X2125000Y1251250D03*
G01*
X2625000Y1378130D03*
G01*
X2725000Y1378130D03*
D35*
G01*
X2360649Y1216880D03*
G01*
X2439350Y1216880D03*
G01*
X2610649Y1216880D03*
G01*
X2689350Y1216880D03*
G01*
X3090630Y384349D03*
G01*
X3090630Y305650D03*
G01*
X2321880Y384969D03*
G01*
X2321880Y306269D03*
G36*
X1975245Y1807229D02*
G01*
X1975245Y1740300D01*
X2037245Y1740300D01*
X2037245Y1807229D01*
G37*
D34*
G01*
X2006250Y1673750D03*
G36*
X375244Y1807229D02*
G01*
X375244Y1740300D01*
X437244Y1740300D01*
X437244Y1807229D01*
G37*
G01*
X406250Y1673750D03*
G36*
X1875245Y1807229D02*
G01*
X1875245Y1740300D01*
X1937245Y1740300D01*
X1937245Y1807229D01*
G37*
G01*
X1906250Y1673750D03*
G36*
X275244Y1807229D02*
G01*
X275244Y1740300D01*
X337244Y1740300D01*
X337244Y1807229D01*
G37*
G01*
X306250Y1673750D03*
G36*
X1975245Y2125979D02*
G01*
X1975245Y2059050D01*
X2037245Y2059050D01*
X2037245Y2125979D01*
G37*
G01*
X2006250Y1992500D03*
G36*
X375244Y2125979D02*
G01*
X375244Y2059050D01*
X437244Y2059050D01*
X437244Y2125979D01*
G37*
G01*
X406250Y1992500D03*
G36*
X1875245Y2125979D02*
G01*
X1875245Y2059050D01*
X1937245Y2059050D01*
X1937245Y2125979D01*
G37*
G01*
X1906250Y1992500D03*
G36*
X275244Y2125979D02*
G01*
X275244Y2059050D01*
X337244Y2059050D01*
X337244Y2125979D01*
G37*
G01*
X306250Y1992500D03*
D32*
G01*
X653130Y812500D03*
D12*
G01*
X478130Y771869D03*
D18*
G01*
X400000Y906250D03*
D12*
G01*
X309380Y806250D03*
D18*
G01*
X496880Y1062500D03*
G01*
X612500Y909369D03*
G01*
X681250Y1037500D03*
G01*
X803130Y778119D03*
G01*
X812500Y1006250D03*
G01*
X390619Y1209380D03*
G01*
X390619Y1240630D03*
G01*
X637500Y659369D03*
G01*
X637500Y503119D03*
G01*
X637500Y346869D03*
G01*
X637500Y737500D03*
G01*
X637500Y581250D03*
G01*
X637500Y425000D03*
G01*
X1481250Y1268750D03*
G01*
X925000Y1137500D03*
G01*
X887500Y543750D03*
G01*
X893750Y621875D03*
G01*
X815630Y1231250D03*
G01*
X1331250Y1215625D03*
G01*
X1475000Y702759D03*
G01*
X618750Y1215619D03*
G01*
X531250Y1196869D03*
G01*
X1356250Y143750D03*
G01*
X1559375Y1137500D03*
G01*
X1428125Y1300000D03*
G01*
X1600005Y1312494D03*
G01*
X806250Y1134369D03*
G01*
X1428125Y1262500D03*
M02*
