G04 Layer: BottomSolderMaskLayer*
G04 EasyEDA v6.4.25, 2021-12-23T21:53:31+01:00*
G04 8dbf8c46b5b441d7b08fc360c6495019,7d3f4a13764643a7838717c5c1d40531,10*
G04 Gerber Generator version 0.2*
G04 Scale: 100 percent, Rotated: No, Reflected: No *
G04 Dimensions in inches *
G04 leading zeros omitted , absolute positions ,3 integer and 6 decimal *
%FSLAX36Y36*%
%MOIN*%

%ADD45C,0.0780*%
%ADD48C,0.0640*%
%ADD49C,0.0690*%
%ADD51C,0.0709*%
%ADD57C,0.0660*%
%ADD58R,0.0660X0.0660*%
%ADD60C,0.0680*%
%ADD62C,0.0631*%
%ADD64C,0.0749*%

%LPD*%
D45*
G01*
X320000Y256199D03*
G01*
X680000Y256199D03*
G01*
X320000Y371900D03*
G01*
X680000Y371900D03*
G01*
X320000Y487500D03*
G01*
X680000Y487500D03*
G01*
X320000Y603099D03*
G01*
X680000Y603099D03*
G01*
X320000Y718699D03*
G01*
X680000Y718699D03*
G01*
X320000Y834400D03*
G01*
X680000Y834400D03*
D48*
G01*
X120000Y1278099D03*
G01*
X198699Y1278099D03*
D49*
G01*
X2000000Y1865619D03*
G01*
X2000000Y1765619D03*
G01*
X2000000Y2158119D03*
G01*
X2000000Y2058119D03*
G01*
X2550000Y2158119D03*
G01*
X2550000Y2058119D03*
G01*
X1450000Y2158119D03*
G01*
X1450000Y2058119D03*
G01*
X2550000Y1865619D03*
G01*
X2550000Y1765619D03*
G01*
X1450000Y1865619D03*
G01*
X1450000Y1765619D03*
G36*
X73899Y754499D02*
G01*
X73899Y820500D01*
X144800Y820500D01*
X144800Y754499D01*
G37*
D51*
G01*
X209380Y787500D03*
D45*
G01*
X255050Y1795000D03*
G01*
X255050Y2155000D03*
G36*
X671999Y2059499D02*
G01*
X671999Y2130500D01*
X738000Y2130500D01*
X738000Y2059499D01*
G37*
D51*
G01*
X705000Y1995000D03*
G36*
X91999Y1864499D02*
G01*
X91999Y1935500D01*
X158000Y1935500D01*
X158000Y1864499D01*
G37*
G01*
X125000Y1800000D03*
G36*
X91999Y2114499D02*
G01*
X91999Y2185500D01*
X158000Y2185500D01*
X158000Y2114499D01*
G37*
G01*
X125000Y2050000D03*
D57*
G01*
X109380Y140619D03*
G01*
X109380Y240619D03*
G36*
X76399Y307600D02*
G01*
X76399Y373600D01*
X142399Y373600D01*
X142399Y307600D01*
G37*
D60*
G01*
X1053119Y1234380D03*
G01*
X1053119Y1134380D03*
G01*
X1053119Y1034380D03*
G01*
X1053119Y934380D03*
G01*
X1053119Y834380D03*
G01*
X1053119Y734380D03*
G01*
X1053119Y634380D03*
G01*
X1053119Y534380D03*
G01*
X1053119Y434380D03*
G01*
X1053119Y334380D03*
G01*
X1053119Y234380D03*
G01*
X1053119Y134380D03*
G01*
X1653119Y134380D03*
G01*
X1653119Y234380D03*
G01*
X1653119Y334380D03*
G01*
X1653119Y434380D03*
G01*
X1653119Y534380D03*
G01*
X1653119Y634380D03*
G01*
X1653119Y734380D03*
G01*
X1653119Y834380D03*
G01*
X1653119Y934380D03*
G01*
X1653119Y1034380D03*
G01*
X1653119Y1134380D03*
G01*
X1653119Y1234380D03*
G01*
X1553119Y884380D03*
G01*
X1553119Y784380D03*
G01*
X1553119Y134380D03*
G01*
X1453119Y134380D03*
D57*
G01*
X209380Y934369D03*
G01*
X109380Y934369D03*
G01*
X209380Y1034369D03*
G01*
X109380Y1034369D03*
G01*
X209380Y1134369D03*
G36*
X76399Y1101399D02*
G01*
X76399Y1167399D01*
X142399Y1167399D01*
X142399Y1101399D01*
G37*
D49*
G01*
X2106250Y393750D03*
G01*
X2106250Y293750D03*
G01*
X2818750Y393750D03*
G01*
X2818750Y293750D03*
G36*
X73899Y454499D02*
G01*
X73899Y520500D01*
X144800Y520500D01*
X144800Y454499D01*
G37*
D51*
G01*
X209380Y487500D03*
G36*
X73899Y554499D02*
G01*
X73899Y620500D01*
X144800Y620500D01*
X144800Y554499D01*
G37*
G01*
X209380Y587500D03*
G36*
X73899Y654499D02*
G01*
X73899Y720500D01*
X144800Y720500D01*
X144800Y654499D01*
G37*
G01*
X209380Y687500D03*
G36*
X524699Y1346599D02*
G01*
X524699Y1409699D01*
X587800Y1409699D01*
X587800Y1346599D01*
G37*
D62*
G01*
X556250Y1278119D03*
G01*
X556250Y1178119D03*
G01*
X556250Y1078119D03*
G01*
X856250Y1378119D03*
G01*
X856250Y1278119D03*
G01*
X856250Y1178119D03*
G01*
X856250Y1078119D03*
D49*
G01*
X2675000Y937500D03*
G01*
X2575000Y937500D03*
G01*
X2575000Y1337500D03*
G01*
X2675000Y1337500D03*
G01*
X2075000Y1187500D03*
G01*
X2075000Y1087500D03*
G01*
X2375000Y1337500D03*
G01*
X2275000Y1337500D03*
G01*
X2875000Y1187500D03*
G01*
X2875000Y1087500D03*
G01*
X2375000Y937500D03*
G01*
X2275000Y937500D03*
G36*
X2536000Y1115700D02*
G01*
X2536000Y1190599D01*
X2610900Y1190599D01*
X2610900Y1115700D01*
G37*
D64*
G01*
X2475010Y1153119D03*
G01*
X2376580Y1153119D03*
G36*
X1317700Y220100D02*
G01*
X1317700Y286100D01*
X1388599Y286100D01*
X1388599Y220100D01*
G37*
D51*
G01*
X1253119Y253130D03*
D48*
G01*
X1462500Y1035650D03*
G01*
X1462500Y1114349D03*
G01*
X3040630Y384349D03*
G01*
X3040630Y305650D03*
G01*
X2328130Y384969D03*
G01*
X2328130Y306269D03*
D58*
G01*
X1275000Y1100000D03*
D57*
G01*
X1275000Y1000000D03*
G01*
X1275000Y900000D03*
G01*
X1275000Y800000D03*
G36*
X2816999Y1830199D02*
G01*
X2816999Y1901100D01*
X2883000Y1901100D01*
X2883000Y1830199D01*
G37*
D51*
G01*
X2850000Y1765619D03*
G36*
X1216999Y1830199D02*
G01*
X1216999Y1901100D01*
X1283000Y1901100D01*
X1283000Y1830199D01*
G37*
G01*
X1250000Y1765619D03*
G36*
X2716999Y1830199D02*
G01*
X2716999Y1901100D01*
X2783000Y1901100D01*
X2783000Y1830199D01*
G37*
G01*
X2750000Y1765619D03*
G36*
X1116999Y1830199D02*
G01*
X1116999Y1901100D01*
X1183000Y1901100D01*
X1183000Y1830199D01*
G37*
G01*
X1150000Y1765619D03*
G36*
X2816999Y2122700D02*
G01*
X2816999Y2193600D01*
X2883000Y2193600D01*
X2883000Y2122700D01*
G37*
G01*
X2850000Y2058119D03*
G36*
X1216999Y2122700D02*
G01*
X1216999Y2193600D01*
X1283000Y2193600D01*
X1283000Y2122700D01*
G37*
G01*
X1250000Y2058119D03*
G36*
X2716999Y2122700D02*
G01*
X2716999Y2193600D01*
X2783000Y2193600D01*
X2783000Y2122700D01*
G37*
G01*
X2750000Y2058119D03*
G36*
X1116999Y2122700D02*
G01*
X1116999Y2193600D01*
X1183000Y2193600D01*
X1183000Y2122700D01*
G37*
G01*
X1150000Y2058119D03*
M02*
