G04 Layer: TopPasteMaskLayer*
G04 EasyEDA v6.4.25, 2021-12-23T21:53:31+01:00*
G04 8dbf8c46b5b441d7b08fc360c6495019,7d3f4a13764643a7838717c5c1d40531,10*
G04 Gerber Generator version 0.2*
G04 Scale: 100 percent, Rotated: No, Reflected: No *
G04 Dimensions in inches *
G04 leading zeros omitted , absolute positions ,3 integer and 6 decimal *
%FSLAX36Y36*%
%MOIN*%

%ADD18R,0.0492X0.0276*%
%ADD20R,0.0354X0.0315*%
%ADD21R,0.0276X0.0492*%
%ADD22R,0.0209X0.0416*%
%ADD23R,0.0394X0.0295*%

%LPD*%
G36*
X903060Y170820D02*
G01*
X901080Y168840D01*
X901080Y137360D01*
X903060Y135380D01*
X934539Y135380D01*
X936520Y137360D01*
X936520Y168840D01*
X934539Y170820D01*
X925580Y170820D01*
X925580Y156260D01*
X912580Y156260D01*
X912580Y170820D01*
G37*
G36*
X903060Y233420D02*
G01*
X901080Y231439D01*
X901080Y200340D01*
X903060Y198380D01*
X912580Y198380D01*
X912580Y213340D01*
X925580Y213340D01*
X925580Y198380D01*
X934539Y198380D01*
X936520Y200340D01*
X936520Y231439D01*
X934539Y233420D01*
G37*
G36*
X903060Y317620D02*
G01*
X901080Y315640D01*
X901080Y284160D01*
X903060Y282180D01*
X934539Y282180D01*
X936520Y284160D01*
X936520Y315640D01*
X934539Y317620D01*
X925580Y317620D01*
X925580Y303040D01*
X912580Y303040D01*
X912580Y317620D01*
G37*
G36*
X903060Y380220D02*
G01*
X901080Y378240D01*
X901080Y347140D01*
X903060Y345180D01*
X912580Y345180D01*
X912580Y360140D01*
X925580Y360140D01*
X925580Y345180D01*
X934539Y345180D01*
X936520Y347140D01*
X936520Y378240D01*
X934539Y380220D01*
G37*
G36*
X903060Y464520D02*
G01*
X901080Y462540D01*
X901080Y431060D01*
X903060Y429080D01*
X934539Y429080D01*
X936520Y431060D01*
X936520Y462540D01*
X934539Y464520D01*
X925580Y464520D01*
X925580Y449940D01*
X912580Y449940D01*
X912580Y464520D01*
G37*
G36*
X903060Y527120D02*
G01*
X901080Y525140D01*
X901080Y494040D01*
X903060Y492080D01*
X912580Y492080D01*
X912580Y507040D01*
X925580Y507040D01*
X925580Y492080D01*
X934539Y492080D01*
X936520Y494040D01*
X936520Y525140D01*
X934539Y527120D01*
G37*
G36*
X903060Y611420D02*
G01*
X901080Y609440D01*
X901080Y577960D01*
X903060Y575980D01*
X934539Y575980D01*
X936520Y577960D01*
X936520Y609440D01*
X934539Y611420D01*
X925580Y611420D01*
X925580Y596840D01*
X912580Y596840D01*
X912580Y611420D01*
G37*
G36*
X903060Y674020D02*
G01*
X901080Y672039D01*
X901080Y640939D01*
X903060Y638980D01*
X912580Y638980D01*
X912580Y653940D01*
X925580Y653940D01*
X925580Y638980D01*
X934539Y638980D01*
X936520Y640939D01*
X936520Y672039D01*
X934539Y674020D01*
G37*
G36*
X903060Y758319D02*
G01*
X901080Y756340D01*
X901080Y724860D01*
X903060Y722880D01*
X934539Y722880D01*
X936520Y724860D01*
X936520Y756340D01*
X934539Y758319D01*
X925580Y758319D01*
X925580Y743760D01*
X912580Y743760D01*
X912580Y758319D01*
G37*
G36*
X903060Y820920D02*
G01*
X901080Y818940D01*
X901080Y787840D01*
X903060Y785879D01*
X912580Y785879D01*
X912580Y800840D01*
X925580Y800840D01*
X925580Y785879D01*
X934539Y785879D01*
X936520Y787840D01*
X936520Y818940D01*
X934539Y820920D01*
G37*
G36*
X903060Y905120D02*
G01*
X901080Y903139D01*
X901080Y871660D01*
X903060Y869680D01*
X934539Y869680D01*
X936520Y871660D01*
X936520Y903139D01*
X934539Y905120D01*
X925580Y905120D01*
X925580Y890540D01*
X912580Y890540D01*
X912580Y905120D01*
G37*
G36*
X903060Y967720D02*
G01*
X901080Y965740D01*
X901080Y934640D01*
X903060Y932680D01*
X912580Y932680D01*
X912580Y947640D01*
X925580Y947640D01*
X925580Y932680D01*
X934539Y932680D01*
X936520Y934640D01*
X936520Y965740D01*
X934539Y967720D01*
G37*
G36*
X378000Y955160D02*
G01*
X376040Y953199D01*
X376040Y921700D01*
X378000Y919740D01*
X409500Y919740D01*
X411460Y921700D01*
X411460Y953199D01*
X409500Y955160D01*
X400520Y955160D01*
X400520Y940600D01*
X387540Y940600D01*
X387540Y955160D01*
G37*
G36*
X378000Y1017760D02*
G01*
X376040Y1015800D01*
X376040Y984700D01*
X378000Y982720D01*
X387540Y982720D01*
X387540Y997680D01*
X400520Y997680D01*
X400520Y982720D01*
X409500Y982720D01*
X411460Y984700D01*
X411460Y1015800D01*
X409500Y1017760D01*
G37*
G36*
X1231180Y1214600D02*
G01*
X1229200Y1212620D01*
X1229200Y1203640D01*
X1243780Y1203640D01*
X1243780Y1190660D01*
X1229200Y1190660D01*
X1229200Y1181120D01*
X1231180Y1179160D01*
X1262680Y1179160D01*
X1264640Y1181120D01*
X1264640Y1212620D01*
X1262680Y1214600D01*
G37*
G36*
X1168580Y1214600D02*
G01*
X1166620Y1212620D01*
X1166620Y1181120D01*
X1168580Y1179160D01*
X1199680Y1179160D01*
X1201640Y1181120D01*
X1201640Y1190660D01*
X1186680Y1190660D01*
X1186680Y1203640D01*
X1201640Y1203640D01*
X1201640Y1212620D01*
X1199680Y1214600D01*
G37*
G36*
X1231120Y1273920D02*
G01*
X1229160Y1271940D01*
X1229160Y1240460D01*
X1231120Y1238480D01*
X1262620Y1238480D01*
X1264600Y1240460D01*
X1264600Y1271940D01*
X1262620Y1273920D01*
X1253640Y1273920D01*
X1253640Y1259340D01*
X1240660Y1259340D01*
X1240660Y1273920D01*
G37*
G36*
X1231120Y1336519D02*
G01*
X1229160Y1334540D01*
X1229160Y1303440D01*
X1231120Y1301480D01*
X1240660Y1301480D01*
X1240660Y1316440D01*
X1253640Y1316440D01*
X1253640Y1301480D01*
X1262620Y1301480D01*
X1264600Y1303440D01*
X1264600Y1334540D01*
X1262620Y1336519D01*
G37*
G36*
X579260Y1951420D02*
G01*
X577280Y1949440D01*
X577280Y1917960D01*
X579260Y1915980D01*
X610740Y1915980D01*
X612720Y1917960D01*
X612720Y1949440D01*
X610740Y1951420D01*
X601780Y1951420D01*
X601780Y1936840D01*
X588780Y1936840D01*
X588780Y1951420D01*
G37*
G36*
X579260Y2014019D02*
G01*
X577280Y2012040D01*
X577280Y1980940D01*
X579260Y1978980D01*
X588780Y1978980D01*
X588780Y1993940D01*
X601780Y1993940D01*
X601780Y1978980D01*
X610740Y1978980D01*
X612720Y1980940D01*
X612720Y2012040D01*
X610740Y2014019D01*
G37*
G36*
X494260Y2014019D02*
G01*
X492280Y2012040D01*
X492280Y1980560D01*
X494260Y1978580D01*
X503220Y1978580D01*
X503220Y1993160D01*
X516220Y1993160D01*
X516220Y1978580D01*
X525740Y1978580D01*
X527720Y1980560D01*
X527720Y2012040D01*
X525740Y2014019D01*
G37*
G36*
X494260Y1951020D02*
G01*
X492280Y1949060D01*
X492280Y1917960D01*
X494260Y1915980D01*
X525740Y1915980D01*
X527720Y1917960D01*
X527720Y1949060D01*
X525740Y1951020D01*
X516220Y1951020D01*
X516220Y1936060D01*
X503220Y1936060D01*
X503220Y1951020D01*
G37*
G36*
X579260Y2111420D02*
G01*
X577280Y2109440D01*
X577280Y2077960D01*
X579260Y2075980D01*
X610740Y2075980D01*
X612720Y2077960D01*
X612720Y2109440D01*
X610740Y2111420D01*
X601780Y2111420D01*
X601780Y2096840D01*
X588780Y2096840D01*
X588780Y2111420D01*
G37*
G36*
X579260Y2174020D02*
G01*
X577280Y2172040D01*
X577280Y2140940D01*
X579260Y2138980D01*
X588780Y2138980D01*
X588780Y2153940D01*
X601780Y2153940D01*
X601780Y2138980D01*
X610740Y2138980D01*
X612720Y2140940D01*
X612720Y2172040D01*
X610740Y2174020D01*
G37*
G36*
X339260Y2174020D02*
G01*
X337280Y2172040D01*
X337280Y2140560D01*
X339260Y2138580D01*
X348220Y2138580D01*
X348220Y2153160D01*
X361220Y2153160D01*
X361220Y2138580D01*
X370740Y2138580D01*
X372720Y2140560D01*
X372720Y2172040D01*
X370740Y2174020D01*
G37*
G36*
X339260Y2111020D02*
G01*
X337280Y2109060D01*
X337280Y2077960D01*
X339260Y2075980D01*
X370740Y2075980D01*
X372720Y2077960D01*
X372720Y2109060D01*
X370740Y2111020D01*
X361220Y2111020D01*
X361220Y2096060D01*
X348220Y2096060D01*
X348220Y2111020D01*
G37*
G36*
X579260Y1849019D02*
G01*
X577280Y1847040D01*
X577280Y1815560D01*
X579260Y1813580D01*
X588220Y1813580D01*
X588220Y1828160D01*
X601220Y1828160D01*
X601220Y1813580D01*
X610740Y1813580D01*
X612720Y1815560D01*
X612720Y1847040D01*
X610740Y1849019D01*
G37*
G36*
X579260Y1786020D02*
G01*
X577280Y1784060D01*
X577280Y1752960D01*
X579260Y1750980D01*
X610740Y1750980D01*
X612720Y1752960D01*
X612720Y1784060D01*
X610740Y1786020D01*
X601220Y1786020D01*
X601220Y1771060D01*
X588220Y1771060D01*
X588220Y1786020D01*
G37*
G36*
X378000Y1177140D02*
G01*
X376040Y1175180D01*
X376040Y1143680D01*
X378000Y1141700D01*
X386980Y1141700D01*
X386980Y1156280D01*
X399960Y1156280D01*
X399960Y1141700D01*
X409500Y1141700D01*
X411460Y1143680D01*
X411460Y1175180D01*
X409500Y1177140D01*
G37*
G36*
X378000Y1114140D02*
G01*
X376040Y1112180D01*
X376040Y1081080D01*
X378000Y1079120D01*
X409500Y1079120D01*
X411460Y1081080D01*
X411460Y1112180D01*
X409500Y1114140D01*
X399960Y1114140D01*
X399960Y1099180D01*
X386980Y1099180D01*
X386980Y1114140D01*
G37*
G36*
X915500Y1333300D02*
G01*
X913540Y1331320D01*
X913540Y1299820D01*
X915500Y1297860D01*
X947000Y1297860D01*
X948960Y1299820D01*
X948960Y1331320D01*
X947000Y1333300D01*
X938020Y1333300D01*
X938020Y1318720D01*
X925020Y1318720D01*
X925020Y1333300D01*
G37*
G36*
X915500Y1395880D02*
G01*
X913540Y1393920D01*
X913540Y1362820D01*
X915500Y1360860D01*
X925020Y1360860D01*
X925020Y1375820D01*
X938020Y1375820D01*
X938020Y1360860D01*
X947000Y1360860D01*
X948960Y1362820D01*
X948960Y1393920D01*
X947000Y1395880D01*
G37*
D18*
G01*
X498130Y996799D03*
G01*
X498130Y921999D03*
G01*
X576869Y959400D03*
G36*
X817863Y166979D02*
G01*
X867075Y166979D01*
X867075Y139420D01*
X817863Y139420D01*
G37*
G36*
X817863Y241779D02*
G01*
X867075Y241779D01*
X867075Y214220D01*
X817863Y214220D01*
G37*
G36*
X739123Y204378D02*
G01*
X788335Y204378D01*
X788335Y176819D01*
X739123Y176819D01*
G37*
G36*
X817863Y310779D02*
G01*
X867075Y310779D01*
X867075Y283220D01*
X817863Y283220D01*
G37*
G36*
X817863Y385578D02*
G01*
X867075Y385578D01*
X867075Y358020D01*
X817863Y358020D01*
G37*
G36*
X739123Y348179D02*
G01*
X788335Y348179D01*
X788335Y320619D01*
X739123Y320619D01*
G37*
G36*
X817863Y460779D02*
G01*
X867075Y460779D01*
X867075Y433220D01*
X817863Y433220D01*
G37*
G36*
X817863Y535578D02*
G01*
X867075Y535578D01*
X867075Y508020D01*
X817863Y508020D01*
G37*
G36*
X739123Y498179D02*
G01*
X788335Y498179D01*
X788335Y470619D01*
X739123Y470619D01*
G37*
G36*
X817863Y607579D02*
G01*
X867075Y607579D01*
X867075Y580019D01*
X817863Y580019D01*
G37*
G36*
X817863Y682379D02*
G01*
X867075Y682379D01*
X867075Y654819D01*
X817863Y654819D01*
G37*
G36*
X739123Y644978D02*
G01*
X788335Y644978D01*
X788335Y617420D01*
X739123Y617420D01*
G37*
G36*
X817863Y754479D02*
G01*
X867075Y754479D01*
X867075Y726920D01*
X817863Y726920D01*
G37*
G36*
X817863Y829279D02*
G01*
X867075Y829279D01*
X867075Y801720D01*
X817863Y801720D01*
G37*
G36*
X739123Y791878D02*
G01*
X788335Y791878D01*
X788335Y764319D01*
X739123Y764319D01*
G37*
G36*
X817863Y901379D02*
G01*
X867075Y901379D01*
X867075Y873820D01*
X817863Y873820D01*
G37*
G36*
X817863Y976179D02*
G01*
X867075Y976179D01*
X867075Y948620D01*
X817863Y948620D01*
G37*
G36*
X739123Y938778D02*
G01*
X788335Y938778D01*
X788335Y911220D01*
X739123Y911220D01*
G37*
D20*
G01*
X355000Y1802440D03*
G01*
X355000Y1857559D03*
D18*
G01*
X425799Y1800000D03*
G01*
X524200Y1837399D03*
G01*
X524200Y1762600D03*
D21*
G01*
X390000Y2029200D03*
G01*
X427399Y1930799D03*
G01*
X352600Y1930799D03*
D22*
G01*
X432600Y2094009D03*
G01*
X507399Y2094009D03*
G01*
X470000Y2175990D03*
D20*
G01*
X475000Y1158809D03*
G01*
X475000Y1103690D03*
G01*
X931250Y1205680D03*
G01*
X931250Y1150569D03*
G36*
X454603Y1286639D02*
G01*
X493973Y1286639D01*
X493973Y1257110D01*
X454603Y1257110D01*
G37*
G36*
X362278Y1286639D02*
G01*
X401649Y1286639D01*
X401649Y1257110D01*
X362278Y1257110D01*
G37*
D23*
G01*
X381959Y1353119D03*
G01*
X474290Y1353119D03*
D20*
G01*
X931250Y1077559D03*
G01*
X931250Y1022440D03*
M02*
