M48
INCH,LZ
;FILE_FORMAT=2:4
;TYPE=PLATED
;Layer: Drill PTH
;EasyEDA v6.4.25, 2021-12-23T21:53:31+01:00
;8dbf8c46b5b441d7b08fc360c6495019,7d3f4a13764643a7838717c5c1d40531,10
;Gerber Generator version 0.2
;Holesize 1 = 0.0120 inch
T01C0.0120
;Holesize 2 = 0.0160 inch
T02C0.0160
;Holesize 3 = 0.0350 inch
T03C0.0350
;Holesize 4 = 0.0350 inch
T04C0.0350
;Holesize 5 = 0.0350 inch
T05C0.0350
;Holesize 6 = 0.0360 inch
T06C0.0360
;Holesize 7 = 0.0380 inch
T07C0.0380
;Holesize 8 = 0.0430 inch
T08C0.0430
%
G05
G90
T01
X009781Y011500
X004438Y010594
X011875Y013188
X008813Y010219
T02
X004438Y009219
X003406Y009375
T03
X001094Y001406
X001094Y002406
X001094Y003406
X002094Y009344
X001094Y009344
X002094Y010344
X001094Y010344
X002094Y011344
X001094Y011344
X012750Y011000
X012750Y010000
X012750Y009000
X012750Y008000
T04
X003200Y002562
X006800Y002562
X003200Y003719
X006800Y003719
X003200Y004875
X006800Y004875
X003200Y006031
X006800Y006031
X003200Y007187
X006800Y007187
X003200Y008344
X006800Y008344
X002551Y017950
X002551Y021550
T05
X010531Y012344
X010531Y011344
X010531Y010344
X010531Y009344
X010531Y008344
X010531Y007344
X010531Y006344
X010531Y005344
X010531Y004344
X010531Y003344
X010531Y002344
X010531Y001344
X016531Y001344
X016531Y002344
X016531Y003344
X016531Y004344
X016531Y005344
X016531Y006344
X016531Y007344
X016531Y008344
X016531Y009344
X016531Y010344
X016531Y011344
X016531Y012344
X015531Y008844
X015531Y007844
X015531Y001344
X014531Y001344
X005563Y013781
X005563Y012781
X005563Y011781
X005563Y010781
X008563Y013781
X008563Y012781
X008563Y011781
X008563Y010781
T06
X001200Y012781
X001987Y012781
X014625Y010357
X014625Y011143
X030406Y003843
X030406Y003057
X023281Y003850
X023281Y003063
T07
X020000Y018656
X020000Y017656
X020000Y021581
X020000Y020581
X025500Y021581
X025500Y020581
X014500Y021581
X014500Y020581
X025500Y018656
X025500Y017656
X014500Y018656
X014500Y017656
X021063Y003938
X021063Y002938
X028188Y003938
X028188Y002938
X026750Y009375
X025750Y009375
X025750Y013375
X026750Y013375
X020750Y011875
X020750Y010875
X023750Y013375
X022750Y013375
X028750Y011875
X028750Y010875
X023750Y009375
X022750Y009375
T08
X001094Y007875
X002094Y007875
X007050Y020950
X007050Y019950
X001250Y019000
X001250Y018000
X001250Y021500
X001250Y020500
X001094Y004875
X002094Y004875
X001094Y005875
X002094Y005875
X001094Y006875
X002094Y006875
X025734Y011531
X024750Y011531
X023766Y011531
X013531Y002531
X012531Y002531
X028500Y018656
X028500Y017656
X012500Y018656
X012500Y017656
X027500Y018656
X027500Y017656
X011500Y018656
X011500Y017656
X028500Y021581
X028500Y020581
X012500Y021581
X012500Y020581
X027500Y021581
X027500Y020581
X011500Y021581
X011500Y020581
M30
