G04 Layer: TopLayer*
G04 EasyEDA v6.4.25, 2021-12-23T21:53:31+01:00*
G04 8dbf8c46b5b441d7b08fc360c6495019,7d3f4a13764643a7838717c5c1d40531,10*
G04 Gerber Generator version 0.2*
G04 Scale: 100 percent, Rotated: No, Reflected: No *
G04 Dimensions in inches *
G04 leading zeros omitted , absolute positions ,3 integer and 6 decimal *
%FSLAX36Y36*%
%MOIN*%

%ADD10C,0.0100*%
%ADD11C,0.0150*%
%ADD12C,0.0300*%
%ADD13C,0.0200*%
%ADD14C,0.0250*%
%ADD15C,0.0400*%
%ADD16C,0.0240*%
%ADD17R,0.0340X0.0318*%
%ADD18R,0.0492X0.0276*%
%ADD20R,0.0354X0.0315*%
%ADD21R,0.0276X0.0492*%
%ADD22R,0.0209X0.0416*%
%ADD23R,0.0394X0.0295*%
%ADD24C,0.0740*%
%ADD25C,0.0600*%
%ADD26C,0.0650*%
%ADD28C,0.0669*%
%ADD29R,0.0620X0.0669*%
%ADD30C,0.0620*%
%ADD31R,0.0620X0.0620*%
%ADD32R,0.0591X0.0591*%
%ADD33C,0.0591*%
%ADD35C,0.0709*%

%LPD*%
G36*
X14200Y1712500D02*
G01*
X12660Y1712800D01*
X11379Y1713680D01*
X10500Y1714960D01*
X10200Y1716500D01*
X10200Y2229540D01*
X10500Y2231080D01*
X11379Y2232380D01*
X12660Y2233240D01*
X14200Y2233540D01*
X783500Y2233540D01*
X785040Y2233240D01*
X786320Y2232380D01*
X787200Y2231080D01*
X787500Y2229540D01*
X787500Y1716500D01*
X787200Y1714960D01*
X786320Y1713680D01*
X785040Y1712800D01*
X783500Y1712500D01*
G37*

%LPC*%
G36*
X499820Y1738620D02*
G01*
X548580Y1738620D01*
X551080Y1738899D01*
X553220Y1739660D01*
X555160Y1740860D01*
X556760Y1742480D01*
X557980Y1744400D01*
X558720Y1746560D01*
X559000Y1749040D01*
X559000Y1751140D01*
X559320Y1752660D01*
X560180Y1753959D01*
X561480Y1754840D01*
X563000Y1755140D01*
X564200Y1755140D01*
X565800Y1754800D01*
X567140Y1753860D01*
X567980Y1752460D01*
X568820Y1750060D01*
X570040Y1748120D01*
X571640Y1746519D01*
X573580Y1745300D01*
X575720Y1744540D01*
X578220Y1744259D01*
X611780Y1744259D01*
X614280Y1744540D01*
X616420Y1745300D01*
X618360Y1746519D01*
X619960Y1748120D01*
X621180Y1750060D01*
X621920Y1752200D01*
X622200Y1754700D01*
X622200Y1786000D01*
X621920Y1788480D01*
X621180Y1790640D01*
X619960Y1792560D01*
X618360Y1794180D01*
X616420Y1795380D01*
X614040Y1796220D01*
X612640Y1797060D01*
X611680Y1798400D01*
X611360Y1800000D01*
X611680Y1801600D01*
X612640Y1802940D01*
X614040Y1803779D01*
X616420Y1804620D01*
X618360Y1805820D01*
X619960Y1807440D01*
X621180Y1809360D01*
X621920Y1811519D01*
X622200Y1814000D01*
X622200Y1833720D01*
X622520Y1835240D01*
X623380Y1836540D01*
X650600Y1863779D01*
X652620Y1866220D01*
X654020Y1868860D01*
X654880Y1871699D01*
X655200Y1874860D01*
X655200Y2068300D01*
X655500Y2069840D01*
X656380Y2071120D01*
X657660Y2072000D01*
X659800Y2072300D01*
X661340Y2072000D01*
X662620Y2071120D01*
X663500Y2069840D01*
X663800Y2068300D01*
X663800Y2061759D01*
X664080Y2059280D01*
X664840Y2057120D01*
X666040Y2055200D01*
X667660Y2053580D01*
X669580Y2052360D01*
X671740Y2051620D01*
X674220Y2051339D01*
X735780Y2051339D01*
X738259Y2051620D01*
X740420Y2052360D01*
X742340Y2053580D01*
X743960Y2055200D01*
X745160Y2057120D01*
X745920Y2059280D01*
X746200Y2061759D01*
X746200Y2128240D01*
X745920Y2130720D01*
X745160Y2132880D01*
X743960Y2134800D01*
X742340Y2136420D01*
X740420Y2137640D01*
X738259Y2138380D01*
X735780Y2138660D01*
X674220Y2138660D01*
X671740Y2138380D01*
X669580Y2137640D01*
X667660Y2136420D01*
X666040Y2134800D01*
X664840Y2132880D01*
X664080Y2130720D01*
X663800Y2128240D01*
X663800Y2121700D01*
X663500Y2120160D01*
X662620Y2118880D01*
X661340Y2118000D01*
X659800Y2117700D01*
X621480Y2117700D01*
X619960Y2118000D01*
X618360Y2119180D01*
X616420Y2120380D01*
X614040Y2121220D01*
X612640Y2122060D01*
X611680Y2123400D01*
X611360Y2125000D01*
X611680Y2126600D01*
X612640Y2127940D01*
X614040Y2128780D01*
X616420Y2129620D01*
X618360Y2130820D01*
X619960Y2132440D01*
X621180Y2134360D01*
X621920Y2136520D01*
X622200Y2139000D01*
X622200Y2144220D01*
X606000Y2144220D01*
X606000Y2125420D01*
X605700Y2123880D01*
X604840Y2122600D01*
X603540Y2121720D01*
X602000Y2121420D01*
X588000Y2121420D01*
X586460Y2121720D01*
X585160Y2122600D01*
X584300Y2123880D01*
X584000Y2125420D01*
X584000Y2144220D01*
X567800Y2144220D01*
X567800Y2139000D01*
X568080Y2136520D01*
X568820Y2134360D01*
X570040Y2132440D01*
X571640Y2130820D01*
X573580Y2129620D01*
X575960Y2128780D01*
X577360Y2127940D01*
X578320Y2126600D01*
X578640Y2125000D01*
X578320Y2123400D01*
X577360Y2122060D01*
X575960Y2121220D01*
X573580Y2120380D01*
X570360Y2118340D01*
X568860Y2118040D01*
X530000Y2118040D01*
X528680Y2118260D01*
X527520Y2118920D01*
X526620Y2119920D01*
X525820Y2121160D01*
X524219Y2122780D01*
X522280Y2124000D01*
X520140Y2124740D01*
X517640Y2125020D01*
X497160Y2125020D01*
X494660Y2124740D01*
X492520Y2124000D01*
X490580Y2122780D01*
X488980Y2121160D01*
X487760Y2119240D01*
X487000Y2117080D01*
X486719Y2114600D01*
X486719Y2103980D01*
X486460Y2102520D01*
X485660Y2100460D01*
X484880Y2096800D01*
X484739Y2093060D01*
X485200Y2089340D01*
X486620Y2084800D01*
X486719Y2083880D01*
X486719Y2073420D01*
X487000Y2070920D01*
X487760Y2068779D01*
X488980Y2066840D01*
X490580Y2065240D01*
X492520Y2064019D01*
X494660Y2063260D01*
X497160Y2062980D01*
X517640Y2062980D01*
X520140Y2063260D01*
X522280Y2064019D01*
X524219Y2065240D01*
X525820Y2066840D01*
X527040Y2068779D01*
X527460Y2069960D01*
X528300Y2071360D01*
X529640Y2072300D01*
X531240Y2072640D01*
X568860Y2072640D01*
X570360Y2072340D01*
X573580Y2070300D01*
X575720Y2069540D01*
X578220Y2069259D01*
X611780Y2069259D01*
X614280Y2069540D01*
X616440Y2070300D01*
X618700Y2071699D01*
X620280Y2072260D01*
X621960Y2072120D01*
X623440Y2071300D01*
X624440Y2069940D01*
X624800Y2068300D01*
X624800Y2021680D01*
X624440Y2020020D01*
X623440Y2018660D01*
X621960Y2017840D01*
X620260Y2017700D01*
X618680Y2018280D01*
X616420Y2019700D01*
X614280Y2020460D01*
X611780Y2020740D01*
X606000Y2020740D01*
X606000Y2005100D01*
X620800Y2005100D01*
X622340Y2004780D01*
X623620Y2003920D01*
X624500Y2002620D01*
X624800Y2001100D01*
X624800Y1988220D01*
X624500Y1986680D01*
X623620Y1985380D01*
X622340Y1984520D01*
X620800Y1984220D01*
X606000Y1984220D01*
X606000Y1965420D01*
X605700Y1963880D01*
X604840Y1962600D01*
X603540Y1961720D01*
X602000Y1961420D01*
X588000Y1961420D01*
X586460Y1961720D01*
X585160Y1962600D01*
X584300Y1963880D01*
X584000Y1965420D01*
X584000Y1984220D01*
X567800Y1984220D01*
X567800Y1979000D01*
X568080Y1976519D01*
X568820Y1974360D01*
X570040Y1972440D01*
X571640Y1970820D01*
X573580Y1969620D01*
X575960Y1968779D01*
X577360Y1967940D01*
X578320Y1966600D01*
X578640Y1965000D01*
X578320Y1963400D01*
X577360Y1962060D01*
X575960Y1961220D01*
X573580Y1960380D01*
X571640Y1959180D01*
X570040Y1957560D01*
X568820Y1955640D01*
X568080Y1953480D01*
X567800Y1951000D01*
X567800Y1931279D01*
X567480Y1929760D01*
X566620Y1928460D01*
X513600Y1875420D01*
X511580Y1872980D01*
X510180Y1870340D01*
X509320Y1867500D01*
X509060Y1864980D01*
X508660Y1863580D01*
X507760Y1862420D01*
X506520Y1861639D01*
X505080Y1861380D01*
X499820Y1861380D01*
X497320Y1861100D01*
X495180Y1860340D01*
X493240Y1859139D01*
X491640Y1857520D01*
X490420Y1855600D01*
X489680Y1853440D01*
X489400Y1850960D01*
X489400Y1846759D01*
X489080Y1845220D01*
X488220Y1843940D01*
X486920Y1843060D01*
X485400Y1842760D01*
X483860Y1843060D01*
X482560Y1843940D01*
X465880Y1860600D01*
X463440Y1862620D01*
X460800Y1864019D01*
X457960Y1864880D01*
X454799Y1865200D01*
X441360Y1865200D01*
X439820Y1865500D01*
X438519Y1866380D01*
X415740Y1889160D01*
X414860Y1890460D01*
X414560Y1892000D01*
X414860Y1893520D01*
X415740Y1894820D01*
X417040Y1895680D01*
X418560Y1896000D01*
X440959Y1896000D01*
X443440Y1896279D01*
X445600Y1897020D01*
X447520Y1898240D01*
X449140Y1899840D01*
X450340Y1901780D01*
X451100Y1903920D01*
X451380Y1906420D01*
X451380Y1955180D01*
X451100Y1957680D01*
X450340Y1959820D01*
X449140Y1961759D01*
X447520Y1963360D01*
X445600Y1964580D01*
X443440Y1965320D01*
X440959Y1965600D01*
X415740Y1965600D01*
X414219Y1965920D01*
X412920Y1966780D01*
X392140Y1987560D01*
X391260Y1988860D01*
X390959Y1990400D01*
X391260Y1991920D01*
X392140Y1993220D01*
X393440Y1994079D01*
X394960Y1994400D01*
X401659Y1994400D01*
X403180Y1994079D01*
X404480Y1993220D01*
X413660Y1984060D01*
X416100Y1982040D01*
X418740Y1980640D01*
X421580Y1979780D01*
X424739Y1979460D01*
X479200Y1979460D01*
X480800Y1979120D01*
X482140Y1978180D01*
X482980Y1976780D01*
X483820Y1974360D01*
X485040Y1972440D01*
X486640Y1970820D01*
X488579Y1969620D01*
X490959Y1968779D01*
X492360Y1967940D01*
X493320Y1966600D01*
X493640Y1965000D01*
X493320Y1963400D01*
X492360Y1962060D01*
X490959Y1961220D01*
X488579Y1960380D01*
X486640Y1959180D01*
X485040Y1957560D01*
X483820Y1955640D01*
X483080Y1953480D01*
X482800Y1951000D01*
X482800Y1945780D01*
X499000Y1945780D01*
X499000Y1964580D01*
X499300Y1966120D01*
X500160Y1967400D01*
X501460Y1968280D01*
X503000Y1968580D01*
X517000Y1968580D01*
X518540Y1968280D01*
X519840Y1967400D01*
X520700Y1966120D01*
X521000Y1964580D01*
X521000Y1945780D01*
X537200Y1945780D01*
X537200Y1951000D01*
X536920Y1953480D01*
X536180Y1955640D01*
X534960Y1957560D01*
X533360Y1959180D01*
X531420Y1960380D01*
X529040Y1961220D01*
X527640Y1962060D01*
X526680Y1963400D01*
X526360Y1965000D01*
X526680Y1966600D01*
X527640Y1967940D01*
X529040Y1968779D01*
X531420Y1969620D01*
X533360Y1970820D01*
X534960Y1972440D01*
X536180Y1974360D01*
X536920Y1976519D01*
X537200Y1979000D01*
X537200Y2010300D01*
X536920Y2012800D01*
X536180Y2014940D01*
X534960Y2016879D01*
X533360Y2018480D01*
X531420Y2019700D01*
X529280Y2020460D01*
X526780Y2020740D01*
X493220Y2020740D01*
X490720Y2020460D01*
X488579Y2019700D01*
X486640Y2018480D01*
X485040Y2016879D01*
X483820Y2014940D01*
X482980Y2012540D01*
X482140Y2011140D01*
X480800Y2010200D01*
X479200Y2009860D01*
X432500Y2009860D01*
X430959Y2010160D01*
X429660Y2011040D01*
X415160Y2025540D01*
X414280Y2026840D01*
X413980Y2028380D01*
X413980Y2053580D01*
X413700Y2056080D01*
X412420Y2059760D01*
X412560Y2061360D01*
X413320Y2062780D01*
X414580Y2063800D01*
X416120Y2064240D01*
X417720Y2064019D01*
X419860Y2063260D01*
X422360Y2062980D01*
X442840Y2062980D01*
X445340Y2063260D01*
X447480Y2064019D01*
X449420Y2065240D01*
X451019Y2066840D01*
X452239Y2068779D01*
X453000Y2070920D01*
X453280Y2073420D01*
X453280Y2114600D01*
X453000Y2117080D01*
X452239Y2119240D01*
X451019Y2121160D01*
X449420Y2122780D01*
X447480Y2124000D01*
X445340Y2124740D01*
X442840Y2125020D01*
X422360Y2125020D01*
X419860Y2124740D01*
X417720Y2124000D01*
X415780Y2122780D01*
X414180Y2121160D01*
X412960Y2119240D01*
X412200Y2117080D01*
X411920Y2114600D01*
X411920Y2113200D01*
X411620Y2111680D01*
X410760Y2110380D01*
X409460Y2109520D01*
X407920Y2109200D01*
X385980Y2109200D01*
X384560Y2109480D01*
X383320Y2110220D01*
X382440Y2111380D01*
X381920Y2113480D01*
X381180Y2115640D01*
X379960Y2117560D01*
X378360Y2119180D01*
X376420Y2120380D01*
X374040Y2121220D01*
X372640Y2122060D01*
X371680Y2123400D01*
X371360Y2125000D01*
X371680Y2126600D01*
X372640Y2127940D01*
X374040Y2128780D01*
X376420Y2129620D01*
X378360Y2130820D01*
X379960Y2132440D01*
X381180Y2134360D01*
X381920Y2136520D01*
X382200Y2139000D01*
X382200Y2148100D01*
X382520Y2149640D01*
X383380Y2150940D01*
X384560Y2152120D01*
X385860Y2152980D01*
X387400Y2153300D01*
X446640Y2153300D01*
X448180Y2152980D01*
X449480Y2152100D01*
X451580Y2148840D01*
X453180Y2147220D01*
X455120Y2146000D01*
X457260Y2145260D01*
X459760Y2144980D01*
X480240Y2144980D01*
X482740Y2145260D01*
X484880Y2146000D01*
X486820Y2147220D01*
X488420Y2148840D01*
X489640Y2150760D01*
X490400Y2152920D01*
X490680Y2155400D01*
X490680Y2165920D01*
X490880Y2167200D01*
X492000Y2170420D01*
X492600Y2174120D01*
X492600Y2177860D01*
X492000Y2181560D01*
X490880Y2184780D01*
X490680Y2186080D01*
X490680Y2196580D01*
X490400Y2199080D01*
X489640Y2201220D01*
X488420Y2203160D01*
X486820Y2204760D01*
X484880Y2205980D01*
X482740Y2206740D01*
X480240Y2207020D01*
X459760Y2207020D01*
X457260Y2206740D01*
X455120Y2205980D01*
X453180Y2204760D01*
X451580Y2203160D01*
X449500Y2199880D01*
X448180Y2199000D01*
X446640Y2198700D01*
X376500Y2198700D01*
X372600Y2198360D01*
X368960Y2197440D01*
X365540Y2195940D01*
X362360Y2193880D01*
X360200Y2191960D01*
X350140Y2181900D01*
X348840Y2181040D01*
X347320Y2180740D01*
X338220Y2180740D01*
X335720Y2180460D01*
X333600Y2179700D01*
X331140Y2178100D01*
X330080Y2177620D01*
X328940Y2177440D01*
X298720Y2177560D01*
X297360Y2177800D01*
X296160Y2178500D01*
X295260Y2179560D01*
X294380Y2181060D01*
X290880Y2185700D01*
X286840Y2189880D01*
X282320Y2193520D01*
X277380Y2196580D01*
X272100Y2199000D01*
X266560Y2200760D01*
X260840Y2201840D01*
X255060Y2202200D01*
X249259Y2201840D01*
X243540Y2200760D01*
X238000Y2199000D01*
X232719Y2196580D01*
X227780Y2193520D01*
X223260Y2189880D01*
X219220Y2185700D01*
X215720Y2181060D01*
X212800Y2176040D01*
X212420Y2175140D01*
X211560Y2173860D01*
X210260Y2173000D01*
X208740Y2172700D01*
X170200Y2172700D01*
X168660Y2173000D01*
X167380Y2173880D01*
X166500Y2175160D01*
X166200Y2176700D01*
X166200Y2183240D01*
X165920Y2185720D01*
X165159Y2187880D01*
X163960Y2189800D01*
X162340Y2191420D01*
X160420Y2192640D01*
X158260Y2193380D01*
X155780Y2193660D01*
X94220Y2193660D01*
X91740Y2193380D01*
X89580Y2192640D01*
X87660Y2191420D01*
X86039Y2189800D01*
X84840Y2187880D01*
X84080Y2185720D01*
X83800Y2183240D01*
X83800Y2116760D01*
X84080Y2114280D01*
X84840Y2112120D01*
X86039Y2110200D01*
X87660Y2108580D01*
X89580Y2107360D01*
X91740Y2106620D01*
X94220Y2106340D01*
X155780Y2106340D01*
X158260Y2106620D01*
X160420Y2107360D01*
X162340Y2108580D01*
X163960Y2110200D01*
X165159Y2112120D01*
X165920Y2114280D01*
X166200Y2116760D01*
X166200Y2123300D01*
X166500Y2124840D01*
X167380Y2126120D01*
X168660Y2127000D01*
X170200Y2127300D01*
X214920Y2127300D01*
X216580Y2126940D01*
X217960Y2125900D01*
X221180Y2122140D01*
X225460Y2118240D01*
X230200Y2114880D01*
X235320Y2112120D01*
X240740Y2110020D01*
X246380Y2108620D01*
X252140Y2107900D01*
X257960Y2107900D01*
X263720Y2108620D01*
X269360Y2110020D01*
X274780Y2112120D01*
X279900Y2114880D01*
X284640Y2118240D01*
X288940Y2122140D01*
X292720Y2126560D01*
X295220Y2130360D01*
X296120Y2131320D01*
X297280Y2131940D01*
X298580Y2132160D01*
X328780Y2132040D01*
X330300Y2131740D01*
X333579Y2129620D01*
X335959Y2128780D01*
X337360Y2127940D01*
X338320Y2126600D01*
X338640Y2125000D01*
X338320Y2123400D01*
X337360Y2122060D01*
X335959Y2121220D01*
X333579Y2120380D01*
X331640Y2119180D01*
X330040Y2117560D01*
X328820Y2115640D01*
X328080Y2113480D01*
X327800Y2111000D01*
X327800Y2079700D01*
X328080Y2077200D01*
X328820Y2075060D01*
X330040Y2073120D01*
X331640Y2071519D01*
X333579Y2070300D01*
X335720Y2069540D01*
X337640Y2069079D01*
X338780Y2068180D01*
X339540Y2066940D01*
X339799Y2065520D01*
X339799Y2003400D01*
X340120Y2000240D01*
X340980Y1997400D01*
X342380Y1994760D01*
X344400Y1992320D01*
X364280Y1972440D01*
X365140Y1971140D01*
X365439Y1969600D01*
X365140Y1968080D01*
X364280Y1966780D01*
X362980Y1965920D01*
X361440Y1965600D01*
X339040Y1965600D01*
X336560Y1965320D01*
X334400Y1964580D01*
X332480Y1963360D01*
X330860Y1961759D01*
X329660Y1959820D01*
X328900Y1957680D01*
X328620Y1955180D01*
X328620Y1950000D01*
X328320Y1948480D01*
X327440Y1947180D01*
X326160Y1946300D01*
X324620Y1946000D01*
X281000Y1946000D01*
X277840Y1945680D01*
X275000Y1944820D01*
X272360Y1943420D01*
X269920Y1941420D01*
X244880Y1916380D01*
X243580Y1915500D01*
X242040Y1915200D01*
X170200Y1915200D01*
X168660Y1915500D01*
X167380Y1916380D01*
X166500Y1917660D01*
X166200Y1919199D01*
X166200Y1933240D01*
X165920Y1935720D01*
X165159Y1937880D01*
X163960Y1939800D01*
X162340Y1941420D01*
X160420Y1942640D01*
X158260Y1943380D01*
X155780Y1943660D01*
X94220Y1943660D01*
X91740Y1943380D01*
X89580Y1942640D01*
X87660Y1941420D01*
X86039Y1939800D01*
X84840Y1937880D01*
X84080Y1935720D01*
X83800Y1933240D01*
X83800Y1866759D01*
X84080Y1864280D01*
X84840Y1862120D01*
X86039Y1860200D01*
X87660Y1858580D01*
X89580Y1857360D01*
X91740Y1856620D01*
X94220Y1856339D01*
X155780Y1856339D01*
X158260Y1856620D01*
X160420Y1857360D01*
X162340Y1858580D01*
X163960Y1860200D01*
X165159Y1862120D01*
X165920Y1864280D01*
X166200Y1866759D01*
X166200Y1880800D01*
X166500Y1882340D01*
X167380Y1883620D01*
X168660Y1884500D01*
X170200Y1884800D01*
X249800Y1884800D01*
X252960Y1885120D01*
X255799Y1885980D01*
X258440Y1887380D01*
X260880Y1889400D01*
X285920Y1914420D01*
X287220Y1915300D01*
X288760Y1915600D01*
X324620Y1915600D01*
X326160Y1915300D01*
X327440Y1914420D01*
X328320Y1913140D01*
X328620Y1911600D01*
X328620Y1906420D01*
X328900Y1903920D01*
X329660Y1901780D01*
X330860Y1899840D01*
X332480Y1898240D01*
X334400Y1897020D01*
X336560Y1896279D01*
X339040Y1896000D01*
X364260Y1896000D01*
X365780Y1895680D01*
X367080Y1894820D01*
X371580Y1890340D01*
X372440Y1889040D01*
X372740Y1887500D01*
X372440Y1885980D01*
X371580Y1884680D01*
X370280Y1883800D01*
X368740Y1883500D01*
X366360Y1883500D01*
X366360Y1867920D01*
X382920Y1867920D01*
X382920Y1869340D01*
X383220Y1870860D01*
X384080Y1872160D01*
X385379Y1873020D01*
X386920Y1873340D01*
X388440Y1873020D01*
X389739Y1872160D01*
X422520Y1839400D01*
X424960Y1837380D01*
X427600Y1835980D01*
X430439Y1835120D01*
X433600Y1834800D01*
X447040Y1834800D01*
X448579Y1834500D01*
X449880Y1833620D01*
X452700Y1830800D01*
X453560Y1829520D01*
X453860Y1827980D01*
X453560Y1826440D01*
X452700Y1825160D01*
X451400Y1824280D01*
X449860Y1823980D01*
X401420Y1823980D01*
X398920Y1823700D01*
X396780Y1822940D01*
X394840Y1821740D01*
X393240Y1820120D01*
X391960Y1818520D01*
X390780Y1817860D01*
X389460Y1817640D01*
X386460Y1817640D01*
X384860Y1817980D01*
X383519Y1818920D01*
X382680Y1820320D01*
X381880Y1822600D01*
X380680Y1824540D01*
X379060Y1826140D01*
X378320Y1826620D01*
X377160Y1827720D01*
X376520Y1829199D01*
X376520Y1830800D01*
X377160Y1832280D01*
X378320Y1833380D01*
X379060Y1833860D01*
X380680Y1835460D01*
X381880Y1837400D01*
X382640Y1839540D01*
X382920Y1842040D01*
X382920Y1847180D01*
X366360Y1847180D01*
X366360Y1832400D01*
X366060Y1830860D01*
X365180Y1829560D01*
X363880Y1828700D01*
X362360Y1828400D01*
X347640Y1828400D01*
X346120Y1828700D01*
X344820Y1829560D01*
X343940Y1830860D01*
X343640Y1832400D01*
X343640Y1847180D01*
X327080Y1847180D01*
X327080Y1842040D01*
X327360Y1839540D01*
X328120Y1837400D01*
X329320Y1835460D01*
X330940Y1833860D01*
X331680Y1833380D01*
X332840Y1832280D01*
X333480Y1830800D01*
X333480Y1829199D01*
X332840Y1827720D01*
X331680Y1826620D01*
X330940Y1826140D01*
X329320Y1824540D01*
X328120Y1822600D01*
X327320Y1820320D01*
X326480Y1818920D01*
X325140Y1817980D01*
X323540Y1817640D01*
X298680Y1817640D01*
X297320Y1817880D01*
X296100Y1818580D01*
X295220Y1819640D01*
X294380Y1821060D01*
X290880Y1825700D01*
X286840Y1829880D01*
X282320Y1833520D01*
X277380Y1836579D01*
X272100Y1839000D01*
X266560Y1840760D01*
X260840Y1841840D01*
X255060Y1842200D01*
X249259Y1841840D01*
X243540Y1840760D01*
X238000Y1839000D01*
X232719Y1836579D01*
X227780Y1833520D01*
X223260Y1829880D01*
X219220Y1825700D01*
X215720Y1821060D01*
X213480Y1817200D01*
X212580Y1816140D01*
X211380Y1815440D01*
X210020Y1815200D01*
X168520Y1815200D01*
X167020Y1815500D01*
X165740Y1816320D01*
X164860Y1817580D01*
X163700Y1820200D01*
X160799Y1824980D01*
X157320Y1829360D01*
X153300Y1833240D01*
X148820Y1836579D01*
X143940Y1839340D01*
X138760Y1841440D01*
X133340Y1842860D01*
X127800Y1843560D01*
X122200Y1843560D01*
X116660Y1842860D01*
X111240Y1841440D01*
X106060Y1839340D01*
X101180Y1836579D01*
X96700Y1833240D01*
X92680Y1829360D01*
X89200Y1824980D01*
X86300Y1820200D01*
X84040Y1815080D01*
X82440Y1809720D01*
X81540Y1804199D01*
X81359Y1798600D01*
X81900Y1793040D01*
X83140Y1787580D01*
X85079Y1782320D01*
X87660Y1777360D01*
X90860Y1772780D01*
X94620Y1768640D01*
X98880Y1765020D01*
X103580Y1761960D01*
X108620Y1759540D01*
X113920Y1757780D01*
X119420Y1756699D01*
X125000Y1756339D01*
X130580Y1756699D01*
X136080Y1757780D01*
X141380Y1759540D01*
X146420Y1761960D01*
X151120Y1765020D01*
X155380Y1768640D01*
X159140Y1772780D01*
X162340Y1777360D01*
X165060Y1782640D01*
X165960Y1783779D01*
X167200Y1784540D01*
X168619Y1784800D01*
X205880Y1784800D01*
X207460Y1784460D01*
X208800Y1783520D01*
X209640Y1782120D01*
X211600Y1776600D01*
X214180Y1771399D01*
X217380Y1766560D01*
X221180Y1762140D01*
X225460Y1758240D01*
X230200Y1754880D01*
X235320Y1752120D01*
X240740Y1750020D01*
X246380Y1748620D01*
X252140Y1747900D01*
X257960Y1747900D01*
X263720Y1748620D01*
X269360Y1750020D01*
X274780Y1752120D01*
X279900Y1754880D01*
X284640Y1758240D01*
X288940Y1762140D01*
X292720Y1766560D01*
X295920Y1771399D01*
X298500Y1776600D01*
X300440Y1782080D01*
X300880Y1784100D01*
X301380Y1785340D01*
X302280Y1786360D01*
X303460Y1787020D01*
X304780Y1787240D01*
X323540Y1787240D01*
X325140Y1786900D01*
X326480Y1785960D01*
X327320Y1784560D01*
X328120Y1782280D01*
X329320Y1780360D01*
X330940Y1778740D01*
X332860Y1777520D01*
X335020Y1776780D01*
X337500Y1776500D01*
X372500Y1776500D01*
X374980Y1776780D01*
X377140Y1777520D01*
X379060Y1778740D01*
X380680Y1780360D01*
X381880Y1782280D01*
X382680Y1784560D01*
X383519Y1785960D01*
X384860Y1786900D01*
X386460Y1787240D01*
X387320Y1787240D01*
X388940Y1786900D01*
X390280Y1785940D01*
X391120Y1784520D01*
X392040Y1781780D01*
X393240Y1779880D01*
X394840Y1778260D01*
X396780Y1777060D01*
X398920Y1776300D01*
X401420Y1776020D01*
X450180Y1776020D01*
X452680Y1776300D01*
X454820Y1777060D01*
X456760Y1778260D01*
X458360Y1779880D01*
X459580Y1781800D01*
X460319Y1783959D01*
X460600Y1786440D01*
X460600Y1788640D01*
X460940Y1790220D01*
X461880Y1791560D01*
X463260Y1792400D01*
X464860Y1792620D01*
X466440Y1792200D01*
X467700Y1791180D01*
X469400Y1789120D01*
X488220Y1770280D01*
X489080Y1768980D01*
X489400Y1767460D01*
X489400Y1749040D01*
X489680Y1746560D01*
X490420Y1744400D01*
X491640Y1742480D01*
X493240Y1740860D01*
X495180Y1739660D01*
X497320Y1738899D01*
G37*
G36*
X327080Y1867920D02*
G01*
X343640Y1867920D01*
X343640Y1883500D01*
X337500Y1883500D01*
X335020Y1883220D01*
X332860Y1882480D01*
X330940Y1881260D01*
X329320Y1879640D01*
X328120Y1877720D01*
X327360Y1875560D01*
X327080Y1873080D01*
G37*
G36*
X493220Y1909259D02*
G01*
X499000Y1909259D01*
X499000Y1924900D01*
X482800Y1924900D01*
X482800Y1919700D01*
X483080Y1917200D01*
X483820Y1915060D01*
X485040Y1913120D01*
X486640Y1911519D01*
X488579Y1910300D01*
X490720Y1909540D01*
G37*
G36*
X521000Y1909259D02*
G01*
X526780Y1909259D01*
X529280Y1909540D01*
X531420Y1910300D01*
X533360Y1911519D01*
X534960Y1913120D01*
X536180Y1915060D01*
X536920Y1917200D01*
X537200Y1919700D01*
X537200Y1924900D01*
X521000Y1924900D01*
G37*
G36*
X724240Y1955900D02*
G01*
X726420Y1956960D01*
X731120Y1960020D01*
X735380Y1963640D01*
X739140Y1967780D01*
X742340Y1972360D01*
X744100Y1975760D01*
X724240Y1975760D01*
G37*
G36*
X685759Y1955900D02*
G01*
X685759Y1975760D01*
X665900Y1975760D01*
X667660Y1972360D01*
X670860Y1967780D01*
X674620Y1963640D01*
X678880Y1960020D01*
X683580Y1956960D01*
G37*
G36*
X567800Y2005100D02*
G01*
X584000Y2005100D01*
X584000Y2020740D01*
X578220Y2020740D01*
X575720Y2020460D01*
X573580Y2019700D01*
X571640Y2018480D01*
X570040Y2016879D01*
X568820Y2014940D01*
X568080Y2012800D01*
X567800Y2010300D01*
G37*
G36*
X144240Y2010900D02*
G01*
X146420Y2011960D01*
X151120Y2015020D01*
X155380Y2018640D01*
X159140Y2022780D01*
X162340Y2027360D01*
X164100Y2030760D01*
X144240Y2030760D01*
G37*
G36*
X105760Y2010900D02*
G01*
X105760Y2030760D01*
X85900Y2030760D01*
X87660Y2027360D01*
X90860Y2022780D01*
X94620Y2018640D01*
X98880Y2015020D01*
X103580Y2011960D01*
G37*
G36*
X724240Y2014240D02*
G01*
X744140Y2014240D01*
X743700Y2015200D01*
X740800Y2019980D01*
X737320Y2024360D01*
X733300Y2028240D01*
X728820Y2031579D01*
X724240Y2034160D01*
G37*
G36*
X665860Y2014240D02*
G01*
X685759Y2014240D01*
X685759Y2034160D01*
X681180Y2031579D01*
X676700Y2028240D01*
X672680Y2024360D01*
X669200Y2019980D01*
X666300Y2015200D01*
G37*
G36*
X144240Y2069240D02*
G01*
X164140Y2069240D01*
X163700Y2070200D01*
X160799Y2074980D01*
X157320Y2079360D01*
X153300Y2083240D01*
X148820Y2086579D01*
X144240Y2089160D01*
G37*
G36*
X85860Y2069240D02*
G01*
X105760Y2069240D01*
X105760Y2089160D01*
X101180Y2086579D01*
X96700Y2083240D01*
X92680Y2079360D01*
X89200Y2074980D01*
X86300Y2070200D01*
G37*
G36*
X606000Y2165100D02*
G01*
X622200Y2165100D01*
X622200Y2170300D01*
X621920Y2172800D01*
X621180Y2174940D01*
X619960Y2176880D01*
X618360Y2178480D01*
X616420Y2179700D01*
X614280Y2180460D01*
X611780Y2180740D01*
X606000Y2180740D01*
G37*
G36*
X567800Y2165100D02*
G01*
X584000Y2165100D01*
X584000Y2180740D01*
X578220Y2180740D01*
X575720Y2180460D01*
X573580Y2179700D01*
X571640Y2178480D01*
X570040Y2176880D01*
X568820Y2174940D01*
X568080Y2172800D01*
X567800Y2170300D01*
G37*

%LPD*%
G36*
X2276080Y825000D02*
G01*
X2275040Y825140D01*
X2274060Y825540D01*
X2125180Y912400D01*
X1975440Y962360D01*
X1974600Y962740D01*
X1811260Y1064460D01*
X1810260Y1065340D01*
X1809600Y1066520D01*
X1809379Y1067840D01*
X1809379Y1207160D01*
X1809600Y1208480D01*
X1810260Y1209660D01*
X1811260Y1210540D01*
X1974600Y1312260D01*
X1975440Y1312640D01*
X2125180Y1362600D01*
X2274060Y1449460D01*
X2275040Y1449860D01*
X2276080Y1450000D01*
X2673920Y1450000D01*
X2674960Y1449860D01*
X2675940Y1449460D01*
X2824820Y1362600D01*
X2974560Y1312640D01*
X2975400Y1312260D01*
X3138740Y1210540D01*
X3139740Y1209660D01*
X3140400Y1208480D01*
X3140620Y1207160D01*
X3140620Y1067840D01*
X3140400Y1066520D01*
X3139740Y1065340D01*
X3138740Y1064460D01*
X2975400Y962740D01*
X2974560Y962360D01*
X2824820Y912400D01*
X2675940Y825540D01*
X2674960Y825140D01*
X2673920Y825000D01*
G37*

%LPC*%
G36*
X2275000Y894800D02*
G01*
X2280580Y895180D01*
X2286040Y896260D01*
X2291340Y898060D01*
X2296340Y900520D01*
X2300980Y903640D01*
X2305180Y907320D01*
X2308860Y911520D01*
X2311980Y916160D01*
X2314440Y921160D01*
X2316240Y926460D01*
X2317320Y931919D01*
X2317700Y937500D01*
X2317320Y943080D01*
X2316240Y948540D01*
X2314440Y953840D01*
X2311980Y958840D01*
X2308860Y963480D01*
X2305180Y967680D01*
X2300980Y971360D01*
X2296340Y974479D01*
X2291340Y976940D01*
X2286040Y978740D01*
X2280580Y979820D01*
X2275000Y980200D01*
X2269420Y979820D01*
X2263960Y978740D01*
X2258660Y976940D01*
X2253660Y974479D01*
X2249020Y971360D01*
X2244820Y967680D01*
X2241140Y963480D01*
X2238020Y958840D01*
X2235560Y953840D01*
X2233760Y948540D01*
X2232680Y943080D01*
X2232300Y937500D01*
X2232680Y931919D01*
X2233760Y926460D01*
X2235560Y921160D01*
X2238020Y916160D01*
X2241140Y911520D01*
X2244820Y907320D01*
X2249020Y903640D01*
X2253660Y900520D01*
X2258660Y898060D01*
X2263960Y896260D01*
X2269420Y895180D01*
G37*
G36*
X2575000Y894800D02*
G01*
X2580580Y895180D01*
X2586040Y896260D01*
X2591340Y898060D01*
X2596340Y900520D01*
X2600980Y903640D01*
X2605179Y907320D01*
X2608860Y911520D01*
X2611980Y916160D01*
X2614440Y921160D01*
X2616240Y926460D01*
X2617320Y931919D01*
X2617700Y937500D01*
X2617320Y943080D01*
X2616240Y948540D01*
X2614440Y953840D01*
X2611980Y958840D01*
X2608860Y963480D01*
X2606200Y966540D01*
X2605460Y967760D01*
X2605200Y969180D01*
X2605179Y997920D01*
X2604840Y1001440D01*
X2604680Y1002420D01*
X2603840Y1005840D01*
X2602180Y1010040D01*
X2601740Y1010920D01*
X2599340Y1014740D01*
X2597080Y1017460D01*
X2506380Y1108200D01*
X2505520Y1109500D01*
X2505220Y1111040D01*
X2505220Y1117300D01*
X2505540Y1118880D01*
X2506480Y1120200D01*
X2508260Y1121900D01*
X2511920Y1126300D01*
X2514980Y1131140D01*
X2517420Y1136320D01*
X2519200Y1141780D01*
X2520280Y1147400D01*
X2520640Y1153120D01*
X2520280Y1158840D01*
X2519200Y1164480D01*
X2517420Y1169920D01*
X2514980Y1175100D01*
X2511920Y1179940D01*
X2508080Y1184540D01*
X2507160Y1185840D01*
X2506820Y1187380D01*
X2507100Y1188960D01*
X2507980Y1190280D01*
X2545740Y1228020D01*
X2547040Y1228900D01*
X2548560Y1229200D01*
X2629120Y1229220D01*
X2632679Y1229540D01*
X2633600Y1229700D01*
X2637080Y1230560D01*
X2637980Y1230860D01*
X2641280Y1232220D01*
X2645179Y1234500D01*
X2645940Y1235040D01*
X2648700Y1237320D01*
X2697080Y1285600D01*
X2699320Y1288300D01*
X2699900Y1289120D01*
X2701720Y1292120D01*
X2702180Y1293040D01*
X2703519Y1296260D01*
X2703840Y1297240D01*
X2704680Y1300620D01*
X2705419Y1307180D01*
X2706160Y1308420D01*
X2708860Y1311519D01*
X2711980Y1316160D01*
X2714440Y1321160D01*
X2716240Y1326459D01*
X2717320Y1331920D01*
X2717700Y1337500D01*
X2717320Y1343080D01*
X2716240Y1348540D01*
X2714440Y1353839D01*
X2711980Y1358839D01*
X2708860Y1363480D01*
X2705179Y1367680D01*
X2700980Y1371360D01*
X2696340Y1374480D01*
X2691340Y1376940D01*
X2686040Y1378740D01*
X2680580Y1379820D01*
X2675000Y1380200D01*
X2669420Y1379820D01*
X2663960Y1378740D01*
X2658660Y1376940D01*
X2653660Y1374480D01*
X2649020Y1371360D01*
X2644820Y1367680D01*
X2641139Y1363480D01*
X2638020Y1358839D01*
X2635560Y1353839D01*
X2633759Y1348540D01*
X2632679Y1343080D01*
X2632300Y1337500D01*
X2632679Y1331920D01*
X2633759Y1326459D01*
X2635560Y1321160D01*
X2638140Y1315920D01*
X2638560Y1314319D01*
X2638279Y1312700D01*
X2637380Y1311320D01*
X2616780Y1290760D01*
X2615480Y1289900D01*
X2613960Y1289600D01*
X2533340Y1289580D01*
X2529820Y1289240D01*
X2528860Y1289079D01*
X2525420Y1288240D01*
X2521220Y1286579D01*
X2520360Y1286140D01*
X2517320Y1284300D01*
X2516520Y1283740D01*
X2513800Y1281480D01*
X2452920Y1220600D01*
X2450660Y1217880D01*
X2450100Y1217080D01*
X2448280Y1214060D01*
X2447840Y1213180D01*
X2446480Y1209920D01*
X2445320Y1205560D01*
X2445160Y1204580D01*
X2444840Y1201060D01*
X2444820Y1188960D01*
X2444480Y1187380D01*
X2443540Y1186060D01*
X2441740Y1184360D01*
X2438100Y1179940D01*
X2435020Y1175100D01*
X2432580Y1169920D01*
X2430820Y1164480D01*
X2429720Y1158740D01*
X2429120Y1157280D01*
X2428020Y1156160D01*
X2426580Y1155560D01*
X2425000Y1155560D01*
X2423560Y1156160D01*
X2422460Y1157280D01*
X2421860Y1158740D01*
X2420760Y1164480D01*
X2419000Y1169920D01*
X2416560Y1175100D01*
X2413480Y1179940D01*
X2409840Y1184360D01*
X2405660Y1188280D01*
X2401020Y1191640D01*
X2396000Y1194400D01*
X2390680Y1196520D01*
X2385120Y1197940D01*
X2379440Y1198660D01*
X2373720Y1198660D01*
X2368020Y1197940D01*
X2362480Y1196520D01*
X2357140Y1194400D01*
X2352120Y1191640D01*
X2347500Y1188280D01*
X2343320Y1184360D01*
X2339660Y1179940D01*
X2336600Y1175100D01*
X2334160Y1169920D01*
X2332380Y1164480D01*
X2331300Y1158840D01*
X2330940Y1153120D01*
X2331300Y1147400D01*
X2332380Y1141780D01*
X2334160Y1136320D01*
X2336600Y1131140D01*
X2339660Y1126300D01*
X2343320Y1121900D01*
X2347500Y1117980D01*
X2352120Y1114600D01*
X2357140Y1111840D01*
X2362480Y1109740D01*
X2368020Y1108300D01*
X2373720Y1107580D01*
X2379440Y1107580D01*
X2385120Y1108300D01*
X2390680Y1109740D01*
X2396000Y1111840D01*
X2401020Y1114600D01*
X2405660Y1117980D01*
X2409840Y1121900D01*
X2413480Y1126300D01*
X2416560Y1131140D01*
X2419000Y1136320D01*
X2420760Y1141780D01*
X2421860Y1147520D01*
X2422460Y1148960D01*
X2423560Y1150080D01*
X2425000Y1150680D01*
X2426580Y1150680D01*
X2428020Y1150080D01*
X2429120Y1148960D01*
X2429720Y1147520D01*
X2430820Y1141780D01*
X2432580Y1136320D01*
X2435020Y1131140D01*
X2438100Y1126300D01*
X2441740Y1121900D01*
X2443540Y1120200D01*
X2444480Y1118880D01*
X2444820Y1117280D01*
X2444820Y1104760D01*
X2444500Y1103220D01*
X2443640Y1101920D01*
X2419960Y1078240D01*
X2418660Y1077380D01*
X2417140Y1077080D01*
X2129800Y1077080D01*
X2128260Y1077380D01*
X2126960Y1078240D01*
X2118760Y1086460D01*
X2117940Y1087640D01*
X2117600Y1089020D01*
X2117320Y1093080D01*
X2116240Y1098540D01*
X2114440Y1103840D01*
X2111980Y1108840D01*
X2108860Y1113480D01*
X2105180Y1117680D01*
X2100980Y1121360D01*
X2096339Y1124480D01*
X2091339Y1126940D01*
X2086040Y1128740D01*
X2080580Y1129820D01*
X2075000Y1130200D01*
X2069420Y1129820D01*
X2063959Y1128740D01*
X2058660Y1126940D01*
X2053660Y1124480D01*
X2049019Y1121360D01*
X2044820Y1117680D01*
X2041140Y1113480D01*
X2038020Y1108840D01*
X2035560Y1103840D01*
X2033760Y1098540D01*
X2032680Y1093080D01*
X2032300Y1087500D01*
X2032680Y1081920D01*
X2033760Y1076460D01*
X2035560Y1071160D01*
X2038020Y1066160D01*
X2041140Y1061520D01*
X2044820Y1057320D01*
X2049019Y1053640D01*
X2053660Y1050520D01*
X2058660Y1048060D01*
X2063959Y1046260D01*
X2069420Y1045180D01*
X2073480Y1044900D01*
X2074860Y1044560D01*
X2076040Y1043740D01*
X2095040Y1024780D01*
X2098560Y1021960D01*
X2101580Y1020140D01*
X2102460Y1019700D01*
X2105720Y1018340D01*
X2110080Y1017180D01*
X2111060Y1017020D01*
X2114580Y1016700D01*
X2432360Y1016700D01*
X2435880Y1017020D01*
X2436840Y1017180D01*
X2440280Y1018040D01*
X2441200Y1018340D01*
X2444460Y1019700D01*
X2445340Y1020140D01*
X2448380Y1021960D01*
X2451900Y1024780D01*
X2475320Y1048180D01*
X2476620Y1049060D01*
X2478140Y1049360D01*
X2479680Y1049060D01*
X2480980Y1048180D01*
X2543620Y985540D01*
X2544500Y984240D01*
X2544800Y982700D01*
X2544800Y969180D01*
X2544540Y967760D01*
X2543800Y966540D01*
X2541140Y963480D01*
X2538020Y958840D01*
X2535560Y953840D01*
X2533760Y948540D01*
X2532680Y943080D01*
X2532300Y937500D01*
X2532680Y931919D01*
X2533760Y926460D01*
X2535560Y921160D01*
X2538020Y916160D01*
X2541140Y911520D01*
X2544820Y907320D01*
X2549020Y903640D01*
X2553660Y900520D01*
X2558660Y898060D01*
X2563960Y896260D01*
X2569420Y895180D01*
G37*
G36*
X2656259Y899240D02*
G01*
X2656259Y918740D01*
X2636740Y918740D01*
X2638020Y916160D01*
X2641139Y911520D01*
X2644820Y907320D01*
X2649020Y903640D01*
X2653660Y900520D01*
G37*
G36*
X2393760Y899240D02*
G01*
X2396340Y900520D01*
X2400980Y903640D01*
X2405180Y907320D01*
X2408860Y911520D01*
X2411980Y916160D01*
X2413260Y918740D01*
X2393760Y918740D01*
G37*
G36*
X2356260Y899240D02*
G01*
X2356260Y918740D01*
X2336740Y918740D01*
X2338020Y916160D01*
X2341140Y911520D01*
X2344820Y907320D01*
X2349020Y903640D01*
X2353660Y900520D01*
G37*
G36*
X2693759Y899240D02*
G01*
X2696340Y900520D01*
X2700980Y903640D01*
X2705179Y907320D01*
X2708860Y911520D01*
X2711980Y916160D01*
X2713260Y918740D01*
X2693759Y918740D01*
G37*
G36*
X2393760Y956240D02*
G01*
X2413260Y956240D01*
X2411980Y958840D01*
X2408860Y963480D01*
X2405180Y967680D01*
X2400980Y971360D01*
X2396340Y974479D01*
X2393760Y975759D01*
G37*
G36*
X2636740Y956240D02*
G01*
X2656259Y956240D01*
X2656259Y975759D01*
X2653660Y974479D01*
X2649020Y971360D01*
X2644820Y967680D01*
X2641139Y963480D01*
X2638020Y958840D01*
G37*
G36*
X2336740Y956240D02*
G01*
X2356260Y956240D01*
X2356260Y975759D01*
X2353660Y974479D01*
X2349020Y971360D01*
X2344820Y967680D01*
X2341140Y963480D01*
X2338020Y958840D01*
G37*
G36*
X2693759Y956240D02*
G01*
X2713260Y956240D01*
X2711980Y958840D01*
X2708860Y963480D01*
X2705179Y967680D01*
X2700980Y971360D01*
X2696340Y974479D01*
X2693759Y975759D01*
G37*
G36*
X2875000Y1044800D02*
G01*
X2880580Y1045180D01*
X2886040Y1046260D01*
X2891340Y1048060D01*
X2896340Y1050520D01*
X2900980Y1053640D01*
X2905179Y1057320D01*
X2908860Y1061520D01*
X2911980Y1066160D01*
X2914440Y1071160D01*
X2916240Y1076460D01*
X2917320Y1081920D01*
X2917700Y1087500D01*
X2917320Y1093080D01*
X2916240Y1098540D01*
X2914440Y1103840D01*
X2911980Y1108840D01*
X2908860Y1113480D01*
X2905179Y1117680D01*
X2900980Y1121360D01*
X2896340Y1124480D01*
X2891340Y1126940D01*
X2886040Y1128740D01*
X2880580Y1129820D01*
X2875000Y1130200D01*
X2869420Y1129820D01*
X2863960Y1128740D01*
X2858660Y1126940D01*
X2853660Y1124480D01*
X2849020Y1121360D01*
X2844820Y1117680D01*
X2841139Y1113480D01*
X2838020Y1108840D01*
X2835560Y1103840D01*
X2833759Y1098540D01*
X2832679Y1093080D01*
X2832300Y1087500D01*
X2832679Y1081920D01*
X2833759Y1076460D01*
X2835560Y1071160D01*
X2838020Y1066160D01*
X2841139Y1061520D01*
X2844820Y1057320D01*
X2849020Y1053640D01*
X2853660Y1050520D01*
X2858660Y1048060D01*
X2863960Y1046260D01*
X2869420Y1045180D01*
G37*
G36*
X2538220Y1107500D02*
G01*
X2553200Y1107500D01*
X2553200Y1132900D01*
X2527800Y1132900D01*
X2527800Y1117920D01*
X2528080Y1115420D01*
X2528820Y1113280D01*
X2530040Y1111340D01*
X2531640Y1109740D01*
X2533580Y1108520D01*
X2535720Y1107780D01*
G37*
G36*
X2593639Y1107500D02*
G01*
X2608639Y1107500D01*
X2611120Y1107780D01*
X2613279Y1108520D01*
X2615200Y1109740D01*
X2616820Y1111340D01*
X2618020Y1113280D01*
X2618780Y1115420D01*
X2619060Y1117920D01*
X2619060Y1132900D01*
X2593639Y1132900D01*
G37*
G36*
X2893759Y1149240D02*
G01*
X2896340Y1150520D01*
X2900980Y1153640D01*
X2905179Y1157320D01*
X2908860Y1161520D01*
X2911980Y1166160D01*
X2913260Y1168740D01*
X2893759Y1168740D01*
G37*
G36*
X2856259Y1149240D02*
G01*
X2856259Y1168740D01*
X2836740Y1168740D01*
X2838020Y1166160D01*
X2841139Y1161520D01*
X2844820Y1157320D01*
X2849020Y1153640D01*
X2853660Y1150520D01*
G37*
G36*
X2093760Y1149240D02*
G01*
X2096339Y1150520D01*
X2100980Y1153640D01*
X2105180Y1157320D01*
X2108860Y1161520D01*
X2111980Y1166160D01*
X2113260Y1168740D01*
X2093760Y1168740D01*
G37*
G36*
X2056260Y1149240D02*
G01*
X2056260Y1168740D01*
X2036740Y1168740D01*
X2038020Y1166160D01*
X2041140Y1161520D01*
X2044820Y1157320D01*
X2049019Y1153640D01*
X2053660Y1150520D01*
G37*
G36*
X2593639Y1173340D02*
G01*
X2619060Y1173340D01*
X2619060Y1188340D01*
X2618780Y1190820D01*
X2618020Y1192980D01*
X2616820Y1194900D01*
X2615200Y1196520D01*
X2613279Y1197720D01*
X2611120Y1198480D01*
X2608639Y1198760D01*
X2593639Y1198760D01*
G37*
G36*
X2527800Y1173340D02*
G01*
X2553200Y1173340D01*
X2553200Y1198760D01*
X2538220Y1198760D01*
X2535720Y1198480D01*
X2533580Y1197720D01*
X2531640Y1196520D01*
X2530040Y1194900D01*
X2528820Y1192980D01*
X2528080Y1190820D01*
X2527800Y1188340D01*
G37*
G36*
X2036740Y1206240D02*
G01*
X2056260Y1206240D01*
X2056260Y1225760D01*
X2053660Y1224480D01*
X2049019Y1221360D01*
X2044820Y1217680D01*
X2041140Y1213480D01*
X2038020Y1208840D01*
G37*
G36*
X2893759Y1206240D02*
G01*
X2913260Y1206240D01*
X2911980Y1208840D01*
X2908860Y1213480D01*
X2905179Y1217680D01*
X2900980Y1221360D01*
X2896340Y1224480D01*
X2893759Y1225760D01*
G37*
G36*
X2836740Y1206240D02*
G01*
X2856259Y1206240D01*
X2856259Y1225760D01*
X2853660Y1224480D01*
X2849020Y1221360D01*
X2844820Y1217680D01*
X2841139Y1213480D01*
X2838020Y1208840D01*
G37*
G36*
X2093760Y1206240D02*
G01*
X2113260Y1206240D01*
X2111980Y1208840D01*
X2108860Y1213480D01*
X2105180Y1217680D01*
X2100980Y1221360D01*
X2096339Y1224480D01*
X2093760Y1225760D01*
G37*
G36*
X2275000Y1294800D02*
G01*
X2280580Y1295180D01*
X2286040Y1296260D01*
X2291340Y1298060D01*
X2296340Y1300520D01*
X2300980Y1303640D01*
X2305180Y1307320D01*
X2308860Y1311519D01*
X2311980Y1316160D01*
X2314440Y1321160D01*
X2316240Y1326459D01*
X2317320Y1331920D01*
X2317700Y1337500D01*
X2317320Y1343080D01*
X2316240Y1348540D01*
X2314440Y1353839D01*
X2311980Y1358839D01*
X2308860Y1363480D01*
X2305180Y1367680D01*
X2300980Y1371360D01*
X2296340Y1374480D01*
X2291340Y1376940D01*
X2286040Y1378740D01*
X2280580Y1379820D01*
X2275000Y1380200D01*
X2269420Y1379820D01*
X2263960Y1378740D01*
X2258660Y1376940D01*
X2253660Y1374480D01*
X2249020Y1371360D01*
X2244820Y1367680D01*
X2241140Y1363480D01*
X2238020Y1358839D01*
X2235560Y1353839D01*
X2233760Y1348540D01*
X2232680Y1343080D01*
X2232300Y1337500D01*
X2232680Y1331920D01*
X2233760Y1326459D01*
X2235560Y1321160D01*
X2238020Y1316160D01*
X2241140Y1311519D01*
X2244820Y1307320D01*
X2249020Y1303640D01*
X2253660Y1300520D01*
X2258660Y1298060D01*
X2263960Y1296260D01*
X2269420Y1295180D01*
G37*
G36*
X2593759Y1299240D02*
G01*
X2596340Y1300520D01*
X2600980Y1303640D01*
X2605179Y1307320D01*
X2608860Y1311519D01*
X2611980Y1316160D01*
X2613260Y1318740D01*
X2593759Y1318740D01*
G37*
G36*
X2356260Y1299240D02*
G01*
X2356260Y1318740D01*
X2336740Y1318740D01*
X2338020Y1316160D01*
X2341140Y1311519D01*
X2344820Y1307320D01*
X2349020Y1303640D01*
X2353660Y1300520D01*
G37*
G36*
X2556260Y1299240D02*
G01*
X2556260Y1318740D01*
X2536740Y1318740D01*
X2538020Y1316160D01*
X2541140Y1311519D01*
X2544820Y1307320D01*
X2549020Y1303640D01*
X2553660Y1300520D01*
G37*
G36*
X2393760Y1299240D02*
G01*
X2396340Y1300520D01*
X2400980Y1303640D01*
X2405180Y1307320D01*
X2408860Y1311519D01*
X2411980Y1316160D01*
X2413260Y1318740D01*
X2393760Y1318740D01*
G37*
G36*
X2593759Y1356240D02*
G01*
X2613260Y1356240D01*
X2611980Y1358839D01*
X2608860Y1363480D01*
X2605179Y1367680D01*
X2600980Y1371360D01*
X2596340Y1374480D01*
X2593759Y1375760D01*
G37*
G36*
X2336740Y1356240D02*
G01*
X2356260Y1356240D01*
X2356260Y1375760D01*
X2353660Y1374480D01*
X2349020Y1371360D01*
X2344820Y1367680D01*
X2341140Y1363480D01*
X2338020Y1358839D01*
G37*
G36*
X2536740Y1356240D02*
G01*
X2556260Y1356240D01*
X2556260Y1375760D01*
X2553660Y1374480D01*
X2549020Y1371360D01*
X2544820Y1367680D01*
X2541140Y1363480D01*
X2538020Y1358839D01*
G37*
G36*
X2393760Y1356240D02*
G01*
X2413260Y1356240D01*
X2411980Y1358839D01*
X2408860Y1363480D01*
X2405180Y1367680D01*
X2400980Y1371360D01*
X2396340Y1374480D01*
X2393760Y1375760D01*
G37*

%LPD*%
G36*
X571880Y818760D02*
G01*
X571880Y731260D01*
X603120Y768760D01*
X603120Y781260D01*
G37*
G36*
X621840Y337520D02*
G01*
X621840Y318780D01*
X646840Y318780D01*
G37*
G36*
X590600Y409400D02*
G01*
X574980Y368780D01*
X590600Y368780D01*
G37*
G36*
X571880Y471880D02*
G01*
X571880Y384380D01*
X603120Y421880D01*
X603120Y434380D01*
G37*
G36*
X571880Y587500D02*
G01*
X571880Y500000D01*
X603120Y537500D01*
X603120Y550000D01*
G37*
G36*
X571880Y706260D02*
G01*
X571880Y618760D01*
X603120Y656260D01*
X603120Y668760D01*
G37*
D11*
X856300Y1278099D02*
G01*
X753200Y1278099D01*
X706300Y1325000D01*
X521100Y1325000D01*
X505502Y1309402D01*
X474324Y1309402D01*
X209400Y1134400D02*
G01*
X209400Y1193800D01*
X368699Y1353099D01*
X381999Y1353099D01*
X209380Y1034369D02*
G01*
X284369Y1109360D01*
X284369Y1190619D01*
X365619Y1271869D01*
X381959Y1271869D01*
D12*
X109400Y1034400D02*
G01*
X93800Y1034400D01*
X37500Y1090599D01*
X37500Y1306199D01*
X106300Y1375000D01*
X237500Y1375000D01*
X312500Y1450000D01*
X784399Y1450000D01*
X856300Y1378099D01*
D11*
X474324Y1271900D02*
G01*
X474324Y1353099D01*
X1250000Y1765625D02*
G01*
X1325000Y1765625D01*
X1375000Y1815625D01*
X1525000Y1815625D01*
X1575000Y1765625D01*
X2000000Y1765625D01*
X2000000Y1765625D02*
G01*
X2425000Y1765625D01*
X2475000Y1815625D01*
X2800000Y1815625D01*
X2850000Y1765625D01*
D12*
X1150000Y1865625D02*
G01*
X2850000Y1865625D01*
D11*
X2550000Y2058099D02*
G01*
X2625000Y2058099D01*
X2673100Y2106199D01*
X2801899Y2106199D01*
X2850000Y2058099D01*
X1450000Y2058099D02*
G01*
X1875000Y2058099D01*
X1923100Y2106199D01*
X2076899Y2106199D01*
X2125000Y2058099D01*
X2550000Y2058099D01*
X393750Y998411D02*
G01*
X395390Y996770D01*
X498130Y996770D01*
X475010Y1103688D02*
G01*
X475010Y1090630D01*
X443750Y1059369D01*
X918750Y654659D02*
G01*
X973400Y654659D01*
X1053119Y734380D01*
X918750Y214029D02*
G01*
X973469Y214029D01*
X1053119Y134380D01*
X1053119Y434380D02*
G01*
X979650Y360909D01*
X918750Y360909D01*
D12*
X680000Y256250D02*
G01*
X745630Y190619D01*
X763760Y190619D01*
X680000Y371869D02*
G01*
X726260Y371869D01*
X763760Y334369D01*
X680000Y487500D02*
G01*
X760630Y487500D01*
X763760Y484369D01*
X680000Y603119D02*
G01*
X735630Y603119D01*
X763760Y631250D01*
D13*
X918750Y301588D02*
G01*
X914130Y296970D01*
X842500Y296970D01*
X918750Y154708D02*
G01*
X917260Y153220D01*
X842500Y153220D01*
D11*
X393760Y1098469D02*
G01*
X393760Y998420D01*
X393750Y998409D01*
D13*
X842500Y593850D02*
G01*
X843989Y595338D01*
X918750Y595338D01*
X842500Y740720D02*
G01*
X842500Y740720D01*
X851869Y740720D01*
X851869Y740720D01*
X853359Y742208D01*
X918750Y742208D01*
D11*
X918750Y507779D02*
G01*
X1014025Y507779D01*
X1040625Y534380D01*
X1053119Y534380D01*
D13*
X1245288Y1196869D02*
G01*
X1245288Y1129711D01*
X1275000Y1100000D01*
D10*
X355000Y2095338D02*
G01*
X355000Y2003200D01*
X427402Y1930801D01*
X390000Y2029198D02*
G01*
X424540Y1994661D01*
X510000Y1994661D01*
X524198Y1762600D02*
G01*
X531938Y1770338D01*
X595000Y1770338D01*
X352597Y1930801D02*
G01*
X433402Y1850000D01*
X455000Y1850000D01*
X480000Y1825000D01*
X480000Y1800000D01*
X480000Y1800000D02*
G01*
X517402Y1762600D01*
X524198Y1762600D01*
D14*
X595000Y2095338D02*
G01*
X595336Y2095000D01*
X705000Y2095000D01*
D10*
X355000Y2095338D02*
G01*
X356332Y2094009D01*
X432597Y2094009D01*
D14*
X507402Y2094009D02*
G01*
X508730Y2095338D01*
X595000Y2095338D01*
D10*
X524198Y1837399D02*
G01*
X524198Y1864538D01*
X595000Y1935338D01*
X595000Y1829661D02*
G01*
X640000Y1874661D01*
X640000Y2095000D01*
X425801Y1800000D02*
G01*
X423364Y1802438D01*
X355000Y1802438D01*
D14*
X355000Y2154661D02*
G01*
X376332Y2175990D01*
X470000Y2175990D01*
D10*
X125000Y1800000D02*
G01*
X250000Y1800000D01*
X255000Y1795000D01*
X355000Y1802438D02*
G01*
X262440Y1802438D01*
X255000Y1795000D01*
D14*
X255000Y2155000D02*
G01*
X355000Y2154661D01*
D10*
X125000Y1900000D02*
G01*
X250000Y1900000D01*
X280801Y1930801D01*
X352597Y1930801D01*
D14*
X125000Y2150000D02*
G01*
X250000Y2150000D01*
X255000Y2155000D01*
D11*
X475005Y1158809D02*
G01*
X394785Y1158809D01*
X393755Y1157779D01*
X556250Y1262500D02*
G01*
X643798Y1262500D01*
X728179Y1178119D01*
X856250Y1178119D01*
X856250Y1178119D02*
G01*
X883810Y1205680D01*
X931250Y1205680D01*
X856250Y1278119D02*
G01*
X895339Y1317210D01*
X931250Y1317210D01*
X475010Y1158811D02*
G01*
X536941Y1158811D01*
X556250Y1178119D01*
X856250Y1078119D02*
G01*
X856819Y1077550D01*
X931250Y1077550D01*
X576869Y959369D02*
G01*
X576869Y962310D01*
X576961Y962399D01*
X842500Y962399D01*
D12*
X680000Y718750D02*
G01*
X704389Y718750D01*
X763760Y778119D01*
X680000Y834375D02*
G01*
X680000Y841239D01*
X763760Y925000D01*
D13*
X842500Y446970D02*
G01*
X843994Y448463D01*
X918750Y448463D01*
X842494Y887600D02*
G01*
X842500Y887600D01*
X842500Y887600D01*
X848750Y887600D01*
X850239Y889088D01*
X918750Y889088D01*
D11*
X918800Y948400D02*
G01*
X948500Y948400D01*
X1012500Y884400D01*
X1090600Y884400D01*
X1318800Y656199D01*
X1318800Y568699D01*
X1653100Y234400D01*
D12*
X209380Y687500D02*
G01*
X288750Y687500D01*
X320000Y718750D01*
X209375Y787500D02*
G01*
X273125Y787500D01*
X320000Y834375D01*
X320000Y603119D02*
G01*
X304380Y587500D01*
X209380Y587500D01*
X209380Y487500D02*
G01*
X320000Y487500D01*
D11*
X209400Y934400D02*
G01*
X209400Y946900D01*
X334400Y1071900D01*
X334400Y1171900D01*
X375000Y1212500D01*
X490599Y1212500D01*
X556300Y1278099D01*
D12*
X120030Y1278119D02*
G01*
X109375Y1267465D01*
X109375Y1134375D01*
D13*
X931250Y1022438D02*
G01*
X881818Y1022438D01*
X881250Y1021869D01*
D12*
X109380Y140619D02*
G01*
X204369Y140619D01*
X320000Y256250D01*
X109380Y240619D02*
G01*
X165619Y240619D01*
X296898Y371898D01*
X320000Y371898D01*
X573726Y378101D02*
G01*
X576869Y381244D01*
X576869Y959369D01*
D13*
X575000Y378125D02*
G01*
X575000Y371925D01*
X625000Y321925D01*
X1246880Y1257840D02*
G01*
X1245282Y1256242D01*
X1245282Y1196875D01*
X1185959Y1196860D02*
G01*
X1148450Y1234369D01*
X1053119Y1234369D01*
X1053119Y1134380D02*
G01*
X1115619Y1134380D01*
X1250000Y1000000D01*
X1275000Y1000000D01*
X978130Y1150000D02*
G01*
X931819Y1150000D01*
X931250Y1150569D01*
X1275000Y800000D02*
G01*
X1343750Y800000D01*
X1496850Y953101D01*
X1634399Y953101D01*
X1653100Y934398D01*
D12*
X109375Y934375D02*
G01*
X109398Y340619D01*
X109380Y340619D01*
X856250Y1378125D02*
G01*
X857844Y1376529D01*
X931250Y1376529D01*
X931250Y1376529D02*
G01*
X1510969Y1376529D01*
X1653119Y1234380D01*
D13*
X1187500Y1318750D02*
G01*
X1189089Y1317159D01*
X1246875Y1317159D01*
D12*
X443750Y921869D02*
G01*
X443850Y921970D01*
X498130Y921970D01*
D11*
X628123Y315626D02*
G01*
X624998Y321876D01*
X842500Y228020D02*
G01*
X803181Y228020D01*
X715601Y315601D01*
X628125Y315625D01*
X842500Y371770D02*
G01*
X821931Y371770D01*
X765600Y428101D01*
X573798Y428101D01*
X842500Y521770D02*
G01*
X815631Y521770D01*
X793701Y543701D01*
X581298Y543701D01*
X575000Y550000D01*
X842500Y668649D02*
G01*
X723350Y668649D01*
X717199Y662500D01*
X573755Y662500D01*
X842500Y815520D02*
G01*
X740520Y815520D01*
X700000Y775000D01*
X575000Y775000D01*
D12*
X393755Y939079D02*
G01*
X392164Y937489D01*
X340630Y937489D01*
X109380Y1034369D02*
G01*
X109380Y921880D01*
X109375Y921875D01*
D11*
X1653100Y134299D02*
G01*
X1243800Y543600D01*
X1243800Y634299D01*
X1093699Y784299D01*
X1009300Y784299D01*
X992100Y801500D01*
X918800Y801500D01*
X1250000Y2058125D02*
G01*
X1450000Y2058125D01*
D12*
X1150000Y2158125D02*
G01*
X2850000Y2158125D01*
D15*
X2106250Y393750D02*
G01*
X2319354Y393750D01*
X2328130Y384976D01*
X2106250Y293750D02*
G01*
X2315604Y293750D01*
X2328130Y306273D01*
X2818750Y393750D02*
G01*
X3031229Y393750D01*
X3040630Y384351D01*
X2818750Y293750D02*
G01*
X3028729Y293750D01*
X3040630Y305648D01*
X2675000Y1337500D02*
G01*
X2675000Y1306201D01*
X2628100Y1259398D01*
X2534399Y1259398D01*
X2475010Y1200010D01*
X2475010Y1153119D01*
X2575000Y937500D02*
G01*
X2575000Y996875D01*
X2475010Y1096864D01*
X2475010Y1153119D01*
X2475010Y1153119D02*
G01*
X2475010Y1090585D01*
X2431298Y1046875D01*
X2115625Y1046875D01*
X2075000Y1087500D01*
G36*
X901791Y170619D02*
G01*
X935807Y170619D01*
X935807Y138868D01*
X901791Y138868D01*
G37*
D17*
G01*
X918800Y214059D03*
G36*
X901791Y317420D02*
G01*
X935807Y317420D01*
X935807Y285668D01*
X901791Y285668D01*
G37*
G01*
X918800Y360859D03*
G36*
X901791Y464319D02*
G01*
X935807Y464319D01*
X935807Y432568D01*
X901791Y432568D01*
G37*
G01*
X918800Y507759D03*
G36*
X901791Y611219D02*
G01*
X935807Y611219D01*
X935807Y579468D01*
X901791Y579468D01*
G37*
G01*
X918800Y654659D03*
G36*
X901791Y758119D02*
G01*
X935807Y758119D01*
X935807Y726368D01*
X901791Y726368D01*
G37*
G01*
X918800Y801559D03*
G36*
X901791Y904920D02*
G01*
X935807Y904920D01*
X935807Y873168D01*
X901791Y873168D01*
G37*
G01*
X918800Y948359D03*
D18*
G01*
X498130Y996799D03*
G01*
X498130Y921999D03*
G01*
X576869Y959400D03*
G36*
X817863Y166979D02*
G01*
X867075Y166979D01*
X867075Y139420D01*
X817863Y139420D01*
G37*
G36*
X817863Y241779D02*
G01*
X867075Y241779D01*
X867075Y214220D01*
X817863Y214220D01*
G37*
G36*
X739124Y204378D02*
G01*
X788335Y204378D01*
X788335Y176819D01*
X739124Y176819D01*
G37*
G36*
X817863Y310779D02*
G01*
X867075Y310779D01*
X867075Y283220D01*
X817863Y283220D01*
G37*
G36*
X817863Y385578D02*
G01*
X867075Y385578D01*
X867075Y358020D01*
X817863Y358020D01*
G37*
G36*
X739124Y348179D02*
G01*
X788335Y348179D01*
X788335Y320619D01*
X739124Y320619D01*
G37*
G36*
X817863Y460779D02*
G01*
X867075Y460779D01*
X867075Y433220D01*
X817863Y433220D01*
G37*
G36*
X817863Y535578D02*
G01*
X867075Y535578D01*
X867075Y508020D01*
X817863Y508020D01*
G37*
G36*
X739124Y498179D02*
G01*
X788335Y498179D01*
X788335Y470619D01*
X739124Y470619D01*
G37*
G36*
X817863Y607579D02*
G01*
X867075Y607579D01*
X867075Y580019D01*
X817863Y580019D01*
G37*
G36*
X817863Y682379D02*
G01*
X867075Y682379D01*
X867075Y654819D01*
X817863Y654819D01*
G37*
G36*
X739124Y644978D02*
G01*
X788335Y644978D01*
X788335Y617420D01*
X739124Y617420D01*
G37*
G36*
X817863Y754479D02*
G01*
X867075Y754479D01*
X867075Y726920D01*
X817863Y726920D01*
G37*
G36*
X817863Y829279D02*
G01*
X867075Y829279D01*
X867075Y801720D01*
X817863Y801720D01*
G37*
G36*
X739124Y791878D02*
G01*
X788335Y791878D01*
X788335Y764319D01*
X739124Y764319D01*
G37*
G36*
X817863Y901379D02*
G01*
X867075Y901379D01*
X867075Y873820D01*
X817863Y873820D01*
G37*
G36*
X817863Y976179D02*
G01*
X867075Y976179D01*
X867075Y948620D01*
X817863Y948620D01*
G37*
G36*
X739124Y938778D02*
G01*
X788335Y938778D01*
X788335Y911219D01*
X739124Y911219D01*
G37*
G36*
X376741Y954969D02*
G01*
X410758Y954969D01*
X410758Y923218D01*
X376741Y923218D01*
G37*
D17*
G01*
X393750Y998409D03*
G36*
X1229404Y1179866D02*
G01*
X1229404Y1213883D01*
X1261156Y1213883D01*
X1261156Y1179866D01*
G37*
G36*
X1201845Y1179866D02*
G01*
X1201845Y1213883D01*
X1170093Y1213883D01*
X1170093Y1179866D01*
G37*
G36*
X1229867Y1273719D02*
G01*
X1263882Y1273719D01*
X1263882Y1241968D01*
X1229867Y1241968D01*
G37*
G01*
X1246880Y1317159D03*
G36*
X577991Y1951219D02*
G01*
X612008Y1951219D01*
X612008Y1919468D01*
X577991Y1919468D01*
G37*
G01*
X595000Y1994659D03*
G36*
X527008Y1978780D02*
G01*
X492991Y1978780D01*
X492991Y2010531D01*
X527008Y2010531D01*
G37*
G01*
X510000Y1935340D03*
G36*
X577991Y2111219D02*
G01*
X612008Y2111219D01*
X612008Y2079468D01*
X577991Y2079468D01*
G37*
G01*
X595000Y2154659D03*
G36*
X372008Y2138780D02*
G01*
X337991Y2138780D01*
X337991Y2170531D01*
X372008Y2170531D01*
G37*
G01*
X355000Y2095340D03*
G36*
X612008Y1813780D02*
G01*
X577991Y1813780D01*
X577991Y1845531D01*
X612008Y1845531D01*
G37*
G01*
X595000Y1770340D03*
D20*
G01*
X355000Y1802440D03*
G01*
X355000Y1857559D03*
D18*
G01*
X425799Y1800000D03*
G01*
X524200Y1837399D03*
G01*
X524200Y1762600D03*
D21*
G01*
X390000Y2029200D03*
G01*
X427399Y1930799D03*
G01*
X352600Y1930799D03*
D22*
G01*
X432600Y2094009D03*
G01*
X507399Y2094009D03*
G01*
X470000Y2175990D03*
G36*
X410758Y1141905D02*
G01*
X376741Y1141905D01*
X376741Y1173656D01*
X410758Y1173656D01*
G37*
D17*
G01*
X393750Y1098470D03*
D20*
G01*
X475000Y1158809D03*
G01*
X475000Y1103690D03*
G01*
X931250Y1205680D03*
G01*
X931250Y1150569D03*
G36*
X454603Y1286639D02*
G01*
X493973Y1286639D01*
X493973Y1257110D01*
X454603Y1257110D01*
G37*
G36*
X362278Y1286639D02*
G01*
X401649Y1286639D01*
X401649Y1257110D01*
X362278Y1257110D01*
G37*
D23*
G01*
X381959Y1353119D03*
G01*
X474290Y1353119D03*
D20*
G01*
X931250Y1077559D03*
G01*
X931250Y1022440D03*
G36*
X914242Y1333094D02*
G01*
X948257Y1333094D01*
X948257Y1301343D01*
X914242Y1301343D01*
G37*
D17*
G01*
X931250Y1376529D03*
D24*
G01*
X320000Y256199D03*
G01*
X680000Y256199D03*
G01*
X320000Y371900D03*
G01*
X680000Y371900D03*
G01*
X320000Y487500D03*
G01*
X680000Y487500D03*
G01*
X320000Y603099D03*
G01*
X680000Y603099D03*
G01*
X320000Y718699D03*
G01*
X680000Y718699D03*
G01*
X320000Y834400D03*
G01*
X680000Y834400D03*
D25*
G01*
X120000Y1278099D03*
G01*
X198699Y1278099D03*
D26*
G01*
X2000000Y1865619D03*
G01*
X2000000Y1765619D03*
G01*
X2000000Y2158119D03*
G01*
X2000000Y2058119D03*
G01*
X2550000Y2158119D03*
G01*
X2550000Y2058119D03*
G01*
X1450000Y2158119D03*
G01*
X1450000Y2058119D03*
G01*
X2550000Y1865619D03*
G01*
X2550000Y1765619D03*
G01*
X1450000Y1865619D03*
G01*
X1450000Y1765619D03*
G36*
X75911Y818499D02*
G01*
X142840Y818499D01*
X142840Y756500D01*
X75911Y756500D01*
G37*
D28*
G01*
X209380Y787500D03*
D24*
G01*
X255050Y1795000D03*
G01*
X255050Y2155000D03*
D29*
G01*
X705000Y2095000D03*
D28*
G01*
X705000Y1995000D03*
D29*
G01*
X125000Y1900000D03*
D28*
G01*
X125000Y1800000D03*
D29*
G01*
X125000Y2150000D03*
D28*
G01*
X125000Y2050000D03*
D30*
G01*
X109380Y140619D03*
G01*
X109380Y240619D03*
D31*
G01*
X109380Y340619D03*
D25*
G01*
X1053119Y1234380D03*
G01*
X1053119Y1134380D03*
G01*
X1053119Y1034380D03*
G01*
X1053119Y934380D03*
G01*
X1053119Y834380D03*
G01*
X1053119Y734380D03*
G01*
X1053119Y634380D03*
G01*
X1053119Y534380D03*
G01*
X1053119Y434380D03*
G01*
X1053119Y334380D03*
G01*
X1053119Y234380D03*
G01*
X1053119Y134380D03*
G01*
X1653119Y134380D03*
G01*
X1653119Y234380D03*
G01*
X1653119Y334380D03*
G01*
X1653119Y434380D03*
G01*
X1653119Y534380D03*
G01*
X1653119Y634380D03*
G01*
X1653119Y734380D03*
G01*
X1653119Y834380D03*
G01*
X1653119Y934380D03*
G01*
X1653119Y1034380D03*
G01*
X1653119Y1134380D03*
G01*
X1653119Y1234380D03*
G01*
X1553119Y884380D03*
G01*
X1553119Y784380D03*
G01*
X1553119Y134380D03*
G01*
X1453119Y134380D03*
D30*
G01*
X209380Y934369D03*
G01*
X109380Y934369D03*
G01*
X209380Y1034369D03*
G01*
X109380Y1034369D03*
G01*
X209380Y1134369D03*
D31*
G01*
X109380Y1134369D03*
D26*
G01*
X2106250Y393750D03*
G01*
X2106250Y293750D03*
G01*
X2818750Y393750D03*
G01*
X2818750Y293750D03*
G36*
X75911Y518499D02*
G01*
X142840Y518499D01*
X142840Y456500D01*
X75911Y456500D01*
G37*
D28*
G01*
X209380Y487500D03*
G36*
X75911Y618499D02*
G01*
X142840Y618499D01*
X142840Y556500D01*
X75911Y556500D01*
G37*
G01*
X209380Y587500D03*
G36*
X75911Y718499D02*
G01*
X142840Y718499D01*
X142840Y656500D01*
X75911Y656500D01*
G37*
G01*
X209380Y687500D03*
D32*
G01*
X556250Y1378119D03*
D33*
G01*
X556250Y1278119D03*
G01*
X556250Y1178119D03*
G01*
X556250Y1078119D03*
G01*
X856250Y1378119D03*
G01*
X856250Y1278119D03*
G01*
X856250Y1178119D03*
G01*
X856250Y1078119D03*
D26*
G01*
X2675000Y937500D03*
G01*
X2575000Y937500D03*
G01*
X2575000Y1337500D03*
G01*
X2675000Y1337500D03*
G01*
X2075000Y1187500D03*
G01*
X2075000Y1087500D03*
G01*
X2375000Y1337500D03*
G01*
X2275000Y1337500D03*
G01*
X2875000Y1187500D03*
G01*
X2875000Y1087500D03*
G01*
X2375000Y937500D03*
G01*
X2275000Y937500D03*
G36*
X2537992Y1117692D02*
G01*
X2608858Y1117692D01*
X2608858Y1188557D01*
X2537992Y1188557D01*
G37*
D35*
G01*
X2475010Y1153119D03*
G01*
X2376580Y1153119D03*
G36*
X1386584Y284130D02*
G01*
X1319655Y284130D01*
X1319655Y222130D01*
X1386584Y222130D01*
G37*
D28*
G01*
X1253119Y253130D03*
D25*
G01*
X1462500Y1035650D03*
G01*
X1462500Y1114349D03*
G01*
X3040630Y384349D03*
G01*
X3040630Y305650D03*
G01*
X2328130Y384969D03*
G01*
X2328130Y306269D03*
G36*
X1243999Y1130999D02*
G01*
X1243999Y1069000D01*
X1306000Y1069000D01*
X1306000Y1130999D01*
G37*
D30*
G01*
X1275000Y1000000D03*
G01*
X1275000Y900000D03*
G01*
X1275000Y800000D03*
G36*
X2818999Y1899088D02*
G01*
X2818999Y1832159D01*
X2881000Y1832159D01*
X2881000Y1899088D01*
G37*
D28*
G01*
X2850000Y1765619D03*
G36*
X1218999Y1899088D02*
G01*
X1218999Y1832159D01*
X1281000Y1832159D01*
X1281000Y1899088D01*
G37*
G01*
X1250000Y1765619D03*
G36*
X2718999Y1899088D02*
G01*
X2718999Y1832159D01*
X2781000Y1832159D01*
X2781000Y1899088D01*
G37*
G01*
X2750000Y1765619D03*
G36*
X1118999Y1899088D02*
G01*
X1118999Y1832159D01*
X1181000Y1832159D01*
X1181000Y1899088D01*
G37*
G01*
X1150000Y1765619D03*
G36*
X2818999Y2191588D02*
G01*
X2818999Y2124659D01*
X2881000Y2124659D01*
X2881000Y2191588D01*
G37*
G01*
X2850000Y2058119D03*
G36*
X1218999Y2191588D02*
G01*
X1218999Y2124659D01*
X1281000Y2124659D01*
X1281000Y2191588D01*
G37*
G01*
X1250000Y2058119D03*
G36*
X2718999Y2191588D02*
G01*
X2718999Y2124659D01*
X2781000Y2124659D01*
X2781000Y2191588D01*
G37*
G01*
X2750000Y2058119D03*
G36*
X1118999Y2191588D02*
G01*
X1118999Y2124659D01*
X1181000Y2124659D01*
X1181000Y2191588D01*
G37*
G01*
X1150000Y2058119D03*
D16*
G01*
X978130Y1150000D03*
D12*
G01*
X443750Y921869D03*
D16*
G01*
X443750Y1059369D03*
G01*
X1187500Y1318750D03*
G01*
X881250Y1021869D03*
D12*
G01*
X340630Y937500D03*
M02*
