M48
INCH,LZ
;FILE_FORMAT=2:4
;TYPE=PLATED
;Layer: PTH_Through
;EasyEDA v6.4.30, 2022-01-25 10:33:58
;5618020f384b45728b455be9ef3c0d3f,7d3f4a13764643a7838717c5c1d40531,10
;Gerber Generator version 0.2
;Holesize 1 = 0.0120 inch
T01C0.0120
;Holesize 2 = 0.0160 inch
T02C0.0160
;Holesize 3 = 0.0350 inch
T03C0.0350
;Holesize 4 = 0.0350 inch
T04C0.0350
;Holesize 5 = 0.0350 inch
T05C0.0350
;Holesize 6 = 0.0360 inch
T06C0.0360
;Holesize 7 = 0.0380 inch
T07C0.0380
;Holesize 8 = 0.0430 inch
T08C0.0430
;Holesize 9 = 0.0470 inch
T09C0.0470
%
G05
G90
T01
X009781Y011500
X004875Y010531
X011031Y013344
X008750Y010219
X014125Y002125
X013094Y006938
X014031Y007031
X014031Y009750
X013875Y004938
X014656Y002875
X028313Y020063
T02
X004375Y009219
X002969Y009313
X025000Y022188
T03
X012000Y002844
X013000Y002844
X012000Y003844
X013000Y003844
X012000Y004844
X013000Y004844
X012000Y005844
X013000Y005844
X013000Y012344
X013000Y011344
X013000Y010344
X013000Y009344
X024969Y018063
X024969Y019063
X024969Y020063
X024969Y021063
X001094Y009594
X001094Y010594
X001094Y011594
X001094Y012594
X003281Y013594
X004281Y013594
X026969Y019063
X025969Y019063
X026969Y020063
X025969Y020063
X026969Y021063
X025969Y021063
T04
X003200Y002562
X006800Y002562
X003200Y003719
X006800Y003719
X003200Y004875
X006800Y004875
X003200Y006031
X006800Y006031
X003200Y007187
X006800Y007187
X003200Y008344
X006800Y008344
T05
X010531Y012344
X010531Y011344
X010531Y010344
X010531Y009344
X010531Y008344
X010531Y007344
X010531Y006344
X010531Y005344
X010531Y004344
X010531Y003344
X010531Y002344
X010531Y001344
X016531Y001344
X016531Y002344
X016531Y003344
X016531Y004344
X016531Y005344
X016531Y006344
X016531Y007344
X016531Y008344
X016531Y009344
X016531Y010344
X016531Y011344
X016531Y012344
X015531Y008844
X015531Y007844
X015531Y001344
X014531Y001344
X005563Y013781
X005563Y012781
X005563Y011781
X005563Y010781
X008563Y013781
X008563Y012781
X008563Y011781
X008563Y010781
T06
X026644Y011331
X025856Y011331
X024144Y011331
X023356Y011331
X014625Y010357
X014625Y011143
X030906Y003843
X030906Y003057
X023469Y003850
X023469Y003063
X031219Y021044
X031219Y021831
T07
X011562Y018706
X011562Y017706
X011562Y021894
X011562Y020894
X017062Y021894
X017062Y020894
X006062Y021894
X006062Y020894
X017062Y018706
X017062Y017706
X006062Y018706
X006062Y017706
X021250Y003938
X021250Y002938
X028688Y003938
X028688Y002938
X027000Y009719
X026000Y009719
X026000Y013250
X027000Y013250
X021000Y011988
X021000Y010988
X024000Y013250
X023000Y013250
X029000Y011988
X029000Y010988
X024000Y009719
X023000Y009719
T08
X020062Y018706
X020062Y017706
X004062Y018706
X004062Y017706
X019062Y018706
X019062Y017706
X003062Y018706
X003062Y017706
X020062Y021894
X020062Y020894
X004062Y021894
X004062Y020894
X019062Y021894
X019062Y020894
X003062Y021894
X003062Y020894
X027156Y022063
X028156Y022063
X001094Y002281
X002094Y002281
X001094Y003281
X002094Y003281
X001094Y007281
X002094Y007281
X001094Y004281
X002094Y004281
X001094Y005281
X002094Y005281
X001094Y006281
X002094Y006281
T09
X029844Y018873
X028844Y018877
X030844Y018873
M30
