G04 Layer: TopPasteMaskLayer*
G04 EasyEDA v6.4.30, 2022-01-25 10:33:58*
G04 5618020f384b45728b455be9ef3c0d3f,7d3f4a13764643a7838717c5c1d40531,10*
G04 Gerber Generator version 0.2*
G04 Scale: 100 percent, Rotated: No, Reflected: No *
G04 Dimensions in inches *
G04 leading zeros omitted , absolute positions ,3 integer and 6 decimal *
%FSLAX36Y36*%
%MOIN*%

%ADD18R,0.0315X0.0354*%
%ADD19R,0.0209X0.0408*%
%ADD21R,0.0354X0.0315*%
%ADD23R,0.0492X0.0276*%
%ADD24R,0.0394X0.0295*%

%LPD*%
G36*
X2891800Y2057160D02*
G01*
X2887860Y2053220D01*
X2887860Y2002640D01*
X2891800Y1998700D01*
X2951960Y1998700D01*
X2955899Y2002640D01*
X2955899Y2053220D01*
X2951960Y2057160D01*
X2937380Y2057160D01*
X2933440Y2053220D01*
X2933440Y2041220D01*
X2929500Y2037280D01*
X2914240Y2037280D01*
X2910299Y2041220D01*
X2910299Y2053220D01*
X2906380Y2057160D01*
G37*
G36*
X2891800Y2182560D02*
G01*
X2887860Y2178620D01*
X2887860Y2128020D01*
X2891800Y2124100D01*
X2906380Y2124100D01*
X2910299Y2128020D01*
X2910299Y2140040D01*
X2914240Y2143960D01*
X2929500Y2143960D01*
X2933440Y2140040D01*
X2933440Y2128020D01*
X2937380Y2124100D01*
X2951960Y2124100D01*
X2955899Y2128020D01*
X2955899Y2178620D01*
X2951960Y2182560D01*
G37*
G36*
X1159200Y211460D02*
G01*
X1157240Y209500D01*
X1157240Y178000D01*
X1159200Y176040D01*
X1190700Y176040D01*
X1192660Y178000D01*
X1192660Y186980D01*
X1178100Y186980D01*
X1178100Y199960D01*
X1192660Y199960D01*
X1192660Y209500D01*
X1190700Y211460D01*
G37*
G36*
X1222200Y211460D02*
G01*
X1220220Y209500D01*
X1220220Y199960D01*
X1235180Y199960D01*
X1235180Y186980D01*
X1220220Y186980D01*
X1220220Y178000D01*
X1222200Y176040D01*
X1253300Y176040D01*
X1255260Y178000D01*
X1255260Y209500D01*
X1253300Y211460D01*
G37*
G36*
X1284199Y211460D02*
G01*
X1282240Y209500D01*
X1282240Y178000D01*
X1284199Y176040D01*
X1315700Y176040D01*
X1317660Y178000D01*
X1317660Y186980D01*
X1303100Y186980D01*
X1303100Y199960D01*
X1317660Y199960D01*
X1317660Y209500D01*
X1315700Y211460D01*
G37*
G36*
X1347200Y211460D02*
G01*
X1345220Y209500D01*
X1345220Y199960D01*
X1360180Y199960D01*
X1360180Y186980D01*
X1345220Y186980D01*
X1345220Y178000D01*
X1347200Y176040D01*
X1378300Y176040D01*
X1380260Y178000D01*
X1380260Y209500D01*
X1378300Y211460D01*
G37*
G36*
X903060Y170820D02*
G01*
X901080Y168840D01*
X901080Y137360D01*
X903060Y135380D01*
X934539Y135380D01*
X936520Y137360D01*
X936520Y168840D01*
X934539Y170820D01*
X925580Y170820D01*
X925580Y156260D01*
X912580Y156260D01*
X912580Y170820D01*
G37*
G36*
X903060Y233420D02*
G01*
X901080Y231439D01*
X901080Y200340D01*
X903060Y198380D01*
X912580Y198380D01*
X912580Y213340D01*
X925580Y213340D01*
X925580Y198380D01*
X934539Y198380D01*
X936520Y200340D01*
X936520Y231439D01*
X934539Y233420D01*
G37*
G36*
X903060Y317620D02*
G01*
X901080Y315640D01*
X901080Y284160D01*
X903060Y282180D01*
X934539Y282180D01*
X936520Y284160D01*
X936520Y315640D01*
X934539Y317620D01*
X925580Y317620D01*
X925580Y303040D01*
X912580Y303040D01*
X912580Y317620D01*
G37*
G36*
X903060Y380220D02*
G01*
X901080Y378240D01*
X901080Y347140D01*
X903060Y345180D01*
X912580Y345180D01*
X912580Y360140D01*
X925580Y360140D01*
X925580Y345180D01*
X934539Y345180D01*
X936520Y347140D01*
X936520Y378240D01*
X934539Y380220D01*
G37*
G36*
X903060Y464520D02*
G01*
X901080Y462540D01*
X901080Y431060D01*
X903060Y429080D01*
X934539Y429080D01*
X936520Y431060D01*
X936520Y462540D01*
X934539Y464520D01*
X925580Y464520D01*
X925580Y449940D01*
X912580Y449940D01*
X912580Y464520D01*
G37*
G36*
X903060Y527120D02*
G01*
X901080Y525140D01*
X901080Y494040D01*
X903060Y492080D01*
X912580Y492080D01*
X912580Y507040D01*
X925580Y507040D01*
X925580Y492080D01*
X934539Y492080D01*
X936520Y494040D01*
X936520Y525140D01*
X934539Y527120D01*
G37*
G36*
X903060Y611420D02*
G01*
X901080Y609440D01*
X901080Y577960D01*
X903060Y575980D01*
X934539Y575980D01*
X936520Y577960D01*
X936520Y609440D01*
X934539Y611420D01*
X925580Y611420D01*
X925580Y596840D01*
X912580Y596840D01*
X912580Y611420D01*
G37*
G36*
X903060Y674020D02*
G01*
X901080Y672039D01*
X901080Y640939D01*
X903060Y638980D01*
X912580Y638980D01*
X912580Y653940D01*
X925580Y653940D01*
X925580Y638980D01*
X934539Y638980D01*
X936520Y640939D01*
X936520Y672039D01*
X934539Y674020D01*
G37*
G36*
X903060Y758319D02*
G01*
X901080Y756340D01*
X901080Y724860D01*
X903060Y722880D01*
X934539Y722880D01*
X936520Y724860D01*
X936520Y756340D01*
X934539Y758319D01*
X925580Y758319D01*
X925580Y743760D01*
X912580Y743760D01*
X912580Y758319D01*
G37*
G36*
X903060Y820920D02*
G01*
X901080Y818940D01*
X901080Y787840D01*
X903060Y785879D01*
X912580Y785879D01*
X912580Y800840D01*
X925580Y800840D01*
X925580Y785879D01*
X934539Y785879D01*
X936520Y787840D01*
X936520Y818940D01*
X934539Y820920D01*
G37*
G36*
X903060Y905120D02*
G01*
X901080Y903139D01*
X901080Y871660D01*
X903060Y869680D01*
X934539Y869680D01*
X936520Y871660D01*
X936520Y903139D01*
X934539Y905120D01*
X925580Y905120D01*
X925580Y890540D01*
X912580Y890540D01*
X912580Y905120D01*
G37*
G36*
X903060Y967720D02*
G01*
X901080Y965740D01*
X901080Y934640D01*
X903060Y932680D01*
X912580Y932680D01*
X912580Y947640D01*
X925580Y947640D01*
X925580Y932680D01*
X934539Y932680D01*
X936520Y934640D01*
X936520Y965740D01*
X934539Y967720D01*
G37*
G36*
X337380Y948920D02*
G01*
X335400Y946940D01*
X335400Y915460D01*
X337380Y913480D01*
X368880Y913480D01*
X370840Y915460D01*
X370840Y946940D01*
X368880Y948920D01*
X359900Y948920D01*
X359900Y934340D01*
X346900Y934340D01*
X346900Y948920D01*
G37*
G36*
X337380Y1011520D02*
G01*
X335400Y1009539D01*
X335400Y978439D01*
X337380Y976480D01*
X346900Y976480D01*
X346900Y991440D01*
X359900Y991440D01*
X359900Y976480D01*
X368880Y976480D01*
X370840Y978439D01*
X370840Y1009539D01*
X368880Y1011520D01*
G37*
G36*
X1190560Y1252100D02*
G01*
X1188580Y1250120D01*
X1188580Y1241140D01*
X1203140Y1241140D01*
X1203140Y1228160D01*
X1188580Y1228160D01*
X1188580Y1218620D01*
X1190560Y1216660D01*
X1222040Y1216660D01*
X1224020Y1218620D01*
X1224020Y1250120D01*
X1222040Y1252100D01*
G37*
G36*
X1127960Y1252100D02*
G01*
X1125980Y1250120D01*
X1125980Y1218620D01*
X1127960Y1216660D01*
X1159060Y1216660D01*
X1161020Y1218620D01*
X1161020Y1228160D01*
X1146060Y1228160D01*
X1146060Y1241140D01*
X1161020Y1241140D01*
X1161020Y1250120D01*
X1159060Y1252100D01*
G37*
G36*
X1190560Y1323959D02*
G01*
X1188580Y1322000D01*
X1188580Y1313020D01*
X1203140Y1313020D01*
X1203140Y1300040D01*
X1188580Y1300040D01*
X1188580Y1290500D01*
X1190560Y1288540D01*
X1222040Y1288540D01*
X1224020Y1290500D01*
X1224020Y1322000D01*
X1222040Y1323959D01*
G37*
G36*
X1127960Y1323959D02*
G01*
X1125980Y1322000D01*
X1125980Y1290500D01*
X1127960Y1288540D01*
X1159060Y1288540D01*
X1161020Y1290500D01*
X1161020Y1300040D01*
X1146060Y1300040D01*
X1146060Y1313020D01*
X1161020Y1313020D01*
X1161020Y1322000D01*
X1159060Y1323959D01*
G37*
G36*
X253000Y1074020D02*
G01*
X251040Y1072040D01*
X251040Y1040560D01*
X253000Y1038580D01*
X261980Y1038580D01*
X261980Y1053160D01*
X274960Y1053160D01*
X274960Y1038580D01*
X284500Y1038580D01*
X286460Y1040560D01*
X286460Y1072040D01*
X284500Y1074020D01*
G37*
G36*
X253000Y1011020D02*
G01*
X251040Y1009060D01*
X251040Y977960D01*
X253000Y975980D01*
X284500Y975980D01*
X286460Y977960D01*
X286460Y1009060D01*
X284500Y1011020D01*
X274960Y1011020D01*
X274960Y996060D01*
X261980Y996060D01*
X261980Y1011020D01*
G37*
G36*
X915500Y1333300D02*
G01*
X913540Y1331320D01*
X913540Y1299820D01*
X915500Y1297860D01*
X947000Y1297860D01*
X948960Y1299820D01*
X948960Y1331320D01*
X947000Y1333300D01*
X938020Y1333300D01*
X938020Y1318720D01*
X925020Y1318720D01*
X925020Y1333300D01*
G37*
G36*
X915500Y1395880D02*
G01*
X913540Y1393920D01*
X913540Y1362820D01*
X915500Y1360860D01*
X925020Y1360860D01*
X925020Y1375820D01*
X938020Y1375820D01*
X938020Y1360860D01*
X947000Y1360860D01*
X948960Y1362820D01*
X948960Y1393920D01*
X947000Y1395880D01*
G37*
G36*
X1386810Y673966D02*
G01*
X1418307Y673966D01*
X1418307Y638533D01*
X1386810Y638533D01*
G37*
G36*
X1331692Y673966D02*
G01*
X1363189Y673966D01*
X1363189Y638533D01*
X1331692Y638533D01*
G37*
D18*
G01*
X1397439Y337500D03*
G01*
X1452560Y337500D03*
D19*
G01*
X1387600Y456640D03*
G01*
X1462399Y456640D03*
G01*
X1425000Y543359D03*
D21*
G01*
X931300Y1077559D03*
G01*
X931300Y1022440D03*
G01*
X931300Y1205659D03*
G01*
X931300Y1150540D03*
G01*
X431250Y1099430D03*
G01*
X431250Y1044319D03*
D23*
G01*
X498130Y996799D03*
G01*
X498130Y921999D03*
G01*
X576869Y959400D03*
G36*
X817863Y166979D02*
G01*
X867075Y166979D01*
X867075Y139420D01*
X817863Y139420D01*
G37*
G36*
X817863Y241779D02*
G01*
X867075Y241779D01*
X867075Y214220D01*
X817863Y214220D01*
G37*
G36*
X739123Y204378D02*
G01*
X788335Y204378D01*
X788335Y176819D01*
X739123Y176819D01*
G37*
G36*
X817863Y310779D02*
G01*
X867075Y310779D01*
X867075Y283220D01*
X817863Y283220D01*
G37*
G36*
X817863Y385578D02*
G01*
X867075Y385578D01*
X867075Y358020D01*
X817863Y358020D01*
G37*
G36*
X739123Y348179D02*
G01*
X788335Y348179D01*
X788335Y320619D01*
X739123Y320619D01*
G37*
G36*
X817863Y460779D02*
G01*
X867075Y460779D01*
X867075Y433220D01*
X817863Y433220D01*
G37*
G36*
X817863Y535578D02*
G01*
X867075Y535578D01*
X867075Y508020D01*
X817863Y508020D01*
G37*
G36*
X739123Y498179D02*
G01*
X788335Y498179D01*
X788335Y470619D01*
X739123Y470619D01*
G37*
G36*
X817863Y607579D02*
G01*
X867075Y607579D01*
X867075Y580019D01*
X817863Y580019D01*
G37*
G36*
X817863Y682379D02*
G01*
X867075Y682379D01*
X867075Y654819D01*
X817863Y654819D01*
G37*
G36*
X739123Y644978D02*
G01*
X788335Y644978D01*
X788335Y617420D01*
X739123Y617420D01*
G37*
G36*
X817863Y754479D02*
G01*
X867075Y754479D01*
X867075Y726920D01*
X817863Y726920D01*
G37*
G36*
X817863Y829279D02*
G01*
X867075Y829279D01*
X867075Y801720D01*
X817863Y801720D01*
G37*
G36*
X739123Y791878D02*
G01*
X788335Y791878D01*
X788335Y764319D01*
X739123Y764319D01*
G37*
G36*
X817863Y901379D02*
G01*
X867075Y901379D01*
X867075Y873820D01*
X817863Y873820D01*
G37*
G36*
X817863Y976179D02*
G01*
X867075Y976179D01*
X867075Y948620D01*
X817863Y948620D01*
G37*
G36*
X739123Y938778D02*
G01*
X788335Y938778D01*
X788335Y911220D01*
X739123Y911220D01*
G37*
G36*
X370228Y1208514D02*
G01*
X409598Y1208514D01*
X409598Y1178985D01*
X370228Y1178985D01*
G37*
G36*
X277903Y1208514D02*
G01*
X317274Y1208514D01*
X317274Y1178985D01*
X277903Y1178985D01*
G37*
D24*
G01*
X297590Y1262500D03*
G01*
X389909Y1262500D03*
G36*
X2596185Y2236466D02*
G01*
X2627682Y2236466D01*
X2627682Y2201033D01*
X2596185Y2201033D01*
G37*
G36*
X2541067Y2236466D02*
G01*
X2572564Y2236466D01*
X2572564Y2201033D01*
X2541067Y2201033D01*
G37*
M02*
