G04 Layer: BottomSilkscreenLayer*
G04 EasyEDA v6.4.30, 2022-01-25 10:33:58*
G04 5618020f384b45728b455be9ef3c0d3f,7d3f4a13764643a7838717c5c1d40531,10*
G04 Gerber Generator version 0.2*
G04 Scale: 100 percent, Rotated: No, Reflected: No *
G04 Dimensions in inches *
G04 leading zeros omitted , absolute positions ,3 integer and 6 decimal *
%FSLAX36Y36*%
%MOIN*%

%ADD10C,0.0100*%
%ADD13C,0.0250*%
%ADD39C,0.0060*%
%ADD40C,0.0080*%
%ADD41C,0.0080*%
%ADD44C,0.0157*%
%ADD48C,0.0118*%

%LPD*%
D39*
X2646341Y1016761D02*
G01*
X2679067Y1016761D01*
X2662704Y1033125D02*
G01*
X2662704Y1000398D01*
X1472955Y1556091D02*
G01*
X1460681Y1527455D01*
X1448409Y1556091D02*
G01*
X1460681Y1527455D01*
X1464772Y1519272D01*
X1468864Y1515181D01*
X1472955Y1513135D01*
X1475000Y1513135D01*
X1424682Y1556091D02*
G01*
X1428773Y1554045D01*
X1432863Y1549955D01*
X1434908Y1543818D01*
X1434908Y1539726D01*
X1432863Y1533591D01*
X1428773Y1529499D01*
X1424682Y1527455D01*
X1418545Y1527455D01*
X1414454Y1529499D01*
X1410363Y1533591D01*
X1408317Y1539726D01*
X1408317Y1543818D01*
X1410363Y1549955D01*
X1414454Y1554045D01*
X1418545Y1556091D01*
X1424682Y1556091D01*
X1394817Y1556091D02*
G01*
X1394817Y1535635D01*
X1392772Y1529499D01*
X1388681Y1527455D01*
X1382545Y1527455D01*
X1378455Y1529499D01*
X1372317Y1535635D01*
X1372317Y1556091D02*
G01*
X1372317Y1527455D01*
X1352682Y1570408D02*
G01*
X1352682Y1535635D01*
X1350636Y1529499D01*
X1346544Y1527455D01*
X1342455Y1527455D01*
X1358818Y1556091D02*
G01*
X1344499Y1556091D01*
X1328954Y1556091D02*
G01*
X1328954Y1535635D01*
X1326908Y1529499D01*
X1322817Y1527455D01*
X1316682Y1527455D01*
X1312591Y1529499D01*
X1306454Y1535635D01*
X1306454Y1556091D02*
G01*
X1306454Y1527455D01*
X1292955Y1570408D02*
G01*
X1292955Y1527455D01*
X1292955Y1549955D02*
G01*
X1288864Y1554045D01*
X1284772Y1556091D01*
X1278635Y1556091D01*
X1274544Y1554045D01*
X1270455Y1549955D01*
X1268409Y1543818D01*
X1268409Y1539726D01*
X1270455Y1533591D01*
X1274544Y1529499D01*
X1278635Y1527455D01*
X1284772Y1527455D01*
X1288864Y1529499D01*
X1292955Y1533591D01*
X1254908Y1543818D02*
G01*
X1230363Y1543818D01*
X1230363Y1547908D01*
X1232408Y1551999D01*
X1234454Y1554045D01*
X1238545Y1556091D01*
X1244682Y1556091D01*
X1248773Y1554045D01*
X1252863Y1549955D01*
X1254908Y1543818D01*
X1254908Y1539726D01*
X1252863Y1533591D01*
X1248773Y1529499D01*
X1244682Y1527455D01*
X1238545Y1527455D01*
X1234454Y1529499D01*
X1230363Y1533591D01*
X1214817Y1537681D02*
G01*
X1216863Y1535635D01*
X1214817Y1533591D01*
X1212772Y1535635D01*
X1214817Y1537681D01*
X1174727Y1549955D02*
G01*
X1178818Y1554045D01*
X1182908Y1556091D01*
X1189044Y1556091D01*
X1193136Y1554045D01*
X1197227Y1549955D01*
X1199273Y1543818D01*
X1199273Y1539726D01*
X1197227Y1533591D01*
X1193136Y1529499D01*
X1189044Y1527455D01*
X1182908Y1527455D01*
X1178818Y1529499D01*
X1174727Y1533591D01*
X1151000Y1556091D02*
G01*
X1155091Y1554045D01*
X1159182Y1549955D01*
X1161226Y1543818D01*
X1161226Y1539726D01*
X1159182Y1533591D01*
X1155091Y1529499D01*
X1151000Y1527455D01*
X1144863Y1527455D01*
X1140772Y1529499D01*
X1136682Y1533591D01*
X1134636Y1539726D01*
X1134636Y1543818D01*
X1136682Y1549955D01*
X1140772Y1554045D01*
X1144863Y1556091D01*
X1151000Y1556091D01*
X1121135Y1556091D02*
G01*
X1121135Y1527455D01*
X1121135Y1547908D02*
G01*
X1115000Y1554045D01*
X1110909Y1556091D01*
X1104772Y1556091D01*
X1100681Y1554045D01*
X1098635Y1547908D01*
X1098635Y1527455D01*
X1098635Y1547908D02*
G01*
X1092500Y1554045D01*
X1088409Y1556091D01*
X1082272Y1556091D01*
X1078181Y1554045D01*
X1076135Y1547908D01*
X1076135Y1527455D01*
X1025817Y1578591D02*
G01*
X1062636Y1513135D01*
X987772Y1549955D02*
G01*
X991863Y1554045D01*
X995955Y1556091D01*
X1002091Y1556091D01*
X1006181Y1554045D01*
X1010272Y1549955D01*
X1012317Y1543818D01*
X1012317Y1539726D01*
X1010272Y1533591D01*
X1006181Y1529499D01*
X1002091Y1527455D01*
X995955Y1527455D01*
X991863Y1529499D01*
X987772Y1533591D01*
X974273Y1570408D02*
G01*
X974273Y1527455D01*
X974273Y1547908D02*
G01*
X968136Y1554045D01*
X964044Y1556091D01*
X957908Y1556091D01*
X953818Y1554045D01*
X951773Y1547908D01*
X951773Y1527455D01*
X913726Y1556091D02*
G01*
X913726Y1527455D01*
X913726Y1549955D02*
G01*
X917817Y1554045D01*
X921908Y1556091D01*
X928045Y1556091D01*
X932136Y1554045D01*
X936226Y1549955D01*
X938272Y1543818D01*
X938272Y1539726D01*
X936226Y1533591D01*
X932136Y1529499D01*
X928045Y1527455D01*
X921908Y1527455D01*
X917817Y1529499D01*
X913726Y1533591D01*
X900227Y1556091D02*
G01*
X900227Y1527455D01*
X900227Y1547908D02*
G01*
X894090Y1554045D01*
X890000Y1556091D01*
X883864Y1556091D01*
X879772Y1554045D01*
X877727Y1547908D01*
X877727Y1527455D01*
X864227Y1556091D02*
G01*
X864227Y1527455D01*
X864227Y1547908D02*
G01*
X858091Y1554045D01*
X853999Y1556091D01*
X847863Y1556091D01*
X843773Y1554045D01*
X841727Y1547908D01*
X841727Y1527455D01*
X828226Y1543818D02*
G01*
X803681Y1543818D01*
X803681Y1547908D01*
X805726Y1551999D01*
X807772Y1554045D01*
X811863Y1556091D01*
X818000Y1556091D01*
X822091Y1554045D01*
X826181Y1549955D01*
X828226Y1543818D01*
X828226Y1539726D01*
X826181Y1533591D01*
X822091Y1529499D01*
X818000Y1527455D01*
X811863Y1527455D01*
X807772Y1529499D01*
X803681Y1533591D01*
X790182Y1570408D02*
G01*
X790182Y1527455D01*
X739863Y1578591D02*
G01*
X776682Y1513135D01*
X1475000Y1485408D02*
G01*
X1475000Y1454726D01*
X1472955Y1448591D01*
X1468864Y1444499D01*
X1462727Y1442455D01*
X1458635Y1442455D01*
X1452500Y1444499D01*
X1448409Y1448591D01*
X1446364Y1454726D01*
X1446364Y1485408D01*
X1402182Y1475181D02*
G01*
X1404227Y1479272D01*
X1408317Y1483364D01*
X1412408Y1485408D01*
X1420591Y1485408D01*
X1424682Y1483364D01*
X1428773Y1479272D01*
X1430817Y1475181D01*
X1432863Y1469045D01*
X1432863Y1458818D01*
X1430817Y1452681D01*
X1428773Y1448591D01*
X1424682Y1444499D01*
X1420591Y1442455D01*
X1412408Y1442455D01*
X1408317Y1444499D01*
X1404227Y1448591D01*
X1402182Y1452681D01*
X1366181Y1464955D02*
G01*
X1368226Y1469045D01*
X1374363Y1471091D01*
X1380500Y1471091D01*
X1386635Y1469045D01*
X1388681Y1464955D01*
X1386635Y1460864D01*
X1382545Y1458818D01*
X1372317Y1456772D01*
X1368226Y1454726D01*
X1366181Y1450635D01*
X1366181Y1448591D01*
X1368226Y1444499D01*
X1374363Y1442455D01*
X1380500Y1442455D01*
X1386635Y1444499D01*
X1388681Y1448591D01*
X1352682Y1485408D02*
G01*
X1350636Y1483364D01*
X1348590Y1485408D01*
X1350636Y1487455D01*
X1352682Y1485408D01*
X1350636Y1471091D02*
G01*
X1350636Y1442455D01*
X1326908Y1485408D02*
G01*
X1324863Y1483364D01*
X1322817Y1485408D01*
X1324863Y1487455D01*
X1326908Y1485408D01*
X1324863Y1471091D02*
G01*
X1324863Y1436318D01*
X1326908Y1430181D01*
X1331000Y1428135D01*
X1335091Y1428135D01*
X1297044Y1485408D02*
G01*
X1301135Y1483364D01*
X1305227Y1479272D01*
X1307272Y1475181D01*
X1309318Y1469045D01*
X1309318Y1458818D01*
X1307272Y1452681D01*
X1305227Y1448591D01*
X1301135Y1444499D01*
X1297044Y1442455D01*
X1288864Y1442455D01*
X1284772Y1444499D01*
X1280681Y1448591D01*
X1278635Y1452681D01*
X1276590Y1458818D01*
X1276590Y1469045D01*
X1278635Y1475181D01*
X1280681Y1479272D01*
X1284772Y1483364D01*
X1288864Y1485408D01*
X1297044Y1485408D01*
X1254908Y1485408D02*
G01*
X1252863Y1483364D01*
X1250817Y1485408D01*
X1252863Y1487455D01*
X1254908Y1485408D01*
X1252863Y1471091D02*
G01*
X1252863Y1436318D01*
X1254908Y1430181D01*
X1258999Y1428135D01*
X1263091Y1428135D01*
X1225045Y1485408D02*
G01*
X1229135Y1483364D01*
X1233226Y1479272D01*
X1235272Y1475181D01*
X1237317Y1469045D01*
X1237317Y1458818D01*
X1235272Y1452681D01*
X1233226Y1448591D01*
X1229135Y1444499D01*
X1225045Y1442455D01*
X1216863Y1442455D01*
X1212772Y1444499D01*
X1208681Y1448591D01*
X1206635Y1452681D01*
X1204591Y1458818D01*
X1204591Y1469045D01*
X1206635Y1475181D01*
X1208681Y1479272D01*
X1212772Y1483364D01*
X1216863Y1485408D01*
X1225045Y1485408D01*
X1166544Y1464955D02*
G01*
X1170636Y1469045D01*
X1174727Y1471091D01*
X1180864Y1471091D01*
X1184955Y1469045D01*
X1189044Y1464955D01*
X1191090Y1458818D01*
X1191090Y1454726D01*
X1189044Y1448591D01*
X1184955Y1444499D01*
X1180864Y1442455D01*
X1174727Y1442455D01*
X1170636Y1444499D01*
X1166544Y1448591D01*
X1153045Y1460864D02*
G01*
X1116226Y1460864D01*
X1100681Y1471091D02*
G01*
X1088409Y1442455D01*
X1076135Y1471091D02*
G01*
X1088409Y1442455D01*
X1092500Y1434272D01*
X1096590Y1430181D01*
X1100681Y1428135D01*
X1102727Y1428135D01*
X1062636Y1485408D02*
G01*
X1062636Y1442455D01*
X1062636Y1485408D02*
G01*
X1044227Y1485408D01*
X1038091Y1483364D01*
X1036045Y1481318D01*
X1033999Y1477226D01*
X1033999Y1471091D01*
X1036045Y1466999D01*
X1038091Y1464955D01*
X1044227Y1462908D01*
X1062636Y1462908D01*
X1020500Y1485408D02*
G01*
X1020500Y1442455D01*
X1020500Y1462908D02*
G01*
X1014363Y1469045D01*
X1010272Y1471091D01*
X1004135Y1471091D01*
X1000045Y1469045D01*
X998000Y1462908D01*
X998000Y1442455D01*
X984499Y1485408D02*
G01*
X974273Y1442455D01*
X964044Y1485408D02*
G01*
X974273Y1442455D01*
X964044Y1485408D02*
G01*
X953818Y1442455D01*
X943590Y1485408D02*
G01*
X953818Y1442455D01*
X930091Y1485408D02*
G01*
X930091Y1442455D01*
X930091Y1485408D02*
G01*
X903500Y1485408D01*
X930091Y1464955D02*
G01*
X913726Y1464955D01*
X930091Y1442455D02*
G01*
X903500Y1442455D01*
X890000Y1485408D02*
G01*
X873635Y1464955D01*
X873635Y1442455D01*
X857272Y1485408D02*
G01*
X873635Y1464955D01*
X843773Y1471091D02*
G01*
X843773Y1442455D01*
X843773Y1462908D02*
G01*
X837636Y1469045D01*
X833545Y1471091D01*
X827408Y1471091D01*
X823317Y1469045D01*
X821273Y1462908D01*
X821273Y1442455D01*
X799591Y1485408D02*
G01*
X797545Y1483364D01*
X795500Y1485408D01*
X797545Y1487455D01*
X799591Y1485408D01*
X797545Y1471091D02*
G01*
X797545Y1436318D01*
X799591Y1430181D01*
X803681Y1428135D01*
X807772Y1428135D01*
X781999Y1458818D02*
G01*
X757454Y1458818D01*
X757454Y1462908D01*
X759499Y1466999D01*
X761544Y1469045D01*
X765636Y1471091D01*
X771773Y1471091D01*
X775864Y1469045D01*
X779954Y1464955D01*
X781999Y1458818D01*
X781999Y1454726D01*
X779954Y1448591D01*
X775864Y1444499D01*
X771773Y1442455D01*
X765636Y1442455D01*
X761544Y1444499D01*
X757454Y1448591D01*
X743955Y1485408D02*
G01*
X743955Y1442455D01*
X743955Y1485408D02*
G01*
X725545Y1485408D01*
X719409Y1483364D01*
X717363Y1481318D01*
X715318Y1477226D01*
X715318Y1473135D01*
X717363Y1469045D01*
X719409Y1466999D01*
X725545Y1464955D01*
X743955Y1464955D01*
X729636Y1464955D02*
G01*
X715318Y1442455D01*
X677273Y1471091D02*
G01*
X677273Y1442455D01*
X677273Y1464955D02*
G01*
X681363Y1469045D01*
X685455Y1471091D01*
X691590Y1471091D01*
X695682Y1469045D01*
X699773Y1464955D01*
X701817Y1458818D01*
X701817Y1454726D01*
X699773Y1448591D01*
X695682Y1444499D01*
X691590Y1442455D01*
X685455Y1442455D01*
X681363Y1444499D01*
X677273Y1448591D01*
X663773Y1485408D02*
G01*
X663773Y1442455D01*
X635136Y1485408D02*
G01*
X635136Y1442455D01*
X663773Y1464955D02*
G01*
X635136Y1464955D01*
X613454Y1485408D02*
G01*
X611408Y1483364D01*
X609364Y1485408D01*
X611408Y1487455D01*
X613454Y1485408D01*
X611408Y1471091D02*
G01*
X611408Y1436318D01*
X613454Y1430181D01*
X617545Y1428135D01*
X621635Y1428135D01*
X583591Y1485408D02*
G01*
X587681Y1483364D01*
X591772Y1479272D01*
X593818Y1475181D01*
X595864Y1469045D01*
X595864Y1458818D01*
X593818Y1452681D01*
X591772Y1448591D01*
X587681Y1444499D01*
X583591Y1442455D01*
X575408Y1442455D01*
X571318Y1444499D01*
X567226Y1448591D01*
X565181Y1452681D01*
X563135Y1458818D01*
X563135Y1469045D01*
X565181Y1475181D01*
X567226Y1479272D01*
X571318Y1483364D01*
X575408Y1485408D01*
X583591Y1485408D01*
X577454Y1450635D02*
G01*
X565181Y1438364D01*
X2254544Y1595408D02*
G01*
X2254544Y1562681D01*
X2256590Y1556545D01*
X2258635Y1554499D01*
X2262727Y1552455D01*
X2266818Y1552455D01*
X2270909Y1554499D01*
X2272955Y1556545D01*
X2275000Y1562681D01*
X2275000Y1566772D01*
X2241045Y1595408D02*
G01*
X2241045Y1552455D01*
X2241045Y1552455D02*
G01*
X2216499Y1552455D01*
X2172317Y1585181D02*
G01*
X2174363Y1589272D01*
X2178455Y1593364D01*
X2182545Y1595408D01*
X2190726Y1595408D01*
X2194817Y1593364D01*
X2198909Y1589272D01*
X2200955Y1585181D01*
X2203000Y1579045D01*
X2203000Y1568818D01*
X2200955Y1562681D01*
X2198909Y1558591D01*
X2194817Y1554499D01*
X2190726Y1552455D01*
X2182545Y1552455D01*
X2178455Y1554499D01*
X2174363Y1558591D01*
X2172317Y1562681D01*
X2138364Y1595408D02*
G01*
X2138364Y1562681D01*
X2140408Y1556545D01*
X2142455Y1554499D01*
X2146544Y1552455D01*
X2150636Y1552455D01*
X2154727Y1554499D01*
X2156773Y1556545D01*
X2158818Y1562681D01*
X2158818Y1566772D01*
X2124863Y1595408D02*
G01*
X2124863Y1552455D01*
X2124863Y1552455D02*
G01*
X2100317Y1552455D01*
X2056135Y1585181D02*
G01*
X2058181Y1589272D01*
X2062272Y1593364D01*
X2066364Y1595408D01*
X2074544Y1595408D01*
X2078635Y1593364D01*
X2082727Y1589272D01*
X2084772Y1585181D01*
X2086818Y1579045D01*
X2086818Y1568818D01*
X2084772Y1562681D01*
X2082727Y1558591D01*
X2078635Y1554499D01*
X2074544Y1552455D01*
X2066364Y1552455D01*
X2062272Y1554499D01*
X2058181Y1558591D01*
X2056135Y1562681D01*
X2022182Y1595408D02*
G01*
X2022182Y1562681D01*
X2024227Y1556545D01*
X2026273Y1554499D01*
X2030363Y1552455D01*
X2034454Y1552455D01*
X2038545Y1554499D01*
X2040591Y1556545D01*
X2042636Y1562681D01*
X2042636Y1566772D01*
X2008681Y1595408D02*
G01*
X2008681Y1552455D01*
X2008681Y1552455D02*
G01*
X1984135Y1552455D01*
X1939955Y1585181D02*
G01*
X1941999Y1589272D01*
X1946090Y1593364D01*
X1950182Y1595408D01*
X1958364Y1595408D01*
X1962455Y1593364D01*
X1966544Y1589272D01*
X1968590Y1585181D01*
X1970636Y1579045D01*
X1970636Y1568818D01*
X1968590Y1562681D01*
X1966544Y1558591D01*
X1962455Y1554499D01*
X1958364Y1552455D01*
X1950182Y1552455D01*
X1946090Y1554499D01*
X1941999Y1558591D01*
X1939955Y1562681D01*
X1906000Y1595408D02*
G01*
X1906000Y1562681D01*
X1908045Y1556545D01*
X1910091Y1554499D01*
X1914182Y1552455D01*
X1918272Y1552455D01*
X1922363Y1554499D01*
X1924408Y1556545D01*
X1926454Y1562681D01*
X1926454Y1566772D01*
X1892500Y1595408D02*
G01*
X1892500Y1552455D01*
X1892500Y1552455D02*
G01*
X1867955Y1552455D01*
X1823773Y1585181D02*
G01*
X1825817Y1589272D01*
X1829908Y1593364D01*
X1833999Y1595408D01*
X1842182Y1595408D01*
X1846273Y1593364D01*
X1850363Y1589272D01*
X1852408Y1585181D01*
X1854454Y1579045D01*
X1854454Y1568818D01*
X1852408Y1562681D01*
X1850363Y1558591D01*
X1846273Y1554499D01*
X1842182Y1552455D01*
X1833999Y1552455D01*
X1829908Y1554499D01*
X1825817Y1558591D01*
X1823773Y1562681D01*
X2784830Y1138841D02*
G01*
X2781193Y1135205D01*
X2775739Y1133386D01*
X2768465Y1133386D01*
X2763010Y1135205D01*
X2759375Y1138841D01*
X2759375Y1142476D01*
X2761193Y1146113D01*
X2763010Y1147932D01*
X2766647Y1149749D01*
X2777556Y1153386D01*
X2781193Y1155205D01*
X2783010Y1157022D01*
X2784830Y1160659D01*
X2784830Y1166113D01*
X2781193Y1169749D01*
X2775739Y1171568D01*
X2768465Y1171568D01*
X2763010Y1169749D01*
X2759375Y1166113D01*
X2807739Y1133386D02*
G01*
X2802283Y1135205D01*
X2798648Y1140659D01*
X2796830Y1149749D01*
X2796830Y1155205D01*
X2798648Y1164295D01*
X2802283Y1169749D01*
X2807739Y1171568D01*
X2811374Y1171568D01*
X2816830Y1169749D01*
X2820465Y1164295D01*
X2822283Y1155205D01*
X2822283Y1149749D01*
X2820465Y1140659D01*
X2816830Y1135205D01*
X2811374Y1133386D01*
X2807739Y1133386D01*
X2172100Y370625D02*
G01*
X2210299Y370625D01*
X2172100Y370625D02*
G01*
X2172100Y347024D01*
X2190299Y370625D02*
G01*
X2190299Y356125D01*
X2210299Y370625D02*
G01*
X2210299Y347024D01*
X2172100Y324124D02*
G01*
X2173999Y329524D01*
X2179399Y333125D01*
X2188500Y335025D01*
X2193999Y335025D01*
X2203000Y333125D01*
X2208500Y329524D01*
X2210299Y324124D01*
X2210299Y320425D01*
X2208500Y315025D01*
X2203000Y311325D01*
X2193999Y309524D01*
X2188500Y309524D01*
X2179399Y311325D01*
X2173999Y315025D01*
X2172100Y320425D01*
X2172100Y324124D01*
X2915850Y370000D02*
G01*
X2954049Y370000D01*
X2915850Y370000D02*
G01*
X2915850Y346399D01*
X2934049Y370000D02*
G01*
X2934049Y355500D01*
X2954049Y370000D02*
G01*
X2954049Y346399D01*
X2923149Y334400D02*
G01*
X2921350Y330700D01*
X2915850Y325300D01*
X2954049Y325300D01*
X1366620Y182829D02*
G01*
X1378119Y152730D01*
X1366620Y182829D02*
G01*
X1355219Y152730D01*
X1373819Y162730D02*
G01*
X1359520Y162730D01*
X1337219Y182829D02*
G01*
X1341520Y181329D01*
X1344319Y177130D01*
X1345720Y169929D01*
X1345720Y165630D01*
X1344319Y158429D01*
X1341520Y154130D01*
X1337219Y152730D01*
X1334319Y152730D01*
X1330020Y154130D01*
X1327120Y158429D01*
X1325720Y165630D01*
X1325720Y169929D01*
X1327120Y177130D01*
X1330020Y181329D01*
X1334319Y182829D01*
X1337219Y182829D01*
X1272870Y182829D02*
G01*
X1284369Y152730D01*
X1272870Y182829D02*
G01*
X1261469Y152730D01*
X1280069Y162730D02*
G01*
X1265770Y162730D01*
X1251970Y177130D02*
G01*
X1249170Y178530D01*
X1244870Y182829D01*
X1244870Y152730D01*
X2330716Y498011D02*
G01*
X2363442Y498011D01*
X2347079Y514375D02*
G01*
X2347079Y481648D01*
X3074466Y497386D02*
G01*
X3107192Y497386D01*
X3090829Y513750D02*
G01*
X3090829Y481023D01*
D10*
X1631244Y2185731D02*
G01*
X1631244Y2109369D01*
X1631244Y2185731D02*
G01*
X1602154Y2109369D01*
X1573063Y2185731D02*
G01*
X1602154Y2109369D01*
X1573063Y2185731D02*
G01*
X1573063Y2109369D01*
X1493063Y2185731D02*
G01*
X1493063Y2109369D01*
X1493063Y2109369D02*
G01*
X1449426Y2109369D01*
X1425426Y2138460D02*
G01*
X1381790Y2138460D01*
X1381790Y2145731D01*
X1385426Y2153004D01*
X1389062Y2156640D01*
X1396336Y2160277D01*
X1407245Y2160277D01*
X1414517Y2156640D01*
X1421790Y2149369D01*
X1425426Y2138460D01*
X1425426Y2131187D01*
X1421790Y2120277D01*
X1414517Y2113004D01*
X1407245Y2109369D01*
X1396336Y2109369D01*
X1389062Y2113004D01*
X1381790Y2120277D01*
X1328699Y2185731D02*
G01*
X1335972Y2185731D01*
X1343244Y2182096D01*
X1346881Y2171187D01*
X1346881Y2109369D01*
X1357790Y2160277D02*
G01*
X1332335Y2160277D01*
X1293789Y2185731D02*
G01*
X1293789Y2123913D01*
X1290154Y2113004D01*
X1282880Y2109369D01*
X1275609Y2109369D01*
X1304700Y2160277D02*
G01*
X1279245Y2160277D01*
X1631244Y1866981D02*
G01*
X1631244Y1790619D01*
X1631244Y1866981D02*
G01*
X1602154Y1790619D01*
X1573063Y1866981D02*
G01*
X1602154Y1790619D01*
X1573063Y1866981D02*
G01*
X1573063Y1790619D01*
X1493063Y1866981D02*
G01*
X1493063Y1790619D01*
X1493063Y1866981D02*
G01*
X1460335Y1866981D01*
X1449426Y1863346D01*
X1445789Y1859710D01*
X1442154Y1852437D01*
X1442154Y1845163D01*
X1445789Y1837890D01*
X1449426Y1834254D01*
X1460335Y1830619D01*
X1493063Y1830619D01*
X1467609Y1830619D02*
G01*
X1442154Y1790619D01*
X1418154Y1866981D02*
G01*
X1414517Y1863346D01*
X1410880Y1866981D01*
X1414517Y1870619D01*
X1418154Y1866981D01*
X1414517Y1841527D02*
G01*
X1414517Y1790619D01*
X1343244Y1841527D02*
G01*
X1343244Y1783346D01*
X1346881Y1772437D01*
X1350518Y1768800D01*
X1357790Y1765163D01*
X1368699Y1765163D01*
X1375972Y1768800D01*
X1343244Y1830619D02*
G01*
X1350518Y1837890D01*
X1357790Y1841527D01*
X1368699Y1841527D01*
X1375972Y1837890D01*
X1383244Y1830619D01*
X1386881Y1819710D01*
X1386881Y1812437D01*
X1383244Y1801527D01*
X1375972Y1794254D01*
X1368699Y1790619D01*
X1357790Y1790619D01*
X1350518Y1794254D01*
X1343244Y1801527D01*
X1319245Y1866981D02*
G01*
X1319245Y1790619D01*
X1319245Y1826981D02*
G01*
X1308335Y1837890D01*
X1301063Y1841527D01*
X1290154Y1841527D01*
X1282880Y1837890D01*
X1279245Y1826981D01*
X1279245Y1790619D01*
X1244336Y1866981D02*
G01*
X1244336Y1805163D01*
X1240699Y1794254D01*
X1233427Y1790619D01*
X1226153Y1790619D01*
X1255245Y1841527D02*
G01*
X1229790Y1841527D01*
D39*
X3090829Y210625D02*
G01*
X3090829Y177898D01*
X2347079Y211250D02*
G01*
X2347079Y178523D01*
X1231244Y1249027D02*
G01*
X1231244Y1220390D01*
X1231244Y1249027D02*
G01*
X1218972Y1249027D01*
X1214880Y1247663D01*
X1213518Y1246300D01*
X1212154Y1243573D01*
X1212154Y1240846D01*
X1213518Y1238119D01*
X1214880Y1236754D01*
X1218972Y1235390D01*
X1231244Y1235390D01*
X1221700Y1235390D02*
G01*
X1212154Y1220390D01*
X1203154Y1249027D02*
G01*
X1184062Y1220390D01*
X1184062Y1249027D02*
G01*
X1203154Y1220390D01*
X1175063Y1249027D02*
G01*
X1175063Y1220390D01*
X1175063Y1249027D02*
G01*
X1165518Y1249027D01*
X1161427Y1247663D01*
X1158699Y1244937D01*
X1157335Y1242210D01*
X1155972Y1238119D01*
X1155972Y1231300D01*
X1157335Y1227210D01*
X1158699Y1224481D01*
X1161427Y1221754D01*
X1165518Y1220390D01*
X1175063Y1220390D01*
X1221700Y1152152D02*
G01*
X1221700Y1123515D01*
X1231244Y1152152D02*
G01*
X1212154Y1152152D01*
X1203154Y1152152D02*
G01*
X1184062Y1123515D01*
X1184062Y1152152D02*
G01*
X1203154Y1123515D01*
X1175063Y1152152D02*
G01*
X1175063Y1123515D01*
X1175063Y1152152D02*
G01*
X1165518Y1152152D01*
X1161427Y1150788D01*
X1158699Y1148062D01*
X1157335Y1145335D01*
X1155972Y1141244D01*
X1155972Y1134425D01*
X1157335Y1130335D01*
X1158699Y1127606D01*
X1161427Y1124879D01*
X1165518Y1123515D01*
X1175063Y1123515D01*
X1210789Y1042210D02*
G01*
X1212154Y1044936D01*
X1214880Y1047663D01*
X1217609Y1049027D01*
X1223063Y1049027D01*
X1225789Y1047663D01*
X1228518Y1044936D01*
X1229880Y1042210D01*
X1231244Y1038119D01*
X1231244Y1031300D01*
X1229880Y1027210D01*
X1228518Y1024481D01*
X1225789Y1021754D01*
X1223063Y1020390D01*
X1217609Y1020390D01*
X1214880Y1021754D01*
X1212154Y1024481D01*
X1210789Y1027210D01*
X1210789Y1031300D01*
X1217609Y1031300D02*
G01*
X1210789Y1031300D01*
X1201790Y1049027D02*
G01*
X1201790Y1020390D01*
X1201790Y1049027D02*
G01*
X1182700Y1020390D01*
X1182700Y1049027D02*
G01*
X1182700Y1020390D01*
X1173699Y1049027D02*
G01*
X1173699Y1020390D01*
X1173699Y1049027D02*
G01*
X1164153Y1049027D01*
X1160063Y1047663D01*
X1157335Y1044936D01*
X1155972Y1042210D01*
X1154609Y1038119D01*
X1154609Y1031300D01*
X1155972Y1027210D01*
X1157335Y1024481D01*
X1160063Y1021754D01*
X1164153Y1020390D01*
X1173699Y1020390D01*
X1231244Y949027D02*
G01*
X1220335Y920390D01*
X1209426Y949027D02*
G01*
X1220335Y920390D01*
X1179971Y942210D02*
G01*
X1181336Y944936D01*
X1184062Y947663D01*
X1186790Y949027D01*
X1192245Y949027D01*
X1194971Y947663D01*
X1197700Y944936D01*
X1199062Y942210D01*
X1200426Y938119D01*
X1200426Y931300D01*
X1199062Y927210D01*
X1197700Y924481D01*
X1194971Y921754D01*
X1192245Y920390D01*
X1186790Y920390D01*
X1184062Y921754D01*
X1181336Y924481D01*
X1179971Y927210D01*
X1150518Y942210D02*
G01*
X1151881Y944936D01*
X1154609Y947663D01*
X1157335Y949027D01*
X1162790Y949027D01*
X1165518Y947663D01*
X1168244Y944936D01*
X1169609Y942210D01*
X1170972Y938119D01*
X1170972Y931300D01*
X1169609Y927210D01*
X1168244Y924481D01*
X1165518Y921754D01*
X1162790Y920390D01*
X1157335Y920390D01*
X1154609Y921754D01*
X1151881Y924481D01*
X1150518Y927210D01*
X2071336Y2188640D02*
G01*
X2104062Y2188640D01*
X2087700Y2205005D02*
G01*
X2087700Y2172278D01*
X2071336Y1869890D02*
G01*
X2104062Y1869890D01*
X2087700Y1886255D02*
G01*
X2087700Y1853528D01*
X208836Y1873015D02*
G01*
X241563Y1873015D01*
X225199Y1889380D02*
G01*
X225199Y1856653D01*
X208836Y2191765D02*
G01*
X241563Y2191765D01*
X225199Y2208130D02*
G01*
X225199Y2175403D01*
X1140619Y299027D02*
G01*
X1140619Y270390D01*
X1140619Y299027D02*
G01*
X1128347Y299027D01*
X1124255Y297663D01*
X1122893Y296300D01*
X1121529Y293573D01*
X1121529Y290846D01*
X1122893Y288119D01*
X1124255Y286754D01*
X1128347Y285390D01*
X1140619Y285390D01*
X1131075Y285390D02*
G01*
X1121529Y270390D01*
X1112529Y299027D02*
G01*
X1093437Y270390D01*
X1093437Y299027D02*
G01*
X1112529Y270390D01*
X1084438Y299027D02*
G01*
X1084438Y270390D01*
X1084438Y299027D02*
G01*
X1074893Y299027D01*
X1070802Y297663D01*
X1068074Y294936D01*
X1066710Y292210D01*
X1065347Y288119D01*
X1065347Y281300D01*
X1066710Y277210D01*
X1068074Y274481D01*
X1070802Y271754D01*
X1074893Y270390D01*
X1084438Y270390D01*
X1431075Y599023D02*
G01*
X1431075Y570385D01*
X1440619Y599023D02*
G01*
X1421529Y599023D01*
X1412529Y599023D02*
G01*
X1393437Y570385D01*
X1393437Y599023D02*
G01*
X1412529Y570385D01*
X1384438Y599023D02*
G01*
X1384438Y570385D01*
X1384438Y599023D02*
G01*
X1374893Y599023D01*
X1370802Y597658D01*
X1368074Y594931D01*
X1366710Y592204D01*
X1365347Y588114D01*
X1365347Y581295D01*
X1366710Y577204D01*
X1368074Y574477D01*
X1370802Y571750D01*
X1374893Y570385D01*
X1384438Y570385D01*
X1123289Y592210D02*
G01*
X1124654Y594936D01*
X1127380Y597663D01*
X1130109Y599027D01*
X1135563Y599027D01*
X1138289Y597663D01*
X1141018Y594936D01*
X1142380Y592210D01*
X1143744Y588119D01*
X1143744Y581300D01*
X1142380Y577210D01*
X1141018Y574481D01*
X1138289Y571754D01*
X1135563Y570390D01*
X1130109Y570390D01*
X1127380Y571754D01*
X1124654Y574481D01*
X1123289Y577210D01*
X1123289Y581300D01*
X1130109Y581300D02*
G01*
X1123289Y581300D01*
X1114290Y599027D02*
G01*
X1114290Y570390D01*
X1114290Y599027D02*
G01*
X1095200Y570390D01*
X1095200Y599027D02*
G01*
X1095200Y570390D01*
X1086199Y599027D02*
G01*
X1086199Y570390D01*
X1086199Y599027D02*
G01*
X1076653Y599027D01*
X1072563Y597663D01*
X1069835Y594936D01*
X1068472Y592210D01*
X1067109Y588119D01*
X1067109Y581300D01*
X1068472Y577210D01*
X1069835Y574481D01*
X1072563Y571754D01*
X1076653Y570390D01*
X1086199Y570390D01*
X1444147Y299023D02*
G01*
X1429147Y299023D01*
X1437330Y288114D01*
X1433239Y288114D01*
X1430510Y286750D01*
X1429147Y285385D01*
X1427784Y281295D01*
X1427784Y278568D01*
X1429147Y274477D01*
X1431875Y271750D01*
X1435965Y270385D01*
X1440056Y270385D01*
X1444147Y271750D01*
X1445510Y273114D01*
X1446875Y275841D01*
X1418783Y299023D02*
G01*
X1407875Y270385D01*
X1396966Y299023D02*
G01*
X1407875Y270385D01*
X1385239Y299023D02*
G01*
X1370239Y299023D01*
X1378419Y288114D01*
X1374330Y288114D01*
X1371602Y286750D01*
X1370239Y285385D01*
X1368874Y281295D01*
X1368874Y278568D01*
X1370239Y274477D01*
X1372965Y271750D01*
X1377057Y270385D01*
X1381148Y270385D01*
X1385239Y271750D01*
X1386602Y273114D01*
X1387965Y275841D01*
X2396341Y1013636D02*
G01*
X2429067Y1013636D01*
X2412704Y1030000D02*
G01*
X2412704Y997273D01*
X2212955Y1138841D02*
G01*
X2209318Y1135205D01*
X2203864Y1133386D01*
X2196590Y1133386D01*
X2191135Y1135205D01*
X2187500Y1138841D01*
X2187500Y1142476D01*
X2189318Y1146113D01*
X2191135Y1147932D01*
X2194772Y1149749D01*
X2205681Y1153386D01*
X2209318Y1155205D01*
X2211135Y1157022D01*
X2212955Y1160659D01*
X2212955Y1166113D01*
X2209318Y1169749D01*
X2203864Y1171568D01*
X2196590Y1171568D01*
X2191135Y1169749D01*
X2187500Y1166113D01*
X2224955Y1140659D02*
G01*
X2228590Y1138841D01*
X2234044Y1133386D01*
X2234044Y1171568D01*
X1287500Y692274D02*
G01*
X1277299Y649375D01*
X1266999Y692274D02*
G01*
X1277299Y649375D01*
X1266999Y692274D02*
G01*
X1256800Y649375D01*
X1246599Y692274D02*
G01*
X1256800Y649375D01*
X1233100Y692274D02*
G01*
X1233100Y649375D01*
X1233100Y692274D02*
G01*
X1206499Y692274D01*
X1233100Y671875D02*
G01*
X1216700Y671875D01*
X3030180Y2069167D02*
G01*
X3030180Y2040531D01*
X3030180Y2069167D02*
G01*
X3020635Y2069167D01*
X3016544Y2067804D01*
X3013815Y2065077D01*
X3012452Y2062350D01*
X3011089Y2058258D01*
X3011089Y2051439D01*
X3012452Y2047350D01*
X3013815Y2044621D01*
X3016544Y2041894D01*
X3020635Y2040531D01*
X3030180Y2040531D01*
X2999362Y2069167D02*
G01*
X2984362Y2069167D01*
X2992543Y2058258D01*
X2988452Y2058258D01*
X2985725Y2056894D01*
X2984362Y2055531D01*
X2982997Y2051439D01*
X2982997Y2048712D01*
X2984362Y2044621D01*
X2987088Y2041894D01*
X2991180Y2040531D01*
X2995271Y2040531D01*
X2999362Y2041894D01*
X3000725Y2043258D01*
X3002088Y2045985D01*
X1537494Y1257905D02*
G01*
X1537494Y1215005D01*
X1537494Y1257905D02*
G01*
X1519094Y1257905D01*
X1512995Y1255904D01*
X1510895Y1253805D01*
X1508895Y1249704D01*
X1508895Y1245605D01*
X1510895Y1241505D01*
X1512995Y1239504D01*
X1519094Y1237505D01*
X1537494Y1237505D01*
X1523194Y1237505D02*
G01*
X1508895Y1215005D01*
X1466694Y1251804D02*
G01*
X1470794Y1255904D01*
X1476994Y1257905D01*
X1485095Y1257905D01*
X1491295Y1255904D01*
X1495394Y1251804D01*
X1495394Y1247705D01*
X1493294Y1243604D01*
X1491295Y1241505D01*
X1487195Y1239504D01*
X1474894Y1235405D01*
X1470794Y1233404D01*
X1468795Y1231305D01*
X1466694Y1227204D01*
X1466694Y1221104D01*
X1470794Y1217004D01*
X1476994Y1215005D01*
X1485095Y1215005D01*
X1491295Y1217004D01*
X1495394Y1221104D01*
X1438895Y1257905D02*
G01*
X1438895Y1215005D01*
X1453194Y1257905D02*
G01*
X1424594Y1257905D01*
X1334375Y1348530D02*
G01*
X1334375Y1305630D01*
X1334375Y1348530D02*
G01*
X1315974Y1348530D01*
X1309875Y1346529D01*
X1307775Y1344430D01*
X1305775Y1340329D01*
X1305775Y1336230D01*
X1307775Y1332130D01*
X1309875Y1330129D01*
X1315974Y1328130D01*
X1334375Y1328130D02*
G01*
X1315974Y1328130D01*
X1309875Y1326030D01*
X1307775Y1324029D01*
X1305775Y1319929D01*
X1305775Y1313730D01*
X1307775Y1309630D01*
X1309875Y1307629D01*
X1315974Y1305630D01*
X1334375Y1305630D01*
X1277875Y1348530D02*
G01*
X1277875Y1305630D01*
X1292274Y1348530D02*
G01*
X1263575Y1348530D01*
X2146869Y1935277D02*
G01*
X2146869Y1906640D01*
X2146869Y1935277D02*
G01*
X2135960Y1906640D01*
X2125051Y1935277D02*
G01*
X2135960Y1906640D01*
X2125051Y1935277D02*
G01*
X2125051Y1906640D01*
X2107870Y1935277D02*
G01*
X2111961Y1933913D01*
X2114687Y1929823D01*
X2116051Y1923004D01*
X2116051Y1918913D01*
X2114687Y1912096D01*
X2111961Y1908004D01*
X2107870Y1906640D01*
X2105142Y1906640D01*
X2101051Y1908004D01*
X2098325Y1912096D01*
X2096961Y1918913D01*
X2096961Y1923004D01*
X2098325Y1929823D01*
X2101051Y1933913D01*
X2105142Y1935277D01*
X2107870Y1935277D01*
X2067506Y1928460D02*
G01*
X2068869Y1931187D01*
X2071597Y1933913D01*
X2074324Y1935277D01*
X2079778Y1935277D01*
X2082506Y1933913D01*
X2085234Y1931187D01*
X2086597Y1928460D01*
X2087960Y1924369D01*
X2087960Y1917550D01*
X2086597Y1913460D01*
X2085234Y1910731D01*
X2082506Y1908004D01*
X2079778Y1906640D01*
X2074324Y1906640D01*
X2071597Y1908004D01*
X2068869Y1910731D01*
X2067506Y1913460D01*
X546869Y1935277D02*
G01*
X546869Y1906640D01*
X546869Y1935277D02*
G01*
X535961Y1906640D01*
X525052Y1935277D02*
G01*
X535961Y1906640D01*
X525052Y1935277D02*
G01*
X525052Y1906640D01*
X507869Y1935277D02*
G01*
X511961Y1933913D01*
X514688Y1929823D01*
X516051Y1923004D01*
X516051Y1918913D01*
X514688Y1912096D01*
X511961Y1908004D01*
X507869Y1906640D01*
X505142Y1906640D01*
X501051Y1908004D01*
X498324Y1912096D01*
X496961Y1918913D01*
X496961Y1923004D01*
X498324Y1929823D01*
X501051Y1933913D01*
X505142Y1935277D01*
X507869Y1935277D01*
X487961Y1935277D02*
G01*
X487961Y1906640D01*
X487961Y1935277D02*
G01*
X478414Y1935277D01*
X474324Y1933913D01*
X471597Y1931187D01*
X470234Y1928460D01*
X468870Y1924369D01*
X468870Y1917550D01*
X470234Y1913460D01*
X471597Y1910731D01*
X474324Y1908004D01*
X478414Y1906640D01*
X487961Y1906640D01*
X1843744Y1935277D02*
G01*
X1843744Y1906640D01*
X1843744Y1935277D02*
G01*
X1832835Y1906640D01*
X1821926Y1935277D02*
G01*
X1832835Y1906640D01*
X1821926Y1935277D02*
G01*
X1821926Y1906640D01*
X1812926Y1929823D02*
G01*
X1810200Y1931187D01*
X1806108Y1935277D01*
X1806108Y1906640D01*
X1776653Y1928460D02*
G01*
X1778018Y1931187D01*
X1780744Y1933913D01*
X1783472Y1935277D01*
X1788927Y1935277D01*
X1791653Y1933913D01*
X1794381Y1931187D01*
X1795744Y1928460D01*
X1797109Y1924369D01*
X1797109Y1917550D01*
X1795744Y1913460D01*
X1794381Y1910731D01*
X1791653Y1908004D01*
X1788927Y1906640D01*
X1783472Y1906640D01*
X1780744Y1908004D01*
X1778018Y1910731D01*
X1776653Y1913460D01*
X243744Y1935277D02*
G01*
X243744Y1906640D01*
X243744Y1935277D02*
G01*
X232836Y1906640D01*
X221927Y1935277D02*
G01*
X232836Y1906640D01*
X221927Y1935277D02*
G01*
X221927Y1906640D01*
X212926Y1929823D02*
G01*
X210199Y1931187D01*
X206109Y1935277D01*
X206109Y1906640D01*
X197109Y1935277D02*
G01*
X197109Y1906640D01*
X197109Y1935277D02*
G01*
X187563Y1935277D01*
X183472Y1933913D01*
X180745Y1931187D01*
X179380Y1928460D01*
X178018Y1924369D01*
X178018Y1917550D01*
X179380Y1913460D01*
X180745Y1910731D01*
X183472Y1908004D01*
X187563Y1906640D01*
X197109Y1906640D01*
X2146869Y2254034D02*
G01*
X2146869Y2225435D01*
X2146869Y2254034D02*
G01*
X2135969Y2225435D01*
X2125069Y2254034D02*
G01*
X2135969Y2225435D01*
X2125069Y2254034D02*
G01*
X2125069Y2225435D01*
X2107870Y2254034D02*
G01*
X2111970Y2252635D01*
X2114669Y2248535D01*
X2116069Y2241734D01*
X2116069Y2237635D01*
X2114669Y2230835D01*
X2111970Y2226734D01*
X2107870Y2225435D01*
X2105169Y2225435D01*
X2101069Y2226734D01*
X2098370Y2230835D01*
X2096970Y2237635D01*
X2096970Y2241734D01*
X2098370Y2248535D01*
X2101069Y2252635D01*
X2105169Y2254034D01*
X2107870Y2254034D01*
X2077070Y2254034D02*
G01*
X2087969Y2225435D01*
X2077070Y2254034D02*
G01*
X2066170Y2225435D01*
X2083869Y2234935D02*
G01*
X2070270Y2234935D01*
X546869Y2254034D02*
G01*
X546869Y2225435D01*
X546869Y2254034D02*
G01*
X535970Y2225435D01*
X525070Y2254034D02*
G01*
X535970Y2225435D01*
X525070Y2254034D02*
G01*
X525070Y2225435D01*
X507869Y2254034D02*
G01*
X511970Y2252635D01*
X514670Y2248535D01*
X516069Y2241734D01*
X516069Y2237635D01*
X514670Y2230835D01*
X511970Y2226734D01*
X507869Y2225435D01*
X505169Y2225435D01*
X501069Y2226734D01*
X498369Y2230835D01*
X496970Y2237635D01*
X496970Y2241734D01*
X498369Y2248535D01*
X501069Y2252635D01*
X505169Y2254034D01*
X507869Y2254034D01*
X487970Y2254034D02*
G01*
X487970Y2225435D01*
X487970Y2254034D02*
G01*
X475670Y2254034D01*
X471570Y2252635D01*
X470270Y2251334D01*
X468870Y2248535D01*
X468870Y2245835D01*
X470270Y2243135D01*
X471570Y2241734D01*
X475670Y2240435D01*
X487970Y2240435D02*
G01*
X475670Y2240435D01*
X471570Y2239034D01*
X470270Y2237635D01*
X468870Y2234935D01*
X468870Y2230835D01*
X470270Y2228135D01*
X471570Y2226734D01*
X475670Y2225435D01*
X487970Y2225435D01*
X1843744Y2254034D02*
G01*
X1843744Y2225435D01*
X1843744Y2254034D02*
G01*
X1832844Y2225435D01*
X1821944Y2254034D02*
G01*
X1832844Y2225435D01*
X1821944Y2254034D02*
G01*
X1821944Y2225435D01*
X1812944Y2248535D02*
G01*
X1810245Y2249935D01*
X1806144Y2254034D01*
X1806144Y2225435D01*
X1786244Y2254034D02*
G01*
X1797145Y2225435D01*
X1786244Y2254034D02*
G01*
X1775245Y2225435D01*
X1793045Y2234935D02*
G01*
X1779345Y2234935D01*
X243744Y2254034D02*
G01*
X243744Y2225435D01*
X243744Y2254034D02*
G01*
X232845Y2225435D01*
X221945Y2254034D02*
G01*
X232845Y2225435D01*
X221945Y2254034D02*
G01*
X221945Y2225435D01*
X212944Y2248535D02*
G01*
X210244Y2249935D01*
X206145Y2254034D01*
X206145Y2225435D01*
X197145Y2254034D02*
G01*
X197145Y2225435D01*
X197145Y2254034D02*
G01*
X184845Y2254034D01*
X180745Y2252635D01*
X179344Y2251334D01*
X178045Y2248535D01*
X178045Y2245835D01*
X179344Y2243135D01*
X180745Y2241734D01*
X184845Y2240435D01*
X197145Y2240435D02*
G01*
X184845Y2240435D01*
X180745Y2239034D01*
X179344Y2237635D01*
X178045Y2234935D01*
X178045Y2230835D01*
X179344Y2228135D01*
X180745Y2226734D01*
X184845Y2225435D01*
X197145Y2225435D01*
X2780109Y2145907D02*
G01*
X2780109Y2124090D01*
X2781472Y2119998D01*
X2782835Y2118634D01*
X2785563Y2117271D01*
X2788289Y2117271D01*
X2791018Y2118634D01*
X2792380Y2119998D01*
X2793744Y2124090D01*
X2793744Y2126817D01*
X2754745Y2141817D02*
G01*
X2756108Y2144544D01*
X2760200Y2145907D01*
X2762926Y2145907D01*
X2767017Y2144544D01*
X2769745Y2140453D01*
X2771108Y2133634D01*
X2771108Y2126817D01*
X2769745Y2121361D01*
X2767017Y2118634D01*
X2762926Y2117271D01*
X2761562Y2117271D01*
X2757471Y2118634D01*
X2754745Y2121361D01*
X2753380Y2125453D01*
X2753380Y2126817D01*
X2754745Y2130907D01*
X2757471Y2133634D01*
X2761562Y2134998D01*
X2762926Y2134998D01*
X2767017Y2133634D01*
X2769745Y2130907D01*
X2771108Y2126817D01*
X2508224Y2194032D02*
G01*
X2508224Y2172215D01*
X2509587Y2168123D01*
X2510950Y2166759D01*
X2513678Y2165396D01*
X2516405Y2165396D01*
X2519133Y2166759D01*
X2520496Y2168123D01*
X2521859Y2172215D01*
X2521859Y2174942D01*
X2485586Y2194032D02*
G01*
X2499224Y2174942D01*
X2478769Y2174942D01*
X2485586Y2194032D02*
G01*
X2485586Y2165396D01*
D10*
X1925523Y401250D02*
G01*
X2001886Y401250D01*
X1925523Y401250D02*
G01*
X1925523Y353976D01*
X1961886Y401250D02*
G01*
X1961886Y372159D01*
X2001886Y401250D02*
G01*
X2001886Y353976D01*
X1925523Y329976D02*
G01*
X2001886Y329976D01*
X2001886Y329976D02*
G01*
X2001886Y286341D01*
X2669273Y401250D02*
G01*
X2745636Y401250D01*
X2669273Y401250D02*
G01*
X2669273Y353976D01*
X2705636Y401250D02*
G01*
X2705636Y372159D01*
X2745636Y401250D02*
G01*
X2745636Y353976D01*
X2669273Y329976D02*
G01*
X2745636Y329976D01*
X2669273Y329976D02*
G01*
X2669273Y297249D01*
X2672908Y286341D01*
X2676544Y282705D01*
X2683818Y279068D01*
X2691090Y279068D01*
X2698364Y282705D01*
X2701999Y286341D01*
X2705636Y297249D01*
X2705636Y329976D01*
X2705636Y304522D02*
G01*
X2745636Y279068D01*
D39*
X3212500Y1743699D02*
G01*
X2437500Y1743699D01*
X2437500Y2271900D01*
X2306244Y2264380D02*
G01*
X6244Y2264380D01*
X6244Y2014380D01*
X2306244Y2014380D01*
X2306244Y2264380D01*
X2306244Y1945630D02*
G01*
X6244Y1945630D01*
X6244Y1695630D01*
X2306244Y1695630D01*
X2306244Y1945630D01*
D44*
X2637500Y787500D02*
G01*
X3090600Y1068750D01*
X3090600Y1228148D01*
X2637500Y1512500D01*
X2600000Y1650000D01*
X2400000Y1650000D01*
X2362500Y1512500D01*
X1909399Y1224951D01*
X1909399Y1074951D01*
X2362500Y787500D01*
X2400000Y650000D01*
X2600000Y650000D01*
X2637500Y787500D01*
D39*
X0Y1625000D02*
G01*
X1725000Y1625000D01*
X1725000Y0D01*
D10*
X2506869Y1054385D02*
G01*
X2506869Y1251235D01*
X2743090Y1054385D02*
G01*
X2743090Y1251235D01*
X2743090Y1251235D02*
G01*
X2506869Y1251235D01*
X2743090Y1054385D02*
G01*
X2506869Y1054385D01*
X2659056Y1054385D02*
G01*
X2659056Y1073125D01*
X2595000Y1073125D01*
X2595000Y1054385D01*
X2256869Y1054385D02*
G01*
X2256869Y1251235D01*
X2493090Y1054385D02*
G01*
X2493090Y1251235D01*
X2493090Y1251235D02*
G01*
X2256869Y1251235D01*
X2493090Y1054385D02*
G01*
X2256869Y1054385D01*
X2409056Y1054385D02*
G01*
X2409056Y1073125D01*
X2345000Y1073125D01*
X2345000Y1054385D01*
D41*
X1350000Y234375D02*
G01*
X1150000Y234375D01*
X1150000Y634375D01*
X1350000Y634375D01*
X1350000Y234375D01*
D10*
X2948125Y2222500D02*
G01*
X2948125Y2201500D01*
X2935124Y2114499D02*
G01*
X2960124Y2114499D01*
X2947124Y2098499D02*
G01*
X2947124Y2130499D01*
D39*
X3036054Y2236365D02*
G01*
X2920195Y2236365D01*
X2920195Y2088634D01*
X3036054Y2088634D01*
X3036054Y2236365D01*
D10*
X1383760Y1193130D02*
G01*
X1580609Y1193130D01*
X1383760Y956909D02*
G01*
X1580609Y956909D01*
X1580609Y956909D02*
G01*
X1580609Y1193130D01*
X1383760Y956909D02*
G01*
X1383760Y1193130D01*
X1383760Y1040943D02*
G01*
X1402500Y1040943D01*
X1402500Y1105000D01*
X1383760Y1105000D01*
X3169364Y226869D02*
G01*
X2972515Y226869D01*
X3169364Y463090D02*
G01*
X2972515Y463090D01*
X2972515Y463090D02*
G01*
X2972515Y226869D01*
X3169364Y463090D02*
G01*
X3169364Y226869D01*
X3169364Y379056D02*
G01*
X3150625Y379056D01*
X3150625Y315000D01*
X3169364Y315000D01*
X2425614Y227494D02*
G01*
X2228765Y227494D01*
X2425614Y463715D02*
G01*
X2228765Y463715D01*
X2228765Y463715D02*
G01*
X2228765Y227494D01*
X2425614Y463715D02*
G01*
X2425614Y227494D01*
X2425614Y379681D02*
G01*
X2406875Y379681D01*
X2406875Y315625D01*
X2425614Y315625D01*
D41*
X1250000Y884375D02*
G01*
X1350000Y884375D01*
X1350000Y1284375D01*
X1250000Y1284375D01*
X1250000Y1209375D01*
D40*
X1250000Y884375D02*
G01*
X1250000Y1209375D01*
X1956244Y1720630D02*
G01*
X1956244Y1845630D01*
D41*
X1956244Y1720630D02*
G01*
X2056244Y1720630D01*
X2056244Y1920630D01*
X1956244Y1920630D01*
X1956244Y1845630D01*
D40*
X356244Y1720630D02*
G01*
X356244Y1845630D01*
D41*
X356244Y1720630D02*
G01*
X456244Y1720630D01*
X456244Y1920630D01*
X356244Y1920630D01*
X356244Y1845630D01*
D40*
X1856244Y1720630D02*
G01*
X1856244Y1845630D01*
D41*
X1856244Y1720630D02*
G01*
X1956244Y1720630D01*
X1956244Y1920630D01*
X1856244Y1920630D01*
X1856244Y1845630D01*
D40*
X256244Y1720630D02*
G01*
X256244Y1845630D01*
D41*
X256244Y1720630D02*
G01*
X356244Y1720630D01*
X356244Y1920630D01*
X256244Y1920630D01*
X256244Y1845630D01*
D40*
X1956244Y2039380D02*
G01*
X1956244Y2164380D01*
D41*
X1956244Y2039380D02*
G01*
X2056244Y2039380D01*
X2056244Y2239380D01*
X1956244Y2239380D01*
X1956244Y2164380D01*
D40*
X356244Y2039380D02*
G01*
X356244Y2164380D01*
D41*
X356244Y2039380D02*
G01*
X456244Y2039380D01*
X456244Y2239380D01*
X356244Y2239380D01*
X356244Y2164380D01*
D40*
X1856244Y2039380D02*
G01*
X1856244Y2164380D01*
D41*
X1856244Y2039380D02*
G01*
X1956244Y2039380D01*
X1956244Y2239380D01*
X1856244Y2239380D01*
X1856244Y2164380D01*
D40*
X256244Y2039380D02*
G01*
X256244Y2164380D01*
D41*
X256244Y2039380D02*
G01*
X356244Y2039380D01*
X356244Y2239380D01*
X256244Y2239380D01*
X256244Y2164380D01*
D40*
X2865625Y2156250D02*
G01*
X2740625Y2156250D01*
D41*
X2865625Y2156250D02*
G01*
X2865625Y2256250D01*
X2665625Y2256250D01*
X2665625Y2156250D01*
X2740625Y2156250D01*
X2546875Y2156250D02*
G01*
X2446875Y2156250D01*
X2446875Y1756250D01*
X2546875Y1756250D01*
X2546875Y1831250D01*
D40*
X2546875Y2156250D02*
G01*
X2546875Y1831250D01*
D10*
G75*
G01*
X3013125Y2212500D02*
G02*
X3013125Y2192500I0J-10000D01*
G75*
G01*
X3013125Y2172500D02*
G02*
X3013125Y2192500I0J10000D01*
G75*
G01*
X3013125Y2142500D02*
G02*
X3013125Y2122500I0J-10000D01*
G75*
G01*
X3013125Y2102500D02*
G02*
X3013125Y2122500I0J10000D01*
D39*
G75*
G01*
X2923125Y2182500D02*
G02*
X2923154Y2146500I14J-18000D01*
D13*
G75*
G01
X2451250Y343750D02*
G03X2451250Y343750I-326250J0D01*
G75*
G01
X3193750Y343750D02*
G03X3193750Y343750I-325000J0D01*
D48*
G75*
G01
X3068160Y2246200D02*
G03X3068160Y2246200I-5910J0D01*
M02*
