G04 Layer: BottomLayer*
G04 EasyEDA v6.4.30, 2022-01-25 10:33:58*
G04 5618020f384b45728b455be9ef3c0d3f,7d3f4a13764643a7838717c5c1d40531,10*
G04 Gerber Generator version 0.2*
G04 Scale: 100 percent, Rotated: No, Reflected: No *
G04 Dimensions in inches *
G04 leading zeros omitted , absolute positions ,3 integer and 6 decimal *
%FSLAX36Y36*%
%MOIN*%

%ADD11C,0.0200*%
%ADD12C,0.0150*%
%ADD13C,0.0250*%
%ADD14C,0.0300*%
%ADD15C,0.0400*%
%ADD16C,0.0240*%
%ADD25C,0.0600*%
%ADD26R,0.0620X0.0620*%
%ADD27C,0.0620*%
%ADD29C,0.0669*%
%ADD31R,0.0709X0.1024*%
%ADD32C,0.0740*%
%ADD33C,0.0650*%
%ADD34R,0.0591X0.0591*%
%ADD35C,0.0591*%
%ADD36C,0.0709*%
%ADD37C,0.0350*%

%LPD*%
G36*
X2444620Y1746879D02*
G01*
X2443100Y1747180D01*
X2441800Y1748040D01*
X2440920Y1749340D01*
X2440620Y1750880D01*
X2440620Y2257700D01*
X2440920Y2259240D01*
X2441800Y2260520D01*
X2443100Y2261400D01*
X2444620Y2261700D01*
X3197799Y2261700D01*
X3199340Y2261400D01*
X3200620Y2260520D01*
X3201500Y2259240D01*
X3201800Y2257700D01*
X3201800Y1750880D01*
X3201500Y1749340D01*
X3200620Y1748040D01*
X3199340Y1747180D01*
X3197799Y1746879D01*
G37*

%LPC*%
G36*
X2466100Y1765040D02*
G01*
X2527660Y1765040D01*
X2530140Y1765340D01*
X2532280Y1766080D01*
X2534220Y1767300D01*
X2535820Y1768899D01*
X2537040Y1770840D01*
X2537800Y1772980D01*
X2538080Y1775480D01*
X2538080Y1837020D01*
X2537800Y1839520D01*
X2537040Y1841660D01*
X2535820Y1843600D01*
X2534220Y1845200D01*
X2532280Y1846420D01*
X2530140Y1847160D01*
X2527660Y1847440D01*
X2466100Y1847440D01*
X2463620Y1847160D01*
X2461460Y1846420D01*
X2459540Y1845200D01*
X2457920Y1843600D01*
X2456700Y1841660D01*
X2455960Y1839520D01*
X2455680Y1837020D01*
X2455680Y1775480D01*
X2455960Y1772980D01*
X2456700Y1770840D01*
X2457920Y1768899D01*
X2459540Y1767300D01*
X2461460Y1766080D01*
X2463620Y1765340D01*
G37*
G36*
X3049160Y1825920D02*
G01*
X3119580Y1825920D01*
X3122080Y1826200D01*
X3124220Y1826960D01*
X3126160Y1828160D01*
X3127760Y1829780D01*
X3128980Y1831699D01*
X3129740Y1833860D01*
X3130020Y1836339D01*
X3130020Y1938260D01*
X3129740Y1940760D01*
X3128980Y1942900D01*
X3127760Y1944820D01*
X3126160Y1946440D01*
X3124220Y1947660D01*
X3122080Y1948400D01*
X3119580Y1948680D01*
X3049160Y1948680D01*
X3046680Y1948400D01*
X3044540Y1947660D01*
X3042600Y1946440D01*
X3041000Y1944820D01*
X3039780Y1942900D01*
X3039020Y1940760D01*
X3038740Y1938260D01*
X3038740Y1836339D01*
X3039020Y1833860D01*
X3039780Y1831699D01*
X3041000Y1829780D01*
X3042600Y1828160D01*
X3044540Y1826960D01*
X3046680Y1826200D01*
G37*
G36*
X2881520Y1826420D02*
G01*
X2887240Y1826420D01*
X2892919Y1827140D01*
X2898480Y1828560D01*
X2903800Y1830660D01*
X2908820Y1833420D01*
X2913460Y1836800D01*
X2917640Y1840720D01*
X2921280Y1845140D01*
X2924360Y1849980D01*
X2926800Y1855160D01*
X2928560Y1860600D01*
X2929640Y1866240D01*
X2930020Y1872080D01*
X2930020Y1903320D01*
X2929640Y1909160D01*
X2928560Y1914800D01*
X2926800Y1920240D01*
X2924360Y1925420D01*
X2921280Y1930260D01*
X2917640Y1934680D01*
X2913460Y1938600D01*
X2908820Y1941960D01*
X2903800Y1944720D01*
X2898480Y1946840D01*
X2892919Y1948260D01*
X2887240Y1948980D01*
X2881520Y1948980D01*
X2875820Y1948260D01*
X2870280Y1946840D01*
X2864960Y1944720D01*
X2859940Y1941960D01*
X2855299Y1938600D01*
X2851120Y1934680D01*
X2847460Y1930260D01*
X2844400Y1925420D01*
X2841960Y1920240D01*
X2840179Y1914800D01*
X2839120Y1909160D01*
X2838740Y1903320D01*
X2838740Y1872080D01*
X2839120Y1866240D01*
X2840179Y1860600D01*
X2841960Y1855160D01*
X2844400Y1849980D01*
X2847460Y1845140D01*
X2851120Y1840720D01*
X2855299Y1836800D01*
X2859940Y1833420D01*
X2864960Y1830660D01*
X2870280Y1828560D01*
X2875820Y1827140D01*
G37*
G36*
X3004600Y1830700D02*
G01*
X3008820Y1833040D01*
X3013460Y1836399D01*
X3017640Y1840320D01*
X3021280Y1844740D01*
X3024360Y1849580D01*
X3026800Y1854760D01*
X3028240Y1859220D01*
X3004600Y1859220D01*
G37*
G36*
X2964160Y1830700D02*
G01*
X2964160Y1859220D01*
X2940500Y1859220D01*
X2941960Y1854760D01*
X2944400Y1849580D01*
X2947460Y1844740D01*
X2951120Y1840320D01*
X2955299Y1836399D01*
X2959940Y1833040D01*
G37*
G36*
X2596880Y1865060D02*
G01*
X2602260Y1865420D01*
X2607540Y1866459D01*
X2612640Y1868200D01*
X2617480Y1870580D01*
X2621960Y1873580D01*
X2626000Y1877120D01*
X2629560Y1881180D01*
X2632540Y1885660D01*
X2634940Y1890480D01*
X2636660Y1895580D01*
X2637720Y1900880D01*
X2638060Y1906240D01*
X2637720Y1911620D01*
X2636660Y1916920D01*
X2634940Y1922020D01*
X2632540Y1926840D01*
X2629560Y1931320D01*
X2626000Y1935380D01*
X2621960Y1938920D01*
X2617480Y1941920D01*
X2612640Y1944300D01*
X2607540Y1946040D01*
X2602260Y1947080D01*
X2596880Y1947440D01*
X2591500Y1947080D01*
X2586220Y1946040D01*
X2581120Y1944300D01*
X2576280Y1941920D01*
X2571800Y1938920D01*
X2567740Y1935380D01*
X2564200Y1931320D01*
X2561200Y1926840D01*
X2558820Y1922020D01*
X2557080Y1916920D01*
X2556040Y1911620D01*
X2555680Y1906240D01*
X2556040Y1900880D01*
X2557080Y1895580D01*
X2558820Y1890480D01*
X2561200Y1885660D01*
X2564200Y1881180D01*
X2567740Y1877120D01*
X2571800Y1873580D01*
X2576280Y1870580D01*
X2581120Y1868200D01*
X2586220Y1866459D01*
X2591500Y1865420D01*
G37*
G36*
X2496880Y1865060D02*
G01*
X2502260Y1865420D01*
X2507540Y1866459D01*
X2512640Y1868200D01*
X2517480Y1870580D01*
X2521960Y1873580D01*
X2526000Y1877120D01*
X2529560Y1881180D01*
X2532540Y1885660D01*
X2534940Y1890480D01*
X2536660Y1895580D01*
X2537720Y1900880D01*
X2538060Y1906240D01*
X2537720Y1911620D01*
X2536660Y1916920D01*
X2534940Y1922020D01*
X2532540Y1926840D01*
X2529560Y1931320D01*
X2526000Y1935380D01*
X2521960Y1938920D01*
X2517480Y1941920D01*
X2512640Y1944300D01*
X2507540Y1946040D01*
X2502260Y1947080D01*
X2496880Y1947440D01*
X2491500Y1947080D01*
X2486220Y1946040D01*
X2481120Y1944300D01*
X2476280Y1941920D01*
X2471800Y1938920D01*
X2467740Y1935380D01*
X2464200Y1931320D01*
X2461200Y1926840D01*
X2458820Y1922020D01*
X2457080Y1916920D01*
X2456040Y1911620D01*
X2455680Y1906240D01*
X2456040Y1900880D01*
X2457080Y1895580D01*
X2458820Y1890480D01*
X2461200Y1885660D01*
X2464200Y1881180D01*
X2467740Y1877120D01*
X2471800Y1873580D01*
X2476280Y1870580D01*
X2481120Y1868200D01*
X2486220Y1866459D01*
X2491500Y1865420D01*
G37*
G36*
X2696880Y1865060D02*
G01*
X2702260Y1865420D01*
X2707540Y1866459D01*
X2712640Y1868200D01*
X2717480Y1870580D01*
X2721960Y1873580D01*
X2726000Y1877120D01*
X2729560Y1881180D01*
X2732540Y1885660D01*
X2734940Y1890480D01*
X2736660Y1895580D01*
X2737720Y1900880D01*
X2738060Y1906240D01*
X2737720Y1911620D01*
X2736660Y1916920D01*
X2734940Y1922020D01*
X2732540Y1926840D01*
X2729560Y1931320D01*
X2726000Y1935380D01*
X2723460Y1937620D01*
X2722440Y1938959D01*
X2722100Y1940620D01*
X2722100Y1971879D01*
X2722440Y1973540D01*
X2723460Y1974880D01*
X2726000Y1977120D01*
X2728260Y1979680D01*
X2729600Y1980700D01*
X2731259Y1981040D01*
X2831080Y1981040D01*
X2835400Y1981399D01*
X2839420Y1982420D01*
X2843240Y1984100D01*
X2846720Y1986380D01*
X2849780Y1989199D01*
X2852340Y1992480D01*
X2854320Y1996140D01*
X2855659Y2000060D01*
X2856360Y2004180D01*
X2856360Y2008320D01*
X2855659Y2012440D01*
X2854320Y2016360D01*
X2852340Y2020020D01*
X2849780Y2023300D01*
X2846720Y2026120D01*
X2843240Y2028400D01*
X2839420Y2030080D01*
X2835400Y2031100D01*
X2831080Y2031440D01*
X2731259Y2031440D01*
X2729600Y2031800D01*
X2728260Y2032820D01*
X2726000Y2035380D01*
X2721960Y2038920D01*
X2717480Y2041920D01*
X2712640Y2044300D01*
X2707540Y2046040D01*
X2702260Y2047080D01*
X2696880Y2047440D01*
X2691500Y2047080D01*
X2686220Y2046040D01*
X2681120Y2044300D01*
X2676280Y2041920D01*
X2671800Y2038920D01*
X2667740Y2035380D01*
X2664200Y2031320D01*
X2661200Y2026840D01*
X2658820Y2022020D01*
X2657080Y2016920D01*
X2656040Y2011620D01*
X2655680Y2006240D01*
X2656040Y2000880D01*
X2657080Y1995580D01*
X2658820Y1990480D01*
X2661200Y1985660D01*
X2664200Y1981180D01*
X2667740Y1977120D01*
X2670320Y1974860D01*
X2671340Y1973500D01*
X2671700Y1971860D01*
X2671700Y1940640D01*
X2671340Y1939000D01*
X2670320Y1937640D01*
X2667740Y1935380D01*
X2664200Y1931320D01*
X2661200Y1926840D01*
X2658820Y1922020D01*
X2657080Y1916920D01*
X2656040Y1911620D01*
X2655680Y1906240D01*
X2656040Y1900880D01*
X2657080Y1895580D01*
X2658820Y1890480D01*
X2661200Y1885660D01*
X2664200Y1881180D01*
X2667740Y1877120D01*
X2671800Y1873580D01*
X2676280Y1870580D01*
X2681120Y1868200D01*
X2686220Y1866459D01*
X2691500Y1865420D01*
G37*
G36*
X3004600Y1915400D02*
G01*
X3028240Y1915400D01*
X3026800Y1919840D01*
X3024360Y1925040D01*
X3021280Y1929880D01*
X3017640Y1934280D01*
X3013460Y1938200D01*
X3008820Y1941579D01*
X3004600Y1943899D01*
G37*
G36*
X2940500Y1915400D02*
G01*
X2964160Y1915400D01*
X2964160Y1943899D01*
X2959940Y1941579D01*
X2955299Y1938200D01*
X2951120Y1934280D01*
X2947460Y1929880D01*
X2944400Y1925040D01*
X2941960Y1919840D01*
G37*
G36*
X2596880Y1965060D02*
G01*
X2602260Y1965420D01*
X2607540Y1966459D01*
X2612640Y1968200D01*
X2617480Y1970580D01*
X2621960Y1973580D01*
X2626000Y1977120D01*
X2629560Y1981180D01*
X2632540Y1985660D01*
X2634940Y1990480D01*
X2636660Y1995580D01*
X2637720Y2000880D01*
X2638060Y2006240D01*
X2637720Y2011620D01*
X2636660Y2016920D01*
X2634940Y2022020D01*
X2632540Y2026840D01*
X2629560Y2031320D01*
X2626000Y2035380D01*
X2621960Y2038920D01*
X2617480Y2041920D01*
X2612640Y2044300D01*
X2607540Y2046040D01*
X2602260Y2047080D01*
X2596880Y2047440D01*
X2591500Y2047080D01*
X2586220Y2046040D01*
X2581120Y2044300D01*
X2576280Y2041920D01*
X2571800Y2038920D01*
X2567740Y2035380D01*
X2564200Y2031320D01*
X2561200Y2026840D01*
X2558820Y2022020D01*
X2557080Y2016920D01*
X2556040Y2011620D01*
X2555680Y2006240D01*
X2556040Y2000880D01*
X2557080Y1995580D01*
X2558820Y1990480D01*
X2561200Y1985660D01*
X2564200Y1981180D01*
X2567740Y1977120D01*
X2571800Y1973580D01*
X2576280Y1970580D01*
X2581120Y1968200D01*
X2586220Y1966459D01*
X2591500Y1965420D01*
G37*
G36*
X2496880Y1965060D02*
G01*
X2502260Y1965420D01*
X2507540Y1966459D01*
X2512640Y1968200D01*
X2517480Y1970580D01*
X2521960Y1973580D01*
X2526000Y1977120D01*
X2529560Y1981180D01*
X2532540Y1985660D01*
X2534940Y1990480D01*
X2536660Y1995580D01*
X2537720Y2000880D01*
X2538060Y2006240D01*
X2537720Y2011620D01*
X2536660Y2016920D01*
X2534940Y2022020D01*
X2532540Y2026840D01*
X2529560Y2031320D01*
X2526000Y2035380D01*
X2521960Y2038920D01*
X2517480Y2041920D01*
X2512640Y2044300D01*
X2507540Y2046040D01*
X2502260Y2047080D01*
X2496880Y2047440D01*
X2491500Y2047080D01*
X2486220Y2046040D01*
X2481120Y2044300D01*
X2476280Y2041920D01*
X2471800Y2038920D01*
X2467740Y2035380D01*
X2464200Y2031320D01*
X2461200Y2026840D01*
X2458820Y2022020D01*
X2457080Y2016920D01*
X2456040Y2011620D01*
X2455680Y2006240D01*
X2456040Y2000880D01*
X2457080Y1995580D01*
X2458820Y1990480D01*
X2461200Y1985660D01*
X2464200Y1981180D01*
X2467740Y1977120D01*
X2471800Y1973580D01*
X2476280Y1970580D01*
X2481120Y1968200D01*
X2486220Y1966459D01*
X2491500Y1965420D01*
G37*
G36*
X3119200Y2064300D02*
G01*
X3124560Y2064300D01*
X3129880Y2065020D01*
X3135059Y2066440D01*
X3140000Y2068520D01*
X3144620Y2071260D01*
X3148840Y2074600D01*
X3152559Y2078460D01*
X3155760Y2082780D01*
X3158340Y2087480D01*
X3160260Y2092500D01*
X3161500Y2097720D01*
X3162040Y2103060D01*
X3161860Y2108420D01*
X3160980Y2113720D01*
X3159380Y2118840D01*
X3157120Y2123720D01*
X3154240Y2128240D01*
X3150760Y2132340D01*
X3146780Y2135940D01*
X3142360Y2138980D01*
X3140080Y2140120D01*
X3138759Y2141200D01*
X3138020Y2142720D01*
X3137960Y2144420D01*
X3138600Y2145980D01*
X3139860Y2147140D01*
X3144620Y2149960D01*
X3148840Y2153300D01*
X3152559Y2157160D01*
X3155760Y2161480D01*
X3158340Y2166180D01*
X3160260Y2171200D01*
X3161500Y2176420D01*
X3162040Y2181760D01*
X3161860Y2187120D01*
X3160980Y2192420D01*
X3159380Y2197540D01*
X3157120Y2202420D01*
X3154240Y2206940D01*
X3150760Y2211040D01*
X3146780Y2214640D01*
X3142360Y2217680D01*
X3137559Y2220100D01*
X3132500Y2221860D01*
X3127240Y2222940D01*
X3122280Y2223260D01*
X3120899Y2223620D01*
X3119720Y2224420D01*
X3112980Y2231180D01*
X3109560Y2234100D01*
X3105840Y2236380D01*
X3101840Y2238040D01*
X3097600Y2239060D01*
X3093120Y2239400D01*
X3062420Y2239400D01*
X3057919Y2239060D01*
X3055520Y2238580D01*
X3042799Y2238580D01*
X3040299Y2238300D01*
X3038159Y2237560D01*
X3036240Y2236340D01*
X3034620Y2234720D01*
X3033399Y2232800D01*
X3032660Y2230660D01*
X3032380Y2228160D01*
X3032380Y2195260D01*
X3032660Y2192780D01*
X3033399Y2190620D01*
X3034620Y2188700D01*
X3036240Y2187080D01*
X3038159Y2185880D01*
X3040299Y2185120D01*
X3042799Y2184840D01*
X3055440Y2184840D01*
X3057919Y2184360D01*
X3062420Y2184000D01*
X3077860Y2184000D01*
X3079300Y2183740D01*
X3080539Y2182980D01*
X3081440Y2181800D01*
X3081840Y2180400D01*
X3082240Y2176420D01*
X3083480Y2171200D01*
X3085419Y2166180D01*
X3088000Y2161480D01*
X3091180Y2157160D01*
X3094920Y2153300D01*
X3099120Y2149960D01*
X3101740Y2148420D01*
X3103000Y2147240D01*
X3103639Y2145640D01*
X3103560Y2143920D01*
X3102760Y2142400D01*
X3101380Y2141360D01*
X3099700Y2140980D01*
X3062420Y2140980D01*
X3057919Y2140620D01*
X3055520Y2140160D01*
X3042799Y2140160D01*
X3040299Y2139880D01*
X3038159Y2139120D01*
X3036240Y2137920D01*
X3034620Y2136300D01*
X3033399Y2134380D01*
X3032660Y2132220D01*
X3032380Y2129740D01*
X3032380Y2096840D01*
X3032660Y2094340D01*
X3033399Y2092200D01*
X3034620Y2090280D01*
X3036240Y2088660D01*
X3038159Y2087440D01*
X3040299Y2086699D01*
X3042799Y2086420D01*
X3055460Y2086420D01*
X3057919Y2085940D01*
X3062420Y2085580D01*
X3084100Y2085580D01*
X3085480Y2085320D01*
X3086700Y2084600D01*
X3087600Y2083500D01*
X3088000Y2082780D01*
X3091180Y2078460D01*
X3094920Y2074600D01*
X3099120Y2071260D01*
X3103740Y2068520D01*
X3108700Y2066440D01*
X3113860Y2065020D01*
G37*
G36*
X2566100Y2065040D02*
G01*
X2627660Y2065040D01*
X2630140Y2065340D01*
X2632280Y2066080D01*
X2634220Y2067300D01*
X2635820Y2068899D01*
X2637040Y2070840D01*
X2637799Y2072980D01*
X2638080Y2075480D01*
X2638080Y2137020D01*
X2637799Y2139520D01*
X2637040Y2141660D01*
X2635820Y2143600D01*
X2634220Y2145200D01*
X2632280Y2146420D01*
X2630140Y2147160D01*
X2627660Y2147440D01*
X2566100Y2147440D01*
X2563620Y2147160D01*
X2561460Y2146420D01*
X2559540Y2145200D01*
X2557920Y2143600D01*
X2556700Y2141660D01*
X2555960Y2139520D01*
X2555680Y2137020D01*
X2555680Y2075480D01*
X2555960Y2072980D01*
X2556700Y2070840D01*
X2557920Y2068899D01*
X2559540Y2067300D01*
X2561460Y2066080D01*
X2563620Y2065340D01*
G37*
G36*
X2496880Y2065060D02*
G01*
X2502260Y2065420D01*
X2507540Y2066459D01*
X2512640Y2068200D01*
X2517480Y2070580D01*
X2521960Y2073580D01*
X2526000Y2077120D01*
X2529560Y2081180D01*
X2532540Y2085660D01*
X2534940Y2090480D01*
X2536660Y2095580D01*
X2537720Y2100880D01*
X2538060Y2106240D01*
X2537720Y2111620D01*
X2536660Y2116920D01*
X2534940Y2122020D01*
X2532540Y2126840D01*
X2529560Y2131320D01*
X2526000Y2135380D01*
X2521960Y2138920D01*
X2517480Y2141920D01*
X2512640Y2144300D01*
X2507540Y2146040D01*
X2502260Y2147080D01*
X2496880Y2147440D01*
X2491500Y2147080D01*
X2486220Y2146040D01*
X2481120Y2144300D01*
X2476280Y2141920D01*
X2471800Y2138920D01*
X2467740Y2135380D01*
X2464200Y2131320D01*
X2461200Y2126840D01*
X2458820Y2122020D01*
X2457080Y2116920D01*
X2456040Y2111620D01*
X2455680Y2106240D01*
X2456040Y2100880D01*
X2457080Y2095580D01*
X2458820Y2090480D01*
X2461200Y2085660D01*
X2464200Y2081180D01*
X2467740Y2077120D01*
X2471800Y2073580D01*
X2476280Y2070580D01*
X2481120Y2068200D01*
X2486220Y2066459D01*
X2491500Y2065420D01*
G37*
G36*
X2696880Y2065060D02*
G01*
X2702260Y2065420D01*
X2707540Y2066459D01*
X2712640Y2068200D01*
X2717480Y2070580D01*
X2721960Y2073580D01*
X2726000Y2077120D01*
X2729560Y2081180D01*
X2732640Y2085860D01*
X2733540Y2087040D01*
X2734780Y2087820D01*
X2736240Y2088080D01*
X2867720Y2088080D01*
X2868820Y2087920D01*
X2869900Y2087440D01*
X2872040Y2086699D01*
X2874540Y2086420D01*
X2913460Y2086420D01*
X2915940Y2086699D01*
X2918100Y2087440D01*
X2920020Y2088660D01*
X2921640Y2090280D01*
X2922840Y2092200D01*
X2923600Y2094340D01*
X2923880Y2096840D01*
X2923880Y2129740D01*
X2923600Y2132220D01*
X2922840Y2134380D01*
X2921640Y2136300D01*
X2920020Y2137920D01*
X2918100Y2139120D01*
X2915940Y2139880D01*
X2913460Y2140160D01*
X2874540Y2140160D01*
X2872040Y2139880D01*
X2869840Y2139100D01*
X2868820Y2138640D01*
X2867720Y2138480D01*
X2723820Y2138480D01*
X2722660Y2138660D01*
X2721600Y2139160D01*
X2717480Y2141920D01*
X2712640Y2144300D01*
X2707540Y2146040D01*
X2702260Y2147080D01*
X2696880Y2147440D01*
X2691500Y2147080D01*
X2686220Y2146040D01*
X2681120Y2144300D01*
X2676280Y2141920D01*
X2671800Y2138920D01*
X2667740Y2135380D01*
X2664200Y2131320D01*
X2661200Y2126840D01*
X2658820Y2122020D01*
X2657080Y2116920D01*
X2656040Y2111620D01*
X2655680Y2106240D01*
X2656040Y2100880D01*
X2657080Y2095580D01*
X2658820Y2090480D01*
X2661200Y2085660D01*
X2664200Y2081180D01*
X2667740Y2077120D01*
X2671800Y2073580D01*
X2676280Y2070580D01*
X2681120Y2068200D01*
X2686220Y2066459D01*
X2691500Y2065420D01*
G37*
G36*
X2682380Y2165040D02*
G01*
X2748860Y2165040D01*
X2751360Y2165340D01*
X2753500Y2166080D01*
X2755440Y2167300D01*
X2757040Y2168900D01*
X2758260Y2170840D01*
X2759000Y2172980D01*
X2759280Y2175480D01*
X2759280Y2237020D01*
X2759000Y2239520D01*
X2758260Y2241660D01*
X2757040Y2243600D01*
X2755440Y2245200D01*
X2753500Y2246420D01*
X2751360Y2247160D01*
X2748860Y2247440D01*
X2682380Y2247440D01*
X2679900Y2247160D01*
X2677740Y2246420D01*
X2675820Y2245200D01*
X2674200Y2243600D01*
X2673000Y2241660D01*
X2672240Y2239520D01*
X2671960Y2237020D01*
X2671960Y2175480D01*
X2672240Y2172980D01*
X2673000Y2170840D01*
X2674200Y2168900D01*
X2675820Y2167300D01*
X2677740Y2166080D01*
X2679900Y2165340D01*
G37*
G36*
X2834860Y2167120D02*
G01*
X2835820Y2167540D01*
X2840600Y2170440D01*
X2844980Y2173940D01*
X2848860Y2177960D01*
X2852220Y2182440D01*
X2854800Y2187020D01*
X2834860Y2187020D01*
G37*
G36*
X2796400Y2167140D02*
G01*
X2796400Y2187020D01*
X2776540Y2187020D01*
X2777580Y2184820D01*
X2780640Y2180140D01*
X2784260Y2175880D01*
X2788399Y2172120D01*
X2793000Y2168920D01*
G37*
G36*
X2874540Y2184840D02*
G01*
X2881640Y2184840D01*
X2881640Y2200880D01*
X2866920Y2200880D01*
X2866280Y2196100D01*
X2864940Y2191180D01*
X2865140Y2190620D01*
X2866360Y2188700D01*
X2867960Y2187080D01*
X2869900Y2185880D01*
X2872040Y2185120D01*
G37*
G36*
X2906340Y2184840D02*
G01*
X2913460Y2184840D01*
X2915940Y2185120D01*
X2918100Y2185880D01*
X2920020Y2187080D01*
X2921640Y2188700D01*
X2922840Y2190620D01*
X2923600Y2192780D01*
X2923880Y2195260D01*
X2923880Y2200880D01*
X2906340Y2200880D01*
G37*
G36*
X2864640Y2222540D02*
G01*
X2881640Y2222540D01*
X2881640Y2238580D01*
X2874540Y2238580D01*
X2872040Y2238300D01*
X2869900Y2237560D01*
X2867960Y2236340D01*
X2866360Y2234720D01*
X2865140Y2232800D01*
X2864380Y2230660D01*
X2864100Y2228160D01*
X2864100Y2223540D01*
G37*
G36*
X2906340Y2222540D02*
G01*
X2923880Y2222540D01*
X2923880Y2228160D01*
X2923600Y2230660D01*
X2922840Y2232800D01*
X2921640Y2234720D01*
X2920020Y2236340D01*
X2918100Y2237560D01*
X2915940Y2238300D01*
X2913460Y2238580D01*
X2906340Y2238580D01*
G37*
G36*
X2776540Y2225480D02*
G01*
X2796400Y2225480D01*
X2796400Y2245360D01*
X2793000Y2243580D01*
X2788399Y2240380D01*
X2784260Y2236620D01*
X2780640Y2232360D01*
X2777580Y2227680D01*
G37*
G36*
X2834860Y2225480D02*
G01*
X2854800Y2225480D01*
X2852220Y2230060D01*
X2848860Y2234540D01*
X2844980Y2238560D01*
X2840600Y2242060D01*
X2835820Y2244960D01*
X2834860Y2245380D01*
G37*

%LPD*%
G36*
X14200Y10200D02*
G01*
X12660Y10500D01*
X11379Y11379D01*
X10500Y12660D01*
X10200Y14200D01*
X10200Y1611620D01*
X10500Y1613160D01*
X11379Y1614460D01*
X12660Y1615320D01*
X14200Y1615620D01*
X1711620Y1615620D01*
X1713160Y1615320D01*
X1714460Y1614460D01*
X1715320Y1613160D01*
X1715620Y1611620D01*
X1715620Y14200D01*
X1715320Y12660D01*
X1714460Y11379D01*
X1713160Y10500D01*
X1711620Y10200D01*
G37*

%LPC*%
G36*
X623660Y27639D02*
G01*
X630780Y28200D01*
X637780Y29480D01*
X644640Y31460D01*
X651240Y34160D01*
X657520Y37500D01*
X663439Y41480D01*
X668920Y46040D01*
X673900Y51160D01*
X678319Y56740D01*
X682140Y62760D01*
X685340Y69140D01*
X687840Y75820D01*
X689659Y82700D01*
X690759Y89740D01*
X691120Y96860D01*
X690759Y104000D01*
X689659Y111039D01*
X687840Y117920D01*
X685340Y124600D01*
X682140Y130980D01*
X678319Y137000D01*
X673900Y142580D01*
X668920Y147700D01*
X663439Y152260D01*
X657520Y156240D01*
X651240Y159580D01*
X644640Y162280D01*
X637780Y164259D01*
X630780Y165539D01*
X623660Y166100D01*
X616540Y165920D01*
X609460Y165000D01*
X602520Y163359D01*
X595800Y161020D01*
X589340Y158000D01*
X583220Y154320D01*
X577520Y150040D01*
X572280Y145200D01*
X567580Y139840D01*
X563440Y134040D01*
X559940Y127840D01*
X557080Y121300D01*
X554920Y114500D01*
X553460Y107520D01*
X552720Y100440D01*
X552720Y93300D01*
X553460Y86220D01*
X554920Y79240D01*
X557080Y72440D01*
X559940Y65900D01*
X563440Y59700D01*
X567580Y53900D01*
X572280Y48540D01*
X577520Y43700D01*
X583220Y39420D01*
X589340Y35740D01*
X595800Y32719D01*
X602520Y30379D01*
X609460Y28740D01*
X616540Y27820D01*
G37*
G36*
X1051780Y94220D02*
G01*
X1057140Y94400D01*
X1062440Y95280D01*
X1067560Y96880D01*
X1072440Y99140D01*
X1076960Y102020D01*
X1081060Y105480D01*
X1084660Y109480D01*
X1087700Y113900D01*
X1090120Y118680D01*
X1091880Y123760D01*
X1092960Y129019D01*
X1093320Y134380D01*
X1092960Y139740D01*
X1091880Y145000D01*
X1090120Y150080D01*
X1087700Y154860D01*
X1084660Y159280D01*
X1081060Y163280D01*
X1076960Y166740D01*
X1072440Y169620D01*
X1067560Y171880D01*
X1062440Y173480D01*
X1057140Y174360D01*
X1051780Y174540D01*
X1046440Y174020D01*
X1041220Y172760D01*
X1036200Y170840D01*
X1031500Y168260D01*
X1027180Y165080D01*
X1023319Y161340D01*
X1019980Y157120D01*
X1017240Y152500D01*
X1015160Y147560D01*
X1013740Y142380D01*
X1013020Y137060D01*
X1013020Y131700D01*
X1013740Y126380D01*
X1015160Y121199D01*
X1017240Y116260D01*
X1019980Y111640D01*
X1023319Y107420D01*
X1027180Y103680D01*
X1031500Y100500D01*
X1036200Y97920D01*
X1041220Y96000D01*
X1046440Y94740D01*
G37*
G36*
X1551780Y94220D02*
G01*
X1557140Y94400D01*
X1562440Y95280D01*
X1567560Y96880D01*
X1572440Y99140D01*
X1576960Y102020D01*
X1581060Y105480D01*
X1584660Y109480D01*
X1587700Y113900D01*
X1590120Y118680D01*
X1591879Y123760D01*
X1592960Y129019D01*
X1593320Y134380D01*
X1592960Y139740D01*
X1591879Y145000D01*
X1590120Y150080D01*
X1587700Y154860D01*
X1584660Y159280D01*
X1581060Y163280D01*
X1576960Y166740D01*
X1572440Y169620D01*
X1567560Y171880D01*
X1562440Y173480D01*
X1557140Y174360D01*
X1551780Y174540D01*
X1546440Y174020D01*
X1541220Y172760D01*
X1536200Y170840D01*
X1531500Y168260D01*
X1527180Y165080D01*
X1523320Y161340D01*
X1519980Y157120D01*
X1517240Y152500D01*
X1515160Y147560D01*
X1513740Y142380D01*
X1513020Y137060D01*
X1513020Y131700D01*
X1513740Y126380D01*
X1515160Y121199D01*
X1517240Y116260D01*
X1519980Y111640D01*
X1523320Y107420D01*
X1527180Y103680D01*
X1531500Y100500D01*
X1536200Y97920D01*
X1541220Y96000D01*
X1546440Y94740D01*
G37*
G36*
X1651780Y94220D02*
G01*
X1657140Y94400D01*
X1662440Y95280D01*
X1667560Y96880D01*
X1672440Y99140D01*
X1676960Y102020D01*
X1681060Y105480D01*
X1684660Y109480D01*
X1687700Y113900D01*
X1690120Y118680D01*
X1691879Y123760D01*
X1692960Y129019D01*
X1693320Y134380D01*
X1692960Y139740D01*
X1691879Y145000D01*
X1690120Y150080D01*
X1687700Y154860D01*
X1684660Y159280D01*
X1681060Y163280D01*
X1676960Y166740D01*
X1672440Y169620D01*
X1667560Y171880D01*
X1662440Y173480D01*
X1657140Y174360D01*
X1651780Y174540D01*
X1646440Y174020D01*
X1641220Y172760D01*
X1636200Y170840D01*
X1631500Y168260D01*
X1627180Y165080D01*
X1623320Y161340D01*
X1619980Y157120D01*
X1617240Y152500D01*
X1615160Y147560D01*
X1613740Y142380D01*
X1613020Y137060D01*
X1613020Y131700D01*
X1613740Y126380D01*
X1615160Y121199D01*
X1617240Y116260D01*
X1619980Y111640D01*
X1623320Y107420D01*
X1627180Y103680D01*
X1631500Y100500D01*
X1636200Y97920D01*
X1641220Y96000D01*
X1646440Y94740D01*
G37*
G36*
X1451780Y94220D02*
G01*
X1457140Y94400D01*
X1462440Y95280D01*
X1467560Y96880D01*
X1472440Y99140D01*
X1476960Y102020D01*
X1481060Y105480D01*
X1484660Y109480D01*
X1487700Y113900D01*
X1490120Y118680D01*
X1491879Y123760D01*
X1492960Y129019D01*
X1493320Y134380D01*
X1492960Y139740D01*
X1491879Y145000D01*
X1490120Y150080D01*
X1487700Y154860D01*
X1484660Y159280D01*
X1481060Y163280D01*
X1476960Y166740D01*
X1472440Y169620D01*
X1467560Y171880D01*
X1462440Y173480D01*
X1457140Y174360D01*
X1451780Y174540D01*
X1446440Y174020D01*
X1441220Y172760D01*
X1436200Y170840D01*
X1431500Y168260D01*
X1427180Y165080D01*
X1423320Y161340D01*
X1419980Y157120D01*
X1417240Y152500D01*
X1415160Y147560D01*
X1413740Y142380D01*
X1413020Y137060D01*
X1413020Y131700D01*
X1413740Y126380D01*
X1415160Y121199D01*
X1417240Y116260D01*
X1419980Y111640D01*
X1423320Y107420D01*
X1427180Y103680D01*
X1431500Y100500D01*
X1436200Y97920D01*
X1441220Y96000D01*
X1446440Y94740D01*
G37*
G36*
X210780Y184500D02*
G01*
X216340Y185020D01*
X221800Y186280D01*
X227040Y188200D01*
X232000Y190799D01*
X236600Y194000D01*
X240740Y197760D01*
X244360Y202020D01*
X247420Y206700D01*
X249840Y211740D01*
X251600Y217060D01*
X252680Y222540D01*
X253039Y228120D01*
X252680Y233700D01*
X251600Y239200D01*
X249840Y244500D01*
X247420Y249540D01*
X244360Y254240D01*
X240740Y258500D01*
X236600Y262260D01*
X232000Y265460D01*
X227040Y268040D01*
X221800Y269980D01*
X216340Y271220D01*
X210780Y271760D01*
X205180Y271580D01*
X199660Y270680D01*
X194300Y269100D01*
X189180Y266840D01*
X184400Y263940D01*
X180020Y260440D01*
X176140Y256420D01*
X172780Y251940D01*
X170040Y247060D01*
X167940Y241880D01*
X166520Y236480D01*
X165799Y230920D01*
X165799Y225320D01*
X166520Y219780D01*
X167940Y214360D01*
X170040Y209180D01*
X172780Y204300D01*
X176140Y199820D01*
X180020Y195799D01*
X184400Y192320D01*
X189180Y189420D01*
X194300Y187160D01*
X199660Y185560D01*
X205180Y184680D01*
G37*
G36*
X76140Y186920D02*
G01*
X142620Y186920D01*
X145100Y187200D01*
X147260Y187960D01*
X149180Y189180D01*
X150800Y190780D01*
X152000Y192719D01*
X152760Y194860D01*
X153040Y197340D01*
X153040Y258900D01*
X152760Y261380D01*
X152000Y263540D01*
X150800Y265460D01*
X149180Y267080D01*
X147260Y268300D01*
X145100Y269040D01*
X142620Y269320D01*
X76140Y269320D01*
X73640Y269040D01*
X71500Y268300D01*
X69560Y267080D01*
X67960Y265460D01*
X66740Y263540D01*
X66000Y261380D01*
X65720Y258900D01*
X65720Y197340D01*
X66000Y194860D01*
X66740Y192719D01*
X67960Y190780D01*
X69560Y189180D01*
X71500Y187960D01*
X73640Y187200D01*
G37*
G36*
X1051780Y194220D02*
G01*
X1057140Y194400D01*
X1062440Y195280D01*
X1067560Y196880D01*
X1072440Y199140D01*
X1076960Y202020D01*
X1081060Y205479D01*
X1084660Y209480D01*
X1087700Y213900D01*
X1090120Y218680D01*
X1091880Y223760D01*
X1092960Y229020D01*
X1093320Y234380D01*
X1092960Y239740D01*
X1091880Y245000D01*
X1090120Y250080D01*
X1087700Y254860D01*
X1084660Y259280D01*
X1081060Y263280D01*
X1076960Y266740D01*
X1072440Y269620D01*
X1067560Y271880D01*
X1062440Y273480D01*
X1057140Y274360D01*
X1051780Y274540D01*
X1046440Y274020D01*
X1041220Y272760D01*
X1036200Y270840D01*
X1031500Y268260D01*
X1027180Y265080D01*
X1023319Y261340D01*
X1019980Y257120D01*
X1017240Y252500D01*
X1015160Y247560D01*
X1013740Y242380D01*
X1013020Y237060D01*
X1013020Y231700D01*
X1013740Y226380D01*
X1015160Y221200D01*
X1017240Y216260D01*
X1019980Y211640D01*
X1023319Y207420D01*
X1027180Y203680D01*
X1031500Y200500D01*
X1036200Y197920D01*
X1041220Y196000D01*
X1046440Y194740D01*
G37*
G36*
X1651780Y194220D02*
G01*
X1657140Y194400D01*
X1662440Y195280D01*
X1667560Y196880D01*
X1672440Y199140D01*
X1676960Y202020D01*
X1681060Y205479D01*
X1684660Y209480D01*
X1687700Y213900D01*
X1690120Y218680D01*
X1691879Y223760D01*
X1692960Y229020D01*
X1693320Y234380D01*
X1692960Y239740D01*
X1691879Y245000D01*
X1690120Y250080D01*
X1687700Y254860D01*
X1684660Y259280D01*
X1681060Y263280D01*
X1676960Y266740D01*
X1672440Y269620D01*
X1667560Y271880D01*
X1662440Y273480D01*
X1657140Y274360D01*
X1651780Y274540D01*
X1646440Y274020D01*
X1641220Y272760D01*
X1636200Y270840D01*
X1631500Y268260D01*
X1627180Y265080D01*
X1623320Y261340D01*
X1619980Y257120D01*
X1617240Y252500D01*
X1615160Y247560D01*
X1613740Y242380D01*
X1613020Y237060D01*
X1613020Y231700D01*
X1613740Y226380D01*
X1615160Y221200D01*
X1617240Y216260D01*
X1619980Y211640D01*
X1623320Y207420D01*
X1627180Y203680D01*
X1631500Y200500D01*
X1636200Y197920D01*
X1641220Y196000D01*
X1646440Y194740D01*
G37*
G36*
X318540Y209020D02*
G01*
X324360Y209200D01*
X330100Y210100D01*
X335680Y211700D01*
X341040Y213960D01*
X346060Y216860D01*
X350700Y220360D01*
X354880Y224400D01*
X358519Y228939D01*
X361580Y233880D01*
X364000Y239160D01*
X365760Y244680D01*
X366840Y250400D01*
X367200Y256200D01*
X366840Y262000D01*
X365760Y267720D01*
X364000Y273240D01*
X361580Y278520D01*
X358519Y283460D01*
X354880Y288000D01*
X350700Y292040D01*
X346060Y295540D01*
X341040Y298440D01*
X335680Y300700D01*
X330100Y302300D01*
X324360Y303200D01*
X318540Y303360D01*
X312760Y302840D01*
X307080Y301600D01*
X301600Y299660D01*
X296400Y297060D01*
X291560Y293860D01*
X287140Y290080D01*
X283240Y285780D01*
X279880Y281040D01*
X277120Y275920D01*
X275020Y270500D01*
X273620Y264880D01*
X272900Y259100D01*
X272900Y253299D01*
X273620Y247520D01*
X275020Y241900D01*
X277120Y236480D01*
X279880Y231360D01*
X283240Y226620D01*
X287140Y222320D01*
X291560Y218540D01*
X296400Y215340D01*
X301600Y212740D01*
X307080Y210799D01*
X312760Y209560D01*
G37*
G36*
X678540Y209020D02*
G01*
X684360Y209200D01*
X690100Y210100D01*
X695680Y211700D01*
X701040Y213960D01*
X706060Y216860D01*
X710699Y220360D01*
X714880Y224400D01*
X718520Y228939D01*
X721580Y233880D01*
X724000Y239160D01*
X725759Y244680D01*
X726840Y250400D01*
X727200Y256200D01*
X726840Y262000D01*
X725759Y267720D01*
X724000Y273240D01*
X721580Y278520D01*
X718520Y283460D01*
X714880Y288000D01*
X710699Y292040D01*
X706060Y295540D01*
X701040Y298440D01*
X695680Y300700D01*
X690100Y302300D01*
X684360Y303200D01*
X678540Y303360D01*
X672760Y302840D01*
X667080Y301600D01*
X661600Y299660D01*
X656400Y297060D01*
X651560Y293860D01*
X647140Y290080D01*
X643240Y285780D01*
X639880Y281040D01*
X637120Y275920D01*
X635020Y270500D01*
X633620Y264880D01*
X632900Y259100D01*
X632900Y253299D01*
X633620Y247520D01*
X635020Y241900D01*
X637120Y236480D01*
X639880Y231360D01*
X643240Y226620D01*
X647140Y222320D01*
X651560Y218540D01*
X656400Y215340D01*
X661600Y212740D01*
X667080Y210799D01*
X672760Y209560D01*
G37*
G36*
X1300000Y243180D02*
G01*
X1305380Y243540D01*
X1310660Y244579D01*
X1315760Y246320D01*
X1320600Y248700D01*
X1325080Y251700D01*
X1329120Y255240D01*
X1332680Y259300D01*
X1335680Y263780D01*
X1338060Y268620D01*
X1339780Y273720D01*
X1340840Y279000D01*
X1341200Y284380D01*
X1340840Y289760D01*
X1339780Y295040D01*
X1338060Y300140D01*
X1335680Y304980D01*
X1332680Y309460D01*
X1329120Y313500D01*
X1325080Y317060D01*
X1320600Y320040D01*
X1315760Y322440D01*
X1310660Y324159D01*
X1305380Y325220D01*
X1300000Y325560D01*
X1294620Y325220D01*
X1289340Y324159D01*
X1284240Y322440D01*
X1279400Y320040D01*
X1274920Y317060D01*
X1270880Y313500D01*
X1267320Y309460D01*
X1264320Y304980D01*
X1261940Y300140D01*
X1260220Y295040D01*
X1259160Y289760D01*
X1258800Y284380D01*
X1259160Y279000D01*
X1260220Y273720D01*
X1261940Y268620D01*
X1264320Y263780D01*
X1267320Y259300D01*
X1270880Y255240D01*
X1274920Y251700D01*
X1279400Y248700D01*
X1284240Y246320D01*
X1289340Y244579D01*
X1294620Y243540D01*
G37*
G36*
X1169220Y243180D02*
G01*
X1230780Y243180D01*
X1233260Y243460D01*
X1235420Y244200D01*
X1237340Y245420D01*
X1238960Y247040D01*
X1240160Y248960D01*
X1240920Y251119D01*
X1241200Y253600D01*
X1241200Y315160D01*
X1240920Y317640D01*
X1240160Y319780D01*
X1238960Y321719D01*
X1237340Y323320D01*
X1235420Y324540D01*
X1233260Y325300D01*
X1230780Y325580D01*
X1169220Y325580D01*
X1166740Y325300D01*
X1164580Y324540D01*
X1162660Y323320D01*
X1161040Y321719D01*
X1159840Y319780D01*
X1159080Y317640D01*
X1158800Y315160D01*
X1158800Y253600D01*
X1159080Y251119D01*
X1159840Y248960D01*
X1161040Y247040D01*
X1162660Y245420D01*
X1164580Y244200D01*
X1166740Y243460D01*
G37*
G36*
X210780Y284500D02*
G01*
X216340Y285020D01*
X221800Y286280D01*
X227040Y288200D01*
X232000Y290800D01*
X236600Y294000D01*
X240740Y297760D01*
X244360Y302020D01*
X247420Y306700D01*
X249840Y311740D01*
X251600Y317060D01*
X252680Y322540D01*
X253039Y328120D01*
X252680Y333700D01*
X251600Y339200D01*
X249840Y344500D01*
X247420Y349540D01*
X244360Y354240D01*
X240740Y358500D01*
X236600Y362260D01*
X232000Y365460D01*
X227040Y368040D01*
X221800Y369980D01*
X216340Y371220D01*
X210780Y371760D01*
X205180Y371580D01*
X199660Y370680D01*
X194300Y369099D01*
X189180Y366840D01*
X184400Y363940D01*
X180020Y360439D01*
X176140Y356420D01*
X172780Y351940D01*
X170040Y347060D01*
X167940Y341880D01*
X166520Y336480D01*
X165799Y330920D01*
X165799Y325319D01*
X166520Y319780D01*
X167940Y314360D01*
X170040Y309180D01*
X172780Y304300D01*
X176140Y299820D01*
X180020Y295800D01*
X184400Y292320D01*
X189180Y289420D01*
X194300Y287160D01*
X199660Y285560D01*
X205180Y284680D01*
G37*
G36*
X76140Y286920D02*
G01*
X142620Y286920D01*
X145100Y287200D01*
X147260Y287960D01*
X149180Y289180D01*
X150800Y290780D01*
X152000Y292720D01*
X152760Y294860D01*
X153040Y297340D01*
X153040Y358900D01*
X152760Y361380D01*
X152000Y363540D01*
X150800Y365460D01*
X149180Y367080D01*
X147260Y368300D01*
X145100Y369040D01*
X142620Y369320D01*
X76140Y369320D01*
X73640Y369040D01*
X71500Y368300D01*
X69560Y367080D01*
X67960Y365460D01*
X66740Y363540D01*
X66000Y361380D01*
X65720Y358900D01*
X65720Y297340D01*
X66000Y294860D01*
X66740Y292720D01*
X67960Y290780D01*
X69560Y289180D01*
X71500Y287960D01*
X73640Y287200D01*
G37*
G36*
X1051780Y294220D02*
G01*
X1057140Y294400D01*
X1062440Y295280D01*
X1067560Y296880D01*
X1072440Y299140D01*
X1076960Y302020D01*
X1081060Y305480D01*
X1084660Y309480D01*
X1087700Y313900D01*
X1090120Y318680D01*
X1091880Y323760D01*
X1092960Y329020D01*
X1093320Y334380D01*
X1092960Y339739D01*
X1091880Y345000D01*
X1090120Y350080D01*
X1087700Y354860D01*
X1084660Y359280D01*
X1081060Y363280D01*
X1076960Y366740D01*
X1072440Y369620D01*
X1067560Y371880D01*
X1062440Y373480D01*
X1057140Y374360D01*
X1051780Y374540D01*
X1046440Y374020D01*
X1041220Y372760D01*
X1036200Y370840D01*
X1031500Y368260D01*
X1027180Y365080D01*
X1023319Y361340D01*
X1019980Y357120D01*
X1017240Y352500D01*
X1015160Y347560D01*
X1013740Y342380D01*
X1013020Y337060D01*
X1013020Y331700D01*
X1013740Y326380D01*
X1015160Y321200D01*
X1017240Y316260D01*
X1019980Y311640D01*
X1023319Y307420D01*
X1027180Y303680D01*
X1031500Y300500D01*
X1036200Y297920D01*
X1041220Y296000D01*
X1046440Y294740D01*
G37*
G36*
X1651780Y294220D02*
G01*
X1657140Y294400D01*
X1662440Y295280D01*
X1667560Y296880D01*
X1672440Y299140D01*
X1676960Y302020D01*
X1681060Y305480D01*
X1684660Y309480D01*
X1687700Y313900D01*
X1690120Y318680D01*
X1691879Y323760D01*
X1692960Y329020D01*
X1693320Y334380D01*
X1692960Y339739D01*
X1691879Y345000D01*
X1690120Y350080D01*
X1687700Y354860D01*
X1684660Y359280D01*
X1681060Y363280D01*
X1676960Y366740D01*
X1672440Y369620D01*
X1667560Y371880D01*
X1662440Y373480D01*
X1657140Y374360D01*
X1651780Y374540D01*
X1646440Y374020D01*
X1641220Y372760D01*
X1636200Y370840D01*
X1631500Y368260D01*
X1627180Y365080D01*
X1623320Y361340D01*
X1619980Y357120D01*
X1617240Y352500D01*
X1615160Y347560D01*
X1613740Y342380D01*
X1613020Y337060D01*
X1613020Y331700D01*
X1613740Y326380D01*
X1615160Y321200D01*
X1617240Y316260D01*
X1619980Y311640D01*
X1623320Y307420D01*
X1627180Y303680D01*
X1631500Y300500D01*
X1636200Y297920D01*
X1641220Y296000D01*
X1646440Y294740D01*
G37*
G36*
X678540Y324720D02*
G01*
X684360Y324900D01*
X690100Y325800D01*
X695680Y327400D01*
X701040Y329660D01*
X706060Y332560D01*
X710699Y336060D01*
X714880Y340100D01*
X718520Y344640D01*
X721580Y349580D01*
X724000Y354860D01*
X725759Y360379D01*
X726840Y366100D01*
X727200Y371900D01*
X726840Y377700D01*
X725759Y383420D01*
X724000Y388940D01*
X721580Y394219D01*
X718520Y399159D01*
X714880Y403700D01*
X710699Y407740D01*
X706060Y411240D01*
X701040Y414140D01*
X695680Y416400D01*
X690100Y418000D01*
X684360Y418900D01*
X678540Y419060D01*
X672760Y418540D01*
X667080Y417299D01*
X661600Y415360D01*
X656400Y412760D01*
X651560Y409560D01*
X647140Y405780D01*
X643240Y401480D01*
X639880Y396740D01*
X637120Y391620D01*
X635020Y386200D01*
X633620Y380580D01*
X632900Y374799D01*
X632900Y369000D01*
X633620Y363220D01*
X635020Y357600D01*
X637120Y352180D01*
X639880Y347060D01*
X643240Y342320D01*
X647140Y338020D01*
X651560Y334240D01*
X656400Y331040D01*
X661600Y328440D01*
X667080Y326500D01*
X672760Y325260D01*
G37*
G36*
X318540Y324720D02*
G01*
X324360Y324900D01*
X330100Y325800D01*
X335680Y327400D01*
X341040Y329660D01*
X346060Y332560D01*
X350700Y336060D01*
X354880Y340100D01*
X358519Y344640D01*
X361580Y349580D01*
X364000Y354860D01*
X365760Y360379D01*
X366840Y366100D01*
X367200Y371900D01*
X366840Y377700D01*
X365760Y383420D01*
X364000Y388940D01*
X361580Y394219D01*
X358519Y399159D01*
X354880Y403700D01*
X350700Y407740D01*
X346060Y411240D01*
X341040Y414140D01*
X335680Y416400D01*
X330100Y418000D01*
X324360Y418900D01*
X318540Y419060D01*
X312760Y418540D01*
X307080Y417299D01*
X301600Y415360D01*
X296400Y412760D01*
X291560Y409560D01*
X287140Y405780D01*
X283240Y401480D01*
X279880Y396740D01*
X277120Y391620D01*
X275020Y386200D01*
X273620Y380580D01*
X272900Y374799D01*
X272900Y369000D01*
X273620Y363220D01*
X275020Y357600D01*
X277120Y352180D01*
X279880Y347060D01*
X283240Y342320D01*
X287140Y338020D01*
X291560Y334240D01*
X296400Y331040D01*
X301600Y328440D01*
X307080Y326500D01*
X312760Y325260D01*
G37*
G36*
X1200000Y343180D02*
G01*
X1205380Y343540D01*
X1210660Y344580D01*
X1215760Y346320D01*
X1220600Y348700D01*
X1225080Y351700D01*
X1229120Y355240D01*
X1232680Y359300D01*
X1235680Y363780D01*
X1238060Y368620D01*
X1239780Y373720D01*
X1240840Y379000D01*
X1241200Y384380D01*
X1240840Y389760D01*
X1239780Y395040D01*
X1238060Y400140D01*
X1235680Y404980D01*
X1232680Y409460D01*
X1229120Y413500D01*
X1225080Y417060D01*
X1220600Y420040D01*
X1215760Y422440D01*
X1210660Y424159D01*
X1205380Y425220D01*
X1200000Y425560D01*
X1194620Y425220D01*
X1189340Y424159D01*
X1184240Y422440D01*
X1179400Y420040D01*
X1174920Y417060D01*
X1170880Y413500D01*
X1167320Y409460D01*
X1164320Y404980D01*
X1161940Y400140D01*
X1160220Y395040D01*
X1159160Y389760D01*
X1158800Y384380D01*
X1159160Y379000D01*
X1160220Y373720D01*
X1161940Y368620D01*
X1164320Y363780D01*
X1167320Y359300D01*
X1170880Y355240D01*
X1174920Y351700D01*
X1179400Y348700D01*
X1184240Y346320D01*
X1189340Y344580D01*
X1194620Y343540D01*
G37*
G36*
X1300000Y343180D02*
G01*
X1305380Y343540D01*
X1310660Y344580D01*
X1315760Y346320D01*
X1320600Y348700D01*
X1325080Y351700D01*
X1329120Y355240D01*
X1332680Y359300D01*
X1335680Y363780D01*
X1338060Y368620D01*
X1339780Y373720D01*
X1340840Y379000D01*
X1341200Y384380D01*
X1340840Y389760D01*
X1339780Y395040D01*
X1338060Y400140D01*
X1335680Y404980D01*
X1332680Y409460D01*
X1329120Y413500D01*
X1325080Y417060D01*
X1320600Y420040D01*
X1315760Y422440D01*
X1310660Y424159D01*
X1305380Y425220D01*
X1300000Y425560D01*
X1294620Y425220D01*
X1289340Y424159D01*
X1284240Y422440D01*
X1279400Y420040D01*
X1274920Y417060D01*
X1270880Y413500D01*
X1267320Y409460D01*
X1264320Y404980D01*
X1261940Y400140D01*
X1260220Y395040D01*
X1259160Y389760D01*
X1258800Y384380D01*
X1259160Y379000D01*
X1260220Y373720D01*
X1261940Y368620D01*
X1264320Y363780D01*
X1267320Y359300D01*
X1270880Y355240D01*
X1274920Y351700D01*
X1279400Y348700D01*
X1284240Y346320D01*
X1289340Y344580D01*
X1294620Y343540D01*
G37*
G36*
X210780Y384500D02*
G01*
X216340Y385020D01*
X221800Y386280D01*
X227040Y388200D01*
X232000Y390800D01*
X236600Y394000D01*
X240740Y397760D01*
X244360Y402020D01*
X247420Y406700D01*
X249840Y411740D01*
X251600Y417060D01*
X252680Y422540D01*
X253039Y428120D01*
X252680Y433700D01*
X251600Y439200D01*
X249840Y444500D01*
X247420Y449540D01*
X244360Y454240D01*
X240740Y458500D01*
X236600Y462260D01*
X232000Y465460D01*
X227040Y468040D01*
X221800Y469980D01*
X216340Y471220D01*
X210780Y471760D01*
X205180Y471580D01*
X199660Y470680D01*
X194300Y469099D01*
X189180Y466840D01*
X184400Y463940D01*
X180020Y460439D01*
X176140Y456420D01*
X172780Y451940D01*
X170040Y447060D01*
X167940Y441880D01*
X166520Y436480D01*
X165799Y430920D01*
X165799Y425319D01*
X166520Y419780D01*
X167940Y414360D01*
X170040Y409180D01*
X172780Y404300D01*
X176140Y399820D01*
X180020Y395800D01*
X184400Y392320D01*
X189180Y389420D01*
X194300Y387160D01*
X199660Y385560D01*
X205180Y384680D01*
G37*
G36*
X76140Y386920D02*
G01*
X142620Y386920D01*
X145100Y387200D01*
X147260Y387960D01*
X149180Y389180D01*
X150800Y390780D01*
X152000Y392720D01*
X152760Y394860D01*
X153040Y397340D01*
X153040Y458900D01*
X152760Y461380D01*
X152000Y463540D01*
X150800Y465460D01*
X149180Y467080D01*
X147260Y468300D01*
X145100Y469040D01*
X142620Y469320D01*
X76140Y469320D01*
X73640Y469040D01*
X71500Y468300D01*
X69560Y467080D01*
X67960Y465460D01*
X66740Y463540D01*
X66000Y461380D01*
X65720Y458900D01*
X65720Y397340D01*
X66000Y394860D01*
X66740Y392720D01*
X67960Y390780D01*
X69560Y389180D01*
X71500Y387960D01*
X73640Y387200D01*
G37*
G36*
X1051780Y394219D02*
G01*
X1057140Y394400D01*
X1062440Y395280D01*
X1067560Y396880D01*
X1072440Y399140D01*
X1076960Y402020D01*
X1081060Y405480D01*
X1084660Y409480D01*
X1087700Y413900D01*
X1090120Y418680D01*
X1091880Y423760D01*
X1092960Y429020D01*
X1093320Y434380D01*
X1092960Y439739D01*
X1091880Y445000D01*
X1090120Y450080D01*
X1087700Y454860D01*
X1084660Y459280D01*
X1081060Y463280D01*
X1076960Y466740D01*
X1072440Y469620D01*
X1067560Y471880D01*
X1062440Y473480D01*
X1057140Y474360D01*
X1051780Y474540D01*
X1046440Y474020D01*
X1041220Y472760D01*
X1036200Y470840D01*
X1031500Y468260D01*
X1027180Y465080D01*
X1023319Y461340D01*
X1019980Y457120D01*
X1017240Y452500D01*
X1015160Y447560D01*
X1013740Y442380D01*
X1013020Y437060D01*
X1013020Y431700D01*
X1013740Y426380D01*
X1015160Y421200D01*
X1017240Y416260D01*
X1019980Y411640D01*
X1023319Y407420D01*
X1027180Y403680D01*
X1031500Y400500D01*
X1036200Y397920D01*
X1041220Y396000D01*
X1046440Y394739D01*
G37*
G36*
X1651780Y394219D02*
G01*
X1657140Y394400D01*
X1662440Y395280D01*
X1667560Y396880D01*
X1672440Y399140D01*
X1676960Y402020D01*
X1681060Y405480D01*
X1684660Y409480D01*
X1687700Y413900D01*
X1690120Y418680D01*
X1691879Y423760D01*
X1692960Y429020D01*
X1693320Y434380D01*
X1692960Y439739D01*
X1691879Y445000D01*
X1690120Y450080D01*
X1687700Y454860D01*
X1684660Y459280D01*
X1681060Y463280D01*
X1676960Y466740D01*
X1672440Y469620D01*
X1667560Y471880D01*
X1662440Y473480D01*
X1657140Y474360D01*
X1651780Y474540D01*
X1646440Y474020D01*
X1641220Y472760D01*
X1636200Y470840D01*
X1631500Y468260D01*
X1627180Y465080D01*
X1623320Y461340D01*
X1619980Y457120D01*
X1617240Y452500D01*
X1615160Y447560D01*
X1613740Y442380D01*
X1613020Y437060D01*
X1613020Y431700D01*
X1613740Y426380D01*
X1615160Y421200D01*
X1617240Y416260D01*
X1619980Y411640D01*
X1623320Y407420D01*
X1627180Y403680D01*
X1631500Y400500D01*
X1636200Y397920D01*
X1641220Y396000D01*
X1646440Y394739D01*
G37*
G36*
X318540Y440319D02*
G01*
X324360Y440500D01*
X330100Y441400D01*
X335680Y443000D01*
X341040Y445260D01*
X346060Y448160D01*
X350700Y451659D01*
X354880Y455700D01*
X358519Y460240D01*
X361580Y465180D01*
X364000Y470460D01*
X365760Y475980D01*
X366840Y481700D01*
X367200Y487500D01*
X366840Y493300D01*
X365760Y499020D01*
X364000Y504540D01*
X361580Y509820D01*
X358519Y514760D01*
X354880Y519300D01*
X350700Y523340D01*
X346060Y526840D01*
X341040Y529740D01*
X335680Y532000D01*
X330100Y533600D01*
X324360Y534500D01*
X318540Y534660D01*
X312760Y534140D01*
X307080Y532900D01*
X301600Y530960D01*
X296400Y528360D01*
X291560Y525160D01*
X287140Y521380D01*
X283240Y517080D01*
X279880Y512340D01*
X277120Y507220D01*
X275020Y501800D01*
X273620Y496180D01*
X272900Y490400D01*
X272900Y484600D01*
X273620Y478820D01*
X275020Y473200D01*
X277120Y467780D01*
X279880Y462660D01*
X283240Y457920D01*
X287140Y453620D01*
X291560Y449840D01*
X296400Y446640D01*
X301600Y444040D01*
X307080Y442100D01*
X312760Y440860D01*
G37*
G36*
X678540Y440319D02*
G01*
X684360Y440500D01*
X690100Y441400D01*
X695680Y443000D01*
X701040Y445260D01*
X706060Y448160D01*
X710699Y451659D01*
X714880Y455700D01*
X718520Y460240D01*
X721580Y465180D01*
X724000Y470460D01*
X725759Y475980D01*
X726840Y481700D01*
X727200Y487500D01*
X726840Y493300D01*
X725759Y499020D01*
X724000Y504540D01*
X721580Y509820D01*
X718520Y514760D01*
X714880Y519300D01*
X710699Y523340D01*
X706060Y526840D01*
X701040Y529740D01*
X695680Y532000D01*
X690100Y533600D01*
X684360Y534500D01*
X678540Y534660D01*
X672760Y534140D01*
X667080Y532900D01*
X661600Y530960D01*
X656400Y528360D01*
X651560Y525160D01*
X647140Y521380D01*
X643240Y517080D01*
X639880Y512340D01*
X637120Y507220D01*
X635020Y501800D01*
X633620Y496180D01*
X632900Y490400D01*
X632900Y484600D01*
X633620Y478820D01*
X635020Y473200D01*
X637120Y467780D01*
X639880Y462660D01*
X643240Y457920D01*
X647140Y453620D01*
X651560Y449840D01*
X656400Y446640D01*
X661600Y444040D01*
X667080Y442100D01*
X672760Y440860D01*
G37*
G36*
X1300000Y443180D02*
G01*
X1305380Y443540D01*
X1310660Y444580D01*
X1315760Y446320D01*
X1320600Y448700D01*
X1325080Y451700D01*
X1329120Y455240D01*
X1332680Y459300D01*
X1335680Y463780D01*
X1338060Y468620D01*
X1339780Y473720D01*
X1340840Y479000D01*
X1341200Y484380D01*
X1340840Y489760D01*
X1339780Y495040D01*
X1338060Y500140D01*
X1335680Y504980D01*
X1332680Y509460D01*
X1329120Y513500D01*
X1325080Y517060D01*
X1320600Y520040D01*
X1315760Y522440D01*
X1310660Y524159D01*
X1305380Y525220D01*
X1300000Y525560D01*
X1294620Y525220D01*
X1289340Y524159D01*
X1284240Y522440D01*
X1279400Y520040D01*
X1274920Y517060D01*
X1270880Y513500D01*
X1267320Y509460D01*
X1264320Y504980D01*
X1261940Y500140D01*
X1260220Y495040D01*
X1259160Y489760D01*
X1258800Y484380D01*
X1259160Y479000D01*
X1260220Y473720D01*
X1261940Y468620D01*
X1264320Y463780D01*
X1267320Y459300D01*
X1270880Y455240D01*
X1274920Y451700D01*
X1279400Y448700D01*
X1284240Y446320D01*
X1289340Y444580D01*
X1294620Y443540D01*
G37*
G36*
X1200000Y443180D02*
G01*
X1205380Y443540D01*
X1210660Y444580D01*
X1215760Y446320D01*
X1220600Y448700D01*
X1225080Y451700D01*
X1229120Y455240D01*
X1232680Y459300D01*
X1235680Y463780D01*
X1238060Y468620D01*
X1239780Y473720D01*
X1240840Y479000D01*
X1241200Y484380D01*
X1240840Y489760D01*
X1239780Y495040D01*
X1238060Y500140D01*
X1235680Y504980D01*
X1232680Y509460D01*
X1229120Y513500D01*
X1225080Y517060D01*
X1220600Y520040D01*
X1215760Y522440D01*
X1210660Y524159D01*
X1205380Y525220D01*
X1200000Y525560D01*
X1194620Y525220D01*
X1189340Y524159D01*
X1184240Y522440D01*
X1179400Y520040D01*
X1174920Y517060D01*
X1170880Y513500D01*
X1167320Y509460D01*
X1164320Y504980D01*
X1161940Y500140D01*
X1160220Y495040D01*
X1159160Y489760D01*
X1158800Y484380D01*
X1159160Y479000D01*
X1160220Y473720D01*
X1161940Y468620D01*
X1164320Y463780D01*
X1167320Y459300D01*
X1170880Y455240D01*
X1174920Y451700D01*
X1179400Y448700D01*
X1184240Y446320D01*
X1189340Y444580D01*
X1194620Y443540D01*
G37*
G36*
X210780Y484500D02*
G01*
X216340Y485020D01*
X221800Y486280D01*
X227040Y488200D01*
X232000Y490800D01*
X236600Y494000D01*
X240740Y497760D01*
X244360Y502020D01*
X247420Y506700D01*
X249840Y511740D01*
X251600Y517060D01*
X252680Y522540D01*
X253039Y528120D01*
X252680Y533700D01*
X251600Y539200D01*
X249840Y544500D01*
X247420Y549540D01*
X244360Y554240D01*
X240740Y558500D01*
X236600Y562260D01*
X232000Y565460D01*
X227040Y568040D01*
X221800Y569980D01*
X216340Y571220D01*
X210780Y571760D01*
X205180Y571580D01*
X199660Y570680D01*
X194300Y569100D01*
X189180Y566840D01*
X184400Y563940D01*
X180020Y560440D01*
X176140Y556420D01*
X172780Y551940D01*
X170040Y547060D01*
X167940Y541880D01*
X166520Y536480D01*
X165799Y530920D01*
X165799Y525320D01*
X166520Y519780D01*
X167940Y514360D01*
X170040Y509180D01*
X172780Y504300D01*
X176140Y499820D01*
X180020Y495800D01*
X184400Y492320D01*
X189180Y489420D01*
X194300Y487160D01*
X199660Y485560D01*
X205180Y484680D01*
G37*
G36*
X76140Y486920D02*
G01*
X142620Y486920D01*
X145100Y487200D01*
X147260Y487960D01*
X149180Y489180D01*
X150800Y490780D01*
X152000Y492720D01*
X152760Y494860D01*
X153040Y497340D01*
X153040Y558900D01*
X152760Y561380D01*
X152000Y563540D01*
X150800Y565460D01*
X149180Y567080D01*
X147260Y568300D01*
X145100Y569040D01*
X142620Y569320D01*
X76140Y569320D01*
X73640Y569040D01*
X71500Y568300D01*
X69560Y567080D01*
X67960Y565460D01*
X66740Y563540D01*
X66000Y561380D01*
X65720Y558900D01*
X65720Y497340D01*
X66000Y494860D01*
X66740Y492720D01*
X67960Y490780D01*
X69560Y489180D01*
X71500Y487960D01*
X73640Y487200D01*
G37*
G36*
X1051780Y494219D02*
G01*
X1057140Y494400D01*
X1062440Y495280D01*
X1067560Y496880D01*
X1072440Y499140D01*
X1076960Y502020D01*
X1081060Y505480D01*
X1084660Y509480D01*
X1087700Y513900D01*
X1090120Y518680D01*
X1091880Y523760D01*
X1092960Y529020D01*
X1093320Y534380D01*
X1092960Y539740D01*
X1091880Y545000D01*
X1090120Y550080D01*
X1087700Y554860D01*
X1084660Y559280D01*
X1081060Y563280D01*
X1076960Y566740D01*
X1072440Y569620D01*
X1067560Y571880D01*
X1062440Y573480D01*
X1057140Y574360D01*
X1051780Y574540D01*
X1046440Y574020D01*
X1041220Y572760D01*
X1036200Y570840D01*
X1031500Y568260D01*
X1027180Y565080D01*
X1023319Y561340D01*
X1019980Y557120D01*
X1017240Y552500D01*
X1015160Y547560D01*
X1013740Y542380D01*
X1013020Y537060D01*
X1013020Y531700D01*
X1013740Y526380D01*
X1015160Y521200D01*
X1017240Y516260D01*
X1019980Y511640D01*
X1023319Y507420D01*
X1027180Y503680D01*
X1031500Y500500D01*
X1036200Y497920D01*
X1041220Y496000D01*
X1046440Y494739D01*
G37*
G36*
X1651780Y494219D02*
G01*
X1657140Y494400D01*
X1662440Y495280D01*
X1667560Y496880D01*
X1672440Y499140D01*
X1676960Y502020D01*
X1681060Y505480D01*
X1684660Y509480D01*
X1687700Y513900D01*
X1690120Y518680D01*
X1691879Y523760D01*
X1692960Y529020D01*
X1693320Y534380D01*
X1692960Y539740D01*
X1691879Y545000D01*
X1690120Y550080D01*
X1687700Y554860D01*
X1684660Y559280D01*
X1681060Y563280D01*
X1676960Y566740D01*
X1672440Y569620D01*
X1667560Y571880D01*
X1662440Y573480D01*
X1657140Y574360D01*
X1651780Y574540D01*
X1646440Y574020D01*
X1641220Y572760D01*
X1636200Y570840D01*
X1631500Y568260D01*
X1627180Y565080D01*
X1623320Y561340D01*
X1619980Y557120D01*
X1617240Y552500D01*
X1615160Y547560D01*
X1613740Y542380D01*
X1613020Y537060D01*
X1613020Y531700D01*
X1613740Y526380D01*
X1615160Y521200D01*
X1617240Y516260D01*
X1619980Y511640D01*
X1623320Y507420D01*
X1627180Y503680D01*
X1631500Y500500D01*
X1636200Y497920D01*
X1641220Y496000D01*
X1646440Y494739D01*
G37*
G36*
X1300000Y543180D02*
G01*
X1305380Y543540D01*
X1310660Y544580D01*
X1315760Y546320D01*
X1320600Y548700D01*
X1325080Y551700D01*
X1329120Y555240D01*
X1332680Y559300D01*
X1335680Y563780D01*
X1338060Y568620D01*
X1339780Y573720D01*
X1340840Y579000D01*
X1341200Y584380D01*
X1340840Y589760D01*
X1339780Y595040D01*
X1338060Y600140D01*
X1335680Y604980D01*
X1332680Y609460D01*
X1329120Y613500D01*
X1325080Y617060D01*
X1320600Y620040D01*
X1315760Y622440D01*
X1310660Y624160D01*
X1305380Y625220D01*
X1300000Y625560D01*
X1294620Y625220D01*
X1289340Y624160D01*
X1284240Y622440D01*
X1279400Y620040D01*
X1274920Y617060D01*
X1270880Y613500D01*
X1267320Y609460D01*
X1264320Y604980D01*
X1261940Y600140D01*
X1260220Y595040D01*
X1259160Y589760D01*
X1258800Y584380D01*
X1259160Y579000D01*
X1260220Y573720D01*
X1261940Y568620D01*
X1264320Y563780D01*
X1267320Y559300D01*
X1270880Y555240D01*
X1274920Y551700D01*
X1279400Y548700D01*
X1284240Y546320D01*
X1289340Y544580D01*
X1294620Y543540D01*
G37*
G36*
X1218000Y547420D02*
G01*
X1220600Y548700D01*
X1225080Y551700D01*
X1229120Y555240D01*
X1232680Y559300D01*
X1235680Y563780D01*
X1236960Y566380D01*
X1218000Y566380D01*
G37*
G36*
X1182000Y547420D02*
G01*
X1182000Y566380D01*
X1163040Y566380D01*
X1164320Y563780D01*
X1167320Y559300D01*
X1170880Y555240D01*
X1174920Y551700D01*
X1179400Y548700D01*
G37*
G36*
X678540Y555920D02*
G01*
X684360Y556100D01*
X690100Y557000D01*
X695680Y558600D01*
X701040Y560860D01*
X706060Y563760D01*
X710699Y567260D01*
X714880Y571300D01*
X718520Y575840D01*
X721580Y580780D01*
X724000Y586060D01*
X725759Y591580D01*
X726840Y597300D01*
X727200Y603100D01*
X726840Y608900D01*
X725759Y614620D01*
X724000Y620140D01*
X721580Y625420D01*
X718520Y630360D01*
X714880Y634900D01*
X710699Y638940D01*
X706060Y642440D01*
X701040Y645340D01*
X695680Y647600D01*
X690100Y649200D01*
X684360Y650100D01*
X678540Y650260D01*
X672760Y649740D01*
X667080Y648500D01*
X661600Y646560D01*
X656400Y643960D01*
X651560Y640759D01*
X647140Y636980D01*
X643240Y632680D01*
X639880Y627940D01*
X637120Y622820D01*
X635020Y617400D01*
X633620Y611780D01*
X632900Y606000D01*
X632900Y600200D01*
X633620Y594420D01*
X635020Y588800D01*
X637120Y583380D01*
X639880Y578260D01*
X643240Y573520D01*
X647140Y569220D01*
X651560Y565440D01*
X656400Y562240D01*
X661600Y559640D01*
X667080Y557700D01*
X672760Y556460D01*
G37*
G36*
X318540Y555920D02*
G01*
X324360Y556100D01*
X330100Y557000D01*
X335680Y558600D01*
X341040Y560860D01*
X346060Y563760D01*
X350700Y567260D01*
X354880Y571300D01*
X358519Y575840D01*
X361580Y580780D01*
X364000Y586060D01*
X365760Y591580D01*
X366840Y597300D01*
X367200Y603100D01*
X366840Y608900D01*
X365760Y614620D01*
X364000Y620140D01*
X361580Y625420D01*
X358519Y630360D01*
X354880Y634900D01*
X350700Y638940D01*
X346060Y642440D01*
X341040Y645340D01*
X335680Y647600D01*
X330100Y649200D01*
X324360Y650100D01*
X318540Y650260D01*
X312760Y649740D01*
X307080Y648500D01*
X301600Y646560D01*
X296400Y643960D01*
X291560Y640759D01*
X287140Y636980D01*
X283240Y632680D01*
X279880Y627940D01*
X277120Y622820D01*
X275020Y617400D01*
X273620Y611780D01*
X272900Y606000D01*
X272900Y600200D01*
X273620Y594420D01*
X275020Y588800D01*
X277120Y583380D01*
X279880Y578260D01*
X283240Y573520D01*
X287140Y569220D01*
X291560Y565440D01*
X296400Y562240D01*
X301600Y559640D01*
X307080Y557700D01*
X312760Y556460D01*
G37*
G36*
X210780Y584500D02*
G01*
X216340Y585020D01*
X221800Y586280D01*
X227040Y588200D01*
X232000Y590800D01*
X236600Y594000D01*
X240740Y597760D01*
X244360Y602020D01*
X247420Y606700D01*
X249840Y611740D01*
X251600Y617060D01*
X252680Y622540D01*
X253039Y628120D01*
X252680Y633700D01*
X251600Y639200D01*
X249840Y644500D01*
X247420Y649539D01*
X244360Y654240D01*
X240740Y658500D01*
X236600Y662260D01*
X232000Y665460D01*
X227040Y668040D01*
X221800Y669980D01*
X216340Y671220D01*
X210780Y671760D01*
X205180Y671580D01*
X199660Y670680D01*
X194300Y669100D01*
X189180Y666840D01*
X184400Y663940D01*
X180020Y660440D01*
X176140Y656420D01*
X172780Y651940D01*
X170040Y647060D01*
X167940Y641880D01*
X166520Y636480D01*
X165799Y630920D01*
X165799Y625320D01*
X166520Y619780D01*
X167940Y614360D01*
X170040Y609180D01*
X172780Y604300D01*
X176140Y599820D01*
X180020Y595800D01*
X184400Y592320D01*
X189180Y589420D01*
X194300Y587160D01*
X199660Y585560D01*
X205180Y584680D01*
G37*
G36*
X76140Y586920D02*
G01*
X142620Y586920D01*
X145100Y587200D01*
X147260Y587960D01*
X149180Y589180D01*
X150800Y590780D01*
X152000Y592720D01*
X152760Y594860D01*
X153040Y597340D01*
X153040Y658900D01*
X152760Y661380D01*
X152000Y663540D01*
X150800Y665460D01*
X149180Y667080D01*
X147260Y668300D01*
X145100Y669040D01*
X142620Y669320D01*
X76140Y669320D01*
X73640Y669040D01*
X71500Y668300D01*
X69560Y667080D01*
X67960Y665460D01*
X66740Y663540D01*
X66000Y661380D01*
X65720Y658900D01*
X65720Y597340D01*
X66000Y594860D01*
X66740Y592720D01*
X67960Y590780D01*
X69560Y589180D01*
X71500Y587960D01*
X73640Y587200D01*
G37*
G36*
X1651780Y594220D02*
G01*
X1657140Y594400D01*
X1662440Y595280D01*
X1667560Y596880D01*
X1672440Y599140D01*
X1676960Y602020D01*
X1681060Y605480D01*
X1684660Y609480D01*
X1687700Y613900D01*
X1690120Y618680D01*
X1691879Y623760D01*
X1692960Y629020D01*
X1693320Y634380D01*
X1692960Y639740D01*
X1691879Y645000D01*
X1690120Y650080D01*
X1687700Y654860D01*
X1684660Y659280D01*
X1681060Y663280D01*
X1676960Y666740D01*
X1672440Y669620D01*
X1667560Y671880D01*
X1662440Y673480D01*
X1657140Y674360D01*
X1651780Y674539D01*
X1646440Y674020D01*
X1641220Y672760D01*
X1636200Y670840D01*
X1631500Y668259D01*
X1627180Y665080D01*
X1623320Y661340D01*
X1619980Y657120D01*
X1617240Y652500D01*
X1615160Y647560D01*
X1613740Y642380D01*
X1613020Y637060D01*
X1613020Y631700D01*
X1613740Y626380D01*
X1615160Y621200D01*
X1617240Y616260D01*
X1619980Y611640D01*
X1623320Y607420D01*
X1627180Y603680D01*
X1631500Y600500D01*
X1636200Y597920D01*
X1641220Y596000D01*
X1646440Y594740D01*
G37*
G36*
X1051780Y594220D02*
G01*
X1057140Y594400D01*
X1062440Y595280D01*
X1067560Y596880D01*
X1072440Y599140D01*
X1076960Y602020D01*
X1081060Y605480D01*
X1084660Y609480D01*
X1087700Y613900D01*
X1090120Y618680D01*
X1091880Y623760D01*
X1092960Y629020D01*
X1093320Y634380D01*
X1092960Y639740D01*
X1091880Y645000D01*
X1090120Y650080D01*
X1087700Y654860D01*
X1084660Y659280D01*
X1081060Y663280D01*
X1076960Y666740D01*
X1072440Y669620D01*
X1067560Y671880D01*
X1062440Y673480D01*
X1057140Y674360D01*
X1051780Y674539D01*
X1046440Y674020D01*
X1041220Y672760D01*
X1036200Y670840D01*
X1031500Y668259D01*
X1027180Y665080D01*
X1023319Y661340D01*
X1019980Y657120D01*
X1017240Y652500D01*
X1015160Y647560D01*
X1013740Y642380D01*
X1013020Y637060D01*
X1013020Y631700D01*
X1013740Y626380D01*
X1015160Y621200D01*
X1017240Y616260D01*
X1019980Y611640D01*
X1023319Y607420D01*
X1027180Y603680D01*
X1031500Y600500D01*
X1036200Y597920D01*
X1041220Y596000D01*
X1046440Y594740D01*
G37*
G36*
X1163040Y602380D02*
G01*
X1182000Y602380D01*
X1182000Y621320D01*
X1179400Y620040D01*
X1174920Y617060D01*
X1170880Y613500D01*
X1167320Y609460D01*
X1164320Y604980D01*
G37*
G36*
X1218000Y602380D02*
G01*
X1236960Y602380D01*
X1235680Y604980D01*
X1232680Y609460D01*
X1229120Y613500D01*
X1225080Y617060D01*
X1220600Y620040D01*
X1218000Y621320D01*
G37*
G36*
X318540Y671520D02*
G01*
X324360Y671700D01*
X330100Y672600D01*
X335680Y674200D01*
X341040Y676460D01*
X346060Y679360D01*
X350700Y682860D01*
X354880Y686900D01*
X358519Y691440D01*
X361580Y696380D01*
X364000Y701660D01*
X365760Y707180D01*
X366840Y712900D01*
X367200Y718700D01*
X366840Y724500D01*
X365760Y730220D01*
X364000Y735740D01*
X361580Y741020D01*
X358519Y745960D01*
X354880Y750500D01*
X350700Y754539D01*
X346060Y758040D01*
X341040Y760939D01*
X335680Y763199D01*
X330100Y764800D01*
X324360Y765699D01*
X318540Y765860D01*
X312760Y765340D01*
X307080Y764100D01*
X301600Y762159D01*
X296400Y759560D01*
X291560Y756360D01*
X287140Y752580D01*
X283240Y748280D01*
X279880Y743540D01*
X277120Y738420D01*
X275020Y733000D01*
X273620Y727380D01*
X272900Y721600D01*
X272900Y715800D01*
X273620Y710020D01*
X275020Y704400D01*
X277120Y698980D01*
X279880Y693860D01*
X283240Y689120D01*
X287140Y684820D01*
X291560Y681040D01*
X296400Y677840D01*
X301600Y675240D01*
X307080Y673300D01*
X312760Y672060D01*
G37*
G36*
X678540Y671520D02*
G01*
X684360Y671700D01*
X690100Y672600D01*
X695680Y674200D01*
X701040Y676460D01*
X706060Y679360D01*
X710699Y682860D01*
X714880Y686900D01*
X718520Y691440D01*
X721580Y696380D01*
X724000Y701660D01*
X725759Y707180D01*
X726840Y712900D01*
X727200Y718700D01*
X726840Y724500D01*
X725759Y730220D01*
X724000Y735740D01*
X721580Y741020D01*
X718520Y745960D01*
X714880Y750500D01*
X710699Y754539D01*
X706060Y758040D01*
X701040Y760939D01*
X695680Y763199D01*
X690100Y764800D01*
X684360Y765699D01*
X678540Y765860D01*
X672760Y765340D01*
X667080Y764100D01*
X661600Y762159D01*
X656400Y759560D01*
X651560Y756360D01*
X647140Y752580D01*
X643240Y748280D01*
X639880Y743540D01*
X637120Y738420D01*
X635020Y733000D01*
X633620Y727380D01*
X632900Y721600D01*
X632900Y715800D01*
X633620Y710020D01*
X635020Y704400D01*
X637120Y698980D01*
X639880Y693860D01*
X643240Y689120D01*
X647140Y684820D01*
X651560Y681040D01*
X656400Y677840D01*
X661600Y675240D01*
X667080Y673300D01*
X672760Y672060D01*
G37*
G36*
X1403140Y680939D02*
G01*
X1406980Y681280D01*
X1410720Y682280D01*
X1414220Y683900D01*
X1417400Y686120D01*
X1420120Y688860D01*
X1422340Y692020D01*
X1423980Y695540D01*
X1424980Y699260D01*
X1425320Y703120D01*
X1424980Y706979D01*
X1423980Y710699D01*
X1423700Y711300D01*
X1423320Y712980D01*
X1423320Y965140D01*
X1423700Y966820D01*
X1423980Y967420D01*
X1424980Y971140D01*
X1425320Y975000D01*
X1424980Y978860D01*
X1423980Y982580D01*
X1422340Y986100D01*
X1420120Y989260D01*
X1417400Y992000D01*
X1414220Y994220D01*
X1410720Y995840D01*
X1406980Y996840D01*
X1403140Y997180D01*
X1399280Y996840D01*
X1395540Y995840D01*
X1392040Y994220D01*
X1388860Y992000D01*
X1386140Y989260D01*
X1383920Y986100D01*
X1382280Y982580D01*
X1381279Y978860D01*
X1380940Y975000D01*
X1381279Y971140D01*
X1382280Y967420D01*
X1382560Y966820D01*
X1382920Y965140D01*
X1382920Y712980D01*
X1382560Y711300D01*
X1382280Y710699D01*
X1381279Y706979D01*
X1380940Y703120D01*
X1381279Y699260D01*
X1382280Y695540D01*
X1383920Y692020D01*
X1386140Y688860D01*
X1388860Y686120D01*
X1392040Y683900D01*
X1395540Y682280D01*
X1399280Y681280D01*
G37*
G36*
X210780Y684500D02*
G01*
X216340Y685020D01*
X221800Y686280D01*
X227040Y688199D01*
X232000Y690800D01*
X236600Y694000D01*
X240740Y697760D01*
X244360Y702020D01*
X247420Y706700D01*
X249840Y711740D01*
X251600Y717060D01*
X252680Y722540D01*
X253039Y728120D01*
X252680Y733700D01*
X251600Y739200D01*
X249840Y744500D01*
X247420Y749539D01*
X244360Y754240D01*
X240740Y758500D01*
X236600Y762260D01*
X232000Y765460D01*
X227040Y768040D01*
X221800Y769980D01*
X216340Y771220D01*
X210780Y771760D01*
X205180Y771580D01*
X199660Y770680D01*
X194300Y769100D01*
X189180Y766840D01*
X184400Y763940D01*
X180020Y760440D01*
X176140Y756420D01*
X172780Y751940D01*
X170040Y747060D01*
X167940Y741880D01*
X166520Y736480D01*
X165799Y730920D01*
X165799Y725320D01*
X166520Y719780D01*
X167940Y714360D01*
X170040Y709180D01*
X172780Y704300D01*
X176140Y699820D01*
X180020Y695800D01*
X184400Y692320D01*
X189180Y689419D01*
X194300Y687159D01*
X199660Y685560D01*
X205180Y684680D01*
G37*
G36*
X76140Y686919D02*
G01*
X142620Y686919D01*
X145100Y687200D01*
X147260Y687960D01*
X149180Y689180D01*
X150800Y690780D01*
X152000Y692720D01*
X152760Y694860D01*
X153040Y697340D01*
X153040Y758900D01*
X152760Y761380D01*
X152000Y763540D01*
X150800Y765460D01*
X149180Y767080D01*
X147260Y768300D01*
X145100Y769040D01*
X142620Y769320D01*
X76140Y769320D01*
X73640Y769040D01*
X71500Y768300D01*
X69560Y767080D01*
X67960Y765460D01*
X66740Y763540D01*
X66000Y761380D01*
X65720Y758900D01*
X65720Y697340D01*
X66000Y694860D01*
X66740Y692720D01*
X67960Y690780D01*
X69560Y689180D01*
X71500Y687960D01*
X73640Y687200D01*
G37*
G36*
X1051780Y694220D02*
G01*
X1057140Y694400D01*
X1062440Y695280D01*
X1067560Y696880D01*
X1072440Y699140D01*
X1076960Y702020D01*
X1081060Y705480D01*
X1084660Y709479D01*
X1087700Y713900D01*
X1090120Y718680D01*
X1091880Y723760D01*
X1092960Y729020D01*
X1093320Y734380D01*
X1092960Y739740D01*
X1091880Y745000D01*
X1090120Y750080D01*
X1087700Y754860D01*
X1084660Y759280D01*
X1081060Y763280D01*
X1076960Y766740D01*
X1072440Y769620D01*
X1067560Y771880D01*
X1062440Y773480D01*
X1057140Y774360D01*
X1051780Y774539D01*
X1046440Y774020D01*
X1041220Y772760D01*
X1036200Y770840D01*
X1031500Y768259D01*
X1027180Y765080D01*
X1023319Y761340D01*
X1019980Y757120D01*
X1017240Y752500D01*
X1015160Y747560D01*
X1013740Y742380D01*
X1013020Y737060D01*
X1013020Y731700D01*
X1013740Y726380D01*
X1015160Y721200D01*
X1017240Y716260D01*
X1019980Y711640D01*
X1023319Y707420D01*
X1027180Y703680D01*
X1031500Y700500D01*
X1036200Y697920D01*
X1041220Y696000D01*
X1046440Y694740D01*
G37*
G36*
X1651780Y694220D02*
G01*
X1657140Y694400D01*
X1662440Y695280D01*
X1667560Y696880D01*
X1672440Y699140D01*
X1676960Y702020D01*
X1681060Y705480D01*
X1684660Y709479D01*
X1687700Y713900D01*
X1690120Y718680D01*
X1691879Y723760D01*
X1692960Y729020D01*
X1693320Y734380D01*
X1692960Y739740D01*
X1691879Y745000D01*
X1690120Y750080D01*
X1687700Y754860D01*
X1684660Y759280D01*
X1681060Y763280D01*
X1676960Y766740D01*
X1672440Y769620D01*
X1667560Y771880D01*
X1662440Y773480D01*
X1657140Y774360D01*
X1651780Y774539D01*
X1646440Y774020D01*
X1641220Y772760D01*
X1636200Y770840D01*
X1631500Y768259D01*
X1627180Y765080D01*
X1623320Y761340D01*
X1619980Y757120D01*
X1617240Y752500D01*
X1615160Y747560D01*
X1613740Y742380D01*
X1613020Y737060D01*
X1613020Y731700D01*
X1613740Y726380D01*
X1615160Y721200D01*
X1617240Y716260D01*
X1619980Y711640D01*
X1623320Y707420D01*
X1627180Y703680D01*
X1631500Y700500D01*
X1636200Y697920D01*
X1641220Y696000D01*
X1646440Y694740D01*
G37*
G36*
X1551780Y744220D02*
G01*
X1557140Y744400D01*
X1562440Y745280D01*
X1567560Y746880D01*
X1572440Y749140D01*
X1576960Y752020D01*
X1581060Y755480D01*
X1584660Y759479D01*
X1587700Y763900D01*
X1590120Y768680D01*
X1591879Y773760D01*
X1592960Y779020D01*
X1593320Y784380D01*
X1592960Y789740D01*
X1591879Y795000D01*
X1590120Y800080D01*
X1587700Y804860D01*
X1584660Y809280D01*
X1581060Y813280D01*
X1576960Y816740D01*
X1572440Y819620D01*
X1567560Y821880D01*
X1562440Y823480D01*
X1557140Y824360D01*
X1551780Y824539D01*
X1546440Y824020D01*
X1541220Y822760D01*
X1536200Y820840D01*
X1531500Y818259D01*
X1527180Y815080D01*
X1523320Y811340D01*
X1519980Y807120D01*
X1517240Y802500D01*
X1515160Y797560D01*
X1513740Y792380D01*
X1513020Y787060D01*
X1513020Y781700D01*
X1513740Y776380D01*
X1515160Y771200D01*
X1517240Y766260D01*
X1519980Y761640D01*
X1523320Y757420D01*
X1527180Y753680D01*
X1531500Y750500D01*
X1536200Y747920D01*
X1541220Y746000D01*
X1546440Y744740D01*
G37*
G36*
X318540Y787220D02*
G01*
X324360Y787400D01*
X330100Y788300D01*
X335680Y789900D01*
X341040Y792159D01*
X346060Y795060D01*
X350700Y798560D01*
X354880Y802600D01*
X358519Y807140D01*
X361580Y812080D01*
X364000Y817360D01*
X365760Y822880D01*
X366840Y828600D01*
X367200Y834400D01*
X366840Y840200D01*
X365760Y845920D01*
X364000Y851440D01*
X361580Y856720D01*
X358519Y861660D01*
X354880Y866200D01*
X350700Y870240D01*
X346060Y873740D01*
X341040Y876640D01*
X335680Y878900D01*
X330100Y880500D01*
X324360Y881400D01*
X318540Y881560D01*
X312760Y881040D01*
X307080Y879800D01*
X301600Y877860D01*
X296400Y875260D01*
X291560Y872060D01*
X287140Y868280D01*
X283240Y863980D01*
X279880Y859240D01*
X277120Y854120D01*
X275020Y848700D01*
X273620Y843080D01*
X272900Y837300D01*
X272900Y831500D01*
X273620Y825720D01*
X275020Y820100D01*
X277120Y814680D01*
X279880Y809560D01*
X283240Y804820D01*
X287140Y800520D01*
X291560Y796740D01*
X296400Y793540D01*
X301600Y790939D01*
X307080Y789000D01*
X312760Y787760D01*
G37*
G36*
X678540Y787220D02*
G01*
X684360Y787400D01*
X690100Y788300D01*
X695680Y789900D01*
X701040Y792159D01*
X706060Y795060D01*
X710699Y798560D01*
X714880Y802600D01*
X718520Y807140D01*
X721580Y812080D01*
X724000Y817360D01*
X725759Y822880D01*
X726840Y828600D01*
X727200Y834400D01*
X726840Y840200D01*
X725759Y845920D01*
X724000Y851440D01*
X721580Y856720D01*
X718520Y861660D01*
X714880Y866200D01*
X710699Y870240D01*
X706060Y873740D01*
X701040Y876640D01*
X695680Y878900D01*
X690100Y880500D01*
X684360Y881400D01*
X678540Y881560D01*
X672760Y881040D01*
X667080Y879800D01*
X661600Y877860D01*
X656400Y875260D01*
X651560Y872060D01*
X647140Y868280D01*
X643240Y863980D01*
X639880Y859240D01*
X637120Y854120D01*
X635020Y848700D01*
X633620Y843080D01*
X632900Y837300D01*
X632900Y831500D01*
X633620Y825720D01*
X635020Y820100D01*
X637120Y814680D01*
X639880Y809560D01*
X643240Y804820D01*
X647140Y800520D01*
X651560Y796740D01*
X656400Y793540D01*
X661600Y790939D01*
X667080Y789000D01*
X672760Y787760D01*
G37*
G36*
X1051780Y794220D02*
G01*
X1057140Y794400D01*
X1062440Y795280D01*
X1067560Y796880D01*
X1072440Y799140D01*
X1076960Y802020D01*
X1081060Y805480D01*
X1084660Y809479D01*
X1087700Y813900D01*
X1090120Y818680D01*
X1091880Y823760D01*
X1092960Y829020D01*
X1093320Y834380D01*
X1092960Y839740D01*
X1091880Y845000D01*
X1090120Y850080D01*
X1087700Y854860D01*
X1084660Y859280D01*
X1081060Y863280D01*
X1076960Y866740D01*
X1072440Y869620D01*
X1067560Y871880D01*
X1062440Y873480D01*
X1057140Y874360D01*
X1051780Y874539D01*
X1046440Y874020D01*
X1041220Y872760D01*
X1036200Y870840D01*
X1031500Y868259D01*
X1027180Y865080D01*
X1023319Y861340D01*
X1019980Y857120D01*
X1017240Y852500D01*
X1015160Y847560D01*
X1013740Y842380D01*
X1013020Y837060D01*
X1013020Y831700D01*
X1013740Y826380D01*
X1015160Y821200D01*
X1017240Y816260D01*
X1019980Y811640D01*
X1023319Y807420D01*
X1027180Y803680D01*
X1031500Y800500D01*
X1036200Y797920D01*
X1041220Y796000D01*
X1046440Y794740D01*
G37*
G36*
X1651780Y794220D02*
G01*
X1657140Y794400D01*
X1662440Y795280D01*
X1667560Y796880D01*
X1672440Y799140D01*
X1676960Y802020D01*
X1681060Y805480D01*
X1684660Y809479D01*
X1687700Y813900D01*
X1690120Y818680D01*
X1691879Y823760D01*
X1692960Y829020D01*
X1693320Y834380D01*
X1692960Y839740D01*
X1691879Y845000D01*
X1690120Y850080D01*
X1687700Y854860D01*
X1684660Y859280D01*
X1681060Y863280D01*
X1676960Y866740D01*
X1672440Y869620D01*
X1667560Y871880D01*
X1662440Y873480D01*
X1657140Y874360D01*
X1651780Y874539D01*
X1646440Y874020D01*
X1641220Y872760D01*
X1636200Y870840D01*
X1631500Y868259D01*
X1627180Y865080D01*
X1623320Y861340D01*
X1619980Y857120D01*
X1617240Y852500D01*
X1615160Y847560D01*
X1613740Y842380D01*
X1613020Y837060D01*
X1613020Y831700D01*
X1613740Y826380D01*
X1615160Y821200D01*
X1617240Y816260D01*
X1619980Y811640D01*
X1623320Y807420D01*
X1627180Y803680D01*
X1631500Y800500D01*
X1636200Y797920D01*
X1641220Y796000D01*
X1646440Y794740D01*
G37*
G36*
X1551780Y844220D02*
G01*
X1557140Y844400D01*
X1562440Y845280D01*
X1567560Y846880D01*
X1572440Y849140D01*
X1576960Y852020D01*
X1581060Y855480D01*
X1584660Y859479D01*
X1587700Y863900D01*
X1590120Y868680D01*
X1591879Y873760D01*
X1592960Y879020D01*
X1593320Y884380D01*
X1592960Y889740D01*
X1591879Y895000D01*
X1590120Y900080D01*
X1587700Y904860D01*
X1584660Y909280D01*
X1581060Y913280D01*
X1576960Y916740D01*
X1572440Y919620D01*
X1567560Y921880D01*
X1562440Y923480D01*
X1557140Y924360D01*
X1551780Y924539D01*
X1546440Y924020D01*
X1541220Y922760D01*
X1536200Y920840D01*
X1531500Y918259D01*
X1527180Y915080D01*
X1523320Y911340D01*
X1519980Y907120D01*
X1517240Y902500D01*
X1515160Y897560D01*
X1513740Y892380D01*
X1513020Y887060D01*
X1513020Y881700D01*
X1513740Y876380D01*
X1515160Y871200D01*
X1517240Y866260D01*
X1519980Y861640D01*
X1523320Y857420D01*
X1527180Y853680D01*
X1531500Y850500D01*
X1536200Y847920D01*
X1541220Y846000D01*
X1546440Y844740D01*
G37*
G36*
X1300000Y893180D02*
G01*
X1305380Y893540D01*
X1310660Y894580D01*
X1315760Y896320D01*
X1320600Y898700D01*
X1325080Y901700D01*
X1329120Y905240D01*
X1332680Y909300D01*
X1335680Y913780D01*
X1338060Y918620D01*
X1339780Y923720D01*
X1340840Y929000D01*
X1341200Y934380D01*
X1340840Y939760D01*
X1339780Y945040D01*
X1338060Y950140D01*
X1335680Y954980D01*
X1332680Y959460D01*
X1329120Y963500D01*
X1325080Y967060D01*
X1320600Y970040D01*
X1315760Y972440D01*
X1310660Y974160D01*
X1305380Y975220D01*
X1300000Y975560D01*
X1294620Y975220D01*
X1289340Y974160D01*
X1284240Y972440D01*
X1279400Y970040D01*
X1274920Y967060D01*
X1270880Y963500D01*
X1267320Y959460D01*
X1264320Y954980D01*
X1261940Y950140D01*
X1260220Y945040D01*
X1259160Y939760D01*
X1258800Y934380D01*
X1259160Y929000D01*
X1260220Y923720D01*
X1261940Y918620D01*
X1264320Y913780D01*
X1267320Y909300D01*
X1270880Y905240D01*
X1274920Y901700D01*
X1279400Y898700D01*
X1284240Y896320D01*
X1289340Y894580D01*
X1294620Y893540D01*
G37*
G36*
X1651780Y894220D02*
G01*
X1657140Y894400D01*
X1662440Y895280D01*
X1667560Y896880D01*
X1672440Y899140D01*
X1676960Y902020D01*
X1681060Y905480D01*
X1684660Y909479D01*
X1687700Y913900D01*
X1690120Y918680D01*
X1691879Y923760D01*
X1692960Y929020D01*
X1693320Y934380D01*
X1692960Y939740D01*
X1691879Y945000D01*
X1690120Y950080D01*
X1687700Y954860D01*
X1684660Y959280D01*
X1681060Y963280D01*
X1676960Y966740D01*
X1672440Y969620D01*
X1667560Y971880D01*
X1662440Y973480D01*
X1657140Y974360D01*
X1651780Y974539D01*
X1646440Y974020D01*
X1641220Y972760D01*
X1636200Y970840D01*
X1631500Y968259D01*
X1627180Y965080D01*
X1623320Y961340D01*
X1619980Y957120D01*
X1617240Y952500D01*
X1615160Y947560D01*
X1613740Y942380D01*
X1613020Y937060D01*
X1613020Y931700D01*
X1613740Y926380D01*
X1615160Y921200D01*
X1617240Y916260D01*
X1619980Y911640D01*
X1623320Y907420D01*
X1627180Y903680D01*
X1631500Y900500D01*
X1636200Y897920D01*
X1641220Y896000D01*
X1646440Y894740D01*
G37*
G36*
X1035620Y898240D02*
G01*
X1035620Y916880D01*
X1016979Y916880D01*
X1017240Y916260D01*
X1019980Y911640D01*
X1023319Y907420D01*
X1027180Y903680D01*
X1031500Y900500D01*
G37*
G36*
X1070620Y898300D02*
G01*
X1072440Y899140D01*
X1076960Y902020D01*
X1081060Y905480D01*
X1084660Y909479D01*
X1087700Y913900D01*
X1089200Y916880D01*
X1070620Y916880D01*
G37*
G36*
X78600Y918180D02*
G01*
X140160Y918180D01*
X142640Y918460D01*
X144780Y919200D01*
X146720Y920420D01*
X148320Y922039D01*
X149540Y923960D01*
X150300Y926120D01*
X150580Y928600D01*
X150580Y990160D01*
X150300Y992640D01*
X149540Y994780D01*
X148320Y996720D01*
X146720Y998319D01*
X144780Y999539D01*
X142640Y1000300D01*
X140160Y1000580D01*
X78600Y1000580D01*
X76120Y1000300D01*
X73960Y999539D01*
X72040Y998319D01*
X70420Y996720D01*
X69200Y994780D01*
X68460Y992640D01*
X68180Y990160D01*
X68180Y928600D01*
X68460Y926120D01*
X69200Y923960D01*
X70420Y922039D01*
X72040Y920420D01*
X73960Y919200D01*
X76120Y918460D01*
G37*
G36*
X1070620Y951880D02*
G01*
X1089200Y951880D01*
X1087700Y954860D01*
X1084660Y959280D01*
X1081060Y963280D01*
X1076960Y966740D01*
X1072440Y969620D01*
X1070620Y970460D01*
G37*
G36*
X1016979Y951880D02*
G01*
X1035620Y951880D01*
X1035620Y970520D01*
X1031500Y968259D01*
X1027180Y965080D01*
X1023319Y961340D01*
X1019980Y957120D01*
X1017240Y952500D01*
G37*
G36*
X1051780Y994220D02*
G01*
X1057140Y994400D01*
X1062440Y995280D01*
X1067560Y996880D01*
X1072440Y999140D01*
X1076960Y1002020D01*
X1081060Y1005480D01*
X1084660Y1009479D01*
X1087700Y1013900D01*
X1090120Y1018680D01*
X1091880Y1023760D01*
X1092960Y1029020D01*
X1093320Y1034380D01*
X1092960Y1039740D01*
X1091880Y1045000D01*
X1090120Y1050080D01*
X1087700Y1054860D01*
X1084660Y1059280D01*
X1081060Y1063280D01*
X1076960Y1066740D01*
X1072440Y1069620D01*
X1067560Y1071880D01*
X1062440Y1073480D01*
X1057140Y1074360D01*
X1051780Y1074540D01*
X1046440Y1074020D01*
X1041220Y1072760D01*
X1036200Y1070840D01*
X1031500Y1068260D01*
X1027180Y1065080D01*
X1023319Y1061340D01*
X1019980Y1057120D01*
X1017240Y1052500D01*
X1015160Y1047560D01*
X1013740Y1042380D01*
X1013020Y1037060D01*
X1013020Y1031700D01*
X1013740Y1026380D01*
X1015160Y1021200D01*
X1017240Y1016260D01*
X1019980Y1011640D01*
X1023319Y1007420D01*
X1027180Y1003680D01*
X1031500Y1000500D01*
X1036200Y997920D01*
X1041220Y996000D01*
X1046440Y994740D01*
G37*
G36*
X1651780Y994220D02*
G01*
X1657140Y994400D01*
X1662440Y995280D01*
X1667560Y996880D01*
X1672440Y999140D01*
X1676960Y1002020D01*
X1681060Y1005480D01*
X1684660Y1009479D01*
X1687700Y1013900D01*
X1690120Y1018680D01*
X1691879Y1023760D01*
X1692960Y1029020D01*
X1693320Y1034380D01*
X1692960Y1039740D01*
X1691879Y1045000D01*
X1690120Y1050080D01*
X1687700Y1054860D01*
X1684660Y1059280D01*
X1681060Y1063280D01*
X1676960Y1066740D01*
X1672440Y1069620D01*
X1667560Y1071880D01*
X1662440Y1073480D01*
X1657140Y1074360D01*
X1651780Y1074540D01*
X1646440Y1074020D01*
X1641220Y1072760D01*
X1636200Y1070840D01*
X1631500Y1068260D01*
X1627180Y1065080D01*
X1623320Y1061340D01*
X1620180Y1057380D01*
X1619300Y1056560D01*
X1618220Y1056020D01*
X1617040Y1055840D01*
X1499440Y1055840D01*
X1498220Y1056040D01*
X1497120Y1056600D01*
X1496220Y1057480D01*
X1493200Y1061600D01*
X1489460Y1065460D01*
X1485240Y1068780D01*
X1480480Y1071620D01*
X1479240Y1072760D01*
X1478580Y1074340D01*
X1478600Y1074700D01*
X1477800Y1074100D01*
X1476399Y1073700D01*
X1474940Y1073820D01*
X1470500Y1075040D01*
X1465180Y1075760D01*
X1459820Y1075760D01*
X1454500Y1075040D01*
X1450060Y1073820D01*
X1448600Y1073700D01*
X1447200Y1074100D01*
X1446399Y1074700D01*
X1446420Y1074340D01*
X1445760Y1072760D01*
X1444520Y1071620D01*
X1439760Y1068780D01*
X1435540Y1065460D01*
X1431800Y1061600D01*
X1428620Y1057280D01*
X1426040Y1052560D01*
X1424120Y1047560D01*
X1422860Y1042340D01*
X1422340Y1037000D01*
X1422520Y1031620D01*
X1423400Y1026340D01*
X1425000Y1021200D01*
X1427260Y1016340D01*
X1430140Y1011800D01*
X1433600Y1007700D01*
X1437600Y1004100D01*
X1442020Y1001060D01*
X1446800Y998640D01*
X1451879Y996880D01*
X1457140Y995819D01*
X1462500Y995460D01*
X1467860Y995819D01*
X1473120Y996880D01*
X1478200Y998640D01*
X1482980Y1001060D01*
X1487400Y1004100D01*
X1491399Y1007700D01*
X1494860Y1011800D01*
X1496000Y1013600D01*
X1496900Y1014580D01*
X1498060Y1015220D01*
X1499379Y1015440D01*
X1615440Y1015440D01*
X1616800Y1015220D01*
X1618000Y1014539D01*
X1618880Y1013480D01*
X1619980Y1011640D01*
X1623320Y1007420D01*
X1627180Y1003680D01*
X1631500Y1000500D01*
X1636200Y997920D01*
X1641220Y996000D01*
X1646440Y994740D01*
G37*
G36*
X1318000Y997420D02*
G01*
X1320600Y998700D01*
X1325080Y1001700D01*
X1329120Y1005240D01*
X1332680Y1009300D01*
X1335680Y1013780D01*
X1336960Y1016380D01*
X1318000Y1016380D01*
G37*
G36*
X1282000Y997420D02*
G01*
X1282000Y1016380D01*
X1263040Y1016380D01*
X1264320Y1013780D01*
X1267320Y1009300D01*
X1270880Y1005240D01*
X1274920Y1001700D01*
X1279400Y998700D01*
G37*
G36*
X109380Y1018180D02*
G01*
X114760Y1018540D01*
X120040Y1019580D01*
X125140Y1021320D01*
X129980Y1023700D01*
X134460Y1026700D01*
X138500Y1030240D01*
X142060Y1034300D01*
X145040Y1038780D01*
X147440Y1043620D01*
X149160Y1048720D01*
X150220Y1054000D01*
X150560Y1059380D01*
X150220Y1064760D01*
X149160Y1070040D01*
X147440Y1075140D01*
X145040Y1079980D01*
X142060Y1084460D01*
X138500Y1088500D01*
X134460Y1092060D01*
X129980Y1095040D01*
X125140Y1097440D01*
X120040Y1099160D01*
X114760Y1100220D01*
X109380Y1100560D01*
X104000Y1100220D01*
X98720Y1099160D01*
X93620Y1097440D01*
X88780Y1095040D01*
X84300Y1092060D01*
X80239Y1088500D01*
X76700Y1084460D01*
X73700Y1079980D01*
X71320Y1075140D01*
X69580Y1070040D01*
X68540Y1064760D01*
X68180Y1059380D01*
X68540Y1054000D01*
X69580Y1048720D01*
X71320Y1043620D01*
X73700Y1038780D01*
X76700Y1034300D01*
X80239Y1030240D01*
X84300Y1026700D01*
X88780Y1023700D01*
X93620Y1021320D01*
X98720Y1019580D01*
X104000Y1018540D01*
G37*
G36*
X854920Y1038420D02*
G01*
X860220Y1038600D01*
X865460Y1039479D01*
X870520Y1041060D01*
X875340Y1043300D01*
X879820Y1046140D01*
X883860Y1049580D01*
X887420Y1053500D01*
X890420Y1057880D01*
X892820Y1062620D01*
X894560Y1067640D01*
X895620Y1072840D01*
X895960Y1078120D01*
X895620Y1083420D01*
X894560Y1088620D01*
X892820Y1093640D01*
X890420Y1098360D01*
X887420Y1102740D01*
X883860Y1106680D01*
X879820Y1110100D01*
X875340Y1112960D01*
X870520Y1115180D01*
X865460Y1116760D01*
X860220Y1117640D01*
X854920Y1117820D01*
X849640Y1117300D01*
X844479Y1116060D01*
X839539Y1114160D01*
X834880Y1111600D01*
X830600Y1108460D01*
X826800Y1104760D01*
X823500Y1100600D01*
X820800Y1096040D01*
X818720Y1091160D01*
X817320Y1086040D01*
X816620Y1080780D01*
X816620Y1075480D01*
X817320Y1070220D01*
X818720Y1065100D01*
X820800Y1060220D01*
X823500Y1055640D01*
X826800Y1051480D01*
X830600Y1047800D01*
X834880Y1044640D01*
X839539Y1042099D01*
X844479Y1040180D01*
X849640Y1038960D01*
G37*
G36*
X554920Y1038420D02*
G01*
X560220Y1038600D01*
X565460Y1039479D01*
X570520Y1041060D01*
X575340Y1043300D01*
X579820Y1046140D01*
X583860Y1049580D01*
X587420Y1053500D01*
X588220Y1054660D01*
X589180Y1055660D01*
X590420Y1056260D01*
X591720Y1056620D01*
X595200Y1058140D01*
X598360Y1060220D01*
X600540Y1062140D01*
X722240Y1183840D01*
X724760Y1186820D01*
X726680Y1190040D01*
X728040Y1193520D01*
X728820Y1197240D01*
X729000Y1200120D01*
X729000Y1245140D01*
X729300Y1246680D01*
X730180Y1247980D01*
X827780Y1345660D01*
X828940Y1346459D01*
X830300Y1346819D01*
X831700Y1346680D01*
X832980Y1346040D01*
X834880Y1344640D01*
X839539Y1342100D01*
X844479Y1340180D01*
X849640Y1338959D01*
X854920Y1338420D01*
X860220Y1338600D01*
X865460Y1339480D01*
X870520Y1341060D01*
X875340Y1343300D01*
X879820Y1346140D01*
X883860Y1349580D01*
X887420Y1353500D01*
X890420Y1357880D01*
X892820Y1362620D01*
X894560Y1367640D01*
X895620Y1372840D01*
X895960Y1378120D01*
X895620Y1383420D01*
X894560Y1388620D01*
X892820Y1393640D01*
X890420Y1398360D01*
X887420Y1402740D01*
X883860Y1406680D01*
X879820Y1410100D01*
X875340Y1412960D01*
X870520Y1415180D01*
X865460Y1416759D01*
X860220Y1417640D01*
X854920Y1417820D01*
X849640Y1417300D01*
X844479Y1416060D01*
X839539Y1414160D01*
X834880Y1411600D01*
X830600Y1408460D01*
X826800Y1404760D01*
X824060Y1401300D01*
X823139Y1400460D01*
X822020Y1399940D01*
X820800Y1399580D01*
X817300Y1398060D01*
X814140Y1395980D01*
X811960Y1394060D01*
X690360Y1272360D01*
X687840Y1269380D01*
X685920Y1266160D01*
X684560Y1262660D01*
X683780Y1258960D01*
X683600Y1256080D01*
X683600Y1211060D01*
X683300Y1209520D01*
X682420Y1208240D01*
X584820Y1110620D01*
X583720Y1109840D01*
X582420Y1109480D01*
X581080Y1109560D01*
X579840Y1110080D01*
X575340Y1112960D01*
X570520Y1115180D01*
X565460Y1116760D01*
X560220Y1117640D01*
X554920Y1117820D01*
X549640Y1117300D01*
X544480Y1116060D01*
X539540Y1114160D01*
X534880Y1111600D01*
X530600Y1108460D01*
X526800Y1104760D01*
X523500Y1100600D01*
X520800Y1096040D01*
X518720Y1091160D01*
X517320Y1086040D01*
X516620Y1080780D01*
X516620Y1075480D01*
X517320Y1070220D01*
X518720Y1065100D01*
X520800Y1060220D01*
X523500Y1055640D01*
X526800Y1051480D01*
X530600Y1047800D01*
X534880Y1044640D01*
X539540Y1042099D01*
X544480Y1040180D01*
X549640Y1038960D01*
G37*
G36*
X1263040Y1052380D02*
G01*
X1282000Y1052380D01*
X1282000Y1071320D01*
X1279400Y1070040D01*
X1274920Y1067060D01*
X1270880Y1063500D01*
X1267320Y1059460D01*
X1264320Y1054980D01*
G37*
G36*
X1318000Y1052380D02*
G01*
X1336960Y1052380D01*
X1335680Y1054980D01*
X1332680Y1059460D01*
X1329120Y1063500D01*
X1325080Y1067060D01*
X1320600Y1070040D01*
X1318000Y1071320D01*
G37*
G36*
X1445000Y1078040D02*
G01*
X1445000Y1096840D01*
X1426420Y1096840D01*
X1427260Y1095040D01*
X1430140Y1090500D01*
X1433600Y1086400D01*
X1437600Y1082800D01*
X1442020Y1079760D01*
X1444280Y1078620D01*
G37*
G36*
X1480000Y1078040D02*
G01*
X1480720Y1078620D01*
X1482980Y1079760D01*
X1487400Y1082800D01*
X1491399Y1086400D01*
X1494860Y1090500D01*
X1497740Y1095040D01*
X1498580Y1096840D01*
X1480000Y1096840D01*
G37*
G36*
X1300000Y1093180D02*
G01*
X1305380Y1093540D01*
X1310660Y1094580D01*
X1315760Y1096320D01*
X1320600Y1098700D01*
X1325080Y1101700D01*
X1329120Y1105240D01*
X1332680Y1109300D01*
X1335680Y1113780D01*
X1338060Y1118620D01*
X1339780Y1123720D01*
X1340840Y1129000D01*
X1341200Y1134380D01*
X1340840Y1139760D01*
X1339780Y1145040D01*
X1338060Y1150140D01*
X1335680Y1154980D01*
X1332680Y1159460D01*
X1329120Y1163500D01*
X1325080Y1167060D01*
X1320600Y1170040D01*
X1315760Y1172440D01*
X1310660Y1174160D01*
X1305380Y1175220D01*
X1300000Y1175560D01*
X1294620Y1175220D01*
X1289340Y1174160D01*
X1284240Y1172440D01*
X1279400Y1170040D01*
X1274920Y1167060D01*
X1270880Y1163500D01*
X1267320Y1159460D01*
X1264320Y1154980D01*
X1261940Y1150140D01*
X1260220Y1145040D01*
X1259160Y1139760D01*
X1258800Y1134380D01*
X1259160Y1129000D01*
X1260220Y1123720D01*
X1261940Y1118620D01*
X1264320Y1113780D01*
X1267320Y1109300D01*
X1270880Y1105240D01*
X1274920Y1101700D01*
X1279400Y1098700D01*
X1284240Y1096320D01*
X1289340Y1094580D01*
X1294620Y1093540D01*
G37*
G36*
X1051780Y1094220D02*
G01*
X1057140Y1094400D01*
X1062440Y1095280D01*
X1067560Y1096880D01*
X1072440Y1099140D01*
X1076960Y1102020D01*
X1081060Y1105480D01*
X1084660Y1109480D01*
X1087700Y1113900D01*
X1090120Y1118680D01*
X1091880Y1123760D01*
X1092960Y1129020D01*
X1093320Y1134380D01*
X1092960Y1139740D01*
X1091880Y1145000D01*
X1090120Y1150080D01*
X1087700Y1154860D01*
X1084660Y1159280D01*
X1081060Y1163280D01*
X1076960Y1166740D01*
X1072440Y1169620D01*
X1067560Y1171880D01*
X1062440Y1173480D01*
X1057140Y1174360D01*
X1051780Y1174540D01*
X1046440Y1174020D01*
X1041220Y1172760D01*
X1036200Y1170840D01*
X1031500Y1168260D01*
X1027180Y1165080D01*
X1023319Y1161340D01*
X1019980Y1157120D01*
X1017240Y1152500D01*
X1015160Y1147560D01*
X1013740Y1142380D01*
X1013020Y1137060D01*
X1013020Y1131700D01*
X1013740Y1126380D01*
X1015160Y1121200D01*
X1017240Y1116260D01*
X1019980Y1111640D01*
X1023319Y1107420D01*
X1027180Y1103680D01*
X1031500Y1100500D01*
X1036200Y1097920D01*
X1041220Y1096000D01*
X1046440Y1094740D01*
G37*
G36*
X1635620Y1098240D02*
G01*
X1635620Y1116880D01*
X1616980Y1116880D01*
X1617240Y1116260D01*
X1619980Y1111640D01*
X1623320Y1107420D01*
X1627180Y1103680D01*
X1631500Y1100500D01*
G37*
G36*
X1670620Y1098300D02*
G01*
X1672440Y1099140D01*
X1676960Y1102020D01*
X1681060Y1105480D01*
X1684660Y1109480D01*
X1687700Y1113900D01*
X1689199Y1116880D01*
X1670620Y1116880D01*
G37*
G36*
X109380Y1118180D02*
G01*
X114760Y1118540D01*
X120040Y1119580D01*
X125140Y1121320D01*
X129980Y1123700D01*
X134460Y1126700D01*
X138500Y1130240D01*
X142060Y1134300D01*
X145040Y1138780D01*
X147440Y1143620D01*
X149160Y1148720D01*
X150220Y1154000D01*
X150560Y1159380D01*
X150220Y1164760D01*
X149160Y1170040D01*
X147440Y1175140D01*
X145040Y1179980D01*
X142060Y1184460D01*
X138500Y1188500D01*
X134460Y1192060D01*
X129980Y1195040D01*
X125140Y1197440D01*
X120040Y1199160D01*
X114760Y1200220D01*
X109380Y1200560D01*
X104000Y1200220D01*
X98720Y1199160D01*
X93620Y1197440D01*
X88780Y1195040D01*
X84300Y1192060D01*
X80239Y1188500D01*
X76700Y1184460D01*
X73700Y1179980D01*
X71320Y1175140D01*
X69580Y1170040D01*
X68540Y1164760D01*
X68180Y1159380D01*
X68540Y1154000D01*
X69580Y1148720D01*
X71320Y1143620D01*
X73700Y1138780D01*
X76700Y1134300D01*
X80239Y1130240D01*
X84300Y1126700D01*
X88780Y1123700D01*
X93620Y1121320D01*
X98720Y1119580D01*
X104000Y1118540D01*
G37*
G36*
X1426360Y1131840D02*
G01*
X1445000Y1131840D01*
X1445000Y1150480D01*
X1444379Y1150220D01*
X1439760Y1147480D01*
X1435540Y1144160D01*
X1431800Y1140300D01*
X1428620Y1135980D01*
G37*
G36*
X1480000Y1131840D02*
G01*
X1498640Y1131840D01*
X1496380Y1135980D01*
X1493200Y1140300D01*
X1489460Y1144160D01*
X1485240Y1147480D01*
X1480620Y1150220D01*
X1480000Y1150480D01*
G37*
G36*
X554920Y1138420D02*
G01*
X560220Y1138600D01*
X565460Y1139480D01*
X570520Y1141060D01*
X575340Y1143300D01*
X579820Y1146140D01*
X583860Y1149580D01*
X587420Y1153500D01*
X590420Y1157880D01*
X592820Y1162620D01*
X594560Y1167640D01*
X595620Y1172840D01*
X595960Y1178120D01*
X595620Y1183420D01*
X594560Y1188620D01*
X592820Y1193640D01*
X590420Y1198360D01*
X587420Y1202740D01*
X583860Y1206680D01*
X579820Y1210100D01*
X575340Y1212960D01*
X570520Y1215180D01*
X565460Y1216760D01*
X560220Y1217640D01*
X554920Y1217820D01*
X549640Y1217300D01*
X544480Y1216060D01*
X539540Y1214160D01*
X534880Y1211600D01*
X530600Y1208460D01*
X526800Y1204760D01*
X523500Y1200600D01*
X520800Y1196040D01*
X518720Y1191160D01*
X517320Y1186040D01*
X516620Y1180780D01*
X516620Y1175480D01*
X517320Y1170220D01*
X518720Y1165100D01*
X520800Y1160220D01*
X523500Y1155640D01*
X526800Y1151480D01*
X530600Y1147800D01*
X534880Y1144640D01*
X539540Y1142100D01*
X544480Y1140180D01*
X549640Y1138960D01*
G37*
G36*
X854920Y1138420D02*
G01*
X860220Y1138600D01*
X865460Y1139480D01*
X870520Y1141060D01*
X875340Y1143300D01*
X879820Y1146140D01*
X883860Y1149580D01*
X887420Y1153500D01*
X890420Y1157880D01*
X892820Y1162620D01*
X894560Y1167640D01*
X895620Y1172840D01*
X895960Y1178120D01*
X895620Y1183420D01*
X894560Y1188620D01*
X892820Y1193640D01*
X890420Y1198360D01*
X887420Y1202740D01*
X883860Y1206680D01*
X879820Y1210100D01*
X875340Y1212960D01*
X870520Y1215180D01*
X865460Y1216760D01*
X860220Y1217640D01*
X854920Y1217820D01*
X849640Y1217300D01*
X844479Y1216060D01*
X839539Y1214160D01*
X834880Y1211600D01*
X830600Y1208460D01*
X826800Y1204760D01*
X823500Y1200600D01*
X820800Y1196040D01*
X818720Y1191160D01*
X817320Y1186040D01*
X816620Y1180780D01*
X816620Y1175480D01*
X817320Y1170220D01*
X818720Y1165100D01*
X820800Y1160220D01*
X823500Y1155640D01*
X826800Y1151480D01*
X830600Y1147800D01*
X834880Y1144640D01*
X839539Y1142100D01*
X844479Y1140180D01*
X849640Y1138960D01*
G37*
G36*
X1670620Y1151880D02*
G01*
X1689199Y1151880D01*
X1687700Y1154860D01*
X1684660Y1159280D01*
X1681060Y1163280D01*
X1676960Y1166740D01*
X1672440Y1169620D01*
X1670620Y1170460D01*
G37*
G36*
X1616980Y1151880D02*
G01*
X1635620Y1151880D01*
X1635620Y1170520D01*
X1631500Y1168260D01*
X1627180Y1165080D01*
X1623320Y1161340D01*
X1619980Y1157120D01*
X1617240Y1152500D01*
G37*
G36*
X1269220Y1193180D02*
G01*
X1330780Y1193180D01*
X1333260Y1193460D01*
X1335420Y1194200D01*
X1337340Y1195420D01*
X1338959Y1197040D01*
X1340160Y1198960D01*
X1340920Y1201120D01*
X1341200Y1203600D01*
X1341200Y1265160D01*
X1340920Y1267640D01*
X1340160Y1269780D01*
X1338959Y1271720D01*
X1337340Y1273320D01*
X1335420Y1274540D01*
X1333260Y1275300D01*
X1330780Y1275580D01*
X1269220Y1275580D01*
X1266740Y1275300D01*
X1264580Y1274540D01*
X1262660Y1273320D01*
X1261040Y1271720D01*
X1259840Y1269780D01*
X1259080Y1267640D01*
X1258800Y1265160D01*
X1258800Y1203600D01*
X1259080Y1201120D01*
X1259840Y1198960D01*
X1261040Y1197040D01*
X1262660Y1195420D01*
X1264580Y1194200D01*
X1266740Y1193460D01*
G37*
G36*
X1051780Y1194220D02*
G01*
X1057140Y1194400D01*
X1062440Y1195280D01*
X1067560Y1196880D01*
X1072440Y1199140D01*
X1076960Y1202020D01*
X1081060Y1205480D01*
X1084660Y1209480D01*
X1087700Y1213900D01*
X1090120Y1218680D01*
X1091880Y1223760D01*
X1092960Y1229020D01*
X1093320Y1234380D01*
X1092960Y1239740D01*
X1091880Y1245000D01*
X1090120Y1250080D01*
X1087700Y1254860D01*
X1084660Y1259280D01*
X1081060Y1263280D01*
X1076960Y1266740D01*
X1072440Y1269620D01*
X1067560Y1271880D01*
X1062440Y1273480D01*
X1057140Y1274360D01*
X1051780Y1274540D01*
X1046440Y1274020D01*
X1041220Y1272760D01*
X1036200Y1270840D01*
X1031500Y1268260D01*
X1027180Y1265080D01*
X1023319Y1261340D01*
X1019980Y1257120D01*
X1017240Y1252500D01*
X1015160Y1247560D01*
X1013740Y1242380D01*
X1013020Y1237060D01*
X1013020Y1231700D01*
X1013740Y1226380D01*
X1015160Y1221200D01*
X1017240Y1216260D01*
X1019980Y1211640D01*
X1023319Y1207420D01*
X1027180Y1203680D01*
X1031500Y1200500D01*
X1036200Y1197920D01*
X1041220Y1196000D01*
X1046440Y1194740D01*
G37*
G36*
X1651780Y1194220D02*
G01*
X1657140Y1194400D01*
X1662440Y1195280D01*
X1667560Y1196880D01*
X1672440Y1199140D01*
X1676960Y1202020D01*
X1681060Y1205480D01*
X1684660Y1209480D01*
X1687700Y1213900D01*
X1690120Y1218680D01*
X1691879Y1223760D01*
X1692960Y1229020D01*
X1693320Y1234380D01*
X1692960Y1239740D01*
X1691879Y1245000D01*
X1690120Y1250080D01*
X1687700Y1254860D01*
X1684660Y1259280D01*
X1681060Y1263280D01*
X1676960Y1266740D01*
X1672440Y1269620D01*
X1667560Y1271880D01*
X1662440Y1273480D01*
X1657140Y1274360D01*
X1651780Y1274540D01*
X1646440Y1274020D01*
X1641220Y1272760D01*
X1636200Y1270840D01*
X1631500Y1268260D01*
X1627180Y1265080D01*
X1623320Y1261340D01*
X1619980Y1257120D01*
X1617240Y1252500D01*
X1615160Y1247560D01*
X1613740Y1242380D01*
X1613020Y1237060D01*
X1613020Y1231700D01*
X1613740Y1226380D01*
X1615160Y1221200D01*
X1617240Y1216260D01*
X1619980Y1211640D01*
X1623320Y1207420D01*
X1627180Y1203680D01*
X1631500Y1200500D01*
X1636200Y1197920D01*
X1641220Y1196000D01*
X1646440Y1194740D01*
G37*
G36*
X109380Y1218180D02*
G01*
X114760Y1218540D01*
X120040Y1219580D01*
X125140Y1221320D01*
X129980Y1223700D01*
X134460Y1226700D01*
X138500Y1230240D01*
X142060Y1234300D01*
X145040Y1238780D01*
X147440Y1243620D01*
X149160Y1248720D01*
X150220Y1254000D01*
X150560Y1259380D01*
X150220Y1264760D01*
X149160Y1270040D01*
X147440Y1275140D01*
X145040Y1279980D01*
X142060Y1284460D01*
X138500Y1288500D01*
X134460Y1292060D01*
X129980Y1295040D01*
X125140Y1297440D01*
X120040Y1299160D01*
X114760Y1300220D01*
X109380Y1300560D01*
X104000Y1300220D01*
X98720Y1299160D01*
X93620Y1297440D01*
X88780Y1295040D01*
X84300Y1292060D01*
X80239Y1288500D01*
X76700Y1284460D01*
X73700Y1279980D01*
X71320Y1275140D01*
X69580Y1270040D01*
X68540Y1264760D01*
X68180Y1259380D01*
X68540Y1254000D01*
X69580Y1248720D01*
X71320Y1243620D01*
X73700Y1238780D01*
X76700Y1234300D01*
X80239Y1230240D01*
X84300Y1226700D01*
X88780Y1223700D01*
X93620Y1221320D01*
X98720Y1219580D01*
X104000Y1218540D01*
G37*
G36*
X554920Y1238420D02*
G01*
X560220Y1238600D01*
X565460Y1239480D01*
X570520Y1241060D01*
X575340Y1243300D01*
X579820Y1246140D01*
X583860Y1249580D01*
X587420Y1253500D01*
X590420Y1257880D01*
X592820Y1262620D01*
X594560Y1267640D01*
X595620Y1272840D01*
X595960Y1278120D01*
X595620Y1283420D01*
X594560Y1288620D01*
X592820Y1293640D01*
X590420Y1298360D01*
X587420Y1302740D01*
X583860Y1306680D01*
X579820Y1310100D01*
X575340Y1312960D01*
X570520Y1315180D01*
X565460Y1316759D01*
X560220Y1317640D01*
X554920Y1317820D01*
X549640Y1317300D01*
X544480Y1316060D01*
X539540Y1314160D01*
X534880Y1311600D01*
X530600Y1308460D01*
X526800Y1304760D01*
X523500Y1300600D01*
X520800Y1296040D01*
X518720Y1291160D01*
X517320Y1286040D01*
X516620Y1280780D01*
X516620Y1275480D01*
X517320Y1270220D01*
X518720Y1265100D01*
X520800Y1260220D01*
X523500Y1255640D01*
X526800Y1251480D01*
X530600Y1247800D01*
X534880Y1244640D01*
X539540Y1242100D01*
X544480Y1240180D01*
X549640Y1238960D01*
G37*
G36*
X854920Y1238420D02*
G01*
X860220Y1238600D01*
X865460Y1239480D01*
X870520Y1241060D01*
X875340Y1243300D01*
X879820Y1246140D01*
X883860Y1249580D01*
X887420Y1253500D01*
X890420Y1257880D01*
X892820Y1262620D01*
X894560Y1267640D01*
X895620Y1272840D01*
X895960Y1278120D01*
X895620Y1283420D01*
X894560Y1288620D01*
X892820Y1293640D01*
X890420Y1298360D01*
X887420Y1302740D01*
X883860Y1306680D01*
X879820Y1310100D01*
X875340Y1312960D01*
X870520Y1315180D01*
X865460Y1316759D01*
X860220Y1317640D01*
X854920Y1317820D01*
X849640Y1317300D01*
X844479Y1316060D01*
X839539Y1314160D01*
X834880Y1311600D01*
X830600Y1308460D01*
X826800Y1304760D01*
X823500Y1300600D01*
X820800Y1296040D01*
X818720Y1291160D01*
X817320Y1286040D01*
X816620Y1280780D01*
X816620Y1275480D01*
X817320Y1270220D01*
X818720Y1265100D01*
X820800Y1260220D01*
X823500Y1255640D01*
X826800Y1251480D01*
X830600Y1247800D01*
X834880Y1244640D01*
X839539Y1242100D01*
X844479Y1240180D01*
X849640Y1238960D01*
G37*
G36*
X297340Y1318180D02*
G01*
X358900Y1318180D01*
X361380Y1318460D01*
X363540Y1319199D01*
X365460Y1320420D01*
X367080Y1322040D01*
X368300Y1323959D01*
X369040Y1326120D01*
X369320Y1328600D01*
X369320Y1390160D01*
X369040Y1392640D01*
X368300Y1394780D01*
X367080Y1396720D01*
X365460Y1398320D01*
X363540Y1399540D01*
X361380Y1400300D01*
X358900Y1400580D01*
X297340Y1400580D01*
X294860Y1400300D01*
X292720Y1399540D01*
X290780Y1398320D01*
X289180Y1396720D01*
X287960Y1394780D01*
X287200Y1392640D01*
X286920Y1390160D01*
X286920Y1328600D01*
X287200Y1326120D01*
X287960Y1323959D01*
X289180Y1322040D01*
X290780Y1320420D01*
X292720Y1319199D01*
X294860Y1318460D01*
G37*
G36*
X410120Y1322420D02*
G01*
X410120Y1341380D01*
X391180Y1341380D01*
X392460Y1338779D01*
X395439Y1334300D01*
X399000Y1330240D01*
X403040Y1326699D01*
X407520Y1323700D01*
G37*
G36*
X446120Y1322420D02*
G01*
X448720Y1323700D01*
X453200Y1326699D01*
X457260Y1330240D01*
X460800Y1334300D01*
X463800Y1338779D01*
X465080Y1341380D01*
X446120Y1341380D01*
G37*
G36*
X573520Y1338400D02*
G01*
X585560Y1338400D01*
X588040Y1338680D01*
X590200Y1339440D01*
X592120Y1340640D01*
X593740Y1342260D01*
X594940Y1344180D01*
X595700Y1346339D01*
X595980Y1348820D01*
X595980Y1360860D01*
X573520Y1360860D01*
G37*
G36*
X526940Y1338400D02*
G01*
X538980Y1338400D01*
X538980Y1360860D01*
X516520Y1360860D01*
X516520Y1348820D01*
X516800Y1346339D01*
X517560Y1344180D01*
X518760Y1342260D01*
X520379Y1340640D01*
X522299Y1339440D01*
X524460Y1338680D01*
G37*
G36*
X391180Y1377380D02*
G01*
X410120Y1377380D01*
X410120Y1396320D01*
X407520Y1395040D01*
X403040Y1392060D01*
X399000Y1388500D01*
X395439Y1384460D01*
X392460Y1379980D01*
G37*
G36*
X446120Y1377380D02*
G01*
X465080Y1377380D01*
X463800Y1379980D01*
X460800Y1384460D01*
X457260Y1388500D01*
X453200Y1392060D01*
X448720Y1395040D01*
X446120Y1396320D01*
G37*
G36*
X573520Y1395380D02*
G01*
X595980Y1395380D01*
X595980Y1407420D01*
X595700Y1409920D01*
X594940Y1412060D01*
X593740Y1414000D01*
X592120Y1415600D01*
X590200Y1416819D01*
X588040Y1417580D01*
X585560Y1417860D01*
X573520Y1417860D01*
G37*
G36*
X516520Y1395380D02*
G01*
X538980Y1395380D01*
X538980Y1417860D01*
X526940Y1417860D01*
X524460Y1417580D01*
X522299Y1416819D01*
X520379Y1415600D01*
X518760Y1414000D01*
X517560Y1412060D01*
X516800Y1409920D01*
X516520Y1407420D01*
G37*
G36*
X108040Y1452640D02*
G01*
X115140Y1453200D01*
X122160Y1454480D01*
X129000Y1456459D01*
X135600Y1459160D01*
X141900Y1462500D01*
X147820Y1466480D01*
X153280Y1471040D01*
X158260Y1476160D01*
X162700Y1481740D01*
X166520Y1487760D01*
X169700Y1494139D01*
X172220Y1500820D01*
X174040Y1507700D01*
X175140Y1514740D01*
X175500Y1521860D01*
X175140Y1529000D01*
X174040Y1536040D01*
X172220Y1542920D01*
X169700Y1549600D01*
X166520Y1555980D01*
X162700Y1562000D01*
X158260Y1567580D01*
X153280Y1572700D01*
X147820Y1577260D01*
X141900Y1581240D01*
X135600Y1584580D01*
X129000Y1587280D01*
X122160Y1589259D01*
X115140Y1590540D01*
X108040Y1591100D01*
X100900Y1590920D01*
X93840Y1590000D01*
X86900Y1588360D01*
X80160Y1586020D01*
X73700Y1583000D01*
X67600Y1579319D01*
X61880Y1575040D01*
X56660Y1570200D01*
X51940Y1564840D01*
X47820Y1559040D01*
X44300Y1552840D01*
X41460Y1546300D01*
X39280Y1539500D01*
X37820Y1532520D01*
X37100Y1525440D01*
X37100Y1518300D01*
X37820Y1511220D01*
X39280Y1504240D01*
X41460Y1497440D01*
X44300Y1490900D01*
X47820Y1484700D01*
X51940Y1478899D01*
X56660Y1473540D01*
X61880Y1468700D01*
X67600Y1464420D01*
X73700Y1460740D01*
X80160Y1457720D01*
X86900Y1455380D01*
X93840Y1453740D01*
X100900Y1452820D01*
G37*
G36*
X1620540Y1452640D02*
G01*
X1627640Y1453200D01*
X1634660Y1454480D01*
X1641500Y1456459D01*
X1648100Y1459160D01*
X1654400Y1462500D01*
X1660320Y1466480D01*
X1665780Y1471040D01*
X1670760Y1476160D01*
X1675200Y1481740D01*
X1679019Y1487760D01*
X1682200Y1494139D01*
X1684720Y1500820D01*
X1686540Y1507700D01*
X1687640Y1514740D01*
X1688000Y1521860D01*
X1687640Y1529000D01*
X1686540Y1536040D01*
X1684720Y1542920D01*
X1682200Y1549600D01*
X1679019Y1555980D01*
X1675200Y1562000D01*
X1670760Y1567580D01*
X1665780Y1572700D01*
X1660320Y1577260D01*
X1654400Y1581240D01*
X1648100Y1584580D01*
X1641500Y1587280D01*
X1634660Y1589259D01*
X1627640Y1590540D01*
X1620540Y1591100D01*
X1613400Y1590920D01*
X1606339Y1590000D01*
X1599400Y1588360D01*
X1592660Y1586020D01*
X1586200Y1583000D01*
X1580100Y1579319D01*
X1574379Y1575040D01*
X1569160Y1570200D01*
X1564440Y1564840D01*
X1560320Y1559040D01*
X1556800Y1552840D01*
X1553959Y1546300D01*
X1551780Y1539500D01*
X1550320Y1532520D01*
X1549600Y1525440D01*
X1549600Y1518300D01*
X1550320Y1511220D01*
X1551780Y1504240D01*
X1553959Y1497440D01*
X1556800Y1490900D01*
X1560320Y1484700D01*
X1564440Y1478899D01*
X1569160Y1473540D01*
X1574379Y1468700D01*
X1580100Y1464420D01*
X1586200Y1460740D01*
X1592660Y1457720D01*
X1599400Y1455380D01*
X1606339Y1453740D01*
X1613400Y1452820D01*
G37*

%LPD*%
D37*
X3121878Y2104394D02*
G01*
X3112992Y2113279D01*
X3062259Y2113279D01*
D14*
X2893999Y2113285D02*
G01*
X2703931Y2113285D01*
X2696890Y2106244D01*
X2696890Y2006244D02*
G01*
X2696890Y1904994D01*
D37*
X3121880Y2183099D02*
G01*
X3093275Y2211703D01*
X3062260Y2211703D01*
X2815619Y2206255D02*
G01*
X2821068Y2211703D01*
X2893999Y2211703D01*
D15*
X2900000Y1098750D02*
G01*
X2858321Y1057071D01*
X2335649Y1057071D01*
D12*
X1156244Y2089355D02*
G01*
X1581244Y2089355D01*
X1629345Y2137456D01*
X1783145Y2137456D01*
X1831244Y2089355D01*
X1906244Y2089355D01*
X306244Y2089355D02*
G01*
X354346Y2137456D01*
X683144Y2137456D01*
X731244Y2089355D01*
X1156244Y2089355D01*
X606244Y1770630D02*
G01*
X1031244Y1770630D01*
X1081244Y1820630D01*
X1231244Y1820630D01*
X1281244Y1770630D01*
X1706244Y1770630D01*
X306244Y1770630D02*
G01*
X356244Y1820630D01*
X481244Y1820630D01*
X531244Y1770630D01*
X606244Y1770630D01*
X1706244Y1770630D02*
G01*
X1906244Y1770630D01*
D15*
X2300000Y1325000D02*
G01*
X2300000Y1168773D01*
X2335649Y1133125D01*
X2300000Y971869D02*
G01*
X2335649Y1007519D01*
X2335649Y1133125D01*
D11*
X1462500Y1035650D02*
G01*
X1651850Y1035650D01*
X1653119Y1034380D01*
D13*
X856300Y1378099D02*
G01*
X828100Y1378099D01*
X706300Y1256199D01*
X706300Y1200000D01*
X584400Y1078099D01*
X556300Y1078099D01*
D11*
X1403130Y703119D02*
G01*
X1403130Y975000D01*
X1403130Y975000D01*
D14*
X2696890Y2006250D02*
G01*
X2831250Y2006250D01*
G36*
X3042569Y2228382D02*
G01*
X3042569Y2195037D01*
X3081940Y2195037D01*
X3081940Y2228382D01*
G37*
G36*
X3042569Y2129962D02*
G01*
X3042569Y2096617D01*
X3081940Y2096617D01*
X3081940Y2129962D01*
G37*
G36*
X2874309Y2228382D02*
G01*
X2874309Y2195037D01*
X2913680Y2195037D01*
X2913680Y2228382D01*
G37*
G36*
X2874309Y2129962D02*
G01*
X2874309Y2096617D01*
X2913680Y2096617D01*
X2913680Y2129962D01*
G37*
D25*
G01*
X2664350Y1133119D03*
G01*
X2585649Y1133119D03*
G01*
X2414350Y1133119D03*
G01*
X2335649Y1133119D03*
G36*
X1231000Y253375D02*
G01*
X1231000Y315374D01*
X1168999Y315374D01*
X1168999Y253375D01*
G37*
D27*
G01*
X1300000Y284369D03*
G01*
X1200000Y384369D03*
G01*
X1300000Y384369D03*
G01*
X1200000Y484369D03*
G01*
X1300000Y484369D03*
G01*
X1200000Y584369D03*
G01*
X1300000Y584369D03*
D25*
G01*
X1462500Y1035650D03*
G01*
X1462500Y1114349D03*
G01*
X3090630Y384349D03*
G01*
X3090630Y305650D03*
G01*
X2346880Y384969D03*
G01*
X2346880Y306269D03*
G36*
X1268999Y1265374D02*
G01*
X1268999Y1203375D01*
X1331000Y1203375D01*
X1331000Y1265374D01*
G37*
D27*
G01*
X1300000Y1134369D03*
G01*
X1300000Y1034369D03*
G01*
X1300000Y934369D03*
G36*
X1975245Y1904094D02*
G01*
X1975245Y1837165D01*
X2037245Y1837165D01*
X2037245Y1904094D01*
G37*
D29*
G01*
X2006250Y1770619D03*
G36*
X375244Y1904094D02*
G01*
X375244Y1837165D01*
X437244Y1837165D01*
X437244Y1904094D01*
G37*
G01*
X406250Y1770619D03*
G36*
X1875245Y1904094D02*
G01*
X1875245Y1837165D01*
X1937245Y1837165D01*
X1937245Y1904094D01*
G37*
G01*
X1906250Y1770619D03*
G36*
X275244Y1904094D02*
G01*
X275244Y1837165D01*
X337244Y1837165D01*
X337244Y1904094D01*
G37*
G01*
X306250Y1770619D03*
G36*
X1975245Y2222844D02*
G01*
X1975245Y2155915D01*
X2037245Y2155915D01*
X2037245Y2222844D01*
G37*
G01*
X2006250Y2089369D03*
G36*
X375244Y2222844D02*
G01*
X375244Y2155915D01*
X437244Y2155915D01*
X437244Y2222844D01*
G37*
G01*
X406250Y2089369D03*
G36*
X1875245Y2222844D02*
G01*
X1875245Y2155915D01*
X1937245Y2155915D01*
X1937245Y2222844D01*
G37*
G01*
X1906250Y2089369D03*
G36*
X275244Y2222844D02*
G01*
X275244Y2155915D01*
X337244Y2155915D01*
X337244Y2222844D01*
G37*
G01*
X306250Y2089369D03*
G36*
X2682160Y2175250D02*
G01*
X2749089Y2175250D01*
X2749089Y2237249D01*
X2682160Y2237249D01*
G37*
G01*
X2815619Y2206250D03*
G36*
X2527875Y1775250D02*
G01*
X2527875Y1837249D01*
X2465874Y1837249D01*
X2465874Y1775250D01*
G37*
D27*
G01*
X2496880Y1906239D03*
G01*
X2496880Y2006239D03*
G01*
X2496880Y2106239D03*
G36*
X75911Y259124D02*
G01*
X142840Y259124D01*
X142840Y197125D01*
X75911Y197125D01*
G37*
D29*
G01*
X209380Y228119D03*
G36*
X75911Y359124D02*
G01*
X142840Y359124D01*
X142840Y297125D01*
X75911Y297125D01*
G37*
G01*
X209380Y328119D03*
D26*
G01*
X109380Y959369D03*
D27*
G01*
X109380Y1059369D03*
G01*
X109380Y1159369D03*
G01*
X109380Y1259369D03*
D31*
G01*
X3084380Y1887300D03*
D25*
G01*
X3121880Y2104400D03*
G01*
X3121880Y2183099D03*
D26*
G01*
X328130Y1359369D03*
D27*
G01*
X428130Y1359369D03*
G01*
X2696890Y1906250D03*
G01*
X2596890Y1906250D03*
G01*
X2696890Y2006250D03*
G01*
X2596890Y2006250D03*
G01*
X2696890Y2106250D03*
D26*
G01*
X2596880Y2106250D03*
D32*
G01*
X320000Y256199D03*
G01*
X680000Y256199D03*
G01*
X320000Y371900D03*
G01*
X680000Y371900D03*
G01*
X320000Y487500D03*
G01*
X680000Y487500D03*
G01*
X320000Y603099D03*
G01*
X680000Y603099D03*
G01*
X320000Y718699D03*
G01*
X680000Y718699D03*
G01*
X320000Y834400D03*
G01*
X680000Y834400D03*
D33*
G01*
X1156250Y1870619D03*
G01*
X1156250Y1770619D03*
G01*
X1156250Y2189369D03*
G01*
X1156250Y2089369D03*
G01*
X1706250Y2189369D03*
G01*
X1706250Y2089369D03*
G01*
X606250Y2189369D03*
G01*
X606250Y2089369D03*
G01*
X1706250Y1870619D03*
G01*
X1706250Y1770619D03*
G01*
X606250Y1870619D03*
G01*
X606250Y1770619D03*
G36*
X75911Y759124D02*
G01*
X142840Y759124D01*
X142840Y697125D01*
X75911Y697125D01*
G37*
D29*
G01*
X209380Y728119D03*
D25*
G01*
X1053119Y1234380D03*
G01*
X1053119Y1134380D03*
G01*
X1053119Y1034380D03*
G01*
X1053119Y934380D03*
G01*
X1053119Y834380D03*
G01*
X1053119Y734380D03*
G01*
X1053119Y634380D03*
G01*
X1053119Y534380D03*
G01*
X1053119Y434380D03*
G01*
X1053119Y334380D03*
G01*
X1053119Y234380D03*
G01*
X1053119Y134380D03*
G01*
X1653119Y134380D03*
G01*
X1653119Y234380D03*
G01*
X1653119Y334380D03*
G01*
X1653119Y434380D03*
G01*
X1653119Y534380D03*
G01*
X1653119Y634380D03*
G01*
X1653119Y734380D03*
G01*
X1653119Y834380D03*
G01*
X1653119Y934380D03*
G01*
X1653119Y1034380D03*
G01*
X1653119Y1134380D03*
G01*
X1653119Y1234380D03*
G01*
X1553119Y884380D03*
G01*
X1553119Y784380D03*
G01*
X1553119Y134380D03*
G01*
X1453119Y134380D03*
D33*
G01*
X2125000Y393750D03*
G01*
X2125000Y293750D03*
G01*
X2868750Y393750D03*
G01*
X2868750Y293750D03*
G36*
X75911Y459124D02*
G01*
X142840Y459124D01*
X142840Y397125D01*
X75911Y397125D01*
G37*
D29*
G01*
X209380Y428119D03*
G36*
X75911Y559124D02*
G01*
X142840Y559124D01*
X142840Y497125D01*
X75911Y497125D01*
G37*
G01*
X209380Y528119D03*
G36*
X75911Y659124D02*
G01*
X142840Y659124D01*
X142840Y597125D01*
X75911Y597125D01*
G37*
G01*
X209380Y628119D03*
D34*
G01*
X556250Y1378119D03*
D35*
G01*
X556250Y1278119D03*
G01*
X556250Y1178119D03*
G01*
X556250Y1078119D03*
G01*
X856250Y1378119D03*
G01*
X856250Y1278119D03*
G01*
X856250Y1178119D03*
G01*
X856250Y1078119D03*
D33*
G01*
X2700000Y971869D03*
G01*
X2600000Y971869D03*
G01*
X2600000Y1325000D03*
G01*
X2700000Y1325000D03*
G01*
X2100000Y1198750D03*
G01*
X2100000Y1098750D03*
G01*
X2400000Y1325000D03*
G01*
X2300000Y1325000D03*
G01*
X2900000Y1198750D03*
G01*
X2900000Y1098750D03*
G01*
X2400000Y971869D03*
G01*
X2300000Y971869D03*
D16*
G01*
X978130Y1150000D03*
D14*
G01*
X437500Y921869D03*
D16*
G01*
X487500Y1053119D03*
G01*
X1103130Y1334369D03*
G01*
X875000Y1021869D03*
D14*
G01*
X296880Y931250D03*
G01*
X2500000Y2218750D03*
D16*
G01*
X1412500Y212500D03*
G01*
X1309380Y693750D03*
G01*
X1403130Y703119D03*
G01*
X1403130Y975000D03*
G01*
X1387500Y493750D03*
G01*
X1465630Y287500D03*
G01*
X2831250Y2006250D03*
D36*
X2984380Y1871541D02*
G01*
X2984380Y1903038D01*
X2884369Y1871932D02*
G01*
X2884369Y1903427D01*
M02*
