G04 Layer: BottomSolderMaskLayer*
G04 EasyEDA v6.4.30, 2022-01-25 10:33:58*
G04 5618020f384b45728b455be9ef3c0d3f,7d3f4a13764643a7838717c5c1d40531,10*
G04 Gerber Generator version 0.2*
G04 Scale: 100 percent, Rotated: No, Reflected: No *
G04 Dimensions in inches *
G04 leading zeros omitted , absolute positions ,3 integer and 6 decimal *
%FSLAX36Y36*%
%MOIN*%

%ADD49C,0.0749*%
%ADD50C,0.0640*%
%ADD52C,0.0660*%
%ADD54C,0.0709*%
%ADD62C,0.0780*%
%ADD65C,0.0690*%
%ADD67C,0.0680*%
%ADD69C,0.0631*%

%LPD*%
D49*
X2984380Y1871541D02*
G01*
X2984380Y1903038D01*
X2884369Y1871932D02*
G01*
X2884369Y1903427D01*
D50*
G01*
X2664350Y1133119D03*
G01*
X2585649Y1133119D03*
G01*
X2414350Y1133119D03*
G01*
X2335649Y1133119D03*
G36*
X1166999Y251399D02*
G01*
X1166999Y317399D01*
X1233000Y317399D01*
X1233000Y251399D01*
G37*
D52*
G01*
X1300000Y284369D03*
G01*
X1200000Y384369D03*
G01*
X1300000Y384369D03*
G01*
X1200000Y484369D03*
G01*
X1300000Y484369D03*
G01*
X1200000Y584369D03*
G01*
X1300000Y584369D03*
G36*
X3040600Y2193000D02*
G01*
X3040600Y2230399D01*
X3083900Y2230399D01*
X3083900Y2193000D01*
G37*
G36*
X3040600Y2094600D02*
G01*
X3040600Y2131999D01*
X3083900Y2131999D01*
X3083900Y2094600D01*
G37*
G36*
X2872299Y2193000D02*
G01*
X2872299Y2230399D01*
X2915699Y2230399D01*
X2915699Y2193000D01*
G37*
G36*
X2872299Y2094600D02*
G01*
X2872299Y2131999D01*
X2915699Y2131999D01*
X2915699Y2094600D01*
G37*
D50*
G01*
X1462500Y1035650D03*
G01*
X1462500Y1114349D03*
G01*
X3090630Y384349D03*
G01*
X3090630Y305650D03*
G01*
X2346880Y384969D03*
G01*
X2346880Y306269D03*
G36*
X1266999Y1201399D02*
G01*
X1266999Y1267399D01*
X1333000Y1267399D01*
X1333000Y1201399D01*
G37*
D52*
G01*
X1300000Y1134369D03*
G01*
X1300000Y1034369D03*
G01*
X1300000Y934369D03*
G36*
X1973199Y1835199D02*
G01*
X1973199Y1906100D01*
X2039200Y1906100D01*
X2039200Y1835199D01*
G37*
D54*
G01*
X2006250Y1770619D03*
G36*
X373200Y1835199D02*
G01*
X373200Y1906100D01*
X439200Y1906100D01*
X439200Y1835199D01*
G37*
G01*
X406250Y1770619D03*
G36*
X1873199Y1835199D02*
G01*
X1873199Y1906100D01*
X1939200Y1906100D01*
X1939200Y1835199D01*
G37*
G01*
X1906250Y1770619D03*
G36*
X273200Y1835199D02*
G01*
X273200Y1906100D01*
X339200Y1906100D01*
X339200Y1835199D01*
G37*
G01*
X306250Y1770619D03*
G36*
X1973199Y2153899D02*
G01*
X1973199Y2224800D01*
X2039200Y2224800D01*
X2039200Y2153899D01*
G37*
G01*
X2006250Y2089369D03*
G36*
X373200Y2153899D02*
G01*
X373200Y2224800D01*
X439200Y2224800D01*
X439200Y2153899D01*
G37*
G01*
X406250Y2089369D03*
G36*
X1873199Y2153899D02*
G01*
X1873199Y2224800D01*
X1939200Y2224800D01*
X1939200Y2153899D01*
G37*
G01*
X1906250Y2089369D03*
G36*
X273200Y2153899D02*
G01*
X273200Y2224800D01*
X339200Y2224800D01*
X339200Y2153899D01*
G37*
G01*
X306250Y2089369D03*
G36*
X2680200Y2173200D02*
G01*
X2680200Y2239200D01*
X2751099Y2239200D01*
X2751099Y2173200D01*
G37*
G01*
X2815619Y2206250D03*
G36*
X2463900Y1773200D02*
G01*
X2463900Y1839200D01*
X2529899Y1839200D01*
X2529899Y1773200D01*
G37*
D52*
G01*
X2496880Y1906239D03*
G01*
X2496880Y2006239D03*
G01*
X2496880Y2106239D03*
G36*
X73899Y195100D02*
G01*
X73899Y261100D01*
X144800Y261100D01*
X144800Y195100D01*
G37*
D54*
G01*
X209380Y228119D03*
G36*
X73899Y295100D02*
G01*
X73899Y361100D01*
X144800Y361100D01*
X144800Y295100D01*
G37*
G01*
X209380Y328119D03*
G36*
X76399Y926399D02*
G01*
X76399Y992399D01*
X142399Y992399D01*
X142399Y926399D01*
G37*
D52*
G01*
X109380Y1059369D03*
G01*
X109380Y1159369D03*
G01*
X109380Y1259369D03*
G36*
X3046899Y1834099D02*
G01*
X3046899Y1940500D01*
X3121800Y1940500D01*
X3121800Y1834099D01*
G37*
D50*
G01*
X3121880Y2104400D03*
G01*
X3121880Y2183099D03*
G36*
X295100Y1326399D02*
G01*
X295100Y1392399D01*
X361100Y1392399D01*
X361100Y1326399D01*
G37*
D52*
G01*
X428130Y1359369D03*
G01*
X2696890Y1906250D03*
G01*
X2596890Y1906250D03*
G01*
X2696890Y2006250D03*
G01*
X2596890Y2006250D03*
G01*
X2696890Y2106250D03*
G36*
X2563900Y2073200D02*
G01*
X2563900Y2139200D01*
X2629899Y2139200D01*
X2629899Y2073200D01*
G37*
D62*
G01*
X320000Y256199D03*
G01*
X680000Y256199D03*
G01*
X320000Y371900D03*
G01*
X680000Y371900D03*
G01*
X320000Y487500D03*
G01*
X680000Y487500D03*
G01*
X320000Y603099D03*
G01*
X680000Y603099D03*
G01*
X320000Y718699D03*
G01*
X680000Y718699D03*
G01*
X320000Y834400D03*
G01*
X680000Y834400D03*
D65*
G01*
X1156250Y1870619D03*
G01*
X1156250Y1770619D03*
G01*
X1156250Y2189369D03*
G01*
X1156250Y2089369D03*
G01*
X1706250Y2189369D03*
G01*
X1706250Y2089369D03*
G01*
X606250Y2189369D03*
G01*
X606250Y2089369D03*
G01*
X1706250Y1870619D03*
G01*
X1706250Y1770619D03*
G01*
X606250Y1870619D03*
G01*
X606250Y1770619D03*
G36*
X73899Y695100D02*
G01*
X73899Y761100D01*
X144800Y761100D01*
X144800Y695100D01*
G37*
D54*
G01*
X209380Y728119D03*
D67*
G01*
X1053119Y1234380D03*
G01*
X1053119Y1134380D03*
G01*
X1053119Y1034380D03*
G01*
X1053119Y934380D03*
G01*
X1053119Y834380D03*
G01*
X1053119Y734380D03*
G01*
X1053119Y634380D03*
G01*
X1053119Y534380D03*
G01*
X1053119Y434380D03*
G01*
X1053119Y334380D03*
G01*
X1053119Y234380D03*
G01*
X1053119Y134380D03*
G01*
X1653119Y134380D03*
G01*
X1653119Y234380D03*
G01*
X1653119Y334380D03*
G01*
X1653119Y434380D03*
G01*
X1653119Y534380D03*
G01*
X1653119Y634380D03*
G01*
X1653119Y734380D03*
G01*
X1653119Y834380D03*
G01*
X1653119Y934380D03*
G01*
X1653119Y1034380D03*
G01*
X1653119Y1134380D03*
G01*
X1653119Y1234380D03*
G01*
X1553119Y884380D03*
G01*
X1553119Y784380D03*
G01*
X1553119Y134380D03*
G01*
X1453119Y134380D03*
D65*
G01*
X2125000Y393750D03*
G01*
X2125000Y293750D03*
G01*
X2868750Y393750D03*
G01*
X2868750Y293750D03*
G36*
X73899Y395100D02*
G01*
X73899Y461100D01*
X144800Y461100D01*
X144800Y395100D01*
G37*
D54*
G01*
X209380Y428119D03*
G36*
X73899Y495100D02*
G01*
X73899Y561100D01*
X144800Y561100D01*
X144800Y495100D01*
G37*
G01*
X209380Y528119D03*
G36*
X73899Y595100D02*
G01*
X73899Y661100D01*
X144800Y661100D01*
X144800Y595100D01*
G37*
G01*
X209380Y628119D03*
G36*
X524699Y1346599D02*
G01*
X524699Y1409699D01*
X587800Y1409699D01*
X587800Y1346599D01*
G37*
D69*
G01*
X556250Y1278119D03*
G01*
X556250Y1178119D03*
G01*
X556250Y1078119D03*
G01*
X856250Y1378119D03*
G01*
X856250Y1278119D03*
G01*
X856250Y1178119D03*
G01*
X856250Y1078119D03*
D65*
G01*
X2700000Y971869D03*
G01*
X2600000Y971869D03*
G01*
X2600000Y1325000D03*
G01*
X2700000Y1325000D03*
G01*
X2100000Y1198750D03*
G01*
X2100000Y1098750D03*
G01*
X2400000Y1325000D03*
G01*
X2300000Y1325000D03*
G01*
X2900000Y1198750D03*
G01*
X2900000Y1098750D03*
G01*
X2400000Y971869D03*
G01*
X2300000Y971869D03*
M02*
