G04 Layer: TopSolderMaskLayer*
G04 EasyEDA v6.4.30, 2022-01-25 10:33:58*
G04 5618020f384b45728b455be9ef3c0d3f,7d3f4a13764643a7838717c5c1d40531,10*
G04 Gerber Generator version 0.2*
G04 Scale: 100 percent, Rotated: No, Reflected: No *
G04 Dimensions in inches *
G04 leading zeros omitted , absolute positions ,3 integer and 6 decimal *
%FSLAX36Y36*%
%MOIN*%

%ADD49C,0.0749*%
%ADD50C,0.0640*%
%ADD52C,0.0660*%
%ADD54C,0.0709*%
%ADD62C,0.0780*%
%ADD65C,0.0690*%
%ADD67C,0.0680*%
%ADD69C,0.0631*%

%LPD*%
D49*
X2984380Y1871541D02*
G01*
X2984380Y1903038D01*
X2884369Y1871932D02*
G01*
X2884369Y1903427D01*
D50*
G01*
X2664350Y1133119D03*
G01*
X2585649Y1133119D03*
G01*
X2414350Y1133119D03*
G01*
X2335649Y1133119D03*
G36*
X1166999Y251399D02*
G01*
X1166999Y317399D01*
X1233000Y317399D01*
X1233000Y251399D01*
G37*
D52*
G01*
X1300000Y284369D03*
G01*
X1200000Y384369D03*
G01*
X1300000Y384369D03*
G01*
X1200000Y484369D03*
G01*
X1300000Y484369D03*
G01*
X1200000Y584369D03*
G01*
X1300000Y584369D03*
D50*
G01*
X1462500Y1035650D03*
G01*
X1462500Y1114349D03*
G01*
X3090630Y384349D03*
G01*
X3090630Y305650D03*
G01*
X2346880Y384969D03*
G01*
X2346880Y306269D03*
G36*
X1266999Y1201399D02*
G01*
X1266999Y1267399D01*
X1333000Y1267399D01*
X1333000Y1201399D01*
G37*
D52*
G01*
X1300000Y1134369D03*
G01*
X1300000Y1034369D03*
G01*
X1300000Y934369D03*
G36*
X1973199Y1835199D02*
G01*
X1973199Y1906100D01*
X2039200Y1906100D01*
X2039200Y1835199D01*
G37*
D54*
G01*
X2006250Y1770619D03*
G36*
X373200Y1835199D02*
G01*
X373200Y1906100D01*
X439200Y1906100D01*
X439200Y1835199D01*
G37*
G01*
X406250Y1770619D03*
G36*
X1873199Y1835199D02*
G01*
X1873199Y1906100D01*
X1939200Y1906100D01*
X1939200Y1835199D01*
G37*
G01*
X1906250Y1770619D03*
G36*
X273200Y1835199D02*
G01*
X273200Y1906100D01*
X339200Y1906100D01*
X339200Y1835199D01*
G37*
G01*
X306250Y1770619D03*
G36*
X1973199Y2153899D02*
G01*
X1973199Y2224800D01*
X2039200Y2224800D01*
X2039200Y2153899D01*
G37*
G01*
X2006250Y2089369D03*
G36*
X373200Y2153899D02*
G01*
X373200Y2224800D01*
X439200Y2224800D01*
X439200Y2153899D01*
G37*
G01*
X406250Y2089369D03*
G36*
X1873199Y2153899D02*
G01*
X1873199Y2224800D01*
X1939200Y2224800D01*
X1939200Y2153899D01*
G37*
G01*
X1906250Y2089369D03*
G36*
X273200Y2153899D02*
G01*
X273200Y2224800D01*
X339200Y2224800D01*
X339200Y2153899D01*
G37*
G01*
X306250Y2089369D03*
G36*
X2680200Y2173200D02*
G01*
X2680200Y2239200D01*
X2751099Y2239200D01*
X2751099Y2173200D01*
G37*
G01*
X2815619Y2206250D03*
G36*
X2463900Y1773200D02*
G01*
X2463900Y1839200D01*
X2529899Y1839200D01*
X2529899Y1773200D01*
G37*
D52*
G01*
X2496880Y1906239D03*
G01*
X2496880Y2006239D03*
G01*
X2496880Y2106239D03*
G36*
X2885900Y1996700D02*
G01*
X2885900Y2059200D01*
X2957899Y2059200D01*
X2957899Y1996700D01*
G37*
G36*
X2885900Y2122100D02*
G01*
X2885900Y2184600D01*
X2957899Y2184600D01*
X2957899Y2122100D01*
G37*
G36*
X73899Y195100D02*
G01*
X73899Y261100D01*
X144800Y261100D01*
X144800Y195100D01*
G37*
D54*
G01*
X209380Y228119D03*
G36*
X73899Y295100D02*
G01*
X73899Y361100D01*
X144800Y361100D01*
X144800Y295100D01*
G37*
G01*
X209380Y328119D03*
G36*
X1384799Y636500D02*
G01*
X1384799Y675999D01*
X1420299Y675999D01*
X1420299Y636500D01*
G37*
G36*
X1329700Y636500D02*
G01*
X1329700Y675999D01*
X1365200Y675999D01*
X1365200Y636500D01*
G37*
G36*
X1379700Y317800D02*
G01*
X1379700Y357199D01*
X1415200Y357199D01*
X1415200Y317800D01*
G37*
G36*
X1434799Y317800D02*
G01*
X1434799Y357199D01*
X1470299Y357199D01*
X1470299Y317800D01*
G37*
G36*
X1375100Y434200D02*
G01*
X1375100Y479099D01*
X1400100Y479099D01*
X1400100Y434200D01*
G37*
G36*
X1449899Y434200D02*
G01*
X1449899Y479099D01*
X1474899Y479099D01*
X1474899Y434200D01*
G37*
G36*
X1412500Y520900D02*
G01*
X1412500Y565799D01*
X1437500Y565799D01*
X1437500Y520900D01*
G37*
G36*
X1158699Y174699D02*
G01*
X1158699Y212800D01*
X1194499Y212800D01*
X1194499Y174699D01*
G37*
G36*
X1218000Y174699D02*
G01*
X1218000Y212800D01*
X1253800Y212800D01*
X1253800Y174699D01*
G37*
G36*
X1283699Y174699D02*
G01*
X1283699Y212800D01*
X1319499Y212800D01*
X1319499Y174699D01*
G37*
G36*
X1343000Y174699D02*
G01*
X1343000Y212800D01*
X1378800Y212800D01*
X1378800Y174699D01*
G37*
G36*
X76399Y926399D02*
G01*
X76399Y992399D01*
X142399Y992399D01*
X142399Y926399D01*
G37*
D52*
G01*
X109380Y1059369D03*
G01*
X109380Y1159369D03*
G01*
X109380Y1259369D03*
G36*
X3046899Y1834099D02*
G01*
X3046899Y1940500D01*
X3121800Y1940500D01*
X3121800Y1834099D01*
G37*
D50*
G01*
X3121880Y2104400D03*
G01*
X3121880Y2183099D03*
G36*
X295100Y1326399D02*
G01*
X295100Y1392399D01*
X361100Y1392399D01*
X361100Y1326399D01*
G37*
D52*
G01*
X428130Y1359369D03*
G01*
X2696890Y1906250D03*
G01*
X2596890Y1906250D03*
G01*
X2696890Y2006250D03*
G01*
X2596890Y2006250D03*
G01*
X2696890Y2106250D03*
G36*
X2563900Y2073200D02*
G01*
X2563900Y2139200D01*
X2629899Y2139200D01*
X2629899Y2073200D01*
G37*
G36*
X911599Y1059800D02*
G01*
X911599Y1095300D01*
X951000Y1095300D01*
X951000Y1059800D01*
G37*
G36*
X911599Y1004699D02*
G01*
X911599Y1040199D01*
X951000Y1040199D01*
X951000Y1004699D01*
G37*
G36*
X911599Y1187899D02*
G01*
X911599Y1223400D01*
X951000Y1223400D01*
X951000Y1187899D01*
G37*
G36*
X911599Y1132800D02*
G01*
X911599Y1168299D01*
X951000Y1168299D01*
X951000Y1132800D01*
G37*
G36*
X411500Y1081700D02*
G01*
X411500Y1117199D01*
X450999Y1117199D01*
X450999Y1081700D01*
G37*
G36*
X411500Y1026599D02*
G01*
X411500Y1062100D01*
X450999Y1062100D01*
X450999Y1026599D01*
G37*
D62*
G01*
X320000Y256199D03*
G01*
X680000Y256199D03*
G01*
X320000Y371900D03*
G01*
X680000Y371900D03*
G01*
X320000Y487500D03*
G01*
X680000Y487500D03*
G01*
X320000Y603099D03*
G01*
X680000Y603099D03*
G01*
X320000Y718699D03*
G01*
X680000Y718699D03*
G01*
X320000Y834400D03*
G01*
X680000Y834400D03*
G36*
X899799Y136900D02*
G01*
X899799Y172600D01*
X937799Y172600D01*
X937799Y136900D01*
G37*
G36*
X899799Y196199D02*
G01*
X899799Y231900D01*
X937799Y231900D01*
X937799Y196199D01*
G37*
G36*
X899799Y283699D02*
G01*
X899799Y319400D01*
X937799Y319400D01*
X937799Y283699D01*
G37*
G36*
X899799Y343000D02*
G01*
X899799Y378699D01*
X937799Y378699D01*
X937799Y343000D01*
G37*
G36*
X899799Y430599D02*
G01*
X899799Y466300D01*
X937799Y466300D01*
X937799Y430599D01*
G37*
G36*
X899799Y489899D02*
G01*
X899799Y525599D01*
X937799Y525599D01*
X937799Y489899D01*
G37*
G36*
X899799Y577500D02*
G01*
X899799Y613200D01*
X937799Y613200D01*
X937799Y577500D01*
G37*
G36*
X899799Y636799D02*
G01*
X899799Y672500D01*
X937799Y672500D01*
X937799Y636799D01*
G37*
G36*
X899799Y724400D02*
G01*
X899799Y760100D01*
X937799Y760100D01*
X937799Y724400D01*
G37*
G36*
X899799Y783699D02*
G01*
X899799Y819400D01*
X937799Y819400D01*
X937799Y783699D01*
G37*
G36*
X899799Y871199D02*
G01*
X899799Y906900D01*
X937799Y906900D01*
X937799Y871199D01*
G37*
G36*
X899799Y930500D02*
G01*
X899799Y966199D01*
X937799Y966199D01*
X937799Y930500D01*
G37*
G36*
X471500Y980999D02*
G01*
X471500Y1012600D01*
X524699Y1012600D01*
X524699Y980999D01*
G37*
G36*
X471500Y906199D02*
G01*
X471500Y937800D01*
X524699Y937800D01*
X524699Y906199D01*
G37*
G36*
X550300Y943600D02*
G01*
X550300Y975199D01*
X603499Y975199D01*
X603499Y943600D01*
G37*
G36*
X815900Y137399D02*
G01*
X815900Y169000D01*
X869099Y169000D01*
X869099Y137399D01*
G37*
G36*
X815900Y212199D02*
G01*
X815900Y243800D01*
X869099Y243800D01*
X869099Y212199D01*
G37*
G36*
X737100Y174800D02*
G01*
X737100Y206399D01*
X790299Y206399D01*
X790299Y174800D01*
G37*
G36*
X815900Y281199D02*
G01*
X815900Y312800D01*
X869099Y312800D01*
X869099Y281199D01*
G37*
G36*
X815900Y355999D02*
G01*
X815900Y387600D01*
X869099Y387600D01*
X869099Y355999D01*
G37*
G36*
X737100Y318600D02*
G01*
X737100Y350199D01*
X790299Y350199D01*
X790299Y318600D01*
G37*
G36*
X815900Y431199D02*
G01*
X815900Y462800D01*
X869099Y462800D01*
X869099Y431199D01*
G37*
G36*
X815900Y505999D02*
G01*
X815900Y537600D01*
X869099Y537600D01*
X869099Y505999D01*
G37*
G36*
X737100Y468600D02*
G01*
X737100Y500199D01*
X790299Y500199D01*
X790299Y468600D01*
G37*
G36*
X815900Y578000D02*
G01*
X815900Y609600D01*
X869099Y609600D01*
X869099Y578000D01*
G37*
G36*
X815900Y652800D02*
G01*
X815900Y684400D01*
X869099Y684400D01*
X869099Y652800D01*
G37*
G36*
X737100Y615399D02*
G01*
X737100Y646999D01*
X790299Y646999D01*
X790299Y615399D01*
G37*
G36*
X815900Y724899D02*
G01*
X815900Y756500D01*
X869099Y756500D01*
X869099Y724899D01*
G37*
G36*
X815900Y799699D02*
G01*
X815900Y831300D01*
X869099Y831300D01*
X869099Y799699D01*
G37*
G36*
X737100Y762300D02*
G01*
X737100Y793899D01*
X790299Y793899D01*
X790299Y762300D01*
G37*
G36*
X815900Y871799D02*
G01*
X815900Y903400D01*
X869099Y903400D01*
X869099Y871799D01*
G37*
G36*
X815900Y946599D02*
G01*
X815900Y978200D01*
X869099Y978200D01*
X869099Y946599D01*
G37*
G36*
X737100Y909200D02*
G01*
X737100Y940799D01*
X790299Y940799D01*
X790299Y909200D01*
G37*
D65*
G01*
X1156250Y1870619D03*
G01*
X1156250Y1770619D03*
G01*
X1156250Y2189369D03*
G01*
X1156250Y2089369D03*
G01*
X1706250Y2189369D03*
G01*
X1706250Y2089369D03*
G01*
X606250Y2189369D03*
G01*
X606250Y2089369D03*
G01*
X1706250Y1870619D03*
G01*
X1706250Y1770619D03*
G01*
X606250Y1870619D03*
G01*
X606250Y1770619D03*
G36*
X73899Y695100D02*
G01*
X73899Y761100D01*
X144800Y761100D01*
X144800Y695100D01*
G37*
D54*
G01*
X209380Y728119D03*
G36*
X334099Y915000D02*
G01*
X334099Y950700D01*
X372100Y950700D01*
X372100Y915000D01*
G37*
G36*
X334099Y974299D02*
G01*
X334099Y1010000D01*
X372100Y1010000D01*
X372100Y974299D01*
G37*
G36*
X1186800Y1215399D02*
G01*
X1186800Y1253400D01*
X1222500Y1253400D01*
X1222500Y1215399D01*
G37*
G36*
X1127500Y1215399D02*
G01*
X1127500Y1253400D01*
X1163199Y1253400D01*
X1163199Y1215399D01*
G37*
G36*
X1186800Y1287199D02*
G01*
X1186800Y1325300D01*
X1222500Y1325300D01*
X1222500Y1287199D01*
G37*
G36*
X1127500Y1287199D02*
G01*
X1127500Y1325300D01*
X1163199Y1325300D01*
X1163199Y1287199D01*
G37*
G36*
X249699Y1036799D02*
G01*
X249699Y1072500D01*
X287800Y1072500D01*
X287800Y1036799D01*
G37*
G36*
X249699Y977500D02*
G01*
X249699Y1013200D01*
X287800Y1013200D01*
X287800Y977500D01*
G37*
G36*
X368200Y1176999D02*
G01*
X368200Y1210500D01*
X411599Y1210500D01*
X411599Y1176999D01*
G37*
G36*
X275900Y1176999D02*
G01*
X275900Y1210500D01*
X319299Y1210500D01*
X319299Y1176999D01*
G37*
G36*
X275900Y1245700D02*
G01*
X275900Y1279299D01*
X319299Y1279299D01*
X319299Y1245700D01*
G37*
G36*
X368200Y1245700D02*
G01*
X368200Y1279299D01*
X411599Y1279299D01*
X411599Y1245700D01*
G37*
G36*
X912200Y1299299D02*
G01*
X912200Y1335100D01*
X950299Y1335100D01*
X950299Y1299299D01*
G37*
G36*
X912200Y1358699D02*
G01*
X912200Y1394400D01*
X950299Y1394400D01*
X950299Y1358699D01*
G37*
D67*
G01*
X1053119Y1234380D03*
G01*
X1053119Y1134380D03*
G01*
X1053119Y1034380D03*
G01*
X1053119Y934380D03*
G01*
X1053119Y834380D03*
G01*
X1053119Y734380D03*
G01*
X1053119Y634380D03*
G01*
X1053119Y534380D03*
G01*
X1053119Y434380D03*
G01*
X1053119Y334380D03*
G01*
X1053119Y234380D03*
G01*
X1053119Y134380D03*
G01*
X1653119Y134380D03*
G01*
X1653119Y234380D03*
G01*
X1653119Y334380D03*
G01*
X1653119Y434380D03*
G01*
X1653119Y534380D03*
G01*
X1653119Y634380D03*
G01*
X1653119Y734380D03*
G01*
X1653119Y834380D03*
G01*
X1653119Y934380D03*
G01*
X1653119Y1034380D03*
G01*
X1653119Y1134380D03*
G01*
X1653119Y1234380D03*
G01*
X1553119Y884380D03*
G01*
X1553119Y784380D03*
G01*
X1553119Y134380D03*
G01*
X1453119Y134380D03*
D65*
G01*
X2125000Y393750D03*
G01*
X2125000Y293750D03*
G01*
X2868750Y393750D03*
G01*
X2868750Y293750D03*
G36*
X73899Y395100D02*
G01*
X73899Y461100D01*
X144800Y461100D01*
X144800Y395100D01*
G37*
D54*
G01*
X209380Y428119D03*
G36*
X73899Y495100D02*
G01*
X73899Y561100D01*
X144800Y561100D01*
X144800Y495100D01*
G37*
G01*
X209380Y528119D03*
G36*
X73899Y595100D02*
G01*
X73899Y661100D01*
X144800Y661100D01*
X144800Y595100D01*
G37*
G01*
X209380Y628119D03*
G36*
X524699Y1346599D02*
G01*
X524699Y1409699D01*
X587800Y1409699D01*
X587800Y1346599D01*
G37*
D69*
G01*
X556250Y1278119D03*
G01*
X556250Y1178119D03*
G01*
X556250Y1078119D03*
G01*
X856250Y1378119D03*
G01*
X856250Y1278119D03*
G01*
X856250Y1178119D03*
G01*
X856250Y1078119D03*
D65*
G01*
X2700000Y971869D03*
G01*
X2600000Y971869D03*
G01*
X2600000Y1325000D03*
G01*
X2700000Y1325000D03*
G01*
X2100000Y1198750D03*
G01*
X2100000Y1098750D03*
G01*
X2400000Y1325000D03*
G01*
X2300000Y1325000D03*
G01*
X2900000Y1198750D03*
G01*
X2900000Y1098750D03*
G01*
X2400000Y971869D03*
G01*
X2300000Y971869D03*
G36*
X2594200Y2199000D02*
G01*
X2594200Y2238499D01*
X2629700Y2238499D01*
X2629700Y2199000D01*
G37*
G36*
X2539099Y2199000D02*
G01*
X2539099Y2238499D01*
X2574600Y2238499D01*
X2574600Y2199000D01*
G37*
M02*
